%TF.GenerationSoftware,KiCad,Pcbnew,(5.0.2)-1*%
%TF.CreationDate,2019-02-18T18:23:53-07:00*%
%TF.ProjectId,ParkingSystem,5061726b-696e-4675-9379-7374656d2e6b,v01*%
%TF.SameCoordinates,Original*%
%TF.FileFunction,Copper,L2,Bot*%
%TF.FilePolarity,Positive*%
%FSLAX46Y46*%
G04 Gerber Fmt 4.6, Leading zero omitted, Abs format (unit mm)*
G04 Created by KiCad (PCBNEW (5.0.2)-1) date 2019-02-18 6:23:53 PM*
%MOMM*%
%LPD*%
G01*
G04 APERTURE LIST*
%ADD10C,0.200000*%
%ADD11O,4.400000X2.240000*%
%ADD12O,2.240000X4.900000*%
%ADD13C,0.150000*%
%ADD14C,1.500000*%
%ADD15C,2.000000*%
%ADD16C,7.500000*%
%ADD17O,2.300000X1.500000*%
%ADD18R,2.300000X1.500000*%
%ADD19C,0.950000*%
%ADD20O,1.700000X1.700000*%
%ADD21R,1.700000X1.700000*%
%ADD22C,0.787400*%
%ADD23C,0.152400*%
%ADD24C,0.254000*%
%ADD25C,0.508000*%
G04 APERTURE END LIST*
D10*
X124460000Y-99060000D02*
X68580000Y-99060000D01*
X124460000Y-35000000D02*
X124460000Y-99060000D01*
X68580000Y-35000000D02*
X124460000Y-35000000D01*
X68580000Y-99060000D02*
X68580000Y-35000000D01*
D11*
X79954000Y-75874000D03*
D12*
X76954000Y-71374000D03*
X82954000Y-71374000D03*
D13*
G36*
X79264504Y-59703204D02*
X79288773Y-59706804D01*
X79312571Y-59712765D01*
X79335671Y-59721030D01*
X79357849Y-59731520D01*
X79378893Y-59744133D01*
X79398598Y-59758747D01*
X79416777Y-59775223D01*
X79433253Y-59793402D01*
X79447867Y-59813107D01*
X79460480Y-59834151D01*
X79470970Y-59856329D01*
X79479235Y-59879429D01*
X79485196Y-59903227D01*
X79488796Y-59927496D01*
X79490000Y-59952000D01*
X79490000Y-60952000D01*
X79488796Y-60976504D01*
X79485196Y-61000773D01*
X79479235Y-61024571D01*
X79470970Y-61047671D01*
X79460480Y-61069849D01*
X79447867Y-61090893D01*
X79433253Y-61110598D01*
X79416777Y-61128777D01*
X79398598Y-61145253D01*
X79378893Y-61159867D01*
X79357849Y-61172480D01*
X79335671Y-61182970D01*
X79312571Y-61191235D01*
X79288773Y-61197196D01*
X79264504Y-61200796D01*
X79240000Y-61202000D01*
X78240000Y-61202000D01*
X78215496Y-61200796D01*
X78191227Y-61197196D01*
X78167429Y-61191235D01*
X78144329Y-61182970D01*
X78122151Y-61172480D01*
X78101107Y-61159867D01*
X78081402Y-61145253D01*
X78063223Y-61128777D01*
X78046747Y-61110598D01*
X78032133Y-61090893D01*
X78019520Y-61069849D01*
X78009030Y-61047671D01*
X78000765Y-61024571D01*
X77994804Y-61000773D01*
X77991204Y-60976504D01*
X77990000Y-60952000D01*
X77990000Y-59952000D01*
X77991204Y-59927496D01*
X77994804Y-59903227D01*
X78000765Y-59879429D01*
X78009030Y-59856329D01*
X78019520Y-59834151D01*
X78032133Y-59813107D01*
X78046747Y-59793402D01*
X78063223Y-59775223D01*
X78081402Y-59758747D01*
X78101107Y-59744133D01*
X78122151Y-59731520D01*
X78144329Y-59721030D01*
X78167429Y-59712765D01*
X78191227Y-59706804D01*
X78215496Y-59703204D01*
X78240000Y-59702000D01*
X79240000Y-59702000D01*
X79264504Y-59703204D01*
X79264504Y-59703204D01*
G37*
D14*
X78740000Y-60452000D03*
X81740000Y-60452000D03*
D13*
G36*
X79264504Y-50305204D02*
X79288773Y-50308804D01*
X79312571Y-50314765D01*
X79335671Y-50323030D01*
X79357849Y-50333520D01*
X79378893Y-50346133D01*
X79398598Y-50360747D01*
X79416777Y-50377223D01*
X79433253Y-50395402D01*
X79447867Y-50415107D01*
X79460480Y-50436151D01*
X79470970Y-50458329D01*
X79479235Y-50481429D01*
X79485196Y-50505227D01*
X79488796Y-50529496D01*
X79490000Y-50554000D01*
X79490000Y-51554000D01*
X79488796Y-51578504D01*
X79485196Y-51602773D01*
X79479235Y-51626571D01*
X79470970Y-51649671D01*
X79460480Y-51671849D01*
X79447867Y-51692893D01*
X79433253Y-51712598D01*
X79416777Y-51730777D01*
X79398598Y-51747253D01*
X79378893Y-51761867D01*
X79357849Y-51774480D01*
X79335671Y-51784970D01*
X79312571Y-51793235D01*
X79288773Y-51799196D01*
X79264504Y-51802796D01*
X79240000Y-51804000D01*
X78240000Y-51804000D01*
X78215496Y-51802796D01*
X78191227Y-51799196D01*
X78167429Y-51793235D01*
X78144329Y-51784970D01*
X78122151Y-51774480D01*
X78101107Y-51761867D01*
X78081402Y-51747253D01*
X78063223Y-51730777D01*
X78046747Y-51712598D01*
X78032133Y-51692893D01*
X78019520Y-51671849D01*
X78009030Y-51649671D01*
X78000765Y-51626571D01*
X77994804Y-51602773D01*
X77991204Y-51578504D01*
X77990000Y-51554000D01*
X77990000Y-50554000D01*
X77991204Y-50529496D01*
X77994804Y-50505227D01*
X78000765Y-50481429D01*
X78009030Y-50458329D01*
X78019520Y-50436151D01*
X78032133Y-50415107D01*
X78046747Y-50395402D01*
X78063223Y-50377223D01*
X78081402Y-50360747D01*
X78101107Y-50346133D01*
X78122151Y-50333520D01*
X78144329Y-50323030D01*
X78167429Y-50314765D01*
X78191227Y-50308804D01*
X78215496Y-50305204D01*
X78240000Y-50304000D01*
X79240000Y-50304000D01*
X79264504Y-50305204D01*
X79264504Y-50305204D01*
G37*
D14*
X78740000Y-51054000D03*
X78740000Y-48054000D03*
X81740000Y-51054000D03*
X81740000Y-48054000D03*
D15*
X118752000Y-83312000D03*
X103752000Y-83312000D03*
D16*
X118110000Y-40640000D03*
X82550000Y-93980000D03*
D17*
X72136000Y-86360000D03*
X72136000Y-83820000D03*
D18*
X72136000Y-81280000D03*
D13*
G36*
X95955779Y-56168144D02*
X95978834Y-56171563D01*
X96001443Y-56177227D01*
X96023387Y-56185079D01*
X96044457Y-56195044D01*
X96064448Y-56207026D01*
X96083168Y-56220910D01*
X96100438Y-56236562D01*
X96116090Y-56253832D01*
X96129974Y-56272552D01*
X96141956Y-56292543D01*
X96151921Y-56313613D01*
X96159773Y-56335557D01*
X96165437Y-56358166D01*
X96168856Y-56381221D01*
X96170000Y-56404500D01*
X96170000Y-56879500D01*
X96168856Y-56902779D01*
X96165437Y-56925834D01*
X96159773Y-56948443D01*
X96151921Y-56970387D01*
X96141956Y-56991457D01*
X96129974Y-57011448D01*
X96116090Y-57030168D01*
X96100438Y-57047438D01*
X96083168Y-57063090D01*
X96064448Y-57076974D01*
X96044457Y-57088956D01*
X96023387Y-57098921D01*
X96001443Y-57106773D01*
X95978834Y-57112437D01*
X95955779Y-57115856D01*
X95932500Y-57117000D01*
X95357500Y-57117000D01*
X95334221Y-57115856D01*
X95311166Y-57112437D01*
X95288557Y-57106773D01*
X95266613Y-57098921D01*
X95245543Y-57088956D01*
X95225552Y-57076974D01*
X95206832Y-57063090D01*
X95189562Y-57047438D01*
X95173910Y-57030168D01*
X95160026Y-57011448D01*
X95148044Y-56991457D01*
X95138079Y-56970387D01*
X95130227Y-56948443D01*
X95124563Y-56925834D01*
X95121144Y-56902779D01*
X95120000Y-56879500D01*
X95120000Y-56404500D01*
X95121144Y-56381221D01*
X95124563Y-56358166D01*
X95130227Y-56335557D01*
X95138079Y-56313613D01*
X95148044Y-56292543D01*
X95160026Y-56272552D01*
X95173910Y-56253832D01*
X95189562Y-56236562D01*
X95206832Y-56220910D01*
X95225552Y-56207026D01*
X95245543Y-56195044D01*
X95266613Y-56185079D01*
X95288557Y-56177227D01*
X95311166Y-56171563D01*
X95334221Y-56168144D01*
X95357500Y-56167000D01*
X95932500Y-56167000D01*
X95955779Y-56168144D01*
X95955779Y-56168144D01*
G37*
D19*
X95645000Y-56642000D03*
D13*
G36*
X97705779Y-56168144D02*
X97728834Y-56171563D01*
X97751443Y-56177227D01*
X97773387Y-56185079D01*
X97794457Y-56195044D01*
X97814448Y-56207026D01*
X97833168Y-56220910D01*
X97850438Y-56236562D01*
X97866090Y-56253832D01*
X97879974Y-56272552D01*
X97891956Y-56292543D01*
X97901921Y-56313613D01*
X97909773Y-56335557D01*
X97915437Y-56358166D01*
X97918856Y-56381221D01*
X97920000Y-56404500D01*
X97920000Y-56879500D01*
X97918856Y-56902779D01*
X97915437Y-56925834D01*
X97909773Y-56948443D01*
X97901921Y-56970387D01*
X97891956Y-56991457D01*
X97879974Y-57011448D01*
X97866090Y-57030168D01*
X97850438Y-57047438D01*
X97833168Y-57063090D01*
X97814448Y-57076974D01*
X97794457Y-57088956D01*
X97773387Y-57098921D01*
X97751443Y-57106773D01*
X97728834Y-57112437D01*
X97705779Y-57115856D01*
X97682500Y-57117000D01*
X97107500Y-57117000D01*
X97084221Y-57115856D01*
X97061166Y-57112437D01*
X97038557Y-57106773D01*
X97016613Y-57098921D01*
X96995543Y-57088956D01*
X96975552Y-57076974D01*
X96956832Y-57063090D01*
X96939562Y-57047438D01*
X96923910Y-57030168D01*
X96910026Y-57011448D01*
X96898044Y-56991457D01*
X96888079Y-56970387D01*
X96880227Y-56948443D01*
X96874563Y-56925834D01*
X96871144Y-56902779D01*
X96870000Y-56879500D01*
X96870000Y-56404500D01*
X96871144Y-56381221D01*
X96874563Y-56358166D01*
X96880227Y-56335557D01*
X96888079Y-56313613D01*
X96898044Y-56292543D01*
X96910026Y-56272552D01*
X96923910Y-56253832D01*
X96939562Y-56236562D01*
X96956832Y-56220910D01*
X96975552Y-56207026D01*
X96995543Y-56195044D01*
X97016613Y-56185079D01*
X97038557Y-56177227D01*
X97061166Y-56171563D01*
X97084221Y-56168144D01*
X97107500Y-56167000D01*
X97682500Y-56167000D01*
X97705779Y-56168144D01*
X97705779Y-56168144D01*
G37*
D19*
X97395000Y-56642000D03*
D13*
G36*
X101035779Y-63534144D02*
X101058834Y-63537563D01*
X101081443Y-63543227D01*
X101103387Y-63551079D01*
X101124457Y-63561044D01*
X101144448Y-63573026D01*
X101163168Y-63586910D01*
X101180438Y-63602562D01*
X101196090Y-63619832D01*
X101209974Y-63638552D01*
X101221956Y-63658543D01*
X101231921Y-63679613D01*
X101239773Y-63701557D01*
X101245437Y-63724166D01*
X101248856Y-63747221D01*
X101250000Y-63770500D01*
X101250000Y-64245500D01*
X101248856Y-64268779D01*
X101245437Y-64291834D01*
X101239773Y-64314443D01*
X101231921Y-64336387D01*
X101221956Y-64357457D01*
X101209974Y-64377448D01*
X101196090Y-64396168D01*
X101180438Y-64413438D01*
X101163168Y-64429090D01*
X101144448Y-64442974D01*
X101124457Y-64454956D01*
X101103387Y-64464921D01*
X101081443Y-64472773D01*
X101058834Y-64478437D01*
X101035779Y-64481856D01*
X101012500Y-64483000D01*
X100437500Y-64483000D01*
X100414221Y-64481856D01*
X100391166Y-64478437D01*
X100368557Y-64472773D01*
X100346613Y-64464921D01*
X100325543Y-64454956D01*
X100305552Y-64442974D01*
X100286832Y-64429090D01*
X100269562Y-64413438D01*
X100253910Y-64396168D01*
X100240026Y-64377448D01*
X100228044Y-64357457D01*
X100218079Y-64336387D01*
X100210227Y-64314443D01*
X100204563Y-64291834D01*
X100201144Y-64268779D01*
X100200000Y-64245500D01*
X100200000Y-63770500D01*
X100201144Y-63747221D01*
X100204563Y-63724166D01*
X100210227Y-63701557D01*
X100218079Y-63679613D01*
X100228044Y-63658543D01*
X100240026Y-63638552D01*
X100253910Y-63619832D01*
X100269562Y-63602562D01*
X100286832Y-63586910D01*
X100305552Y-63573026D01*
X100325543Y-63561044D01*
X100346613Y-63551079D01*
X100368557Y-63543227D01*
X100391166Y-63537563D01*
X100414221Y-63534144D01*
X100437500Y-63533000D01*
X101012500Y-63533000D01*
X101035779Y-63534144D01*
X101035779Y-63534144D01*
G37*
D19*
X100725000Y-64008000D03*
D13*
G36*
X102785779Y-63534144D02*
X102808834Y-63537563D01*
X102831443Y-63543227D01*
X102853387Y-63551079D01*
X102874457Y-63561044D01*
X102894448Y-63573026D01*
X102913168Y-63586910D01*
X102930438Y-63602562D01*
X102946090Y-63619832D01*
X102959974Y-63638552D01*
X102971956Y-63658543D01*
X102981921Y-63679613D01*
X102989773Y-63701557D01*
X102995437Y-63724166D01*
X102998856Y-63747221D01*
X103000000Y-63770500D01*
X103000000Y-64245500D01*
X102998856Y-64268779D01*
X102995437Y-64291834D01*
X102989773Y-64314443D01*
X102981921Y-64336387D01*
X102971956Y-64357457D01*
X102959974Y-64377448D01*
X102946090Y-64396168D01*
X102930438Y-64413438D01*
X102913168Y-64429090D01*
X102894448Y-64442974D01*
X102874457Y-64454956D01*
X102853387Y-64464921D01*
X102831443Y-64472773D01*
X102808834Y-64478437D01*
X102785779Y-64481856D01*
X102762500Y-64483000D01*
X102187500Y-64483000D01*
X102164221Y-64481856D01*
X102141166Y-64478437D01*
X102118557Y-64472773D01*
X102096613Y-64464921D01*
X102075543Y-64454956D01*
X102055552Y-64442974D01*
X102036832Y-64429090D01*
X102019562Y-64413438D01*
X102003910Y-64396168D01*
X101990026Y-64377448D01*
X101978044Y-64357457D01*
X101968079Y-64336387D01*
X101960227Y-64314443D01*
X101954563Y-64291834D01*
X101951144Y-64268779D01*
X101950000Y-64245500D01*
X101950000Y-63770500D01*
X101951144Y-63747221D01*
X101954563Y-63724166D01*
X101960227Y-63701557D01*
X101968079Y-63679613D01*
X101978044Y-63658543D01*
X101990026Y-63638552D01*
X102003910Y-63619832D01*
X102019562Y-63602562D01*
X102036832Y-63586910D01*
X102055552Y-63573026D01*
X102075543Y-63561044D01*
X102096613Y-63551079D01*
X102118557Y-63543227D01*
X102141166Y-63537563D01*
X102164221Y-63534144D01*
X102187500Y-63533000D01*
X102762500Y-63533000D01*
X102785779Y-63534144D01*
X102785779Y-63534144D01*
G37*
D19*
X102475000Y-64008000D03*
D13*
G36*
X106115779Y-56676144D02*
X106138834Y-56679563D01*
X106161443Y-56685227D01*
X106183387Y-56693079D01*
X106204457Y-56703044D01*
X106224448Y-56715026D01*
X106243168Y-56728910D01*
X106260438Y-56744562D01*
X106276090Y-56761832D01*
X106289974Y-56780552D01*
X106301956Y-56800543D01*
X106311921Y-56821613D01*
X106319773Y-56843557D01*
X106325437Y-56866166D01*
X106328856Y-56889221D01*
X106330000Y-56912500D01*
X106330000Y-57387500D01*
X106328856Y-57410779D01*
X106325437Y-57433834D01*
X106319773Y-57456443D01*
X106311921Y-57478387D01*
X106301956Y-57499457D01*
X106289974Y-57519448D01*
X106276090Y-57538168D01*
X106260438Y-57555438D01*
X106243168Y-57571090D01*
X106224448Y-57584974D01*
X106204457Y-57596956D01*
X106183387Y-57606921D01*
X106161443Y-57614773D01*
X106138834Y-57620437D01*
X106115779Y-57623856D01*
X106092500Y-57625000D01*
X105517500Y-57625000D01*
X105494221Y-57623856D01*
X105471166Y-57620437D01*
X105448557Y-57614773D01*
X105426613Y-57606921D01*
X105405543Y-57596956D01*
X105385552Y-57584974D01*
X105366832Y-57571090D01*
X105349562Y-57555438D01*
X105333910Y-57538168D01*
X105320026Y-57519448D01*
X105308044Y-57499457D01*
X105298079Y-57478387D01*
X105290227Y-57456443D01*
X105284563Y-57433834D01*
X105281144Y-57410779D01*
X105280000Y-57387500D01*
X105280000Y-56912500D01*
X105281144Y-56889221D01*
X105284563Y-56866166D01*
X105290227Y-56843557D01*
X105298079Y-56821613D01*
X105308044Y-56800543D01*
X105320026Y-56780552D01*
X105333910Y-56761832D01*
X105349562Y-56744562D01*
X105366832Y-56728910D01*
X105385552Y-56715026D01*
X105405543Y-56703044D01*
X105426613Y-56693079D01*
X105448557Y-56685227D01*
X105471166Y-56679563D01*
X105494221Y-56676144D01*
X105517500Y-56675000D01*
X106092500Y-56675000D01*
X106115779Y-56676144D01*
X106115779Y-56676144D01*
G37*
D19*
X105805000Y-57150000D03*
D13*
G36*
X107865779Y-56676144D02*
X107888834Y-56679563D01*
X107911443Y-56685227D01*
X107933387Y-56693079D01*
X107954457Y-56703044D01*
X107974448Y-56715026D01*
X107993168Y-56728910D01*
X108010438Y-56744562D01*
X108026090Y-56761832D01*
X108039974Y-56780552D01*
X108051956Y-56800543D01*
X108061921Y-56821613D01*
X108069773Y-56843557D01*
X108075437Y-56866166D01*
X108078856Y-56889221D01*
X108080000Y-56912500D01*
X108080000Y-57387500D01*
X108078856Y-57410779D01*
X108075437Y-57433834D01*
X108069773Y-57456443D01*
X108061921Y-57478387D01*
X108051956Y-57499457D01*
X108039974Y-57519448D01*
X108026090Y-57538168D01*
X108010438Y-57555438D01*
X107993168Y-57571090D01*
X107974448Y-57584974D01*
X107954457Y-57596956D01*
X107933387Y-57606921D01*
X107911443Y-57614773D01*
X107888834Y-57620437D01*
X107865779Y-57623856D01*
X107842500Y-57625000D01*
X107267500Y-57625000D01*
X107244221Y-57623856D01*
X107221166Y-57620437D01*
X107198557Y-57614773D01*
X107176613Y-57606921D01*
X107155543Y-57596956D01*
X107135552Y-57584974D01*
X107116832Y-57571090D01*
X107099562Y-57555438D01*
X107083910Y-57538168D01*
X107070026Y-57519448D01*
X107058044Y-57499457D01*
X107048079Y-57478387D01*
X107040227Y-57456443D01*
X107034563Y-57433834D01*
X107031144Y-57410779D01*
X107030000Y-57387500D01*
X107030000Y-56912500D01*
X107031144Y-56889221D01*
X107034563Y-56866166D01*
X107040227Y-56843557D01*
X107048079Y-56821613D01*
X107058044Y-56800543D01*
X107070026Y-56780552D01*
X107083910Y-56761832D01*
X107099562Y-56744562D01*
X107116832Y-56728910D01*
X107135552Y-56715026D01*
X107155543Y-56703044D01*
X107176613Y-56693079D01*
X107198557Y-56685227D01*
X107221166Y-56679563D01*
X107244221Y-56676144D01*
X107267500Y-56675000D01*
X107842500Y-56675000D01*
X107865779Y-56676144D01*
X107865779Y-56676144D01*
G37*
D19*
X107555000Y-57150000D03*
D13*
G36*
X101035779Y-61756144D02*
X101058834Y-61759563D01*
X101081443Y-61765227D01*
X101103387Y-61773079D01*
X101124457Y-61783044D01*
X101144448Y-61795026D01*
X101163168Y-61808910D01*
X101180438Y-61824562D01*
X101196090Y-61841832D01*
X101209974Y-61860552D01*
X101221956Y-61880543D01*
X101231921Y-61901613D01*
X101239773Y-61923557D01*
X101245437Y-61946166D01*
X101248856Y-61969221D01*
X101250000Y-61992500D01*
X101250000Y-62467500D01*
X101248856Y-62490779D01*
X101245437Y-62513834D01*
X101239773Y-62536443D01*
X101231921Y-62558387D01*
X101221956Y-62579457D01*
X101209974Y-62599448D01*
X101196090Y-62618168D01*
X101180438Y-62635438D01*
X101163168Y-62651090D01*
X101144448Y-62664974D01*
X101124457Y-62676956D01*
X101103387Y-62686921D01*
X101081443Y-62694773D01*
X101058834Y-62700437D01*
X101035779Y-62703856D01*
X101012500Y-62705000D01*
X100437500Y-62705000D01*
X100414221Y-62703856D01*
X100391166Y-62700437D01*
X100368557Y-62694773D01*
X100346613Y-62686921D01*
X100325543Y-62676956D01*
X100305552Y-62664974D01*
X100286832Y-62651090D01*
X100269562Y-62635438D01*
X100253910Y-62618168D01*
X100240026Y-62599448D01*
X100228044Y-62579457D01*
X100218079Y-62558387D01*
X100210227Y-62536443D01*
X100204563Y-62513834D01*
X100201144Y-62490779D01*
X100200000Y-62467500D01*
X100200000Y-61992500D01*
X100201144Y-61969221D01*
X100204563Y-61946166D01*
X100210227Y-61923557D01*
X100218079Y-61901613D01*
X100228044Y-61880543D01*
X100240026Y-61860552D01*
X100253910Y-61841832D01*
X100269562Y-61824562D01*
X100286832Y-61808910D01*
X100305552Y-61795026D01*
X100325543Y-61783044D01*
X100346613Y-61773079D01*
X100368557Y-61765227D01*
X100391166Y-61759563D01*
X100414221Y-61756144D01*
X100437500Y-61755000D01*
X101012500Y-61755000D01*
X101035779Y-61756144D01*
X101035779Y-61756144D01*
G37*
D19*
X100725000Y-62230000D03*
D13*
G36*
X102785779Y-61756144D02*
X102808834Y-61759563D01*
X102831443Y-61765227D01*
X102853387Y-61773079D01*
X102874457Y-61783044D01*
X102894448Y-61795026D01*
X102913168Y-61808910D01*
X102930438Y-61824562D01*
X102946090Y-61841832D01*
X102959974Y-61860552D01*
X102971956Y-61880543D01*
X102981921Y-61901613D01*
X102989773Y-61923557D01*
X102995437Y-61946166D01*
X102998856Y-61969221D01*
X103000000Y-61992500D01*
X103000000Y-62467500D01*
X102998856Y-62490779D01*
X102995437Y-62513834D01*
X102989773Y-62536443D01*
X102981921Y-62558387D01*
X102971956Y-62579457D01*
X102959974Y-62599448D01*
X102946090Y-62618168D01*
X102930438Y-62635438D01*
X102913168Y-62651090D01*
X102894448Y-62664974D01*
X102874457Y-62676956D01*
X102853387Y-62686921D01*
X102831443Y-62694773D01*
X102808834Y-62700437D01*
X102785779Y-62703856D01*
X102762500Y-62705000D01*
X102187500Y-62705000D01*
X102164221Y-62703856D01*
X102141166Y-62700437D01*
X102118557Y-62694773D01*
X102096613Y-62686921D01*
X102075543Y-62676956D01*
X102055552Y-62664974D01*
X102036832Y-62651090D01*
X102019562Y-62635438D01*
X102003910Y-62618168D01*
X101990026Y-62599448D01*
X101978044Y-62579457D01*
X101968079Y-62558387D01*
X101960227Y-62536443D01*
X101954563Y-62513834D01*
X101951144Y-62490779D01*
X101950000Y-62467500D01*
X101950000Y-61992500D01*
X101951144Y-61969221D01*
X101954563Y-61946166D01*
X101960227Y-61923557D01*
X101968079Y-61901613D01*
X101978044Y-61880543D01*
X101990026Y-61860552D01*
X102003910Y-61841832D01*
X102019562Y-61824562D01*
X102036832Y-61808910D01*
X102055552Y-61795026D01*
X102075543Y-61783044D01*
X102096613Y-61773079D01*
X102118557Y-61765227D01*
X102141166Y-61759563D01*
X102164221Y-61756144D01*
X102187500Y-61755000D01*
X102762500Y-61755000D01*
X102785779Y-61756144D01*
X102785779Y-61756144D01*
G37*
D19*
X102475000Y-62230000D03*
D13*
G36*
X106115779Y-58454144D02*
X106138834Y-58457563D01*
X106161443Y-58463227D01*
X106183387Y-58471079D01*
X106204457Y-58481044D01*
X106224448Y-58493026D01*
X106243168Y-58506910D01*
X106260438Y-58522562D01*
X106276090Y-58539832D01*
X106289974Y-58558552D01*
X106301956Y-58578543D01*
X106311921Y-58599613D01*
X106319773Y-58621557D01*
X106325437Y-58644166D01*
X106328856Y-58667221D01*
X106330000Y-58690500D01*
X106330000Y-59165500D01*
X106328856Y-59188779D01*
X106325437Y-59211834D01*
X106319773Y-59234443D01*
X106311921Y-59256387D01*
X106301956Y-59277457D01*
X106289974Y-59297448D01*
X106276090Y-59316168D01*
X106260438Y-59333438D01*
X106243168Y-59349090D01*
X106224448Y-59362974D01*
X106204457Y-59374956D01*
X106183387Y-59384921D01*
X106161443Y-59392773D01*
X106138834Y-59398437D01*
X106115779Y-59401856D01*
X106092500Y-59403000D01*
X105517500Y-59403000D01*
X105494221Y-59401856D01*
X105471166Y-59398437D01*
X105448557Y-59392773D01*
X105426613Y-59384921D01*
X105405543Y-59374956D01*
X105385552Y-59362974D01*
X105366832Y-59349090D01*
X105349562Y-59333438D01*
X105333910Y-59316168D01*
X105320026Y-59297448D01*
X105308044Y-59277457D01*
X105298079Y-59256387D01*
X105290227Y-59234443D01*
X105284563Y-59211834D01*
X105281144Y-59188779D01*
X105280000Y-59165500D01*
X105280000Y-58690500D01*
X105281144Y-58667221D01*
X105284563Y-58644166D01*
X105290227Y-58621557D01*
X105298079Y-58599613D01*
X105308044Y-58578543D01*
X105320026Y-58558552D01*
X105333910Y-58539832D01*
X105349562Y-58522562D01*
X105366832Y-58506910D01*
X105385552Y-58493026D01*
X105405543Y-58481044D01*
X105426613Y-58471079D01*
X105448557Y-58463227D01*
X105471166Y-58457563D01*
X105494221Y-58454144D01*
X105517500Y-58453000D01*
X106092500Y-58453000D01*
X106115779Y-58454144D01*
X106115779Y-58454144D01*
G37*
D19*
X105805000Y-58928000D03*
D13*
G36*
X107865779Y-58454144D02*
X107888834Y-58457563D01*
X107911443Y-58463227D01*
X107933387Y-58471079D01*
X107954457Y-58481044D01*
X107974448Y-58493026D01*
X107993168Y-58506910D01*
X108010438Y-58522562D01*
X108026090Y-58539832D01*
X108039974Y-58558552D01*
X108051956Y-58578543D01*
X108061921Y-58599613D01*
X108069773Y-58621557D01*
X108075437Y-58644166D01*
X108078856Y-58667221D01*
X108080000Y-58690500D01*
X108080000Y-59165500D01*
X108078856Y-59188779D01*
X108075437Y-59211834D01*
X108069773Y-59234443D01*
X108061921Y-59256387D01*
X108051956Y-59277457D01*
X108039974Y-59297448D01*
X108026090Y-59316168D01*
X108010438Y-59333438D01*
X107993168Y-59349090D01*
X107974448Y-59362974D01*
X107954457Y-59374956D01*
X107933387Y-59384921D01*
X107911443Y-59392773D01*
X107888834Y-59398437D01*
X107865779Y-59401856D01*
X107842500Y-59403000D01*
X107267500Y-59403000D01*
X107244221Y-59401856D01*
X107221166Y-59398437D01*
X107198557Y-59392773D01*
X107176613Y-59384921D01*
X107155543Y-59374956D01*
X107135552Y-59362974D01*
X107116832Y-59349090D01*
X107099562Y-59333438D01*
X107083910Y-59316168D01*
X107070026Y-59297448D01*
X107058044Y-59277457D01*
X107048079Y-59256387D01*
X107040227Y-59234443D01*
X107034563Y-59211834D01*
X107031144Y-59188779D01*
X107030000Y-59165500D01*
X107030000Y-58690500D01*
X107031144Y-58667221D01*
X107034563Y-58644166D01*
X107040227Y-58621557D01*
X107048079Y-58599613D01*
X107058044Y-58578543D01*
X107070026Y-58558552D01*
X107083910Y-58539832D01*
X107099562Y-58522562D01*
X107116832Y-58506910D01*
X107135552Y-58493026D01*
X107155543Y-58481044D01*
X107176613Y-58471079D01*
X107198557Y-58463227D01*
X107221166Y-58457563D01*
X107244221Y-58454144D01*
X107267500Y-58453000D01*
X107842500Y-58453000D01*
X107865779Y-58454144D01*
X107865779Y-58454144D01*
G37*
D19*
X107555000Y-58928000D03*
D13*
G36*
X95955779Y-54390144D02*
X95978834Y-54393563D01*
X96001443Y-54399227D01*
X96023387Y-54407079D01*
X96044457Y-54417044D01*
X96064448Y-54429026D01*
X96083168Y-54442910D01*
X96100438Y-54458562D01*
X96116090Y-54475832D01*
X96129974Y-54494552D01*
X96141956Y-54514543D01*
X96151921Y-54535613D01*
X96159773Y-54557557D01*
X96165437Y-54580166D01*
X96168856Y-54603221D01*
X96170000Y-54626500D01*
X96170000Y-55101500D01*
X96168856Y-55124779D01*
X96165437Y-55147834D01*
X96159773Y-55170443D01*
X96151921Y-55192387D01*
X96141956Y-55213457D01*
X96129974Y-55233448D01*
X96116090Y-55252168D01*
X96100438Y-55269438D01*
X96083168Y-55285090D01*
X96064448Y-55298974D01*
X96044457Y-55310956D01*
X96023387Y-55320921D01*
X96001443Y-55328773D01*
X95978834Y-55334437D01*
X95955779Y-55337856D01*
X95932500Y-55339000D01*
X95357500Y-55339000D01*
X95334221Y-55337856D01*
X95311166Y-55334437D01*
X95288557Y-55328773D01*
X95266613Y-55320921D01*
X95245543Y-55310956D01*
X95225552Y-55298974D01*
X95206832Y-55285090D01*
X95189562Y-55269438D01*
X95173910Y-55252168D01*
X95160026Y-55233448D01*
X95148044Y-55213457D01*
X95138079Y-55192387D01*
X95130227Y-55170443D01*
X95124563Y-55147834D01*
X95121144Y-55124779D01*
X95120000Y-55101500D01*
X95120000Y-54626500D01*
X95121144Y-54603221D01*
X95124563Y-54580166D01*
X95130227Y-54557557D01*
X95138079Y-54535613D01*
X95148044Y-54514543D01*
X95160026Y-54494552D01*
X95173910Y-54475832D01*
X95189562Y-54458562D01*
X95206832Y-54442910D01*
X95225552Y-54429026D01*
X95245543Y-54417044D01*
X95266613Y-54407079D01*
X95288557Y-54399227D01*
X95311166Y-54393563D01*
X95334221Y-54390144D01*
X95357500Y-54389000D01*
X95932500Y-54389000D01*
X95955779Y-54390144D01*
X95955779Y-54390144D01*
G37*
D19*
X95645000Y-54864000D03*
D13*
G36*
X97705779Y-54390144D02*
X97728834Y-54393563D01*
X97751443Y-54399227D01*
X97773387Y-54407079D01*
X97794457Y-54417044D01*
X97814448Y-54429026D01*
X97833168Y-54442910D01*
X97850438Y-54458562D01*
X97866090Y-54475832D01*
X97879974Y-54494552D01*
X97891956Y-54514543D01*
X97901921Y-54535613D01*
X97909773Y-54557557D01*
X97915437Y-54580166D01*
X97918856Y-54603221D01*
X97920000Y-54626500D01*
X97920000Y-55101500D01*
X97918856Y-55124779D01*
X97915437Y-55147834D01*
X97909773Y-55170443D01*
X97901921Y-55192387D01*
X97891956Y-55213457D01*
X97879974Y-55233448D01*
X97866090Y-55252168D01*
X97850438Y-55269438D01*
X97833168Y-55285090D01*
X97814448Y-55298974D01*
X97794457Y-55310956D01*
X97773387Y-55320921D01*
X97751443Y-55328773D01*
X97728834Y-55334437D01*
X97705779Y-55337856D01*
X97682500Y-55339000D01*
X97107500Y-55339000D01*
X97084221Y-55337856D01*
X97061166Y-55334437D01*
X97038557Y-55328773D01*
X97016613Y-55320921D01*
X96995543Y-55310956D01*
X96975552Y-55298974D01*
X96956832Y-55285090D01*
X96939562Y-55269438D01*
X96923910Y-55252168D01*
X96910026Y-55233448D01*
X96898044Y-55213457D01*
X96888079Y-55192387D01*
X96880227Y-55170443D01*
X96874563Y-55147834D01*
X96871144Y-55124779D01*
X96870000Y-55101500D01*
X96870000Y-54626500D01*
X96871144Y-54603221D01*
X96874563Y-54580166D01*
X96880227Y-54557557D01*
X96888079Y-54535613D01*
X96898044Y-54514543D01*
X96910026Y-54494552D01*
X96923910Y-54475832D01*
X96939562Y-54458562D01*
X96956832Y-54442910D01*
X96975552Y-54429026D01*
X96995543Y-54417044D01*
X97016613Y-54407079D01*
X97038557Y-54399227D01*
X97061166Y-54393563D01*
X97084221Y-54390144D01*
X97107500Y-54389000D01*
X97682500Y-54389000D01*
X97705779Y-54390144D01*
X97705779Y-54390144D01*
G37*
D19*
X97395000Y-54864000D03*
D13*
G36*
X100781779Y-52104144D02*
X100804834Y-52107563D01*
X100827443Y-52113227D01*
X100849387Y-52121079D01*
X100870457Y-52131044D01*
X100890448Y-52143026D01*
X100909168Y-52156910D01*
X100926438Y-52172562D01*
X100942090Y-52189832D01*
X100955974Y-52208552D01*
X100967956Y-52228543D01*
X100977921Y-52249613D01*
X100985773Y-52271557D01*
X100991437Y-52294166D01*
X100994856Y-52317221D01*
X100996000Y-52340500D01*
X100996000Y-52815500D01*
X100994856Y-52838779D01*
X100991437Y-52861834D01*
X100985773Y-52884443D01*
X100977921Y-52906387D01*
X100967956Y-52927457D01*
X100955974Y-52947448D01*
X100942090Y-52966168D01*
X100926438Y-52983438D01*
X100909168Y-52999090D01*
X100890448Y-53012974D01*
X100870457Y-53024956D01*
X100849387Y-53034921D01*
X100827443Y-53042773D01*
X100804834Y-53048437D01*
X100781779Y-53051856D01*
X100758500Y-53053000D01*
X100183500Y-53053000D01*
X100160221Y-53051856D01*
X100137166Y-53048437D01*
X100114557Y-53042773D01*
X100092613Y-53034921D01*
X100071543Y-53024956D01*
X100051552Y-53012974D01*
X100032832Y-52999090D01*
X100015562Y-52983438D01*
X99999910Y-52966168D01*
X99986026Y-52947448D01*
X99974044Y-52927457D01*
X99964079Y-52906387D01*
X99956227Y-52884443D01*
X99950563Y-52861834D01*
X99947144Y-52838779D01*
X99946000Y-52815500D01*
X99946000Y-52340500D01*
X99947144Y-52317221D01*
X99950563Y-52294166D01*
X99956227Y-52271557D01*
X99964079Y-52249613D01*
X99974044Y-52228543D01*
X99986026Y-52208552D01*
X99999910Y-52189832D01*
X100015562Y-52172562D01*
X100032832Y-52156910D01*
X100051552Y-52143026D01*
X100071543Y-52131044D01*
X100092613Y-52121079D01*
X100114557Y-52113227D01*
X100137166Y-52107563D01*
X100160221Y-52104144D01*
X100183500Y-52103000D01*
X100758500Y-52103000D01*
X100781779Y-52104144D01*
X100781779Y-52104144D01*
G37*
D19*
X100471000Y-52578000D03*
D13*
G36*
X102531779Y-52104144D02*
X102554834Y-52107563D01*
X102577443Y-52113227D01*
X102599387Y-52121079D01*
X102620457Y-52131044D01*
X102640448Y-52143026D01*
X102659168Y-52156910D01*
X102676438Y-52172562D01*
X102692090Y-52189832D01*
X102705974Y-52208552D01*
X102717956Y-52228543D01*
X102727921Y-52249613D01*
X102735773Y-52271557D01*
X102741437Y-52294166D01*
X102744856Y-52317221D01*
X102746000Y-52340500D01*
X102746000Y-52815500D01*
X102744856Y-52838779D01*
X102741437Y-52861834D01*
X102735773Y-52884443D01*
X102727921Y-52906387D01*
X102717956Y-52927457D01*
X102705974Y-52947448D01*
X102692090Y-52966168D01*
X102676438Y-52983438D01*
X102659168Y-52999090D01*
X102640448Y-53012974D01*
X102620457Y-53024956D01*
X102599387Y-53034921D01*
X102577443Y-53042773D01*
X102554834Y-53048437D01*
X102531779Y-53051856D01*
X102508500Y-53053000D01*
X101933500Y-53053000D01*
X101910221Y-53051856D01*
X101887166Y-53048437D01*
X101864557Y-53042773D01*
X101842613Y-53034921D01*
X101821543Y-53024956D01*
X101801552Y-53012974D01*
X101782832Y-52999090D01*
X101765562Y-52983438D01*
X101749910Y-52966168D01*
X101736026Y-52947448D01*
X101724044Y-52927457D01*
X101714079Y-52906387D01*
X101706227Y-52884443D01*
X101700563Y-52861834D01*
X101697144Y-52838779D01*
X101696000Y-52815500D01*
X101696000Y-52340500D01*
X101697144Y-52317221D01*
X101700563Y-52294166D01*
X101706227Y-52271557D01*
X101714079Y-52249613D01*
X101724044Y-52228543D01*
X101736026Y-52208552D01*
X101749910Y-52189832D01*
X101765562Y-52172562D01*
X101782832Y-52156910D01*
X101801552Y-52143026D01*
X101821543Y-52131044D01*
X101842613Y-52121079D01*
X101864557Y-52113227D01*
X101887166Y-52107563D01*
X101910221Y-52104144D01*
X101933500Y-52103000D01*
X102508500Y-52103000D01*
X102531779Y-52104144D01*
X102531779Y-52104144D01*
G37*
D19*
X102221000Y-52578000D03*
D13*
G36*
X100781779Y-53882144D02*
X100804834Y-53885563D01*
X100827443Y-53891227D01*
X100849387Y-53899079D01*
X100870457Y-53909044D01*
X100890448Y-53921026D01*
X100909168Y-53934910D01*
X100926438Y-53950562D01*
X100942090Y-53967832D01*
X100955974Y-53986552D01*
X100967956Y-54006543D01*
X100977921Y-54027613D01*
X100985773Y-54049557D01*
X100991437Y-54072166D01*
X100994856Y-54095221D01*
X100996000Y-54118500D01*
X100996000Y-54593500D01*
X100994856Y-54616779D01*
X100991437Y-54639834D01*
X100985773Y-54662443D01*
X100977921Y-54684387D01*
X100967956Y-54705457D01*
X100955974Y-54725448D01*
X100942090Y-54744168D01*
X100926438Y-54761438D01*
X100909168Y-54777090D01*
X100890448Y-54790974D01*
X100870457Y-54802956D01*
X100849387Y-54812921D01*
X100827443Y-54820773D01*
X100804834Y-54826437D01*
X100781779Y-54829856D01*
X100758500Y-54831000D01*
X100183500Y-54831000D01*
X100160221Y-54829856D01*
X100137166Y-54826437D01*
X100114557Y-54820773D01*
X100092613Y-54812921D01*
X100071543Y-54802956D01*
X100051552Y-54790974D01*
X100032832Y-54777090D01*
X100015562Y-54761438D01*
X99999910Y-54744168D01*
X99986026Y-54725448D01*
X99974044Y-54705457D01*
X99964079Y-54684387D01*
X99956227Y-54662443D01*
X99950563Y-54639834D01*
X99947144Y-54616779D01*
X99946000Y-54593500D01*
X99946000Y-54118500D01*
X99947144Y-54095221D01*
X99950563Y-54072166D01*
X99956227Y-54049557D01*
X99964079Y-54027613D01*
X99974044Y-54006543D01*
X99986026Y-53986552D01*
X99999910Y-53967832D01*
X100015562Y-53950562D01*
X100032832Y-53934910D01*
X100051552Y-53921026D01*
X100071543Y-53909044D01*
X100092613Y-53899079D01*
X100114557Y-53891227D01*
X100137166Y-53885563D01*
X100160221Y-53882144D01*
X100183500Y-53881000D01*
X100758500Y-53881000D01*
X100781779Y-53882144D01*
X100781779Y-53882144D01*
G37*
D19*
X100471000Y-54356000D03*
D13*
G36*
X102531779Y-53882144D02*
X102554834Y-53885563D01*
X102577443Y-53891227D01*
X102599387Y-53899079D01*
X102620457Y-53909044D01*
X102640448Y-53921026D01*
X102659168Y-53934910D01*
X102676438Y-53950562D01*
X102692090Y-53967832D01*
X102705974Y-53986552D01*
X102717956Y-54006543D01*
X102727921Y-54027613D01*
X102735773Y-54049557D01*
X102741437Y-54072166D01*
X102744856Y-54095221D01*
X102746000Y-54118500D01*
X102746000Y-54593500D01*
X102744856Y-54616779D01*
X102741437Y-54639834D01*
X102735773Y-54662443D01*
X102727921Y-54684387D01*
X102717956Y-54705457D01*
X102705974Y-54725448D01*
X102692090Y-54744168D01*
X102676438Y-54761438D01*
X102659168Y-54777090D01*
X102640448Y-54790974D01*
X102620457Y-54802956D01*
X102599387Y-54812921D01*
X102577443Y-54820773D01*
X102554834Y-54826437D01*
X102531779Y-54829856D01*
X102508500Y-54831000D01*
X101933500Y-54831000D01*
X101910221Y-54829856D01*
X101887166Y-54826437D01*
X101864557Y-54820773D01*
X101842613Y-54812921D01*
X101821543Y-54802956D01*
X101801552Y-54790974D01*
X101782832Y-54777090D01*
X101765562Y-54761438D01*
X101749910Y-54744168D01*
X101736026Y-54725448D01*
X101724044Y-54705457D01*
X101714079Y-54684387D01*
X101706227Y-54662443D01*
X101700563Y-54639834D01*
X101697144Y-54616779D01*
X101696000Y-54593500D01*
X101696000Y-54118500D01*
X101697144Y-54095221D01*
X101700563Y-54072166D01*
X101706227Y-54049557D01*
X101714079Y-54027613D01*
X101724044Y-54006543D01*
X101736026Y-53986552D01*
X101749910Y-53967832D01*
X101765562Y-53950562D01*
X101782832Y-53934910D01*
X101801552Y-53921026D01*
X101821543Y-53909044D01*
X101842613Y-53899079D01*
X101864557Y-53891227D01*
X101887166Y-53885563D01*
X101910221Y-53882144D01*
X101933500Y-53881000D01*
X102508500Y-53881000D01*
X102531779Y-53882144D01*
X102531779Y-53882144D01*
G37*
D19*
X102221000Y-54356000D03*
D20*
X95758000Y-45720000D03*
X98298000Y-45720000D03*
X100838000Y-45720000D03*
D21*
X103378000Y-45720000D03*
D13*
G36*
X98467779Y-58962144D02*
X98490834Y-58965563D01*
X98513443Y-58971227D01*
X98535387Y-58979079D01*
X98556457Y-58989044D01*
X98576448Y-59001026D01*
X98595168Y-59014910D01*
X98612438Y-59030562D01*
X98628090Y-59047832D01*
X98641974Y-59066552D01*
X98653956Y-59086543D01*
X98663921Y-59107613D01*
X98671773Y-59129557D01*
X98677437Y-59152166D01*
X98680856Y-59175221D01*
X98682000Y-59198500D01*
X98682000Y-59673500D01*
X98680856Y-59696779D01*
X98677437Y-59719834D01*
X98671773Y-59742443D01*
X98663921Y-59764387D01*
X98653956Y-59785457D01*
X98641974Y-59805448D01*
X98628090Y-59824168D01*
X98612438Y-59841438D01*
X98595168Y-59857090D01*
X98576448Y-59870974D01*
X98556457Y-59882956D01*
X98535387Y-59892921D01*
X98513443Y-59900773D01*
X98490834Y-59906437D01*
X98467779Y-59909856D01*
X98444500Y-59911000D01*
X97869500Y-59911000D01*
X97846221Y-59909856D01*
X97823166Y-59906437D01*
X97800557Y-59900773D01*
X97778613Y-59892921D01*
X97757543Y-59882956D01*
X97737552Y-59870974D01*
X97718832Y-59857090D01*
X97701562Y-59841438D01*
X97685910Y-59824168D01*
X97672026Y-59805448D01*
X97660044Y-59785457D01*
X97650079Y-59764387D01*
X97642227Y-59742443D01*
X97636563Y-59719834D01*
X97633144Y-59696779D01*
X97632000Y-59673500D01*
X97632000Y-59198500D01*
X97633144Y-59175221D01*
X97636563Y-59152166D01*
X97642227Y-59129557D01*
X97650079Y-59107613D01*
X97660044Y-59086543D01*
X97672026Y-59066552D01*
X97685910Y-59047832D01*
X97701562Y-59030562D01*
X97718832Y-59014910D01*
X97737552Y-59001026D01*
X97757543Y-58989044D01*
X97778613Y-58979079D01*
X97800557Y-58971227D01*
X97823166Y-58965563D01*
X97846221Y-58962144D01*
X97869500Y-58961000D01*
X98444500Y-58961000D01*
X98467779Y-58962144D01*
X98467779Y-58962144D01*
G37*
D19*
X98157000Y-59436000D03*
D13*
G36*
X96717779Y-58962144D02*
X96740834Y-58965563D01*
X96763443Y-58971227D01*
X96785387Y-58979079D01*
X96806457Y-58989044D01*
X96826448Y-59001026D01*
X96845168Y-59014910D01*
X96862438Y-59030562D01*
X96878090Y-59047832D01*
X96891974Y-59066552D01*
X96903956Y-59086543D01*
X96913921Y-59107613D01*
X96921773Y-59129557D01*
X96927437Y-59152166D01*
X96930856Y-59175221D01*
X96932000Y-59198500D01*
X96932000Y-59673500D01*
X96930856Y-59696779D01*
X96927437Y-59719834D01*
X96921773Y-59742443D01*
X96913921Y-59764387D01*
X96903956Y-59785457D01*
X96891974Y-59805448D01*
X96878090Y-59824168D01*
X96862438Y-59841438D01*
X96845168Y-59857090D01*
X96826448Y-59870974D01*
X96806457Y-59882956D01*
X96785387Y-59892921D01*
X96763443Y-59900773D01*
X96740834Y-59906437D01*
X96717779Y-59909856D01*
X96694500Y-59911000D01*
X96119500Y-59911000D01*
X96096221Y-59909856D01*
X96073166Y-59906437D01*
X96050557Y-59900773D01*
X96028613Y-59892921D01*
X96007543Y-59882956D01*
X95987552Y-59870974D01*
X95968832Y-59857090D01*
X95951562Y-59841438D01*
X95935910Y-59824168D01*
X95922026Y-59805448D01*
X95910044Y-59785457D01*
X95900079Y-59764387D01*
X95892227Y-59742443D01*
X95886563Y-59719834D01*
X95883144Y-59696779D01*
X95882000Y-59673500D01*
X95882000Y-59198500D01*
X95883144Y-59175221D01*
X95886563Y-59152166D01*
X95892227Y-59129557D01*
X95900079Y-59107613D01*
X95910044Y-59086543D01*
X95922026Y-59066552D01*
X95935910Y-59047832D01*
X95951562Y-59030562D01*
X95968832Y-59014910D01*
X95987552Y-59001026D01*
X96007543Y-58989044D01*
X96028613Y-58979079D01*
X96050557Y-58971227D01*
X96073166Y-58965563D01*
X96096221Y-58962144D01*
X96119500Y-58961000D01*
X96694500Y-58961000D01*
X96717779Y-58962144D01*
X96717779Y-58962144D01*
G37*
D19*
X96407000Y-59436000D03*
D17*
X90932000Y-80772000D03*
X90932000Y-83312000D03*
D18*
X90932000Y-85852000D03*
D14*
X108549177Y-49367177D03*
X112014000Y-52832000D03*
D22*
X111760000Y-69850000D03*
X100584000Y-59182000D03*
X98806000Y-56642000D03*
X102616000Y-55626000D03*
X105156000Y-55626000D03*
X99568000Y-62484000D03*
X99568000Y-63500000D03*
X97282000Y-71628000D03*
X82804000Y-79756000D03*
X83566000Y-78740000D03*
X81280000Y-77978000D03*
X91694000Y-70612000D03*
X92202000Y-74422000D03*
X90170000Y-72136000D03*
X92964000Y-75946000D03*
X98044000Y-73406000D03*
X90170000Y-48260000D03*
X90424000Y-53340000D03*
X90424000Y-58166000D03*
X89916000Y-63500000D03*
X92964000Y-73406000D03*
X96774000Y-69850000D03*
X90170000Y-73406000D03*
X102616000Y-80010000D03*
X105156000Y-80010000D03*
X107442000Y-80010000D03*
X107442000Y-82042000D03*
X109728000Y-82042000D03*
X99314000Y-80010000D03*
X97536000Y-83312000D03*
X117602000Y-46482000D03*
X100076000Y-71628000D03*
X112014000Y-61214000D03*
X112014000Y-62484000D03*
X102616000Y-67818000D03*
X98806000Y-67818000D03*
X106934000Y-64008000D03*
X104394000Y-64008000D03*
X103886000Y-54610000D03*
X101854000Y-59690000D03*
X104648000Y-61976000D03*
X102616000Y-57150000D03*
D23*
X97395000Y-56642000D02*
X97395000Y-54864000D01*
X102221000Y-54356000D02*
X102221000Y-52578000D01*
X107555000Y-57150000D02*
X107555000Y-58928000D01*
X102475000Y-62230000D02*
X102475000Y-64008000D01*
X102221000Y-55231000D02*
X102616000Y-55626000D01*
X102221000Y-54356000D02*
X102221000Y-55231000D01*
X106031000Y-55626000D02*
X105156000Y-55626000D01*
X107555000Y-57150000D02*
X106031000Y-55626000D01*
X100584000Y-60339000D02*
X102475000Y-62230000D01*
X100584000Y-59182000D02*
X100584000Y-60339000D01*
D24*
X90932000Y-68834000D02*
X100584000Y-59182000D01*
X90932000Y-80772000D02*
X90932000Y-68834000D01*
X98249225Y-56642000D02*
X98806000Y-56642000D01*
X97395000Y-56642000D02*
X98249225Y-56642000D01*
X90932000Y-63105000D02*
X97395000Y-56642000D01*
X102059225Y-55626000D02*
X102616000Y-55626000D01*
X98411000Y-55626000D02*
X102059225Y-55626000D01*
X90932000Y-63105000D02*
X98411000Y-55626000D01*
X90932000Y-80772000D02*
X90932000Y-63105000D01*
X108054072Y-59427072D02*
X107555000Y-58928000D01*
X108054072Y-65053928D02*
X108054072Y-59427072D01*
X92336000Y-80772000D02*
X108054072Y-65053928D01*
X90932000Y-80772000D02*
X92336000Y-80772000D01*
X111760000Y-69850000D02*
X104140000Y-69850000D01*
X93218000Y-80772000D02*
X90932000Y-80772000D01*
X104140000Y-69850000D02*
X93218000Y-80772000D01*
D25*
X81740000Y-47704000D02*
X81740000Y-48054000D01*
X78232000Y-46228000D02*
X80264000Y-46228000D01*
X82954000Y-70294000D02*
X80732000Y-68072000D01*
X80264000Y-46228000D02*
X81740000Y-47704000D01*
X82954000Y-71374000D02*
X82954000Y-70294000D01*
X80732000Y-68072000D02*
X80732000Y-68032000D01*
X80732000Y-68032000D02*
X76962000Y-64262000D01*
X76962000Y-64262000D02*
X76962000Y-47498000D01*
X76962000Y-47498000D02*
X78232000Y-46228000D01*
D24*
X95758000Y-45720000D02*
X94555919Y-45720000D01*
X90532000Y-85852000D02*
X90932000Y-85852000D01*
X88900000Y-84220000D02*
X90532000Y-85852000D01*
X88900000Y-51375919D02*
X88900000Y-84220000D01*
X94555919Y-45720000D02*
X88900000Y-51375919D01*
D23*
X104787699Y-63614301D02*
X104394000Y-64008000D01*
X105270301Y-63131699D02*
X104787699Y-63614301D01*
X105270301Y-60820301D02*
X105270301Y-63131699D01*
X103886000Y-54610000D02*
X103886000Y-59436000D01*
X103886000Y-59436000D02*
X105270301Y-60820301D01*
X106934000Y-62484000D02*
X106934000Y-64008000D01*
X103886000Y-59436000D02*
X106934000Y-62484000D01*
X104648000Y-60960000D02*
X104648000Y-61976000D01*
X101854000Y-59690000D02*
X103378000Y-59690000D01*
X103378000Y-59690000D02*
X104648000Y-60960000D01*
X100330000Y-57150000D02*
X102616000Y-57150000D01*
X98157000Y-59436000D02*
X98157000Y-59323000D01*
X98157000Y-59323000D02*
X100330000Y-57150000D01*
D24*
G36*
X124055201Y-98655200D02*
X68984800Y-98655200D01*
X68984800Y-93173450D01*
X78495200Y-93173450D01*
X78495200Y-94786550D01*
X79112507Y-96276860D01*
X80253140Y-97417493D01*
X81743450Y-98034800D01*
X83356550Y-98034800D01*
X84846860Y-97417493D01*
X85987493Y-96276860D01*
X86604800Y-94786550D01*
X86604800Y-93173450D01*
X85987493Y-91683140D01*
X84846860Y-90542507D01*
X83356550Y-89925200D01*
X81743450Y-89925200D01*
X80253140Y-90542507D01*
X79112507Y-91683140D01*
X78495200Y-93173450D01*
X68984800Y-93173450D01*
X68984800Y-86360000D01*
X70660536Y-86360000D01*
X70742401Y-86771562D01*
X70975532Y-87120468D01*
X71324438Y-87353599D01*
X71632115Y-87414800D01*
X72639885Y-87414800D01*
X72947562Y-87353599D01*
X73296468Y-87120468D01*
X73529599Y-86771562D01*
X73611464Y-86360000D01*
X73529599Y-85948438D01*
X73296468Y-85599532D01*
X72947562Y-85366401D01*
X72639885Y-85305200D01*
X71632115Y-85305200D01*
X71324438Y-85366401D01*
X70975532Y-85599532D01*
X70742401Y-85948438D01*
X70660536Y-86360000D01*
X68984800Y-86360000D01*
X68984800Y-84161185D01*
X70393682Y-84161185D01*
X70407827Y-84232684D01*
X70666855Y-84709540D01*
X71088651Y-85050972D01*
X71609000Y-85205000D01*
X72009000Y-85205000D01*
X72009000Y-83947000D01*
X72263000Y-83947000D01*
X72263000Y-85205000D01*
X72663000Y-85205000D01*
X73183349Y-85050972D01*
X73605145Y-84709540D01*
X73864173Y-84232684D01*
X73878318Y-84161185D01*
X73755656Y-83947000D01*
X72263000Y-83947000D01*
X72009000Y-83947000D01*
X70516344Y-83947000D01*
X70393682Y-84161185D01*
X68984800Y-84161185D01*
X68984800Y-83478815D01*
X70393682Y-83478815D01*
X70516344Y-83693000D01*
X72009000Y-83693000D01*
X72009000Y-82435000D01*
X72263000Y-82435000D01*
X72263000Y-83693000D01*
X73755656Y-83693000D01*
X73878318Y-83478815D01*
X73864173Y-83407316D01*
X73605145Y-82930460D01*
X73183349Y-82589028D01*
X72663000Y-82435000D01*
X72263000Y-82435000D01*
X72009000Y-82435000D01*
X71609000Y-82435000D01*
X71088651Y-82589028D01*
X70666855Y-82930460D01*
X70407827Y-83407316D01*
X70393682Y-83478815D01*
X68984800Y-83478815D01*
X68984800Y-80530000D01*
X70675229Y-80530000D01*
X70675229Y-82030000D01*
X70698885Y-82148927D01*
X70766252Y-82249748D01*
X70867073Y-82317115D01*
X70986000Y-82340771D01*
X73286000Y-82340771D01*
X73404927Y-82317115D01*
X73505748Y-82249748D01*
X73573115Y-82148927D01*
X73596771Y-82030000D01*
X73596771Y-80530000D01*
X73573115Y-80411073D01*
X73505748Y-80310252D01*
X73404927Y-80242885D01*
X73286000Y-80219229D01*
X70986000Y-80219229D01*
X70867073Y-80242885D01*
X70766252Y-80310252D01*
X70698885Y-80411073D01*
X70675229Y-80530000D01*
X68984800Y-80530000D01*
X68984800Y-76273259D01*
X77165018Y-76273259D01*
X77203991Y-76428277D01*
X77543225Y-77025170D01*
X78085058Y-77446808D01*
X78747000Y-77629000D01*
X79827000Y-77629000D01*
X79827000Y-76001000D01*
X80081000Y-76001000D01*
X80081000Y-77629000D01*
X81161000Y-77629000D01*
X81822942Y-77446808D01*
X82364775Y-77025170D01*
X82704009Y-76428277D01*
X82742982Y-76273259D01*
X82625190Y-76001000D01*
X80081000Y-76001000D01*
X79827000Y-76001000D01*
X77282810Y-76001000D01*
X77165018Y-76273259D01*
X68984800Y-76273259D01*
X68984800Y-75474741D01*
X77165018Y-75474741D01*
X77282810Y-75747000D01*
X79827000Y-75747000D01*
X79827000Y-74119000D01*
X80081000Y-74119000D01*
X80081000Y-75747000D01*
X82625190Y-75747000D01*
X82742982Y-75474741D01*
X82704009Y-75319723D01*
X82364775Y-74722830D01*
X81822942Y-74301192D01*
X81161000Y-74119000D01*
X80081000Y-74119000D01*
X79827000Y-74119000D01*
X78747000Y-74119000D01*
X78085058Y-74301192D01*
X77543225Y-74722830D01*
X77203991Y-75319723D01*
X77165018Y-75474741D01*
X68984800Y-75474741D01*
X68984800Y-69903673D01*
X75529200Y-69903673D01*
X75529201Y-72844328D01*
X75611869Y-73259929D01*
X75926778Y-73731223D01*
X76398072Y-74046132D01*
X76954000Y-74156713D01*
X77509929Y-74046132D01*
X77981223Y-73731223D01*
X78296132Y-73259929D01*
X78378800Y-72844328D01*
X78378800Y-69903672D01*
X78296132Y-69488071D01*
X77981222Y-69016777D01*
X77509928Y-68701868D01*
X76954000Y-68591287D01*
X76398071Y-68701868D01*
X75926777Y-69016778D01*
X75611868Y-69488072D01*
X75529200Y-69903673D01*
X68984800Y-69903673D01*
X68984800Y-60093003D01*
X72615200Y-60093003D01*
X72615200Y-60810997D01*
X72889965Y-61474337D01*
X73397663Y-61982035D01*
X74061003Y-62256800D01*
X74778997Y-62256800D01*
X75442337Y-61982035D01*
X75950035Y-61474337D01*
X76224800Y-60810997D01*
X76224800Y-60093003D01*
X75950035Y-59429663D01*
X75442337Y-58921965D01*
X74778997Y-58647200D01*
X74061003Y-58647200D01*
X73397663Y-58921965D01*
X72889965Y-59429663D01*
X72615200Y-60093003D01*
X68984800Y-60093003D01*
X68984800Y-49195003D01*
X72615200Y-49195003D01*
X72615200Y-49912997D01*
X72889965Y-50576337D01*
X73397663Y-51084035D01*
X74061003Y-51358800D01*
X74778997Y-51358800D01*
X75442337Y-51084035D01*
X75950035Y-50576337D01*
X76224800Y-49912997D01*
X76224800Y-49195003D01*
X75950035Y-48531663D01*
X75442337Y-48023965D01*
X74778997Y-47749200D01*
X74061003Y-47749200D01*
X73397663Y-48023965D01*
X72889965Y-48531663D01*
X72615200Y-49195003D01*
X68984800Y-49195003D01*
X68984800Y-47498000D01*
X76392253Y-47498000D01*
X76403201Y-47553040D01*
X76403200Y-64206965D01*
X76392253Y-64262000D01*
X76403200Y-64317034D01*
X76435622Y-64480032D01*
X76559128Y-64664872D01*
X76605789Y-64696050D01*
X80217406Y-68307668D01*
X80329128Y-68474872D01*
X80375789Y-68506050D01*
X81569717Y-69699979D01*
X81529200Y-69903673D01*
X81529201Y-72844328D01*
X81611869Y-73259929D01*
X81926778Y-73731223D01*
X82398072Y-74046132D01*
X82954000Y-74156713D01*
X83509929Y-74046132D01*
X83981223Y-73731223D01*
X84296132Y-73259929D01*
X84378800Y-72844328D01*
X84378800Y-69903672D01*
X84296132Y-69488071D01*
X83981222Y-69016777D01*
X83509928Y-68701868D01*
X82954000Y-68591287D01*
X82398071Y-68701868D01*
X82250640Y-68800378D01*
X81246596Y-67796335D01*
X81134872Y-67629128D01*
X81088214Y-67597952D01*
X77520800Y-64030539D01*
X77520800Y-59952000D01*
X77679229Y-59952000D01*
X77679229Y-60952000D01*
X77721915Y-61166598D01*
X77843475Y-61348525D01*
X78025402Y-61470085D01*
X78240000Y-61512771D01*
X79240000Y-61512771D01*
X79454598Y-61470085D01*
X79636525Y-61348525D01*
X79758085Y-61166598D01*
X79800771Y-60952000D01*
X79800771Y-60242187D01*
X80685200Y-60242187D01*
X80685200Y-60661813D01*
X80845784Y-61049496D01*
X81142504Y-61346216D01*
X81530187Y-61506800D01*
X81949813Y-61506800D01*
X82337496Y-61346216D01*
X82634216Y-61049496D01*
X82794800Y-60661813D01*
X82794800Y-60242187D01*
X82634216Y-59854504D01*
X82337496Y-59557784D01*
X81949813Y-59397200D01*
X81530187Y-59397200D01*
X81142504Y-59557784D01*
X80845784Y-59854504D01*
X80685200Y-60242187D01*
X79800771Y-60242187D01*
X79800771Y-59952000D01*
X79758085Y-59737402D01*
X79636525Y-59555475D01*
X79454598Y-59433915D01*
X79240000Y-59391229D01*
X78240000Y-59391229D01*
X78025402Y-59433915D01*
X77843475Y-59555475D01*
X77721915Y-59737402D01*
X77679229Y-59952000D01*
X77520800Y-59952000D01*
X77520800Y-50554000D01*
X77679229Y-50554000D01*
X77679229Y-51554000D01*
X77721915Y-51768598D01*
X77843475Y-51950525D01*
X78025402Y-52072085D01*
X78240000Y-52114771D01*
X79240000Y-52114771D01*
X79454598Y-52072085D01*
X79636525Y-51950525D01*
X79758085Y-51768598D01*
X79800771Y-51554000D01*
X79800771Y-50844187D01*
X80685200Y-50844187D01*
X80685200Y-51263813D01*
X80845784Y-51651496D01*
X81142504Y-51948216D01*
X81530187Y-52108800D01*
X81949813Y-52108800D01*
X82337496Y-51948216D01*
X82634216Y-51651496D01*
X82748364Y-51375919D01*
X88459742Y-51375919D01*
X88468200Y-51418441D01*
X88468201Y-84177473D01*
X88459742Y-84220000D01*
X88493254Y-84388479D01*
X88564601Y-84495258D01*
X88564603Y-84495260D01*
X88588691Y-84531310D01*
X88624741Y-84555398D01*
X89471229Y-85401886D01*
X89471229Y-86602000D01*
X89494885Y-86720927D01*
X89562252Y-86821748D01*
X89663073Y-86889115D01*
X89782000Y-86912771D01*
X92082000Y-86912771D01*
X92200927Y-86889115D01*
X92301748Y-86821748D01*
X92369115Y-86720927D01*
X92392771Y-86602000D01*
X92392771Y-85102000D01*
X92369115Y-84983073D01*
X92301748Y-84882252D01*
X92200927Y-84814885D01*
X92082000Y-84791229D01*
X90081886Y-84791229D01*
X89616859Y-84326202D01*
X89884651Y-84542972D01*
X90405000Y-84697000D01*
X90805000Y-84697000D01*
X90805000Y-83439000D01*
X91059000Y-83439000D01*
X91059000Y-84697000D01*
X91459000Y-84697000D01*
X91979349Y-84542972D01*
X92401145Y-84201540D01*
X92660173Y-83724684D01*
X92674318Y-83653185D01*
X92551656Y-83439000D01*
X91059000Y-83439000D01*
X90805000Y-83439000D01*
X90785000Y-83439000D01*
X90785000Y-83185000D01*
X90805000Y-83185000D01*
X90805000Y-81927000D01*
X91059000Y-81927000D01*
X91059000Y-83185000D01*
X92551656Y-83185000D01*
X92627561Y-83052459D01*
X102447200Y-83052459D01*
X102447200Y-83571541D01*
X102645844Y-84051110D01*
X103012890Y-84418156D01*
X103492459Y-84616800D01*
X104011541Y-84616800D01*
X104491110Y-84418156D01*
X104858156Y-84051110D01*
X105056800Y-83571541D01*
X105056800Y-83052459D01*
X117447200Y-83052459D01*
X117447200Y-83571541D01*
X117645844Y-84051110D01*
X118012890Y-84418156D01*
X118492459Y-84616800D01*
X119011541Y-84616800D01*
X119491110Y-84418156D01*
X119858156Y-84051110D01*
X120056800Y-83571541D01*
X120056800Y-83052459D01*
X119858156Y-82572890D01*
X119491110Y-82205844D01*
X119011541Y-82007200D01*
X118492459Y-82007200D01*
X118012890Y-82205844D01*
X117645844Y-82572890D01*
X117447200Y-83052459D01*
X105056800Y-83052459D01*
X104858156Y-82572890D01*
X104491110Y-82205844D01*
X104011541Y-82007200D01*
X103492459Y-82007200D01*
X103012890Y-82205844D01*
X102645844Y-82572890D01*
X102447200Y-83052459D01*
X92627561Y-83052459D01*
X92674318Y-82970815D01*
X92660173Y-82899316D01*
X92401145Y-82422460D01*
X91979349Y-82081028D01*
X91459000Y-81927000D01*
X91059000Y-81927000D01*
X90805000Y-81927000D01*
X90405000Y-81927000D01*
X89884651Y-82081028D01*
X89462855Y-82422460D01*
X89331800Y-82663725D01*
X89331800Y-80772000D01*
X89456536Y-80772000D01*
X89538401Y-81183562D01*
X89771532Y-81532468D01*
X90120438Y-81765599D01*
X90428115Y-81826800D01*
X91435885Y-81826800D01*
X91743562Y-81765599D01*
X92092468Y-81532468D01*
X92309895Y-81207065D01*
X92336000Y-81212258D01*
X92378522Y-81203800D01*
X93175478Y-81203800D01*
X93218000Y-81212258D01*
X93260522Y-81203800D01*
X93260526Y-81203800D01*
X93386480Y-81178746D01*
X93529310Y-81083310D01*
X93553400Y-81047257D01*
X104318857Y-70281800D01*
X111203973Y-70281800D01*
X111364332Y-70442159D01*
X111621060Y-70548500D01*
X111898940Y-70548500D01*
X112155668Y-70442159D01*
X112352159Y-70245668D01*
X112458500Y-69988940D01*
X112458500Y-69711060D01*
X112352159Y-69454332D01*
X112155668Y-69257841D01*
X111898940Y-69151500D01*
X111621060Y-69151500D01*
X111364332Y-69257841D01*
X111203973Y-69418200D01*
X104300458Y-69418200D01*
X108329333Y-65389325D01*
X108365382Y-65365238D01*
X108460818Y-65222408D01*
X108485872Y-65096454D01*
X108485872Y-65096453D01*
X108494331Y-65053928D01*
X108485872Y-65011402D01*
X108485872Y-59469592D01*
X108494330Y-59427071D01*
X108485872Y-59384550D01*
X108485872Y-59384546D01*
X108460818Y-59258592D01*
X108390771Y-59153759D01*
X108390771Y-58690500D01*
X108349036Y-58480686D01*
X108230186Y-58302814D01*
X108052314Y-58183964D01*
X107936000Y-58160827D01*
X107936000Y-57917173D01*
X108052314Y-57894036D01*
X108230186Y-57775186D01*
X108349036Y-57597314D01*
X108390771Y-57387500D01*
X108390771Y-56912500D01*
X108349036Y-56702686D01*
X108230186Y-56524814D01*
X108052314Y-56405964D01*
X107842500Y-56364229D01*
X107308044Y-56364229D01*
X106326944Y-55383129D01*
X106305686Y-55351314D01*
X106179659Y-55267106D01*
X106068524Y-55245000D01*
X106031000Y-55237536D01*
X105993476Y-55245000D01*
X105754235Y-55245000D01*
X105748159Y-55230332D01*
X105551668Y-55033841D01*
X105294940Y-54927500D01*
X105017060Y-54927500D01*
X104760332Y-55033841D01*
X104563841Y-55230332D01*
X104457500Y-55487060D01*
X104457500Y-55764940D01*
X104563841Y-56021668D01*
X104760332Y-56218159D01*
X104815828Y-56241146D01*
X104741673Y-56315301D01*
X104645000Y-56548690D01*
X104645000Y-56864250D01*
X104803750Y-57023000D01*
X105678000Y-57023000D01*
X105678000Y-56198750D01*
X105624539Y-56145289D01*
X105748159Y-56021668D01*
X105754235Y-56007000D01*
X105873185Y-56007000D01*
X105998468Y-56132283D01*
X105932000Y-56198750D01*
X105932000Y-57023000D01*
X105952000Y-57023000D01*
X105952000Y-57277000D01*
X105932000Y-57277000D01*
X105932000Y-58801000D01*
X105952000Y-58801000D01*
X105952000Y-59055000D01*
X105932000Y-59055000D01*
X105932000Y-59879250D01*
X106090750Y-60038000D01*
X106456309Y-60038000D01*
X106689698Y-59941327D01*
X106868327Y-59762699D01*
X106938788Y-59592591D01*
X107057686Y-59672036D01*
X107267500Y-59713771D01*
X107622273Y-59713771D01*
X107622272Y-63844368D01*
X107526159Y-63612332D01*
X107329668Y-63415841D01*
X107315000Y-63409765D01*
X107315000Y-62521524D01*
X107322464Y-62484000D01*
X107292894Y-62335341D01*
X107240415Y-62256800D01*
X107208686Y-62209314D01*
X107176875Y-62188059D01*
X105566244Y-60577428D01*
X105544987Y-60545615D01*
X105513174Y-60524359D01*
X104937100Y-59948285D01*
X105153691Y-60038000D01*
X105519250Y-60038000D01*
X105678000Y-59879250D01*
X105678000Y-59055000D01*
X104803750Y-59055000D01*
X104645000Y-59213750D01*
X104645000Y-59529310D01*
X104734714Y-59745899D01*
X104267000Y-59278185D01*
X104267000Y-57435750D01*
X104645000Y-57435750D01*
X104645000Y-57751310D01*
X104741673Y-57984699D01*
X104795974Y-58039000D01*
X104741673Y-58093301D01*
X104645000Y-58326690D01*
X104645000Y-58642250D01*
X104803750Y-58801000D01*
X105678000Y-58801000D01*
X105678000Y-57277000D01*
X104803750Y-57277000D01*
X104645000Y-57435750D01*
X104267000Y-57435750D01*
X104267000Y-55208235D01*
X104281668Y-55202159D01*
X104478159Y-55005668D01*
X104584500Y-54748940D01*
X104584500Y-54471060D01*
X104478159Y-54214332D01*
X104281668Y-54017841D01*
X104024940Y-53911500D01*
X103747060Y-53911500D01*
X103490332Y-54017841D01*
X103293841Y-54214332D01*
X103187500Y-54471060D01*
X103187500Y-54748940D01*
X103293841Y-55005668D01*
X103490332Y-55202159D01*
X103505000Y-55208235D01*
X103505001Y-59326798D01*
X103415524Y-59309000D01*
X103378000Y-59301536D01*
X103340476Y-59309000D01*
X102452235Y-59309000D01*
X102446159Y-59294332D01*
X102249668Y-59097841D01*
X101992940Y-58991500D01*
X101715060Y-58991500D01*
X101458332Y-59097841D01*
X101282500Y-59273673D01*
X101282500Y-59043060D01*
X101176159Y-58786332D01*
X100979668Y-58589841D01*
X100722940Y-58483500D01*
X100445060Y-58483500D01*
X100188332Y-58589841D01*
X99991841Y-58786332D01*
X99885500Y-59043060D01*
X99885500Y-59269843D01*
X91363800Y-67791543D01*
X91363800Y-63283857D01*
X94925907Y-59721750D01*
X95247000Y-59721750D01*
X95247000Y-60037310D01*
X95343673Y-60270699D01*
X95522302Y-60449327D01*
X95755691Y-60546000D01*
X96121250Y-60546000D01*
X96280000Y-60387250D01*
X96280000Y-59563000D01*
X95405750Y-59563000D01*
X95247000Y-59721750D01*
X94925907Y-59721750D01*
X95372204Y-59275454D01*
X95405750Y-59309000D01*
X96280000Y-59309000D01*
X96280000Y-58484750D01*
X96534000Y-58484750D01*
X96534000Y-59309000D01*
X96554000Y-59309000D01*
X96554000Y-59563000D01*
X96534000Y-59563000D01*
X96534000Y-60387250D01*
X96692750Y-60546000D01*
X97058309Y-60546000D01*
X97291698Y-60449327D01*
X97470327Y-60270699D01*
X97540788Y-60100591D01*
X97659686Y-60180036D01*
X97869500Y-60221771D01*
X98444500Y-60221771D01*
X98654314Y-60180036D01*
X98832186Y-60061186D01*
X98951036Y-59883314D01*
X98992771Y-59673500D01*
X98992771Y-59198500D01*
X98964159Y-59054657D01*
X100487816Y-57531000D01*
X102017765Y-57531000D01*
X102023841Y-57545668D01*
X102220332Y-57742159D01*
X102477060Y-57848500D01*
X102754940Y-57848500D01*
X103011668Y-57742159D01*
X103208159Y-57545668D01*
X103314500Y-57288940D01*
X103314500Y-57011060D01*
X103208159Y-56754332D01*
X103011668Y-56557841D01*
X102754940Y-56451500D01*
X102477060Y-56451500D01*
X102220332Y-56557841D01*
X102023841Y-56754332D01*
X102017765Y-56769000D01*
X100367523Y-56769000D01*
X100329999Y-56761536D01*
X100232449Y-56780940D01*
X100181341Y-56791106D01*
X100055314Y-56875314D01*
X100034059Y-56907125D01*
X98290956Y-58650229D01*
X97869500Y-58650229D01*
X97659686Y-58691964D01*
X97540788Y-58771409D01*
X97470327Y-58601301D01*
X97291698Y-58422673D01*
X97058309Y-58326000D01*
X96692750Y-58326000D01*
X96534000Y-58484750D01*
X96280000Y-58484750D01*
X96221454Y-58426204D01*
X97219886Y-57427771D01*
X97682500Y-57427771D01*
X97892314Y-57386036D01*
X98070186Y-57267186D01*
X98189036Y-57089314D01*
X98192122Y-57073800D01*
X98249973Y-57073800D01*
X98410332Y-57234159D01*
X98667060Y-57340500D01*
X98944940Y-57340500D01*
X99201668Y-57234159D01*
X99398159Y-57037668D01*
X99504500Y-56780940D01*
X99504500Y-56503060D01*
X99398159Y-56246332D01*
X99209627Y-56057800D01*
X102059973Y-56057800D01*
X102220332Y-56218159D01*
X102477060Y-56324500D01*
X102754940Y-56324500D01*
X103011668Y-56218159D01*
X103208159Y-56021668D01*
X103314500Y-55764940D01*
X103314500Y-55487060D01*
X103208159Y-55230332D01*
X103011668Y-55033841D01*
X102891733Y-54984162D01*
X102896186Y-54981186D01*
X103015036Y-54803314D01*
X103056771Y-54593500D01*
X103056771Y-54118500D01*
X103015036Y-53908686D01*
X102896186Y-53730814D01*
X102718314Y-53611964D01*
X102602000Y-53588827D01*
X102602000Y-53345173D01*
X102718314Y-53322036D01*
X102896186Y-53203186D01*
X103015036Y-53025314D01*
X103056771Y-52815500D01*
X103056771Y-52622187D01*
X110959200Y-52622187D01*
X110959200Y-53041813D01*
X111119784Y-53429496D01*
X111416504Y-53726216D01*
X111804187Y-53886800D01*
X112223813Y-53886800D01*
X112611496Y-53726216D01*
X112908216Y-53429496D01*
X113068800Y-53041813D01*
X113068800Y-52622187D01*
X112908216Y-52234504D01*
X112611496Y-51937784D01*
X112223813Y-51777200D01*
X111804187Y-51777200D01*
X111416504Y-51937784D01*
X111119784Y-52234504D01*
X110959200Y-52622187D01*
X103056771Y-52622187D01*
X103056771Y-52340500D01*
X103015036Y-52130686D01*
X102896186Y-51952814D01*
X102718314Y-51833964D01*
X102508500Y-51792229D01*
X101933500Y-51792229D01*
X101723686Y-51833964D01*
X101604788Y-51913409D01*
X101534327Y-51743301D01*
X101355698Y-51564673D01*
X101122309Y-51468000D01*
X100756750Y-51468000D01*
X100598000Y-51626750D01*
X100598000Y-52451000D01*
X100618000Y-52451000D01*
X100618000Y-52705000D01*
X100598000Y-52705000D01*
X100598000Y-54229000D01*
X100618000Y-54229000D01*
X100618000Y-54483000D01*
X100598000Y-54483000D01*
X100598000Y-54503000D01*
X100344000Y-54503000D01*
X100344000Y-54483000D01*
X99469750Y-54483000D01*
X99311000Y-54641750D01*
X99311000Y-54957310D01*
X99407673Y-55190699D01*
X99411174Y-55194200D01*
X98453521Y-55194200D01*
X98410999Y-55185742D01*
X98368477Y-55194200D01*
X98368474Y-55194200D01*
X98242520Y-55219254D01*
X98201957Y-55246357D01*
X98230771Y-55101500D01*
X98230771Y-54626500D01*
X98189036Y-54416686D01*
X98070186Y-54238814D01*
X97892314Y-54119964D01*
X97682500Y-54078229D01*
X97107500Y-54078229D01*
X96897686Y-54119964D01*
X96778788Y-54199409D01*
X96708327Y-54029301D01*
X96529698Y-53850673D01*
X96296309Y-53754000D01*
X95930750Y-53754000D01*
X95772000Y-53912750D01*
X95772000Y-54737000D01*
X95792000Y-54737000D01*
X95792000Y-54991000D01*
X95772000Y-54991000D01*
X95772000Y-56515000D01*
X95792000Y-56515000D01*
X95792000Y-56769000D01*
X95772000Y-56769000D01*
X95772000Y-57593250D01*
X95802547Y-57623797D01*
X90656741Y-62769602D01*
X90620691Y-62793690D01*
X90596603Y-62829740D01*
X90596601Y-62829742D01*
X90525254Y-62936521D01*
X90491742Y-63105000D01*
X90500201Y-63147527D01*
X90500201Y-68791474D01*
X90491742Y-68834000D01*
X90500201Y-68876525D01*
X90500200Y-79717200D01*
X90428115Y-79717200D01*
X90120438Y-79778401D01*
X89771532Y-80011532D01*
X89538401Y-80360438D01*
X89456536Y-80772000D01*
X89331800Y-80772000D01*
X89331800Y-56927750D01*
X94485000Y-56927750D01*
X94485000Y-57243310D01*
X94581673Y-57476699D01*
X94760302Y-57655327D01*
X94993691Y-57752000D01*
X95359250Y-57752000D01*
X95518000Y-57593250D01*
X95518000Y-56769000D01*
X94643750Y-56769000D01*
X94485000Y-56927750D01*
X89331800Y-56927750D01*
X89331800Y-55149750D01*
X94485000Y-55149750D01*
X94485000Y-55465310D01*
X94581673Y-55698699D01*
X94635974Y-55753000D01*
X94581673Y-55807301D01*
X94485000Y-56040690D01*
X94485000Y-56356250D01*
X94643750Y-56515000D01*
X95518000Y-56515000D01*
X95518000Y-54991000D01*
X94643750Y-54991000D01*
X94485000Y-55149750D01*
X89331800Y-55149750D01*
X89331800Y-54262690D01*
X94485000Y-54262690D01*
X94485000Y-54578250D01*
X94643750Y-54737000D01*
X95518000Y-54737000D01*
X95518000Y-53912750D01*
X95359250Y-53754000D01*
X94993691Y-53754000D01*
X94760302Y-53850673D01*
X94581673Y-54029301D01*
X94485000Y-54262690D01*
X89331800Y-54262690D01*
X89331800Y-52863750D01*
X99311000Y-52863750D01*
X99311000Y-53179310D01*
X99407673Y-53412699D01*
X99461974Y-53467000D01*
X99407673Y-53521301D01*
X99311000Y-53754690D01*
X99311000Y-54070250D01*
X99469750Y-54229000D01*
X100344000Y-54229000D01*
X100344000Y-52705000D01*
X99469750Y-52705000D01*
X99311000Y-52863750D01*
X89331800Y-52863750D01*
X89331800Y-51976690D01*
X99311000Y-51976690D01*
X99311000Y-52292250D01*
X99469750Y-52451000D01*
X100344000Y-52451000D01*
X100344000Y-51626750D01*
X100185250Y-51468000D01*
X99819691Y-51468000D01*
X99586302Y-51564673D01*
X99407673Y-51743301D01*
X99311000Y-51976690D01*
X89331800Y-51976690D01*
X89331800Y-51554776D01*
X91729212Y-49157364D01*
X107494377Y-49157364D01*
X107494377Y-49576990D01*
X107654961Y-49964673D01*
X107951681Y-50261393D01*
X108339364Y-50421977D01*
X108758990Y-50421977D01*
X109146673Y-50261393D01*
X109443393Y-49964673D01*
X109603977Y-49576990D01*
X109603977Y-49157364D01*
X109443393Y-48769681D01*
X109146673Y-48472961D01*
X108758990Y-48312377D01*
X108339364Y-48312377D01*
X107951681Y-48472961D01*
X107654961Y-48769681D01*
X107494377Y-49157364D01*
X91729212Y-49157364D01*
X94688545Y-46198031D01*
X94925436Y-46552564D01*
X95307420Y-46807797D01*
X95644267Y-46874800D01*
X95871733Y-46874800D01*
X96208580Y-46807797D01*
X96590564Y-46552564D01*
X96845797Y-46170580D01*
X96935423Y-45720000D01*
X97120577Y-45720000D01*
X97210203Y-46170580D01*
X97465436Y-46552564D01*
X97847420Y-46807797D01*
X98184267Y-46874800D01*
X98411733Y-46874800D01*
X98748580Y-46807797D01*
X99130564Y-46552564D01*
X99385797Y-46170580D01*
X99475423Y-45720000D01*
X99660577Y-45720000D01*
X99750203Y-46170580D01*
X100005436Y-46552564D01*
X100387420Y-46807797D01*
X100724267Y-46874800D01*
X100951733Y-46874800D01*
X101288580Y-46807797D01*
X101670564Y-46552564D01*
X101893000Y-46219664D01*
X101893000Y-46696309D01*
X101989673Y-46929698D01*
X102168301Y-47108327D01*
X102401690Y-47205000D01*
X103092250Y-47205000D01*
X103251000Y-47046250D01*
X103251000Y-45847000D01*
X103505000Y-45847000D01*
X103505000Y-47046250D01*
X103663750Y-47205000D01*
X104354310Y-47205000D01*
X104587699Y-47108327D01*
X104766327Y-46929698D01*
X104863000Y-46696309D01*
X104863000Y-46005750D01*
X104704250Y-45847000D01*
X103505000Y-45847000D01*
X103251000Y-45847000D01*
X103231000Y-45847000D01*
X103231000Y-45593000D01*
X103251000Y-45593000D01*
X103251000Y-44393750D01*
X103505000Y-44393750D01*
X103505000Y-45593000D01*
X104704250Y-45593000D01*
X104863000Y-45434250D01*
X104863000Y-44743691D01*
X104766327Y-44510302D01*
X104587699Y-44331673D01*
X104354310Y-44235000D01*
X103663750Y-44235000D01*
X103505000Y-44393750D01*
X103251000Y-44393750D01*
X103092250Y-44235000D01*
X102401690Y-44235000D01*
X102168301Y-44331673D01*
X101989673Y-44510302D01*
X101893000Y-44743691D01*
X101893000Y-45220336D01*
X101670564Y-44887436D01*
X101288580Y-44632203D01*
X100951733Y-44565200D01*
X100724267Y-44565200D01*
X100387420Y-44632203D01*
X100005436Y-44887436D01*
X99750203Y-45269420D01*
X99660577Y-45720000D01*
X99475423Y-45720000D01*
X99385797Y-45269420D01*
X99130564Y-44887436D01*
X98748580Y-44632203D01*
X98411733Y-44565200D01*
X98184267Y-44565200D01*
X97847420Y-44632203D01*
X97465436Y-44887436D01*
X97210203Y-45269420D01*
X97120577Y-45720000D01*
X96935423Y-45720000D01*
X96845797Y-45269420D01*
X96590564Y-44887436D01*
X96208580Y-44632203D01*
X95871733Y-44565200D01*
X95644267Y-44565200D01*
X95307420Y-44632203D01*
X94925436Y-44887436D01*
X94670203Y-45269420D01*
X94666467Y-45288200D01*
X94598439Y-45288200D01*
X94555918Y-45279742D01*
X94513397Y-45288200D01*
X94513393Y-45288200D01*
X94387439Y-45313254D01*
X94244609Y-45408690D01*
X94220519Y-45444743D01*
X88624743Y-51040519D01*
X88588690Y-51064609D01*
X88493254Y-51207440D01*
X88468200Y-51333394D01*
X88468200Y-51333397D01*
X88459742Y-51375919D01*
X82748364Y-51375919D01*
X82794800Y-51263813D01*
X82794800Y-50844187D01*
X82634216Y-50456504D01*
X82337496Y-50159784D01*
X81949813Y-49999200D01*
X81530187Y-49999200D01*
X81142504Y-50159784D01*
X80845784Y-50456504D01*
X80685200Y-50844187D01*
X79800771Y-50844187D01*
X79800771Y-50554000D01*
X79758085Y-50339402D01*
X79636525Y-50157475D01*
X79454598Y-50035915D01*
X79240000Y-49993229D01*
X78240000Y-49993229D01*
X78025402Y-50035915D01*
X77843475Y-50157475D01*
X77721915Y-50339402D01*
X77679229Y-50554000D01*
X77520800Y-50554000D01*
X77520800Y-47844187D01*
X77685200Y-47844187D01*
X77685200Y-48263813D01*
X77845784Y-48651496D01*
X78142504Y-48948216D01*
X78530187Y-49108800D01*
X78949813Y-49108800D01*
X79337496Y-48948216D01*
X79634216Y-48651496D01*
X79794800Y-48263813D01*
X79794800Y-47844187D01*
X79634216Y-47456504D01*
X79337496Y-47159784D01*
X78949813Y-46999200D01*
X78530187Y-46999200D01*
X78142504Y-47159784D01*
X77845784Y-47456504D01*
X77685200Y-47844187D01*
X77520800Y-47844187D01*
X77520800Y-47729461D01*
X78463462Y-46786800D01*
X80032539Y-46786800D01*
X80803742Y-47558003D01*
X80685200Y-47844187D01*
X80685200Y-48263813D01*
X80845784Y-48651496D01*
X81142504Y-48948216D01*
X81530187Y-49108800D01*
X81949813Y-49108800D01*
X82337496Y-48948216D01*
X82634216Y-48651496D01*
X82794800Y-48263813D01*
X82794800Y-47844187D01*
X82634216Y-47456504D01*
X82337496Y-47159784D01*
X81949813Y-46999200D01*
X81825462Y-46999200D01*
X80698050Y-45871789D01*
X80666872Y-45825128D01*
X80482033Y-45701622D01*
X80319035Y-45669200D01*
X80264000Y-45658253D01*
X80208965Y-45669200D01*
X78287029Y-45669200D01*
X78231999Y-45658254D01*
X78176969Y-45669200D01*
X78176965Y-45669200D01*
X78013967Y-45701622D01*
X77829128Y-45825128D01*
X77797952Y-45871786D01*
X76605787Y-47063952D01*
X76559129Y-47095128D01*
X76527954Y-47141785D01*
X76435622Y-47279968D01*
X76392253Y-47498000D01*
X68984800Y-47498000D01*
X68984800Y-39833450D01*
X114055200Y-39833450D01*
X114055200Y-41446550D01*
X114672507Y-42936860D01*
X115813140Y-44077493D01*
X117303450Y-44694800D01*
X118916550Y-44694800D01*
X120406860Y-44077493D01*
X121547493Y-42936860D01*
X122164800Y-41446550D01*
X122164800Y-39833450D01*
X121547493Y-38343140D01*
X120406860Y-37202507D01*
X118916550Y-36585200D01*
X117303450Y-36585200D01*
X115813140Y-37202507D01*
X114672507Y-38343140D01*
X114055200Y-39833450D01*
X68984800Y-39833450D01*
X68984800Y-35404800D01*
X124055200Y-35404800D01*
X124055201Y-98655200D01*
X124055201Y-98655200D01*
G37*
X124055201Y-98655200D02*
X68984800Y-98655200D01*
X68984800Y-93173450D01*
X78495200Y-93173450D01*
X78495200Y-94786550D01*
X79112507Y-96276860D01*
X80253140Y-97417493D01*
X81743450Y-98034800D01*
X83356550Y-98034800D01*
X84846860Y-97417493D01*
X85987493Y-96276860D01*
X86604800Y-94786550D01*
X86604800Y-93173450D01*
X85987493Y-91683140D01*
X84846860Y-90542507D01*
X83356550Y-89925200D01*
X81743450Y-89925200D01*
X80253140Y-90542507D01*
X79112507Y-91683140D01*
X78495200Y-93173450D01*
X68984800Y-93173450D01*
X68984800Y-86360000D01*
X70660536Y-86360000D01*
X70742401Y-86771562D01*
X70975532Y-87120468D01*
X71324438Y-87353599D01*
X71632115Y-87414800D01*
X72639885Y-87414800D01*
X72947562Y-87353599D01*
X73296468Y-87120468D01*
X73529599Y-86771562D01*
X73611464Y-86360000D01*
X73529599Y-85948438D01*
X73296468Y-85599532D01*
X72947562Y-85366401D01*
X72639885Y-85305200D01*
X71632115Y-85305200D01*
X71324438Y-85366401D01*
X70975532Y-85599532D01*
X70742401Y-85948438D01*
X70660536Y-86360000D01*
X68984800Y-86360000D01*
X68984800Y-84161185D01*
X70393682Y-84161185D01*
X70407827Y-84232684D01*
X70666855Y-84709540D01*
X71088651Y-85050972D01*
X71609000Y-85205000D01*
X72009000Y-85205000D01*
X72009000Y-83947000D01*
X72263000Y-83947000D01*
X72263000Y-85205000D01*
X72663000Y-85205000D01*
X73183349Y-85050972D01*
X73605145Y-84709540D01*
X73864173Y-84232684D01*
X73878318Y-84161185D01*
X73755656Y-83947000D01*
X72263000Y-83947000D01*
X72009000Y-83947000D01*
X70516344Y-83947000D01*
X70393682Y-84161185D01*
X68984800Y-84161185D01*
X68984800Y-83478815D01*
X70393682Y-83478815D01*
X70516344Y-83693000D01*
X72009000Y-83693000D01*
X72009000Y-82435000D01*
X72263000Y-82435000D01*
X72263000Y-83693000D01*
X73755656Y-83693000D01*
X73878318Y-83478815D01*
X73864173Y-83407316D01*
X73605145Y-82930460D01*
X73183349Y-82589028D01*
X72663000Y-82435000D01*
X72263000Y-82435000D01*
X72009000Y-82435000D01*
X71609000Y-82435000D01*
X71088651Y-82589028D01*
X70666855Y-82930460D01*
X70407827Y-83407316D01*
X70393682Y-83478815D01*
X68984800Y-83478815D01*
X68984800Y-80530000D01*
X70675229Y-80530000D01*
X70675229Y-82030000D01*
X70698885Y-82148927D01*
X70766252Y-82249748D01*
X70867073Y-82317115D01*
X70986000Y-82340771D01*
X73286000Y-82340771D01*
X73404927Y-82317115D01*
X73505748Y-82249748D01*
X73573115Y-82148927D01*
X73596771Y-82030000D01*
X73596771Y-80530000D01*
X73573115Y-80411073D01*
X73505748Y-80310252D01*
X73404927Y-80242885D01*
X73286000Y-80219229D01*
X70986000Y-80219229D01*
X70867073Y-80242885D01*
X70766252Y-80310252D01*
X70698885Y-80411073D01*
X70675229Y-80530000D01*
X68984800Y-80530000D01*
X68984800Y-76273259D01*
X77165018Y-76273259D01*
X77203991Y-76428277D01*
X77543225Y-77025170D01*
X78085058Y-77446808D01*
X78747000Y-77629000D01*
X79827000Y-77629000D01*
X79827000Y-76001000D01*
X80081000Y-76001000D01*
X80081000Y-77629000D01*
X81161000Y-77629000D01*
X81822942Y-77446808D01*
X82364775Y-77025170D01*
X82704009Y-76428277D01*
X82742982Y-76273259D01*
X82625190Y-76001000D01*
X80081000Y-76001000D01*
X79827000Y-76001000D01*
X77282810Y-76001000D01*
X77165018Y-76273259D01*
X68984800Y-76273259D01*
X68984800Y-75474741D01*
X77165018Y-75474741D01*
X77282810Y-75747000D01*
X79827000Y-75747000D01*
X79827000Y-74119000D01*
X80081000Y-74119000D01*
X80081000Y-75747000D01*
X82625190Y-75747000D01*
X82742982Y-75474741D01*
X82704009Y-75319723D01*
X82364775Y-74722830D01*
X81822942Y-74301192D01*
X81161000Y-74119000D01*
X80081000Y-74119000D01*
X79827000Y-74119000D01*
X78747000Y-74119000D01*
X78085058Y-74301192D01*
X77543225Y-74722830D01*
X77203991Y-75319723D01*
X77165018Y-75474741D01*
X68984800Y-75474741D01*
X68984800Y-69903673D01*
X75529200Y-69903673D01*
X75529201Y-72844328D01*
X75611869Y-73259929D01*
X75926778Y-73731223D01*
X76398072Y-74046132D01*
X76954000Y-74156713D01*
X77509929Y-74046132D01*
X77981223Y-73731223D01*
X78296132Y-73259929D01*
X78378800Y-72844328D01*
X78378800Y-69903672D01*
X78296132Y-69488071D01*
X77981222Y-69016777D01*
X77509928Y-68701868D01*
X76954000Y-68591287D01*
X76398071Y-68701868D01*
X75926777Y-69016778D01*
X75611868Y-69488072D01*
X75529200Y-69903673D01*
X68984800Y-69903673D01*
X68984800Y-60093003D01*
X72615200Y-60093003D01*
X72615200Y-60810997D01*
X72889965Y-61474337D01*
X73397663Y-61982035D01*
X74061003Y-62256800D01*
X74778997Y-62256800D01*
X75442337Y-61982035D01*
X75950035Y-61474337D01*
X76224800Y-60810997D01*
X76224800Y-60093003D01*
X75950035Y-59429663D01*
X75442337Y-58921965D01*
X74778997Y-58647200D01*
X74061003Y-58647200D01*
X73397663Y-58921965D01*
X72889965Y-59429663D01*
X72615200Y-60093003D01*
X68984800Y-60093003D01*
X68984800Y-49195003D01*
X72615200Y-49195003D01*
X72615200Y-49912997D01*
X72889965Y-50576337D01*
X73397663Y-51084035D01*
X74061003Y-51358800D01*
X74778997Y-51358800D01*
X75442337Y-51084035D01*
X75950035Y-50576337D01*
X76224800Y-49912997D01*
X76224800Y-49195003D01*
X75950035Y-48531663D01*
X75442337Y-48023965D01*
X74778997Y-47749200D01*
X74061003Y-47749200D01*
X73397663Y-48023965D01*
X72889965Y-48531663D01*
X72615200Y-49195003D01*
X68984800Y-49195003D01*
X68984800Y-47498000D01*
X76392253Y-47498000D01*
X76403201Y-47553040D01*
X76403200Y-64206965D01*
X76392253Y-64262000D01*
X76403200Y-64317034D01*
X76435622Y-64480032D01*
X76559128Y-64664872D01*
X76605789Y-64696050D01*
X80217406Y-68307668D01*
X80329128Y-68474872D01*
X80375789Y-68506050D01*
X81569717Y-69699979D01*
X81529200Y-69903673D01*
X81529201Y-72844328D01*
X81611869Y-73259929D01*
X81926778Y-73731223D01*
X82398072Y-74046132D01*
X82954000Y-74156713D01*
X83509929Y-74046132D01*
X83981223Y-73731223D01*
X84296132Y-73259929D01*
X84378800Y-72844328D01*
X84378800Y-69903672D01*
X84296132Y-69488071D01*
X83981222Y-69016777D01*
X83509928Y-68701868D01*
X82954000Y-68591287D01*
X82398071Y-68701868D01*
X82250640Y-68800378D01*
X81246596Y-67796335D01*
X81134872Y-67629128D01*
X81088214Y-67597952D01*
X77520800Y-64030539D01*
X77520800Y-59952000D01*
X77679229Y-59952000D01*
X77679229Y-60952000D01*
X77721915Y-61166598D01*
X77843475Y-61348525D01*
X78025402Y-61470085D01*
X78240000Y-61512771D01*
X79240000Y-61512771D01*
X79454598Y-61470085D01*
X79636525Y-61348525D01*
X79758085Y-61166598D01*
X79800771Y-60952000D01*
X79800771Y-60242187D01*
X80685200Y-60242187D01*
X80685200Y-60661813D01*
X80845784Y-61049496D01*
X81142504Y-61346216D01*
X81530187Y-61506800D01*
X81949813Y-61506800D01*
X82337496Y-61346216D01*
X82634216Y-61049496D01*
X82794800Y-60661813D01*
X82794800Y-60242187D01*
X82634216Y-59854504D01*
X82337496Y-59557784D01*
X81949813Y-59397200D01*
X81530187Y-59397200D01*
X81142504Y-59557784D01*
X80845784Y-59854504D01*
X80685200Y-60242187D01*
X79800771Y-60242187D01*
X79800771Y-59952000D01*
X79758085Y-59737402D01*
X79636525Y-59555475D01*
X79454598Y-59433915D01*
X79240000Y-59391229D01*
X78240000Y-59391229D01*
X78025402Y-59433915D01*
X77843475Y-59555475D01*
X77721915Y-59737402D01*
X77679229Y-59952000D01*
X77520800Y-59952000D01*
X77520800Y-50554000D01*
X77679229Y-50554000D01*
X77679229Y-51554000D01*
X77721915Y-51768598D01*
X77843475Y-51950525D01*
X78025402Y-52072085D01*
X78240000Y-52114771D01*
X79240000Y-52114771D01*
X79454598Y-52072085D01*
X79636525Y-51950525D01*
X79758085Y-51768598D01*
X79800771Y-51554000D01*
X79800771Y-50844187D01*
X80685200Y-50844187D01*
X80685200Y-51263813D01*
X80845784Y-51651496D01*
X81142504Y-51948216D01*
X81530187Y-52108800D01*
X81949813Y-52108800D01*
X82337496Y-51948216D01*
X82634216Y-51651496D01*
X82748364Y-51375919D01*
X88459742Y-51375919D01*
X88468200Y-51418441D01*
X88468201Y-84177473D01*
X88459742Y-84220000D01*
X88493254Y-84388479D01*
X88564601Y-84495258D01*
X88564603Y-84495260D01*
X88588691Y-84531310D01*
X88624741Y-84555398D01*
X89471229Y-85401886D01*
X89471229Y-86602000D01*
X89494885Y-86720927D01*
X89562252Y-86821748D01*
X89663073Y-86889115D01*
X89782000Y-86912771D01*
X92082000Y-86912771D01*
X92200927Y-86889115D01*
X92301748Y-86821748D01*
X92369115Y-86720927D01*
X92392771Y-86602000D01*
X92392771Y-85102000D01*
X92369115Y-84983073D01*
X92301748Y-84882252D01*
X92200927Y-84814885D01*
X92082000Y-84791229D01*
X90081886Y-84791229D01*
X89616859Y-84326202D01*
X89884651Y-84542972D01*
X90405000Y-84697000D01*
X90805000Y-84697000D01*
X90805000Y-83439000D01*
X91059000Y-83439000D01*
X91059000Y-84697000D01*
X91459000Y-84697000D01*
X91979349Y-84542972D01*
X92401145Y-84201540D01*
X92660173Y-83724684D01*
X92674318Y-83653185D01*
X92551656Y-83439000D01*
X91059000Y-83439000D01*
X90805000Y-83439000D01*
X90785000Y-83439000D01*
X90785000Y-83185000D01*
X90805000Y-83185000D01*
X90805000Y-81927000D01*
X91059000Y-81927000D01*
X91059000Y-83185000D01*
X92551656Y-83185000D01*
X92627561Y-83052459D01*
X102447200Y-83052459D01*
X102447200Y-83571541D01*
X102645844Y-84051110D01*
X103012890Y-84418156D01*
X103492459Y-84616800D01*
X104011541Y-84616800D01*
X104491110Y-84418156D01*
X104858156Y-84051110D01*
X105056800Y-83571541D01*
X105056800Y-83052459D01*
X117447200Y-83052459D01*
X117447200Y-83571541D01*
X117645844Y-84051110D01*
X118012890Y-84418156D01*
X118492459Y-84616800D01*
X119011541Y-84616800D01*
X119491110Y-84418156D01*
X119858156Y-84051110D01*
X120056800Y-83571541D01*
X120056800Y-83052459D01*
X119858156Y-82572890D01*
X119491110Y-82205844D01*
X119011541Y-82007200D01*
X118492459Y-82007200D01*
X118012890Y-82205844D01*
X117645844Y-82572890D01*
X117447200Y-83052459D01*
X105056800Y-83052459D01*
X104858156Y-82572890D01*
X104491110Y-82205844D01*
X104011541Y-82007200D01*
X103492459Y-82007200D01*
X103012890Y-82205844D01*
X102645844Y-82572890D01*
X102447200Y-83052459D01*
X92627561Y-83052459D01*
X92674318Y-82970815D01*
X92660173Y-82899316D01*
X92401145Y-82422460D01*
X91979349Y-82081028D01*
X91459000Y-81927000D01*
X91059000Y-81927000D01*
X90805000Y-81927000D01*
X90405000Y-81927000D01*
X89884651Y-82081028D01*
X89462855Y-82422460D01*
X89331800Y-82663725D01*
X89331800Y-80772000D01*
X89456536Y-80772000D01*
X89538401Y-81183562D01*
X89771532Y-81532468D01*
X90120438Y-81765599D01*
X90428115Y-81826800D01*
X91435885Y-81826800D01*
X91743562Y-81765599D01*
X92092468Y-81532468D01*
X92309895Y-81207065D01*
X92336000Y-81212258D01*
X92378522Y-81203800D01*
X93175478Y-81203800D01*
X93218000Y-81212258D01*
X93260522Y-81203800D01*
X93260526Y-81203800D01*
X93386480Y-81178746D01*
X93529310Y-81083310D01*
X93553400Y-81047257D01*
X104318857Y-70281800D01*
X111203973Y-70281800D01*
X111364332Y-70442159D01*
X111621060Y-70548500D01*
X111898940Y-70548500D01*
X112155668Y-70442159D01*
X112352159Y-70245668D01*
X112458500Y-69988940D01*
X112458500Y-69711060D01*
X112352159Y-69454332D01*
X112155668Y-69257841D01*
X111898940Y-69151500D01*
X111621060Y-69151500D01*
X111364332Y-69257841D01*
X111203973Y-69418200D01*
X104300458Y-69418200D01*
X108329333Y-65389325D01*
X108365382Y-65365238D01*
X108460818Y-65222408D01*
X108485872Y-65096454D01*
X108485872Y-65096453D01*
X108494331Y-65053928D01*
X108485872Y-65011402D01*
X108485872Y-59469592D01*
X108494330Y-59427071D01*
X108485872Y-59384550D01*
X108485872Y-59384546D01*
X108460818Y-59258592D01*
X108390771Y-59153759D01*
X108390771Y-58690500D01*
X108349036Y-58480686D01*
X108230186Y-58302814D01*
X108052314Y-58183964D01*
X107936000Y-58160827D01*
X107936000Y-57917173D01*
X108052314Y-57894036D01*
X108230186Y-57775186D01*
X108349036Y-57597314D01*
X108390771Y-57387500D01*
X108390771Y-56912500D01*
X108349036Y-56702686D01*
X108230186Y-56524814D01*
X108052314Y-56405964D01*
X107842500Y-56364229D01*
X107308044Y-56364229D01*
X106326944Y-55383129D01*
X106305686Y-55351314D01*
X106179659Y-55267106D01*
X106068524Y-55245000D01*
X106031000Y-55237536D01*
X105993476Y-55245000D01*
X105754235Y-55245000D01*
X105748159Y-55230332D01*
X105551668Y-55033841D01*
X105294940Y-54927500D01*
X105017060Y-54927500D01*
X104760332Y-55033841D01*
X104563841Y-55230332D01*
X104457500Y-55487060D01*
X104457500Y-55764940D01*
X104563841Y-56021668D01*
X104760332Y-56218159D01*
X104815828Y-56241146D01*
X104741673Y-56315301D01*
X104645000Y-56548690D01*
X104645000Y-56864250D01*
X104803750Y-57023000D01*
X105678000Y-57023000D01*
X105678000Y-56198750D01*
X105624539Y-56145289D01*
X105748159Y-56021668D01*
X105754235Y-56007000D01*
X105873185Y-56007000D01*
X105998468Y-56132283D01*
X105932000Y-56198750D01*
X105932000Y-57023000D01*
X105952000Y-57023000D01*
X105952000Y-57277000D01*
X105932000Y-57277000D01*
X105932000Y-58801000D01*
X105952000Y-58801000D01*
X105952000Y-59055000D01*
X105932000Y-59055000D01*
X105932000Y-59879250D01*
X106090750Y-60038000D01*
X106456309Y-60038000D01*
X106689698Y-59941327D01*
X106868327Y-59762699D01*
X106938788Y-59592591D01*
X107057686Y-59672036D01*
X107267500Y-59713771D01*
X107622273Y-59713771D01*
X107622272Y-63844368D01*
X107526159Y-63612332D01*
X107329668Y-63415841D01*
X107315000Y-63409765D01*
X107315000Y-62521524D01*
X107322464Y-62484000D01*
X107292894Y-62335341D01*
X107240415Y-62256800D01*
X107208686Y-62209314D01*
X107176875Y-62188059D01*
X105566244Y-60577428D01*
X105544987Y-60545615D01*
X105513174Y-60524359D01*
X104937100Y-59948285D01*
X105153691Y-60038000D01*
X105519250Y-60038000D01*
X105678000Y-59879250D01*
X105678000Y-59055000D01*
X104803750Y-59055000D01*
X104645000Y-59213750D01*
X104645000Y-59529310D01*
X104734714Y-59745899D01*
X104267000Y-59278185D01*
X104267000Y-57435750D01*
X104645000Y-57435750D01*
X104645000Y-57751310D01*
X104741673Y-57984699D01*
X104795974Y-58039000D01*
X104741673Y-58093301D01*
X104645000Y-58326690D01*
X104645000Y-58642250D01*
X104803750Y-58801000D01*
X105678000Y-58801000D01*
X105678000Y-57277000D01*
X104803750Y-57277000D01*
X104645000Y-57435750D01*
X104267000Y-57435750D01*
X104267000Y-55208235D01*
X104281668Y-55202159D01*
X104478159Y-55005668D01*
X104584500Y-54748940D01*
X104584500Y-54471060D01*
X104478159Y-54214332D01*
X104281668Y-54017841D01*
X104024940Y-53911500D01*
X103747060Y-53911500D01*
X103490332Y-54017841D01*
X103293841Y-54214332D01*
X103187500Y-54471060D01*
X103187500Y-54748940D01*
X103293841Y-55005668D01*
X103490332Y-55202159D01*
X103505000Y-55208235D01*
X103505001Y-59326798D01*
X103415524Y-59309000D01*
X103378000Y-59301536D01*
X103340476Y-59309000D01*
X102452235Y-59309000D01*
X102446159Y-59294332D01*
X102249668Y-59097841D01*
X101992940Y-58991500D01*
X101715060Y-58991500D01*
X101458332Y-59097841D01*
X101282500Y-59273673D01*
X101282500Y-59043060D01*
X101176159Y-58786332D01*
X100979668Y-58589841D01*
X100722940Y-58483500D01*
X100445060Y-58483500D01*
X100188332Y-58589841D01*
X99991841Y-58786332D01*
X99885500Y-59043060D01*
X99885500Y-59269843D01*
X91363800Y-67791543D01*
X91363800Y-63283857D01*
X94925907Y-59721750D01*
X95247000Y-59721750D01*
X95247000Y-60037310D01*
X95343673Y-60270699D01*
X95522302Y-60449327D01*
X95755691Y-60546000D01*
X96121250Y-60546000D01*
X96280000Y-60387250D01*
X96280000Y-59563000D01*
X95405750Y-59563000D01*
X95247000Y-59721750D01*
X94925907Y-59721750D01*
X95372204Y-59275454D01*
X95405750Y-59309000D01*
X96280000Y-59309000D01*
X96280000Y-58484750D01*
X96534000Y-58484750D01*
X96534000Y-59309000D01*
X96554000Y-59309000D01*
X96554000Y-59563000D01*
X96534000Y-59563000D01*
X96534000Y-60387250D01*
X96692750Y-60546000D01*
X97058309Y-60546000D01*
X97291698Y-60449327D01*
X97470327Y-60270699D01*
X97540788Y-60100591D01*
X97659686Y-60180036D01*
X97869500Y-60221771D01*
X98444500Y-60221771D01*
X98654314Y-60180036D01*
X98832186Y-60061186D01*
X98951036Y-59883314D01*
X98992771Y-59673500D01*
X98992771Y-59198500D01*
X98964159Y-59054657D01*
X100487816Y-57531000D01*
X102017765Y-57531000D01*
X102023841Y-57545668D01*
X102220332Y-57742159D01*
X102477060Y-57848500D01*
X102754940Y-57848500D01*
X103011668Y-57742159D01*
X103208159Y-57545668D01*
X103314500Y-57288940D01*
X103314500Y-57011060D01*
X103208159Y-56754332D01*
X103011668Y-56557841D01*
X102754940Y-56451500D01*
X102477060Y-56451500D01*
X102220332Y-56557841D01*
X102023841Y-56754332D01*
X102017765Y-56769000D01*
X100367523Y-56769000D01*
X100329999Y-56761536D01*
X100232449Y-56780940D01*
X100181341Y-56791106D01*
X100055314Y-56875314D01*
X100034059Y-56907125D01*
X98290956Y-58650229D01*
X97869500Y-58650229D01*
X97659686Y-58691964D01*
X97540788Y-58771409D01*
X97470327Y-58601301D01*
X97291698Y-58422673D01*
X97058309Y-58326000D01*
X96692750Y-58326000D01*
X96534000Y-58484750D01*
X96280000Y-58484750D01*
X96221454Y-58426204D01*
X97219886Y-57427771D01*
X97682500Y-57427771D01*
X97892314Y-57386036D01*
X98070186Y-57267186D01*
X98189036Y-57089314D01*
X98192122Y-57073800D01*
X98249973Y-57073800D01*
X98410332Y-57234159D01*
X98667060Y-57340500D01*
X98944940Y-57340500D01*
X99201668Y-57234159D01*
X99398159Y-57037668D01*
X99504500Y-56780940D01*
X99504500Y-56503060D01*
X99398159Y-56246332D01*
X99209627Y-56057800D01*
X102059973Y-56057800D01*
X102220332Y-56218159D01*
X102477060Y-56324500D01*
X102754940Y-56324500D01*
X103011668Y-56218159D01*
X103208159Y-56021668D01*
X103314500Y-55764940D01*
X103314500Y-55487060D01*
X103208159Y-55230332D01*
X103011668Y-55033841D01*
X102891733Y-54984162D01*
X102896186Y-54981186D01*
X103015036Y-54803314D01*
X103056771Y-54593500D01*
X103056771Y-54118500D01*
X103015036Y-53908686D01*
X102896186Y-53730814D01*
X102718314Y-53611964D01*
X102602000Y-53588827D01*
X102602000Y-53345173D01*
X102718314Y-53322036D01*
X102896186Y-53203186D01*
X103015036Y-53025314D01*
X103056771Y-52815500D01*
X103056771Y-52622187D01*
X110959200Y-52622187D01*
X110959200Y-53041813D01*
X111119784Y-53429496D01*
X111416504Y-53726216D01*
X111804187Y-53886800D01*
X112223813Y-53886800D01*
X112611496Y-53726216D01*
X112908216Y-53429496D01*
X113068800Y-53041813D01*
X113068800Y-52622187D01*
X112908216Y-52234504D01*
X112611496Y-51937784D01*
X112223813Y-51777200D01*
X111804187Y-51777200D01*
X111416504Y-51937784D01*
X111119784Y-52234504D01*
X110959200Y-52622187D01*
X103056771Y-52622187D01*
X103056771Y-52340500D01*
X103015036Y-52130686D01*
X102896186Y-51952814D01*
X102718314Y-51833964D01*
X102508500Y-51792229D01*
X101933500Y-51792229D01*
X101723686Y-51833964D01*
X101604788Y-51913409D01*
X101534327Y-51743301D01*
X101355698Y-51564673D01*
X101122309Y-51468000D01*
X100756750Y-51468000D01*
X100598000Y-51626750D01*
X100598000Y-52451000D01*
X100618000Y-52451000D01*
X100618000Y-52705000D01*
X100598000Y-52705000D01*
X100598000Y-54229000D01*
X100618000Y-54229000D01*
X100618000Y-54483000D01*
X100598000Y-54483000D01*
X100598000Y-54503000D01*
X100344000Y-54503000D01*
X100344000Y-54483000D01*
X99469750Y-54483000D01*
X99311000Y-54641750D01*
X99311000Y-54957310D01*
X99407673Y-55190699D01*
X99411174Y-55194200D01*
X98453521Y-55194200D01*
X98410999Y-55185742D01*
X98368477Y-55194200D01*
X98368474Y-55194200D01*
X98242520Y-55219254D01*
X98201957Y-55246357D01*
X98230771Y-55101500D01*
X98230771Y-54626500D01*
X98189036Y-54416686D01*
X98070186Y-54238814D01*
X97892314Y-54119964D01*
X97682500Y-54078229D01*
X97107500Y-54078229D01*
X96897686Y-54119964D01*
X96778788Y-54199409D01*
X96708327Y-54029301D01*
X96529698Y-53850673D01*
X96296309Y-53754000D01*
X95930750Y-53754000D01*
X95772000Y-53912750D01*
X95772000Y-54737000D01*
X95792000Y-54737000D01*
X95792000Y-54991000D01*
X95772000Y-54991000D01*
X95772000Y-56515000D01*
X95792000Y-56515000D01*
X95792000Y-56769000D01*
X95772000Y-56769000D01*
X95772000Y-57593250D01*
X95802547Y-57623797D01*
X90656741Y-62769602D01*
X90620691Y-62793690D01*
X90596603Y-62829740D01*
X90596601Y-62829742D01*
X90525254Y-62936521D01*
X90491742Y-63105000D01*
X90500201Y-63147527D01*
X90500201Y-68791474D01*
X90491742Y-68834000D01*
X90500201Y-68876525D01*
X90500200Y-79717200D01*
X90428115Y-79717200D01*
X90120438Y-79778401D01*
X89771532Y-80011532D01*
X89538401Y-80360438D01*
X89456536Y-80772000D01*
X89331800Y-80772000D01*
X89331800Y-56927750D01*
X94485000Y-56927750D01*
X94485000Y-57243310D01*
X94581673Y-57476699D01*
X94760302Y-57655327D01*
X94993691Y-57752000D01*
X95359250Y-57752000D01*
X95518000Y-57593250D01*
X95518000Y-56769000D01*
X94643750Y-56769000D01*
X94485000Y-56927750D01*
X89331800Y-56927750D01*
X89331800Y-55149750D01*
X94485000Y-55149750D01*
X94485000Y-55465310D01*
X94581673Y-55698699D01*
X94635974Y-55753000D01*
X94581673Y-55807301D01*
X94485000Y-56040690D01*
X94485000Y-56356250D01*
X94643750Y-56515000D01*
X95518000Y-56515000D01*
X95518000Y-54991000D01*
X94643750Y-54991000D01*
X94485000Y-55149750D01*
X89331800Y-55149750D01*
X89331800Y-54262690D01*
X94485000Y-54262690D01*
X94485000Y-54578250D01*
X94643750Y-54737000D01*
X95518000Y-54737000D01*
X95518000Y-53912750D01*
X95359250Y-53754000D01*
X94993691Y-53754000D01*
X94760302Y-53850673D01*
X94581673Y-54029301D01*
X94485000Y-54262690D01*
X89331800Y-54262690D01*
X89331800Y-52863750D01*
X99311000Y-52863750D01*
X99311000Y-53179310D01*
X99407673Y-53412699D01*
X99461974Y-53467000D01*
X99407673Y-53521301D01*
X99311000Y-53754690D01*
X99311000Y-54070250D01*
X99469750Y-54229000D01*
X100344000Y-54229000D01*
X100344000Y-52705000D01*
X99469750Y-52705000D01*
X99311000Y-52863750D01*
X89331800Y-52863750D01*
X89331800Y-51976690D01*
X99311000Y-51976690D01*
X99311000Y-52292250D01*
X99469750Y-52451000D01*
X100344000Y-52451000D01*
X100344000Y-51626750D01*
X100185250Y-51468000D01*
X99819691Y-51468000D01*
X99586302Y-51564673D01*
X99407673Y-51743301D01*
X99311000Y-51976690D01*
X89331800Y-51976690D01*
X89331800Y-51554776D01*
X91729212Y-49157364D01*
X107494377Y-49157364D01*
X107494377Y-49576990D01*
X107654961Y-49964673D01*
X107951681Y-50261393D01*
X108339364Y-50421977D01*
X108758990Y-50421977D01*
X109146673Y-50261393D01*
X109443393Y-49964673D01*
X109603977Y-49576990D01*
X109603977Y-49157364D01*
X109443393Y-48769681D01*
X109146673Y-48472961D01*
X108758990Y-48312377D01*
X108339364Y-48312377D01*
X107951681Y-48472961D01*
X107654961Y-48769681D01*
X107494377Y-49157364D01*
X91729212Y-49157364D01*
X94688545Y-46198031D01*
X94925436Y-46552564D01*
X95307420Y-46807797D01*
X95644267Y-46874800D01*
X95871733Y-46874800D01*
X96208580Y-46807797D01*
X96590564Y-46552564D01*
X96845797Y-46170580D01*
X96935423Y-45720000D01*
X97120577Y-45720000D01*
X97210203Y-46170580D01*
X97465436Y-46552564D01*
X97847420Y-46807797D01*
X98184267Y-46874800D01*
X98411733Y-46874800D01*
X98748580Y-46807797D01*
X99130564Y-46552564D01*
X99385797Y-46170580D01*
X99475423Y-45720000D01*
X99660577Y-45720000D01*
X99750203Y-46170580D01*
X100005436Y-46552564D01*
X100387420Y-46807797D01*
X100724267Y-46874800D01*
X100951733Y-46874800D01*
X101288580Y-46807797D01*
X101670564Y-46552564D01*
X101893000Y-46219664D01*
X101893000Y-46696309D01*
X101989673Y-46929698D01*
X102168301Y-47108327D01*
X102401690Y-47205000D01*
X103092250Y-47205000D01*
X103251000Y-47046250D01*
X103251000Y-45847000D01*
X103505000Y-45847000D01*
X103505000Y-47046250D01*
X103663750Y-47205000D01*
X104354310Y-47205000D01*
X104587699Y-47108327D01*
X104766327Y-46929698D01*
X104863000Y-46696309D01*
X104863000Y-46005750D01*
X104704250Y-45847000D01*
X103505000Y-45847000D01*
X103251000Y-45847000D01*
X103231000Y-45847000D01*
X103231000Y-45593000D01*
X103251000Y-45593000D01*
X103251000Y-44393750D01*
X103505000Y-44393750D01*
X103505000Y-45593000D01*
X104704250Y-45593000D01*
X104863000Y-45434250D01*
X104863000Y-44743691D01*
X104766327Y-44510302D01*
X104587699Y-44331673D01*
X104354310Y-44235000D01*
X103663750Y-44235000D01*
X103505000Y-44393750D01*
X103251000Y-44393750D01*
X103092250Y-44235000D01*
X102401690Y-44235000D01*
X102168301Y-44331673D01*
X101989673Y-44510302D01*
X101893000Y-44743691D01*
X101893000Y-45220336D01*
X101670564Y-44887436D01*
X101288580Y-44632203D01*
X100951733Y-44565200D01*
X100724267Y-44565200D01*
X100387420Y-44632203D01*
X100005436Y-44887436D01*
X99750203Y-45269420D01*
X99660577Y-45720000D01*
X99475423Y-45720000D01*
X99385797Y-45269420D01*
X99130564Y-44887436D01*
X98748580Y-44632203D01*
X98411733Y-44565200D01*
X98184267Y-44565200D01*
X97847420Y-44632203D01*
X97465436Y-44887436D01*
X97210203Y-45269420D01*
X97120577Y-45720000D01*
X96935423Y-45720000D01*
X96845797Y-45269420D01*
X96590564Y-44887436D01*
X96208580Y-44632203D01*
X95871733Y-44565200D01*
X95644267Y-44565200D01*
X95307420Y-44632203D01*
X94925436Y-44887436D01*
X94670203Y-45269420D01*
X94666467Y-45288200D01*
X94598439Y-45288200D01*
X94555918Y-45279742D01*
X94513397Y-45288200D01*
X94513393Y-45288200D01*
X94387439Y-45313254D01*
X94244609Y-45408690D01*
X94220519Y-45444743D01*
X88624743Y-51040519D01*
X88588690Y-51064609D01*
X88493254Y-51207440D01*
X88468200Y-51333394D01*
X88468200Y-51333397D01*
X88459742Y-51375919D01*
X82748364Y-51375919D01*
X82794800Y-51263813D01*
X82794800Y-50844187D01*
X82634216Y-50456504D01*
X82337496Y-50159784D01*
X81949813Y-49999200D01*
X81530187Y-49999200D01*
X81142504Y-50159784D01*
X80845784Y-50456504D01*
X80685200Y-50844187D01*
X79800771Y-50844187D01*
X79800771Y-50554000D01*
X79758085Y-50339402D01*
X79636525Y-50157475D01*
X79454598Y-50035915D01*
X79240000Y-49993229D01*
X78240000Y-49993229D01*
X78025402Y-50035915D01*
X77843475Y-50157475D01*
X77721915Y-50339402D01*
X77679229Y-50554000D01*
X77520800Y-50554000D01*
X77520800Y-47844187D01*
X77685200Y-47844187D01*
X77685200Y-48263813D01*
X77845784Y-48651496D01*
X78142504Y-48948216D01*
X78530187Y-49108800D01*
X78949813Y-49108800D01*
X79337496Y-48948216D01*
X79634216Y-48651496D01*
X79794800Y-48263813D01*
X79794800Y-47844187D01*
X79634216Y-47456504D01*
X79337496Y-47159784D01*
X78949813Y-46999200D01*
X78530187Y-46999200D01*
X78142504Y-47159784D01*
X77845784Y-47456504D01*
X77685200Y-47844187D01*
X77520800Y-47844187D01*
X77520800Y-47729461D01*
X78463462Y-46786800D01*
X80032539Y-46786800D01*
X80803742Y-47558003D01*
X80685200Y-47844187D01*
X80685200Y-48263813D01*
X80845784Y-48651496D01*
X81142504Y-48948216D01*
X81530187Y-49108800D01*
X81949813Y-49108800D01*
X82337496Y-48948216D01*
X82634216Y-48651496D01*
X82794800Y-48263813D01*
X82794800Y-47844187D01*
X82634216Y-47456504D01*
X82337496Y-47159784D01*
X81949813Y-46999200D01*
X81825462Y-46999200D01*
X80698050Y-45871789D01*
X80666872Y-45825128D01*
X80482033Y-45701622D01*
X80319035Y-45669200D01*
X80264000Y-45658253D01*
X80208965Y-45669200D01*
X78287029Y-45669200D01*
X78231999Y-45658254D01*
X78176969Y-45669200D01*
X78176965Y-45669200D01*
X78013967Y-45701622D01*
X77829128Y-45825128D01*
X77797952Y-45871786D01*
X76605787Y-47063952D01*
X76559129Y-47095128D01*
X76527954Y-47141785D01*
X76435622Y-47279968D01*
X76392253Y-47498000D01*
X68984800Y-47498000D01*
X68984800Y-39833450D01*
X114055200Y-39833450D01*
X114055200Y-41446550D01*
X114672507Y-42936860D01*
X115813140Y-44077493D01*
X117303450Y-44694800D01*
X118916550Y-44694800D01*
X120406860Y-44077493D01*
X121547493Y-42936860D01*
X122164800Y-41446550D01*
X122164800Y-39833450D01*
X121547493Y-38343140D01*
X120406860Y-37202507D01*
X118916550Y-36585200D01*
X117303450Y-36585200D01*
X115813140Y-37202507D01*
X114672507Y-38343140D01*
X114055200Y-39833450D01*
X68984800Y-39833450D01*
X68984800Y-35404800D01*
X124055200Y-35404800D01*
X124055201Y-98655200D01*
G36*
X101155500Y-59828940D02*
X101261841Y-60085668D01*
X101458332Y-60282159D01*
X101715060Y-60388500D01*
X101992940Y-60388500D01*
X102249668Y-60282159D01*
X102446159Y-60085668D01*
X102452235Y-60071000D01*
X103220185Y-60071000D01*
X104267000Y-61117815D01*
X104267000Y-61377765D01*
X104252332Y-61383841D01*
X104055841Y-61580332D01*
X103949500Y-61837060D01*
X103949500Y-62114940D01*
X104055841Y-62371668D01*
X104252332Y-62568159D01*
X104509060Y-62674500D01*
X104786940Y-62674500D01*
X104889302Y-62632100D01*
X104889302Y-62973883D01*
X104547609Y-63315576D01*
X104532940Y-63309500D01*
X104255060Y-63309500D01*
X103998332Y-63415841D01*
X103801841Y-63612332D01*
X103695500Y-63869060D01*
X103695500Y-64146940D01*
X103801841Y-64403668D01*
X103998332Y-64600159D01*
X104255060Y-64706500D01*
X104532940Y-64706500D01*
X104789668Y-64600159D01*
X104986159Y-64403668D01*
X105092500Y-64146940D01*
X105092500Y-63869060D01*
X105086424Y-63854391D01*
X105513172Y-63427643D01*
X105544987Y-63406385D01*
X105629195Y-63280358D01*
X105651301Y-63169223D01*
X105658765Y-63131700D01*
X105651301Y-63094177D01*
X105651301Y-61740117D01*
X106553000Y-62641816D01*
X106553001Y-63409765D01*
X106538332Y-63415841D01*
X106341841Y-63612332D01*
X106235500Y-63869060D01*
X106235500Y-64146940D01*
X106341841Y-64403668D01*
X106538332Y-64600159D01*
X106795060Y-64706500D01*
X107072940Y-64706500D01*
X107329668Y-64600159D01*
X107526159Y-64403668D01*
X107622272Y-64171632D01*
X107622272Y-64875070D01*
X92250019Y-80247324D01*
X92092468Y-80011532D01*
X91743562Y-79778401D01*
X91435885Y-79717200D01*
X91363800Y-79717200D01*
X91363800Y-69012857D01*
X96082907Y-64293750D01*
X99565000Y-64293750D01*
X99565000Y-64609310D01*
X99661673Y-64842699D01*
X99840302Y-65021327D01*
X100073691Y-65118000D01*
X100439250Y-65118000D01*
X100598000Y-64959250D01*
X100598000Y-64135000D01*
X99723750Y-64135000D01*
X99565000Y-64293750D01*
X96082907Y-64293750D01*
X97860907Y-62515750D01*
X99565000Y-62515750D01*
X99565000Y-62831310D01*
X99661673Y-63064699D01*
X99715974Y-63119000D01*
X99661673Y-63173301D01*
X99565000Y-63406690D01*
X99565000Y-63722250D01*
X99723750Y-63881000D01*
X100598000Y-63881000D01*
X100598000Y-62357000D01*
X99723750Y-62357000D01*
X99565000Y-62515750D01*
X97860907Y-62515750D01*
X98747967Y-61628690D01*
X99565000Y-61628690D01*
X99565000Y-61944250D01*
X99723750Y-62103000D01*
X100598000Y-62103000D01*
X100598000Y-61278750D01*
X100439250Y-61120000D01*
X100073691Y-61120000D01*
X99840302Y-61216673D01*
X99661673Y-61395301D01*
X99565000Y-61628690D01*
X98747967Y-61628690D01*
X100203001Y-60173656D01*
X100203001Y-60301471D01*
X100195536Y-60339000D01*
X100225106Y-60487658D01*
X100225107Y-60487659D01*
X100309315Y-60613686D01*
X100341127Y-60634942D01*
X100918467Y-61212283D01*
X100852000Y-61278750D01*
X100852000Y-62103000D01*
X100872000Y-62103000D01*
X100872000Y-62357000D01*
X100852000Y-62357000D01*
X100852000Y-63881000D01*
X100872000Y-63881000D01*
X100872000Y-64135000D01*
X100852000Y-64135000D01*
X100852000Y-64959250D01*
X101010750Y-65118000D01*
X101376309Y-65118000D01*
X101609698Y-65021327D01*
X101788327Y-64842699D01*
X101858788Y-64672591D01*
X101977686Y-64752036D01*
X102187500Y-64793771D01*
X102762500Y-64793771D01*
X102972314Y-64752036D01*
X103150186Y-64633186D01*
X103269036Y-64455314D01*
X103310771Y-64245500D01*
X103310771Y-63770500D01*
X103269036Y-63560686D01*
X103150186Y-63382814D01*
X102972314Y-63263964D01*
X102856000Y-63240827D01*
X102856000Y-62997173D01*
X102972314Y-62974036D01*
X103150186Y-62855186D01*
X103269036Y-62677314D01*
X103310771Y-62467500D01*
X103310771Y-61992500D01*
X103269036Y-61782686D01*
X103150186Y-61604814D01*
X102972314Y-61485964D01*
X102762500Y-61444229D01*
X102228045Y-61444229D01*
X100965000Y-60181185D01*
X100965000Y-59780235D01*
X100979668Y-59774159D01*
X101155500Y-59598327D01*
X101155500Y-59828940D01*
X101155500Y-59828940D01*
G37*
X101155500Y-59828940D02*
X101261841Y-60085668D01*
X101458332Y-60282159D01*
X101715060Y-60388500D01*
X101992940Y-60388500D01*
X102249668Y-60282159D01*
X102446159Y-60085668D01*
X102452235Y-60071000D01*
X103220185Y-60071000D01*
X104267000Y-61117815D01*
X104267000Y-61377765D01*
X104252332Y-61383841D01*
X104055841Y-61580332D01*
X103949500Y-61837060D01*
X103949500Y-62114940D01*
X104055841Y-62371668D01*
X104252332Y-62568159D01*
X104509060Y-62674500D01*
X104786940Y-62674500D01*
X104889302Y-62632100D01*
X104889302Y-62973883D01*
X104547609Y-63315576D01*
X104532940Y-63309500D01*
X104255060Y-63309500D01*
X103998332Y-63415841D01*
X103801841Y-63612332D01*
X103695500Y-63869060D01*
X103695500Y-64146940D01*
X103801841Y-64403668D01*
X103998332Y-64600159D01*
X104255060Y-64706500D01*
X104532940Y-64706500D01*
X104789668Y-64600159D01*
X104986159Y-64403668D01*
X105092500Y-64146940D01*
X105092500Y-63869060D01*
X105086424Y-63854391D01*
X105513172Y-63427643D01*
X105544987Y-63406385D01*
X105629195Y-63280358D01*
X105651301Y-63169223D01*
X105658765Y-63131700D01*
X105651301Y-63094177D01*
X105651301Y-61740117D01*
X106553000Y-62641816D01*
X106553001Y-63409765D01*
X106538332Y-63415841D01*
X106341841Y-63612332D01*
X106235500Y-63869060D01*
X106235500Y-64146940D01*
X106341841Y-64403668D01*
X106538332Y-64600159D01*
X106795060Y-64706500D01*
X107072940Y-64706500D01*
X107329668Y-64600159D01*
X107526159Y-64403668D01*
X107622272Y-64171632D01*
X107622272Y-64875070D01*
X92250019Y-80247324D01*
X92092468Y-80011532D01*
X91743562Y-79778401D01*
X91435885Y-79717200D01*
X91363800Y-79717200D01*
X91363800Y-69012857D01*
X96082907Y-64293750D01*
X99565000Y-64293750D01*
X99565000Y-64609310D01*
X99661673Y-64842699D01*
X99840302Y-65021327D01*
X100073691Y-65118000D01*
X100439250Y-65118000D01*
X100598000Y-64959250D01*
X100598000Y-64135000D01*
X99723750Y-64135000D01*
X99565000Y-64293750D01*
X96082907Y-64293750D01*
X97860907Y-62515750D01*
X99565000Y-62515750D01*
X99565000Y-62831310D01*
X99661673Y-63064699D01*
X99715974Y-63119000D01*
X99661673Y-63173301D01*
X99565000Y-63406690D01*
X99565000Y-63722250D01*
X99723750Y-63881000D01*
X100598000Y-63881000D01*
X100598000Y-62357000D01*
X99723750Y-62357000D01*
X99565000Y-62515750D01*
X97860907Y-62515750D01*
X98747967Y-61628690D01*
X99565000Y-61628690D01*
X99565000Y-61944250D01*
X99723750Y-62103000D01*
X100598000Y-62103000D01*
X100598000Y-61278750D01*
X100439250Y-61120000D01*
X100073691Y-61120000D01*
X99840302Y-61216673D01*
X99661673Y-61395301D01*
X99565000Y-61628690D01*
X98747967Y-61628690D01*
X100203001Y-60173656D01*
X100203001Y-60301471D01*
X100195536Y-60339000D01*
X100225106Y-60487658D01*
X100225107Y-60487659D01*
X100309315Y-60613686D01*
X100341127Y-60634942D01*
X100918467Y-61212283D01*
X100852000Y-61278750D01*
X100852000Y-62103000D01*
X100872000Y-62103000D01*
X100872000Y-62357000D01*
X100852000Y-62357000D01*
X100852000Y-63881000D01*
X100872000Y-63881000D01*
X100872000Y-64135000D01*
X100852000Y-64135000D01*
X100852000Y-64959250D01*
X101010750Y-65118000D01*
X101376309Y-65118000D01*
X101609698Y-65021327D01*
X101788327Y-64842699D01*
X101858788Y-64672591D01*
X101977686Y-64752036D01*
X102187500Y-64793771D01*
X102762500Y-64793771D01*
X102972314Y-64752036D01*
X103150186Y-64633186D01*
X103269036Y-64455314D01*
X103310771Y-64245500D01*
X103310771Y-63770500D01*
X103269036Y-63560686D01*
X103150186Y-63382814D01*
X102972314Y-63263964D01*
X102856000Y-63240827D01*
X102856000Y-62997173D01*
X102972314Y-62974036D01*
X103150186Y-62855186D01*
X103269036Y-62677314D01*
X103310771Y-62467500D01*
X103310771Y-61992500D01*
X103269036Y-61782686D01*
X103150186Y-61604814D01*
X102972314Y-61485964D01*
X102762500Y-61444229D01*
X102228045Y-61444229D01*
X100965000Y-60181185D01*
X100965000Y-59780235D01*
X100979668Y-59774159D01*
X101155500Y-59598327D01*
X101155500Y-59828940D01*
M02*
