M48
;DRILL file {KiCad (5.0.2)-1} date 2019-02-18 6:27:44 PM
;FORMAT={-:-/ absolute / inch / decimal}
FMAT,2
INCH,TZ
T1C0.0150
T2C0.0315
T3C0.0394
T4C0.0402
T5C0.0433
T6C0.1693
%
G90
G05
T1
X3.2Y-3.07
X3.26Y-3.14
X3.29Y-3.1
X3.54Y-2.5
X3.55Y-1.9
X3.55Y-2.84
X3.55Y-2.89
X3.56Y-2.1
X3.56Y-2.29
X3.61Y-2.78
X3.63Y-2.93
X3.66Y-2.89
X3.66Y-2.99
X3.81Y-2.75
X3.83Y-2.82
X3.84Y-3.28
X3.86Y-2.89
X3.89Y-2.23
X3.89Y-2.67
X3.91Y-3.15
X3.92Y-2.46
X3.92Y-2.5
X3.94Y-2.82
X3.96Y-2.33
X4.01Y-2.35
X4.04Y-2.19
X4.04Y-2.25
X4.04Y-2.67
X4.04Y-3.15
X4.09Y-2.15
X4.11Y-2.52
X4.12Y-2.44
X4.14Y-2.19
X4.14Y-3.15
X4.21Y-2.52
X4.23Y-3.15
X4.23Y-3.23
X4.32Y-3.23
X4.4Y-2.75
X4.41Y-2.41
X4.41Y-2.46
X4.63Y-1.83
T2
X4.2736Y-1.9436
X4.41Y-2.08
T3
X3.58Y-3.18
X3.58Y-3.28
X3.58Y-3.38
X2.84Y-3.2
X2.84Y-3.3
X2.84Y-3.4
X3.77Y-1.8
X3.87Y-1.8
X3.97Y-1.8
X4.07Y-1.8
T4
X3.1Y-1.8919
X3.1Y-2.01
X3.2181Y-1.8919
X3.2181Y-2.01
X3.1Y-2.38
X3.2181Y-2.38
T5
X4.0847Y-3.28
X4.6753Y-3.28
T6
X3.25Y-3.7
X4.65Y-1.6
T3
X3.0297Y-2.7608G85X3.0297Y-2.8592
G05
X3.1084Y-2.9872G85X3.1872Y-2.9872
G05
X3.2659Y-2.7608G85X3.2659Y-2.8592
G05
T0
M30
