%TF.GenerationSoftware,KiCad,Pcbnew,(5.0.2)-1*%
%TF.CreationDate,2019-02-18T18:23:53-07:00*%
%TF.ProjectId,ParkingSystem,5061726b-696e-4675-9379-7374656d2e6b,v01*%
%TF.SameCoordinates,Original*%
%TF.FileFunction,Paste,Top*%
%TF.FilePolarity,Positive*%
%FSLAX46Y46*%
G04 Gerber Fmt 4.6, Leading zero omitted, Abs format (unit mm)*
G04 Created by KiCad (PCBNEW (5.0.2)-1) date 2019-02-18 6:23:53 PM*
%MOMM*%
%LPD*%
G01*
G04 APERTURE LIST*
%ADD10C,0.200000*%
%ADD11C,0.150000*%
%ADD12C,0.950000*%
%ADD13R,0.740000X2.400000*%
%ADD14R,0.620000X0.400000*%
%ADD15R,0.400000X0.620000*%
%ADD16R,1.550000X1.300000*%
%ADD17C,0.250000*%
%ADD18R,1.550000X0.600000*%
G04 APERTURE END LIST*
D10*
X124460000Y-99060000D02*
X68580000Y-99060000D01*
X124460000Y-35000000D02*
X124460000Y-99060000D01*
X68580000Y-35000000D02*
X124460000Y-35000000D01*
X68580000Y-99060000D02*
X68580000Y-35000000D01*
D11*
G36*
X113544779Y-65657144D02*
X113567834Y-65660563D01*
X113590443Y-65666227D01*
X113612387Y-65674079D01*
X113633457Y-65684044D01*
X113653448Y-65696026D01*
X113672168Y-65709910D01*
X113689438Y-65725562D01*
X113705090Y-65742832D01*
X113718974Y-65761552D01*
X113730956Y-65781543D01*
X113740921Y-65802613D01*
X113748773Y-65824557D01*
X113754437Y-65847166D01*
X113757856Y-65870221D01*
X113759000Y-65893500D01*
X113759000Y-66468500D01*
X113757856Y-66491779D01*
X113754437Y-66514834D01*
X113748773Y-66537443D01*
X113740921Y-66559387D01*
X113730956Y-66580457D01*
X113718974Y-66600448D01*
X113705090Y-66619168D01*
X113689438Y-66636438D01*
X113672168Y-66652090D01*
X113653448Y-66665974D01*
X113633457Y-66677956D01*
X113612387Y-66687921D01*
X113590443Y-66695773D01*
X113567834Y-66701437D01*
X113544779Y-66704856D01*
X113521500Y-66706000D01*
X113046500Y-66706000D01*
X113023221Y-66704856D01*
X113000166Y-66701437D01*
X112977557Y-66695773D01*
X112955613Y-66687921D01*
X112934543Y-66677956D01*
X112914552Y-66665974D01*
X112895832Y-66652090D01*
X112878562Y-66636438D01*
X112862910Y-66619168D01*
X112849026Y-66600448D01*
X112837044Y-66580457D01*
X112827079Y-66559387D01*
X112819227Y-66537443D01*
X112813563Y-66514834D01*
X112810144Y-66491779D01*
X112809000Y-66468500D01*
X112809000Y-65893500D01*
X112810144Y-65870221D01*
X112813563Y-65847166D01*
X112819227Y-65824557D01*
X112827079Y-65802613D01*
X112837044Y-65781543D01*
X112849026Y-65761552D01*
X112862910Y-65742832D01*
X112878562Y-65725562D01*
X112895832Y-65709910D01*
X112914552Y-65696026D01*
X112934543Y-65684044D01*
X112955613Y-65674079D01*
X112977557Y-65666227D01*
X113000166Y-65660563D01*
X113023221Y-65657144D01*
X113046500Y-65656000D01*
X113521500Y-65656000D01*
X113544779Y-65657144D01*
X113544779Y-65657144D01*
G37*
D12*
X113284000Y-66181000D03*
D11*
G36*
X113544779Y-67407144D02*
X113567834Y-67410563D01*
X113590443Y-67416227D01*
X113612387Y-67424079D01*
X113633457Y-67434044D01*
X113653448Y-67446026D01*
X113672168Y-67459910D01*
X113689438Y-67475562D01*
X113705090Y-67492832D01*
X113718974Y-67511552D01*
X113730956Y-67531543D01*
X113740921Y-67552613D01*
X113748773Y-67574557D01*
X113754437Y-67597166D01*
X113757856Y-67620221D01*
X113759000Y-67643500D01*
X113759000Y-68218500D01*
X113757856Y-68241779D01*
X113754437Y-68264834D01*
X113748773Y-68287443D01*
X113740921Y-68309387D01*
X113730956Y-68330457D01*
X113718974Y-68350448D01*
X113705090Y-68369168D01*
X113689438Y-68386438D01*
X113672168Y-68402090D01*
X113653448Y-68415974D01*
X113633457Y-68427956D01*
X113612387Y-68437921D01*
X113590443Y-68445773D01*
X113567834Y-68451437D01*
X113544779Y-68454856D01*
X113521500Y-68456000D01*
X113046500Y-68456000D01*
X113023221Y-68454856D01*
X113000166Y-68451437D01*
X112977557Y-68445773D01*
X112955613Y-68437921D01*
X112934543Y-68427956D01*
X112914552Y-68415974D01*
X112895832Y-68402090D01*
X112878562Y-68386438D01*
X112862910Y-68369168D01*
X112849026Y-68350448D01*
X112837044Y-68330457D01*
X112827079Y-68309387D01*
X112819227Y-68287443D01*
X112813563Y-68264834D01*
X112810144Y-68241779D01*
X112809000Y-68218500D01*
X112809000Y-67643500D01*
X112810144Y-67620221D01*
X112813563Y-67597166D01*
X112819227Y-67574557D01*
X112827079Y-67552613D01*
X112837044Y-67531543D01*
X112849026Y-67511552D01*
X112862910Y-67492832D01*
X112878562Y-67475562D01*
X112895832Y-67459910D01*
X112914552Y-67446026D01*
X112934543Y-67434044D01*
X112955613Y-67424079D01*
X112977557Y-67416227D01*
X113000166Y-67410563D01*
X113023221Y-67407144D01*
X113046500Y-67406000D01*
X113521500Y-67406000D01*
X113544779Y-67407144D01*
X113544779Y-67407144D01*
G37*
D12*
X113284000Y-67931000D03*
D11*
G36*
X110496779Y-65657144D02*
X110519834Y-65660563D01*
X110542443Y-65666227D01*
X110564387Y-65674079D01*
X110585457Y-65684044D01*
X110605448Y-65696026D01*
X110624168Y-65709910D01*
X110641438Y-65725562D01*
X110657090Y-65742832D01*
X110670974Y-65761552D01*
X110682956Y-65781543D01*
X110692921Y-65802613D01*
X110700773Y-65824557D01*
X110706437Y-65847166D01*
X110709856Y-65870221D01*
X110711000Y-65893500D01*
X110711000Y-66468500D01*
X110709856Y-66491779D01*
X110706437Y-66514834D01*
X110700773Y-66537443D01*
X110692921Y-66559387D01*
X110682956Y-66580457D01*
X110670974Y-66600448D01*
X110657090Y-66619168D01*
X110641438Y-66636438D01*
X110624168Y-66652090D01*
X110605448Y-66665974D01*
X110585457Y-66677956D01*
X110564387Y-66687921D01*
X110542443Y-66695773D01*
X110519834Y-66701437D01*
X110496779Y-66704856D01*
X110473500Y-66706000D01*
X109998500Y-66706000D01*
X109975221Y-66704856D01*
X109952166Y-66701437D01*
X109929557Y-66695773D01*
X109907613Y-66687921D01*
X109886543Y-66677956D01*
X109866552Y-66665974D01*
X109847832Y-66652090D01*
X109830562Y-66636438D01*
X109814910Y-66619168D01*
X109801026Y-66600448D01*
X109789044Y-66580457D01*
X109779079Y-66559387D01*
X109771227Y-66537443D01*
X109765563Y-66514834D01*
X109762144Y-66491779D01*
X109761000Y-66468500D01*
X109761000Y-65893500D01*
X109762144Y-65870221D01*
X109765563Y-65847166D01*
X109771227Y-65824557D01*
X109779079Y-65802613D01*
X109789044Y-65781543D01*
X109801026Y-65761552D01*
X109814910Y-65742832D01*
X109830562Y-65725562D01*
X109847832Y-65709910D01*
X109866552Y-65696026D01*
X109886543Y-65684044D01*
X109907613Y-65674079D01*
X109929557Y-65666227D01*
X109952166Y-65660563D01*
X109975221Y-65657144D01*
X109998500Y-65656000D01*
X110473500Y-65656000D01*
X110496779Y-65657144D01*
X110496779Y-65657144D01*
G37*
D12*
X110236000Y-66181000D03*
D11*
G36*
X110496779Y-67407144D02*
X110519834Y-67410563D01*
X110542443Y-67416227D01*
X110564387Y-67424079D01*
X110585457Y-67434044D01*
X110605448Y-67446026D01*
X110624168Y-67459910D01*
X110641438Y-67475562D01*
X110657090Y-67492832D01*
X110670974Y-67511552D01*
X110682956Y-67531543D01*
X110692921Y-67552613D01*
X110700773Y-67574557D01*
X110706437Y-67597166D01*
X110709856Y-67620221D01*
X110711000Y-67643500D01*
X110711000Y-68218500D01*
X110709856Y-68241779D01*
X110706437Y-68264834D01*
X110700773Y-68287443D01*
X110692921Y-68309387D01*
X110682956Y-68330457D01*
X110670974Y-68350448D01*
X110657090Y-68369168D01*
X110641438Y-68386438D01*
X110624168Y-68402090D01*
X110605448Y-68415974D01*
X110585457Y-68427956D01*
X110564387Y-68437921D01*
X110542443Y-68445773D01*
X110519834Y-68451437D01*
X110496779Y-68454856D01*
X110473500Y-68456000D01*
X109998500Y-68456000D01*
X109975221Y-68454856D01*
X109952166Y-68451437D01*
X109929557Y-68445773D01*
X109907613Y-68437921D01*
X109886543Y-68427956D01*
X109866552Y-68415974D01*
X109847832Y-68402090D01*
X109830562Y-68386438D01*
X109814910Y-68369168D01*
X109801026Y-68350448D01*
X109789044Y-68330457D01*
X109779079Y-68309387D01*
X109771227Y-68287443D01*
X109765563Y-68264834D01*
X109762144Y-68241779D01*
X109761000Y-68218500D01*
X109761000Y-67643500D01*
X109762144Y-67620221D01*
X109765563Y-67597166D01*
X109771227Y-67574557D01*
X109779079Y-67552613D01*
X109789044Y-67531543D01*
X109801026Y-67511552D01*
X109814910Y-67492832D01*
X109830562Y-67475562D01*
X109847832Y-67459910D01*
X109866552Y-67446026D01*
X109886543Y-67434044D01*
X109907613Y-67424079D01*
X109929557Y-67416227D01*
X109952166Y-67410563D01*
X109975221Y-67407144D01*
X109998500Y-67406000D01*
X110473500Y-67406000D01*
X110496779Y-67407144D01*
X110496779Y-67407144D01*
G37*
D12*
X110236000Y-67931000D03*
D11*
G36*
X80270779Y-81885144D02*
X80293834Y-81888563D01*
X80316443Y-81894227D01*
X80338387Y-81902079D01*
X80359457Y-81912044D01*
X80379448Y-81924026D01*
X80398168Y-81937910D01*
X80415438Y-81953562D01*
X80431090Y-81970832D01*
X80444974Y-81989552D01*
X80456956Y-82009543D01*
X80466921Y-82030613D01*
X80474773Y-82052557D01*
X80480437Y-82075166D01*
X80483856Y-82098221D01*
X80485000Y-82121500D01*
X80485000Y-82696500D01*
X80483856Y-82719779D01*
X80480437Y-82742834D01*
X80474773Y-82765443D01*
X80466921Y-82787387D01*
X80456956Y-82808457D01*
X80444974Y-82828448D01*
X80431090Y-82847168D01*
X80415438Y-82864438D01*
X80398168Y-82880090D01*
X80379448Y-82893974D01*
X80359457Y-82905956D01*
X80338387Y-82915921D01*
X80316443Y-82923773D01*
X80293834Y-82929437D01*
X80270779Y-82932856D01*
X80247500Y-82934000D01*
X79772500Y-82934000D01*
X79749221Y-82932856D01*
X79726166Y-82929437D01*
X79703557Y-82923773D01*
X79681613Y-82915921D01*
X79660543Y-82905956D01*
X79640552Y-82893974D01*
X79621832Y-82880090D01*
X79604562Y-82864438D01*
X79588910Y-82847168D01*
X79575026Y-82828448D01*
X79563044Y-82808457D01*
X79553079Y-82787387D01*
X79545227Y-82765443D01*
X79539563Y-82742834D01*
X79536144Y-82719779D01*
X79535000Y-82696500D01*
X79535000Y-82121500D01*
X79536144Y-82098221D01*
X79539563Y-82075166D01*
X79545227Y-82052557D01*
X79553079Y-82030613D01*
X79563044Y-82009543D01*
X79575026Y-81989552D01*
X79588910Y-81970832D01*
X79604562Y-81953562D01*
X79621832Y-81937910D01*
X79640552Y-81924026D01*
X79660543Y-81912044D01*
X79681613Y-81902079D01*
X79703557Y-81894227D01*
X79726166Y-81888563D01*
X79749221Y-81885144D01*
X79772500Y-81884000D01*
X80247500Y-81884000D01*
X80270779Y-81885144D01*
X80270779Y-81885144D01*
G37*
D12*
X80010000Y-82409000D03*
D11*
G36*
X80270779Y-80135144D02*
X80293834Y-80138563D01*
X80316443Y-80144227D01*
X80338387Y-80152079D01*
X80359457Y-80162044D01*
X80379448Y-80174026D01*
X80398168Y-80187910D01*
X80415438Y-80203562D01*
X80431090Y-80220832D01*
X80444974Y-80239552D01*
X80456956Y-80259543D01*
X80466921Y-80280613D01*
X80474773Y-80302557D01*
X80480437Y-80325166D01*
X80483856Y-80348221D01*
X80485000Y-80371500D01*
X80485000Y-80946500D01*
X80483856Y-80969779D01*
X80480437Y-80992834D01*
X80474773Y-81015443D01*
X80466921Y-81037387D01*
X80456956Y-81058457D01*
X80444974Y-81078448D01*
X80431090Y-81097168D01*
X80415438Y-81114438D01*
X80398168Y-81130090D01*
X80379448Y-81143974D01*
X80359457Y-81155956D01*
X80338387Y-81165921D01*
X80316443Y-81173773D01*
X80293834Y-81179437D01*
X80270779Y-81182856D01*
X80247500Y-81184000D01*
X79772500Y-81184000D01*
X79749221Y-81182856D01*
X79726166Y-81179437D01*
X79703557Y-81173773D01*
X79681613Y-81165921D01*
X79660543Y-81155956D01*
X79640552Y-81143974D01*
X79621832Y-81130090D01*
X79604562Y-81114438D01*
X79588910Y-81097168D01*
X79575026Y-81078448D01*
X79563044Y-81058457D01*
X79553079Y-81037387D01*
X79545227Y-81015443D01*
X79539563Y-80992834D01*
X79536144Y-80969779D01*
X79535000Y-80946500D01*
X79535000Y-80371500D01*
X79536144Y-80348221D01*
X79539563Y-80325166D01*
X79545227Y-80302557D01*
X79553079Y-80280613D01*
X79563044Y-80259543D01*
X79575026Y-80239552D01*
X79588910Y-80220832D01*
X79604562Y-80203562D01*
X79621832Y-80187910D01*
X79640552Y-80174026D01*
X79660543Y-80162044D01*
X79681613Y-80152079D01*
X79703557Y-80144227D01*
X79726166Y-80138563D01*
X79749221Y-80135144D01*
X79772500Y-80134000D01*
X80247500Y-80134000D01*
X80270779Y-80135144D01*
X80270779Y-80135144D01*
G37*
D12*
X80010000Y-80659000D03*
D11*
G36*
X80270779Y-84707144D02*
X80293834Y-84710563D01*
X80316443Y-84716227D01*
X80338387Y-84724079D01*
X80359457Y-84734044D01*
X80379448Y-84746026D01*
X80398168Y-84759910D01*
X80415438Y-84775562D01*
X80431090Y-84792832D01*
X80444974Y-84811552D01*
X80456956Y-84831543D01*
X80466921Y-84852613D01*
X80474773Y-84874557D01*
X80480437Y-84897166D01*
X80483856Y-84920221D01*
X80485000Y-84943500D01*
X80485000Y-85518500D01*
X80483856Y-85541779D01*
X80480437Y-85564834D01*
X80474773Y-85587443D01*
X80466921Y-85609387D01*
X80456956Y-85630457D01*
X80444974Y-85650448D01*
X80431090Y-85669168D01*
X80415438Y-85686438D01*
X80398168Y-85702090D01*
X80379448Y-85715974D01*
X80359457Y-85727956D01*
X80338387Y-85737921D01*
X80316443Y-85745773D01*
X80293834Y-85751437D01*
X80270779Y-85754856D01*
X80247500Y-85756000D01*
X79772500Y-85756000D01*
X79749221Y-85754856D01*
X79726166Y-85751437D01*
X79703557Y-85745773D01*
X79681613Y-85737921D01*
X79660543Y-85727956D01*
X79640552Y-85715974D01*
X79621832Y-85702090D01*
X79604562Y-85686438D01*
X79588910Y-85669168D01*
X79575026Y-85650448D01*
X79563044Y-85630457D01*
X79553079Y-85609387D01*
X79545227Y-85587443D01*
X79539563Y-85564834D01*
X79536144Y-85541779D01*
X79535000Y-85518500D01*
X79535000Y-84943500D01*
X79536144Y-84920221D01*
X79539563Y-84897166D01*
X79545227Y-84874557D01*
X79553079Y-84852613D01*
X79563044Y-84831543D01*
X79575026Y-84811552D01*
X79588910Y-84792832D01*
X79604562Y-84775562D01*
X79621832Y-84759910D01*
X79640552Y-84746026D01*
X79660543Y-84734044D01*
X79681613Y-84724079D01*
X79703557Y-84716227D01*
X79726166Y-84710563D01*
X79749221Y-84707144D01*
X79772500Y-84706000D01*
X80247500Y-84706000D01*
X80270779Y-84707144D01*
X80270779Y-84707144D01*
G37*
D12*
X80010000Y-85231000D03*
D11*
G36*
X80270779Y-86457144D02*
X80293834Y-86460563D01*
X80316443Y-86466227D01*
X80338387Y-86474079D01*
X80359457Y-86484044D01*
X80379448Y-86496026D01*
X80398168Y-86509910D01*
X80415438Y-86525562D01*
X80431090Y-86542832D01*
X80444974Y-86561552D01*
X80456956Y-86581543D01*
X80466921Y-86602613D01*
X80474773Y-86624557D01*
X80480437Y-86647166D01*
X80483856Y-86670221D01*
X80485000Y-86693500D01*
X80485000Y-87268500D01*
X80483856Y-87291779D01*
X80480437Y-87314834D01*
X80474773Y-87337443D01*
X80466921Y-87359387D01*
X80456956Y-87380457D01*
X80444974Y-87400448D01*
X80431090Y-87419168D01*
X80415438Y-87436438D01*
X80398168Y-87452090D01*
X80379448Y-87465974D01*
X80359457Y-87477956D01*
X80338387Y-87487921D01*
X80316443Y-87495773D01*
X80293834Y-87501437D01*
X80270779Y-87504856D01*
X80247500Y-87506000D01*
X79772500Y-87506000D01*
X79749221Y-87504856D01*
X79726166Y-87501437D01*
X79703557Y-87495773D01*
X79681613Y-87487921D01*
X79660543Y-87477956D01*
X79640552Y-87465974D01*
X79621832Y-87452090D01*
X79604562Y-87436438D01*
X79588910Y-87419168D01*
X79575026Y-87400448D01*
X79563044Y-87380457D01*
X79553079Y-87359387D01*
X79545227Y-87337443D01*
X79539563Y-87314834D01*
X79536144Y-87291779D01*
X79535000Y-87268500D01*
X79535000Y-86693500D01*
X79536144Y-86670221D01*
X79539563Y-86647166D01*
X79545227Y-86624557D01*
X79553079Y-86602613D01*
X79563044Y-86581543D01*
X79575026Y-86561552D01*
X79588910Y-86542832D01*
X79604562Y-86525562D01*
X79621832Y-86509910D01*
X79640552Y-86496026D01*
X79660543Y-86484044D01*
X79681613Y-86474079D01*
X79703557Y-86466227D01*
X79726166Y-86460563D01*
X79749221Y-86457144D01*
X79772500Y-86456000D01*
X80247500Y-86456000D01*
X80270779Y-86457144D01*
X80270779Y-86457144D01*
G37*
D12*
X80010000Y-86981000D03*
D11*
G36*
X94494779Y-83437144D02*
X94517834Y-83440563D01*
X94540443Y-83446227D01*
X94562387Y-83454079D01*
X94583457Y-83464044D01*
X94603448Y-83476026D01*
X94622168Y-83489910D01*
X94639438Y-83505562D01*
X94655090Y-83522832D01*
X94668974Y-83541552D01*
X94680956Y-83561543D01*
X94690921Y-83582613D01*
X94698773Y-83604557D01*
X94704437Y-83627166D01*
X94707856Y-83650221D01*
X94709000Y-83673500D01*
X94709000Y-84248500D01*
X94707856Y-84271779D01*
X94704437Y-84294834D01*
X94698773Y-84317443D01*
X94690921Y-84339387D01*
X94680956Y-84360457D01*
X94668974Y-84380448D01*
X94655090Y-84399168D01*
X94639438Y-84416438D01*
X94622168Y-84432090D01*
X94603448Y-84445974D01*
X94583457Y-84457956D01*
X94562387Y-84467921D01*
X94540443Y-84475773D01*
X94517834Y-84481437D01*
X94494779Y-84484856D01*
X94471500Y-84486000D01*
X93996500Y-84486000D01*
X93973221Y-84484856D01*
X93950166Y-84481437D01*
X93927557Y-84475773D01*
X93905613Y-84467921D01*
X93884543Y-84457956D01*
X93864552Y-84445974D01*
X93845832Y-84432090D01*
X93828562Y-84416438D01*
X93812910Y-84399168D01*
X93799026Y-84380448D01*
X93787044Y-84360457D01*
X93777079Y-84339387D01*
X93769227Y-84317443D01*
X93763563Y-84294834D01*
X93760144Y-84271779D01*
X93759000Y-84248500D01*
X93759000Y-83673500D01*
X93760144Y-83650221D01*
X93763563Y-83627166D01*
X93769227Y-83604557D01*
X93777079Y-83582613D01*
X93787044Y-83561543D01*
X93799026Y-83541552D01*
X93812910Y-83522832D01*
X93828562Y-83505562D01*
X93845832Y-83489910D01*
X93864552Y-83476026D01*
X93884543Y-83464044D01*
X93905613Y-83454079D01*
X93927557Y-83446227D01*
X93950166Y-83440563D01*
X93973221Y-83437144D01*
X93996500Y-83436000D01*
X94471500Y-83436000D01*
X94494779Y-83437144D01*
X94494779Y-83437144D01*
G37*
D12*
X94234000Y-83961000D03*
D11*
G36*
X94494779Y-85187144D02*
X94517834Y-85190563D01*
X94540443Y-85196227D01*
X94562387Y-85204079D01*
X94583457Y-85214044D01*
X94603448Y-85226026D01*
X94622168Y-85239910D01*
X94639438Y-85255562D01*
X94655090Y-85272832D01*
X94668974Y-85291552D01*
X94680956Y-85311543D01*
X94690921Y-85332613D01*
X94698773Y-85354557D01*
X94704437Y-85377166D01*
X94707856Y-85400221D01*
X94709000Y-85423500D01*
X94709000Y-85998500D01*
X94707856Y-86021779D01*
X94704437Y-86044834D01*
X94698773Y-86067443D01*
X94690921Y-86089387D01*
X94680956Y-86110457D01*
X94668974Y-86130448D01*
X94655090Y-86149168D01*
X94639438Y-86166438D01*
X94622168Y-86182090D01*
X94603448Y-86195974D01*
X94583457Y-86207956D01*
X94562387Y-86217921D01*
X94540443Y-86225773D01*
X94517834Y-86231437D01*
X94494779Y-86234856D01*
X94471500Y-86236000D01*
X93996500Y-86236000D01*
X93973221Y-86234856D01*
X93950166Y-86231437D01*
X93927557Y-86225773D01*
X93905613Y-86217921D01*
X93884543Y-86207956D01*
X93864552Y-86195974D01*
X93845832Y-86182090D01*
X93828562Y-86166438D01*
X93812910Y-86149168D01*
X93799026Y-86130448D01*
X93787044Y-86110457D01*
X93777079Y-86089387D01*
X93769227Y-86067443D01*
X93763563Y-86044834D01*
X93760144Y-86021779D01*
X93759000Y-85998500D01*
X93759000Y-85423500D01*
X93760144Y-85400221D01*
X93763563Y-85377166D01*
X93769227Y-85354557D01*
X93777079Y-85332613D01*
X93787044Y-85311543D01*
X93799026Y-85291552D01*
X93812910Y-85272832D01*
X93828562Y-85255562D01*
X93845832Y-85239910D01*
X93864552Y-85226026D01*
X93884543Y-85214044D01*
X93905613Y-85204079D01*
X93927557Y-85196227D01*
X93950166Y-85190563D01*
X93973221Y-85187144D01*
X93996500Y-85186000D01*
X94471500Y-85186000D01*
X94494779Y-85187144D01*
X94494779Y-85187144D01*
G37*
D12*
X94234000Y-85711000D03*
D11*
G36*
X117517779Y-48802144D02*
X117540834Y-48805563D01*
X117563443Y-48811227D01*
X117585387Y-48819079D01*
X117606457Y-48829044D01*
X117626448Y-48841026D01*
X117645168Y-48854910D01*
X117662438Y-48870562D01*
X117678090Y-48887832D01*
X117691974Y-48906552D01*
X117703956Y-48926543D01*
X117713921Y-48947613D01*
X117721773Y-48969557D01*
X117727437Y-48992166D01*
X117730856Y-49015221D01*
X117732000Y-49038500D01*
X117732000Y-49513500D01*
X117730856Y-49536779D01*
X117727437Y-49559834D01*
X117721773Y-49582443D01*
X117713921Y-49604387D01*
X117703956Y-49625457D01*
X117691974Y-49645448D01*
X117678090Y-49664168D01*
X117662438Y-49681438D01*
X117645168Y-49697090D01*
X117626448Y-49710974D01*
X117606457Y-49722956D01*
X117585387Y-49732921D01*
X117563443Y-49740773D01*
X117540834Y-49746437D01*
X117517779Y-49749856D01*
X117494500Y-49751000D01*
X116919500Y-49751000D01*
X116896221Y-49749856D01*
X116873166Y-49746437D01*
X116850557Y-49740773D01*
X116828613Y-49732921D01*
X116807543Y-49722956D01*
X116787552Y-49710974D01*
X116768832Y-49697090D01*
X116751562Y-49681438D01*
X116735910Y-49664168D01*
X116722026Y-49645448D01*
X116710044Y-49625457D01*
X116700079Y-49604387D01*
X116692227Y-49582443D01*
X116686563Y-49559834D01*
X116683144Y-49536779D01*
X116682000Y-49513500D01*
X116682000Y-49038500D01*
X116683144Y-49015221D01*
X116686563Y-48992166D01*
X116692227Y-48969557D01*
X116700079Y-48947613D01*
X116710044Y-48926543D01*
X116722026Y-48906552D01*
X116735910Y-48887832D01*
X116751562Y-48870562D01*
X116768832Y-48854910D01*
X116787552Y-48841026D01*
X116807543Y-48829044D01*
X116828613Y-48819079D01*
X116850557Y-48811227D01*
X116873166Y-48805563D01*
X116896221Y-48802144D01*
X116919500Y-48801000D01*
X117494500Y-48801000D01*
X117517779Y-48802144D01*
X117517779Y-48802144D01*
G37*
D12*
X117207000Y-49276000D03*
D11*
G36*
X115767779Y-48802144D02*
X115790834Y-48805563D01*
X115813443Y-48811227D01*
X115835387Y-48819079D01*
X115856457Y-48829044D01*
X115876448Y-48841026D01*
X115895168Y-48854910D01*
X115912438Y-48870562D01*
X115928090Y-48887832D01*
X115941974Y-48906552D01*
X115953956Y-48926543D01*
X115963921Y-48947613D01*
X115971773Y-48969557D01*
X115977437Y-48992166D01*
X115980856Y-49015221D01*
X115982000Y-49038500D01*
X115982000Y-49513500D01*
X115980856Y-49536779D01*
X115977437Y-49559834D01*
X115971773Y-49582443D01*
X115963921Y-49604387D01*
X115953956Y-49625457D01*
X115941974Y-49645448D01*
X115928090Y-49664168D01*
X115912438Y-49681438D01*
X115895168Y-49697090D01*
X115876448Y-49710974D01*
X115856457Y-49722956D01*
X115835387Y-49732921D01*
X115813443Y-49740773D01*
X115790834Y-49746437D01*
X115767779Y-49749856D01*
X115744500Y-49751000D01*
X115169500Y-49751000D01*
X115146221Y-49749856D01*
X115123166Y-49746437D01*
X115100557Y-49740773D01*
X115078613Y-49732921D01*
X115057543Y-49722956D01*
X115037552Y-49710974D01*
X115018832Y-49697090D01*
X115001562Y-49681438D01*
X114985910Y-49664168D01*
X114972026Y-49645448D01*
X114960044Y-49625457D01*
X114950079Y-49604387D01*
X114942227Y-49582443D01*
X114936563Y-49559834D01*
X114933144Y-49536779D01*
X114932000Y-49513500D01*
X114932000Y-49038500D01*
X114933144Y-49015221D01*
X114936563Y-48992166D01*
X114942227Y-48969557D01*
X114950079Y-48947613D01*
X114960044Y-48926543D01*
X114972026Y-48906552D01*
X114985910Y-48887832D01*
X115001562Y-48870562D01*
X115018832Y-48854910D01*
X115037552Y-48841026D01*
X115057543Y-48829044D01*
X115078613Y-48819079D01*
X115100557Y-48811227D01*
X115123166Y-48805563D01*
X115146221Y-48802144D01*
X115169500Y-48801000D01*
X115744500Y-48801000D01*
X115767779Y-48802144D01*
X115767779Y-48802144D01*
G37*
D12*
X115457000Y-49276000D03*
D11*
G36*
X114469779Y-45500144D02*
X114492834Y-45503563D01*
X114515443Y-45509227D01*
X114537387Y-45517079D01*
X114558457Y-45527044D01*
X114578448Y-45539026D01*
X114597168Y-45552910D01*
X114614438Y-45568562D01*
X114630090Y-45585832D01*
X114643974Y-45604552D01*
X114655956Y-45624543D01*
X114665921Y-45645613D01*
X114673773Y-45667557D01*
X114679437Y-45690166D01*
X114682856Y-45713221D01*
X114684000Y-45736500D01*
X114684000Y-46211500D01*
X114682856Y-46234779D01*
X114679437Y-46257834D01*
X114673773Y-46280443D01*
X114665921Y-46302387D01*
X114655956Y-46323457D01*
X114643974Y-46343448D01*
X114630090Y-46362168D01*
X114614438Y-46379438D01*
X114597168Y-46395090D01*
X114578448Y-46408974D01*
X114558457Y-46420956D01*
X114537387Y-46430921D01*
X114515443Y-46438773D01*
X114492834Y-46444437D01*
X114469779Y-46447856D01*
X114446500Y-46449000D01*
X113871500Y-46449000D01*
X113848221Y-46447856D01*
X113825166Y-46444437D01*
X113802557Y-46438773D01*
X113780613Y-46430921D01*
X113759543Y-46420956D01*
X113739552Y-46408974D01*
X113720832Y-46395090D01*
X113703562Y-46379438D01*
X113687910Y-46362168D01*
X113674026Y-46343448D01*
X113662044Y-46323457D01*
X113652079Y-46302387D01*
X113644227Y-46280443D01*
X113638563Y-46257834D01*
X113635144Y-46234779D01*
X113634000Y-46211500D01*
X113634000Y-45736500D01*
X113635144Y-45713221D01*
X113638563Y-45690166D01*
X113644227Y-45667557D01*
X113652079Y-45645613D01*
X113662044Y-45624543D01*
X113674026Y-45604552D01*
X113687910Y-45585832D01*
X113703562Y-45568562D01*
X113720832Y-45552910D01*
X113739552Y-45539026D01*
X113759543Y-45527044D01*
X113780613Y-45517079D01*
X113802557Y-45509227D01*
X113825166Y-45503563D01*
X113848221Y-45500144D01*
X113871500Y-45499000D01*
X114446500Y-45499000D01*
X114469779Y-45500144D01*
X114469779Y-45500144D01*
G37*
D12*
X114159000Y-45974000D03*
D11*
G36*
X112719779Y-45500144D02*
X112742834Y-45503563D01*
X112765443Y-45509227D01*
X112787387Y-45517079D01*
X112808457Y-45527044D01*
X112828448Y-45539026D01*
X112847168Y-45552910D01*
X112864438Y-45568562D01*
X112880090Y-45585832D01*
X112893974Y-45604552D01*
X112905956Y-45624543D01*
X112915921Y-45645613D01*
X112923773Y-45667557D01*
X112929437Y-45690166D01*
X112932856Y-45713221D01*
X112934000Y-45736500D01*
X112934000Y-46211500D01*
X112932856Y-46234779D01*
X112929437Y-46257834D01*
X112923773Y-46280443D01*
X112915921Y-46302387D01*
X112905956Y-46323457D01*
X112893974Y-46343448D01*
X112880090Y-46362168D01*
X112864438Y-46379438D01*
X112847168Y-46395090D01*
X112828448Y-46408974D01*
X112808457Y-46420956D01*
X112787387Y-46430921D01*
X112765443Y-46438773D01*
X112742834Y-46444437D01*
X112719779Y-46447856D01*
X112696500Y-46449000D01*
X112121500Y-46449000D01*
X112098221Y-46447856D01*
X112075166Y-46444437D01*
X112052557Y-46438773D01*
X112030613Y-46430921D01*
X112009543Y-46420956D01*
X111989552Y-46408974D01*
X111970832Y-46395090D01*
X111953562Y-46379438D01*
X111937910Y-46362168D01*
X111924026Y-46343448D01*
X111912044Y-46323457D01*
X111902079Y-46302387D01*
X111894227Y-46280443D01*
X111888563Y-46257834D01*
X111885144Y-46234779D01*
X111884000Y-46211500D01*
X111884000Y-45736500D01*
X111885144Y-45713221D01*
X111888563Y-45690166D01*
X111894227Y-45667557D01*
X111902079Y-45645613D01*
X111912044Y-45624543D01*
X111924026Y-45604552D01*
X111937910Y-45585832D01*
X111953562Y-45568562D01*
X111970832Y-45552910D01*
X111989552Y-45539026D01*
X112009543Y-45527044D01*
X112030613Y-45517079D01*
X112052557Y-45509227D01*
X112075166Y-45503563D01*
X112098221Y-45500144D01*
X112121500Y-45499000D01*
X112696500Y-45499000D01*
X112719779Y-45500144D01*
X112719779Y-45500144D01*
G37*
D12*
X112409000Y-45974000D03*
D11*
G36*
X96780779Y-74265144D02*
X96803834Y-74268563D01*
X96826443Y-74274227D01*
X96848387Y-74282079D01*
X96869457Y-74292044D01*
X96889448Y-74304026D01*
X96908168Y-74317910D01*
X96925438Y-74333562D01*
X96941090Y-74350832D01*
X96954974Y-74369552D01*
X96966956Y-74389543D01*
X96976921Y-74410613D01*
X96984773Y-74432557D01*
X96990437Y-74455166D01*
X96993856Y-74478221D01*
X96995000Y-74501500D01*
X96995000Y-75076500D01*
X96993856Y-75099779D01*
X96990437Y-75122834D01*
X96984773Y-75145443D01*
X96976921Y-75167387D01*
X96966956Y-75188457D01*
X96954974Y-75208448D01*
X96941090Y-75227168D01*
X96925438Y-75244438D01*
X96908168Y-75260090D01*
X96889448Y-75273974D01*
X96869457Y-75285956D01*
X96848387Y-75295921D01*
X96826443Y-75303773D01*
X96803834Y-75309437D01*
X96780779Y-75312856D01*
X96757500Y-75314000D01*
X96282500Y-75314000D01*
X96259221Y-75312856D01*
X96236166Y-75309437D01*
X96213557Y-75303773D01*
X96191613Y-75295921D01*
X96170543Y-75285956D01*
X96150552Y-75273974D01*
X96131832Y-75260090D01*
X96114562Y-75244438D01*
X96098910Y-75227168D01*
X96085026Y-75208448D01*
X96073044Y-75188457D01*
X96063079Y-75167387D01*
X96055227Y-75145443D01*
X96049563Y-75122834D01*
X96046144Y-75099779D01*
X96045000Y-75076500D01*
X96045000Y-74501500D01*
X96046144Y-74478221D01*
X96049563Y-74455166D01*
X96055227Y-74432557D01*
X96063079Y-74410613D01*
X96073044Y-74389543D01*
X96085026Y-74369552D01*
X96098910Y-74350832D01*
X96114562Y-74333562D01*
X96131832Y-74317910D01*
X96150552Y-74304026D01*
X96170543Y-74292044D01*
X96191613Y-74282079D01*
X96213557Y-74274227D01*
X96236166Y-74268563D01*
X96259221Y-74265144D01*
X96282500Y-74264000D01*
X96757500Y-74264000D01*
X96780779Y-74265144D01*
X96780779Y-74265144D01*
G37*
D12*
X96520000Y-74789000D03*
D11*
G36*
X96780779Y-72515144D02*
X96803834Y-72518563D01*
X96826443Y-72524227D01*
X96848387Y-72532079D01*
X96869457Y-72542044D01*
X96889448Y-72554026D01*
X96908168Y-72567910D01*
X96925438Y-72583562D01*
X96941090Y-72600832D01*
X96954974Y-72619552D01*
X96966956Y-72639543D01*
X96976921Y-72660613D01*
X96984773Y-72682557D01*
X96990437Y-72705166D01*
X96993856Y-72728221D01*
X96995000Y-72751500D01*
X96995000Y-73326500D01*
X96993856Y-73349779D01*
X96990437Y-73372834D01*
X96984773Y-73395443D01*
X96976921Y-73417387D01*
X96966956Y-73438457D01*
X96954974Y-73458448D01*
X96941090Y-73477168D01*
X96925438Y-73494438D01*
X96908168Y-73510090D01*
X96889448Y-73523974D01*
X96869457Y-73535956D01*
X96848387Y-73545921D01*
X96826443Y-73553773D01*
X96803834Y-73559437D01*
X96780779Y-73562856D01*
X96757500Y-73564000D01*
X96282500Y-73564000D01*
X96259221Y-73562856D01*
X96236166Y-73559437D01*
X96213557Y-73553773D01*
X96191613Y-73545921D01*
X96170543Y-73535956D01*
X96150552Y-73523974D01*
X96131832Y-73510090D01*
X96114562Y-73494438D01*
X96098910Y-73477168D01*
X96085026Y-73458448D01*
X96073044Y-73438457D01*
X96063079Y-73417387D01*
X96055227Y-73395443D01*
X96049563Y-73372834D01*
X96046144Y-73349779D01*
X96045000Y-73326500D01*
X96045000Y-72751500D01*
X96046144Y-72728221D01*
X96049563Y-72705166D01*
X96055227Y-72682557D01*
X96063079Y-72660613D01*
X96073044Y-72639543D01*
X96085026Y-72619552D01*
X96098910Y-72600832D01*
X96114562Y-72583562D01*
X96131832Y-72567910D01*
X96150552Y-72554026D01*
X96170543Y-72542044D01*
X96191613Y-72532079D01*
X96213557Y-72524227D01*
X96236166Y-72518563D01*
X96259221Y-72515144D01*
X96282500Y-72514000D01*
X96757500Y-72514000D01*
X96780779Y-72515144D01*
X96780779Y-72515144D01*
G37*
D12*
X96520000Y-73039000D03*
D11*
G36*
X116846779Y-65657144D02*
X116869834Y-65660563D01*
X116892443Y-65666227D01*
X116914387Y-65674079D01*
X116935457Y-65684044D01*
X116955448Y-65696026D01*
X116974168Y-65709910D01*
X116991438Y-65725562D01*
X117007090Y-65742832D01*
X117020974Y-65761552D01*
X117032956Y-65781543D01*
X117042921Y-65802613D01*
X117050773Y-65824557D01*
X117056437Y-65847166D01*
X117059856Y-65870221D01*
X117061000Y-65893500D01*
X117061000Y-66468500D01*
X117059856Y-66491779D01*
X117056437Y-66514834D01*
X117050773Y-66537443D01*
X117042921Y-66559387D01*
X117032956Y-66580457D01*
X117020974Y-66600448D01*
X117007090Y-66619168D01*
X116991438Y-66636438D01*
X116974168Y-66652090D01*
X116955448Y-66665974D01*
X116935457Y-66677956D01*
X116914387Y-66687921D01*
X116892443Y-66695773D01*
X116869834Y-66701437D01*
X116846779Y-66704856D01*
X116823500Y-66706000D01*
X116348500Y-66706000D01*
X116325221Y-66704856D01*
X116302166Y-66701437D01*
X116279557Y-66695773D01*
X116257613Y-66687921D01*
X116236543Y-66677956D01*
X116216552Y-66665974D01*
X116197832Y-66652090D01*
X116180562Y-66636438D01*
X116164910Y-66619168D01*
X116151026Y-66600448D01*
X116139044Y-66580457D01*
X116129079Y-66559387D01*
X116121227Y-66537443D01*
X116115563Y-66514834D01*
X116112144Y-66491779D01*
X116111000Y-66468500D01*
X116111000Y-65893500D01*
X116112144Y-65870221D01*
X116115563Y-65847166D01*
X116121227Y-65824557D01*
X116129079Y-65802613D01*
X116139044Y-65781543D01*
X116151026Y-65761552D01*
X116164910Y-65742832D01*
X116180562Y-65725562D01*
X116197832Y-65709910D01*
X116216552Y-65696026D01*
X116236543Y-65684044D01*
X116257613Y-65674079D01*
X116279557Y-65666227D01*
X116302166Y-65660563D01*
X116325221Y-65657144D01*
X116348500Y-65656000D01*
X116823500Y-65656000D01*
X116846779Y-65657144D01*
X116846779Y-65657144D01*
G37*
D12*
X116586000Y-66181000D03*
D11*
G36*
X116846779Y-67407144D02*
X116869834Y-67410563D01*
X116892443Y-67416227D01*
X116914387Y-67424079D01*
X116935457Y-67434044D01*
X116955448Y-67446026D01*
X116974168Y-67459910D01*
X116991438Y-67475562D01*
X117007090Y-67492832D01*
X117020974Y-67511552D01*
X117032956Y-67531543D01*
X117042921Y-67552613D01*
X117050773Y-67574557D01*
X117056437Y-67597166D01*
X117059856Y-67620221D01*
X117061000Y-67643500D01*
X117061000Y-68218500D01*
X117059856Y-68241779D01*
X117056437Y-68264834D01*
X117050773Y-68287443D01*
X117042921Y-68309387D01*
X117032956Y-68330457D01*
X117020974Y-68350448D01*
X117007090Y-68369168D01*
X116991438Y-68386438D01*
X116974168Y-68402090D01*
X116955448Y-68415974D01*
X116935457Y-68427956D01*
X116914387Y-68437921D01*
X116892443Y-68445773D01*
X116869834Y-68451437D01*
X116846779Y-68454856D01*
X116823500Y-68456000D01*
X116348500Y-68456000D01*
X116325221Y-68454856D01*
X116302166Y-68451437D01*
X116279557Y-68445773D01*
X116257613Y-68437921D01*
X116236543Y-68427956D01*
X116216552Y-68415974D01*
X116197832Y-68402090D01*
X116180562Y-68386438D01*
X116164910Y-68369168D01*
X116151026Y-68350448D01*
X116139044Y-68330457D01*
X116129079Y-68309387D01*
X116121227Y-68287443D01*
X116115563Y-68264834D01*
X116112144Y-68241779D01*
X116111000Y-68218500D01*
X116111000Y-67643500D01*
X116112144Y-67620221D01*
X116115563Y-67597166D01*
X116121227Y-67574557D01*
X116129079Y-67552613D01*
X116139044Y-67531543D01*
X116151026Y-67511552D01*
X116164910Y-67492832D01*
X116180562Y-67475562D01*
X116197832Y-67459910D01*
X116216552Y-67446026D01*
X116236543Y-67434044D01*
X116257613Y-67424079D01*
X116279557Y-67416227D01*
X116302166Y-67410563D01*
X116325221Y-67407144D01*
X116348500Y-67406000D01*
X116823500Y-67406000D01*
X116846779Y-67407144D01*
X116846779Y-67407144D01*
G37*
D12*
X116586000Y-67931000D03*
D13*
X103886000Y-65868000D03*
X103886000Y-69768000D03*
X102616000Y-65868000D03*
X102616000Y-69768000D03*
X101346000Y-65868000D03*
X101346000Y-69768000D03*
X100076000Y-65868000D03*
X100076000Y-69768000D03*
X98806000Y-65868000D03*
X98806000Y-69768000D03*
D14*
X95758000Y-81060000D03*
X94808000Y-78960000D03*
X96708000Y-78960000D03*
D15*
X86580000Y-48260000D03*
X88680000Y-47310000D03*
X88680000Y-49210000D03*
X86580000Y-58166000D03*
X88680000Y-57216000D03*
X88680000Y-59116000D03*
X86580000Y-53340000D03*
X88680000Y-52390000D03*
X88680000Y-54290000D03*
X86580000Y-63246000D03*
X88680000Y-62296000D03*
X88680000Y-64196000D03*
D11*
G36*
X87319779Y-65820144D02*
X87342834Y-65823563D01*
X87365443Y-65829227D01*
X87387387Y-65837079D01*
X87408457Y-65847044D01*
X87428448Y-65859026D01*
X87447168Y-65872910D01*
X87464438Y-65888562D01*
X87480090Y-65905832D01*
X87493974Y-65924552D01*
X87505956Y-65944543D01*
X87515921Y-65965613D01*
X87523773Y-65987557D01*
X87529437Y-66010166D01*
X87532856Y-66033221D01*
X87534000Y-66056500D01*
X87534000Y-66531500D01*
X87532856Y-66554779D01*
X87529437Y-66577834D01*
X87523773Y-66600443D01*
X87515921Y-66622387D01*
X87505956Y-66643457D01*
X87493974Y-66663448D01*
X87480090Y-66682168D01*
X87464438Y-66699438D01*
X87447168Y-66715090D01*
X87428448Y-66728974D01*
X87408457Y-66740956D01*
X87387387Y-66750921D01*
X87365443Y-66758773D01*
X87342834Y-66764437D01*
X87319779Y-66767856D01*
X87296500Y-66769000D01*
X86721500Y-66769000D01*
X86698221Y-66767856D01*
X86675166Y-66764437D01*
X86652557Y-66758773D01*
X86630613Y-66750921D01*
X86609543Y-66740956D01*
X86589552Y-66728974D01*
X86570832Y-66715090D01*
X86553562Y-66699438D01*
X86537910Y-66682168D01*
X86524026Y-66663448D01*
X86512044Y-66643457D01*
X86502079Y-66622387D01*
X86494227Y-66600443D01*
X86488563Y-66577834D01*
X86485144Y-66554779D01*
X86484000Y-66531500D01*
X86484000Y-66056500D01*
X86485144Y-66033221D01*
X86488563Y-66010166D01*
X86494227Y-65987557D01*
X86502079Y-65965613D01*
X86512044Y-65944543D01*
X86524026Y-65924552D01*
X86537910Y-65905832D01*
X86553562Y-65888562D01*
X86570832Y-65872910D01*
X86589552Y-65859026D01*
X86609543Y-65847044D01*
X86630613Y-65837079D01*
X86652557Y-65829227D01*
X86675166Y-65823563D01*
X86698221Y-65820144D01*
X86721500Y-65819000D01*
X87296500Y-65819000D01*
X87319779Y-65820144D01*
X87319779Y-65820144D01*
G37*
D12*
X87009000Y-66294000D03*
D11*
G36*
X89069779Y-65820144D02*
X89092834Y-65823563D01*
X89115443Y-65829227D01*
X89137387Y-65837079D01*
X89158457Y-65847044D01*
X89178448Y-65859026D01*
X89197168Y-65872910D01*
X89214438Y-65888562D01*
X89230090Y-65905832D01*
X89243974Y-65924552D01*
X89255956Y-65944543D01*
X89265921Y-65965613D01*
X89273773Y-65987557D01*
X89279437Y-66010166D01*
X89282856Y-66033221D01*
X89284000Y-66056500D01*
X89284000Y-66531500D01*
X89282856Y-66554779D01*
X89279437Y-66577834D01*
X89273773Y-66600443D01*
X89265921Y-66622387D01*
X89255956Y-66643457D01*
X89243974Y-66663448D01*
X89230090Y-66682168D01*
X89214438Y-66699438D01*
X89197168Y-66715090D01*
X89178448Y-66728974D01*
X89158457Y-66740956D01*
X89137387Y-66750921D01*
X89115443Y-66758773D01*
X89092834Y-66764437D01*
X89069779Y-66767856D01*
X89046500Y-66769000D01*
X88471500Y-66769000D01*
X88448221Y-66767856D01*
X88425166Y-66764437D01*
X88402557Y-66758773D01*
X88380613Y-66750921D01*
X88359543Y-66740956D01*
X88339552Y-66728974D01*
X88320832Y-66715090D01*
X88303562Y-66699438D01*
X88287910Y-66682168D01*
X88274026Y-66663448D01*
X88262044Y-66643457D01*
X88252079Y-66622387D01*
X88244227Y-66600443D01*
X88238563Y-66577834D01*
X88235144Y-66554779D01*
X88234000Y-66531500D01*
X88234000Y-66056500D01*
X88235144Y-66033221D01*
X88238563Y-66010166D01*
X88244227Y-65987557D01*
X88252079Y-65965613D01*
X88262044Y-65944543D01*
X88274026Y-65924552D01*
X88287910Y-65905832D01*
X88303562Y-65888562D01*
X88320832Y-65872910D01*
X88339552Y-65859026D01*
X88359543Y-65847044D01*
X88380613Y-65837079D01*
X88402557Y-65829227D01*
X88425166Y-65823563D01*
X88448221Y-65820144D01*
X88471500Y-65819000D01*
X89046500Y-65819000D01*
X89069779Y-65820144D01*
X89069779Y-65820144D01*
G37*
D12*
X88759000Y-66294000D03*
D11*
G36*
X99574779Y-74773144D02*
X99597834Y-74776563D01*
X99620443Y-74782227D01*
X99642387Y-74790079D01*
X99663457Y-74800044D01*
X99683448Y-74812026D01*
X99702168Y-74825910D01*
X99719438Y-74841562D01*
X99735090Y-74858832D01*
X99748974Y-74877552D01*
X99760956Y-74897543D01*
X99770921Y-74918613D01*
X99778773Y-74940557D01*
X99784437Y-74963166D01*
X99787856Y-74986221D01*
X99789000Y-75009500D01*
X99789000Y-75584500D01*
X99787856Y-75607779D01*
X99784437Y-75630834D01*
X99778773Y-75653443D01*
X99770921Y-75675387D01*
X99760956Y-75696457D01*
X99748974Y-75716448D01*
X99735090Y-75735168D01*
X99719438Y-75752438D01*
X99702168Y-75768090D01*
X99683448Y-75781974D01*
X99663457Y-75793956D01*
X99642387Y-75803921D01*
X99620443Y-75811773D01*
X99597834Y-75817437D01*
X99574779Y-75820856D01*
X99551500Y-75822000D01*
X99076500Y-75822000D01*
X99053221Y-75820856D01*
X99030166Y-75817437D01*
X99007557Y-75811773D01*
X98985613Y-75803921D01*
X98964543Y-75793956D01*
X98944552Y-75781974D01*
X98925832Y-75768090D01*
X98908562Y-75752438D01*
X98892910Y-75735168D01*
X98879026Y-75716448D01*
X98867044Y-75696457D01*
X98857079Y-75675387D01*
X98849227Y-75653443D01*
X98843563Y-75630834D01*
X98840144Y-75607779D01*
X98839000Y-75584500D01*
X98839000Y-75009500D01*
X98840144Y-74986221D01*
X98843563Y-74963166D01*
X98849227Y-74940557D01*
X98857079Y-74918613D01*
X98867044Y-74897543D01*
X98879026Y-74877552D01*
X98892910Y-74858832D01*
X98908562Y-74841562D01*
X98925832Y-74825910D01*
X98944552Y-74812026D01*
X98964543Y-74800044D01*
X98985613Y-74790079D01*
X99007557Y-74782227D01*
X99030166Y-74776563D01*
X99053221Y-74773144D01*
X99076500Y-74772000D01*
X99551500Y-74772000D01*
X99574779Y-74773144D01*
X99574779Y-74773144D01*
G37*
D12*
X99314000Y-75297000D03*
D11*
G36*
X99574779Y-73023144D02*
X99597834Y-73026563D01*
X99620443Y-73032227D01*
X99642387Y-73040079D01*
X99663457Y-73050044D01*
X99683448Y-73062026D01*
X99702168Y-73075910D01*
X99719438Y-73091562D01*
X99735090Y-73108832D01*
X99748974Y-73127552D01*
X99760956Y-73147543D01*
X99770921Y-73168613D01*
X99778773Y-73190557D01*
X99784437Y-73213166D01*
X99787856Y-73236221D01*
X99789000Y-73259500D01*
X99789000Y-73834500D01*
X99787856Y-73857779D01*
X99784437Y-73880834D01*
X99778773Y-73903443D01*
X99770921Y-73925387D01*
X99760956Y-73946457D01*
X99748974Y-73966448D01*
X99735090Y-73985168D01*
X99719438Y-74002438D01*
X99702168Y-74018090D01*
X99683448Y-74031974D01*
X99663457Y-74043956D01*
X99642387Y-74053921D01*
X99620443Y-74061773D01*
X99597834Y-74067437D01*
X99574779Y-74070856D01*
X99551500Y-74072000D01*
X99076500Y-74072000D01*
X99053221Y-74070856D01*
X99030166Y-74067437D01*
X99007557Y-74061773D01*
X98985613Y-74053921D01*
X98964543Y-74043956D01*
X98944552Y-74031974D01*
X98925832Y-74018090D01*
X98908562Y-74002438D01*
X98892910Y-73985168D01*
X98879026Y-73966448D01*
X98867044Y-73946457D01*
X98857079Y-73925387D01*
X98849227Y-73903443D01*
X98843563Y-73880834D01*
X98840144Y-73857779D01*
X98839000Y-73834500D01*
X98839000Y-73259500D01*
X98840144Y-73236221D01*
X98843563Y-73213166D01*
X98849227Y-73190557D01*
X98857079Y-73168613D01*
X98867044Y-73147543D01*
X98879026Y-73127552D01*
X98892910Y-73108832D01*
X98908562Y-73091562D01*
X98925832Y-73075910D01*
X98944552Y-73062026D01*
X98964543Y-73050044D01*
X98985613Y-73040079D01*
X99007557Y-73032227D01*
X99030166Y-73026563D01*
X99053221Y-73023144D01*
X99076500Y-73022000D01*
X99551500Y-73022000D01*
X99574779Y-73023144D01*
X99574779Y-73023144D01*
G37*
D12*
X99314000Y-73547000D03*
D11*
G36*
X92970779Y-46861144D02*
X92993834Y-46864563D01*
X93016443Y-46870227D01*
X93038387Y-46878079D01*
X93059457Y-46888044D01*
X93079448Y-46900026D01*
X93098168Y-46913910D01*
X93115438Y-46929562D01*
X93131090Y-46946832D01*
X93144974Y-46965552D01*
X93156956Y-46985543D01*
X93166921Y-47006613D01*
X93174773Y-47028557D01*
X93180437Y-47051166D01*
X93183856Y-47074221D01*
X93185000Y-47097500D01*
X93185000Y-47672500D01*
X93183856Y-47695779D01*
X93180437Y-47718834D01*
X93174773Y-47741443D01*
X93166921Y-47763387D01*
X93156956Y-47784457D01*
X93144974Y-47804448D01*
X93131090Y-47823168D01*
X93115438Y-47840438D01*
X93098168Y-47856090D01*
X93079448Y-47869974D01*
X93059457Y-47881956D01*
X93038387Y-47891921D01*
X93016443Y-47899773D01*
X92993834Y-47905437D01*
X92970779Y-47908856D01*
X92947500Y-47910000D01*
X92472500Y-47910000D01*
X92449221Y-47908856D01*
X92426166Y-47905437D01*
X92403557Y-47899773D01*
X92381613Y-47891921D01*
X92360543Y-47881956D01*
X92340552Y-47869974D01*
X92321832Y-47856090D01*
X92304562Y-47840438D01*
X92288910Y-47823168D01*
X92275026Y-47804448D01*
X92263044Y-47784457D01*
X92253079Y-47763387D01*
X92245227Y-47741443D01*
X92239563Y-47718834D01*
X92236144Y-47695779D01*
X92235000Y-47672500D01*
X92235000Y-47097500D01*
X92236144Y-47074221D01*
X92239563Y-47051166D01*
X92245227Y-47028557D01*
X92253079Y-47006613D01*
X92263044Y-46985543D01*
X92275026Y-46965552D01*
X92288910Y-46946832D01*
X92304562Y-46929562D01*
X92321832Y-46913910D01*
X92340552Y-46900026D01*
X92360543Y-46888044D01*
X92381613Y-46878079D01*
X92403557Y-46870227D01*
X92426166Y-46864563D01*
X92449221Y-46861144D01*
X92472500Y-46860000D01*
X92947500Y-46860000D01*
X92970779Y-46861144D01*
X92970779Y-46861144D01*
G37*
D12*
X92710000Y-47385000D03*
D11*
G36*
X92970779Y-48611144D02*
X92993834Y-48614563D01*
X93016443Y-48620227D01*
X93038387Y-48628079D01*
X93059457Y-48638044D01*
X93079448Y-48650026D01*
X93098168Y-48663910D01*
X93115438Y-48679562D01*
X93131090Y-48696832D01*
X93144974Y-48715552D01*
X93156956Y-48735543D01*
X93166921Y-48756613D01*
X93174773Y-48778557D01*
X93180437Y-48801166D01*
X93183856Y-48824221D01*
X93185000Y-48847500D01*
X93185000Y-49422500D01*
X93183856Y-49445779D01*
X93180437Y-49468834D01*
X93174773Y-49491443D01*
X93166921Y-49513387D01*
X93156956Y-49534457D01*
X93144974Y-49554448D01*
X93131090Y-49573168D01*
X93115438Y-49590438D01*
X93098168Y-49606090D01*
X93079448Y-49619974D01*
X93059457Y-49631956D01*
X93038387Y-49641921D01*
X93016443Y-49649773D01*
X92993834Y-49655437D01*
X92970779Y-49658856D01*
X92947500Y-49660000D01*
X92472500Y-49660000D01*
X92449221Y-49658856D01*
X92426166Y-49655437D01*
X92403557Y-49649773D01*
X92381613Y-49641921D01*
X92360543Y-49631956D01*
X92340552Y-49619974D01*
X92321832Y-49606090D01*
X92304562Y-49590438D01*
X92288910Y-49573168D01*
X92275026Y-49554448D01*
X92263044Y-49534457D01*
X92253079Y-49513387D01*
X92245227Y-49491443D01*
X92239563Y-49468834D01*
X92236144Y-49445779D01*
X92235000Y-49422500D01*
X92235000Y-48847500D01*
X92236144Y-48824221D01*
X92239563Y-48801166D01*
X92245227Y-48778557D01*
X92253079Y-48756613D01*
X92263044Y-48735543D01*
X92275026Y-48715552D01*
X92288910Y-48696832D01*
X92304562Y-48679562D01*
X92321832Y-48663910D01*
X92340552Y-48650026D01*
X92360543Y-48638044D01*
X92381613Y-48628079D01*
X92403557Y-48620227D01*
X92426166Y-48614563D01*
X92449221Y-48611144D01*
X92472500Y-48610000D01*
X92947500Y-48610000D01*
X92970779Y-48611144D01*
X92970779Y-48611144D01*
G37*
D12*
X92710000Y-49135000D03*
D11*
G36*
X92970779Y-56767144D02*
X92993834Y-56770563D01*
X93016443Y-56776227D01*
X93038387Y-56784079D01*
X93059457Y-56794044D01*
X93079448Y-56806026D01*
X93098168Y-56819910D01*
X93115438Y-56835562D01*
X93131090Y-56852832D01*
X93144974Y-56871552D01*
X93156956Y-56891543D01*
X93166921Y-56912613D01*
X93174773Y-56934557D01*
X93180437Y-56957166D01*
X93183856Y-56980221D01*
X93185000Y-57003500D01*
X93185000Y-57578500D01*
X93183856Y-57601779D01*
X93180437Y-57624834D01*
X93174773Y-57647443D01*
X93166921Y-57669387D01*
X93156956Y-57690457D01*
X93144974Y-57710448D01*
X93131090Y-57729168D01*
X93115438Y-57746438D01*
X93098168Y-57762090D01*
X93079448Y-57775974D01*
X93059457Y-57787956D01*
X93038387Y-57797921D01*
X93016443Y-57805773D01*
X92993834Y-57811437D01*
X92970779Y-57814856D01*
X92947500Y-57816000D01*
X92472500Y-57816000D01*
X92449221Y-57814856D01*
X92426166Y-57811437D01*
X92403557Y-57805773D01*
X92381613Y-57797921D01*
X92360543Y-57787956D01*
X92340552Y-57775974D01*
X92321832Y-57762090D01*
X92304562Y-57746438D01*
X92288910Y-57729168D01*
X92275026Y-57710448D01*
X92263044Y-57690457D01*
X92253079Y-57669387D01*
X92245227Y-57647443D01*
X92239563Y-57624834D01*
X92236144Y-57601779D01*
X92235000Y-57578500D01*
X92235000Y-57003500D01*
X92236144Y-56980221D01*
X92239563Y-56957166D01*
X92245227Y-56934557D01*
X92253079Y-56912613D01*
X92263044Y-56891543D01*
X92275026Y-56871552D01*
X92288910Y-56852832D01*
X92304562Y-56835562D01*
X92321832Y-56819910D01*
X92340552Y-56806026D01*
X92360543Y-56794044D01*
X92381613Y-56784079D01*
X92403557Y-56776227D01*
X92426166Y-56770563D01*
X92449221Y-56767144D01*
X92472500Y-56766000D01*
X92947500Y-56766000D01*
X92970779Y-56767144D01*
X92970779Y-56767144D01*
G37*
D12*
X92710000Y-57291000D03*
D11*
G36*
X92970779Y-58517144D02*
X92993834Y-58520563D01*
X93016443Y-58526227D01*
X93038387Y-58534079D01*
X93059457Y-58544044D01*
X93079448Y-58556026D01*
X93098168Y-58569910D01*
X93115438Y-58585562D01*
X93131090Y-58602832D01*
X93144974Y-58621552D01*
X93156956Y-58641543D01*
X93166921Y-58662613D01*
X93174773Y-58684557D01*
X93180437Y-58707166D01*
X93183856Y-58730221D01*
X93185000Y-58753500D01*
X93185000Y-59328500D01*
X93183856Y-59351779D01*
X93180437Y-59374834D01*
X93174773Y-59397443D01*
X93166921Y-59419387D01*
X93156956Y-59440457D01*
X93144974Y-59460448D01*
X93131090Y-59479168D01*
X93115438Y-59496438D01*
X93098168Y-59512090D01*
X93079448Y-59525974D01*
X93059457Y-59537956D01*
X93038387Y-59547921D01*
X93016443Y-59555773D01*
X92993834Y-59561437D01*
X92970779Y-59564856D01*
X92947500Y-59566000D01*
X92472500Y-59566000D01*
X92449221Y-59564856D01*
X92426166Y-59561437D01*
X92403557Y-59555773D01*
X92381613Y-59547921D01*
X92360543Y-59537956D01*
X92340552Y-59525974D01*
X92321832Y-59512090D01*
X92304562Y-59496438D01*
X92288910Y-59479168D01*
X92275026Y-59460448D01*
X92263044Y-59440457D01*
X92253079Y-59419387D01*
X92245227Y-59397443D01*
X92239563Y-59374834D01*
X92236144Y-59351779D01*
X92235000Y-59328500D01*
X92235000Y-58753500D01*
X92236144Y-58730221D01*
X92239563Y-58707166D01*
X92245227Y-58684557D01*
X92253079Y-58662613D01*
X92263044Y-58641543D01*
X92275026Y-58621552D01*
X92288910Y-58602832D01*
X92304562Y-58585562D01*
X92321832Y-58569910D01*
X92340552Y-58556026D01*
X92360543Y-58544044D01*
X92381613Y-58534079D01*
X92403557Y-58526227D01*
X92426166Y-58520563D01*
X92449221Y-58517144D01*
X92472500Y-58516000D01*
X92947500Y-58516000D01*
X92970779Y-58517144D01*
X92970779Y-58517144D01*
G37*
D12*
X92710000Y-59041000D03*
D11*
G36*
X92970779Y-51941144D02*
X92993834Y-51944563D01*
X93016443Y-51950227D01*
X93038387Y-51958079D01*
X93059457Y-51968044D01*
X93079448Y-51980026D01*
X93098168Y-51993910D01*
X93115438Y-52009562D01*
X93131090Y-52026832D01*
X93144974Y-52045552D01*
X93156956Y-52065543D01*
X93166921Y-52086613D01*
X93174773Y-52108557D01*
X93180437Y-52131166D01*
X93183856Y-52154221D01*
X93185000Y-52177500D01*
X93185000Y-52752500D01*
X93183856Y-52775779D01*
X93180437Y-52798834D01*
X93174773Y-52821443D01*
X93166921Y-52843387D01*
X93156956Y-52864457D01*
X93144974Y-52884448D01*
X93131090Y-52903168D01*
X93115438Y-52920438D01*
X93098168Y-52936090D01*
X93079448Y-52949974D01*
X93059457Y-52961956D01*
X93038387Y-52971921D01*
X93016443Y-52979773D01*
X92993834Y-52985437D01*
X92970779Y-52988856D01*
X92947500Y-52990000D01*
X92472500Y-52990000D01*
X92449221Y-52988856D01*
X92426166Y-52985437D01*
X92403557Y-52979773D01*
X92381613Y-52971921D01*
X92360543Y-52961956D01*
X92340552Y-52949974D01*
X92321832Y-52936090D01*
X92304562Y-52920438D01*
X92288910Y-52903168D01*
X92275026Y-52884448D01*
X92263044Y-52864457D01*
X92253079Y-52843387D01*
X92245227Y-52821443D01*
X92239563Y-52798834D01*
X92236144Y-52775779D01*
X92235000Y-52752500D01*
X92235000Y-52177500D01*
X92236144Y-52154221D01*
X92239563Y-52131166D01*
X92245227Y-52108557D01*
X92253079Y-52086613D01*
X92263044Y-52065543D01*
X92275026Y-52045552D01*
X92288910Y-52026832D01*
X92304562Y-52009562D01*
X92321832Y-51993910D01*
X92340552Y-51980026D01*
X92360543Y-51968044D01*
X92381613Y-51958079D01*
X92403557Y-51950227D01*
X92426166Y-51944563D01*
X92449221Y-51941144D01*
X92472500Y-51940000D01*
X92947500Y-51940000D01*
X92970779Y-51941144D01*
X92970779Y-51941144D01*
G37*
D12*
X92710000Y-52465000D03*
D11*
G36*
X92970779Y-53691144D02*
X92993834Y-53694563D01*
X93016443Y-53700227D01*
X93038387Y-53708079D01*
X93059457Y-53718044D01*
X93079448Y-53730026D01*
X93098168Y-53743910D01*
X93115438Y-53759562D01*
X93131090Y-53776832D01*
X93144974Y-53795552D01*
X93156956Y-53815543D01*
X93166921Y-53836613D01*
X93174773Y-53858557D01*
X93180437Y-53881166D01*
X93183856Y-53904221D01*
X93185000Y-53927500D01*
X93185000Y-54502500D01*
X93183856Y-54525779D01*
X93180437Y-54548834D01*
X93174773Y-54571443D01*
X93166921Y-54593387D01*
X93156956Y-54614457D01*
X93144974Y-54634448D01*
X93131090Y-54653168D01*
X93115438Y-54670438D01*
X93098168Y-54686090D01*
X93079448Y-54699974D01*
X93059457Y-54711956D01*
X93038387Y-54721921D01*
X93016443Y-54729773D01*
X92993834Y-54735437D01*
X92970779Y-54738856D01*
X92947500Y-54740000D01*
X92472500Y-54740000D01*
X92449221Y-54738856D01*
X92426166Y-54735437D01*
X92403557Y-54729773D01*
X92381613Y-54721921D01*
X92360543Y-54711956D01*
X92340552Y-54699974D01*
X92321832Y-54686090D01*
X92304562Y-54670438D01*
X92288910Y-54653168D01*
X92275026Y-54634448D01*
X92263044Y-54614457D01*
X92253079Y-54593387D01*
X92245227Y-54571443D01*
X92239563Y-54548834D01*
X92236144Y-54525779D01*
X92235000Y-54502500D01*
X92235000Y-53927500D01*
X92236144Y-53904221D01*
X92239563Y-53881166D01*
X92245227Y-53858557D01*
X92253079Y-53836613D01*
X92263044Y-53815543D01*
X92275026Y-53795552D01*
X92288910Y-53776832D01*
X92304562Y-53759562D01*
X92321832Y-53743910D01*
X92340552Y-53730026D01*
X92360543Y-53718044D01*
X92381613Y-53708079D01*
X92403557Y-53700227D01*
X92426166Y-53694563D01*
X92449221Y-53691144D01*
X92472500Y-53690000D01*
X92947500Y-53690000D01*
X92970779Y-53691144D01*
X92970779Y-53691144D01*
G37*
D12*
X92710000Y-54215000D03*
D11*
G36*
X92970779Y-61847144D02*
X92993834Y-61850563D01*
X93016443Y-61856227D01*
X93038387Y-61864079D01*
X93059457Y-61874044D01*
X93079448Y-61886026D01*
X93098168Y-61899910D01*
X93115438Y-61915562D01*
X93131090Y-61932832D01*
X93144974Y-61951552D01*
X93156956Y-61971543D01*
X93166921Y-61992613D01*
X93174773Y-62014557D01*
X93180437Y-62037166D01*
X93183856Y-62060221D01*
X93185000Y-62083500D01*
X93185000Y-62658500D01*
X93183856Y-62681779D01*
X93180437Y-62704834D01*
X93174773Y-62727443D01*
X93166921Y-62749387D01*
X93156956Y-62770457D01*
X93144974Y-62790448D01*
X93131090Y-62809168D01*
X93115438Y-62826438D01*
X93098168Y-62842090D01*
X93079448Y-62855974D01*
X93059457Y-62867956D01*
X93038387Y-62877921D01*
X93016443Y-62885773D01*
X92993834Y-62891437D01*
X92970779Y-62894856D01*
X92947500Y-62896000D01*
X92472500Y-62896000D01*
X92449221Y-62894856D01*
X92426166Y-62891437D01*
X92403557Y-62885773D01*
X92381613Y-62877921D01*
X92360543Y-62867956D01*
X92340552Y-62855974D01*
X92321832Y-62842090D01*
X92304562Y-62826438D01*
X92288910Y-62809168D01*
X92275026Y-62790448D01*
X92263044Y-62770457D01*
X92253079Y-62749387D01*
X92245227Y-62727443D01*
X92239563Y-62704834D01*
X92236144Y-62681779D01*
X92235000Y-62658500D01*
X92235000Y-62083500D01*
X92236144Y-62060221D01*
X92239563Y-62037166D01*
X92245227Y-62014557D01*
X92253079Y-61992613D01*
X92263044Y-61971543D01*
X92275026Y-61951552D01*
X92288910Y-61932832D01*
X92304562Y-61915562D01*
X92321832Y-61899910D01*
X92340552Y-61886026D01*
X92360543Y-61874044D01*
X92381613Y-61864079D01*
X92403557Y-61856227D01*
X92426166Y-61850563D01*
X92449221Y-61847144D01*
X92472500Y-61846000D01*
X92947500Y-61846000D01*
X92970779Y-61847144D01*
X92970779Y-61847144D01*
G37*
D12*
X92710000Y-62371000D03*
D11*
G36*
X92970779Y-63597144D02*
X92993834Y-63600563D01*
X93016443Y-63606227D01*
X93038387Y-63614079D01*
X93059457Y-63624044D01*
X93079448Y-63636026D01*
X93098168Y-63649910D01*
X93115438Y-63665562D01*
X93131090Y-63682832D01*
X93144974Y-63701552D01*
X93156956Y-63721543D01*
X93166921Y-63742613D01*
X93174773Y-63764557D01*
X93180437Y-63787166D01*
X93183856Y-63810221D01*
X93185000Y-63833500D01*
X93185000Y-64408500D01*
X93183856Y-64431779D01*
X93180437Y-64454834D01*
X93174773Y-64477443D01*
X93166921Y-64499387D01*
X93156956Y-64520457D01*
X93144974Y-64540448D01*
X93131090Y-64559168D01*
X93115438Y-64576438D01*
X93098168Y-64592090D01*
X93079448Y-64605974D01*
X93059457Y-64617956D01*
X93038387Y-64627921D01*
X93016443Y-64635773D01*
X92993834Y-64641437D01*
X92970779Y-64644856D01*
X92947500Y-64646000D01*
X92472500Y-64646000D01*
X92449221Y-64644856D01*
X92426166Y-64641437D01*
X92403557Y-64635773D01*
X92381613Y-64627921D01*
X92360543Y-64617956D01*
X92340552Y-64605974D01*
X92321832Y-64592090D01*
X92304562Y-64576438D01*
X92288910Y-64559168D01*
X92275026Y-64540448D01*
X92263044Y-64520457D01*
X92253079Y-64499387D01*
X92245227Y-64477443D01*
X92239563Y-64454834D01*
X92236144Y-64431779D01*
X92235000Y-64408500D01*
X92235000Y-63833500D01*
X92236144Y-63810221D01*
X92239563Y-63787166D01*
X92245227Y-63764557D01*
X92253079Y-63742613D01*
X92263044Y-63721543D01*
X92275026Y-63701552D01*
X92288910Y-63682832D01*
X92304562Y-63665562D01*
X92321832Y-63649910D01*
X92340552Y-63636026D01*
X92360543Y-63624044D01*
X92381613Y-63614079D01*
X92403557Y-63606227D01*
X92426166Y-63600563D01*
X92449221Y-63597144D01*
X92472500Y-63596000D01*
X92947500Y-63596000D01*
X92970779Y-63597144D01*
X92970779Y-63597144D01*
G37*
D12*
X92710000Y-64121000D03*
D11*
G36*
X107448779Y-65657144D02*
X107471834Y-65660563D01*
X107494443Y-65666227D01*
X107516387Y-65674079D01*
X107537457Y-65684044D01*
X107557448Y-65696026D01*
X107576168Y-65709910D01*
X107593438Y-65725562D01*
X107609090Y-65742832D01*
X107622974Y-65761552D01*
X107634956Y-65781543D01*
X107644921Y-65802613D01*
X107652773Y-65824557D01*
X107658437Y-65847166D01*
X107661856Y-65870221D01*
X107663000Y-65893500D01*
X107663000Y-66468500D01*
X107661856Y-66491779D01*
X107658437Y-66514834D01*
X107652773Y-66537443D01*
X107644921Y-66559387D01*
X107634956Y-66580457D01*
X107622974Y-66600448D01*
X107609090Y-66619168D01*
X107593438Y-66636438D01*
X107576168Y-66652090D01*
X107557448Y-66665974D01*
X107537457Y-66677956D01*
X107516387Y-66687921D01*
X107494443Y-66695773D01*
X107471834Y-66701437D01*
X107448779Y-66704856D01*
X107425500Y-66706000D01*
X106950500Y-66706000D01*
X106927221Y-66704856D01*
X106904166Y-66701437D01*
X106881557Y-66695773D01*
X106859613Y-66687921D01*
X106838543Y-66677956D01*
X106818552Y-66665974D01*
X106799832Y-66652090D01*
X106782562Y-66636438D01*
X106766910Y-66619168D01*
X106753026Y-66600448D01*
X106741044Y-66580457D01*
X106731079Y-66559387D01*
X106723227Y-66537443D01*
X106717563Y-66514834D01*
X106714144Y-66491779D01*
X106713000Y-66468500D01*
X106713000Y-65893500D01*
X106714144Y-65870221D01*
X106717563Y-65847166D01*
X106723227Y-65824557D01*
X106731079Y-65802613D01*
X106741044Y-65781543D01*
X106753026Y-65761552D01*
X106766910Y-65742832D01*
X106782562Y-65725562D01*
X106799832Y-65709910D01*
X106818552Y-65696026D01*
X106838543Y-65684044D01*
X106859613Y-65674079D01*
X106881557Y-65666227D01*
X106904166Y-65660563D01*
X106927221Y-65657144D01*
X106950500Y-65656000D01*
X107425500Y-65656000D01*
X107448779Y-65657144D01*
X107448779Y-65657144D01*
G37*
D12*
X107188000Y-66181000D03*
D11*
G36*
X107448779Y-67407144D02*
X107471834Y-67410563D01*
X107494443Y-67416227D01*
X107516387Y-67424079D01*
X107537457Y-67434044D01*
X107557448Y-67446026D01*
X107576168Y-67459910D01*
X107593438Y-67475562D01*
X107609090Y-67492832D01*
X107622974Y-67511552D01*
X107634956Y-67531543D01*
X107644921Y-67552613D01*
X107652773Y-67574557D01*
X107658437Y-67597166D01*
X107661856Y-67620221D01*
X107663000Y-67643500D01*
X107663000Y-68218500D01*
X107661856Y-68241779D01*
X107658437Y-68264834D01*
X107652773Y-68287443D01*
X107644921Y-68309387D01*
X107634956Y-68330457D01*
X107622974Y-68350448D01*
X107609090Y-68369168D01*
X107593438Y-68386438D01*
X107576168Y-68402090D01*
X107557448Y-68415974D01*
X107537457Y-68427956D01*
X107516387Y-68437921D01*
X107494443Y-68445773D01*
X107471834Y-68451437D01*
X107448779Y-68454856D01*
X107425500Y-68456000D01*
X106950500Y-68456000D01*
X106927221Y-68454856D01*
X106904166Y-68451437D01*
X106881557Y-68445773D01*
X106859613Y-68437921D01*
X106838543Y-68427956D01*
X106818552Y-68415974D01*
X106799832Y-68402090D01*
X106782562Y-68386438D01*
X106766910Y-68369168D01*
X106753026Y-68350448D01*
X106741044Y-68330457D01*
X106731079Y-68309387D01*
X106723227Y-68287443D01*
X106717563Y-68264834D01*
X106714144Y-68241779D01*
X106713000Y-68218500D01*
X106713000Y-67643500D01*
X106714144Y-67620221D01*
X106717563Y-67597166D01*
X106723227Y-67574557D01*
X106731079Y-67552613D01*
X106741044Y-67531543D01*
X106753026Y-67511552D01*
X106766910Y-67492832D01*
X106782562Y-67475562D01*
X106799832Y-67459910D01*
X106818552Y-67446026D01*
X106838543Y-67434044D01*
X106859613Y-67424079D01*
X106881557Y-67416227D01*
X106904166Y-67410563D01*
X106927221Y-67407144D01*
X106950500Y-67406000D01*
X107425500Y-67406000D01*
X107448779Y-67407144D01*
X107448779Y-67407144D01*
G37*
D12*
X107188000Y-67931000D03*
D16*
X86449000Y-70902000D03*
X94399000Y-70902000D03*
X86449000Y-75402000D03*
X94399000Y-75402000D03*
D17*
X106620458Y-57265371D03*
D11*
G36*
X106072450Y-56894140D02*
X106249227Y-56717363D01*
X107168466Y-57636602D01*
X106991689Y-57813379D01*
X106072450Y-56894140D01*
X106072450Y-56894140D01*
G37*
D17*
X106266905Y-57618924D03*
D11*
G36*
X105718897Y-57247693D02*
X105895674Y-57070916D01*
X106814913Y-57990155D01*
X106638136Y-58166932D01*
X105718897Y-57247693D01*
X105718897Y-57247693D01*
G37*
D17*
X105913351Y-57972478D03*
D11*
G36*
X105365343Y-57601247D02*
X105542120Y-57424470D01*
X106461359Y-58343709D01*
X106284582Y-58520486D01*
X105365343Y-57601247D01*
X105365343Y-57601247D01*
G37*
D17*
X105559798Y-58326031D03*
D11*
G36*
X105011790Y-57954800D02*
X105188567Y-57778023D01*
X106107806Y-58697262D01*
X105931029Y-58874039D01*
X105011790Y-57954800D01*
X105011790Y-57954800D01*
G37*
D17*
X105206245Y-58679584D03*
D11*
G36*
X104658237Y-58308353D02*
X104835014Y-58131576D01*
X105754253Y-59050815D01*
X105577476Y-59227592D01*
X104658237Y-58308353D01*
X104658237Y-58308353D01*
G37*
D17*
X104852691Y-59033138D03*
D11*
G36*
X104304683Y-58661907D02*
X104481460Y-58485130D01*
X105400699Y-59404369D01*
X105223922Y-59581146D01*
X104304683Y-58661907D01*
X104304683Y-58661907D01*
G37*
D17*
X104499138Y-59386691D03*
D11*
G36*
X103951130Y-59015460D02*
X104127907Y-58838683D01*
X105047146Y-59757922D01*
X104870369Y-59934699D01*
X103951130Y-59015460D01*
X103951130Y-59015460D01*
G37*
D17*
X104145584Y-59740245D03*
D11*
G36*
X103597576Y-59369014D02*
X103774353Y-59192237D01*
X104693592Y-60111476D01*
X104516815Y-60288253D01*
X103597576Y-59369014D01*
X103597576Y-59369014D01*
G37*
D17*
X103792031Y-60093798D03*
D11*
G36*
X103244023Y-59722567D02*
X103420800Y-59545790D01*
X104340039Y-60465029D01*
X104163262Y-60641806D01*
X103244023Y-59722567D01*
X103244023Y-59722567D01*
G37*
D17*
X103438478Y-60447351D03*
D11*
G36*
X102890470Y-60076120D02*
X103067247Y-59899343D01*
X103986486Y-60818582D01*
X103809709Y-60995359D01*
X102890470Y-60076120D01*
X102890470Y-60076120D01*
G37*
D17*
X103084924Y-60800905D03*
D11*
G36*
X102536916Y-60429674D02*
X102713693Y-60252897D01*
X103632932Y-61172136D01*
X103456155Y-61348913D01*
X102536916Y-60429674D01*
X102536916Y-60429674D01*
G37*
D17*
X102731371Y-61154458D03*
D11*
G36*
X102183363Y-60783227D02*
X102360140Y-60606450D01*
X103279379Y-61525689D01*
X103102602Y-61702466D01*
X102183363Y-60783227D01*
X102183363Y-60783227D01*
G37*
D17*
X100468629Y-61154458D03*
D11*
G36*
X100839860Y-60606450D02*
X101016637Y-60783227D01*
X100097398Y-61702466D01*
X99920621Y-61525689D01*
X100839860Y-60606450D01*
X100839860Y-60606450D01*
G37*
D17*
X100115076Y-60800905D03*
D11*
G36*
X100486307Y-60252897D02*
X100663084Y-60429674D01*
X99743845Y-61348913D01*
X99567068Y-61172136D01*
X100486307Y-60252897D01*
X100486307Y-60252897D01*
G37*
D17*
X99761522Y-60447351D03*
D11*
G36*
X100132753Y-59899343D02*
X100309530Y-60076120D01*
X99390291Y-60995359D01*
X99213514Y-60818582D01*
X100132753Y-59899343D01*
X100132753Y-59899343D01*
G37*
D17*
X99407969Y-60093798D03*
D11*
G36*
X99779200Y-59545790D02*
X99955977Y-59722567D01*
X99036738Y-60641806D01*
X98859961Y-60465029D01*
X99779200Y-59545790D01*
X99779200Y-59545790D01*
G37*
D17*
X99054416Y-59740245D03*
D11*
G36*
X99425647Y-59192237D02*
X99602424Y-59369014D01*
X98683185Y-60288253D01*
X98506408Y-60111476D01*
X99425647Y-59192237D01*
X99425647Y-59192237D01*
G37*
D17*
X98700862Y-59386691D03*
D11*
G36*
X99072093Y-58838683D02*
X99248870Y-59015460D01*
X98329631Y-59934699D01*
X98152854Y-59757922D01*
X99072093Y-58838683D01*
X99072093Y-58838683D01*
G37*
D17*
X98347309Y-59033138D03*
D11*
G36*
X98718540Y-58485130D02*
X98895317Y-58661907D01*
X97976078Y-59581146D01*
X97799301Y-59404369D01*
X98718540Y-58485130D01*
X98718540Y-58485130D01*
G37*
D17*
X97993755Y-58679584D03*
D11*
G36*
X98364986Y-58131576D02*
X98541763Y-58308353D01*
X97622524Y-59227592D01*
X97445747Y-59050815D01*
X98364986Y-58131576D01*
X98364986Y-58131576D01*
G37*
D17*
X97640202Y-58326031D03*
D11*
G36*
X98011433Y-57778023D02*
X98188210Y-57954800D01*
X97268971Y-58874039D01*
X97092194Y-58697262D01*
X98011433Y-57778023D01*
X98011433Y-57778023D01*
G37*
D17*
X97286649Y-57972478D03*
D11*
G36*
X97657880Y-57424470D02*
X97834657Y-57601247D01*
X96915418Y-58520486D01*
X96738641Y-58343709D01*
X97657880Y-57424470D01*
X97657880Y-57424470D01*
G37*
D17*
X96933095Y-57618924D03*
D11*
G36*
X97304326Y-57070916D02*
X97481103Y-57247693D01*
X96561864Y-58166932D01*
X96385087Y-57990155D01*
X97304326Y-57070916D01*
X97304326Y-57070916D01*
G37*
D17*
X96579542Y-57265371D03*
D11*
G36*
X96950773Y-56717363D02*
X97127550Y-56894140D01*
X96208311Y-57813379D01*
X96031534Y-57636602D01*
X96950773Y-56717363D01*
X96950773Y-56717363D01*
G37*
D17*
X96579542Y-55002629D03*
D11*
G36*
X96031534Y-54631398D02*
X96208311Y-54454621D01*
X97127550Y-55373860D01*
X96950773Y-55550637D01*
X96031534Y-54631398D01*
X96031534Y-54631398D01*
G37*
D17*
X96933095Y-54649076D03*
D11*
G36*
X96385087Y-54277845D02*
X96561864Y-54101068D01*
X97481103Y-55020307D01*
X97304326Y-55197084D01*
X96385087Y-54277845D01*
X96385087Y-54277845D01*
G37*
D17*
X97286649Y-54295522D03*
D11*
G36*
X96738641Y-53924291D02*
X96915418Y-53747514D01*
X97834657Y-54666753D01*
X97657880Y-54843530D01*
X96738641Y-53924291D01*
X96738641Y-53924291D01*
G37*
D17*
X97640202Y-53941969D03*
D11*
G36*
X97092194Y-53570738D02*
X97268971Y-53393961D01*
X98188210Y-54313200D01*
X98011433Y-54489977D01*
X97092194Y-53570738D01*
X97092194Y-53570738D01*
G37*
D17*
X97993755Y-53588416D03*
D11*
G36*
X97445747Y-53217185D02*
X97622524Y-53040408D01*
X98541763Y-53959647D01*
X98364986Y-54136424D01*
X97445747Y-53217185D01*
X97445747Y-53217185D01*
G37*
D17*
X98347309Y-53234862D03*
D11*
G36*
X97799301Y-52863631D02*
X97976078Y-52686854D01*
X98895317Y-53606093D01*
X98718540Y-53782870D01*
X97799301Y-52863631D01*
X97799301Y-52863631D01*
G37*
D17*
X98700862Y-52881309D03*
D11*
G36*
X98152854Y-52510078D02*
X98329631Y-52333301D01*
X99248870Y-53252540D01*
X99072093Y-53429317D01*
X98152854Y-52510078D01*
X98152854Y-52510078D01*
G37*
D17*
X99054416Y-52527755D03*
D11*
G36*
X98506408Y-52156524D02*
X98683185Y-51979747D01*
X99602424Y-52898986D01*
X99425647Y-53075763D01*
X98506408Y-52156524D01*
X98506408Y-52156524D01*
G37*
D17*
X99407969Y-52174202D03*
D11*
G36*
X98859961Y-51802971D02*
X99036738Y-51626194D01*
X99955977Y-52545433D01*
X99779200Y-52722210D01*
X98859961Y-51802971D01*
X98859961Y-51802971D01*
G37*
D17*
X99761522Y-51820649D03*
D11*
G36*
X99213514Y-51449418D02*
X99390291Y-51272641D01*
X100309530Y-52191880D01*
X100132753Y-52368657D01*
X99213514Y-51449418D01*
X99213514Y-51449418D01*
G37*
D17*
X100115076Y-51467095D03*
D11*
G36*
X99567068Y-51095864D02*
X99743845Y-50919087D01*
X100663084Y-51838326D01*
X100486307Y-52015103D01*
X99567068Y-51095864D01*
X99567068Y-51095864D01*
G37*
D17*
X100468629Y-51113542D03*
D11*
G36*
X99920621Y-50742311D02*
X100097398Y-50565534D01*
X101016637Y-51484773D01*
X100839860Y-51661550D01*
X99920621Y-50742311D01*
X99920621Y-50742311D01*
G37*
D17*
X102731371Y-51113542D03*
D11*
G36*
X103102602Y-50565534D02*
X103279379Y-50742311D01*
X102360140Y-51661550D01*
X102183363Y-51484773D01*
X103102602Y-50565534D01*
X103102602Y-50565534D01*
G37*
D17*
X103084924Y-51467095D03*
D11*
G36*
X103456155Y-50919087D02*
X103632932Y-51095864D01*
X102713693Y-52015103D01*
X102536916Y-51838326D01*
X103456155Y-50919087D01*
X103456155Y-50919087D01*
G37*
D17*
X103438478Y-51820649D03*
D11*
G36*
X103809709Y-51272641D02*
X103986486Y-51449418D01*
X103067247Y-52368657D01*
X102890470Y-52191880D01*
X103809709Y-51272641D01*
X103809709Y-51272641D01*
G37*
D17*
X103792031Y-52174202D03*
D11*
G36*
X104163262Y-51626194D02*
X104340039Y-51802971D01*
X103420800Y-52722210D01*
X103244023Y-52545433D01*
X104163262Y-51626194D01*
X104163262Y-51626194D01*
G37*
D17*
X104145584Y-52527755D03*
D11*
G36*
X104516815Y-51979747D02*
X104693592Y-52156524D01*
X103774353Y-53075763D01*
X103597576Y-52898986D01*
X104516815Y-51979747D01*
X104516815Y-51979747D01*
G37*
D17*
X104499138Y-52881309D03*
D11*
G36*
X104870369Y-52333301D02*
X105047146Y-52510078D01*
X104127907Y-53429317D01*
X103951130Y-53252540D01*
X104870369Y-52333301D01*
X104870369Y-52333301D01*
G37*
D17*
X104852691Y-53234862D03*
D11*
G36*
X105223922Y-52686854D02*
X105400699Y-52863631D01*
X104481460Y-53782870D01*
X104304683Y-53606093D01*
X105223922Y-52686854D01*
X105223922Y-52686854D01*
G37*
D17*
X105206245Y-53588416D03*
D11*
G36*
X105577476Y-53040408D02*
X105754253Y-53217185D01*
X104835014Y-54136424D01*
X104658237Y-53959647D01*
X105577476Y-53040408D01*
X105577476Y-53040408D01*
G37*
D17*
X105559798Y-53941969D03*
D11*
G36*
X105931029Y-53393961D02*
X106107806Y-53570738D01*
X105188567Y-54489977D01*
X105011790Y-54313200D01*
X105931029Y-53393961D01*
X105931029Y-53393961D01*
G37*
D17*
X105913351Y-54295522D03*
D11*
G36*
X106284582Y-53747514D02*
X106461359Y-53924291D01*
X105542120Y-54843530D01*
X105365343Y-54666753D01*
X106284582Y-53747514D01*
X106284582Y-53747514D01*
G37*
D17*
X106266905Y-54649076D03*
D11*
G36*
X106638136Y-54101068D02*
X106814913Y-54277845D01*
X105895674Y-55197084D01*
X105718897Y-55020307D01*
X106638136Y-54101068D01*
X106638136Y-54101068D01*
G37*
D17*
X106620458Y-55002629D03*
D11*
G36*
X106991689Y-54454621D02*
X107168466Y-54631398D01*
X106249227Y-55550637D01*
X106072450Y-55373860D01*
X106991689Y-54454621D01*
X106991689Y-54454621D01*
G37*
D18*
X114206000Y-60325000D03*
X114206000Y-61595000D03*
X114206000Y-62865000D03*
X114206000Y-64135000D03*
X108806000Y-64135000D03*
X108806000Y-62865000D03*
X108806000Y-61595000D03*
X108806000Y-60325000D03*
D11*
G36*
X92399779Y-65820144D02*
X92422834Y-65823563D01*
X92445443Y-65829227D01*
X92467387Y-65837079D01*
X92488457Y-65847044D01*
X92508448Y-65859026D01*
X92527168Y-65872910D01*
X92544438Y-65888562D01*
X92560090Y-65905832D01*
X92573974Y-65924552D01*
X92585956Y-65944543D01*
X92595921Y-65965613D01*
X92603773Y-65987557D01*
X92609437Y-66010166D01*
X92612856Y-66033221D01*
X92614000Y-66056500D01*
X92614000Y-66531500D01*
X92612856Y-66554779D01*
X92609437Y-66577834D01*
X92603773Y-66600443D01*
X92595921Y-66622387D01*
X92585956Y-66643457D01*
X92573974Y-66663448D01*
X92560090Y-66682168D01*
X92544438Y-66699438D01*
X92527168Y-66715090D01*
X92508448Y-66728974D01*
X92488457Y-66740956D01*
X92467387Y-66750921D01*
X92445443Y-66758773D01*
X92422834Y-66764437D01*
X92399779Y-66767856D01*
X92376500Y-66769000D01*
X91801500Y-66769000D01*
X91778221Y-66767856D01*
X91755166Y-66764437D01*
X91732557Y-66758773D01*
X91710613Y-66750921D01*
X91689543Y-66740956D01*
X91669552Y-66728974D01*
X91650832Y-66715090D01*
X91633562Y-66699438D01*
X91617910Y-66682168D01*
X91604026Y-66663448D01*
X91592044Y-66643457D01*
X91582079Y-66622387D01*
X91574227Y-66600443D01*
X91568563Y-66577834D01*
X91565144Y-66554779D01*
X91564000Y-66531500D01*
X91564000Y-66056500D01*
X91565144Y-66033221D01*
X91568563Y-66010166D01*
X91574227Y-65987557D01*
X91582079Y-65965613D01*
X91592044Y-65944543D01*
X91604026Y-65924552D01*
X91617910Y-65905832D01*
X91633562Y-65888562D01*
X91650832Y-65872910D01*
X91669552Y-65859026D01*
X91689543Y-65847044D01*
X91710613Y-65837079D01*
X91732557Y-65829227D01*
X91755166Y-65823563D01*
X91778221Y-65820144D01*
X91801500Y-65819000D01*
X92376500Y-65819000D01*
X92399779Y-65820144D01*
X92399779Y-65820144D01*
G37*
D12*
X92089000Y-66294000D03*
D11*
G36*
X94149779Y-65820144D02*
X94172834Y-65823563D01*
X94195443Y-65829227D01*
X94217387Y-65837079D01*
X94238457Y-65847044D01*
X94258448Y-65859026D01*
X94277168Y-65872910D01*
X94294438Y-65888562D01*
X94310090Y-65905832D01*
X94323974Y-65924552D01*
X94335956Y-65944543D01*
X94345921Y-65965613D01*
X94353773Y-65987557D01*
X94359437Y-66010166D01*
X94362856Y-66033221D01*
X94364000Y-66056500D01*
X94364000Y-66531500D01*
X94362856Y-66554779D01*
X94359437Y-66577834D01*
X94353773Y-66600443D01*
X94345921Y-66622387D01*
X94335956Y-66643457D01*
X94323974Y-66663448D01*
X94310090Y-66682168D01*
X94294438Y-66699438D01*
X94277168Y-66715090D01*
X94258448Y-66728974D01*
X94238457Y-66740956D01*
X94217387Y-66750921D01*
X94195443Y-66758773D01*
X94172834Y-66764437D01*
X94149779Y-66767856D01*
X94126500Y-66769000D01*
X93551500Y-66769000D01*
X93528221Y-66767856D01*
X93505166Y-66764437D01*
X93482557Y-66758773D01*
X93460613Y-66750921D01*
X93439543Y-66740956D01*
X93419552Y-66728974D01*
X93400832Y-66715090D01*
X93383562Y-66699438D01*
X93367910Y-66682168D01*
X93354026Y-66663448D01*
X93342044Y-66643457D01*
X93332079Y-66622387D01*
X93324227Y-66600443D01*
X93318563Y-66577834D01*
X93315144Y-66554779D01*
X93314000Y-66531500D01*
X93314000Y-66056500D01*
X93315144Y-66033221D01*
X93318563Y-66010166D01*
X93324227Y-65987557D01*
X93332079Y-65965613D01*
X93342044Y-65944543D01*
X93354026Y-65924552D01*
X93367910Y-65905832D01*
X93383562Y-65888562D01*
X93400832Y-65872910D01*
X93419552Y-65859026D01*
X93439543Y-65847044D01*
X93460613Y-65837079D01*
X93482557Y-65829227D01*
X93505166Y-65823563D01*
X93528221Y-65820144D01*
X93551500Y-65819000D01*
X94126500Y-65819000D01*
X94149779Y-65820144D01*
X94149779Y-65820144D01*
G37*
D12*
X93839000Y-66294000D03*
M02*
