%TF.GenerationSoftware,KiCad,Pcbnew,(5.0.2)-1*%
%TF.CreationDate,2019-02-18T18:23:53-07:00*%
%TF.ProjectId,ParkingSystem,5061726b-696e-4675-9379-7374656d2e6b,v01*%
%TF.SameCoordinates,Original*%
%TF.FileFunction,Legend,Bot*%
%TF.FilePolarity,Positive*%
%FSLAX46Y46*%
G04 Gerber Fmt 4.6, Leading zero omitted, Abs format (unit mm)*
G04 Created by KiCad (PCBNEW (5.0.2)-1) date 2019-02-18 6:23:53 PM*
%MOMM*%
%LPD*%
G01*
G04 APERTURE LIST*
%ADD10C,0.200000*%
%ADD11C,0.120000*%
%ADD12C,0.150000*%
G04 APERTURE END LIST*
D10*
X124460000Y-99060000D02*
X68580000Y-99060000D01*
X124460000Y-35000000D02*
X124460000Y-99060000D01*
X68580000Y-35000000D02*
X124460000Y-35000000D01*
X68580000Y-99060000D02*
X68580000Y-35000000D01*
D11*
X96691267Y-57152000D02*
X96348733Y-57152000D01*
X96691267Y-56132000D02*
X96348733Y-56132000D01*
X101771267Y-64518000D02*
X101428733Y-64518000D01*
X101771267Y-63498000D02*
X101428733Y-63498000D01*
X106851267Y-57660000D02*
X106508733Y-57660000D01*
X106851267Y-56640000D02*
X106508733Y-56640000D01*
X101771267Y-62740000D02*
X101428733Y-62740000D01*
X101771267Y-61720000D02*
X101428733Y-61720000D01*
X106851267Y-59438000D02*
X106508733Y-59438000D01*
X106851267Y-58418000D02*
X106508733Y-58418000D01*
X96691267Y-55374000D02*
X96348733Y-55374000D01*
X96691267Y-54354000D02*
X96348733Y-54354000D01*
X101517267Y-53088000D02*
X101174733Y-53088000D01*
X101517267Y-52068000D02*
X101174733Y-52068000D01*
X101517267Y-54866000D02*
X101174733Y-54866000D01*
X101517267Y-53846000D02*
X101174733Y-53846000D01*
X97110733Y-58926000D02*
X97453267Y-58926000D01*
X97110733Y-59946000D02*
X97453267Y-59946000D01*
D12*
X94146666Y-56999142D02*
X94194285Y-57046761D01*
X94337142Y-57094380D01*
X94432380Y-57094380D01*
X94575238Y-57046761D01*
X94670476Y-56951523D01*
X94718095Y-56856285D01*
X94765714Y-56665809D01*
X94765714Y-56522952D01*
X94718095Y-56332476D01*
X94670476Y-56237238D01*
X94575238Y-56142000D01*
X94432380Y-56094380D01*
X94337142Y-56094380D01*
X94194285Y-56142000D01*
X94146666Y-56189619D01*
X93194285Y-57094380D02*
X93765714Y-57094380D01*
X93480000Y-57094380D02*
X93480000Y-56094380D01*
X93575238Y-56237238D01*
X93670476Y-56332476D01*
X93765714Y-56380095D01*
X101766666Y-65889142D02*
X101814285Y-65936761D01*
X101957142Y-65984380D01*
X102052380Y-65984380D01*
X102195238Y-65936761D01*
X102290476Y-65841523D01*
X102338095Y-65746285D01*
X102385714Y-65555809D01*
X102385714Y-65412952D01*
X102338095Y-65222476D01*
X102290476Y-65127238D01*
X102195238Y-65032000D01*
X102052380Y-64984380D01*
X101957142Y-64984380D01*
X101814285Y-65032000D01*
X101766666Y-65079619D01*
X101385714Y-65079619D02*
X101338095Y-65032000D01*
X101242857Y-64984380D01*
X101004761Y-64984380D01*
X100909523Y-65032000D01*
X100861904Y-65079619D01*
X100814285Y-65174857D01*
X100814285Y-65270095D01*
X100861904Y-65412952D01*
X101433333Y-65984380D01*
X100814285Y-65984380D01*
X104306666Y-57507142D02*
X104354285Y-57554761D01*
X104497142Y-57602380D01*
X104592380Y-57602380D01*
X104735238Y-57554761D01*
X104830476Y-57459523D01*
X104878095Y-57364285D01*
X104925714Y-57173809D01*
X104925714Y-57030952D01*
X104878095Y-56840476D01*
X104830476Y-56745238D01*
X104735238Y-56650000D01*
X104592380Y-56602380D01*
X104497142Y-56602380D01*
X104354285Y-56650000D01*
X104306666Y-56697619D01*
X103973333Y-56602380D02*
X103354285Y-56602380D01*
X103687619Y-56983333D01*
X103544761Y-56983333D01*
X103449523Y-57030952D01*
X103401904Y-57078571D01*
X103354285Y-57173809D01*
X103354285Y-57411904D01*
X103401904Y-57507142D01*
X103449523Y-57554761D01*
X103544761Y-57602380D01*
X103830476Y-57602380D01*
X103925714Y-57554761D01*
X103973333Y-57507142D01*
X101766666Y-61317142D02*
X101814285Y-61364761D01*
X101957142Y-61412380D01*
X102052380Y-61412380D01*
X102195238Y-61364761D01*
X102290476Y-61269523D01*
X102338095Y-61174285D01*
X102385714Y-60983809D01*
X102385714Y-60840952D01*
X102338095Y-60650476D01*
X102290476Y-60555238D01*
X102195238Y-60460000D01*
X102052380Y-60412380D01*
X101957142Y-60412380D01*
X101814285Y-60460000D01*
X101766666Y-60507619D01*
X101290476Y-61412380D02*
X101100000Y-61412380D01*
X101004761Y-61364761D01*
X100957142Y-61317142D01*
X100861904Y-61174285D01*
X100814285Y-60983809D01*
X100814285Y-60602857D01*
X100861904Y-60507619D01*
X100909523Y-60460000D01*
X101004761Y-60412380D01*
X101195238Y-60412380D01*
X101290476Y-60460000D01*
X101338095Y-60507619D01*
X101385714Y-60602857D01*
X101385714Y-60840952D01*
X101338095Y-60936190D01*
X101290476Y-60983809D01*
X101195238Y-61031428D01*
X101004761Y-61031428D01*
X100909523Y-60983809D01*
X100861904Y-60936190D01*
X100814285Y-60840952D01*
X104274857Y-59285142D02*
X104322476Y-59332761D01*
X104465333Y-59380380D01*
X104560571Y-59380380D01*
X104703428Y-59332761D01*
X104798666Y-59237523D01*
X104846285Y-59142285D01*
X104893904Y-58951809D01*
X104893904Y-58808952D01*
X104846285Y-58618476D01*
X104798666Y-58523238D01*
X104703428Y-58428000D01*
X104560571Y-58380380D01*
X104465333Y-58380380D01*
X104322476Y-58428000D01*
X104274857Y-58475619D01*
X103322476Y-59380380D02*
X103893904Y-59380380D01*
X103608190Y-59380380D02*
X103608190Y-58380380D01*
X103703428Y-58523238D01*
X103798666Y-58618476D01*
X103893904Y-58666095D01*
X102703428Y-58380380D02*
X102608190Y-58380380D01*
X102512952Y-58428000D01*
X102465333Y-58475619D01*
X102417714Y-58570857D01*
X102370095Y-58761333D01*
X102370095Y-58999428D01*
X102417714Y-59189904D01*
X102465333Y-59285142D01*
X102512952Y-59332761D01*
X102608190Y-59380380D01*
X102703428Y-59380380D01*
X102798666Y-59332761D01*
X102846285Y-59285142D01*
X102893904Y-59189904D01*
X102941523Y-58999428D01*
X102941523Y-58761333D01*
X102893904Y-58570857D01*
X102846285Y-58475619D01*
X102798666Y-58428000D01*
X102703428Y-58380380D01*
X94114857Y-55221142D02*
X94162476Y-55268761D01*
X94305333Y-55316380D01*
X94400571Y-55316380D01*
X94543428Y-55268761D01*
X94638666Y-55173523D01*
X94686285Y-55078285D01*
X94733904Y-54887809D01*
X94733904Y-54744952D01*
X94686285Y-54554476D01*
X94638666Y-54459238D01*
X94543428Y-54364000D01*
X94400571Y-54316380D01*
X94305333Y-54316380D01*
X94162476Y-54364000D01*
X94114857Y-54411619D01*
X93162476Y-55316380D02*
X93733904Y-55316380D01*
X93448190Y-55316380D02*
X93448190Y-54316380D01*
X93543428Y-54459238D01*
X93638666Y-54554476D01*
X93733904Y-54602095D01*
X92210095Y-55316380D02*
X92781523Y-55316380D01*
X92495809Y-55316380D02*
X92495809Y-54316380D01*
X92591047Y-54459238D01*
X92686285Y-54554476D01*
X92781523Y-54602095D01*
X98940857Y-52935142D02*
X98988476Y-52982761D01*
X99131333Y-53030380D01*
X99226571Y-53030380D01*
X99369428Y-52982761D01*
X99464666Y-52887523D01*
X99512285Y-52792285D01*
X99559904Y-52601809D01*
X99559904Y-52458952D01*
X99512285Y-52268476D01*
X99464666Y-52173238D01*
X99369428Y-52078000D01*
X99226571Y-52030380D01*
X99131333Y-52030380D01*
X98988476Y-52078000D01*
X98940857Y-52125619D01*
X97988476Y-53030380D02*
X98559904Y-53030380D01*
X98274190Y-53030380D02*
X98274190Y-52030380D01*
X98369428Y-52173238D01*
X98464666Y-52268476D01*
X98559904Y-52316095D01*
X97607523Y-52125619D02*
X97559904Y-52078000D01*
X97464666Y-52030380D01*
X97226571Y-52030380D01*
X97131333Y-52078000D01*
X97083714Y-52125619D01*
X97036095Y-52220857D01*
X97036095Y-52316095D01*
X97083714Y-52458952D01*
X97655142Y-53030380D01*
X97036095Y-53030380D01*
X101226857Y-56237142D02*
X101274476Y-56284761D01*
X101417333Y-56332380D01*
X101512571Y-56332380D01*
X101655428Y-56284761D01*
X101750666Y-56189523D01*
X101798285Y-56094285D01*
X101845904Y-55903809D01*
X101845904Y-55760952D01*
X101798285Y-55570476D01*
X101750666Y-55475238D01*
X101655428Y-55380000D01*
X101512571Y-55332380D01*
X101417333Y-55332380D01*
X101274476Y-55380000D01*
X101226857Y-55427619D01*
X100274476Y-56332380D02*
X100845904Y-56332380D01*
X100560190Y-56332380D02*
X100560190Y-55332380D01*
X100655428Y-55475238D01*
X100750666Y-55570476D01*
X100845904Y-55618095D01*
X99941142Y-55332380D02*
X99322095Y-55332380D01*
X99655428Y-55713333D01*
X99512571Y-55713333D01*
X99417333Y-55760952D01*
X99369714Y-55808571D01*
X99322095Y-55903809D01*
X99322095Y-56141904D01*
X99369714Y-56237142D01*
X99417333Y-56284761D01*
X99512571Y-56332380D01*
X99798285Y-56332380D01*
X99893523Y-56284761D01*
X99941142Y-56237142D01*
X97448666Y-61318380D02*
X97782000Y-60842190D01*
X98020095Y-61318380D02*
X98020095Y-60318380D01*
X97639142Y-60318380D01*
X97543904Y-60366000D01*
X97496285Y-60413619D01*
X97448666Y-60508857D01*
X97448666Y-60651714D01*
X97496285Y-60746952D01*
X97543904Y-60794571D01*
X97639142Y-60842190D01*
X98020095Y-60842190D01*
X97067714Y-60413619D02*
X97020095Y-60366000D01*
X96924857Y-60318380D01*
X96686761Y-60318380D01*
X96591523Y-60366000D01*
X96543904Y-60413619D01*
X96496285Y-60508857D01*
X96496285Y-60604095D01*
X96543904Y-60746952D01*
X97115333Y-61318380D01*
X96496285Y-61318380D01*
M02*
