%TF.GenerationSoftware,KiCad,Pcbnew,(5.0.2)-1*%
%TF.CreationDate,2019-02-18T18:23:53-07:00*%
%TF.ProjectId,ParkingSystem,5061726b-696e-4675-9379-7374656d2e6b,v01*%
%TF.SameCoordinates,Original*%
%TF.FileFunction,Soldermask,Top*%
%TF.FilePolarity,Negative*%
%FSLAX46Y46*%
G04 Gerber Fmt 4.6, Leading zero omitted, Abs format (unit mm)*
G04 Created by KiCad (PCBNEW (5.0.2)-1) date 2019-02-18 6:23:53 PM*
%MOMM*%
%LPD*%
G01*
G04 APERTURE LIST*
%ADD10C,0.200000*%
%ADD11C,0.150000*%
G04 APERTURE END LIST*
D10*
X124460000Y-99060000D02*
X68580000Y-99060000D01*
X124460000Y-35000000D02*
X124460000Y-99060000D01*
X68580000Y-35000000D02*
X124460000Y-35000000D01*
X68580000Y-99060000D02*
X68580000Y-35000000D01*
D11*
G36*
X83658710Y-90325070D02*
X84350447Y-90611597D01*
X84972999Y-91027573D01*
X85502427Y-91557001D01*
X85918403Y-92179553D01*
X86204930Y-92871290D01*
X86351000Y-93605633D01*
X86351000Y-94354367D01*
X86204930Y-95088710D01*
X85918403Y-95780447D01*
X85502427Y-96402999D01*
X84972999Y-96932427D01*
X84350447Y-97348403D01*
X83658710Y-97634930D01*
X82924367Y-97781000D01*
X82175633Y-97781000D01*
X81441290Y-97634930D01*
X80749553Y-97348403D01*
X80127001Y-96932427D01*
X79597573Y-96402999D01*
X79181597Y-95780447D01*
X78895070Y-95088710D01*
X78749000Y-94354367D01*
X78749000Y-93605633D01*
X78895070Y-92871290D01*
X79181597Y-92179553D01*
X79597573Y-91557001D01*
X80127001Y-91027573D01*
X80749553Y-90611597D01*
X81441290Y-90325070D01*
X82175633Y-90179000D01*
X82924367Y-90179000D01*
X83658710Y-90325070D01*
X83658710Y-90325070D01*
G37*
G36*
X80374499Y-86409445D02*
X80411993Y-86420819D01*
X80446557Y-86439294D01*
X80476847Y-86464153D01*
X80501706Y-86494443D01*
X80520181Y-86529007D01*
X80531555Y-86566501D01*
X80536000Y-86611638D01*
X80536000Y-87350362D01*
X80531555Y-87395499D01*
X80520181Y-87432993D01*
X80501706Y-87467557D01*
X80476847Y-87497847D01*
X80446557Y-87522706D01*
X80411993Y-87541181D01*
X80374499Y-87552555D01*
X80329362Y-87557000D01*
X79690638Y-87557000D01*
X79645501Y-87552555D01*
X79608007Y-87541181D01*
X79573443Y-87522706D01*
X79543153Y-87497847D01*
X79518294Y-87467557D01*
X79499819Y-87432993D01*
X79488445Y-87395499D01*
X79484000Y-87350362D01*
X79484000Y-86611638D01*
X79488445Y-86566501D01*
X79499819Y-86529007D01*
X79518294Y-86494443D01*
X79543153Y-86464153D01*
X79573443Y-86439294D01*
X79608007Y-86420819D01*
X79645501Y-86409445D01*
X79690638Y-86405000D01*
X80329362Y-86405000D01*
X80374499Y-86409445D01*
X80374499Y-86409445D01*
G37*
G36*
X72693025Y-85570590D02*
X72844012Y-85616392D01*
X72983165Y-85690770D01*
X73105133Y-85790867D01*
X73205230Y-85912835D01*
X73279608Y-86051988D01*
X73325410Y-86202975D01*
X73340875Y-86360000D01*
X73325410Y-86517025D01*
X73279608Y-86668012D01*
X73205230Y-86807165D01*
X73105133Y-86929133D01*
X72983165Y-87029230D01*
X72844012Y-87103608D01*
X72693025Y-87149410D01*
X72575346Y-87161000D01*
X71696654Y-87161000D01*
X71578975Y-87149410D01*
X71427988Y-87103608D01*
X71288835Y-87029230D01*
X71166867Y-86929133D01*
X71066770Y-86807165D01*
X70992392Y-86668012D01*
X70946590Y-86517025D01*
X70931125Y-86360000D01*
X70946590Y-86202975D01*
X70992392Y-86051988D01*
X71066770Y-85912835D01*
X71166867Y-85790867D01*
X71288835Y-85690770D01*
X71427988Y-85616392D01*
X71578975Y-85570590D01*
X71696654Y-85559000D01*
X72575346Y-85559000D01*
X72693025Y-85570590D01*
X72693025Y-85570590D01*
G37*
G36*
X92133000Y-86653000D02*
X89731000Y-86653000D01*
X89731000Y-85051000D01*
X92133000Y-85051000D01*
X92133000Y-86653000D01*
X92133000Y-86653000D01*
G37*
G36*
X94598499Y-85139445D02*
X94635993Y-85150819D01*
X94670557Y-85169294D01*
X94700847Y-85194153D01*
X94725706Y-85224443D01*
X94744181Y-85259007D01*
X94755555Y-85296501D01*
X94760000Y-85341638D01*
X94760000Y-86080362D01*
X94755555Y-86125499D01*
X94744181Y-86162993D01*
X94725706Y-86197557D01*
X94700847Y-86227847D01*
X94670557Y-86252706D01*
X94635993Y-86271181D01*
X94598499Y-86282555D01*
X94553362Y-86287000D01*
X93914638Y-86287000D01*
X93869501Y-86282555D01*
X93832007Y-86271181D01*
X93797443Y-86252706D01*
X93767153Y-86227847D01*
X93742294Y-86197557D01*
X93723819Y-86162993D01*
X93712445Y-86125499D01*
X93708000Y-86080362D01*
X93708000Y-85341638D01*
X93712445Y-85296501D01*
X93723819Y-85259007D01*
X93742294Y-85224443D01*
X93767153Y-85194153D01*
X93797443Y-85169294D01*
X93832007Y-85150819D01*
X93869501Y-85139445D01*
X93914638Y-85135000D01*
X94553362Y-85135000D01*
X94598499Y-85139445D01*
X94598499Y-85139445D01*
G37*
G36*
X80374499Y-84659445D02*
X80411993Y-84670819D01*
X80446557Y-84689294D01*
X80476847Y-84714153D01*
X80501706Y-84744443D01*
X80520181Y-84779007D01*
X80531555Y-84816501D01*
X80536000Y-84861638D01*
X80536000Y-85600362D01*
X80531555Y-85645499D01*
X80520181Y-85682993D01*
X80501706Y-85717557D01*
X80476847Y-85747847D01*
X80446557Y-85772706D01*
X80411993Y-85791181D01*
X80374499Y-85802555D01*
X80329362Y-85807000D01*
X79690638Y-85807000D01*
X79645501Y-85802555D01*
X79608007Y-85791181D01*
X79573443Y-85772706D01*
X79543153Y-85747847D01*
X79518294Y-85717557D01*
X79499819Y-85682993D01*
X79488445Y-85645499D01*
X79484000Y-85600362D01*
X79484000Y-84861638D01*
X79488445Y-84816501D01*
X79499819Y-84779007D01*
X79518294Y-84744443D01*
X79543153Y-84714153D01*
X79573443Y-84689294D01*
X79608007Y-84670819D01*
X79645501Y-84659445D01*
X79690638Y-84655000D01*
X80329362Y-84655000D01*
X80374499Y-84659445D01*
X80374499Y-84659445D01*
G37*
G36*
X72693025Y-83030590D02*
X72844012Y-83076392D01*
X72983165Y-83150770D01*
X73105133Y-83250867D01*
X73205230Y-83372835D01*
X73279608Y-83511988D01*
X73325410Y-83662975D01*
X73340875Y-83820000D01*
X73325410Y-83977025D01*
X73279608Y-84128012D01*
X73205230Y-84267165D01*
X73105133Y-84389133D01*
X72983165Y-84489230D01*
X72844012Y-84563608D01*
X72693025Y-84609410D01*
X72575346Y-84621000D01*
X71696654Y-84621000D01*
X71578975Y-84609410D01*
X71427988Y-84563608D01*
X71288835Y-84489230D01*
X71166867Y-84389133D01*
X71066770Y-84267165D01*
X70992392Y-84128012D01*
X70946590Y-83977025D01*
X70931125Y-83820000D01*
X70946590Y-83662975D01*
X70992392Y-83511988D01*
X71066770Y-83372835D01*
X71166867Y-83250867D01*
X71288835Y-83150770D01*
X71427988Y-83076392D01*
X71578975Y-83030590D01*
X71696654Y-83019000D01*
X72575346Y-83019000D01*
X72693025Y-83030590D01*
X72693025Y-83030590D01*
G37*
G36*
X94598499Y-83389445D02*
X94635993Y-83400819D01*
X94670557Y-83419294D01*
X94700847Y-83444153D01*
X94725706Y-83474443D01*
X94744181Y-83509007D01*
X94755555Y-83546501D01*
X94760000Y-83591638D01*
X94760000Y-84330362D01*
X94755555Y-84375499D01*
X94744181Y-84412993D01*
X94725706Y-84447557D01*
X94700847Y-84477847D01*
X94670557Y-84502706D01*
X94635993Y-84521181D01*
X94598499Y-84532555D01*
X94553362Y-84537000D01*
X93914638Y-84537000D01*
X93869501Y-84532555D01*
X93832007Y-84521181D01*
X93797443Y-84502706D01*
X93767153Y-84477847D01*
X93742294Y-84447557D01*
X93723819Y-84412993D01*
X93712445Y-84375499D01*
X93708000Y-84330362D01*
X93708000Y-83591638D01*
X93712445Y-83546501D01*
X93723819Y-83509007D01*
X93742294Y-83474443D01*
X93767153Y-83444153D01*
X93797443Y-83419294D01*
X93832007Y-83400819D01*
X93869501Y-83389445D01*
X93914638Y-83385000D01*
X94553362Y-83385000D01*
X94598499Y-83389445D01*
X94598499Y-83389445D01*
G37*
G36*
X119058565Y-82301389D02*
X119249834Y-82380615D01*
X119421976Y-82495637D01*
X119568363Y-82642024D01*
X119683385Y-82814166D01*
X119762611Y-83005435D01*
X119803000Y-83208484D01*
X119803000Y-83415516D01*
X119762611Y-83618565D01*
X119683385Y-83809834D01*
X119568363Y-83981976D01*
X119421976Y-84128363D01*
X119249834Y-84243385D01*
X119058565Y-84322611D01*
X118855516Y-84363000D01*
X118648484Y-84363000D01*
X118445435Y-84322611D01*
X118254166Y-84243385D01*
X118082024Y-84128363D01*
X117935637Y-83981976D01*
X117820615Y-83809834D01*
X117741389Y-83618565D01*
X117701000Y-83415516D01*
X117701000Y-83208484D01*
X117741389Y-83005435D01*
X117820615Y-82814166D01*
X117935637Y-82642024D01*
X118082024Y-82495637D01*
X118254166Y-82380615D01*
X118445435Y-82301389D01*
X118648484Y-82261000D01*
X118855516Y-82261000D01*
X119058565Y-82301389D01*
X119058565Y-82301389D01*
G37*
G36*
X104058565Y-82301389D02*
X104249834Y-82380615D01*
X104421976Y-82495637D01*
X104568363Y-82642024D01*
X104683385Y-82814166D01*
X104762611Y-83005435D01*
X104803000Y-83208484D01*
X104803000Y-83415516D01*
X104762611Y-83618565D01*
X104683385Y-83809834D01*
X104568363Y-83981976D01*
X104421976Y-84128363D01*
X104249834Y-84243385D01*
X104058565Y-84322611D01*
X103855516Y-84363000D01*
X103648484Y-84363000D01*
X103445435Y-84322611D01*
X103254166Y-84243385D01*
X103082024Y-84128363D01*
X102935637Y-83981976D01*
X102820615Y-83809834D01*
X102741389Y-83618565D01*
X102701000Y-83415516D01*
X102701000Y-83208484D01*
X102741389Y-83005435D01*
X102820615Y-82814166D01*
X102935637Y-82642024D01*
X103082024Y-82495637D01*
X103254166Y-82380615D01*
X103445435Y-82301389D01*
X103648484Y-82261000D01*
X103855516Y-82261000D01*
X104058565Y-82301389D01*
X104058565Y-82301389D01*
G37*
G36*
X91489025Y-82522590D02*
X91640012Y-82568392D01*
X91779165Y-82642770D01*
X91901133Y-82742867D01*
X92001230Y-82864835D01*
X92075608Y-83003988D01*
X92121410Y-83154975D01*
X92136875Y-83312000D01*
X92121410Y-83469025D01*
X92075608Y-83620012D01*
X92001230Y-83759165D01*
X91901133Y-83881133D01*
X91779165Y-83981230D01*
X91640012Y-84055608D01*
X91489025Y-84101410D01*
X91371346Y-84113000D01*
X90492654Y-84113000D01*
X90374975Y-84101410D01*
X90223988Y-84055608D01*
X90084835Y-83981230D01*
X89962867Y-83881133D01*
X89862770Y-83759165D01*
X89788392Y-83620012D01*
X89742590Y-83469025D01*
X89727125Y-83312000D01*
X89742590Y-83154975D01*
X89788392Y-83003988D01*
X89862770Y-82864835D01*
X89962867Y-82742867D01*
X90084835Y-82642770D01*
X90223988Y-82568392D01*
X90374975Y-82522590D01*
X90492654Y-82511000D01*
X91371346Y-82511000D01*
X91489025Y-82522590D01*
X91489025Y-82522590D01*
G37*
G36*
X80374499Y-81837445D02*
X80411993Y-81848819D01*
X80446557Y-81867294D01*
X80476847Y-81892153D01*
X80501706Y-81922443D01*
X80520181Y-81957007D01*
X80531555Y-81994501D01*
X80536000Y-82039638D01*
X80536000Y-82778362D01*
X80531555Y-82823499D01*
X80520181Y-82860993D01*
X80501706Y-82895557D01*
X80476847Y-82925847D01*
X80446557Y-82950706D01*
X80411993Y-82969181D01*
X80374499Y-82980555D01*
X80329362Y-82985000D01*
X79690638Y-82985000D01*
X79645501Y-82980555D01*
X79608007Y-82969181D01*
X79573443Y-82950706D01*
X79543153Y-82925847D01*
X79518294Y-82895557D01*
X79499819Y-82860993D01*
X79488445Y-82823499D01*
X79484000Y-82778362D01*
X79484000Y-82039638D01*
X79488445Y-81994501D01*
X79499819Y-81957007D01*
X79518294Y-81922443D01*
X79543153Y-81892153D01*
X79573443Y-81867294D01*
X79608007Y-81848819D01*
X79645501Y-81837445D01*
X79690638Y-81833000D01*
X80329362Y-81833000D01*
X80374499Y-81837445D01*
X80374499Y-81837445D01*
G37*
G36*
X73337000Y-82081000D02*
X70935000Y-82081000D01*
X70935000Y-80479000D01*
X73337000Y-80479000D01*
X73337000Y-82081000D01*
X73337000Y-82081000D01*
G37*
G36*
X91489025Y-79982590D02*
X91640012Y-80028392D01*
X91779165Y-80102770D01*
X91901133Y-80202867D01*
X92001230Y-80324835D01*
X92075608Y-80463988D01*
X92121410Y-80614975D01*
X92136875Y-80772000D01*
X92121410Y-80929025D01*
X92075608Y-81080012D01*
X92001230Y-81219165D01*
X91901133Y-81341133D01*
X91779165Y-81441230D01*
X91640012Y-81515608D01*
X91489025Y-81561410D01*
X91371346Y-81573000D01*
X90492654Y-81573000D01*
X90374975Y-81561410D01*
X90223988Y-81515608D01*
X90084835Y-81441230D01*
X89962867Y-81341133D01*
X89862770Y-81219165D01*
X89788392Y-81080012D01*
X89742590Y-80929025D01*
X89727125Y-80772000D01*
X89742590Y-80614975D01*
X89788392Y-80463988D01*
X89862770Y-80324835D01*
X89962867Y-80202867D01*
X90084835Y-80102770D01*
X90223988Y-80028392D01*
X90374975Y-79982590D01*
X90492654Y-79971000D01*
X91371346Y-79971000D01*
X91489025Y-79982590D01*
X91489025Y-79982590D01*
G37*
G36*
X96119000Y-81311000D02*
X95397000Y-81311000D01*
X95397000Y-80809000D01*
X96119000Y-80809000D01*
X96119000Y-81311000D01*
X96119000Y-81311000D01*
G37*
G36*
X80374499Y-80087445D02*
X80411993Y-80098819D01*
X80446557Y-80117294D01*
X80476847Y-80142153D01*
X80501706Y-80172443D01*
X80520181Y-80207007D01*
X80531555Y-80244501D01*
X80536000Y-80289638D01*
X80536000Y-81028362D01*
X80531555Y-81073499D01*
X80520181Y-81110993D01*
X80501706Y-81145557D01*
X80476847Y-81175847D01*
X80446557Y-81200706D01*
X80411993Y-81219181D01*
X80374499Y-81230555D01*
X80329362Y-81235000D01*
X79690638Y-81235000D01*
X79645501Y-81230555D01*
X79608007Y-81219181D01*
X79573443Y-81200706D01*
X79543153Y-81175847D01*
X79518294Y-81145557D01*
X79499819Y-81110993D01*
X79488445Y-81073499D01*
X79484000Y-81028362D01*
X79484000Y-80289638D01*
X79488445Y-80244501D01*
X79499819Y-80207007D01*
X79518294Y-80172443D01*
X79543153Y-80142153D01*
X79573443Y-80117294D01*
X79608007Y-80098819D01*
X79645501Y-80087445D01*
X79690638Y-80083000D01*
X80329362Y-80083000D01*
X80374499Y-80087445D01*
X80374499Y-80087445D01*
G37*
G36*
X95169000Y-79211000D02*
X94447000Y-79211000D01*
X94447000Y-78709000D01*
X95169000Y-78709000D01*
X95169000Y-79211000D01*
X95169000Y-79211000D01*
G37*
G36*
X97069000Y-79211000D02*
X96347000Y-79211000D01*
X96347000Y-78709000D01*
X97069000Y-78709000D01*
X97069000Y-79211000D01*
X97069000Y-79211000D01*
G37*
G36*
X81177537Y-74711472D02*
X81263556Y-74719944D01*
X81380089Y-74755294D01*
X81484291Y-74786903D01*
X81579670Y-74837885D01*
X81687720Y-74895639D01*
X81866028Y-75041972D01*
X81957400Y-75153309D01*
X82012360Y-75220279D01*
X82121097Y-75423709D01*
X82121097Y-75423710D01*
X82188056Y-75644444D01*
X82210665Y-75874000D01*
X82188056Y-76103556D01*
X82143417Y-76250712D01*
X82121097Y-76324291D01*
X82062976Y-76433027D01*
X82012361Y-76527720D01*
X81866028Y-76706028D01*
X81687720Y-76852361D01*
X81593027Y-76902976D01*
X81484291Y-76961097D01*
X81410712Y-76983417D01*
X81263556Y-77028056D01*
X81177537Y-77036528D01*
X81091520Y-77045000D01*
X78816480Y-77045000D01*
X78730463Y-77036528D01*
X78644444Y-77028056D01*
X78497288Y-76983417D01*
X78423709Y-76961097D01*
X78314973Y-76902976D01*
X78220280Y-76852361D01*
X78041972Y-76706028D01*
X77895639Y-76527720D01*
X77845024Y-76433027D01*
X77786903Y-76324291D01*
X77764583Y-76250712D01*
X77719944Y-76103556D01*
X77697335Y-75874000D01*
X77719944Y-75644444D01*
X77786903Y-75423710D01*
X77786903Y-75423709D01*
X77895640Y-75220279D01*
X77950601Y-75153309D01*
X78041972Y-75041972D01*
X78220280Y-74895639D01*
X78328330Y-74837885D01*
X78423709Y-74786903D01*
X78527911Y-74755294D01*
X78644444Y-74719944D01*
X78730463Y-74711472D01*
X78816480Y-74703000D01*
X81091520Y-74703000D01*
X81177537Y-74711472D01*
X81177537Y-74711472D01*
G37*
G36*
X87275000Y-76103000D02*
X85623000Y-76103000D01*
X85623000Y-74701000D01*
X87275000Y-74701000D01*
X87275000Y-76103000D01*
X87275000Y-76103000D01*
G37*
G36*
X95225000Y-76103000D02*
X93573000Y-76103000D01*
X93573000Y-74701000D01*
X95225000Y-74701000D01*
X95225000Y-76103000D01*
X95225000Y-76103000D01*
G37*
G36*
X99678499Y-74725445D02*
X99715993Y-74736819D01*
X99750557Y-74755294D01*
X99780847Y-74780153D01*
X99805706Y-74810443D01*
X99824181Y-74845007D01*
X99835555Y-74882501D01*
X99840000Y-74927638D01*
X99840000Y-75666362D01*
X99835555Y-75711499D01*
X99824181Y-75748993D01*
X99805706Y-75783557D01*
X99780847Y-75813847D01*
X99750557Y-75838706D01*
X99715993Y-75857181D01*
X99678499Y-75868555D01*
X99633362Y-75873000D01*
X98994638Y-75873000D01*
X98949501Y-75868555D01*
X98912007Y-75857181D01*
X98877443Y-75838706D01*
X98847153Y-75813847D01*
X98822294Y-75783557D01*
X98803819Y-75748993D01*
X98792445Y-75711499D01*
X98788000Y-75666362D01*
X98788000Y-74927638D01*
X98792445Y-74882501D01*
X98803819Y-74845007D01*
X98822294Y-74810443D01*
X98847153Y-74780153D01*
X98877443Y-74755294D01*
X98912007Y-74736819D01*
X98949501Y-74725445D01*
X98994638Y-74721000D01*
X99633362Y-74721000D01*
X99678499Y-74725445D01*
X99678499Y-74725445D01*
G37*
G36*
X96884499Y-74217445D02*
X96921993Y-74228819D01*
X96956557Y-74247294D01*
X96986847Y-74272153D01*
X97011706Y-74302443D01*
X97030181Y-74337007D01*
X97041555Y-74374501D01*
X97046000Y-74419638D01*
X97046000Y-75158362D01*
X97041555Y-75203499D01*
X97030181Y-75240993D01*
X97011706Y-75275557D01*
X96986847Y-75305847D01*
X96956557Y-75330706D01*
X96921993Y-75349181D01*
X96884499Y-75360555D01*
X96839362Y-75365000D01*
X96200638Y-75365000D01*
X96155501Y-75360555D01*
X96118007Y-75349181D01*
X96083443Y-75330706D01*
X96053153Y-75305847D01*
X96028294Y-75275557D01*
X96009819Y-75240993D01*
X95998445Y-75203499D01*
X95994000Y-75158362D01*
X95994000Y-74419638D01*
X95998445Y-74374501D01*
X96009819Y-74337007D01*
X96028294Y-74302443D01*
X96053153Y-74272153D01*
X96083443Y-74247294D01*
X96118007Y-74228819D01*
X96155501Y-74217445D01*
X96200638Y-74213000D01*
X96839362Y-74213000D01*
X96884499Y-74217445D01*
X96884499Y-74217445D01*
G37*
G36*
X99678499Y-72975445D02*
X99715993Y-72986819D01*
X99750557Y-73005294D01*
X99780847Y-73030153D01*
X99805706Y-73060443D01*
X99824181Y-73095007D01*
X99835555Y-73132501D01*
X99840000Y-73177638D01*
X99840000Y-73916362D01*
X99835555Y-73961499D01*
X99824181Y-73998993D01*
X99805706Y-74033557D01*
X99780847Y-74063847D01*
X99750557Y-74088706D01*
X99715993Y-74107181D01*
X99678499Y-74118555D01*
X99633362Y-74123000D01*
X98994638Y-74123000D01*
X98949501Y-74118555D01*
X98912007Y-74107181D01*
X98877443Y-74088706D01*
X98847153Y-74063847D01*
X98822294Y-74033557D01*
X98803819Y-73998993D01*
X98792445Y-73961499D01*
X98788000Y-73916362D01*
X98788000Y-73177638D01*
X98792445Y-73132501D01*
X98803819Y-73095007D01*
X98822294Y-73060443D01*
X98847153Y-73030153D01*
X98877443Y-73005294D01*
X98912007Y-72986819D01*
X98949501Y-72975445D01*
X98994638Y-72971000D01*
X99633362Y-72971000D01*
X99678499Y-72975445D01*
X99678499Y-72975445D01*
G37*
G36*
X83183555Y-68889944D02*
X83330711Y-68934583D01*
X83404290Y-68956903D01*
X83584451Y-69053202D01*
X83607719Y-69065639D01*
X83786028Y-69211972D01*
X83786029Y-69211974D01*
X83786031Y-69211975D01*
X83895778Y-69345703D01*
X83932361Y-69390280D01*
X83982976Y-69484973D01*
X84041097Y-69593709D01*
X84063417Y-69667288D01*
X84108056Y-69814444D01*
X84125000Y-69986482D01*
X84125000Y-72761518D01*
X84108056Y-72933556D01*
X84073330Y-73048031D01*
X84041097Y-73154291D01*
X83998491Y-73234000D01*
X83932361Y-73357720D01*
X83786028Y-73536028D01*
X83607720Y-73682361D01*
X83513027Y-73732976D01*
X83404291Y-73791097D01*
X83330712Y-73813417D01*
X83183556Y-73858056D01*
X82954000Y-73880665D01*
X82724445Y-73858056D01*
X82577289Y-73813417D01*
X82503710Y-73791097D01*
X82394974Y-73732976D01*
X82300281Y-73682361D01*
X82121973Y-73536028D01*
X81975640Y-73357720D01*
X81909510Y-73234000D01*
X81866904Y-73154291D01*
X81834671Y-73048031D01*
X81799945Y-72933556D01*
X81783001Y-72761518D01*
X81783000Y-69986483D01*
X81799944Y-69814445D01*
X81866903Y-69593711D01*
X81866903Y-69593710D01*
X81975638Y-69390283D01*
X81975639Y-69390281D01*
X82121972Y-69211972D01*
X82121974Y-69211971D01*
X82121975Y-69211969D01*
X82300279Y-69065640D01*
X82300278Y-69065640D01*
X82300280Y-69065639D01*
X82394973Y-69015024D01*
X82503709Y-68956903D01*
X82577288Y-68934583D01*
X82724444Y-68889944D01*
X82954000Y-68867335D01*
X83183555Y-68889944D01*
X83183555Y-68889944D01*
G37*
G36*
X77183555Y-68889944D02*
X77330711Y-68934583D01*
X77404290Y-68956903D01*
X77584451Y-69053202D01*
X77607719Y-69065639D01*
X77786028Y-69211972D01*
X77786029Y-69211974D01*
X77786031Y-69211975D01*
X77895778Y-69345703D01*
X77932361Y-69390280D01*
X77982976Y-69484973D01*
X78041097Y-69593709D01*
X78063417Y-69667288D01*
X78108056Y-69814444D01*
X78125000Y-69986482D01*
X78125000Y-72761518D01*
X78108056Y-72933556D01*
X78073330Y-73048031D01*
X78041097Y-73154291D01*
X77998491Y-73234000D01*
X77932361Y-73357720D01*
X77786028Y-73536028D01*
X77607720Y-73682361D01*
X77513027Y-73732976D01*
X77404291Y-73791097D01*
X77330712Y-73813417D01*
X77183556Y-73858056D01*
X76954000Y-73880665D01*
X76724445Y-73858056D01*
X76577289Y-73813417D01*
X76503710Y-73791097D01*
X76394974Y-73732976D01*
X76300281Y-73682361D01*
X76121973Y-73536028D01*
X75975640Y-73357720D01*
X75909510Y-73234000D01*
X75866904Y-73154291D01*
X75834671Y-73048031D01*
X75799945Y-72933556D01*
X75783001Y-72761518D01*
X75783000Y-69986483D01*
X75799944Y-69814445D01*
X75866903Y-69593711D01*
X75866903Y-69593710D01*
X75975638Y-69390283D01*
X75975639Y-69390281D01*
X76121972Y-69211972D01*
X76121974Y-69211971D01*
X76121975Y-69211969D01*
X76300279Y-69065640D01*
X76300278Y-69065640D01*
X76300280Y-69065639D01*
X76394973Y-69015024D01*
X76503709Y-68956903D01*
X76577288Y-68934583D01*
X76724444Y-68889944D01*
X76954000Y-68867335D01*
X77183555Y-68889944D01*
X77183555Y-68889944D01*
G37*
G36*
X96884499Y-72467445D02*
X96921993Y-72478819D01*
X96956557Y-72497294D01*
X96986847Y-72522153D01*
X97011706Y-72552443D01*
X97030181Y-72587007D01*
X97041555Y-72624501D01*
X97046000Y-72669638D01*
X97046000Y-73408362D01*
X97041555Y-73453499D01*
X97030181Y-73490993D01*
X97011706Y-73525557D01*
X96986847Y-73555847D01*
X96956557Y-73580706D01*
X96921993Y-73599181D01*
X96884499Y-73610555D01*
X96839362Y-73615000D01*
X96200638Y-73615000D01*
X96155501Y-73610555D01*
X96118007Y-73599181D01*
X96083443Y-73580706D01*
X96053153Y-73555847D01*
X96028294Y-73525557D01*
X96009819Y-73490993D01*
X95998445Y-73453499D01*
X95994000Y-73408362D01*
X95994000Y-72669638D01*
X95998445Y-72624501D01*
X96009819Y-72587007D01*
X96028294Y-72552443D01*
X96053153Y-72522153D01*
X96083443Y-72497294D01*
X96118007Y-72478819D01*
X96155501Y-72467445D01*
X96200638Y-72463000D01*
X96839362Y-72463000D01*
X96884499Y-72467445D01*
X96884499Y-72467445D01*
G37*
G36*
X95225000Y-71603000D02*
X93573000Y-71603000D01*
X93573000Y-70201000D01*
X95225000Y-70201000D01*
X95225000Y-71603000D01*
X95225000Y-71603000D01*
G37*
G36*
X87275000Y-71603000D02*
X85623000Y-71603000D01*
X85623000Y-70201000D01*
X87275000Y-70201000D01*
X87275000Y-71603000D01*
X87275000Y-71603000D01*
G37*
G36*
X101767000Y-71019000D02*
X100925000Y-71019000D01*
X100925000Y-68517000D01*
X101767000Y-68517000D01*
X101767000Y-71019000D01*
X101767000Y-71019000D01*
G37*
G36*
X99227000Y-71019000D02*
X98385000Y-71019000D01*
X98385000Y-68517000D01*
X99227000Y-68517000D01*
X99227000Y-71019000D01*
X99227000Y-71019000D01*
G37*
G36*
X104307000Y-71019000D02*
X103465000Y-71019000D01*
X103465000Y-68517000D01*
X104307000Y-68517000D01*
X104307000Y-71019000D01*
X104307000Y-71019000D01*
G37*
G36*
X100497000Y-71019000D02*
X99655000Y-71019000D01*
X99655000Y-68517000D01*
X100497000Y-68517000D01*
X100497000Y-71019000D01*
X100497000Y-71019000D01*
G37*
G36*
X103037000Y-71019000D02*
X102195000Y-71019000D01*
X102195000Y-68517000D01*
X103037000Y-68517000D01*
X103037000Y-71019000D01*
X103037000Y-71019000D01*
G37*
G36*
X110600499Y-67359445D02*
X110637993Y-67370819D01*
X110672557Y-67389294D01*
X110702847Y-67414153D01*
X110727706Y-67444443D01*
X110746181Y-67479007D01*
X110757555Y-67516501D01*
X110762000Y-67561638D01*
X110762000Y-68300362D01*
X110757555Y-68345499D01*
X110746181Y-68382993D01*
X110727706Y-68417557D01*
X110702847Y-68447847D01*
X110672557Y-68472706D01*
X110637993Y-68491181D01*
X110600499Y-68502555D01*
X110555362Y-68507000D01*
X109916638Y-68507000D01*
X109871501Y-68502555D01*
X109834007Y-68491181D01*
X109799443Y-68472706D01*
X109769153Y-68447847D01*
X109744294Y-68417557D01*
X109725819Y-68382993D01*
X109714445Y-68345499D01*
X109710000Y-68300362D01*
X109710000Y-67561638D01*
X109714445Y-67516501D01*
X109725819Y-67479007D01*
X109744294Y-67444443D01*
X109769153Y-67414153D01*
X109799443Y-67389294D01*
X109834007Y-67370819D01*
X109871501Y-67359445D01*
X109916638Y-67355000D01*
X110555362Y-67355000D01*
X110600499Y-67359445D01*
X110600499Y-67359445D01*
G37*
G36*
X107552499Y-67359445D02*
X107589993Y-67370819D01*
X107624557Y-67389294D01*
X107654847Y-67414153D01*
X107679706Y-67444443D01*
X107698181Y-67479007D01*
X107709555Y-67516501D01*
X107714000Y-67561638D01*
X107714000Y-68300362D01*
X107709555Y-68345499D01*
X107698181Y-68382993D01*
X107679706Y-68417557D01*
X107654847Y-68447847D01*
X107624557Y-68472706D01*
X107589993Y-68491181D01*
X107552499Y-68502555D01*
X107507362Y-68507000D01*
X106868638Y-68507000D01*
X106823501Y-68502555D01*
X106786007Y-68491181D01*
X106751443Y-68472706D01*
X106721153Y-68447847D01*
X106696294Y-68417557D01*
X106677819Y-68382993D01*
X106666445Y-68345499D01*
X106662000Y-68300362D01*
X106662000Y-67561638D01*
X106666445Y-67516501D01*
X106677819Y-67479007D01*
X106696294Y-67444443D01*
X106721153Y-67414153D01*
X106751443Y-67389294D01*
X106786007Y-67370819D01*
X106823501Y-67359445D01*
X106868638Y-67355000D01*
X107507362Y-67355000D01*
X107552499Y-67359445D01*
X107552499Y-67359445D01*
G37*
G36*
X116950499Y-67359445D02*
X116987993Y-67370819D01*
X117022557Y-67389294D01*
X117052847Y-67414153D01*
X117077706Y-67444443D01*
X117096181Y-67479007D01*
X117107555Y-67516501D01*
X117112000Y-67561638D01*
X117112000Y-68300362D01*
X117107555Y-68345499D01*
X117096181Y-68382993D01*
X117077706Y-68417557D01*
X117052847Y-68447847D01*
X117022557Y-68472706D01*
X116987993Y-68491181D01*
X116950499Y-68502555D01*
X116905362Y-68507000D01*
X116266638Y-68507000D01*
X116221501Y-68502555D01*
X116184007Y-68491181D01*
X116149443Y-68472706D01*
X116119153Y-68447847D01*
X116094294Y-68417557D01*
X116075819Y-68382993D01*
X116064445Y-68345499D01*
X116060000Y-68300362D01*
X116060000Y-67561638D01*
X116064445Y-67516501D01*
X116075819Y-67479007D01*
X116094294Y-67444443D01*
X116119153Y-67414153D01*
X116149443Y-67389294D01*
X116184007Y-67370819D01*
X116221501Y-67359445D01*
X116266638Y-67355000D01*
X116905362Y-67355000D01*
X116950499Y-67359445D01*
X116950499Y-67359445D01*
G37*
G36*
X113648499Y-67359445D02*
X113685993Y-67370819D01*
X113720557Y-67389294D01*
X113750847Y-67414153D01*
X113775706Y-67444443D01*
X113794181Y-67479007D01*
X113805555Y-67516501D01*
X113810000Y-67561638D01*
X113810000Y-68300362D01*
X113805555Y-68345499D01*
X113794181Y-68382993D01*
X113775706Y-68417557D01*
X113750847Y-68447847D01*
X113720557Y-68472706D01*
X113685993Y-68491181D01*
X113648499Y-68502555D01*
X113603362Y-68507000D01*
X112964638Y-68507000D01*
X112919501Y-68502555D01*
X112882007Y-68491181D01*
X112847443Y-68472706D01*
X112817153Y-68447847D01*
X112792294Y-68417557D01*
X112773819Y-68382993D01*
X112762445Y-68345499D01*
X112758000Y-68300362D01*
X112758000Y-67561638D01*
X112762445Y-67516501D01*
X112773819Y-67479007D01*
X112792294Y-67444443D01*
X112817153Y-67414153D01*
X112847443Y-67389294D01*
X112882007Y-67370819D01*
X112919501Y-67359445D01*
X112964638Y-67355000D01*
X113603362Y-67355000D01*
X113648499Y-67359445D01*
X113648499Y-67359445D01*
G37*
G36*
X101767000Y-67119000D02*
X100925000Y-67119000D01*
X100925000Y-64617000D01*
X101767000Y-64617000D01*
X101767000Y-67119000D01*
X101767000Y-67119000D01*
G37*
G36*
X99227000Y-67119000D02*
X98385000Y-67119000D01*
X98385000Y-64617000D01*
X99227000Y-64617000D01*
X99227000Y-67119000D01*
X99227000Y-67119000D01*
G37*
G36*
X100497000Y-67119000D02*
X99655000Y-67119000D01*
X99655000Y-64617000D01*
X100497000Y-64617000D01*
X100497000Y-67119000D01*
X100497000Y-67119000D01*
G37*
G36*
X104307000Y-67119000D02*
X103465000Y-67119000D01*
X103465000Y-64617000D01*
X104307000Y-64617000D01*
X104307000Y-67119000D01*
X104307000Y-67119000D01*
G37*
G36*
X103037000Y-67119000D02*
X102195000Y-67119000D01*
X102195000Y-64617000D01*
X103037000Y-64617000D01*
X103037000Y-67119000D01*
X103037000Y-67119000D01*
G37*
G36*
X94253499Y-65772445D02*
X94290993Y-65783819D01*
X94325557Y-65802294D01*
X94355847Y-65827153D01*
X94380706Y-65857443D01*
X94399181Y-65892007D01*
X94410555Y-65929501D01*
X94415000Y-65974638D01*
X94415000Y-66613362D01*
X94410555Y-66658499D01*
X94399181Y-66695993D01*
X94380706Y-66730557D01*
X94355847Y-66760847D01*
X94325557Y-66785706D01*
X94290993Y-66804181D01*
X94253499Y-66815555D01*
X94208362Y-66820000D01*
X93469638Y-66820000D01*
X93424501Y-66815555D01*
X93387007Y-66804181D01*
X93352443Y-66785706D01*
X93322153Y-66760847D01*
X93297294Y-66730557D01*
X93278819Y-66695993D01*
X93267445Y-66658499D01*
X93263000Y-66613362D01*
X93263000Y-65974638D01*
X93267445Y-65929501D01*
X93278819Y-65892007D01*
X93297294Y-65857443D01*
X93322153Y-65827153D01*
X93352443Y-65802294D01*
X93387007Y-65783819D01*
X93424501Y-65772445D01*
X93469638Y-65768000D01*
X94208362Y-65768000D01*
X94253499Y-65772445D01*
X94253499Y-65772445D01*
G37*
G36*
X92503499Y-65772445D02*
X92540993Y-65783819D01*
X92575557Y-65802294D01*
X92605847Y-65827153D01*
X92630706Y-65857443D01*
X92649181Y-65892007D01*
X92660555Y-65929501D01*
X92665000Y-65974638D01*
X92665000Y-66613362D01*
X92660555Y-66658499D01*
X92649181Y-66695993D01*
X92630706Y-66730557D01*
X92605847Y-66760847D01*
X92575557Y-66785706D01*
X92540993Y-66804181D01*
X92503499Y-66815555D01*
X92458362Y-66820000D01*
X91719638Y-66820000D01*
X91674501Y-66815555D01*
X91637007Y-66804181D01*
X91602443Y-66785706D01*
X91572153Y-66760847D01*
X91547294Y-66730557D01*
X91528819Y-66695993D01*
X91517445Y-66658499D01*
X91513000Y-66613362D01*
X91513000Y-65974638D01*
X91517445Y-65929501D01*
X91528819Y-65892007D01*
X91547294Y-65857443D01*
X91572153Y-65827153D01*
X91602443Y-65802294D01*
X91637007Y-65783819D01*
X91674501Y-65772445D01*
X91719638Y-65768000D01*
X92458362Y-65768000D01*
X92503499Y-65772445D01*
X92503499Y-65772445D01*
G37*
G36*
X89173499Y-65772445D02*
X89210993Y-65783819D01*
X89245557Y-65802294D01*
X89275847Y-65827153D01*
X89300706Y-65857443D01*
X89319181Y-65892007D01*
X89330555Y-65929501D01*
X89335000Y-65974638D01*
X89335000Y-66613362D01*
X89330555Y-66658499D01*
X89319181Y-66695993D01*
X89300706Y-66730557D01*
X89275847Y-66760847D01*
X89245557Y-66785706D01*
X89210993Y-66804181D01*
X89173499Y-66815555D01*
X89128362Y-66820000D01*
X88389638Y-66820000D01*
X88344501Y-66815555D01*
X88307007Y-66804181D01*
X88272443Y-66785706D01*
X88242153Y-66760847D01*
X88217294Y-66730557D01*
X88198819Y-66695993D01*
X88187445Y-66658499D01*
X88183000Y-66613362D01*
X88183000Y-65974638D01*
X88187445Y-65929501D01*
X88198819Y-65892007D01*
X88217294Y-65857443D01*
X88242153Y-65827153D01*
X88272443Y-65802294D01*
X88307007Y-65783819D01*
X88344501Y-65772445D01*
X88389638Y-65768000D01*
X89128362Y-65768000D01*
X89173499Y-65772445D01*
X89173499Y-65772445D01*
G37*
G36*
X87423499Y-65772445D02*
X87460993Y-65783819D01*
X87495557Y-65802294D01*
X87525847Y-65827153D01*
X87550706Y-65857443D01*
X87569181Y-65892007D01*
X87580555Y-65929501D01*
X87585000Y-65974638D01*
X87585000Y-66613362D01*
X87580555Y-66658499D01*
X87569181Y-66695993D01*
X87550706Y-66730557D01*
X87525847Y-66760847D01*
X87495557Y-66785706D01*
X87460993Y-66804181D01*
X87423499Y-66815555D01*
X87378362Y-66820000D01*
X86639638Y-66820000D01*
X86594501Y-66815555D01*
X86557007Y-66804181D01*
X86522443Y-66785706D01*
X86492153Y-66760847D01*
X86467294Y-66730557D01*
X86448819Y-66695993D01*
X86437445Y-66658499D01*
X86433000Y-66613362D01*
X86433000Y-65974638D01*
X86437445Y-65929501D01*
X86448819Y-65892007D01*
X86467294Y-65857443D01*
X86492153Y-65827153D01*
X86522443Y-65802294D01*
X86557007Y-65783819D01*
X86594501Y-65772445D01*
X86639638Y-65768000D01*
X87378362Y-65768000D01*
X87423499Y-65772445D01*
X87423499Y-65772445D01*
G37*
G36*
X116950499Y-65609445D02*
X116987993Y-65620819D01*
X117022557Y-65639294D01*
X117052847Y-65664153D01*
X117077706Y-65694443D01*
X117096181Y-65729007D01*
X117107555Y-65766501D01*
X117112000Y-65811638D01*
X117112000Y-66550362D01*
X117107555Y-66595499D01*
X117096181Y-66632993D01*
X117077706Y-66667557D01*
X117052847Y-66697847D01*
X117022557Y-66722706D01*
X116987993Y-66741181D01*
X116950499Y-66752555D01*
X116905362Y-66757000D01*
X116266638Y-66757000D01*
X116221501Y-66752555D01*
X116184007Y-66741181D01*
X116149443Y-66722706D01*
X116119153Y-66697847D01*
X116094294Y-66667557D01*
X116075819Y-66632993D01*
X116064445Y-66595499D01*
X116060000Y-66550362D01*
X116060000Y-65811638D01*
X116064445Y-65766501D01*
X116075819Y-65729007D01*
X116094294Y-65694443D01*
X116119153Y-65664153D01*
X116149443Y-65639294D01*
X116184007Y-65620819D01*
X116221501Y-65609445D01*
X116266638Y-65605000D01*
X116905362Y-65605000D01*
X116950499Y-65609445D01*
X116950499Y-65609445D01*
G37*
G36*
X107552499Y-65609445D02*
X107589993Y-65620819D01*
X107624557Y-65639294D01*
X107654847Y-65664153D01*
X107679706Y-65694443D01*
X107698181Y-65729007D01*
X107709555Y-65766501D01*
X107714000Y-65811638D01*
X107714000Y-66550362D01*
X107709555Y-66595499D01*
X107698181Y-66632993D01*
X107679706Y-66667557D01*
X107654847Y-66697847D01*
X107624557Y-66722706D01*
X107589993Y-66741181D01*
X107552499Y-66752555D01*
X107507362Y-66757000D01*
X106868638Y-66757000D01*
X106823501Y-66752555D01*
X106786007Y-66741181D01*
X106751443Y-66722706D01*
X106721153Y-66697847D01*
X106696294Y-66667557D01*
X106677819Y-66632993D01*
X106666445Y-66595499D01*
X106662000Y-66550362D01*
X106662000Y-65811638D01*
X106666445Y-65766501D01*
X106677819Y-65729007D01*
X106696294Y-65694443D01*
X106721153Y-65664153D01*
X106751443Y-65639294D01*
X106786007Y-65620819D01*
X106823501Y-65609445D01*
X106868638Y-65605000D01*
X107507362Y-65605000D01*
X107552499Y-65609445D01*
X107552499Y-65609445D01*
G37*
G36*
X110600499Y-65609445D02*
X110637993Y-65620819D01*
X110672557Y-65639294D01*
X110702847Y-65664153D01*
X110727706Y-65694443D01*
X110746181Y-65729007D01*
X110757555Y-65766501D01*
X110762000Y-65811638D01*
X110762000Y-66550362D01*
X110757555Y-66595499D01*
X110746181Y-66632993D01*
X110727706Y-66667557D01*
X110702847Y-66697847D01*
X110672557Y-66722706D01*
X110637993Y-66741181D01*
X110600499Y-66752555D01*
X110555362Y-66757000D01*
X109916638Y-66757000D01*
X109871501Y-66752555D01*
X109834007Y-66741181D01*
X109799443Y-66722706D01*
X109769153Y-66697847D01*
X109744294Y-66667557D01*
X109725819Y-66632993D01*
X109714445Y-66595499D01*
X109710000Y-66550362D01*
X109710000Y-65811638D01*
X109714445Y-65766501D01*
X109725819Y-65729007D01*
X109744294Y-65694443D01*
X109769153Y-65664153D01*
X109799443Y-65639294D01*
X109834007Y-65620819D01*
X109871501Y-65609445D01*
X109916638Y-65605000D01*
X110555362Y-65605000D01*
X110600499Y-65609445D01*
X110600499Y-65609445D01*
G37*
G36*
X113648499Y-65609445D02*
X113685993Y-65620819D01*
X113720557Y-65639294D01*
X113750847Y-65664153D01*
X113775706Y-65694443D01*
X113794181Y-65729007D01*
X113805555Y-65766501D01*
X113810000Y-65811638D01*
X113810000Y-66550362D01*
X113805555Y-66595499D01*
X113794181Y-66632993D01*
X113775706Y-66667557D01*
X113750847Y-66697847D01*
X113720557Y-66722706D01*
X113685993Y-66741181D01*
X113648499Y-66752555D01*
X113603362Y-66757000D01*
X112964638Y-66757000D01*
X112919501Y-66752555D01*
X112882007Y-66741181D01*
X112847443Y-66722706D01*
X112817153Y-66697847D01*
X112792294Y-66667557D01*
X112773819Y-66632993D01*
X112762445Y-66595499D01*
X112758000Y-66550362D01*
X112758000Y-65811638D01*
X112762445Y-65766501D01*
X112773819Y-65729007D01*
X112792294Y-65694443D01*
X112817153Y-65664153D01*
X112847443Y-65639294D01*
X112882007Y-65620819D01*
X112919501Y-65609445D01*
X112964638Y-65605000D01*
X113603362Y-65605000D01*
X113648499Y-65609445D01*
X113648499Y-65609445D01*
G37*
G36*
X93074499Y-63549445D02*
X93111993Y-63560819D01*
X93146557Y-63579294D01*
X93176847Y-63604153D01*
X93201706Y-63634443D01*
X93220181Y-63669007D01*
X93231555Y-63706501D01*
X93236000Y-63751638D01*
X93236000Y-64490362D01*
X93231555Y-64535499D01*
X93220181Y-64572993D01*
X93201706Y-64607557D01*
X93176847Y-64637847D01*
X93146557Y-64662706D01*
X93111993Y-64681181D01*
X93074499Y-64692555D01*
X93029362Y-64697000D01*
X92390638Y-64697000D01*
X92345501Y-64692555D01*
X92308007Y-64681181D01*
X92273443Y-64662706D01*
X92243153Y-64637847D01*
X92218294Y-64607557D01*
X92199819Y-64572993D01*
X92188445Y-64535499D01*
X92184000Y-64490362D01*
X92184000Y-63751638D01*
X92188445Y-63706501D01*
X92199819Y-63669007D01*
X92218294Y-63634443D01*
X92243153Y-63604153D01*
X92273443Y-63579294D01*
X92308007Y-63560819D01*
X92345501Y-63549445D01*
X92390638Y-63545000D01*
X93029362Y-63545000D01*
X93074499Y-63549445D01*
X93074499Y-63549445D01*
G37*
G36*
X88931000Y-64557000D02*
X88429000Y-64557000D01*
X88429000Y-63835000D01*
X88931000Y-63835000D01*
X88931000Y-64557000D01*
X88931000Y-64557000D01*
G37*
G36*
X109632000Y-64486000D02*
X107980000Y-64486000D01*
X107980000Y-63784000D01*
X109632000Y-63784000D01*
X109632000Y-64486000D01*
X109632000Y-64486000D01*
G37*
G36*
X115032000Y-64486000D02*
X113380000Y-64486000D01*
X113380000Y-63784000D01*
X115032000Y-63784000D01*
X115032000Y-64486000D01*
X115032000Y-64486000D01*
G37*
G36*
X86831000Y-63607000D02*
X86329000Y-63607000D01*
X86329000Y-62885000D01*
X86831000Y-62885000D01*
X86831000Y-63607000D01*
X86831000Y-63607000D01*
G37*
G36*
X115032000Y-63216000D02*
X113380000Y-63216000D01*
X113380000Y-62514000D01*
X115032000Y-62514000D01*
X115032000Y-63216000D01*
X115032000Y-63216000D01*
G37*
G36*
X109632000Y-63216000D02*
X107980000Y-63216000D01*
X107980000Y-62514000D01*
X109632000Y-62514000D01*
X109632000Y-63216000D01*
X109632000Y-63216000D01*
G37*
G36*
X93074499Y-61799445D02*
X93111993Y-61810819D01*
X93146557Y-61829294D01*
X93176847Y-61854153D01*
X93201706Y-61884443D01*
X93220181Y-61919007D01*
X93231555Y-61956501D01*
X93236000Y-62001638D01*
X93236000Y-62740362D01*
X93231555Y-62785499D01*
X93220181Y-62822993D01*
X93201706Y-62857557D01*
X93176847Y-62887847D01*
X93146557Y-62912706D01*
X93111993Y-62931181D01*
X93074499Y-62942555D01*
X93029362Y-62947000D01*
X92390638Y-62947000D01*
X92345501Y-62942555D01*
X92308007Y-62931181D01*
X92273443Y-62912706D01*
X92243153Y-62887847D01*
X92218294Y-62857557D01*
X92199819Y-62822993D01*
X92188445Y-62785499D01*
X92184000Y-62740362D01*
X92184000Y-62001638D01*
X92188445Y-61956501D01*
X92199819Y-61919007D01*
X92218294Y-61884443D01*
X92243153Y-61854153D01*
X92273443Y-61829294D01*
X92308007Y-61810819D01*
X92345501Y-61799445D01*
X92390638Y-61795000D01*
X93029362Y-61795000D01*
X93074499Y-61799445D01*
X93074499Y-61799445D01*
G37*
G36*
X88931000Y-62657000D02*
X88429000Y-62657000D01*
X88429000Y-61935000D01*
X88931000Y-61935000D01*
X88931000Y-62657000D01*
X88931000Y-62657000D01*
G37*
G36*
X74772527Y-58940736D02*
X74872410Y-58960604D01*
X75154674Y-59077521D01*
X75408705Y-59247259D01*
X75624741Y-59463295D01*
X75794479Y-59717326D01*
X75900796Y-59974000D01*
X75911396Y-59999591D01*
X75971000Y-60299238D01*
X75971000Y-60604762D01*
X75949285Y-60713931D01*
X75911396Y-60904410D01*
X75794479Y-61186674D01*
X75624741Y-61440705D01*
X75408705Y-61656741D01*
X75154674Y-61826479D01*
X74872410Y-61943396D01*
X74802238Y-61957354D01*
X74572762Y-62003000D01*
X74267238Y-62003000D01*
X74037762Y-61957354D01*
X73967590Y-61943396D01*
X73685326Y-61826479D01*
X73431295Y-61656741D01*
X73215259Y-61440705D01*
X73045521Y-61186674D01*
X72928604Y-60904410D01*
X72890715Y-60713931D01*
X72869000Y-60604762D01*
X72869000Y-60299238D01*
X72928604Y-59999591D01*
X72939204Y-59974000D01*
X73045521Y-59717326D01*
X73215259Y-59463295D01*
X73431295Y-59247259D01*
X73685326Y-59077521D01*
X73967590Y-58960604D01*
X74067473Y-58940736D01*
X74267238Y-58901000D01*
X74572762Y-58901000D01*
X74772527Y-58940736D01*
X74772527Y-58940736D01*
G37*
G36*
X109632000Y-61946000D02*
X107980000Y-61946000D01*
X107980000Y-61244000D01*
X109632000Y-61244000D01*
X109632000Y-61946000D01*
X109632000Y-61946000D01*
G37*
G36*
X115032000Y-61946000D02*
X113380000Y-61946000D01*
X113380000Y-61244000D01*
X115032000Y-61244000D01*
X115032000Y-61946000D01*
X115032000Y-61946000D01*
G37*
G36*
X107240591Y-57636602D02*
X103102602Y-61774591D01*
X102111238Y-60783227D01*
X106249227Y-56645238D01*
X107240591Y-57636602D01*
X107240591Y-57636602D01*
G37*
G36*
X101088762Y-60783227D02*
X100097398Y-61774591D01*
X95959409Y-57636602D01*
X96950773Y-56645238D01*
X101088762Y-60783227D01*
X101088762Y-60783227D01*
G37*
G36*
X79393043Y-59655122D02*
X79427390Y-59665541D01*
X79459035Y-59682456D01*
X79486777Y-59705223D01*
X79509544Y-59732965D01*
X79526459Y-59764610D01*
X79536878Y-59798957D01*
X79541000Y-59840807D01*
X79541000Y-61063193D01*
X79536878Y-61105043D01*
X79526459Y-61139390D01*
X79509544Y-61171035D01*
X79486777Y-61198777D01*
X79459035Y-61221544D01*
X79427390Y-61238459D01*
X79393043Y-61248878D01*
X79351193Y-61253000D01*
X78128807Y-61253000D01*
X78086957Y-61248878D01*
X78052610Y-61238459D01*
X78020965Y-61221544D01*
X77993223Y-61198777D01*
X77970456Y-61171035D01*
X77953541Y-61139390D01*
X77943122Y-61105043D01*
X77939000Y-61063193D01*
X77939000Y-59840807D01*
X77943122Y-59798957D01*
X77953541Y-59764610D01*
X77970456Y-59732965D01*
X77993223Y-59705223D01*
X78020965Y-59682456D01*
X78052610Y-59665541D01*
X78086957Y-59655122D01*
X78128807Y-59651000D01*
X79351193Y-59651000D01*
X79393043Y-59655122D01*
X79393043Y-59655122D01*
G37*
G36*
X81973643Y-59681781D02*
X82119415Y-59742162D01*
X82250611Y-59829824D01*
X82362176Y-59941389D01*
X82449838Y-60072585D01*
X82510219Y-60218357D01*
X82541000Y-60373107D01*
X82541000Y-60530893D01*
X82510219Y-60685643D01*
X82449838Y-60831415D01*
X82362176Y-60962611D01*
X82250611Y-61074176D01*
X82119415Y-61161838D01*
X81973643Y-61222219D01*
X81818893Y-61253000D01*
X81661107Y-61253000D01*
X81506357Y-61222219D01*
X81360585Y-61161838D01*
X81229389Y-61074176D01*
X81117824Y-60962611D01*
X81030162Y-60831415D01*
X80969781Y-60685643D01*
X80939000Y-60530893D01*
X80939000Y-60373107D01*
X80969781Y-60218357D01*
X81030162Y-60072585D01*
X81117824Y-59941389D01*
X81229389Y-59829824D01*
X81360585Y-59742162D01*
X81506357Y-59681781D01*
X81661107Y-59651000D01*
X81818893Y-59651000D01*
X81973643Y-59681781D01*
X81973643Y-59681781D01*
G37*
G36*
X115032000Y-60676000D02*
X113380000Y-60676000D01*
X113380000Y-59974000D01*
X115032000Y-59974000D01*
X115032000Y-60676000D01*
X115032000Y-60676000D01*
G37*
G36*
X109632000Y-60676000D02*
X107980000Y-60676000D01*
X107980000Y-59974000D01*
X109632000Y-59974000D01*
X109632000Y-60676000D01*
X109632000Y-60676000D01*
G37*
G36*
X93074499Y-58469445D02*
X93111993Y-58480819D01*
X93146557Y-58499294D01*
X93176847Y-58524153D01*
X93201706Y-58554443D01*
X93220181Y-58589007D01*
X93231555Y-58626501D01*
X93236000Y-58671638D01*
X93236000Y-59410362D01*
X93231555Y-59455499D01*
X93220181Y-59492993D01*
X93201706Y-59527557D01*
X93176847Y-59557847D01*
X93146557Y-59582706D01*
X93111993Y-59601181D01*
X93074499Y-59612555D01*
X93029362Y-59617000D01*
X92390638Y-59617000D01*
X92345501Y-59612555D01*
X92308007Y-59601181D01*
X92273443Y-59582706D01*
X92243153Y-59557847D01*
X92218294Y-59527557D01*
X92199819Y-59492993D01*
X92188445Y-59455499D01*
X92184000Y-59410362D01*
X92184000Y-58671638D01*
X92188445Y-58626501D01*
X92199819Y-58589007D01*
X92218294Y-58554443D01*
X92243153Y-58524153D01*
X92273443Y-58499294D01*
X92308007Y-58480819D01*
X92345501Y-58469445D01*
X92390638Y-58465000D01*
X93029362Y-58465000D01*
X93074499Y-58469445D01*
X93074499Y-58469445D01*
G37*
G36*
X88931000Y-59477000D02*
X88429000Y-59477000D01*
X88429000Y-58755000D01*
X88931000Y-58755000D01*
X88931000Y-59477000D01*
X88931000Y-59477000D01*
G37*
G36*
X86831000Y-58527000D02*
X86329000Y-58527000D01*
X86329000Y-57805000D01*
X86831000Y-57805000D01*
X86831000Y-58527000D01*
X86831000Y-58527000D01*
G37*
G36*
X93074499Y-56719445D02*
X93111993Y-56730819D01*
X93146557Y-56749294D01*
X93176847Y-56774153D01*
X93201706Y-56804443D01*
X93220181Y-56839007D01*
X93231555Y-56876501D01*
X93236000Y-56921638D01*
X93236000Y-57660362D01*
X93231555Y-57705499D01*
X93220181Y-57742993D01*
X93201706Y-57777557D01*
X93176847Y-57807847D01*
X93146557Y-57832706D01*
X93111993Y-57851181D01*
X93074499Y-57862555D01*
X93029362Y-57867000D01*
X92390638Y-57867000D01*
X92345501Y-57862555D01*
X92308007Y-57851181D01*
X92273443Y-57832706D01*
X92243153Y-57807847D01*
X92218294Y-57777557D01*
X92199819Y-57742993D01*
X92188445Y-57705499D01*
X92184000Y-57660362D01*
X92184000Y-56921638D01*
X92188445Y-56876501D01*
X92199819Y-56839007D01*
X92218294Y-56804443D01*
X92243153Y-56774153D01*
X92273443Y-56749294D01*
X92308007Y-56730819D01*
X92345501Y-56719445D01*
X92390638Y-56715000D01*
X93029362Y-56715000D01*
X93074499Y-56719445D01*
X93074499Y-56719445D01*
G37*
G36*
X88931000Y-57577000D02*
X88429000Y-57577000D01*
X88429000Y-56855000D01*
X88931000Y-56855000D01*
X88931000Y-57577000D01*
X88931000Y-57577000D01*
G37*
G36*
X107240591Y-54631398D02*
X106249227Y-55622762D01*
X102111238Y-51484773D01*
X103102602Y-50493409D01*
X107240591Y-54631398D01*
X107240591Y-54631398D01*
G37*
G36*
X101088762Y-51484773D02*
X96950773Y-55622762D01*
X95959409Y-54631398D01*
X100097398Y-50493409D01*
X101088762Y-51484773D01*
X101088762Y-51484773D01*
G37*
G36*
X93074499Y-53643445D02*
X93111993Y-53654819D01*
X93146557Y-53673294D01*
X93176847Y-53698153D01*
X93201706Y-53728443D01*
X93220181Y-53763007D01*
X93231555Y-53800501D01*
X93236000Y-53845638D01*
X93236000Y-54584362D01*
X93231555Y-54629499D01*
X93220181Y-54666993D01*
X93201706Y-54701557D01*
X93176847Y-54731847D01*
X93146557Y-54756706D01*
X93111993Y-54775181D01*
X93074499Y-54786555D01*
X93029362Y-54791000D01*
X92390638Y-54791000D01*
X92345501Y-54786555D01*
X92308007Y-54775181D01*
X92273443Y-54756706D01*
X92243153Y-54731847D01*
X92218294Y-54701557D01*
X92199819Y-54666993D01*
X92188445Y-54629499D01*
X92184000Y-54584362D01*
X92184000Y-53845638D01*
X92188445Y-53800501D01*
X92199819Y-53763007D01*
X92218294Y-53728443D01*
X92243153Y-53698153D01*
X92273443Y-53673294D01*
X92308007Y-53654819D01*
X92345501Y-53643445D01*
X92390638Y-53639000D01*
X93029362Y-53639000D01*
X93074499Y-53643445D01*
X93074499Y-53643445D01*
G37*
G36*
X88931000Y-54651000D02*
X88429000Y-54651000D01*
X88429000Y-53929000D01*
X88931000Y-53929000D01*
X88931000Y-54651000D01*
X88931000Y-54651000D01*
G37*
G36*
X86831000Y-53701000D02*
X86329000Y-53701000D01*
X86329000Y-52979000D01*
X86831000Y-52979000D01*
X86831000Y-53701000D01*
X86831000Y-53701000D01*
G37*
G36*
X112247643Y-52061781D02*
X112393415Y-52122162D01*
X112524611Y-52209824D01*
X112636176Y-52321389D01*
X112723838Y-52452585D01*
X112784219Y-52598357D01*
X112815000Y-52753107D01*
X112815000Y-52910893D01*
X112784219Y-53065643D01*
X112723838Y-53211415D01*
X112636176Y-53342611D01*
X112524611Y-53454176D01*
X112393415Y-53541838D01*
X112247643Y-53602219D01*
X112092893Y-53633000D01*
X111935107Y-53633000D01*
X111780357Y-53602219D01*
X111634585Y-53541838D01*
X111503389Y-53454176D01*
X111391824Y-53342611D01*
X111304162Y-53211415D01*
X111243781Y-53065643D01*
X111213000Y-52910893D01*
X111213000Y-52753107D01*
X111243781Y-52598357D01*
X111304162Y-52452585D01*
X111391824Y-52321389D01*
X111503389Y-52209824D01*
X111634585Y-52122162D01*
X111780357Y-52061781D01*
X111935107Y-52031000D01*
X112092893Y-52031000D01*
X112247643Y-52061781D01*
X112247643Y-52061781D01*
G37*
G36*
X93074499Y-51893445D02*
X93111993Y-51904819D01*
X93146557Y-51923294D01*
X93176847Y-51948153D01*
X93201706Y-51978443D01*
X93220181Y-52013007D01*
X93231555Y-52050501D01*
X93236000Y-52095638D01*
X93236000Y-52834362D01*
X93231555Y-52879499D01*
X93220181Y-52916993D01*
X93201706Y-52951557D01*
X93176847Y-52981847D01*
X93146557Y-53006706D01*
X93111993Y-53025181D01*
X93074499Y-53036555D01*
X93029362Y-53041000D01*
X92390638Y-53041000D01*
X92345501Y-53036555D01*
X92308007Y-53025181D01*
X92273443Y-53006706D01*
X92243153Y-52981847D01*
X92218294Y-52951557D01*
X92199819Y-52916993D01*
X92188445Y-52879499D01*
X92184000Y-52834362D01*
X92184000Y-52095638D01*
X92188445Y-52050501D01*
X92199819Y-52013007D01*
X92218294Y-51978443D01*
X92243153Y-51948153D01*
X92273443Y-51923294D01*
X92308007Y-51904819D01*
X92345501Y-51893445D01*
X92390638Y-51889000D01*
X93029362Y-51889000D01*
X93074499Y-51893445D01*
X93074499Y-51893445D01*
G37*
G36*
X88931000Y-52751000D02*
X88429000Y-52751000D01*
X88429000Y-52029000D01*
X88931000Y-52029000D01*
X88931000Y-52751000D01*
X88931000Y-52751000D01*
G37*
G36*
X79393043Y-50257122D02*
X79427390Y-50267541D01*
X79459035Y-50284456D01*
X79486777Y-50307223D01*
X79509544Y-50334965D01*
X79526459Y-50366610D01*
X79536878Y-50400957D01*
X79541000Y-50442807D01*
X79541000Y-51665193D01*
X79536878Y-51707043D01*
X79526459Y-51741390D01*
X79509544Y-51773035D01*
X79486777Y-51800777D01*
X79459035Y-51823544D01*
X79427390Y-51840459D01*
X79393043Y-51850878D01*
X79351193Y-51855000D01*
X78128807Y-51855000D01*
X78086957Y-51850878D01*
X78052610Y-51840459D01*
X78020965Y-51823544D01*
X77993223Y-51800777D01*
X77970456Y-51773035D01*
X77953541Y-51741390D01*
X77943122Y-51707043D01*
X77939000Y-51665193D01*
X77939000Y-50442807D01*
X77943122Y-50400957D01*
X77953541Y-50366610D01*
X77970456Y-50334965D01*
X77993223Y-50307223D01*
X78020965Y-50284456D01*
X78052610Y-50267541D01*
X78086957Y-50257122D01*
X78128807Y-50253000D01*
X79351193Y-50253000D01*
X79393043Y-50257122D01*
X79393043Y-50257122D01*
G37*
G36*
X81973643Y-50283781D02*
X82119415Y-50344162D01*
X82250611Y-50431824D01*
X82362176Y-50543389D01*
X82449838Y-50674585D01*
X82510219Y-50820357D01*
X82541000Y-50975107D01*
X82541000Y-51132893D01*
X82510219Y-51287643D01*
X82449838Y-51433415D01*
X82362176Y-51564611D01*
X82250611Y-51676176D01*
X82119415Y-51763838D01*
X81973643Y-51824219D01*
X81818893Y-51855000D01*
X81661107Y-51855000D01*
X81506357Y-51824219D01*
X81360585Y-51763838D01*
X81229389Y-51676176D01*
X81117824Y-51564611D01*
X81030162Y-51433415D01*
X80969781Y-51287643D01*
X80939000Y-51132893D01*
X80939000Y-50975107D01*
X80969781Y-50820357D01*
X81030162Y-50674585D01*
X81117824Y-50543389D01*
X81229389Y-50431824D01*
X81360585Y-50344162D01*
X81506357Y-50283781D01*
X81661107Y-50253000D01*
X81818893Y-50253000D01*
X81973643Y-50283781D01*
X81973643Y-50283781D01*
G37*
G36*
X74772527Y-48042736D02*
X74872410Y-48062604D01*
X75154674Y-48179521D01*
X75408705Y-48349259D01*
X75624741Y-48565295D01*
X75794479Y-48819326D01*
X75911396Y-49101590D01*
X75911396Y-49101591D01*
X75971000Y-49401238D01*
X75971000Y-49706762D01*
X75931264Y-49906527D01*
X75911396Y-50006410D01*
X75794479Y-50288674D01*
X75624741Y-50542705D01*
X75408705Y-50758741D01*
X75154674Y-50928479D01*
X74872410Y-51045396D01*
X74772527Y-51065264D01*
X74572762Y-51105000D01*
X74267238Y-51105000D01*
X74067473Y-51065264D01*
X73967590Y-51045396D01*
X73685326Y-50928479D01*
X73431295Y-50758741D01*
X73215259Y-50542705D01*
X73045521Y-50288674D01*
X72928604Y-50006410D01*
X72908736Y-49906527D01*
X72869000Y-49706762D01*
X72869000Y-49401238D01*
X72928604Y-49101591D01*
X72928604Y-49101590D01*
X73045521Y-48819326D01*
X73215259Y-48565295D01*
X73431295Y-48349259D01*
X73685326Y-48179521D01*
X73967590Y-48062604D01*
X74067473Y-48042736D01*
X74267238Y-48003000D01*
X74572762Y-48003000D01*
X74772527Y-48042736D01*
X74772527Y-48042736D01*
G37*
G36*
X108782820Y-48596958D02*
X108928592Y-48657339D01*
X109059788Y-48745001D01*
X109171353Y-48856566D01*
X109259015Y-48987762D01*
X109319396Y-49133534D01*
X109350177Y-49288284D01*
X109350177Y-49446070D01*
X109319396Y-49600820D01*
X109259015Y-49746592D01*
X109171353Y-49877788D01*
X109059788Y-49989353D01*
X108928592Y-50077015D01*
X108782820Y-50137396D01*
X108628070Y-50168177D01*
X108470284Y-50168177D01*
X108315534Y-50137396D01*
X108169762Y-50077015D01*
X108038566Y-49989353D01*
X107927001Y-49877788D01*
X107839339Y-49746592D01*
X107778958Y-49600820D01*
X107748177Y-49446070D01*
X107748177Y-49288284D01*
X107778958Y-49133534D01*
X107839339Y-48987762D01*
X107927001Y-48856566D01*
X108038566Y-48745001D01*
X108169762Y-48657339D01*
X108315534Y-48596958D01*
X108470284Y-48566177D01*
X108628070Y-48566177D01*
X108782820Y-48596958D01*
X108782820Y-48596958D01*
G37*
G36*
X117621499Y-48754445D02*
X117658993Y-48765819D01*
X117693557Y-48784294D01*
X117723847Y-48809153D01*
X117748706Y-48839443D01*
X117767181Y-48874007D01*
X117778555Y-48911501D01*
X117783000Y-48956638D01*
X117783000Y-49595362D01*
X117778555Y-49640499D01*
X117767181Y-49677993D01*
X117748706Y-49712557D01*
X117723847Y-49742847D01*
X117693557Y-49767706D01*
X117658993Y-49786181D01*
X117621499Y-49797555D01*
X117576362Y-49802000D01*
X116837638Y-49802000D01*
X116792501Y-49797555D01*
X116755007Y-49786181D01*
X116720443Y-49767706D01*
X116690153Y-49742847D01*
X116665294Y-49712557D01*
X116646819Y-49677993D01*
X116635445Y-49640499D01*
X116631000Y-49595362D01*
X116631000Y-48956638D01*
X116635445Y-48911501D01*
X116646819Y-48874007D01*
X116665294Y-48839443D01*
X116690153Y-48809153D01*
X116720443Y-48784294D01*
X116755007Y-48765819D01*
X116792501Y-48754445D01*
X116837638Y-48750000D01*
X117576362Y-48750000D01*
X117621499Y-48754445D01*
X117621499Y-48754445D01*
G37*
G36*
X115871499Y-48754445D02*
X115908993Y-48765819D01*
X115943557Y-48784294D01*
X115973847Y-48809153D01*
X115998706Y-48839443D01*
X116017181Y-48874007D01*
X116028555Y-48911501D01*
X116033000Y-48956638D01*
X116033000Y-49595362D01*
X116028555Y-49640499D01*
X116017181Y-49677993D01*
X115998706Y-49712557D01*
X115973847Y-49742847D01*
X115943557Y-49767706D01*
X115908993Y-49786181D01*
X115871499Y-49797555D01*
X115826362Y-49802000D01*
X115087638Y-49802000D01*
X115042501Y-49797555D01*
X115005007Y-49786181D01*
X114970443Y-49767706D01*
X114940153Y-49742847D01*
X114915294Y-49712557D01*
X114896819Y-49677993D01*
X114885445Y-49640499D01*
X114881000Y-49595362D01*
X114881000Y-48956638D01*
X114885445Y-48911501D01*
X114896819Y-48874007D01*
X114915294Y-48839443D01*
X114940153Y-48809153D01*
X114970443Y-48784294D01*
X115005007Y-48765819D01*
X115042501Y-48754445D01*
X115087638Y-48750000D01*
X115826362Y-48750000D01*
X115871499Y-48754445D01*
X115871499Y-48754445D01*
G37*
G36*
X93074499Y-48563445D02*
X93111993Y-48574819D01*
X93146557Y-48593294D01*
X93176847Y-48618153D01*
X93201706Y-48648443D01*
X93220181Y-48683007D01*
X93231555Y-48720501D01*
X93236000Y-48765638D01*
X93236000Y-49504362D01*
X93231555Y-49549499D01*
X93220181Y-49586993D01*
X93201706Y-49621557D01*
X93176847Y-49651847D01*
X93146557Y-49676706D01*
X93111993Y-49695181D01*
X93074499Y-49706555D01*
X93029362Y-49711000D01*
X92390638Y-49711000D01*
X92345501Y-49706555D01*
X92308007Y-49695181D01*
X92273443Y-49676706D01*
X92243153Y-49651847D01*
X92218294Y-49621557D01*
X92199819Y-49586993D01*
X92188445Y-49549499D01*
X92184000Y-49504362D01*
X92184000Y-48765638D01*
X92188445Y-48720501D01*
X92199819Y-48683007D01*
X92218294Y-48648443D01*
X92243153Y-48618153D01*
X92273443Y-48593294D01*
X92308007Y-48574819D01*
X92345501Y-48563445D01*
X92390638Y-48559000D01*
X93029362Y-48559000D01*
X93074499Y-48563445D01*
X93074499Y-48563445D01*
G37*
G36*
X88931000Y-49571000D02*
X88429000Y-49571000D01*
X88429000Y-48849000D01*
X88931000Y-48849000D01*
X88931000Y-49571000D01*
X88931000Y-49571000D01*
G37*
G36*
X78973643Y-47283781D02*
X79119415Y-47344162D01*
X79250611Y-47431824D01*
X79362176Y-47543389D01*
X79449838Y-47674585D01*
X79510219Y-47820357D01*
X79541000Y-47975107D01*
X79541000Y-48132893D01*
X79510219Y-48287643D01*
X79449838Y-48433415D01*
X79362176Y-48564611D01*
X79250611Y-48676176D01*
X79119415Y-48763838D01*
X78973643Y-48824219D01*
X78818893Y-48855000D01*
X78661107Y-48855000D01*
X78506357Y-48824219D01*
X78360585Y-48763838D01*
X78229389Y-48676176D01*
X78117824Y-48564611D01*
X78030162Y-48433415D01*
X77969781Y-48287643D01*
X77939000Y-48132893D01*
X77939000Y-47975107D01*
X77969781Y-47820357D01*
X78030162Y-47674585D01*
X78117824Y-47543389D01*
X78229389Y-47431824D01*
X78360585Y-47344162D01*
X78506357Y-47283781D01*
X78661107Y-47253000D01*
X78818893Y-47253000D01*
X78973643Y-47283781D01*
X78973643Y-47283781D01*
G37*
G36*
X81973643Y-47283781D02*
X82119415Y-47344162D01*
X82250611Y-47431824D01*
X82362176Y-47543389D01*
X82449838Y-47674585D01*
X82510219Y-47820357D01*
X82541000Y-47975107D01*
X82541000Y-48132893D01*
X82510219Y-48287643D01*
X82449838Y-48433415D01*
X82362176Y-48564611D01*
X82250611Y-48676176D01*
X82119415Y-48763838D01*
X81973643Y-48824219D01*
X81818893Y-48855000D01*
X81661107Y-48855000D01*
X81506357Y-48824219D01*
X81360585Y-48763838D01*
X81229389Y-48676176D01*
X81117824Y-48564611D01*
X81030162Y-48433415D01*
X80969781Y-48287643D01*
X80939000Y-48132893D01*
X80939000Y-47975107D01*
X80969781Y-47820357D01*
X81030162Y-47674585D01*
X81117824Y-47543389D01*
X81229389Y-47431824D01*
X81360585Y-47344162D01*
X81506357Y-47283781D01*
X81661107Y-47253000D01*
X81818893Y-47253000D01*
X81973643Y-47283781D01*
X81973643Y-47283781D01*
G37*
G36*
X86831000Y-48621000D02*
X86329000Y-48621000D01*
X86329000Y-47899000D01*
X86831000Y-47899000D01*
X86831000Y-48621000D01*
X86831000Y-48621000D01*
G37*
G36*
X93074499Y-46813445D02*
X93111993Y-46824819D01*
X93146557Y-46843294D01*
X93176847Y-46868153D01*
X93201706Y-46898443D01*
X93220181Y-46933007D01*
X93231555Y-46970501D01*
X93236000Y-47015638D01*
X93236000Y-47754362D01*
X93231555Y-47799499D01*
X93220181Y-47836993D01*
X93201706Y-47871557D01*
X93176847Y-47901847D01*
X93146557Y-47926706D01*
X93111993Y-47945181D01*
X93074499Y-47956555D01*
X93029362Y-47961000D01*
X92390638Y-47961000D01*
X92345501Y-47956555D01*
X92308007Y-47945181D01*
X92273443Y-47926706D01*
X92243153Y-47901847D01*
X92218294Y-47871557D01*
X92199819Y-47836993D01*
X92188445Y-47799499D01*
X92184000Y-47754362D01*
X92184000Y-47015638D01*
X92188445Y-46970501D01*
X92199819Y-46933007D01*
X92218294Y-46898443D01*
X92243153Y-46868153D01*
X92273443Y-46843294D01*
X92308007Y-46824819D01*
X92345501Y-46813445D01*
X92390638Y-46809000D01*
X93029362Y-46809000D01*
X93074499Y-46813445D01*
X93074499Y-46813445D01*
G37*
G36*
X88931000Y-47671000D02*
X88429000Y-47671000D01*
X88429000Y-46949000D01*
X88931000Y-46949000D01*
X88931000Y-47671000D01*
X88931000Y-47671000D01*
G37*
G36*
X100948442Y-44825518D02*
X101014627Y-44832037D01*
X101127853Y-44866384D01*
X101184467Y-44883557D01*
X101323087Y-44957652D01*
X101340991Y-44967222D01*
X101376729Y-44996552D01*
X101478186Y-45079814D01*
X101561448Y-45181271D01*
X101590778Y-45217009D01*
X101590779Y-45217011D01*
X101674443Y-45373533D01*
X101674443Y-45373534D01*
X101725963Y-45543373D01*
X101743359Y-45720000D01*
X101725963Y-45896627D01*
X101691616Y-46009853D01*
X101674443Y-46066467D01*
X101600348Y-46205087D01*
X101590778Y-46222991D01*
X101579281Y-46237000D01*
X101478186Y-46360186D01*
X101379899Y-46440847D01*
X101340991Y-46472778D01*
X101340989Y-46472779D01*
X101184467Y-46556443D01*
X101127853Y-46573616D01*
X101014627Y-46607963D01*
X100948443Y-46614481D01*
X100882260Y-46621000D01*
X100793740Y-46621000D01*
X100727558Y-46614482D01*
X100661373Y-46607963D01*
X100548147Y-46573616D01*
X100491533Y-46556443D01*
X100335011Y-46472779D01*
X100335009Y-46472778D01*
X100296101Y-46440847D01*
X100197814Y-46360186D01*
X100096719Y-46237000D01*
X100085222Y-46222991D01*
X100075652Y-46205087D01*
X100001557Y-46066467D01*
X99984384Y-46009853D01*
X99950037Y-45896627D01*
X99932641Y-45720000D01*
X99950037Y-45543373D01*
X100001557Y-45373534D01*
X100001557Y-45373533D01*
X100085221Y-45217011D01*
X100085222Y-45217009D01*
X100114552Y-45181271D01*
X100197814Y-45079814D01*
X100299271Y-44996552D01*
X100335009Y-44967222D01*
X100352913Y-44957652D01*
X100491533Y-44883557D01*
X100548147Y-44866384D01*
X100661373Y-44832037D01*
X100727558Y-44825518D01*
X100793740Y-44819000D01*
X100882260Y-44819000D01*
X100948442Y-44825518D01*
X100948442Y-44825518D01*
G37*
G36*
X104279000Y-46621000D02*
X102477000Y-46621000D01*
X102477000Y-44819000D01*
X104279000Y-44819000D01*
X104279000Y-46621000D01*
X104279000Y-46621000D01*
G37*
G36*
X95868442Y-44825518D02*
X95934627Y-44832037D01*
X96047853Y-44866384D01*
X96104467Y-44883557D01*
X96243087Y-44957652D01*
X96260991Y-44967222D01*
X96296729Y-44996552D01*
X96398186Y-45079814D01*
X96481448Y-45181271D01*
X96510778Y-45217009D01*
X96510779Y-45217011D01*
X96594443Y-45373533D01*
X96594443Y-45373534D01*
X96645963Y-45543373D01*
X96663359Y-45720000D01*
X96645963Y-45896627D01*
X96611616Y-46009853D01*
X96594443Y-46066467D01*
X96520348Y-46205087D01*
X96510778Y-46222991D01*
X96499281Y-46237000D01*
X96398186Y-46360186D01*
X96299899Y-46440847D01*
X96260991Y-46472778D01*
X96260989Y-46472779D01*
X96104467Y-46556443D01*
X96047853Y-46573616D01*
X95934627Y-46607963D01*
X95868443Y-46614481D01*
X95802260Y-46621000D01*
X95713740Y-46621000D01*
X95647558Y-46614482D01*
X95581373Y-46607963D01*
X95468147Y-46573616D01*
X95411533Y-46556443D01*
X95255011Y-46472779D01*
X95255009Y-46472778D01*
X95216101Y-46440847D01*
X95117814Y-46360186D01*
X95016719Y-46237000D01*
X95005222Y-46222991D01*
X94995652Y-46205087D01*
X94921557Y-46066467D01*
X94904384Y-46009853D01*
X94870037Y-45896627D01*
X94852641Y-45720000D01*
X94870037Y-45543373D01*
X94921557Y-45373534D01*
X94921557Y-45373533D01*
X95005221Y-45217011D01*
X95005222Y-45217009D01*
X95034552Y-45181271D01*
X95117814Y-45079814D01*
X95219271Y-44996552D01*
X95255009Y-44967222D01*
X95272913Y-44957652D01*
X95411533Y-44883557D01*
X95468147Y-44866384D01*
X95581373Y-44832037D01*
X95647558Y-44825518D01*
X95713740Y-44819000D01*
X95802260Y-44819000D01*
X95868442Y-44825518D01*
X95868442Y-44825518D01*
G37*
G36*
X98408442Y-44825518D02*
X98474627Y-44832037D01*
X98587853Y-44866384D01*
X98644467Y-44883557D01*
X98783087Y-44957652D01*
X98800991Y-44967222D01*
X98836729Y-44996552D01*
X98938186Y-45079814D01*
X99021448Y-45181271D01*
X99050778Y-45217009D01*
X99050779Y-45217011D01*
X99134443Y-45373533D01*
X99134443Y-45373534D01*
X99185963Y-45543373D01*
X99203359Y-45720000D01*
X99185963Y-45896627D01*
X99151616Y-46009853D01*
X99134443Y-46066467D01*
X99060348Y-46205087D01*
X99050778Y-46222991D01*
X99039281Y-46237000D01*
X98938186Y-46360186D01*
X98839899Y-46440847D01*
X98800991Y-46472778D01*
X98800989Y-46472779D01*
X98644467Y-46556443D01*
X98587853Y-46573616D01*
X98474627Y-46607963D01*
X98408443Y-46614481D01*
X98342260Y-46621000D01*
X98253740Y-46621000D01*
X98187558Y-46614482D01*
X98121373Y-46607963D01*
X98008147Y-46573616D01*
X97951533Y-46556443D01*
X97795011Y-46472779D01*
X97795009Y-46472778D01*
X97756101Y-46440847D01*
X97657814Y-46360186D01*
X97556719Y-46237000D01*
X97545222Y-46222991D01*
X97535652Y-46205087D01*
X97461557Y-46066467D01*
X97444384Y-46009853D01*
X97410037Y-45896627D01*
X97392641Y-45720000D01*
X97410037Y-45543373D01*
X97461557Y-45373534D01*
X97461557Y-45373533D01*
X97545221Y-45217011D01*
X97545222Y-45217009D01*
X97574552Y-45181271D01*
X97657814Y-45079814D01*
X97759271Y-44996552D01*
X97795009Y-44967222D01*
X97812913Y-44957652D01*
X97951533Y-44883557D01*
X98008147Y-44866384D01*
X98121373Y-44832037D01*
X98187558Y-44825518D01*
X98253740Y-44819000D01*
X98342260Y-44819000D01*
X98408442Y-44825518D01*
X98408442Y-44825518D01*
G37*
G36*
X112823499Y-45452445D02*
X112860993Y-45463819D01*
X112895557Y-45482294D01*
X112925847Y-45507153D01*
X112950706Y-45537443D01*
X112969181Y-45572007D01*
X112980555Y-45609501D01*
X112985000Y-45654638D01*
X112985000Y-46293362D01*
X112980555Y-46338499D01*
X112969181Y-46375993D01*
X112950706Y-46410557D01*
X112925847Y-46440847D01*
X112895557Y-46465706D01*
X112860993Y-46484181D01*
X112823499Y-46495555D01*
X112778362Y-46500000D01*
X112039638Y-46500000D01*
X111994501Y-46495555D01*
X111957007Y-46484181D01*
X111922443Y-46465706D01*
X111892153Y-46440847D01*
X111867294Y-46410557D01*
X111848819Y-46375993D01*
X111837445Y-46338499D01*
X111833000Y-46293362D01*
X111833000Y-45654638D01*
X111837445Y-45609501D01*
X111848819Y-45572007D01*
X111867294Y-45537443D01*
X111892153Y-45507153D01*
X111922443Y-45482294D01*
X111957007Y-45463819D01*
X111994501Y-45452445D01*
X112039638Y-45448000D01*
X112778362Y-45448000D01*
X112823499Y-45452445D01*
X112823499Y-45452445D01*
G37*
G36*
X114573499Y-45452445D02*
X114610993Y-45463819D01*
X114645557Y-45482294D01*
X114675847Y-45507153D01*
X114700706Y-45537443D01*
X114719181Y-45572007D01*
X114730555Y-45609501D01*
X114735000Y-45654638D01*
X114735000Y-46293362D01*
X114730555Y-46338499D01*
X114719181Y-46375993D01*
X114700706Y-46410557D01*
X114675847Y-46440847D01*
X114645557Y-46465706D01*
X114610993Y-46484181D01*
X114573499Y-46495555D01*
X114528362Y-46500000D01*
X113789638Y-46500000D01*
X113744501Y-46495555D01*
X113707007Y-46484181D01*
X113672443Y-46465706D01*
X113642153Y-46440847D01*
X113617294Y-46410557D01*
X113598819Y-46375993D01*
X113587445Y-46338499D01*
X113583000Y-46293362D01*
X113583000Y-45654638D01*
X113587445Y-45609501D01*
X113598819Y-45572007D01*
X113617294Y-45537443D01*
X113642153Y-45507153D01*
X113672443Y-45482294D01*
X113707007Y-45463819D01*
X113744501Y-45452445D01*
X113789638Y-45448000D01*
X114528362Y-45448000D01*
X114573499Y-45452445D01*
X114573499Y-45452445D01*
G37*
G36*
X119218710Y-36985070D02*
X119910447Y-37271597D01*
X120532999Y-37687573D01*
X121062427Y-38217001D01*
X121478403Y-38839553D01*
X121764930Y-39531290D01*
X121911000Y-40265633D01*
X121911000Y-41014367D01*
X121764930Y-41748710D01*
X121478403Y-42440447D01*
X121062427Y-43062999D01*
X120532999Y-43592427D01*
X119910447Y-44008403D01*
X119218710Y-44294930D01*
X118484367Y-44441000D01*
X117735633Y-44441000D01*
X117001290Y-44294930D01*
X116309553Y-44008403D01*
X115687001Y-43592427D01*
X115157573Y-43062999D01*
X114741597Y-42440447D01*
X114455070Y-41748710D01*
X114309000Y-41014367D01*
X114309000Y-40265633D01*
X114455070Y-39531290D01*
X114741597Y-38839553D01*
X115157573Y-38217001D01*
X115687001Y-37687573D01*
X116309553Y-37271597D01*
X117001290Y-36985070D01*
X117735633Y-36839000D01*
X118484367Y-36839000D01*
X119218710Y-36985070D01*
X119218710Y-36985070D01*
G37*
M02*
