G04 #@! TF.GenerationSoftware,KiCad,Pcbnew,(5.1.0)-1*
G04 #@! TF.CreationDate,2019-03-25T06:45:32-06:00*
G04 #@! TF.ProjectId,ParkingSystem,5061726b-696e-4675-9379-7374656d2e6b,v01*
G04 #@! TF.SameCoordinates,Original*
G04 #@! TF.FileFunction,Soldermask,Bot*
G04 #@! TF.FilePolarity,Negative*
%FSLAX46Y46*%
G04 Gerber Fmt 4.6, Leading zero omitted, Abs format (unit mm)*
G04 Created by KiCad (PCBNEW (5.1.0)-1) date 2019-03-25 06:45:32*
%MOMM*%
%LPD*%
G04 APERTURE LIST*
%ADD10C,0.100000*%
G04 APERTURE END LIST*
D10*
G36*
X83531710Y-90706070D02*
G01*
X84223447Y-90992597D01*
X84421403Y-91124867D01*
X84845996Y-91408571D01*
X85375429Y-91938004D01*
X85592673Y-92263133D01*
X85791403Y-92560553D01*
X86077930Y-93252290D01*
X86224000Y-93986633D01*
X86224000Y-94735367D01*
X86077930Y-95469710D01*
X85791403Y-96161447D01*
X85791402Y-96161448D01*
X85375429Y-96783996D01*
X84845996Y-97313429D01*
X84430022Y-97591374D01*
X84223447Y-97729403D01*
X83531710Y-98015930D01*
X82797367Y-98162000D01*
X82048633Y-98162000D01*
X81314290Y-98015930D01*
X80622553Y-97729403D01*
X80415978Y-97591374D01*
X80000004Y-97313429D01*
X79470571Y-96783996D01*
X79054598Y-96161448D01*
X79054597Y-96161447D01*
X78768070Y-95469710D01*
X78622000Y-94735367D01*
X78622000Y-93986633D01*
X78768070Y-93252290D01*
X79054597Y-92560553D01*
X79253327Y-92263133D01*
X79470571Y-91938004D01*
X80000004Y-91408571D01*
X80424597Y-91124867D01*
X80622553Y-90992597D01*
X81314290Y-90706070D01*
X82048633Y-90560000D01*
X82797367Y-90560000D01*
X83531710Y-90706070D01*
X83531710Y-90706070D01*
G37*
G36*
X67026571Y-93436863D02*
G01*
X67105023Y-93444590D01*
X67205682Y-93475125D01*
X67256013Y-93490392D01*
X67395165Y-93564771D01*
X67517133Y-93664867D01*
X67617229Y-93786835D01*
X67691608Y-93925987D01*
X67691608Y-93925988D01*
X67737410Y-94076977D01*
X67752875Y-94234000D01*
X67737410Y-94391023D01*
X67706875Y-94491682D01*
X67691608Y-94542013D01*
X67617229Y-94681165D01*
X67517133Y-94803133D01*
X67395165Y-94903229D01*
X67256013Y-94977608D01*
X67205682Y-94992875D01*
X67105023Y-95023410D01*
X67026571Y-95031137D01*
X66987346Y-95035000D01*
X66108654Y-95035000D01*
X66069429Y-95031137D01*
X65990977Y-95023410D01*
X65890318Y-94992875D01*
X65839987Y-94977608D01*
X65700835Y-94903229D01*
X65578867Y-94803133D01*
X65478771Y-94681165D01*
X65404392Y-94542013D01*
X65389125Y-94491682D01*
X65358590Y-94391023D01*
X65343125Y-94234000D01*
X65358590Y-94076977D01*
X65404392Y-93925988D01*
X65404392Y-93925987D01*
X65478771Y-93786835D01*
X65578867Y-93664867D01*
X65700835Y-93564771D01*
X65839987Y-93490392D01*
X65890318Y-93475125D01*
X65990977Y-93444590D01*
X66069429Y-93436863D01*
X66108654Y-93433000D01*
X66987346Y-93433000D01*
X67026571Y-93436863D01*
X67026571Y-93436863D01*
G37*
G36*
X67026571Y-90896863D02*
G01*
X67105023Y-90904590D01*
X67205682Y-90935125D01*
X67256013Y-90950392D01*
X67395165Y-91024771D01*
X67517133Y-91124867D01*
X67617229Y-91246835D01*
X67691608Y-91385987D01*
X67706875Y-91436318D01*
X67737410Y-91536977D01*
X67752875Y-91694000D01*
X67737410Y-91851023D01*
X67711025Y-91938004D01*
X67691608Y-92002013D01*
X67617229Y-92141165D01*
X67517133Y-92263133D01*
X67395165Y-92363229D01*
X67256013Y-92437608D01*
X67205682Y-92452875D01*
X67105023Y-92483410D01*
X67026571Y-92491137D01*
X66987346Y-92495000D01*
X66108654Y-92495000D01*
X66069429Y-92491137D01*
X65990977Y-92483410D01*
X65890318Y-92452875D01*
X65839987Y-92437608D01*
X65700835Y-92363229D01*
X65578867Y-92263133D01*
X65478771Y-92141165D01*
X65404392Y-92002013D01*
X65384975Y-91938004D01*
X65358590Y-91851023D01*
X65343125Y-91694000D01*
X65358590Y-91536977D01*
X65389125Y-91436318D01*
X65404392Y-91385987D01*
X65478771Y-91246835D01*
X65578867Y-91124867D01*
X65700835Y-91024771D01*
X65839987Y-90950392D01*
X65890318Y-90935125D01*
X65990977Y-90904590D01*
X66069429Y-90896863D01*
X66108654Y-90893000D01*
X66987346Y-90893000D01*
X67026571Y-90896863D01*
X67026571Y-90896863D01*
G37*
G36*
X67749000Y-89955000D02*
G01*
X65347000Y-89955000D01*
X65347000Y-88353000D01*
X67749000Y-88353000D01*
X67749000Y-89955000D01*
X67749000Y-89955000D01*
G37*
G36*
X92133000Y-86653000D02*
G01*
X89731000Y-86653000D01*
X89731000Y-85051000D01*
X92133000Y-85051000D01*
X92133000Y-86653000D01*
X92133000Y-86653000D01*
G37*
G36*
X118931564Y-84587389D02*
G01*
X119122833Y-84666615D01*
X119122835Y-84666616D01*
X119212251Y-84726362D01*
X119294973Y-84781635D01*
X119441365Y-84928027D01*
X119556385Y-85100167D01*
X119635611Y-85291436D01*
X119676000Y-85494484D01*
X119676000Y-85701516D01*
X119635611Y-85904564D01*
X119556385Y-86095833D01*
X119556384Y-86095835D01*
X119441365Y-86267973D01*
X119294973Y-86414365D01*
X119122835Y-86529384D01*
X119122834Y-86529385D01*
X119122833Y-86529385D01*
X118931564Y-86608611D01*
X118728516Y-86649000D01*
X118521484Y-86649000D01*
X118318436Y-86608611D01*
X118127167Y-86529385D01*
X118127166Y-86529385D01*
X118127165Y-86529384D01*
X117955027Y-86414365D01*
X117808635Y-86267973D01*
X117693616Y-86095835D01*
X117693615Y-86095833D01*
X117614389Y-85904564D01*
X117574000Y-85701516D01*
X117574000Y-85494484D01*
X117614389Y-85291436D01*
X117693615Y-85100167D01*
X117808635Y-84928027D01*
X117955027Y-84781635D01*
X118037749Y-84726362D01*
X118127165Y-84666616D01*
X118127167Y-84666615D01*
X118318436Y-84587389D01*
X118521484Y-84547000D01*
X118728516Y-84547000D01*
X118931564Y-84587389D01*
X118931564Y-84587389D01*
G37*
G36*
X103931564Y-84587389D02*
G01*
X104122833Y-84666615D01*
X104122835Y-84666616D01*
X104212251Y-84726362D01*
X104294973Y-84781635D01*
X104441365Y-84928027D01*
X104556385Y-85100167D01*
X104635611Y-85291436D01*
X104676000Y-85494484D01*
X104676000Y-85701516D01*
X104635611Y-85904564D01*
X104556385Y-86095833D01*
X104556384Y-86095835D01*
X104441365Y-86267973D01*
X104294973Y-86414365D01*
X104122835Y-86529384D01*
X104122834Y-86529385D01*
X104122833Y-86529385D01*
X103931564Y-86608611D01*
X103728516Y-86649000D01*
X103521484Y-86649000D01*
X103318436Y-86608611D01*
X103127167Y-86529385D01*
X103127166Y-86529385D01*
X103127165Y-86529384D01*
X102955027Y-86414365D01*
X102808635Y-86267973D01*
X102693616Y-86095835D01*
X102693615Y-86095833D01*
X102614389Y-85904564D01*
X102574000Y-85701516D01*
X102574000Y-85494484D01*
X102614389Y-85291436D01*
X102693615Y-85100167D01*
X102808635Y-84928027D01*
X102955027Y-84781635D01*
X103037749Y-84726362D01*
X103127165Y-84666616D01*
X103127167Y-84666615D01*
X103318436Y-84587389D01*
X103521484Y-84547000D01*
X103728516Y-84547000D01*
X103931564Y-84587389D01*
X103931564Y-84587389D01*
G37*
G36*
X76351537Y-82585472D02*
G01*
X76437556Y-82593944D01*
X76658290Y-82660903D01*
X76658293Y-82660904D01*
X76861719Y-82769638D01*
X77040028Y-82915972D01*
X77186362Y-83094281D01*
X77295096Y-83297707D01*
X77295097Y-83297710D01*
X77362056Y-83518444D01*
X77384665Y-83748000D01*
X77362056Y-83977556D01*
X77338379Y-84055608D01*
X77295096Y-84198293D01*
X77186362Y-84401719D01*
X77040028Y-84580028D01*
X76861719Y-84726362D01*
X76658293Y-84835096D01*
X76658290Y-84835097D01*
X76437556Y-84902056D01*
X76351537Y-84910528D01*
X76265520Y-84919000D01*
X73990480Y-84919000D01*
X73904463Y-84910528D01*
X73818444Y-84902056D01*
X73597710Y-84835097D01*
X73597707Y-84835096D01*
X73394281Y-84726362D01*
X73215972Y-84580028D01*
X73069638Y-84401719D01*
X72960904Y-84198293D01*
X72917621Y-84055608D01*
X72893944Y-83977556D01*
X72871335Y-83748000D01*
X72893944Y-83518444D01*
X72960903Y-83297710D01*
X72960904Y-83297707D01*
X73069638Y-83094281D01*
X73215972Y-82915972D01*
X73394281Y-82769638D01*
X73597707Y-82660904D01*
X73597710Y-82660903D01*
X73818444Y-82593944D01*
X73904463Y-82585472D01*
X73990480Y-82577000D01*
X76265520Y-82577000D01*
X76351537Y-82585472D01*
X76351537Y-82585472D01*
G37*
G36*
X91410571Y-82514863D02*
G01*
X91489023Y-82522590D01*
X91589682Y-82553125D01*
X91640013Y-82568392D01*
X91779165Y-82642771D01*
X91901133Y-82742867D01*
X92001229Y-82864835D01*
X92075608Y-83003987D01*
X92075608Y-83003988D01*
X92121410Y-83154977D01*
X92136875Y-83312000D01*
X92121410Y-83469023D01*
X92090875Y-83569682D01*
X92075608Y-83620013D01*
X92001229Y-83759165D01*
X91901133Y-83881133D01*
X91779165Y-83981229D01*
X91640013Y-84055608D01*
X91589682Y-84070875D01*
X91489023Y-84101410D01*
X91410571Y-84109137D01*
X91371346Y-84113000D01*
X90492654Y-84113000D01*
X90453429Y-84109137D01*
X90374977Y-84101410D01*
X90274318Y-84070875D01*
X90223987Y-84055608D01*
X90084835Y-83981229D01*
X89962867Y-83881133D01*
X89862771Y-83759165D01*
X89788392Y-83620013D01*
X89773125Y-83569682D01*
X89742590Y-83469023D01*
X89727125Y-83312000D01*
X89742590Y-83154977D01*
X89788392Y-83003988D01*
X89788392Y-83003987D01*
X89862771Y-82864835D01*
X89962867Y-82742867D01*
X90084835Y-82642771D01*
X90223987Y-82568392D01*
X90274318Y-82553125D01*
X90374977Y-82522590D01*
X90453429Y-82514863D01*
X90492654Y-82511000D01*
X91371346Y-82511000D01*
X91410571Y-82514863D01*
X91410571Y-82514863D01*
G37*
G36*
X72357555Y-76763944D02*
G01*
X72578289Y-76830903D01*
X72578292Y-76830904D01*
X72781718Y-76939638D01*
X72781720Y-76939639D01*
X72781719Y-76939639D01*
X72960028Y-77085972D01*
X73080121Y-77232306D01*
X73106362Y-77264281D01*
X73215096Y-77467707D01*
X73215096Y-77467708D01*
X73215097Y-77467710D01*
X73282056Y-77688444D01*
X73299000Y-77860482D01*
X73299000Y-80635518D01*
X73282056Y-80807556D01*
X73245210Y-80929021D01*
X73215096Y-81028293D01*
X73106362Y-81231719D01*
X72960028Y-81410028D01*
X72781719Y-81556362D01*
X72578293Y-81665096D01*
X72578290Y-81665097D01*
X72357556Y-81732056D01*
X72128000Y-81754665D01*
X71898445Y-81732056D01*
X71677711Y-81665097D01*
X71677708Y-81665096D01*
X71474282Y-81556362D01*
X71295973Y-81410028D01*
X71149639Y-81231719D01*
X71040905Y-81028293D01*
X71010791Y-80929021D01*
X70973945Y-80807556D01*
X70957001Y-80635518D01*
X70957000Y-77860483D01*
X70973944Y-77688445D01*
X71040903Y-77467711D01*
X71040904Y-77467708D01*
X71149638Y-77264282D01*
X71171890Y-77237168D01*
X71295972Y-77085972D01*
X71474280Y-76939639D01*
X71474279Y-76939639D01*
X71474281Y-76939638D01*
X71677707Y-76830904D01*
X71677710Y-76830903D01*
X71898444Y-76763944D01*
X72128000Y-76741335D01*
X72357555Y-76763944D01*
X72357555Y-76763944D01*
G37*
G36*
X78357555Y-76763944D02*
G01*
X78578289Y-76830903D01*
X78578292Y-76830904D01*
X78781718Y-76939638D01*
X78781720Y-76939639D01*
X78781719Y-76939639D01*
X78960028Y-77085972D01*
X79080121Y-77232306D01*
X79106362Y-77264281D01*
X79215096Y-77467707D01*
X79215096Y-77467708D01*
X79215097Y-77467710D01*
X79282056Y-77688444D01*
X79299000Y-77860482D01*
X79299000Y-80635518D01*
X79282056Y-80807556D01*
X79245210Y-80929021D01*
X79215096Y-81028293D01*
X79106362Y-81231719D01*
X78960028Y-81410028D01*
X78781719Y-81556362D01*
X78578293Y-81665096D01*
X78578290Y-81665097D01*
X78357556Y-81732056D01*
X78128000Y-81754665D01*
X77898445Y-81732056D01*
X77677711Y-81665097D01*
X77677708Y-81665096D01*
X77474282Y-81556362D01*
X77295973Y-81410028D01*
X77149639Y-81231719D01*
X77040905Y-81028293D01*
X77010791Y-80929021D01*
X76973945Y-80807556D01*
X76957001Y-80635518D01*
X76957000Y-77860483D01*
X76973944Y-77688445D01*
X77040903Y-77467711D01*
X77040904Y-77467708D01*
X77149638Y-77264282D01*
X77171890Y-77237168D01*
X77295972Y-77085972D01*
X77474280Y-76939639D01*
X77474279Y-76939639D01*
X77474281Y-76939638D01*
X77677707Y-76830904D01*
X77677710Y-76830903D01*
X77898444Y-76763944D01*
X78128000Y-76741335D01*
X78357555Y-76763944D01*
X78357555Y-76763944D01*
G37*
G36*
X91410571Y-79974863D02*
G01*
X91489023Y-79982590D01*
X91589682Y-80013125D01*
X91640013Y-80028392D01*
X91779165Y-80102771D01*
X91901133Y-80202867D01*
X92001229Y-80324835D01*
X92075608Y-80463987D01*
X92075608Y-80463988D01*
X92121410Y-80614977D01*
X92136875Y-80772000D01*
X92121410Y-80929023D01*
X92091298Y-81028290D01*
X92075608Y-81080013D01*
X92001229Y-81219165D01*
X91901133Y-81341133D01*
X91779165Y-81441229D01*
X91640013Y-81515608D01*
X91589682Y-81530875D01*
X91489023Y-81561410D01*
X91410571Y-81569137D01*
X91371346Y-81573000D01*
X90492654Y-81573000D01*
X90453429Y-81569137D01*
X90374977Y-81561410D01*
X90274318Y-81530875D01*
X90223987Y-81515608D01*
X90084835Y-81441229D01*
X89962867Y-81341133D01*
X89862771Y-81219165D01*
X89788392Y-81080013D01*
X89772702Y-81028290D01*
X89742590Y-80929023D01*
X89727125Y-80772000D01*
X89742590Y-80614977D01*
X89788392Y-80463988D01*
X89788392Y-80463987D01*
X89862771Y-80324835D01*
X89962867Y-80202867D01*
X90084835Y-80102771D01*
X90223987Y-80028392D01*
X90274318Y-80013125D01*
X90374977Y-79982590D01*
X90453429Y-79974863D01*
X90492654Y-79971000D01*
X91371346Y-79971000D01*
X91410571Y-79974863D01*
X91410571Y-79974863D01*
G37*
G36*
X117440710Y-65052070D02*
G01*
X118132447Y-65338597D01*
X118132448Y-65338598D01*
X118754996Y-65754571D01*
X119284429Y-66284004D01*
X119562374Y-66699978D01*
X119700403Y-66906553D01*
X119986930Y-67598290D01*
X120133000Y-68332633D01*
X120133000Y-69081367D01*
X119986930Y-69815710D01*
X119700403Y-70507447D01*
X119628205Y-70615499D01*
X119284429Y-71129996D01*
X118754996Y-71659429D01*
X118427134Y-71878499D01*
X118132447Y-72075403D01*
X117440710Y-72361930D01*
X116706367Y-72508000D01*
X115957633Y-72508000D01*
X115223290Y-72361930D01*
X114531553Y-72075403D01*
X114236866Y-71878499D01*
X113909004Y-71659429D01*
X113379571Y-71129996D01*
X113035795Y-70615499D01*
X112963597Y-70507447D01*
X112677070Y-69815710D01*
X112531000Y-69081367D01*
X112531000Y-68332633D01*
X112677070Y-67598290D01*
X112963597Y-66906553D01*
X113101626Y-66699978D01*
X113379571Y-66284004D01*
X113909004Y-65754571D01*
X114531552Y-65338598D01*
X114531553Y-65338597D01*
X115223290Y-65052070D01*
X115957633Y-64906000D01*
X116706367Y-64906000D01*
X117440710Y-65052070D01*
X117440710Y-65052070D01*
G37*
G36*
X78215142Y-70465242D02*
G01*
X78363101Y-70526529D01*
X78496255Y-70615499D01*
X78609501Y-70728745D01*
X78698471Y-70861899D01*
X78759758Y-71009858D01*
X78791000Y-71166925D01*
X78791000Y-71327075D01*
X78759758Y-71484142D01*
X78698471Y-71632101D01*
X78609501Y-71765255D01*
X78496255Y-71878501D01*
X78363101Y-71967471D01*
X78215142Y-72028758D01*
X78058075Y-72060000D01*
X77897925Y-72060000D01*
X77740858Y-72028758D01*
X77592899Y-71967471D01*
X77459745Y-71878501D01*
X77346499Y-71765255D01*
X77257529Y-71632101D01*
X77196242Y-71484142D01*
X77165000Y-71327075D01*
X77165000Y-71166925D01*
X77196242Y-71009858D01*
X77257529Y-70861899D01*
X77346499Y-70728745D01*
X77459745Y-70615499D01*
X77592899Y-70526529D01*
X77740858Y-70465242D01*
X77897925Y-70434000D01*
X78058075Y-70434000D01*
X78215142Y-70465242D01*
X78215142Y-70465242D01*
G37*
G36*
X73135142Y-70465242D02*
G01*
X73283101Y-70526529D01*
X73416255Y-70615499D01*
X73529501Y-70728745D01*
X73618471Y-70861899D01*
X73679758Y-71009858D01*
X73711000Y-71166925D01*
X73711000Y-71327075D01*
X73679758Y-71484142D01*
X73618471Y-71632101D01*
X73529501Y-71765255D01*
X73416255Y-71878501D01*
X73283101Y-71967471D01*
X73135142Y-72028758D01*
X72978075Y-72060000D01*
X72817925Y-72060000D01*
X72660858Y-72028758D01*
X72512899Y-71967471D01*
X72379745Y-71878501D01*
X72266499Y-71765255D01*
X72177529Y-71632101D01*
X72116242Y-71484142D01*
X72085000Y-71327075D01*
X72085000Y-71166925D01*
X72116242Y-71009858D01*
X72177529Y-70861899D01*
X72266499Y-70728745D01*
X72379745Y-70615499D01*
X72512899Y-70526529D01*
X72660858Y-70465242D01*
X72817925Y-70434000D01*
X72978075Y-70434000D01*
X73135142Y-70465242D01*
X73135142Y-70465242D01*
G37*
G36*
X80755142Y-70465242D02*
G01*
X80903101Y-70526529D01*
X81036255Y-70615499D01*
X81149501Y-70728745D01*
X81238471Y-70861899D01*
X81299758Y-71009858D01*
X81331000Y-71166925D01*
X81331000Y-71327075D01*
X81299758Y-71484142D01*
X81238471Y-71632101D01*
X81149501Y-71765255D01*
X81036255Y-71878501D01*
X80903101Y-71967471D01*
X80755142Y-72028758D01*
X80598075Y-72060000D01*
X80437925Y-72060000D01*
X80280858Y-72028758D01*
X80132899Y-71967471D01*
X79999745Y-71878501D01*
X79886499Y-71765255D01*
X79797529Y-71632101D01*
X79736242Y-71484142D01*
X79705000Y-71327075D01*
X79705000Y-71166925D01*
X79736242Y-71009858D01*
X79797529Y-70861899D01*
X79886499Y-70728745D01*
X79999745Y-70615499D01*
X80132899Y-70526529D01*
X80280858Y-70465242D01*
X80437925Y-70434000D01*
X80598075Y-70434000D01*
X80755142Y-70465242D01*
X80755142Y-70465242D01*
G37*
G36*
X70595142Y-70465242D02*
G01*
X70743101Y-70526529D01*
X70876255Y-70615499D01*
X70989501Y-70728745D01*
X71078471Y-70861899D01*
X71139758Y-71009858D01*
X71171000Y-71166925D01*
X71171000Y-71327075D01*
X71139758Y-71484142D01*
X71078471Y-71632101D01*
X70989501Y-71765255D01*
X70876255Y-71878501D01*
X70743101Y-71967471D01*
X70595142Y-72028758D01*
X70438075Y-72060000D01*
X70277925Y-72060000D01*
X70120858Y-72028758D01*
X69972899Y-71967471D01*
X69839745Y-71878501D01*
X69726499Y-71765255D01*
X69637529Y-71632101D01*
X69576242Y-71484142D01*
X69545000Y-71327075D01*
X69545000Y-71166925D01*
X69576242Y-71009858D01*
X69637529Y-70861899D01*
X69726499Y-70728745D01*
X69839745Y-70615499D01*
X69972899Y-70526529D01*
X70120858Y-70465242D01*
X70277925Y-70434000D01*
X70438075Y-70434000D01*
X70595142Y-70465242D01*
X70595142Y-70465242D01*
G37*
G36*
X68055142Y-70465242D02*
G01*
X68203101Y-70526529D01*
X68336255Y-70615499D01*
X68449501Y-70728745D01*
X68538471Y-70861899D01*
X68599758Y-71009858D01*
X68631000Y-71166925D01*
X68631000Y-71327075D01*
X68599758Y-71484142D01*
X68538471Y-71632101D01*
X68449501Y-71765255D01*
X68336255Y-71878501D01*
X68203101Y-71967471D01*
X68055142Y-72028758D01*
X67898075Y-72060000D01*
X67737925Y-72060000D01*
X67580858Y-72028758D01*
X67432899Y-71967471D01*
X67299745Y-71878501D01*
X67186499Y-71765255D01*
X67097529Y-71632101D01*
X67036242Y-71484142D01*
X67005000Y-71327075D01*
X67005000Y-71166925D01*
X67036242Y-71009858D01*
X67097529Y-70861899D01*
X67186499Y-70728745D01*
X67299745Y-70615499D01*
X67432899Y-70526529D01*
X67580858Y-70465242D01*
X67737925Y-70434000D01*
X67898075Y-70434000D01*
X68055142Y-70465242D01*
X68055142Y-70465242D01*
G37*
G36*
X75675142Y-70465242D02*
G01*
X75823101Y-70526529D01*
X75956255Y-70615499D01*
X76069501Y-70728745D01*
X76158471Y-70861899D01*
X76219758Y-71009858D01*
X76251000Y-71166925D01*
X76251000Y-71327075D01*
X76219758Y-71484142D01*
X76158471Y-71632101D01*
X76069501Y-71765255D01*
X75956255Y-71878501D01*
X75823101Y-71967471D01*
X75675142Y-72028758D01*
X75518075Y-72060000D01*
X75357925Y-72060000D01*
X75200858Y-72028758D01*
X75052899Y-71967471D01*
X74919745Y-71878501D01*
X74806499Y-71765255D01*
X74717529Y-71632101D01*
X74656242Y-71484142D01*
X74625000Y-71327075D01*
X74625000Y-71166925D01*
X74656242Y-71009858D01*
X74717529Y-70861899D01*
X74806499Y-70728745D01*
X74919745Y-70615499D01*
X75052899Y-70526529D01*
X75200858Y-70465242D01*
X75357925Y-70434000D01*
X75518075Y-70434000D01*
X75675142Y-70465242D01*
X75675142Y-70465242D01*
G37*
G36*
X83295142Y-70465242D02*
G01*
X83443101Y-70526529D01*
X83576255Y-70615499D01*
X83689501Y-70728745D01*
X83778471Y-70861899D01*
X83839758Y-71009858D01*
X83871000Y-71166925D01*
X83871000Y-71327075D01*
X83839758Y-71484142D01*
X83778471Y-71632101D01*
X83689501Y-71765255D01*
X83576255Y-71878501D01*
X83443101Y-71967471D01*
X83295142Y-72028758D01*
X83138075Y-72060000D01*
X82977925Y-72060000D01*
X82820858Y-72028758D01*
X82672899Y-71967471D01*
X82539745Y-71878501D01*
X82426499Y-71765255D01*
X82337529Y-71632101D01*
X82276242Y-71484142D01*
X82245000Y-71327075D01*
X82245000Y-71166925D01*
X82276242Y-71009858D01*
X82337529Y-70861899D01*
X82426499Y-70728745D01*
X82539745Y-70615499D01*
X82672899Y-70526529D01*
X82820858Y-70465242D01*
X82977925Y-70434000D01*
X83138075Y-70434000D01*
X83295142Y-70465242D01*
X83295142Y-70465242D01*
G37*
G36*
X66091000Y-72060000D02*
G01*
X64465000Y-72060000D01*
X64465000Y-70434000D01*
X66091000Y-70434000D01*
X66091000Y-72060000D01*
X66091000Y-72060000D01*
G37*
G36*
X102889499Y-63486445D02*
G01*
X102926995Y-63497820D01*
X102961554Y-63516292D01*
X102991847Y-63541153D01*
X103016708Y-63571446D01*
X103035180Y-63606005D01*
X103046555Y-63643501D01*
X103051000Y-63688638D01*
X103051000Y-64327362D01*
X103046555Y-64372499D01*
X103035180Y-64409995D01*
X103016708Y-64444554D01*
X102991847Y-64474847D01*
X102961554Y-64499708D01*
X102926995Y-64518180D01*
X102889499Y-64529555D01*
X102844362Y-64534000D01*
X102105638Y-64534000D01*
X102060501Y-64529555D01*
X102023005Y-64518180D01*
X101988446Y-64499708D01*
X101958153Y-64474847D01*
X101933292Y-64444554D01*
X101914820Y-64409995D01*
X101903445Y-64372499D01*
X101899000Y-64327362D01*
X101899000Y-63688638D01*
X101903445Y-63643501D01*
X101914820Y-63606005D01*
X101933292Y-63571446D01*
X101958153Y-63541153D01*
X101988446Y-63516292D01*
X102023005Y-63497820D01*
X102060501Y-63486445D01*
X102105638Y-63482000D01*
X102844362Y-63482000D01*
X102889499Y-63486445D01*
X102889499Y-63486445D01*
G37*
G36*
X101139499Y-63486445D02*
G01*
X101176995Y-63497820D01*
X101211554Y-63516292D01*
X101241847Y-63541153D01*
X101266708Y-63571446D01*
X101285180Y-63606005D01*
X101296555Y-63643501D01*
X101301000Y-63688638D01*
X101301000Y-64327362D01*
X101296555Y-64372499D01*
X101285180Y-64409995D01*
X101266708Y-64444554D01*
X101241847Y-64474847D01*
X101211554Y-64499708D01*
X101176995Y-64518180D01*
X101139499Y-64529555D01*
X101094362Y-64534000D01*
X100355638Y-64534000D01*
X100310501Y-64529555D01*
X100273005Y-64518180D01*
X100238446Y-64499708D01*
X100208153Y-64474847D01*
X100183292Y-64444554D01*
X100164820Y-64409995D01*
X100153445Y-64372499D01*
X100149000Y-64327362D01*
X100149000Y-63688638D01*
X100153445Y-63643501D01*
X100164820Y-63606005D01*
X100183292Y-63571446D01*
X100208153Y-63541153D01*
X100238446Y-63516292D01*
X100273005Y-63497820D01*
X100310501Y-63486445D01*
X100355638Y-63482000D01*
X101094362Y-63482000D01*
X101139499Y-63486445D01*
X101139499Y-63486445D01*
G37*
G36*
X95254206Y-62992000D02*
G01*
X93980000Y-64266206D01*
X92705794Y-62992000D01*
X93980000Y-61717794D01*
X95254206Y-62992000D01*
X95254206Y-62992000D01*
G37*
G36*
X83295142Y-61575242D02*
G01*
X83443101Y-61636529D01*
X83576255Y-61725499D01*
X83689501Y-61838745D01*
X83778471Y-61971899D01*
X83839758Y-62119858D01*
X83871000Y-62276925D01*
X83871000Y-62437075D01*
X83839758Y-62594142D01*
X83778471Y-62742101D01*
X83689501Y-62875255D01*
X83576255Y-62988501D01*
X83443101Y-63077471D01*
X83295142Y-63138758D01*
X83138075Y-63170000D01*
X82977925Y-63170000D01*
X82820858Y-63138758D01*
X82672899Y-63077471D01*
X82539745Y-62988501D01*
X82426499Y-62875255D01*
X82337529Y-62742101D01*
X82276242Y-62594142D01*
X82245000Y-62437075D01*
X82245000Y-62276925D01*
X82276242Y-62119858D01*
X82337529Y-61971899D01*
X82426499Y-61838745D01*
X82539745Y-61725499D01*
X82672899Y-61636529D01*
X82820858Y-61575242D01*
X82977925Y-61544000D01*
X83138075Y-61544000D01*
X83295142Y-61575242D01*
X83295142Y-61575242D01*
G37*
G36*
X78215142Y-61575242D02*
G01*
X78363101Y-61636529D01*
X78496255Y-61725499D01*
X78609501Y-61838745D01*
X78698471Y-61971899D01*
X78759758Y-62119858D01*
X78791000Y-62276925D01*
X78791000Y-62437075D01*
X78759758Y-62594142D01*
X78698471Y-62742101D01*
X78609501Y-62875255D01*
X78496255Y-62988501D01*
X78363101Y-63077471D01*
X78215142Y-63138758D01*
X78058075Y-63170000D01*
X77897925Y-63170000D01*
X77740858Y-63138758D01*
X77592899Y-63077471D01*
X77459745Y-62988501D01*
X77346499Y-62875255D01*
X77257529Y-62742101D01*
X77196242Y-62594142D01*
X77165000Y-62437075D01*
X77165000Y-62276925D01*
X77196242Y-62119858D01*
X77257529Y-61971899D01*
X77346499Y-61838745D01*
X77459745Y-61725499D01*
X77592899Y-61636529D01*
X77740858Y-61575242D01*
X77897925Y-61544000D01*
X78058075Y-61544000D01*
X78215142Y-61575242D01*
X78215142Y-61575242D01*
G37*
G36*
X75675142Y-61575242D02*
G01*
X75823101Y-61636529D01*
X75956255Y-61725499D01*
X76069501Y-61838745D01*
X76158471Y-61971899D01*
X76219758Y-62119858D01*
X76251000Y-62276925D01*
X76251000Y-62437075D01*
X76219758Y-62594142D01*
X76158471Y-62742101D01*
X76069501Y-62875255D01*
X75956255Y-62988501D01*
X75823101Y-63077471D01*
X75675142Y-63138758D01*
X75518075Y-63170000D01*
X75357925Y-63170000D01*
X75200858Y-63138758D01*
X75052899Y-63077471D01*
X74919745Y-62988501D01*
X74806499Y-62875255D01*
X74717529Y-62742101D01*
X74656242Y-62594142D01*
X74625000Y-62437075D01*
X74625000Y-62276925D01*
X74656242Y-62119858D01*
X74717529Y-61971899D01*
X74806499Y-61838745D01*
X74919745Y-61725499D01*
X75052899Y-61636529D01*
X75200858Y-61575242D01*
X75357925Y-61544000D01*
X75518075Y-61544000D01*
X75675142Y-61575242D01*
X75675142Y-61575242D01*
G37*
G36*
X73135142Y-61575242D02*
G01*
X73283101Y-61636529D01*
X73416255Y-61725499D01*
X73529501Y-61838745D01*
X73618471Y-61971899D01*
X73679758Y-62119858D01*
X73711000Y-62276925D01*
X73711000Y-62437075D01*
X73679758Y-62594142D01*
X73618471Y-62742101D01*
X73529501Y-62875255D01*
X73416255Y-62988501D01*
X73283101Y-63077471D01*
X73135142Y-63138758D01*
X72978075Y-63170000D01*
X72817925Y-63170000D01*
X72660858Y-63138758D01*
X72512899Y-63077471D01*
X72379745Y-62988501D01*
X72266499Y-62875255D01*
X72177529Y-62742101D01*
X72116242Y-62594142D01*
X72085000Y-62437075D01*
X72085000Y-62276925D01*
X72116242Y-62119858D01*
X72177529Y-61971899D01*
X72266499Y-61838745D01*
X72379745Y-61725499D01*
X72512899Y-61636529D01*
X72660858Y-61575242D01*
X72817925Y-61544000D01*
X72978075Y-61544000D01*
X73135142Y-61575242D01*
X73135142Y-61575242D01*
G37*
G36*
X80755142Y-61575242D02*
G01*
X80903101Y-61636529D01*
X81036255Y-61725499D01*
X81149501Y-61838745D01*
X81238471Y-61971899D01*
X81299758Y-62119858D01*
X81331000Y-62276925D01*
X81331000Y-62437075D01*
X81299758Y-62594142D01*
X81238471Y-62742101D01*
X81149501Y-62875255D01*
X81036255Y-62988501D01*
X80903101Y-63077471D01*
X80755142Y-63138758D01*
X80598075Y-63170000D01*
X80437925Y-63170000D01*
X80280858Y-63138758D01*
X80132899Y-63077471D01*
X79999745Y-62988501D01*
X79886499Y-62875255D01*
X79797529Y-62742101D01*
X79736242Y-62594142D01*
X79705000Y-62437075D01*
X79705000Y-62276925D01*
X79736242Y-62119858D01*
X79797529Y-61971899D01*
X79886499Y-61838745D01*
X79999745Y-61725499D01*
X80132899Y-61636529D01*
X80280858Y-61575242D01*
X80437925Y-61544000D01*
X80598075Y-61544000D01*
X80755142Y-61575242D01*
X80755142Y-61575242D01*
G37*
G36*
X65515142Y-61575242D02*
G01*
X65663101Y-61636529D01*
X65796255Y-61725499D01*
X65909501Y-61838745D01*
X65998471Y-61971899D01*
X66059758Y-62119858D01*
X66091000Y-62276925D01*
X66091000Y-62437075D01*
X66059758Y-62594142D01*
X65998471Y-62742101D01*
X65909501Y-62875255D01*
X65796255Y-62988501D01*
X65663101Y-63077471D01*
X65515142Y-63138758D01*
X65358075Y-63170000D01*
X65197925Y-63170000D01*
X65040858Y-63138758D01*
X64892899Y-63077471D01*
X64759745Y-62988501D01*
X64646499Y-62875255D01*
X64557529Y-62742101D01*
X64496242Y-62594142D01*
X64465000Y-62437075D01*
X64465000Y-62276925D01*
X64496242Y-62119858D01*
X64557529Y-61971899D01*
X64646499Y-61838745D01*
X64759745Y-61725499D01*
X64892899Y-61636529D01*
X65040858Y-61575242D01*
X65197925Y-61544000D01*
X65358075Y-61544000D01*
X65515142Y-61575242D01*
X65515142Y-61575242D01*
G37*
G36*
X68055142Y-61575242D02*
G01*
X68203101Y-61636529D01*
X68336255Y-61725499D01*
X68449501Y-61838745D01*
X68538471Y-61971899D01*
X68599758Y-62119858D01*
X68631000Y-62276925D01*
X68631000Y-62437075D01*
X68599758Y-62594142D01*
X68538471Y-62742101D01*
X68449501Y-62875255D01*
X68336255Y-62988501D01*
X68203101Y-63077471D01*
X68055142Y-63138758D01*
X67898075Y-63170000D01*
X67737925Y-63170000D01*
X67580858Y-63138758D01*
X67432899Y-63077471D01*
X67299745Y-62988501D01*
X67186499Y-62875255D01*
X67097529Y-62742101D01*
X67036242Y-62594142D01*
X67005000Y-62437075D01*
X67005000Y-62276925D01*
X67036242Y-62119858D01*
X67097529Y-61971899D01*
X67186499Y-61838745D01*
X67299745Y-61725499D01*
X67432899Y-61636529D01*
X67580858Y-61575242D01*
X67737925Y-61544000D01*
X67898075Y-61544000D01*
X68055142Y-61575242D01*
X68055142Y-61575242D01*
G37*
G36*
X70595142Y-61575242D02*
G01*
X70743101Y-61636529D01*
X70876255Y-61725499D01*
X70989501Y-61838745D01*
X71078471Y-61971899D01*
X71139758Y-62119858D01*
X71171000Y-62276925D01*
X71171000Y-62437075D01*
X71139758Y-62594142D01*
X71078471Y-62742101D01*
X70989501Y-62875255D01*
X70876255Y-62988501D01*
X70743101Y-63077471D01*
X70595142Y-63138758D01*
X70438075Y-63170000D01*
X70277925Y-63170000D01*
X70120858Y-63138758D01*
X69972899Y-63077471D01*
X69839745Y-62988501D01*
X69726499Y-62875255D01*
X69637529Y-62742101D01*
X69576242Y-62594142D01*
X69545000Y-62437075D01*
X69545000Y-62276925D01*
X69576242Y-62119858D01*
X69637529Y-61971899D01*
X69726499Y-61838745D01*
X69839745Y-61725499D01*
X69972899Y-61636529D01*
X70120858Y-61575242D01*
X70277925Y-61544000D01*
X70438075Y-61544000D01*
X70595142Y-61575242D01*
X70595142Y-61575242D01*
G37*
G36*
X102889499Y-61708445D02*
G01*
X102926995Y-61719820D01*
X102961554Y-61738292D01*
X102991847Y-61763153D01*
X103016708Y-61793446D01*
X103035180Y-61828005D01*
X103046555Y-61865501D01*
X103051000Y-61910638D01*
X103051000Y-62549362D01*
X103046555Y-62594499D01*
X103035180Y-62631995D01*
X103016708Y-62666554D01*
X102991847Y-62696847D01*
X102961554Y-62721708D01*
X102926995Y-62740180D01*
X102889499Y-62751555D01*
X102844362Y-62756000D01*
X102105638Y-62756000D01*
X102060501Y-62751555D01*
X102023005Y-62740180D01*
X101988446Y-62721708D01*
X101958153Y-62696847D01*
X101933292Y-62666554D01*
X101914820Y-62631995D01*
X101903445Y-62594499D01*
X101899000Y-62549362D01*
X101899000Y-61910638D01*
X101903445Y-61865501D01*
X101914820Y-61828005D01*
X101933292Y-61793446D01*
X101958153Y-61763153D01*
X101988446Y-61738292D01*
X102023005Y-61719820D01*
X102060501Y-61708445D01*
X102105638Y-61704000D01*
X102844362Y-61704000D01*
X102889499Y-61708445D01*
X102889499Y-61708445D01*
G37*
G36*
X101139499Y-61708445D02*
G01*
X101176995Y-61719820D01*
X101211554Y-61738292D01*
X101241847Y-61763153D01*
X101266708Y-61793446D01*
X101285180Y-61828005D01*
X101296555Y-61865501D01*
X101301000Y-61910638D01*
X101301000Y-62549362D01*
X101296555Y-62594499D01*
X101285180Y-62631995D01*
X101266708Y-62666554D01*
X101241847Y-62696847D01*
X101211554Y-62721708D01*
X101176995Y-62740180D01*
X101139499Y-62751555D01*
X101094362Y-62756000D01*
X100355638Y-62756000D01*
X100310501Y-62751555D01*
X100273005Y-62740180D01*
X100238446Y-62721708D01*
X100208153Y-62696847D01*
X100183292Y-62666554D01*
X100164820Y-62631995D01*
X100153445Y-62594499D01*
X100149000Y-62549362D01*
X100149000Y-61910638D01*
X100153445Y-61865501D01*
X100164820Y-61828005D01*
X100183292Y-61793446D01*
X100208153Y-61763153D01*
X100238446Y-61738292D01*
X100273005Y-61719820D01*
X100310501Y-61708445D01*
X100355638Y-61704000D01*
X101094362Y-61704000D01*
X101139499Y-61708445D01*
X101139499Y-61708445D01*
G37*
G36*
X95886494Y-60301468D02*
G01*
X95952678Y-60307986D01*
X96122517Y-60359506D01*
X96279042Y-60443171D01*
X96314780Y-60472501D01*
X96416237Y-60555763D01*
X96499499Y-60657220D01*
X96528829Y-60692958D01*
X96612494Y-60849483D01*
X96664014Y-61019322D01*
X96681410Y-61195949D01*
X96664014Y-61372576D01*
X96612494Y-61542415D01*
X96612493Y-61542417D01*
X96594947Y-61575243D01*
X96528829Y-61698940D01*
X96524676Y-61704000D01*
X96416237Y-61836135D01*
X96325453Y-61910638D01*
X96279042Y-61948727D01*
X96122517Y-62032392D01*
X95952678Y-62083912D01*
X95886494Y-62090430D01*
X95820311Y-62096949D01*
X95731791Y-62096949D01*
X95665608Y-62090430D01*
X95599424Y-62083912D01*
X95429585Y-62032392D01*
X95273060Y-61948727D01*
X95226649Y-61910638D01*
X95135865Y-61836135D01*
X95027426Y-61704000D01*
X95023273Y-61698940D01*
X94957155Y-61575243D01*
X94939609Y-61542417D01*
X94939608Y-61542415D01*
X94888088Y-61372576D01*
X94870692Y-61195949D01*
X94888088Y-61019322D01*
X94939608Y-60849483D01*
X95023273Y-60692958D01*
X95052603Y-60657220D01*
X95135865Y-60555763D01*
X95237322Y-60472501D01*
X95273060Y-60443171D01*
X95429585Y-60359506D01*
X95599424Y-60307986D01*
X95665608Y-60301468D01*
X95731791Y-60294949D01*
X95820311Y-60294949D01*
X95886494Y-60301468D01*
X95886494Y-60301468D01*
G37*
G36*
X113390642Y-59300781D02*
G01*
X113536414Y-59361162D01*
X113536416Y-59361163D01*
X113667608Y-59448822D01*
X113779178Y-59560392D01*
X113866837Y-59691584D01*
X113866838Y-59691586D01*
X113927219Y-59837358D01*
X113958000Y-59992107D01*
X113958000Y-60149893D01*
X113927219Y-60304642D01*
X113869838Y-60443171D01*
X113866837Y-60450416D01*
X113779178Y-60581608D01*
X113667608Y-60693178D01*
X113536416Y-60780837D01*
X113536415Y-60780838D01*
X113536414Y-60780838D01*
X113390642Y-60841219D01*
X113235893Y-60872000D01*
X113078107Y-60872000D01*
X112923358Y-60841219D01*
X112777586Y-60780838D01*
X112777585Y-60780838D01*
X112777584Y-60780837D01*
X112646392Y-60693178D01*
X112534822Y-60581608D01*
X112447163Y-60450416D01*
X112444162Y-60443171D01*
X112386781Y-60304642D01*
X112356000Y-60149893D01*
X112356000Y-59992107D01*
X112386781Y-59837358D01*
X112447162Y-59691586D01*
X112447163Y-59691584D01*
X112534822Y-59560392D01*
X112646392Y-59448822D01*
X112777584Y-59361163D01*
X112777586Y-59361162D01*
X112923358Y-59300781D01*
X113078107Y-59270000D01*
X113235893Y-59270000D01*
X113390642Y-59300781D01*
X113390642Y-59300781D01*
G37*
G36*
X107969499Y-58406445D02*
G01*
X108006995Y-58417820D01*
X108041554Y-58436292D01*
X108071847Y-58461153D01*
X108096708Y-58491446D01*
X108115180Y-58526005D01*
X108126555Y-58563501D01*
X108131000Y-58608638D01*
X108131000Y-59247362D01*
X108126555Y-59292499D01*
X108115180Y-59329995D01*
X108096708Y-59364554D01*
X108071847Y-59394847D01*
X108041554Y-59419708D01*
X108006995Y-59438180D01*
X107969499Y-59449555D01*
X107924362Y-59454000D01*
X107185638Y-59454000D01*
X107140501Y-59449555D01*
X107103005Y-59438180D01*
X107068446Y-59419708D01*
X107038153Y-59394847D01*
X107013292Y-59364554D01*
X106994820Y-59329995D01*
X106983445Y-59292499D01*
X106979000Y-59247362D01*
X106979000Y-58608638D01*
X106983445Y-58563501D01*
X106994820Y-58526005D01*
X107013292Y-58491446D01*
X107038153Y-58461153D01*
X107068446Y-58436292D01*
X107103005Y-58417820D01*
X107140501Y-58406445D01*
X107185638Y-58402000D01*
X107924362Y-58402000D01*
X107969499Y-58406445D01*
X107969499Y-58406445D01*
G37*
G36*
X106219499Y-58406445D02*
G01*
X106256995Y-58417820D01*
X106291554Y-58436292D01*
X106321847Y-58461153D01*
X106346708Y-58491446D01*
X106365180Y-58526005D01*
X106376555Y-58563501D01*
X106381000Y-58608638D01*
X106381000Y-59247362D01*
X106376555Y-59292499D01*
X106365180Y-59329995D01*
X106346708Y-59364554D01*
X106321847Y-59394847D01*
X106291554Y-59419708D01*
X106256995Y-59438180D01*
X106219499Y-59449555D01*
X106174362Y-59454000D01*
X105435638Y-59454000D01*
X105390501Y-59449555D01*
X105353005Y-59438180D01*
X105318446Y-59419708D01*
X105288153Y-59394847D01*
X105263292Y-59364554D01*
X105244820Y-59329995D01*
X105233445Y-59292499D01*
X105229000Y-59247362D01*
X105229000Y-58608638D01*
X105233445Y-58563501D01*
X105244820Y-58526005D01*
X105263292Y-58491446D01*
X105288153Y-58461153D01*
X105318446Y-58436292D01*
X105353005Y-58417820D01*
X105390501Y-58406445D01*
X105435638Y-58402000D01*
X106174362Y-58402000D01*
X106219499Y-58406445D01*
X106219499Y-58406445D01*
G37*
G36*
X107969499Y-56628445D02*
G01*
X108006995Y-56639820D01*
X108041554Y-56658292D01*
X108071847Y-56683153D01*
X108096708Y-56713446D01*
X108115180Y-56748005D01*
X108126555Y-56785501D01*
X108131000Y-56830638D01*
X108131000Y-57469362D01*
X108126555Y-57514499D01*
X108115180Y-57551995D01*
X108096708Y-57586554D01*
X108071847Y-57616847D01*
X108041554Y-57641708D01*
X108006995Y-57660180D01*
X107969499Y-57671555D01*
X107924362Y-57676000D01*
X107185638Y-57676000D01*
X107140501Y-57671555D01*
X107103005Y-57660180D01*
X107068446Y-57641708D01*
X107038153Y-57616847D01*
X107013292Y-57586554D01*
X106994820Y-57551995D01*
X106983445Y-57514499D01*
X106979000Y-57469362D01*
X106979000Y-56830638D01*
X106983445Y-56785501D01*
X106994820Y-56748005D01*
X107013292Y-56713446D01*
X107038153Y-56683153D01*
X107068446Y-56658292D01*
X107103005Y-56639820D01*
X107140501Y-56628445D01*
X107185638Y-56624000D01*
X107924362Y-56624000D01*
X107969499Y-56628445D01*
X107969499Y-56628445D01*
G37*
G36*
X106219499Y-56628445D02*
G01*
X106256995Y-56639820D01*
X106291554Y-56658292D01*
X106321847Y-56683153D01*
X106346708Y-56713446D01*
X106365180Y-56748005D01*
X106376555Y-56785501D01*
X106381000Y-56830638D01*
X106381000Y-57469362D01*
X106376555Y-57514499D01*
X106365180Y-57551995D01*
X106346708Y-57586554D01*
X106321847Y-57616847D01*
X106291554Y-57641708D01*
X106256995Y-57660180D01*
X106219499Y-57671555D01*
X106174362Y-57676000D01*
X105435638Y-57676000D01*
X105390501Y-57671555D01*
X105353005Y-57660180D01*
X105318446Y-57641708D01*
X105288153Y-57616847D01*
X105263292Y-57586554D01*
X105244820Y-57551995D01*
X105233445Y-57514499D01*
X105229000Y-57469362D01*
X105229000Y-56830638D01*
X105233445Y-56785501D01*
X105244820Y-56748005D01*
X105263292Y-56713446D01*
X105288153Y-56683153D01*
X105318446Y-56658292D01*
X105353005Y-56639820D01*
X105390501Y-56628445D01*
X105435638Y-56624000D01*
X106174362Y-56624000D01*
X106219499Y-56628445D01*
X106219499Y-56628445D01*
G37*
G36*
X97809499Y-56120445D02*
G01*
X97846995Y-56131820D01*
X97881554Y-56150292D01*
X97911847Y-56175153D01*
X97936708Y-56205446D01*
X97955180Y-56240005D01*
X97966555Y-56277501D01*
X97971000Y-56322638D01*
X97971000Y-56961362D01*
X97966555Y-57006499D01*
X97955180Y-57043995D01*
X97936708Y-57078554D01*
X97911847Y-57108847D01*
X97881554Y-57133708D01*
X97846995Y-57152180D01*
X97809499Y-57163555D01*
X97764362Y-57168000D01*
X97025638Y-57168000D01*
X96980501Y-57163555D01*
X96943005Y-57152180D01*
X96908446Y-57133708D01*
X96878153Y-57108847D01*
X96853292Y-57078554D01*
X96834820Y-57043995D01*
X96823445Y-57006499D01*
X96819000Y-56961362D01*
X96819000Y-56322638D01*
X96823445Y-56277501D01*
X96834820Y-56240005D01*
X96853292Y-56205446D01*
X96878153Y-56175153D01*
X96908446Y-56150292D01*
X96943005Y-56131820D01*
X96980501Y-56120445D01*
X97025638Y-56116000D01*
X97764362Y-56116000D01*
X97809499Y-56120445D01*
X97809499Y-56120445D01*
G37*
G36*
X96059499Y-56120445D02*
G01*
X96096995Y-56131820D01*
X96131554Y-56150292D01*
X96161847Y-56175153D01*
X96186708Y-56205446D01*
X96205180Y-56240005D01*
X96216555Y-56277501D01*
X96221000Y-56322638D01*
X96221000Y-56961362D01*
X96216555Y-57006499D01*
X96205180Y-57043995D01*
X96186708Y-57078554D01*
X96161847Y-57108847D01*
X96131554Y-57133708D01*
X96096995Y-57152180D01*
X96059499Y-57163555D01*
X96014362Y-57168000D01*
X95275638Y-57168000D01*
X95230501Y-57163555D01*
X95193005Y-57152180D01*
X95158446Y-57133708D01*
X95128153Y-57108847D01*
X95103292Y-57078554D01*
X95084820Y-57043995D01*
X95073445Y-57006499D01*
X95069000Y-56961362D01*
X95069000Y-56322638D01*
X95073445Y-56277501D01*
X95084820Y-56240005D01*
X95103292Y-56205446D01*
X95128153Y-56175153D01*
X95158446Y-56150292D01*
X95193005Y-56131820D01*
X95230501Y-56120445D01*
X95275638Y-56116000D01*
X96014362Y-56116000D01*
X96059499Y-56120445D01*
X96059499Y-56120445D01*
G37*
G36*
X113390642Y-54400781D02*
G01*
X113521260Y-54454885D01*
X113536416Y-54461163D01*
X113667608Y-54548822D01*
X113779178Y-54660392D01*
X113849151Y-54765115D01*
X113866838Y-54791586D01*
X113927219Y-54937358D01*
X113958000Y-55092107D01*
X113958000Y-55249893D01*
X113927219Y-55404642D01*
X113866838Y-55550414D01*
X113866837Y-55550416D01*
X113779178Y-55681608D01*
X113667608Y-55793178D01*
X113536416Y-55880837D01*
X113536415Y-55880838D01*
X113536414Y-55880838D01*
X113390642Y-55941219D01*
X113235893Y-55972000D01*
X113078107Y-55972000D01*
X112923358Y-55941219D01*
X112777586Y-55880838D01*
X112777585Y-55880838D01*
X112777584Y-55880837D01*
X112646392Y-55793178D01*
X112534822Y-55681608D01*
X112447163Y-55550416D01*
X112447162Y-55550414D01*
X112386781Y-55404642D01*
X112356000Y-55249893D01*
X112356000Y-55092107D01*
X112386781Y-54937358D01*
X112447162Y-54791586D01*
X112464849Y-54765115D01*
X112534822Y-54660392D01*
X112646392Y-54548822D01*
X112777584Y-54461163D01*
X112792740Y-54454885D01*
X112923358Y-54400781D01*
X113078107Y-54370000D01*
X113235893Y-54370000D01*
X113390642Y-54400781D01*
X113390642Y-54400781D01*
G37*
G36*
X96059499Y-54342445D02*
G01*
X96096995Y-54353820D01*
X96131554Y-54372292D01*
X96161847Y-54397153D01*
X96186708Y-54427446D01*
X96205180Y-54462005D01*
X96216555Y-54499501D01*
X96221000Y-54544638D01*
X96221000Y-55183362D01*
X96216555Y-55228499D01*
X96205180Y-55265995D01*
X96186708Y-55300554D01*
X96161847Y-55330847D01*
X96131554Y-55355708D01*
X96096995Y-55374180D01*
X96059499Y-55385555D01*
X96014362Y-55390000D01*
X95275638Y-55390000D01*
X95230501Y-55385555D01*
X95193005Y-55374180D01*
X95158446Y-55355708D01*
X95128153Y-55330847D01*
X95103292Y-55300554D01*
X95084820Y-55265995D01*
X95073445Y-55228499D01*
X95069000Y-55183362D01*
X95069000Y-54544638D01*
X95073445Y-54499501D01*
X95084820Y-54462005D01*
X95103292Y-54427446D01*
X95128153Y-54397153D01*
X95158446Y-54372292D01*
X95193005Y-54353820D01*
X95230501Y-54342445D01*
X95275638Y-54338000D01*
X96014362Y-54338000D01*
X96059499Y-54342445D01*
X96059499Y-54342445D01*
G37*
G36*
X97809499Y-54342445D02*
G01*
X97846995Y-54353820D01*
X97881554Y-54372292D01*
X97911847Y-54397153D01*
X97936708Y-54427446D01*
X97955180Y-54462005D01*
X97966555Y-54499501D01*
X97971000Y-54544638D01*
X97971000Y-55183362D01*
X97966555Y-55228499D01*
X97955180Y-55265995D01*
X97936708Y-55300554D01*
X97911847Y-55330847D01*
X97881554Y-55355708D01*
X97846995Y-55374180D01*
X97809499Y-55385555D01*
X97764362Y-55390000D01*
X97025638Y-55390000D01*
X96980501Y-55385555D01*
X96943005Y-55374180D01*
X96908446Y-55355708D01*
X96878153Y-55330847D01*
X96853292Y-55300554D01*
X96834820Y-55265995D01*
X96823445Y-55228499D01*
X96819000Y-55183362D01*
X96819000Y-54544638D01*
X96823445Y-54499501D01*
X96834820Y-54462005D01*
X96853292Y-54427446D01*
X96878153Y-54397153D01*
X96908446Y-54372292D01*
X96943005Y-54353820D01*
X96980501Y-54342445D01*
X97025638Y-54338000D01*
X97764362Y-54338000D01*
X97809499Y-54342445D01*
X97809499Y-54342445D01*
G37*
G36*
X100885499Y-53834445D02*
G01*
X100922995Y-53845820D01*
X100957554Y-53864292D01*
X100987847Y-53889153D01*
X101012708Y-53919446D01*
X101031180Y-53954005D01*
X101042555Y-53991501D01*
X101047000Y-54036638D01*
X101047000Y-54675362D01*
X101042555Y-54720499D01*
X101031180Y-54757995D01*
X101012708Y-54792554D01*
X100987847Y-54822847D01*
X100957554Y-54847708D01*
X100922995Y-54866180D01*
X100885499Y-54877555D01*
X100840362Y-54882000D01*
X100101638Y-54882000D01*
X100056501Y-54877555D01*
X100019005Y-54866180D01*
X99984446Y-54847708D01*
X99954153Y-54822847D01*
X99929292Y-54792554D01*
X99910820Y-54757995D01*
X99899445Y-54720499D01*
X99895000Y-54675362D01*
X99895000Y-54036638D01*
X99899445Y-53991501D01*
X99910820Y-53954005D01*
X99929292Y-53919446D01*
X99954153Y-53889153D01*
X99984446Y-53864292D01*
X100019005Y-53845820D01*
X100056501Y-53834445D01*
X100101638Y-53830000D01*
X100840362Y-53830000D01*
X100885499Y-53834445D01*
X100885499Y-53834445D01*
G37*
G36*
X102635499Y-53834445D02*
G01*
X102672995Y-53845820D01*
X102707554Y-53864292D01*
X102737847Y-53889153D01*
X102762708Y-53919446D01*
X102781180Y-53954005D01*
X102792555Y-53991501D01*
X102797000Y-54036638D01*
X102797000Y-54675362D01*
X102792555Y-54720499D01*
X102781180Y-54757995D01*
X102762708Y-54792554D01*
X102737847Y-54822847D01*
X102707554Y-54847708D01*
X102672995Y-54866180D01*
X102635499Y-54877555D01*
X102590362Y-54882000D01*
X101851638Y-54882000D01*
X101806501Y-54877555D01*
X101769005Y-54866180D01*
X101734446Y-54847708D01*
X101704153Y-54822847D01*
X101679292Y-54792554D01*
X101660820Y-54757995D01*
X101649445Y-54720499D01*
X101645000Y-54675362D01*
X101645000Y-54036638D01*
X101649445Y-53991501D01*
X101660820Y-53954005D01*
X101679292Y-53919446D01*
X101704153Y-53889153D01*
X101734446Y-53864292D01*
X101769005Y-53845820D01*
X101806501Y-53834445D01*
X101851638Y-53830000D01*
X102590362Y-53830000D01*
X102635499Y-53834445D01*
X102635499Y-53834445D01*
G37*
G36*
X83676142Y-52685242D02*
G01*
X83824101Y-52746529D01*
X83957255Y-52835499D01*
X84070501Y-52948745D01*
X84159471Y-53081899D01*
X84220758Y-53229858D01*
X84252000Y-53386925D01*
X84252000Y-53547075D01*
X84220758Y-53704142D01*
X84159471Y-53852101D01*
X84070501Y-53985255D01*
X83957255Y-54098501D01*
X83824101Y-54187471D01*
X83676142Y-54248758D01*
X83519075Y-54280000D01*
X83358925Y-54280000D01*
X83201858Y-54248758D01*
X83053899Y-54187471D01*
X82920745Y-54098501D01*
X82807499Y-53985255D01*
X82718529Y-53852101D01*
X82657242Y-53704142D01*
X82626000Y-53547075D01*
X82626000Y-53386925D01*
X82657242Y-53229858D01*
X82718529Y-53081899D01*
X82807499Y-52948745D01*
X82920745Y-52835499D01*
X83053899Y-52746529D01*
X83201858Y-52685242D01*
X83358925Y-52654000D01*
X83519075Y-52654000D01*
X83676142Y-52685242D01*
X83676142Y-52685242D01*
G37*
G36*
X78596142Y-52685242D02*
G01*
X78744101Y-52746529D01*
X78877255Y-52835499D01*
X78990501Y-52948745D01*
X79079471Y-53081899D01*
X79140758Y-53229858D01*
X79172000Y-53386925D01*
X79172000Y-53547075D01*
X79140758Y-53704142D01*
X79079471Y-53852101D01*
X78990501Y-53985255D01*
X78877255Y-54098501D01*
X78744101Y-54187471D01*
X78596142Y-54248758D01*
X78439075Y-54280000D01*
X78278925Y-54280000D01*
X78121858Y-54248758D01*
X77973899Y-54187471D01*
X77840745Y-54098501D01*
X77727499Y-53985255D01*
X77638529Y-53852101D01*
X77577242Y-53704142D01*
X77546000Y-53547075D01*
X77546000Y-53386925D01*
X77577242Y-53229858D01*
X77638529Y-53081899D01*
X77727499Y-52948745D01*
X77840745Y-52835499D01*
X77973899Y-52746529D01*
X78121858Y-52685242D01*
X78278925Y-52654000D01*
X78439075Y-52654000D01*
X78596142Y-52685242D01*
X78596142Y-52685242D01*
G37*
G36*
X66472000Y-54280000D02*
G01*
X64846000Y-54280000D01*
X64846000Y-52654000D01*
X66472000Y-52654000D01*
X66472000Y-54280000D01*
X66472000Y-54280000D01*
G37*
G36*
X76056142Y-52685242D02*
G01*
X76204101Y-52746529D01*
X76337255Y-52835499D01*
X76450501Y-52948745D01*
X76539471Y-53081899D01*
X76600758Y-53229858D01*
X76632000Y-53386925D01*
X76632000Y-53547075D01*
X76600758Y-53704142D01*
X76539471Y-53852101D01*
X76450501Y-53985255D01*
X76337255Y-54098501D01*
X76204101Y-54187471D01*
X76056142Y-54248758D01*
X75899075Y-54280000D01*
X75738925Y-54280000D01*
X75581858Y-54248758D01*
X75433899Y-54187471D01*
X75300745Y-54098501D01*
X75187499Y-53985255D01*
X75098529Y-53852101D01*
X75037242Y-53704142D01*
X75006000Y-53547075D01*
X75006000Y-53386925D01*
X75037242Y-53229858D01*
X75098529Y-53081899D01*
X75187499Y-52948745D01*
X75300745Y-52835499D01*
X75433899Y-52746529D01*
X75581858Y-52685242D01*
X75738925Y-52654000D01*
X75899075Y-52654000D01*
X76056142Y-52685242D01*
X76056142Y-52685242D01*
G37*
G36*
X73516142Y-52685242D02*
G01*
X73664101Y-52746529D01*
X73797255Y-52835499D01*
X73910501Y-52948745D01*
X73999471Y-53081899D01*
X74060758Y-53229858D01*
X74092000Y-53386925D01*
X74092000Y-53547075D01*
X74060758Y-53704142D01*
X73999471Y-53852101D01*
X73910501Y-53985255D01*
X73797255Y-54098501D01*
X73664101Y-54187471D01*
X73516142Y-54248758D01*
X73359075Y-54280000D01*
X73198925Y-54280000D01*
X73041858Y-54248758D01*
X72893899Y-54187471D01*
X72760745Y-54098501D01*
X72647499Y-53985255D01*
X72558529Y-53852101D01*
X72497242Y-53704142D01*
X72466000Y-53547075D01*
X72466000Y-53386925D01*
X72497242Y-53229858D01*
X72558529Y-53081899D01*
X72647499Y-52948745D01*
X72760745Y-52835499D01*
X72893899Y-52746529D01*
X73041858Y-52685242D01*
X73198925Y-52654000D01*
X73359075Y-52654000D01*
X73516142Y-52685242D01*
X73516142Y-52685242D01*
G37*
G36*
X70976142Y-52685242D02*
G01*
X71124101Y-52746529D01*
X71257255Y-52835499D01*
X71370501Y-52948745D01*
X71459471Y-53081899D01*
X71520758Y-53229858D01*
X71552000Y-53386925D01*
X71552000Y-53547075D01*
X71520758Y-53704142D01*
X71459471Y-53852101D01*
X71370501Y-53985255D01*
X71257255Y-54098501D01*
X71124101Y-54187471D01*
X70976142Y-54248758D01*
X70819075Y-54280000D01*
X70658925Y-54280000D01*
X70501858Y-54248758D01*
X70353899Y-54187471D01*
X70220745Y-54098501D01*
X70107499Y-53985255D01*
X70018529Y-53852101D01*
X69957242Y-53704142D01*
X69926000Y-53547075D01*
X69926000Y-53386925D01*
X69957242Y-53229858D01*
X70018529Y-53081899D01*
X70107499Y-52948745D01*
X70220745Y-52835499D01*
X70353899Y-52746529D01*
X70501858Y-52685242D01*
X70658925Y-52654000D01*
X70819075Y-52654000D01*
X70976142Y-52685242D01*
X70976142Y-52685242D01*
G37*
G36*
X81136142Y-52685242D02*
G01*
X81284101Y-52746529D01*
X81417255Y-52835499D01*
X81530501Y-52948745D01*
X81619471Y-53081899D01*
X81680758Y-53229858D01*
X81712000Y-53386925D01*
X81712000Y-53547075D01*
X81680758Y-53704142D01*
X81619471Y-53852101D01*
X81530501Y-53985255D01*
X81417255Y-54098501D01*
X81284101Y-54187471D01*
X81136142Y-54248758D01*
X80979075Y-54280000D01*
X80818925Y-54280000D01*
X80661858Y-54248758D01*
X80513899Y-54187471D01*
X80380745Y-54098501D01*
X80267499Y-53985255D01*
X80178529Y-53852101D01*
X80117242Y-53704142D01*
X80086000Y-53547075D01*
X80086000Y-53386925D01*
X80117242Y-53229858D01*
X80178529Y-53081899D01*
X80267499Y-52948745D01*
X80380745Y-52835499D01*
X80513899Y-52746529D01*
X80661858Y-52685242D01*
X80818925Y-52654000D01*
X80979075Y-52654000D01*
X81136142Y-52685242D01*
X81136142Y-52685242D01*
G37*
G36*
X68436142Y-52685242D02*
G01*
X68584101Y-52746529D01*
X68717255Y-52835499D01*
X68830501Y-52948745D01*
X68919471Y-53081899D01*
X68980758Y-53229858D01*
X69012000Y-53386925D01*
X69012000Y-53547075D01*
X68980758Y-53704142D01*
X68919471Y-53852101D01*
X68830501Y-53985255D01*
X68717255Y-54098501D01*
X68584101Y-54187471D01*
X68436142Y-54248758D01*
X68279075Y-54280000D01*
X68118925Y-54280000D01*
X67961858Y-54248758D01*
X67813899Y-54187471D01*
X67680745Y-54098501D01*
X67567499Y-53985255D01*
X67478529Y-53852101D01*
X67417242Y-53704142D01*
X67386000Y-53547075D01*
X67386000Y-53386925D01*
X67417242Y-53229858D01*
X67478529Y-53081899D01*
X67567499Y-52948745D01*
X67680745Y-52835499D01*
X67813899Y-52746529D01*
X67961858Y-52685242D01*
X68118925Y-52654000D01*
X68279075Y-52654000D01*
X68436142Y-52685242D01*
X68436142Y-52685242D01*
G37*
G36*
X102635499Y-52056445D02*
G01*
X102672995Y-52067820D01*
X102707554Y-52086292D01*
X102737847Y-52111153D01*
X102762708Y-52141446D01*
X102781180Y-52176005D01*
X102792555Y-52213501D01*
X102797000Y-52258638D01*
X102797000Y-52897362D01*
X102792555Y-52942499D01*
X102781180Y-52979995D01*
X102762708Y-53014554D01*
X102737847Y-53044847D01*
X102707554Y-53069708D01*
X102672995Y-53088180D01*
X102635499Y-53099555D01*
X102590362Y-53104000D01*
X101851638Y-53104000D01*
X101806501Y-53099555D01*
X101769005Y-53088180D01*
X101734446Y-53069708D01*
X101704153Y-53044847D01*
X101679292Y-53014554D01*
X101660820Y-52979995D01*
X101649445Y-52942499D01*
X101645000Y-52897362D01*
X101645000Y-52258638D01*
X101649445Y-52213501D01*
X101660820Y-52176005D01*
X101679292Y-52141446D01*
X101704153Y-52111153D01*
X101734446Y-52086292D01*
X101769005Y-52067820D01*
X101806501Y-52056445D01*
X101851638Y-52052000D01*
X102590362Y-52052000D01*
X102635499Y-52056445D01*
X102635499Y-52056445D01*
G37*
G36*
X100885499Y-52056445D02*
G01*
X100922995Y-52067820D01*
X100957554Y-52086292D01*
X100987847Y-52111153D01*
X101012708Y-52141446D01*
X101031180Y-52176005D01*
X101042555Y-52213501D01*
X101047000Y-52258638D01*
X101047000Y-52897362D01*
X101042555Y-52942499D01*
X101031180Y-52979995D01*
X101012708Y-53014554D01*
X100987847Y-53044847D01*
X100957554Y-53069708D01*
X100922995Y-53088180D01*
X100885499Y-53099555D01*
X100840362Y-53104000D01*
X100101638Y-53104000D01*
X100056501Y-53099555D01*
X100019005Y-53088180D01*
X99984446Y-53069708D01*
X99954153Y-53044847D01*
X99929292Y-53014554D01*
X99910820Y-52979995D01*
X99899445Y-52942499D01*
X99895000Y-52897362D01*
X99895000Y-52258638D01*
X99899445Y-52213501D01*
X99910820Y-52176005D01*
X99929292Y-52141446D01*
X99954153Y-52111153D01*
X99984446Y-52086292D01*
X100019005Y-52067820D01*
X100056501Y-52056445D01*
X100101638Y-52052000D01*
X100840362Y-52052000D01*
X100885499Y-52056445D01*
X100885499Y-52056445D01*
G37*
G36*
X111660642Y-45821781D02*
G01*
X111806414Y-45882162D01*
X111806416Y-45882163D01*
X111937608Y-45969822D01*
X112049178Y-46081392D01*
X112136837Y-46212584D01*
X112136838Y-46212586D01*
X112197219Y-46358358D01*
X112228000Y-46513107D01*
X112228000Y-46670893D01*
X112197219Y-46825642D01*
X112136838Y-46971414D01*
X112136837Y-46971416D01*
X112049178Y-47102608D01*
X111937608Y-47214178D01*
X111806416Y-47301837D01*
X111806415Y-47301838D01*
X111806414Y-47301838D01*
X111660642Y-47362219D01*
X111505893Y-47393000D01*
X111348107Y-47393000D01*
X111193358Y-47362219D01*
X111047586Y-47301838D01*
X111047585Y-47301838D01*
X111047584Y-47301837D01*
X110916392Y-47214178D01*
X110804822Y-47102608D01*
X110717163Y-46971416D01*
X110717162Y-46971414D01*
X110656781Y-46825642D01*
X110626000Y-46670893D01*
X110626000Y-46513107D01*
X110656781Y-46358358D01*
X110717162Y-46212586D01*
X110717163Y-46212584D01*
X110804822Y-46081392D01*
X110916392Y-45969822D01*
X111047584Y-45882163D01*
X111047586Y-45882162D01*
X111193358Y-45821781D01*
X111348107Y-45791000D01*
X111505893Y-45791000D01*
X111660642Y-45821781D01*
X111660642Y-45821781D01*
G37*
G36*
X114660642Y-45821781D02*
G01*
X114806414Y-45882162D01*
X114806416Y-45882163D01*
X114937608Y-45969822D01*
X115049178Y-46081392D01*
X115136837Y-46212584D01*
X115136838Y-46212586D01*
X115197219Y-46358358D01*
X115228000Y-46513107D01*
X115228000Y-46670893D01*
X115197219Y-46825642D01*
X115136838Y-46971414D01*
X115136837Y-46971416D01*
X115049178Y-47102608D01*
X114937608Y-47214178D01*
X114806416Y-47301837D01*
X114806415Y-47301838D01*
X114806414Y-47301838D01*
X114660642Y-47362219D01*
X114505893Y-47393000D01*
X114348107Y-47393000D01*
X114193358Y-47362219D01*
X114047586Y-47301838D01*
X114047585Y-47301838D01*
X114047584Y-47301837D01*
X113916392Y-47214178D01*
X113804822Y-47102608D01*
X113717163Y-46971416D01*
X113717162Y-46971414D01*
X113656781Y-46825642D01*
X113626000Y-46670893D01*
X113626000Y-46513107D01*
X113656781Y-46358358D01*
X113717162Y-46212586D01*
X113717163Y-46212584D01*
X113804822Y-46081392D01*
X113916392Y-45969822D01*
X114047584Y-45882163D01*
X114047586Y-45882162D01*
X114193358Y-45821781D01*
X114348107Y-45791000D01*
X114505893Y-45791000D01*
X114660642Y-45821781D01*
X114660642Y-45821781D01*
G37*
G36*
X119049585Y-42910802D02*
G01*
X119199410Y-42940604D01*
X119481674Y-43057521D01*
X119735705Y-43227259D01*
X119951741Y-43443295D01*
X120121479Y-43697326D01*
X120238396Y-43979590D01*
X120298000Y-44279240D01*
X120298000Y-44584760D01*
X120238396Y-44884410D01*
X120121479Y-45166674D01*
X119951741Y-45420705D01*
X119735705Y-45636741D01*
X119481674Y-45806479D01*
X119199410Y-45923396D01*
X119049585Y-45953198D01*
X118899761Y-45983000D01*
X118594239Y-45983000D01*
X118444415Y-45953198D01*
X118294590Y-45923396D01*
X118012326Y-45806479D01*
X117758295Y-45636741D01*
X117542259Y-45420705D01*
X117372521Y-45166674D01*
X117255604Y-44884410D01*
X117196000Y-44584760D01*
X117196000Y-44279240D01*
X117255604Y-43979590D01*
X117372521Y-43697326D01*
X117542259Y-43443295D01*
X117758295Y-43227259D01*
X118012326Y-43057521D01*
X118294590Y-42940604D01*
X118444415Y-42910802D01*
X118594239Y-42881000D01*
X118899761Y-42881000D01*
X119049585Y-42910802D01*
X119049585Y-42910802D01*
G37*
G36*
X83676142Y-43795242D02*
G01*
X83824101Y-43856529D01*
X83957255Y-43945499D01*
X84070501Y-44058745D01*
X84159471Y-44191899D01*
X84220758Y-44339858D01*
X84252000Y-44496925D01*
X84252000Y-44657075D01*
X84220758Y-44814142D01*
X84159471Y-44962101D01*
X84070501Y-45095255D01*
X83957255Y-45208501D01*
X83824101Y-45297471D01*
X83676142Y-45358758D01*
X83519075Y-45390000D01*
X83358925Y-45390000D01*
X83201858Y-45358758D01*
X83053899Y-45297471D01*
X82920745Y-45208501D01*
X82807499Y-45095255D01*
X82718529Y-44962101D01*
X82657242Y-44814142D01*
X82626000Y-44657075D01*
X82626000Y-44496925D01*
X82657242Y-44339858D01*
X82718529Y-44191899D01*
X82807499Y-44058745D01*
X82920745Y-43945499D01*
X83053899Y-43856529D01*
X83201858Y-43795242D01*
X83358925Y-43764000D01*
X83519075Y-43764000D01*
X83676142Y-43795242D01*
X83676142Y-43795242D01*
G37*
G36*
X73516142Y-43795242D02*
G01*
X73664101Y-43856529D01*
X73797255Y-43945499D01*
X73910501Y-44058745D01*
X73999471Y-44191899D01*
X74060758Y-44339858D01*
X74092000Y-44496925D01*
X74092000Y-44657075D01*
X74060758Y-44814142D01*
X73999471Y-44962101D01*
X73910501Y-45095255D01*
X73797255Y-45208501D01*
X73664101Y-45297471D01*
X73516142Y-45358758D01*
X73359075Y-45390000D01*
X73198925Y-45390000D01*
X73041858Y-45358758D01*
X72893899Y-45297471D01*
X72760745Y-45208501D01*
X72647499Y-45095255D01*
X72558529Y-44962101D01*
X72497242Y-44814142D01*
X72466000Y-44657075D01*
X72466000Y-44496925D01*
X72497242Y-44339858D01*
X72558529Y-44191899D01*
X72647499Y-44058745D01*
X72760745Y-43945499D01*
X72893899Y-43856529D01*
X73041858Y-43795242D01*
X73198925Y-43764000D01*
X73359075Y-43764000D01*
X73516142Y-43795242D01*
X73516142Y-43795242D01*
G37*
G36*
X78596142Y-43795242D02*
G01*
X78744101Y-43856529D01*
X78877255Y-43945499D01*
X78990501Y-44058745D01*
X79079471Y-44191899D01*
X79140758Y-44339858D01*
X79172000Y-44496925D01*
X79172000Y-44657075D01*
X79140758Y-44814142D01*
X79079471Y-44962101D01*
X78990501Y-45095255D01*
X78877255Y-45208501D01*
X78744101Y-45297471D01*
X78596142Y-45358758D01*
X78439075Y-45390000D01*
X78278925Y-45390000D01*
X78121858Y-45358758D01*
X77973899Y-45297471D01*
X77840745Y-45208501D01*
X77727499Y-45095255D01*
X77638529Y-44962101D01*
X77577242Y-44814142D01*
X77546000Y-44657075D01*
X77546000Y-44496925D01*
X77577242Y-44339858D01*
X77638529Y-44191899D01*
X77727499Y-44058745D01*
X77840745Y-43945499D01*
X77973899Y-43856529D01*
X78121858Y-43795242D01*
X78278925Y-43764000D01*
X78439075Y-43764000D01*
X78596142Y-43795242D01*
X78596142Y-43795242D01*
G37*
G36*
X81136142Y-43795242D02*
G01*
X81284101Y-43856529D01*
X81417255Y-43945499D01*
X81530501Y-44058745D01*
X81619471Y-44191899D01*
X81680758Y-44339858D01*
X81712000Y-44496925D01*
X81712000Y-44657075D01*
X81680758Y-44814142D01*
X81619471Y-44962101D01*
X81530501Y-45095255D01*
X81417255Y-45208501D01*
X81284101Y-45297471D01*
X81136142Y-45358758D01*
X80979075Y-45390000D01*
X80818925Y-45390000D01*
X80661858Y-45358758D01*
X80513899Y-45297471D01*
X80380745Y-45208501D01*
X80267499Y-45095255D01*
X80178529Y-44962101D01*
X80117242Y-44814142D01*
X80086000Y-44657075D01*
X80086000Y-44496925D01*
X80117242Y-44339858D01*
X80178529Y-44191899D01*
X80267499Y-44058745D01*
X80380745Y-43945499D01*
X80513899Y-43856529D01*
X80661858Y-43795242D01*
X80818925Y-43764000D01*
X80979075Y-43764000D01*
X81136142Y-43795242D01*
X81136142Y-43795242D01*
G37*
G36*
X70976142Y-43795242D02*
G01*
X71124101Y-43856529D01*
X71257255Y-43945499D01*
X71370501Y-44058745D01*
X71459471Y-44191899D01*
X71520758Y-44339858D01*
X71552000Y-44496925D01*
X71552000Y-44657075D01*
X71520758Y-44814142D01*
X71459471Y-44962101D01*
X71370501Y-45095255D01*
X71257255Y-45208501D01*
X71124101Y-45297471D01*
X70976142Y-45358758D01*
X70819075Y-45390000D01*
X70658925Y-45390000D01*
X70501858Y-45358758D01*
X70353899Y-45297471D01*
X70220745Y-45208501D01*
X70107499Y-45095255D01*
X70018529Y-44962101D01*
X69957242Y-44814142D01*
X69926000Y-44657075D01*
X69926000Y-44496925D01*
X69957242Y-44339858D01*
X70018529Y-44191899D01*
X70107499Y-44058745D01*
X70220745Y-43945499D01*
X70353899Y-43856529D01*
X70501858Y-43795242D01*
X70658925Y-43764000D01*
X70819075Y-43764000D01*
X70976142Y-43795242D01*
X70976142Y-43795242D01*
G37*
G36*
X68436142Y-43795242D02*
G01*
X68584101Y-43856529D01*
X68717255Y-43945499D01*
X68830501Y-44058745D01*
X68919471Y-44191899D01*
X68980758Y-44339858D01*
X69012000Y-44496925D01*
X69012000Y-44657075D01*
X68980758Y-44814142D01*
X68919471Y-44962101D01*
X68830501Y-45095255D01*
X68717255Y-45208501D01*
X68584101Y-45297471D01*
X68436142Y-45358758D01*
X68279075Y-45390000D01*
X68118925Y-45390000D01*
X67961858Y-45358758D01*
X67813899Y-45297471D01*
X67680745Y-45208501D01*
X67567499Y-45095255D01*
X67478529Y-44962101D01*
X67417242Y-44814142D01*
X67386000Y-44657075D01*
X67386000Y-44496925D01*
X67417242Y-44339858D01*
X67478529Y-44191899D01*
X67567499Y-44058745D01*
X67680745Y-43945499D01*
X67813899Y-43856529D01*
X67961858Y-43795242D01*
X68118925Y-43764000D01*
X68279075Y-43764000D01*
X68436142Y-43795242D01*
X68436142Y-43795242D01*
G37*
G36*
X65896142Y-43795242D02*
G01*
X66044101Y-43856529D01*
X66177255Y-43945499D01*
X66290501Y-44058745D01*
X66379471Y-44191899D01*
X66440758Y-44339858D01*
X66472000Y-44496925D01*
X66472000Y-44657075D01*
X66440758Y-44814142D01*
X66379471Y-44962101D01*
X66290501Y-45095255D01*
X66177255Y-45208501D01*
X66044101Y-45297471D01*
X65896142Y-45358758D01*
X65739075Y-45390000D01*
X65578925Y-45390000D01*
X65421858Y-45358758D01*
X65273899Y-45297471D01*
X65140745Y-45208501D01*
X65027499Y-45095255D01*
X64938529Y-44962101D01*
X64877242Y-44814142D01*
X64846000Y-44657075D01*
X64846000Y-44496925D01*
X64877242Y-44339858D01*
X64938529Y-44191899D01*
X65027499Y-44058745D01*
X65140745Y-43945499D01*
X65273899Y-43856529D01*
X65421858Y-43795242D01*
X65578925Y-43764000D01*
X65739075Y-43764000D01*
X65896142Y-43795242D01*
X65896142Y-43795242D01*
G37*
G36*
X76056142Y-43795242D02*
G01*
X76204101Y-43856529D01*
X76337255Y-43945499D01*
X76450501Y-44058745D01*
X76539471Y-44191899D01*
X76600758Y-44339858D01*
X76632000Y-44496925D01*
X76632000Y-44657075D01*
X76600758Y-44814142D01*
X76539471Y-44962101D01*
X76450501Y-45095255D01*
X76337255Y-45208501D01*
X76204101Y-45297471D01*
X76056142Y-45358758D01*
X75899075Y-45390000D01*
X75738925Y-45390000D01*
X75581858Y-45358758D01*
X75433899Y-45297471D01*
X75300745Y-45208501D01*
X75187499Y-45095255D01*
X75098529Y-44962101D01*
X75037242Y-44814142D01*
X75006000Y-44657075D01*
X75006000Y-44496925D01*
X75037242Y-44339858D01*
X75098529Y-44191899D01*
X75187499Y-44058745D01*
X75300745Y-43945499D01*
X75433899Y-43856529D01*
X75581858Y-43795242D01*
X75738925Y-43764000D01*
X75899075Y-43764000D01*
X76056142Y-43795242D01*
X76056142Y-43795242D01*
G37*
G36*
X111660642Y-42821781D02*
G01*
X111806414Y-42882162D01*
X111806416Y-42882163D01*
X111937608Y-42969822D01*
X112049178Y-43081392D01*
X112136837Y-43212584D01*
X112136838Y-43212586D01*
X112197219Y-43358358D01*
X112228000Y-43513107D01*
X112228000Y-43670893D01*
X112197219Y-43825642D01*
X112136838Y-43971414D01*
X112136837Y-43971416D01*
X112049178Y-44102608D01*
X111937608Y-44214178D01*
X111806416Y-44301837D01*
X111806415Y-44301838D01*
X111806414Y-44301838D01*
X111660642Y-44362219D01*
X111505893Y-44393000D01*
X111348107Y-44393000D01*
X111193358Y-44362219D01*
X111047586Y-44301838D01*
X111047585Y-44301838D01*
X111047584Y-44301837D01*
X110916392Y-44214178D01*
X110804822Y-44102608D01*
X110717163Y-43971416D01*
X110717162Y-43971414D01*
X110656781Y-43825642D01*
X110626000Y-43670893D01*
X110626000Y-43513107D01*
X110656781Y-43358358D01*
X110717162Y-43212586D01*
X110717163Y-43212584D01*
X110804822Y-43081392D01*
X110916392Y-42969822D01*
X111047584Y-42882163D01*
X111047586Y-42882162D01*
X111193358Y-42821781D01*
X111348107Y-42791000D01*
X111505893Y-42791000D01*
X111660642Y-42821781D01*
X111660642Y-42821781D01*
G37*
G36*
X114660642Y-42821781D02*
G01*
X114806414Y-42882162D01*
X114806416Y-42882163D01*
X114937608Y-42969822D01*
X115049178Y-43081392D01*
X115136837Y-43212584D01*
X115136838Y-43212586D01*
X115197219Y-43358358D01*
X115228000Y-43513107D01*
X115228000Y-43670893D01*
X115197219Y-43825642D01*
X115136838Y-43971414D01*
X115136837Y-43971416D01*
X115049178Y-44102608D01*
X114937608Y-44214178D01*
X114806416Y-44301837D01*
X114806415Y-44301838D01*
X114806414Y-44301838D01*
X114660642Y-44362219D01*
X114505893Y-44393000D01*
X114348107Y-44393000D01*
X114193358Y-44362219D01*
X114047586Y-44301838D01*
X114047585Y-44301838D01*
X114047584Y-44301837D01*
X113916392Y-44214178D01*
X113804822Y-44102608D01*
X113717163Y-43971416D01*
X113717162Y-43971414D01*
X113656781Y-43825642D01*
X113626000Y-43670893D01*
X113626000Y-43513107D01*
X113656781Y-43358358D01*
X113717162Y-43212586D01*
X113717163Y-43212584D01*
X113804822Y-43081392D01*
X113916392Y-42969822D01*
X114047584Y-42882163D01*
X114047586Y-42882162D01*
X114193358Y-42821781D01*
X114348107Y-42791000D01*
X114505893Y-42791000D01*
X114660642Y-42821781D01*
X114660642Y-42821781D01*
G37*
G36*
X114660642Y-39821781D02*
G01*
X114806414Y-39882162D01*
X114806416Y-39882163D01*
X114937608Y-39969822D01*
X115049178Y-40081392D01*
X115136837Y-40212584D01*
X115136838Y-40212586D01*
X115197219Y-40358358D01*
X115228000Y-40513107D01*
X115228000Y-40670893D01*
X115197219Y-40825642D01*
X115151200Y-40936741D01*
X115136837Y-40971416D01*
X115049178Y-41102608D01*
X114937608Y-41214178D01*
X114806416Y-41301837D01*
X114806415Y-41301838D01*
X114806414Y-41301838D01*
X114660642Y-41362219D01*
X114505893Y-41393000D01*
X114348107Y-41393000D01*
X114193358Y-41362219D01*
X114047586Y-41301838D01*
X114047585Y-41301838D01*
X114047584Y-41301837D01*
X113916392Y-41214178D01*
X113804822Y-41102608D01*
X113717163Y-40971416D01*
X113702800Y-40936741D01*
X113656781Y-40825642D01*
X113626000Y-40670893D01*
X113626000Y-40513107D01*
X113656781Y-40358358D01*
X113717162Y-40212586D01*
X113717163Y-40212584D01*
X113804822Y-40081392D01*
X113916392Y-39969822D01*
X114047584Y-39882163D01*
X114047586Y-39882162D01*
X114193358Y-39821781D01*
X114348107Y-39791000D01*
X114505893Y-39791000D01*
X114660642Y-39821781D01*
X114660642Y-39821781D01*
G37*
G36*
X111660642Y-39821781D02*
G01*
X111806414Y-39882162D01*
X111806416Y-39882163D01*
X111937608Y-39969822D01*
X112049178Y-40081392D01*
X112136837Y-40212584D01*
X112136838Y-40212586D01*
X112197219Y-40358358D01*
X112228000Y-40513107D01*
X112228000Y-40670893D01*
X112197219Y-40825642D01*
X112151200Y-40936741D01*
X112136837Y-40971416D01*
X112049178Y-41102608D01*
X111937608Y-41214178D01*
X111806416Y-41301837D01*
X111806415Y-41301838D01*
X111806414Y-41301838D01*
X111660642Y-41362219D01*
X111505893Y-41393000D01*
X111348107Y-41393000D01*
X111193358Y-41362219D01*
X111047586Y-41301838D01*
X111047585Y-41301838D01*
X111047584Y-41301837D01*
X110916392Y-41214178D01*
X110804822Y-41102608D01*
X110717163Y-40971416D01*
X110702800Y-40936741D01*
X110656781Y-40825642D01*
X110626000Y-40670893D01*
X110626000Y-40513107D01*
X110656781Y-40358358D01*
X110717162Y-40212586D01*
X110717163Y-40212584D01*
X110804822Y-40081392D01*
X110916392Y-39969822D01*
X111047584Y-39882163D01*
X111047586Y-39882162D01*
X111193358Y-39821781D01*
X111348107Y-39791000D01*
X111505893Y-39791000D01*
X111660642Y-39821781D01*
X111660642Y-39821781D01*
G37*
G36*
X104486710Y-33937070D02*
G01*
X105178447Y-34223597D01*
X105178448Y-34223598D01*
X105800996Y-34639571D01*
X106330429Y-35169004D01*
X106608374Y-35584978D01*
X106746403Y-35791553D01*
X107032930Y-36483290D01*
X107179000Y-37217633D01*
X107179000Y-37966367D01*
X107032930Y-38700710D01*
X106746403Y-39392447D01*
X106746402Y-39392448D01*
X106330429Y-40014996D01*
X105800996Y-40544429D01*
X105537180Y-40720705D01*
X105178447Y-40960403D01*
X104486710Y-41246930D01*
X103752367Y-41393000D01*
X103003633Y-41393000D01*
X102269290Y-41246930D01*
X101577553Y-40960403D01*
X101218820Y-40720705D01*
X100955004Y-40544429D01*
X100425571Y-40014996D01*
X100009598Y-39392448D01*
X100009597Y-39392447D01*
X99723070Y-38700710D01*
X99577000Y-37966367D01*
X99577000Y-37217633D01*
X99723070Y-36483290D01*
X100009597Y-35791553D01*
X100147626Y-35584978D01*
X100425571Y-35169004D01*
X100955004Y-34639571D01*
X101577552Y-34223598D01*
X101577553Y-34223597D01*
X102269290Y-33937070D01*
X103003633Y-33791000D01*
X103752367Y-33791000D01*
X104486710Y-33937070D01*
X104486710Y-33937070D01*
G37*
G36*
X119011332Y-38203193D02*
G01*
X119199410Y-38240604D01*
X119481674Y-38357521D01*
X119735705Y-38527259D01*
X119951741Y-38743295D01*
X120121479Y-38997326D01*
X120238396Y-39279590D01*
X120238396Y-39279591D01*
X120298000Y-39579239D01*
X120298000Y-39884761D01*
X120268198Y-40034585D01*
X120238396Y-40184410D01*
X120121479Y-40466674D01*
X119951741Y-40720705D01*
X119735705Y-40936741D01*
X119481674Y-41106479D01*
X119199410Y-41223396D01*
X119081101Y-41246929D01*
X118899761Y-41283000D01*
X118594239Y-41283000D01*
X118412899Y-41246929D01*
X118294590Y-41223396D01*
X118012326Y-41106479D01*
X117758295Y-40936741D01*
X117542259Y-40720705D01*
X117372521Y-40466674D01*
X117255604Y-40184410D01*
X117225802Y-40034585D01*
X117196000Y-39884761D01*
X117196000Y-39579239D01*
X117255604Y-39279591D01*
X117255604Y-39279590D01*
X117372521Y-38997326D01*
X117542259Y-38743295D01*
X117758295Y-38527259D01*
X118012326Y-38357521D01*
X118294590Y-38240604D01*
X118482668Y-38203193D01*
X118594239Y-38181000D01*
X118899761Y-38181000D01*
X119011332Y-38203193D01*
X119011332Y-38203193D01*
G37*
G36*
X111660642Y-36821781D02*
G01*
X111784208Y-36872964D01*
X111806416Y-36882163D01*
X111937608Y-36969822D01*
X112049178Y-37081392D01*
X112136837Y-37212584D01*
X112136838Y-37212586D01*
X112197219Y-37358358D01*
X112228000Y-37513107D01*
X112228000Y-37670893D01*
X112197219Y-37825642D01*
X112136838Y-37971414D01*
X112136837Y-37971416D01*
X112049178Y-38102608D01*
X111937608Y-38214178D01*
X111806416Y-38301837D01*
X111806415Y-38301838D01*
X111806414Y-38301838D01*
X111660642Y-38362219D01*
X111505893Y-38393000D01*
X111348107Y-38393000D01*
X111193358Y-38362219D01*
X111047586Y-38301838D01*
X111047585Y-38301838D01*
X111047584Y-38301837D01*
X110916392Y-38214178D01*
X110804822Y-38102608D01*
X110717163Y-37971416D01*
X110717162Y-37971414D01*
X110656781Y-37825642D01*
X110626000Y-37670893D01*
X110626000Y-37513107D01*
X110656781Y-37358358D01*
X110717162Y-37212586D01*
X110717163Y-37212584D01*
X110804822Y-37081392D01*
X110916392Y-36969822D01*
X111047584Y-36882163D01*
X111069792Y-36872964D01*
X111193358Y-36821781D01*
X111348107Y-36791000D01*
X111505893Y-36791000D01*
X111660642Y-36821781D01*
X111660642Y-36821781D01*
G37*
G36*
X115080048Y-36795122D02*
G01*
X115114387Y-36805539D01*
X115146036Y-36822456D01*
X115173778Y-36845222D01*
X115196544Y-36872964D01*
X115213461Y-36904613D01*
X115223878Y-36938952D01*
X115228000Y-36980807D01*
X115228000Y-38203193D01*
X115223878Y-38245048D01*
X115213461Y-38279387D01*
X115196544Y-38311036D01*
X115173778Y-38338778D01*
X115146036Y-38361544D01*
X115114387Y-38378461D01*
X115080048Y-38388878D01*
X115038193Y-38393000D01*
X113815807Y-38393000D01*
X113773952Y-38388878D01*
X113739613Y-38378461D01*
X113707964Y-38361544D01*
X113680222Y-38338778D01*
X113657456Y-38311036D01*
X113640539Y-38279387D01*
X113630122Y-38245048D01*
X113626000Y-38203193D01*
X113626000Y-36980807D01*
X113630122Y-36938952D01*
X113640539Y-36904613D01*
X113657456Y-36872964D01*
X113680222Y-36845222D01*
X113707964Y-36822456D01*
X113739613Y-36805539D01*
X113773952Y-36795122D01*
X113815807Y-36791000D01*
X115038193Y-36791000D01*
X115080048Y-36795122D01*
X115080048Y-36795122D01*
G37*
G36*
X69896585Y-31371802D02*
G01*
X70046410Y-31401604D01*
X70328674Y-31518521D01*
X70582705Y-31688259D01*
X70798741Y-31904295D01*
X70968479Y-32158326D01*
X71085396Y-32440590D01*
X71145000Y-32740240D01*
X71145000Y-33045760D01*
X71085396Y-33345410D01*
X70968479Y-33627674D01*
X70798741Y-33881705D01*
X70582705Y-34097741D01*
X70328674Y-34267479D01*
X70046410Y-34384396D01*
X69896585Y-34414198D01*
X69746761Y-34444000D01*
X69441239Y-34444000D01*
X69291415Y-34414198D01*
X69141590Y-34384396D01*
X68859326Y-34267479D01*
X68605295Y-34097741D01*
X68389259Y-33881705D01*
X68219521Y-33627674D01*
X68102604Y-33345410D01*
X68043000Y-33045760D01*
X68043000Y-32740240D01*
X68102604Y-32440590D01*
X68219521Y-32158326D01*
X68389259Y-31904295D01*
X68605295Y-31688259D01*
X68859326Y-31518521D01*
X69141590Y-31401604D01*
X69291415Y-31371802D01*
X69441239Y-31342000D01*
X69746761Y-31342000D01*
X69896585Y-31371802D01*
X69896585Y-31371802D01*
G37*
G36*
X74567048Y-32096122D02*
G01*
X74601387Y-32106539D01*
X74633036Y-32123456D01*
X74660778Y-32146222D01*
X74683544Y-32173964D01*
X74700461Y-32205613D01*
X74710878Y-32239952D01*
X74715000Y-32281807D01*
X74715000Y-33504193D01*
X74710878Y-33546048D01*
X74700461Y-33580387D01*
X74683544Y-33612036D01*
X74660778Y-33639778D01*
X74633036Y-33662544D01*
X74601387Y-33679461D01*
X74567048Y-33689878D01*
X74525193Y-33694000D01*
X73302807Y-33694000D01*
X73260952Y-33689878D01*
X73226613Y-33679461D01*
X73194964Y-33662544D01*
X73167222Y-33639778D01*
X73144456Y-33612036D01*
X73127539Y-33580387D01*
X73117122Y-33546048D01*
X73113000Y-33504193D01*
X73113000Y-32281807D01*
X73117122Y-32239952D01*
X73127539Y-32205613D01*
X73144456Y-32173964D01*
X73167222Y-32146222D01*
X73194964Y-32123456D01*
X73226613Y-32106539D01*
X73260952Y-32096122D01*
X73302807Y-32092000D01*
X74525193Y-32092000D01*
X74567048Y-32096122D01*
X74567048Y-32096122D01*
G37*
G36*
X77147642Y-32122781D02*
G01*
X77271208Y-32173964D01*
X77293416Y-32183163D01*
X77424608Y-32270822D01*
X77536178Y-32382392D01*
X77575064Y-32440590D01*
X77623838Y-32513586D01*
X77684219Y-32659358D01*
X77715000Y-32814107D01*
X77715000Y-32971893D01*
X77684219Y-33126642D01*
X77623838Y-33272414D01*
X77623837Y-33272416D01*
X77536178Y-33403608D01*
X77424608Y-33515178D01*
X77293416Y-33602837D01*
X77293415Y-33602838D01*
X77293414Y-33602838D01*
X77147642Y-33663219D01*
X76992893Y-33694000D01*
X76835107Y-33694000D01*
X76680358Y-33663219D01*
X76534586Y-33602838D01*
X76534585Y-33602838D01*
X76534584Y-33602837D01*
X76403392Y-33515178D01*
X76291822Y-33403608D01*
X76204163Y-33272416D01*
X76204162Y-33272414D01*
X76143781Y-33126642D01*
X76113000Y-32971893D01*
X76113000Y-32814107D01*
X76143781Y-32659358D01*
X76204162Y-32513586D01*
X76252936Y-32440590D01*
X76291822Y-32382392D01*
X76403392Y-32270822D01*
X76534584Y-32183163D01*
X76556792Y-32173964D01*
X76680358Y-32122781D01*
X76835107Y-32092000D01*
X76992893Y-32092000D01*
X77147642Y-32122781D01*
X77147642Y-32122781D01*
G37*
G36*
X111660642Y-27787781D02*
G01*
X111806414Y-27848162D01*
X111806416Y-27848163D01*
X111937608Y-27935822D01*
X112049178Y-28047392D01*
X112136837Y-28178584D01*
X112136838Y-28178586D01*
X112197219Y-28324358D01*
X112228000Y-28479107D01*
X112228000Y-28636893D01*
X112197219Y-28791642D01*
X112136838Y-28937414D01*
X112136837Y-28937416D01*
X112049178Y-29068608D01*
X111937608Y-29180178D01*
X111806416Y-29267837D01*
X111806415Y-29267838D01*
X111806414Y-29267838D01*
X111660642Y-29328219D01*
X111505893Y-29359000D01*
X111348107Y-29359000D01*
X111193358Y-29328219D01*
X111047586Y-29267838D01*
X111047585Y-29267838D01*
X111047584Y-29267837D01*
X110916392Y-29180178D01*
X110804822Y-29068608D01*
X110717163Y-28937416D01*
X110717162Y-28937414D01*
X110656781Y-28791642D01*
X110626000Y-28636893D01*
X110626000Y-28479107D01*
X110656781Y-28324358D01*
X110717162Y-28178586D01*
X110717163Y-28178584D01*
X110804822Y-28047392D01*
X110916392Y-27935822D01*
X111047584Y-27848163D01*
X111047586Y-27848162D01*
X111193358Y-27787781D01*
X111348107Y-27757000D01*
X111505893Y-27757000D01*
X111660642Y-27787781D01*
X111660642Y-27787781D01*
G37*
G36*
X114660642Y-27787781D02*
G01*
X114806414Y-27848162D01*
X114806416Y-27848163D01*
X114937608Y-27935822D01*
X115049178Y-28047392D01*
X115136837Y-28178584D01*
X115136838Y-28178586D01*
X115197219Y-28324358D01*
X115228000Y-28479107D01*
X115228000Y-28636893D01*
X115197219Y-28791642D01*
X115136838Y-28937414D01*
X115136837Y-28937416D01*
X115049178Y-29068608D01*
X114937608Y-29180178D01*
X114806416Y-29267837D01*
X114806415Y-29267838D01*
X114806414Y-29267838D01*
X114660642Y-29328219D01*
X114505893Y-29359000D01*
X114348107Y-29359000D01*
X114193358Y-29328219D01*
X114047586Y-29267838D01*
X114047585Y-29267838D01*
X114047584Y-29267837D01*
X113916392Y-29180178D01*
X113804822Y-29068608D01*
X113717163Y-28937416D01*
X113717162Y-28937414D01*
X113656781Y-28791642D01*
X113626000Y-28636893D01*
X113626000Y-28479107D01*
X113656781Y-28324358D01*
X113717162Y-28178586D01*
X113717163Y-28178584D01*
X113804822Y-28047392D01*
X113916392Y-27935822D01*
X114047584Y-27848163D01*
X114047586Y-27848162D01*
X114193358Y-27787781D01*
X114348107Y-27757000D01*
X114505893Y-27757000D01*
X114660642Y-27787781D01*
X114660642Y-27787781D01*
G37*
G36*
X119049585Y-24876802D02*
G01*
X119199410Y-24906604D01*
X119481674Y-25023521D01*
X119735705Y-25193259D01*
X119951741Y-25409295D01*
X120121479Y-25663326D01*
X120174629Y-25791643D01*
X120238396Y-25945591D01*
X120298000Y-26245239D01*
X120298000Y-26550761D01*
X120275278Y-26664991D01*
X120238396Y-26850410D01*
X120121479Y-27132674D01*
X119951741Y-27386705D01*
X119735705Y-27602741D01*
X119481674Y-27772479D01*
X119199410Y-27889396D01*
X119049585Y-27919198D01*
X118899761Y-27949000D01*
X118594239Y-27949000D01*
X118444415Y-27919198D01*
X118294590Y-27889396D01*
X118012326Y-27772479D01*
X117758295Y-27602741D01*
X117542259Y-27386705D01*
X117372521Y-27132674D01*
X117255604Y-26850410D01*
X117218722Y-26664991D01*
X117196000Y-26550761D01*
X117196000Y-26245239D01*
X117255604Y-25945591D01*
X117319371Y-25791643D01*
X117372521Y-25663326D01*
X117542259Y-25409295D01*
X117758295Y-25193259D01*
X118012326Y-25023521D01*
X118294590Y-24906604D01*
X118444415Y-24876802D01*
X118594239Y-24847000D01*
X118899761Y-24847000D01*
X119049585Y-24876802D01*
X119049585Y-24876802D01*
G37*
G36*
X99673198Y-25267002D02*
G01*
X99744627Y-25274037D01*
X99914466Y-25325557D01*
X100070991Y-25409222D01*
X100106729Y-25438552D01*
X100208186Y-25521814D01*
X100291448Y-25623271D01*
X100320778Y-25659009D01*
X100404443Y-25815534D01*
X100455963Y-25985373D01*
X100473359Y-26162000D01*
X100455963Y-26338627D01*
X100404443Y-26508466D01*
X100320778Y-26664991D01*
X100291448Y-26700729D01*
X100208186Y-26802186D01*
X100106729Y-26885448D01*
X100070991Y-26914778D01*
X99914466Y-26998443D01*
X99744627Y-27049963D01*
X99678443Y-27056481D01*
X99612260Y-27063000D01*
X99523740Y-27063000D01*
X99457557Y-27056481D01*
X99391373Y-27049963D01*
X99221534Y-26998443D01*
X99065009Y-26914778D01*
X99029271Y-26885448D01*
X98927814Y-26802186D01*
X98844552Y-26700729D01*
X98815222Y-26664991D01*
X98731557Y-26508466D01*
X98680037Y-26338627D01*
X98662641Y-26162000D01*
X98680037Y-25985373D01*
X98731557Y-25815534D01*
X98815222Y-25659009D01*
X98844552Y-25623271D01*
X98927814Y-25521814D01*
X99029271Y-25438552D01*
X99065009Y-25409222D01*
X99221534Y-25325557D01*
X99391373Y-25274037D01*
X99462802Y-25267002D01*
X99523740Y-25261000D01*
X99612260Y-25261000D01*
X99673198Y-25267002D01*
X99673198Y-25267002D01*
G37*
G36*
X103009000Y-27063000D02*
G01*
X101207000Y-27063000D01*
X101207000Y-25261000D01*
X103009000Y-25261000D01*
X103009000Y-27063000D01*
X103009000Y-27063000D01*
G37*
G36*
X97133198Y-25267002D02*
G01*
X97204627Y-25274037D01*
X97374466Y-25325557D01*
X97530991Y-25409222D01*
X97566729Y-25438552D01*
X97668186Y-25521814D01*
X97751448Y-25623271D01*
X97780778Y-25659009D01*
X97864443Y-25815534D01*
X97915963Y-25985373D01*
X97933359Y-26162000D01*
X97915963Y-26338627D01*
X97864443Y-26508466D01*
X97780778Y-26664991D01*
X97751448Y-26700729D01*
X97668186Y-26802186D01*
X97566729Y-26885448D01*
X97530991Y-26914778D01*
X97374466Y-26998443D01*
X97204627Y-27049963D01*
X97138443Y-27056481D01*
X97072260Y-27063000D01*
X96983740Y-27063000D01*
X96917557Y-27056481D01*
X96851373Y-27049963D01*
X96681534Y-26998443D01*
X96525009Y-26914778D01*
X96489271Y-26885448D01*
X96387814Y-26802186D01*
X96304552Y-26700729D01*
X96275222Y-26664991D01*
X96191557Y-26508466D01*
X96140037Y-26338627D01*
X96122641Y-26162000D01*
X96140037Y-25985373D01*
X96191557Y-25815534D01*
X96275222Y-25659009D01*
X96304552Y-25623271D01*
X96387814Y-25521814D01*
X96489271Y-25438552D01*
X96525009Y-25409222D01*
X96681534Y-25325557D01*
X96851373Y-25274037D01*
X96922802Y-25267002D01*
X96983740Y-25261000D01*
X97072260Y-25261000D01*
X97133198Y-25267002D01*
X97133198Y-25267002D01*
G37*
G36*
X94593198Y-25267002D02*
G01*
X94664627Y-25274037D01*
X94834466Y-25325557D01*
X94990991Y-25409222D01*
X95026729Y-25438552D01*
X95128186Y-25521814D01*
X95211448Y-25623271D01*
X95240778Y-25659009D01*
X95324443Y-25815534D01*
X95375963Y-25985373D01*
X95393359Y-26162000D01*
X95375963Y-26338627D01*
X95324443Y-26508466D01*
X95240778Y-26664991D01*
X95211448Y-26700729D01*
X95128186Y-26802186D01*
X95026729Y-26885448D01*
X94990991Y-26914778D01*
X94834466Y-26998443D01*
X94664627Y-27049963D01*
X94598443Y-27056481D01*
X94532260Y-27063000D01*
X94443740Y-27063000D01*
X94377557Y-27056481D01*
X94311373Y-27049963D01*
X94141534Y-26998443D01*
X93985009Y-26914778D01*
X93949271Y-26885448D01*
X93847814Y-26802186D01*
X93764552Y-26700729D01*
X93735222Y-26664991D01*
X93651557Y-26508466D01*
X93600037Y-26338627D01*
X93582641Y-26162000D01*
X93600037Y-25985373D01*
X93651557Y-25815534D01*
X93735222Y-25659009D01*
X93764552Y-25623271D01*
X93847814Y-25521814D01*
X93949271Y-25438552D01*
X93985009Y-25409222D01*
X94141534Y-25325557D01*
X94311373Y-25274037D01*
X94382802Y-25267002D01*
X94443740Y-25261000D01*
X94532260Y-25261000D01*
X94593198Y-25267002D01*
X94593198Y-25267002D01*
G37*
G36*
X114660642Y-24787781D02*
G01*
X114806414Y-24848162D01*
X114806416Y-24848163D01*
X114937608Y-24935822D01*
X115049178Y-25047392D01*
X115115851Y-25147176D01*
X115136838Y-25178586D01*
X115197219Y-25324358D01*
X115228000Y-25479107D01*
X115228000Y-25636893D01*
X115197219Y-25791642D01*
X115136838Y-25937414D01*
X115136837Y-25937416D01*
X115049178Y-26068608D01*
X114937608Y-26180178D01*
X114806416Y-26267837D01*
X114806415Y-26267838D01*
X114806414Y-26267838D01*
X114660642Y-26328219D01*
X114505893Y-26359000D01*
X114348107Y-26359000D01*
X114193358Y-26328219D01*
X114047586Y-26267838D01*
X114047585Y-26267838D01*
X114047584Y-26267837D01*
X113916392Y-26180178D01*
X113804822Y-26068608D01*
X113717163Y-25937416D01*
X113717162Y-25937414D01*
X113656781Y-25791642D01*
X113626000Y-25636893D01*
X113626000Y-25479107D01*
X113656781Y-25324358D01*
X113717162Y-25178586D01*
X113738149Y-25147176D01*
X113804822Y-25047392D01*
X113916392Y-24935822D01*
X114047584Y-24848163D01*
X114047586Y-24848162D01*
X114193358Y-24787781D01*
X114348107Y-24757000D01*
X114505893Y-24757000D01*
X114660642Y-24787781D01*
X114660642Y-24787781D01*
G37*
G36*
X111660642Y-24787781D02*
G01*
X111806414Y-24848162D01*
X111806416Y-24848163D01*
X111937608Y-24935822D01*
X112049178Y-25047392D01*
X112115851Y-25147176D01*
X112136838Y-25178586D01*
X112197219Y-25324358D01*
X112228000Y-25479107D01*
X112228000Y-25636893D01*
X112197219Y-25791642D01*
X112136838Y-25937414D01*
X112136837Y-25937416D01*
X112049178Y-26068608D01*
X111937608Y-26180178D01*
X111806416Y-26267837D01*
X111806415Y-26267838D01*
X111806414Y-26267838D01*
X111660642Y-26328219D01*
X111505893Y-26359000D01*
X111348107Y-26359000D01*
X111193358Y-26328219D01*
X111047586Y-26267838D01*
X111047585Y-26267838D01*
X111047584Y-26267837D01*
X110916392Y-26180178D01*
X110804822Y-26068608D01*
X110717163Y-25937416D01*
X110717162Y-25937414D01*
X110656781Y-25791642D01*
X110626000Y-25636893D01*
X110626000Y-25479107D01*
X110656781Y-25324358D01*
X110717162Y-25178586D01*
X110738149Y-25147176D01*
X110804822Y-25047392D01*
X110916392Y-24935822D01*
X111047584Y-24848163D01*
X111047586Y-24848162D01*
X111193358Y-24787781D01*
X111348107Y-24757000D01*
X111505893Y-24757000D01*
X111660642Y-24787781D01*
X111660642Y-24787781D01*
G37*
G36*
X77147642Y-23740781D02*
G01*
X77271208Y-23791964D01*
X77293416Y-23801163D01*
X77424608Y-23888822D01*
X77536178Y-24000392D01*
X77623837Y-24131584D01*
X77623838Y-24131586D01*
X77684219Y-24277358D01*
X77715000Y-24432107D01*
X77715000Y-24589893D01*
X77684219Y-24744642D01*
X77641339Y-24848162D01*
X77623837Y-24890416D01*
X77536178Y-25021608D01*
X77424608Y-25133178D01*
X77293416Y-25220837D01*
X77293415Y-25220838D01*
X77293414Y-25220838D01*
X77147642Y-25281219D01*
X76992893Y-25312000D01*
X76835107Y-25312000D01*
X76680358Y-25281219D01*
X76534586Y-25220838D01*
X76534585Y-25220838D01*
X76534584Y-25220837D01*
X76403392Y-25133178D01*
X76291822Y-25021608D01*
X76204163Y-24890416D01*
X76186661Y-24848162D01*
X76143781Y-24744642D01*
X76113000Y-24589893D01*
X76113000Y-24432107D01*
X76143781Y-24277358D01*
X76204162Y-24131586D01*
X76204163Y-24131584D01*
X76291822Y-24000392D01*
X76403392Y-23888822D01*
X76534584Y-23801163D01*
X76556792Y-23791964D01*
X76680358Y-23740781D01*
X76835107Y-23710000D01*
X76992893Y-23710000D01*
X77147642Y-23740781D01*
X77147642Y-23740781D01*
G37*
G36*
X74567048Y-23714122D02*
G01*
X74601387Y-23724539D01*
X74633036Y-23741456D01*
X74660778Y-23764222D01*
X74683544Y-23791964D01*
X74700461Y-23823613D01*
X74710878Y-23857952D01*
X74715000Y-23899807D01*
X74715000Y-25122193D01*
X74710878Y-25164048D01*
X74700461Y-25198387D01*
X74683544Y-25230036D01*
X74660778Y-25257778D01*
X74633036Y-25280544D01*
X74601387Y-25297461D01*
X74567048Y-25307878D01*
X74525193Y-25312000D01*
X73302807Y-25312000D01*
X73260952Y-25307878D01*
X73226613Y-25297461D01*
X73194964Y-25280544D01*
X73167222Y-25257778D01*
X73144456Y-25230036D01*
X73127539Y-25198387D01*
X73117122Y-25164048D01*
X73113000Y-25122193D01*
X73113000Y-23899807D01*
X73117122Y-23857952D01*
X73127539Y-23823613D01*
X73144456Y-23791964D01*
X73167222Y-23764222D01*
X73194964Y-23741456D01*
X73226613Y-23724539D01*
X73260952Y-23714122D01*
X73302807Y-23710000D01*
X74525193Y-23710000D01*
X74567048Y-23714122D01*
X74567048Y-23714122D01*
G37*
G36*
X69896585Y-21489802D02*
G01*
X70046410Y-21519604D01*
X70328674Y-21636521D01*
X70582705Y-21806259D01*
X70798741Y-22022295D01*
X70968479Y-22276326D01*
X71085396Y-22558590D01*
X71145000Y-22858240D01*
X71145000Y-23163760D01*
X71085396Y-23463410D01*
X70968479Y-23745674D01*
X70798741Y-23999705D01*
X70582705Y-24215741D01*
X70328674Y-24385479D01*
X70046410Y-24502396D01*
X69896585Y-24532198D01*
X69746761Y-24562000D01*
X69441239Y-24562000D01*
X69291415Y-24532198D01*
X69141590Y-24502396D01*
X68859326Y-24385479D01*
X68605295Y-24215741D01*
X68389259Y-23999705D01*
X68219521Y-23745674D01*
X68102604Y-23463410D01*
X68043000Y-23163760D01*
X68043000Y-22858240D01*
X68102604Y-22558590D01*
X68219521Y-22276326D01*
X68389259Y-22022295D01*
X68605295Y-21806259D01*
X68859326Y-21636521D01*
X69141590Y-21519604D01*
X69291415Y-21489802D01*
X69441239Y-21460000D01*
X69746761Y-21460000D01*
X69896585Y-21489802D01*
X69896585Y-21489802D01*
G37*
G36*
X111660642Y-21787781D02*
G01*
X111806414Y-21848162D01*
X111806416Y-21848163D01*
X111937608Y-21935822D01*
X112049178Y-22047392D01*
X112136837Y-22178584D01*
X112136838Y-22178586D01*
X112197219Y-22324358D01*
X112228000Y-22479107D01*
X112228000Y-22636893D01*
X112197219Y-22791642D01*
X112151200Y-22902741D01*
X112136837Y-22937416D01*
X112049178Y-23068608D01*
X111937608Y-23180178D01*
X111806416Y-23267837D01*
X111806415Y-23267838D01*
X111806414Y-23267838D01*
X111660642Y-23328219D01*
X111505893Y-23359000D01*
X111348107Y-23359000D01*
X111193358Y-23328219D01*
X111047586Y-23267838D01*
X111047585Y-23267838D01*
X111047584Y-23267837D01*
X110916392Y-23180178D01*
X110804822Y-23068608D01*
X110717163Y-22937416D01*
X110702800Y-22902741D01*
X110656781Y-22791642D01*
X110626000Y-22636893D01*
X110626000Y-22479107D01*
X110656781Y-22324358D01*
X110717162Y-22178586D01*
X110717163Y-22178584D01*
X110804822Y-22047392D01*
X110916392Y-21935822D01*
X111047584Y-21848163D01*
X111047586Y-21848162D01*
X111193358Y-21787781D01*
X111348107Y-21757000D01*
X111505893Y-21757000D01*
X111660642Y-21787781D01*
X111660642Y-21787781D01*
G37*
G36*
X114660642Y-21787781D02*
G01*
X114806414Y-21848162D01*
X114806416Y-21848163D01*
X114937608Y-21935822D01*
X115049178Y-22047392D01*
X115136837Y-22178584D01*
X115136838Y-22178586D01*
X115197219Y-22324358D01*
X115228000Y-22479107D01*
X115228000Y-22636893D01*
X115197219Y-22791642D01*
X115151200Y-22902741D01*
X115136837Y-22937416D01*
X115049178Y-23068608D01*
X114937608Y-23180178D01*
X114806416Y-23267837D01*
X114806415Y-23267838D01*
X114806414Y-23267838D01*
X114660642Y-23328219D01*
X114505893Y-23359000D01*
X114348107Y-23359000D01*
X114193358Y-23328219D01*
X114047586Y-23267838D01*
X114047585Y-23267838D01*
X114047584Y-23267837D01*
X113916392Y-23180178D01*
X113804822Y-23068608D01*
X113717163Y-22937416D01*
X113702800Y-22902741D01*
X113656781Y-22791642D01*
X113626000Y-22636893D01*
X113626000Y-22479107D01*
X113656781Y-22324358D01*
X113717162Y-22178586D01*
X113717163Y-22178584D01*
X113804822Y-22047392D01*
X113916392Y-21935822D01*
X114047584Y-21848163D01*
X114047586Y-21848162D01*
X114193358Y-21787781D01*
X114348107Y-21757000D01*
X114505893Y-21757000D01*
X114660642Y-21787781D01*
X114660642Y-21787781D01*
G37*
G36*
X119011332Y-20169193D02*
G01*
X119199410Y-20206604D01*
X119481674Y-20323521D01*
X119735705Y-20493259D01*
X119951741Y-20709295D01*
X120121479Y-20963326D01*
X120191173Y-21131584D01*
X120238396Y-21245591D01*
X120275497Y-21432107D01*
X120298000Y-21545240D01*
X120298000Y-21850760D01*
X120238396Y-22150410D01*
X120121479Y-22432674D01*
X119951741Y-22686705D01*
X119735705Y-22902741D01*
X119481674Y-23072479D01*
X119199410Y-23189396D01*
X119049585Y-23219198D01*
X118899761Y-23249000D01*
X118594239Y-23249000D01*
X118444415Y-23219198D01*
X118294590Y-23189396D01*
X118012326Y-23072479D01*
X117758295Y-22902741D01*
X117542259Y-22686705D01*
X117372521Y-22432674D01*
X117255604Y-22150410D01*
X117196000Y-21850760D01*
X117196000Y-21545240D01*
X117218504Y-21432107D01*
X117255604Y-21245591D01*
X117302827Y-21131584D01*
X117372521Y-20963326D01*
X117542259Y-20709295D01*
X117758295Y-20493259D01*
X118012326Y-20323521D01*
X118294590Y-20206604D01*
X118482668Y-20169193D01*
X118594239Y-20147000D01*
X118899761Y-20147000D01*
X119011332Y-20169193D01*
X119011332Y-20169193D01*
G37*
G36*
X77147642Y-20740781D02*
G01*
X77293414Y-20801162D01*
X77293416Y-20801163D01*
X77424608Y-20888822D01*
X77536178Y-21000392D01*
X77623837Y-21131584D01*
X77623838Y-21131586D01*
X77684219Y-21277358D01*
X77715000Y-21432107D01*
X77715000Y-21589893D01*
X77684219Y-21744642D01*
X77641339Y-21848162D01*
X77623837Y-21890416D01*
X77536178Y-22021608D01*
X77424608Y-22133178D01*
X77293416Y-22220837D01*
X77293415Y-22220838D01*
X77293414Y-22220838D01*
X77147642Y-22281219D01*
X76992893Y-22312000D01*
X76835107Y-22312000D01*
X76680358Y-22281219D01*
X76534586Y-22220838D01*
X76534585Y-22220838D01*
X76534584Y-22220837D01*
X76403392Y-22133178D01*
X76291822Y-22021608D01*
X76204163Y-21890416D01*
X76186661Y-21848162D01*
X76143781Y-21744642D01*
X76113000Y-21589893D01*
X76113000Y-21432107D01*
X76143781Y-21277358D01*
X76204162Y-21131586D01*
X76204163Y-21131584D01*
X76291822Y-21000392D01*
X76403392Y-20888822D01*
X76534584Y-20801163D01*
X76534586Y-20801162D01*
X76680358Y-20740781D01*
X76835107Y-20710000D01*
X76992893Y-20710000D01*
X77147642Y-20740781D01*
X77147642Y-20740781D01*
G37*
G36*
X74147642Y-20740781D02*
G01*
X74293414Y-20801162D01*
X74293416Y-20801163D01*
X74424608Y-20888822D01*
X74536178Y-21000392D01*
X74623837Y-21131584D01*
X74623838Y-21131586D01*
X74684219Y-21277358D01*
X74715000Y-21432107D01*
X74715000Y-21589893D01*
X74684219Y-21744642D01*
X74641339Y-21848162D01*
X74623837Y-21890416D01*
X74536178Y-22021608D01*
X74424608Y-22133178D01*
X74293416Y-22220837D01*
X74293415Y-22220838D01*
X74293414Y-22220838D01*
X74147642Y-22281219D01*
X73992893Y-22312000D01*
X73835107Y-22312000D01*
X73680358Y-22281219D01*
X73534586Y-22220838D01*
X73534585Y-22220838D01*
X73534584Y-22220837D01*
X73403392Y-22133178D01*
X73291822Y-22021608D01*
X73204163Y-21890416D01*
X73186661Y-21848162D01*
X73143781Y-21744642D01*
X73113000Y-21589893D01*
X73113000Y-21432107D01*
X73143781Y-21277358D01*
X73204162Y-21131586D01*
X73204163Y-21131584D01*
X73291822Y-21000392D01*
X73403392Y-20888822D01*
X73534584Y-20801163D01*
X73534586Y-20801162D01*
X73680358Y-20740781D01*
X73835107Y-20710000D01*
X73992893Y-20710000D01*
X74147642Y-20740781D01*
X74147642Y-20740781D01*
G37*
G36*
X115080048Y-18761122D02*
G01*
X115114387Y-18771539D01*
X115146036Y-18788456D01*
X115173778Y-18811222D01*
X115196544Y-18838964D01*
X115213461Y-18870613D01*
X115223878Y-18904952D01*
X115228000Y-18946807D01*
X115228000Y-20169193D01*
X115223878Y-20211048D01*
X115213461Y-20245387D01*
X115196544Y-20277036D01*
X115173778Y-20304778D01*
X115146036Y-20327544D01*
X115114387Y-20344461D01*
X115080048Y-20354878D01*
X115038193Y-20359000D01*
X113815807Y-20359000D01*
X113773952Y-20354878D01*
X113739613Y-20344461D01*
X113707964Y-20327544D01*
X113680222Y-20304778D01*
X113657456Y-20277036D01*
X113640539Y-20245387D01*
X113630122Y-20211048D01*
X113626000Y-20169193D01*
X113626000Y-18946807D01*
X113630122Y-18904952D01*
X113640539Y-18870613D01*
X113657456Y-18838964D01*
X113680222Y-18811222D01*
X113707964Y-18788456D01*
X113739613Y-18771539D01*
X113773952Y-18761122D01*
X113815807Y-18757000D01*
X115038193Y-18757000D01*
X115080048Y-18761122D01*
X115080048Y-18761122D01*
G37*
G36*
X111660642Y-18787781D02*
G01*
X111784208Y-18838964D01*
X111806416Y-18848163D01*
X111937608Y-18935822D01*
X112049178Y-19047392D01*
X112136837Y-19178584D01*
X112136838Y-19178586D01*
X112197219Y-19324358D01*
X112228000Y-19479107D01*
X112228000Y-19636893D01*
X112197219Y-19791642D01*
X112136838Y-19937414D01*
X112136837Y-19937416D01*
X112049178Y-20068608D01*
X111937608Y-20180178D01*
X111806416Y-20267837D01*
X111806415Y-20267838D01*
X111806414Y-20267838D01*
X111660642Y-20328219D01*
X111505893Y-20359000D01*
X111348107Y-20359000D01*
X111193358Y-20328219D01*
X111047586Y-20267838D01*
X111047585Y-20267838D01*
X111047584Y-20267837D01*
X110916392Y-20180178D01*
X110804822Y-20068608D01*
X110717163Y-19937416D01*
X110717162Y-19937414D01*
X110656781Y-19791642D01*
X110626000Y-19636893D01*
X110626000Y-19479107D01*
X110656781Y-19324358D01*
X110717162Y-19178586D01*
X110717163Y-19178584D01*
X110804822Y-19047392D01*
X110916392Y-18935822D01*
X111047584Y-18848163D01*
X111069792Y-18838964D01*
X111193358Y-18787781D01*
X111348107Y-18757000D01*
X111505893Y-18757000D01*
X111660642Y-18787781D01*
X111660642Y-18787781D01*
G37*
M02*
