G04 #@! TF.GenerationSoftware,KiCad,Pcbnew,(5.1.0)-1*
G04 #@! TF.CreationDate,2019-03-25T06:45:31-06:00*
G04 #@! TF.ProjectId,ParkingSystem,5061726b-696e-4675-9379-7374656d2e6b,v01*
G04 #@! TF.SameCoordinates,Original*
G04 #@! TF.FileFunction,Copper,L2,Bot*
G04 #@! TF.FilePolarity,Positive*
%FSLAX46Y46*%
G04 Gerber Fmt 4.6, Leading zero omitted, Abs format (unit mm)*
G04 Created by KiCad (PCBNEW (5.1.0)-1) date 2019-03-25 06:45:31*
%MOMM*%
%LPD*%
G04 APERTURE LIST*
%ADD10O,4.400000X2.240000*%
%ADD11O,2.240000X4.900000*%
%ADD12C,1.500000*%
%ADD13C,0.100000*%
%ADD14C,2.000000*%
%ADD15C,7.500000*%
%ADD16O,2.300000X1.500000*%
%ADD17R,2.300000X1.500000*%
%ADD18C,0.950000*%
%ADD19O,1.700000X1.700000*%
%ADD20R,1.700000X1.700000*%
%ADD21C,1.700000*%
%ADD22C,1.700000*%
%ADD23R,1.524000X1.524000*%
%ADD24C,1.524000*%
%ADD25C,0.787400*%
%ADD26C,0.254000*%
%ADD27C,0.152400*%
%ADD28C,0.508000*%
G04 APERTURE END LIST*
D10*
X75128000Y-83748000D03*
D11*
X72128000Y-79248000D03*
X78128000Y-79248000D03*
D12*
X76914000Y-32893000D03*
D13*
G36*
X74438504Y-32144204D02*
G01*
X74462773Y-32147804D01*
X74486571Y-32153765D01*
X74509671Y-32162030D01*
X74531849Y-32172520D01*
X74552893Y-32185133D01*
X74572598Y-32199747D01*
X74590777Y-32216223D01*
X74607253Y-32234402D01*
X74621867Y-32254107D01*
X74634480Y-32275151D01*
X74644970Y-32297329D01*
X74653235Y-32320429D01*
X74659196Y-32344227D01*
X74662796Y-32368496D01*
X74664000Y-32393000D01*
X74664000Y-33393000D01*
X74662796Y-33417504D01*
X74659196Y-33441773D01*
X74653235Y-33465571D01*
X74644970Y-33488671D01*
X74634480Y-33510849D01*
X74621867Y-33531893D01*
X74607253Y-33551598D01*
X74590777Y-33569777D01*
X74572598Y-33586253D01*
X74552893Y-33600867D01*
X74531849Y-33613480D01*
X74509671Y-33623970D01*
X74486571Y-33632235D01*
X74462773Y-33638196D01*
X74438504Y-33641796D01*
X74414000Y-33643000D01*
X73414000Y-33643000D01*
X73389496Y-33641796D01*
X73365227Y-33638196D01*
X73341429Y-33632235D01*
X73318329Y-33623970D01*
X73296151Y-33613480D01*
X73275107Y-33600867D01*
X73255402Y-33586253D01*
X73237223Y-33569777D01*
X73220747Y-33551598D01*
X73206133Y-33531893D01*
X73193520Y-33510849D01*
X73183030Y-33488671D01*
X73174765Y-33465571D01*
X73168804Y-33441773D01*
X73165204Y-33417504D01*
X73164000Y-33393000D01*
X73164000Y-32393000D01*
X73165204Y-32368496D01*
X73168804Y-32344227D01*
X73174765Y-32320429D01*
X73183030Y-32297329D01*
X73193520Y-32275151D01*
X73206133Y-32254107D01*
X73220747Y-32234402D01*
X73237223Y-32216223D01*
X73255402Y-32199747D01*
X73275107Y-32185133D01*
X73296151Y-32172520D01*
X73318329Y-32162030D01*
X73341429Y-32153765D01*
X73365227Y-32147804D01*
X73389496Y-32144204D01*
X73414000Y-32143000D01*
X74414000Y-32143000D01*
X74438504Y-32144204D01*
X74438504Y-32144204D01*
G37*
D12*
X73914000Y-32893000D03*
X76914000Y-21511000D03*
X76914000Y-24511000D03*
X73914000Y-21511000D03*
D13*
G36*
X74438504Y-23762204D02*
G01*
X74462773Y-23765804D01*
X74486571Y-23771765D01*
X74509671Y-23780030D01*
X74531849Y-23790520D01*
X74552893Y-23803133D01*
X74572598Y-23817747D01*
X74590777Y-23834223D01*
X74607253Y-23852402D01*
X74621867Y-23872107D01*
X74634480Y-23893151D01*
X74644970Y-23915329D01*
X74653235Y-23938429D01*
X74659196Y-23962227D01*
X74662796Y-23986496D01*
X74664000Y-24011000D01*
X74664000Y-25011000D01*
X74662796Y-25035504D01*
X74659196Y-25059773D01*
X74653235Y-25083571D01*
X74644970Y-25106671D01*
X74634480Y-25128849D01*
X74621867Y-25149893D01*
X74607253Y-25169598D01*
X74590777Y-25187777D01*
X74572598Y-25204253D01*
X74552893Y-25218867D01*
X74531849Y-25231480D01*
X74509671Y-25241970D01*
X74486571Y-25250235D01*
X74462773Y-25256196D01*
X74438504Y-25259796D01*
X74414000Y-25261000D01*
X73414000Y-25261000D01*
X73389496Y-25259796D01*
X73365227Y-25256196D01*
X73341429Y-25250235D01*
X73318329Y-25241970D01*
X73296151Y-25231480D01*
X73275107Y-25218867D01*
X73255402Y-25204253D01*
X73237223Y-25187777D01*
X73220747Y-25169598D01*
X73206133Y-25149893D01*
X73193520Y-25128849D01*
X73183030Y-25106671D01*
X73174765Y-25083571D01*
X73168804Y-25059773D01*
X73165204Y-25035504D01*
X73164000Y-25011000D01*
X73164000Y-24011000D01*
X73165204Y-23986496D01*
X73168804Y-23962227D01*
X73174765Y-23938429D01*
X73183030Y-23915329D01*
X73193520Y-23893151D01*
X73206133Y-23872107D01*
X73220747Y-23852402D01*
X73237223Y-23834223D01*
X73255402Y-23817747D01*
X73275107Y-23803133D01*
X73296151Y-23790520D01*
X73318329Y-23780030D01*
X73341429Y-23771765D01*
X73365227Y-23765804D01*
X73389496Y-23762204D01*
X73414000Y-23761000D01*
X74414000Y-23761000D01*
X74438504Y-23762204D01*
X74438504Y-23762204D01*
G37*
D12*
X73914000Y-24511000D03*
D14*
X118625000Y-85598000D03*
X103625000Y-85598000D03*
D15*
X116332000Y-68707000D03*
X82423000Y-94361000D03*
D16*
X66548000Y-94234000D03*
X66548000Y-91694000D03*
D17*
X66548000Y-89154000D03*
D13*
G36*
X95955779Y-56168144D02*
G01*
X95978834Y-56171563D01*
X96001443Y-56177227D01*
X96023387Y-56185079D01*
X96044457Y-56195044D01*
X96064448Y-56207026D01*
X96083168Y-56220910D01*
X96100438Y-56236562D01*
X96116090Y-56253832D01*
X96129974Y-56272552D01*
X96141956Y-56292543D01*
X96151921Y-56313613D01*
X96159773Y-56335557D01*
X96165437Y-56358166D01*
X96168856Y-56381221D01*
X96170000Y-56404500D01*
X96170000Y-56879500D01*
X96168856Y-56902779D01*
X96165437Y-56925834D01*
X96159773Y-56948443D01*
X96151921Y-56970387D01*
X96141956Y-56991457D01*
X96129974Y-57011448D01*
X96116090Y-57030168D01*
X96100438Y-57047438D01*
X96083168Y-57063090D01*
X96064448Y-57076974D01*
X96044457Y-57088956D01*
X96023387Y-57098921D01*
X96001443Y-57106773D01*
X95978834Y-57112437D01*
X95955779Y-57115856D01*
X95932500Y-57117000D01*
X95357500Y-57117000D01*
X95334221Y-57115856D01*
X95311166Y-57112437D01*
X95288557Y-57106773D01*
X95266613Y-57098921D01*
X95245543Y-57088956D01*
X95225552Y-57076974D01*
X95206832Y-57063090D01*
X95189562Y-57047438D01*
X95173910Y-57030168D01*
X95160026Y-57011448D01*
X95148044Y-56991457D01*
X95138079Y-56970387D01*
X95130227Y-56948443D01*
X95124563Y-56925834D01*
X95121144Y-56902779D01*
X95120000Y-56879500D01*
X95120000Y-56404500D01*
X95121144Y-56381221D01*
X95124563Y-56358166D01*
X95130227Y-56335557D01*
X95138079Y-56313613D01*
X95148044Y-56292543D01*
X95160026Y-56272552D01*
X95173910Y-56253832D01*
X95189562Y-56236562D01*
X95206832Y-56220910D01*
X95225552Y-56207026D01*
X95245543Y-56195044D01*
X95266613Y-56185079D01*
X95288557Y-56177227D01*
X95311166Y-56171563D01*
X95334221Y-56168144D01*
X95357500Y-56167000D01*
X95932500Y-56167000D01*
X95955779Y-56168144D01*
X95955779Y-56168144D01*
G37*
D18*
X95645000Y-56642000D03*
D13*
G36*
X97705779Y-56168144D02*
G01*
X97728834Y-56171563D01*
X97751443Y-56177227D01*
X97773387Y-56185079D01*
X97794457Y-56195044D01*
X97814448Y-56207026D01*
X97833168Y-56220910D01*
X97850438Y-56236562D01*
X97866090Y-56253832D01*
X97879974Y-56272552D01*
X97891956Y-56292543D01*
X97901921Y-56313613D01*
X97909773Y-56335557D01*
X97915437Y-56358166D01*
X97918856Y-56381221D01*
X97920000Y-56404500D01*
X97920000Y-56879500D01*
X97918856Y-56902779D01*
X97915437Y-56925834D01*
X97909773Y-56948443D01*
X97901921Y-56970387D01*
X97891956Y-56991457D01*
X97879974Y-57011448D01*
X97866090Y-57030168D01*
X97850438Y-57047438D01*
X97833168Y-57063090D01*
X97814448Y-57076974D01*
X97794457Y-57088956D01*
X97773387Y-57098921D01*
X97751443Y-57106773D01*
X97728834Y-57112437D01*
X97705779Y-57115856D01*
X97682500Y-57117000D01*
X97107500Y-57117000D01*
X97084221Y-57115856D01*
X97061166Y-57112437D01*
X97038557Y-57106773D01*
X97016613Y-57098921D01*
X96995543Y-57088956D01*
X96975552Y-57076974D01*
X96956832Y-57063090D01*
X96939562Y-57047438D01*
X96923910Y-57030168D01*
X96910026Y-57011448D01*
X96898044Y-56991457D01*
X96888079Y-56970387D01*
X96880227Y-56948443D01*
X96874563Y-56925834D01*
X96871144Y-56902779D01*
X96870000Y-56879500D01*
X96870000Y-56404500D01*
X96871144Y-56381221D01*
X96874563Y-56358166D01*
X96880227Y-56335557D01*
X96888079Y-56313613D01*
X96898044Y-56292543D01*
X96910026Y-56272552D01*
X96923910Y-56253832D01*
X96939562Y-56236562D01*
X96956832Y-56220910D01*
X96975552Y-56207026D01*
X96995543Y-56195044D01*
X97016613Y-56185079D01*
X97038557Y-56177227D01*
X97061166Y-56171563D01*
X97084221Y-56168144D01*
X97107500Y-56167000D01*
X97682500Y-56167000D01*
X97705779Y-56168144D01*
X97705779Y-56168144D01*
G37*
D18*
X97395000Y-56642000D03*
D13*
G36*
X101035779Y-63534144D02*
G01*
X101058834Y-63537563D01*
X101081443Y-63543227D01*
X101103387Y-63551079D01*
X101124457Y-63561044D01*
X101144448Y-63573026D01*
X101163168Y-63586910D01*
X101180438Y-63602562D01*
X101196090Y-63619832D01*
X101209974Y-63638552D01*
X101221956Y-63658543D01*
X101231921Y-63679613D01*
X101239773Y-63701557D01*
X101245437Y-63724166D01*
X101248856Y-63747221D01*
X101250000Y-63770500D01*
X101250000Y-64245500D01*
X101248856Y-64268779D01*
X101245437Y-64291834D01*
X101239773Y-64314443D01*
X101231921Y-64336387D01*
X101221956Y-64357457D01*
X101209974Y-64377448D01*
X101196090Y-64396168D01*
X101180438Y-64413438D01*
X101163168Y-64429090D01*
X101144448Y-64442974D01*
X101124457Y-64454956D01*
X101103387Y-64464921D01*
X101081443Y-64472773D01*
X101058834Y-64478437D01*
X101035779Y-64481856D01*
X101012500Y-64483000D01*
X100437500Y-64483000D01*
X100414221Y-64481856D01*
X100391166Y-64478437D01*
X100368557Y-64472773D01*
X100346613Y-64464921D01*
X100325543Y-64454956D01*
X100305552Y-64442974D01*
X100286832Y-64429090D01*
X100269562Y-64413438D01*
X100253910Y-64396168D01*
X100240026Y-64377448D01*
X100228044Y-64357457D01*
X100218079Y-64336387D01*
X100210227Y-64314443D01*
X100204563Y-64291834D01*
X100201144Y-64268779D01*
X100200000Y-64245500D01*
X100200000Y-63770500D01*
X100201144Y-63747221D01*
X100204563Y-63724166D01*
X100210227Y-63701557D01*
X100218079Y-63679613D01*
X100228044Y-63658543D01*
X100240026Y-63638552D01*
X100253910Y-63619832D01*
X100269562Y-63602562D01*
X100286832Y-63586910D01*
X100305552Y-63573026D01*
X100325543Y-63561044D01*
X100346613Y-63551079D01*
X100368557Y-63543227D01*
X100391166Y-63537563D01*
X100414221Y-63534144D01*
X100437500Y-63533000D01*
X101012500Y-63533000D01*
X101035779Y-63534144D01*
X101035779Y-63534144D01*
G37*
D18*
X100725000Y-64008000D03*
D13*
G36*
X102785779Y-63534144D02*
G01*
X102808834Y-63537563D01*
X102831443Y-63543227D01*
X102853387Y-63551079D01*
X102874457Y-63561044D01*
X102894448Y-63573026D01*
X102913168Y-63586910D01*
X102930438Y-63602562D01*
X102946090Y-63619832D01*
X102959974Y-63638552D01*
X102971956Y-63658543D01*
X102981921Y-63679613D01*
X102989773Y-63701557D01*
X102995437Y-63724166D01*
X102998856Y-63747221D01*
X103000000Y-63770500D01*
X103000000Y-64245500D01*
X102998856Y-64268779D01*
X102995437Y-64291834D01*
X102989773Y-64314443D01*
X102981921Y-64336387D01*
X102971956Y-64357457D01*
X102959974Y-64377448D01*
X102946090Y-64396168D01*
X102930438Y-64413438D01*
X102913168Y-64429090D01*
X102894448Y-64442974D01*
X102874457Y-64454956D01*
X102853387Y-64464921D01*
X102831443Y-64472773D01*
X102808834Y-64478437D01*
X102785779Y-64481856D01*
X102762500Y-64483000D01*
X102187500Y-64483000D01*
X102164221Y-64481856D01*
X102141166Y-64478437D01*
X102118557Y-64472773D01*
X102096613Y-64464921D01*
X102075543Y-64454956D01*
X102055552Y-64442974D01*
X102036832Y-64429090D01*
X102019562Y-64413438D01*
X102003910Y-64396168D01*
X101990026Y-64377448D01*
X101978044Y-64357457D01*
X101968079Y-64336387D01*
X101960227Y-64314443D01*
X101954563Y-64291834D01*
X101951144Y-64268779D01*
X101950000Y-64245500D01*
X101950000Y-63770500D01*
X101951144Y-63747221D01*
X101954563Y-63724166D01*
X101960227Y-63701557D01*
X101968079Y-63679613D01*
X101978044Y-63658543D01*
X101990026Y-63638552D01*
X102003910Y-63619832D01*
X102019562Y-63602562D01*
X102036832Y-63586910D01*
X102055552Y-63573026D01*
X102075543Y-63561044D01*
X102096613Y-63551079D01*
X102118557Y-63543227D01*
X102141166Y-63537563D01*
X102164221Y-63534144D01*
X102187500Y-63533000D01*
X102762500Y-63533000D01*
X102785779Y-63534144D01*
X102785779Y-63534144D01*
G37*
D18*
X102475000Y-64008000D03*
D13*
G36*
X106115779Y-56676144D02*
G01*
X106138834Y-56679563D01*
X106161443Y-56685227D01*
X106183387Y-56693079D01*
X106204457Y-56703044D01*
X106224448Y-56715026D01*
X106243168Y-56728910D01*
X106260438Y-56744562D01*
X106276090Y-56761832D01*
X106289974Y-56780552D01*
X106301956Y-56800543D01*
X106311921Y-56821613D01*
X106319773Y-56843557D01*
X106325437Y-56866166D01*
X106328856Y-56889221D01*
X106330000Y-56912500D01*
X106330000Y-57387500D01*
X106328856Y-57410779D01*
X106325437Y-57433834D01*
X106319773Y-57456443D01*
X106311921Y-57478387D01*
X106301956Y-57499457D01*
X106289974Y-57519448D01*
X106276090Y-57538168D01*
X106260438Y-57555438D01*
X106243168Y-57571090D01*
X106224448Y-57584974D01*
X106204457Y-57596956D01*
X106183387Y-57606921D01*
X106161443Y-57614773D01*
X106138834Y-57620437D01*
X106115779Y-57623856D01*
X106092500Y-57625000D01*
X105517500Y-57625000D01*
X105494221Y-57623856D01*
X105471166Y-57620437D01*
X105448557Y-57614773D01*
X105426613Y-57606921D01*
X105405543Y-57596956D01*
X105385552Y-57584974D01*
X105366832Y-57571090D01*
X105349562Y-57555438D01*
X105333910Y-57538168D01*
X105320026Y-57519448D01*
X105308044Y-57499457D01*
X105298079Y-57478387D01*
X105290227Y-57456443D01*
X105284563Y-57433834D01*
X105281144Y-57410779D01*
X105280000Y-57387500D01*
X105280000Y-56912500D01*
X105281144Y-56889221D01*
X105284563Y-56866166D01*
X105290227Y-56843557D01*
X105298079Y-56821613D01*
X105308044Y-56800543D01*
X105320026Y-56780552D01*
X105333910Y-56761832D01*
X105349562Y-56744562D01*
X105366832Y-56728910D01*
X105385552Y-56715026D01*
X105405543Y-56703044D01*
X105426613Y-56693079D01*
X105448557Y-56685227D01*
X105471166Y-56679563D01*
X105494221Y-56676144D01*
X105517500Y-56675000D01*
X106092500Y-56675000D01*
X106115779Y-56676144D01*
X106115779Y-56676144D01*
G37*
D18*
X105805000Y-57150000D03*
D13*
G36*
X107865779Y-56676144D02*
G01*
X107888834Y-56679563D01*
X107911443Y-56685227D01*
X107933387Y-56693079D01*
X107954457Y-56703044D01*
X107974448Y-56715026D01*
X107993168Y-56728910D01*
X108010438Y-56744562D01*
X108026090Y-56761832D01*
X108039974Y-56780552D01*
X108051956Y-56800543D01*
X108061921Y-56821613D01*
X108069773Y-56843557D01*
X108075437Y-56866166D01*
X108078856Y-56889221D01*
X108080000Y-56912500D01*
X108080000Y-57387500D01*
X108078856Y-57410779D01*
X108075437Y-57433834D01*
X108069773Y-57456443D01*
X108061921Y-57478387D01*
X108051956Y-57499457D01*
X108039974Y-57519448D01*
X108026090Y-57538168D01*
X108010438Y-57555438D01*
X107993168Y-57571090D01*
X107974448Y-57584974D01*
X107954457Y-57596956D01*
X107933387Y-57606921D01*
X107911443Y-57614773D01*
X107888834Y-57620437D01*
X107865779Y-57623856D01*
X107842500Y-57625000D01*
X107267500Y-57625000D01*
X107244221Y-57623856D01*
X107221166Y-57620437D01*
X107198557Y-57614773D01*
X107176613Y-57606921D01*
X107155543Y-57596956D01*
X107135552Y-57584974D01*
X107116832Y-57571090D01*
X107099562Y-57555438D01*
X107083910Y-57538168D01*
X107070026Y-57519448D01*
X107058044Y-57499457D01*
X107048079Y-57478387D01*
X107040227Y-57456443D01*
X107034563Y-57433834D01*
X107031144Y-57410779D01*
X107030000Y-57387500D01*
X107030000Y-56912500D01*
X107031144Y-56889221D01*
X107034563Y-56866166D01*
X107040227Y-56843557D01*
X107048079Y-56821613D01*
X107058044Y-56800543D01*
X107070026Y-56780552D01*
X107083910Y-56761832D01*
X107099562Y-56744562D01*
X107116832Y-56728910D01*
X107135552Y-56715026D01*
X107155543Y-56703044D01*
X107176613Y-56693079D01*
X107198557Y-56685227D01*
X107221166Y-56679563D01*
X107244221Y-56676144D01*
X107267500Y-56675000D01*
X107842500Y-56675000D01*
X107865779Y-56676144D01*
X107865779Y-56676144D01*
G37*
D18*
X107555000Y-57150000D03*
D13*
G36*
X101035779Y-61756144D02*
G01*
X101058834Y-61759563D01*
X101081443Y-61765227D01*
X101103387Y-61773079D01*
X101124457Y-61783044D01*
X101144448Y-61795026D01*
X101163168Y-61808910D01*
X101180438Y-61824562D01*
X101196090Y-61841832D01*
X101209974Y-61860552D01*
X101221956Y-61880543D01*
X101231921Y-61901613D01*
X101239773Y-61923557D01*
X101245437Y-61946166D01*
X101248856Y-61969221D01*
X101250000Y-61992500D01*
X101250000Y-62467500D01*
X101248856Y-62490779D01*
X101245437Y-62513834D01*
X101239773Y-62536443D01*
X101231921Y-62558387D01*
X101221956Y-62579457D01*
X101209974Y-62599448D01*
X101196090Y-62618168D01*
X101180438Y-62635438D01*
X101163168Y-62651090D01*
X101144448Y-62664974D01*
X101124457Y-62676956D01*
X101103387Y-62686921D01*
X101081443Y-62694773D01*
X101058834Y-62700437D01*
X101035779Y-62703856D01*
X101012500Y-62705000D01*
X100437500Y-62705000D01*
X100414221Y-62703856D01*
X100391166Y-62700437D01*
X100368557Y-62694773D01*
X100346613Y-62686921D01*
X100325543Y-62676956D01*
X100305552Y-62664974D01*
X100286832Y-62651090D01*
X100269562Y-62635438D01*
X100253910Y-62618168D01*
X100240026Y-62599448D01*
X100228044Y-62579457D01*
X100218079Y-62558387D01*
X100210227Y-62536443D01*
X100204563Y-62513834D01*
X100201144Y-62490779D01*
X100200000Y-62467500D01*
X100200000Y-61992500D01*
X100201144Y-61969221D01*
X100204563Y-61946166D01*
X100210227Y-61923557D01*
X100218079Y-61901613D01*
X100228044Y-61880543D01*
X100240026Y-61860552D01*
X100253910Y-61841832D01*
X100269562Y-61824562D01*
X100286832Y-61808910D01*
X100305552Y-61795026D01*
X100325543Y-61783044D01*
X100346613Y-61773079D01*
X100368557Y-61765227D01*
X100391166Y-61759563D01*
X100414221Y-61756144D01*
X100437500Y-61755000D01*
X101012500Y-61755000D01*
X101035779Y-61756144D01*
X101035779Y-61756144D01*
G37*
D18*
X100725000Y-62230000D03*
D13*
G36*
X102785779Y-61756144D02*
G01*
X102808834Y-61759563D01*
X102831443Y-61765227D01*
X102853387Y-61773079D01*
X102874457Y-61783044D01*
X102894448Y-61795026D01*
X102913168Y-61808910D01*
X102930438Y-61824562D01*
X102946090Y-61841832D01*
X102959974Y-61860552D01*
X102971956Y-61880543D01*
X102981921Y-61901613D01*
X102989773Y-61923557D01*
X102995437Y-61946166D01*
X102998856Y-61969221D01*
X103000000Y-61992500D01*
X103000000Y-62467500D01*
X102998856Y-62490779D01*
X102995437Y-62513834D01*
X102989773Y-62536443D01*
X102981921Y-62558387D01*
X102971956Y-62579457D01*
X102959974Y-62599448D01*
X102946090Y-62618168D01*
X102930438Y-62635438D01*
X102913168Y-62651090D01*
X102894448Y-62664974D01*
X102874457Y-62676956D01*
X102853387Y-62686921D01*
X102831443Y-62694773D01*
X102808834Y-62700437D01*
X102785779Y-62703856D01*
X102762500Y-62705000D01*
X102187500Y-62705000D01*
X102164221Y-62703856D01*
X102141166Y-62700437D01*
X102118557Y-62694773D01*
X102096613Y-62686921D01*
X102075543Y-62676956D01*
X102055552Y-62664974D01*
X102036832Y-62651090D01*
X102019562Y-62635438D01*
X102003910Y-62618168D01*
X101990026Y-62599448D01*
X101978044Y-62579457D01*
X101968079Y-62558387D01*
X101960227Y-62536443D01*
X101954563Y-62513834D01*
X101951144Y-62490779D01*
X101950000Y-62467500D01*
X101950000Y-61992500D01*
X101951144Y-61969221D01*
X101954563Y-61946166D01*
X101960227Y-61923557D01*
X101968079Y-61901613D01*
X101978044Y-61880543D01*
X101990026Y-61860552D01*
X102003910Y-61841832D01*
X102019562Y-61824562D01*
X102036832Y-61808910D01*
X102055552Y-61795026D01*
X102075543Y-61783044D01*
X102096613Y-61773079D01*
X102118557Y-61765227D01*
X102141166Y-61759563D01*
X102164221Y-61756144D01*
X102187500Y-61755000D01*
X102762500Y-61755000D01*
X102785779Y-61756144D01*
X102785779Y-61756144D01*
G37*
D18*
X102475000Y-62230000D03*
D13*
G36*
X106115779Y-58454144D02*
G01*
X106138834Y-58457563D01*
X106161443Y-58463227D01*
X106183387Y-58471079D01*
X106204457Y-58481044D01*
X106224448Y-58493026D01*
X106243168Y-58506910D01*
X106260438Y-58522562D01*
X106276090Y-58539832D01*
X106289974Y-58558552D01*
X106301956Y-58578543D01*
X106311921Y-58599613D01*
X106319773Y-58621557D01*
X106325437Y-58644166D01*
X106328856Y-58667221D01*
X106330000Y-58690500D01*
X106330000Y-59165500D01*
X106328856Y-59188779D01*
X106325437Y-59211834D01*
X106319773Y-59234443D01*
X106311921Y-59256387D01*
X106301956Y-59277457D01*
X106289974Y-59297448D01*
X106276090Y-59316168D01*
X106260438Y-59333438D01*
X106243168Y-59349090D01*
X106224448Y-59362974D01*
X106204457Y-59374956D01*
X106183387Y-59384921D01*
X106161443Y-59392773D01*
X106138834Y-59398437D01*
X106115779Y-59401856D01*
X106092500Y-59403000D01*
X105517500Y-59403000D01*
X105494221Y-59401856D01*
X105471166Y-59398437D01*
X105448557Y-59392773D01*
X105426613Y-59384921D01*
X105405543Y-59374956D01*
X105385552Y-59362974D01*
X105366832Y-59349090D01*
X105349562Y-59333438D01*
X105333910Y-59316168D01*
X105320026Y-59297448D01*
X105308044Y-59277457D01*
X105298079Y-59256387D01*
X105290227Y-59234443D01*
X105284563Y-59211834D01*
X105281144Y-59188779D01*
X105280000Y-59165500D01*
X105280000Y-58690500D01*
X105281144Y-58667221D01*
X105284563Y-58644166D01*
X105290227Y-58621557D01*
X105298079Y-58599613D01*
X105308044Y-58578543D01*
X105320026Y-58558552D01*
X105333910Y-58539832D01*
X105349562Y-58522562D01*
X105366832Y-58506910D01*
X105385552Y-58493026D01*
X105405543Y-58481044D01*
X105426613Y-58471079D01*
X105448557Y-58463227D01*
X105471166Y-58457563D01*
X105494221Y-58454144D01*
X105517500Y-58453000D01*
X106092500Y-58453000D01*
X106115779Y-58454144D01*
X106115779Y-58454144D01*
G37*
D18*
X105805000Y-58928000D03*
D13*
G36*
X107865779Y-58454144D02*
G01*
X107888834Y-58457563D01*
X107911443Y-58463227D01*
X107933387Y-58471079D01*
X107954457Y-58481044D01*
X107974448Y-58493026D01*
X107993168Y-58506910D01*
X108010438Y-58522562D01*
X108026090Y-58539832D01*
X108039974Y-58558552D01*
X108051956Y-58578543D01*
X108061921Y-58599613D01*
X108069773Y-58621557D01*
X108075437Y-58644166D01*
X108078856Y-58667221D01*
X108080000Y-58690500D01*
X108080000Y-59165500D01*
X108078856Y-59188779D01*
X108075437Y-59211834D01*
X108069773Y-59234443D01*
X108061921Y-59256387D01*
X108051956Y-59277457D01*
X108039974Y-59297448D01*
X108026090Y-59316168D01*
X108010438Y-59333438D01*
X107993168Y-59349090D01*
X107974448Y-59362974D01*
X107954457Y-59374956D01*
X107933387Y-59384921D01*
X107911443Y-59392773D01*
X107888834Y-59398437D01*
X107865779Y-59401856D01*
X107842500Y-59403000D01*
X107267500Y-59403000D01*
X107244221Y-59401856D01*
X107221166Y-59398437D01*
X107198557Y-59392773D01*
X107176613Y-59384921D01*
X107155543Y-59374956D01*
X107135552Y-59362974D01*
X107116832Y-59349090D01*
X107099562Y-59333438D01*
X107083910Y-59316168D01*
X107070026Y-59297448D01*
X107058044Y-59277457D01*
X107048079Y-59256387D01*
X107040227Y-59234443D01*
X107034563Y-59211834D01*
X107031144Y-59188779D01*
X107030000Y-59165500D01*
X107030000Y-58690500D01*
X107031144Y-58667221D01*
X107034563Y-58644166D01*
X107040227Y-58621557D01*
X107048079Y-58599613D01*
X107058044Y-58578543D01*
X107070026Y-58558552D01*
X107083910Y-58539832D01*
X107099562Y-58522562D01*
X107116832Y-58506910D01*
X107135552Y-58493026D01*
X107155543Y-58481044D01*
X107176613Y-58471079D01*
X107198557Y-58463227D01*
X107221166Y-58457563D01*
X107244221Y-58454144D01*
X107267500Y-58453000D01*
X107842500Y-58453000D01*
X107865779Y-58454144D01*
X107865779Y-58454144D01*
G37*
D18*
X107555000Y-58928000D03*
D13*
G36*
X95955779Y-54390144D02*
G01*
X95978834Y-54393563D01*
X96001443Y-54399227D01*
X96023387Y-54407079D01*
X96044457Y-54417044D01*
X96064448Y-54429026D01*
X96083168Y-54442910D01*
X96100438Y-54458562D01*
X96116090Y-54475832D01*
X96129974Y-54494552D01*
X96141956Y-54514543D01*
X96151921Y-54535613D01*
X96159773Y-54557557D01*
X96165437Y-54580166D01*
X96168856Y-54603221D01*
X96170000Y-54626500D01*
X96170000Y-55101500D01*
X96168856Y-55124779D01*
X96165437Y-55147834D01*
X96159773Y-55170443D01*
X96151921Y-55192387D01*
X96141956Y-55213457D01*
X96129974Y-55233448D01*
X96116090Y-55252168D01*
X96100438Y-55269438D01*
X96083168Y-55285090D01*
X96064448Y-55298974D01*
X96044457Y-55310956D01*
X96023387Y-55320921D01*
X96001443Y-55328773D01*
X95978834Y-55334437D01*
X95955779Y-55337856D01*
X95932500Y-55339000D01*
X95357500Y-55339000D01*
X95334221Y-55337856D01*
X95311166Y-55334437D01*
X95288557Y-55328773D01*
X95266613Y-55320921D01*
X95245543Y-55310956D01*
X95225552Y-55298974D01*
X95206832Y-55285090D01*
X95189562Y-55269438D01*
X95173910Y-55252168D01*
X95160026Y-55233448D01*
X95148044Y-55213457D01*
X95138079Y-55192387D01*
X95130227Y-55170443D01*
X95124563Y-55147834D01*
X95121144Y-55124779D01*
X95120000Y-55101500D01*
X95120000Y-54626500D01*
X95121144Y-54603221D01*
X95124563Y-54580166D01*
X95130227Y-54557557D01*
X95138079Y-54535613D01*
X95148044Y-54514543D01*
X95160026Y-54494552D01*
X95173910Y-54475832D01*
X95189562Y-54458562D01*
X95206832Y-54442910D01*
X95225552Y-54429026D01*
X95245543Y-54417044D01*
X95266613Y-54407079D01*
X95288557Y-54399227D01*
X95311166Y-54393563D01*
X95334221Y-54390144D01*
X95357500Y-54389000D01*
X95932500Y-54389000D01*
X95955779Y-54390144D01*
X95955779Y-54390144D01*
G37*
D18*
X95645000Y-54864000D03*
D13*
G36*
X97705779Y-54390144D02*
G01*
X97728834Y-54393563D01*
X97751443Y-54399227D01*
X97773387Y-54407079D01*
X97794457Y-54417044D01*
X97814448Y-54429026D01*
X97833168Y-54442910D01*
X97850438Y-54458562D01*
X97866090Y-54475832D01*
X97879974Y-54494552D01*
X97891956Y-54514543D01*
X97901921Y-54535613D01*
X97909773Y-54557557D01*
X97915437Y-54580166D01*
X97918856Y-54603221D01*
X97920000Y-54626500D01*
X97920000Y-55101500D01*
X97918856Y-55124779D01*
X97915437Y-55147834D01*
X97909773Y-55170443D01*
X97901921Y-55192387D01*
X97891956Y-55213457D01*
X97879974Y-55233448D01*
X97866090Y-55252168D01*
X97850438Y-55269438D01*
X97833168Y-55285090D01*
X97814448Y-55298974D01*
X97794457Y-55310956D01*
X97773387Y-55320921D01*
X97751443Y-55328773D01*
X97728834Y-55334437D01*
X97705779Y-55337856D01*
X97682500Y-55339000D01*
X97107500Y-55339000D01*
X97084221Y-55337856D01*
X97061166Y-55334437D01*
X97038557Y-55328773D01*
X97016613Y-55320921D01*
X96995543Y-55310956D01*
X96975552Y-55298974D01*
X96956832Y-55285090D01*
X96939562Y-55269438D01*
X96923910Y-55252168D01*
X96910026Y-55233448D01*
X96898044Y-55213457D01*
X96888079Y-55192387D01*
X96880227Y-55170443D01*
X96874563Y-55147834D01*
X96871144Y-55124779D01*
X96870000Y-55101500D01*
X96870000Y-54626500D01*
X96871144Y-54603221D01*
X96874563Y-54580166D01*
X96880227Y-54557557D01*
X96888079Y-54535613D01*
X96898044Y-54514543D01*
X96910026Y-54494552D01*
X96923910Y-54475832D01*
X96939562Y-54458562D01*
X96956832Y-54442910D01*
X96975552Y-54429026D01*
X96995543Y-54417044D01*
X97016613Y-54407079D01*
X97038557Y-54399227D01*
X97061166Y-54393563D01*
X97084221Y-54390144D01*
X97107500Y-54389000D01*
X97682500Y-54389000D01*
X97705779Y-54390144D01*
X97705779Y-54390144D01*
G37*
D18*
X97395000Y-54864000D03*
D13*
G36*
X100781779Y-52104144D02*
G01*
X100804834Y-52107563D01*
X100827443Y-52113227D01*
X100849387Y-52121079D01*
X100870457Y-52131044D01*
X100890448Y-52143026D01*
X100909168Y-52156910D01*
X100926438Y-52172562D01*
X100942090Y-52189832D01*
X100955974Y-52208552D01*
X100967956Y-52228543D01*
X100977921Y-52249613D01*
X100985773Y-52271557D01*
X100991437Y-52294166D01*
X100994856Y-52317221D01*
X100996000Y-52340500D01*
X100996000Y-52815500D01*
X100994856Y-52838779D01*
X100991437Y-52861834D01*
X100985773Y-52884443D01*
X100977921Y-52906387D01*
X100967956Y-52927457D01*
X100955974Y-52947448D01*
X100942090Y-52966168D01*
X100926438Y-52983438D01*
X100909168Y-52999090D01*
X100890448Y-53012974D01*
X100870457Y-53024956D01*
X100849387Y-53034921D01*
X100827443Y-53042773D01*
X100804834Y-53048437D01*
X100781779Y-53051856D01*
X100758500Y-53053000D01*
X100183500Y-53053000D01*
X100160221Y-53051856D01*
X100137166Y-53048437D01*
X100114557Y-53042773D01*
X100092613Y-53034921D01*
X100071543Y-53024956D01*
X100051552Y-53012974D01*
X100032832Y-52999090D01*
X100015562Y-52983438D01*
X99999910Y-52966168D01*
X99986026Y-52947448D01*
X99974044Y-52927457D01*
X99964079Y-52906387D01*
X99956227Y-52884443D01*
X99950563Y-52861834D01*
X99947144Y-52838779D01*
X99946000Y-52815500D01*
X99946000Y-52340500D01*
X99947144Y-52317221D01*
X99950563Y-52294166D01*
X99956227Y-52271557D01*
X99964079Y-52249613D01*
X99974044Y-52228543D01*
X99986026Y-52208552D01*
X99999910Y-52189832D01*
X100015562Y-52172562D01*
X100032832Y-52156910D01*
X100051552Y-52143026D01*
X100071543Y-52131044D01*
X100092613Y-52121079D01*
X100114557Y-52113227D01*
X100137166Y-52107563D01*
X100160221Y-52104144D01*
X100183500Y-52103000D01*
X100758500Y-52103000D01*
X100781779Y-52104144D01*
X100781779Y-52104144D01*
G37*
D18*
X100471000Y-52578000D03*
D13*
G36*
X102531779Y-52104144D02*
G01*
X102554834Y-52107563D01*
X102577443Y-52113227D01*
X102599387Y-52121079D01*
X102620457Y-52131044D01*
X102640448Y-52143026D01*
X102659168Y-52156910D01*
X102676438Y-52172562D01*
X102692090Y-52189832D01*
X102705974Y-52208552D01*
X102717956Y-52228543D01*
X102727921Y-52249613D01*
X102735773Y-52271557D01*
X102741437Y-52294166D01*
X102744856Y-52317221D01*
X102746000Y-52340500D01*
X102746000Y-52815500D01*
X102744856Y-52838779D01*
X102741437Y-52861834D01*
X102735773Y-52884443D01*
X102727921Y-52906387D01*
X102717956Y-52927457D01*
X102705974Y-52947448D01*
X102692090Y-52966168D01*
X102676438Y-52983438D01*
X102659168Y-52999090D01*
X102640448Y-53012974D01*
X102620457Y-53024956D01*
X102599387Y-53034921D01*
X102577443Y-53042773D01*
X102554834Y-53048437D01*
X102531779Y-53051856D01*
X102508500Y-53053000D01*
X101933500Y-53053000D01*
X101910221Y-53051856D01*
X101887166Y-53048437D01*
X101864557Y-53042773D01*
X101842613Y-53034921D01*
X101821543Y-53024956D01*
X101801552Y-53012974D01*
X101782832Y-52999090D01*
X101765562Y-52983438D01*
X101749910Y-52966168D01*
X101736026Y-52947448D01*
X101724044Y-52927457D01*
X101714079Y-52906387D01*
X101706227Y-52884443D01*
X101700563Y-52861834D01*
X101697144Y-52838779D01*
X101696000Y-52815500D01*
X101696000Y-52340500D01*
X101697144Y-52317221D01*
X101700563Y-52294166D01*
X101706227Y-52271557D01*
X101714079Y-52249613D01*
X101724044Y-52228543D01*
X101736026Y-52208552D01*
X101749910Y-52189832D01*
X101765562Y-52172562D01*
X101782832Y-52156910D01*
X101801552Y-52143026D01*
X101821543Y-52131044D01*
X101842613Y-52121079D01*
X101864557Y-52113227D01*
X101887166Y-52107563D01*
X101910221Y-52104144D01*
X101933500Y-52103000D01*
X102508500Y-52103000D01*
X102531779Y-52104144D01*
X102531779Y-52104144D01*
G37*
D18*
X102221000Y-52578000D03*
D13*
G36*
X100781779Y-53882144D02*
G01*
X100804834Y-53885563D01*
X100827443Y-53891227D01*
X100849387Y-53899079D01*
X100870457Y-53909044D01*
X100890448Y-53921026D01*
X100909168Y-53934910D01*
X100926438Y-53950562D01*
X100942090Y-53967832D01*
X100955974Y-53986552D01*
X100967956Y-54006543D01*
X100977921Y-54027613D01*
X100985773Y-54049557D01*
X100991437Y-54072166D01*
X100994856Y-54095221D01*
X100996000Y-54118500D01*
X100996000Y-54593500D01*
X100994856Y-54616779D01*
X100991437Y-54639834D01*
X100985773Y-54662443D01*
X100977921Y-54684387D01*
X100967956Y-54705457D01*
X100955974Y-54725448D01*
X100942090Y-54744168D01*
X100926438Y-54761438D01*
X100909168Y-54777090D01*
X100890448Y-54790974D01*
X100870457Y-54802956D01*
X100849387Y-54812921D01*
X100827443Y-54820773D01*
X100804834Y-54826437D01*
X100781779Y-54829856D01*
X100758500Y-54831000D01*
X100183500Y-54831000D01*
X100160221Y-54829856D01*
X100137166Y-54826437D01*
X100114557Y-54820773D01*
X100092613Y-54812921D01*
X100071543Y-54802956D01*
X100051552Y-54790974D01*
X100032832Y-54777090D01*
X100015562Y-54761438D01*
X99999910Y-54744168D01*
X99986026Y-54725448D01*
X99974044Y-54705457D01*
X99964079Y-54684387D01*
X99956227Y-54662443D01*
X99950563Y-54639834D01*
X99947144Y-54616779D01*
X99946000Y-54593500D01*
X99946000Y-54118500D01*
X99947144Y-54095221D01*
X99950563Y-54072166D01*
X99956227Y-54049557D01*
X99964079Y-54027613D01*
X99974044Y-54006543D01*
X99986026Y-53986552D01*
X99999910Y-53967832D01*
X100015562Y-53950562D01*
X100032832Y-53934910D01*
X100051552Y-53921026D01*
X100071543Y-53909044D01*
X100092613Y-53899079D01*
X100114557Y-53891227D01*
X100137166Y-53885563D01*
X100160221Y-53882144D01*
X100183500Y-53881000D01*
X100758500Y-53881000D01*
X100781779Y-53882144D01*
X100781779Y-53882144D01*
G37*
D18*
X100471000Y-54356000D03*
D13*
G36*
X102531779Y-53882144D02*
G01*
X102554834Y-53885563D01*
X102577443Y-53891227D01*
X102599387Y-53899079D01*
X102620457Y-53909044D01*
X102640448Y-53921026D01*
X102659168Y-53934910D01*
X102676438Y-53950562D01*
X102692090Y-53967832D01*
X102705974Y-53986552D01*
X102717956Y-54006543D01*
X102727921Y-54027613D01*
X102735773Y-54049557D01*
X102741437Y-54072166D01*
X102744856Y-54095221D01*
X102746000Y-54118500D01*
X102746000Y-54593500D01*
X102744856Y-54616779D01*
X102741437Y-54639834D01*
X102735773Y-54662443D01*
X102727921Y-54684387D01*
X102717956Y-54705457D01*
X102705974Y-54725448D01*
X102692090Y-54744168D01*
X102676438Y-54761438D01*
X102659168Y-54777090D01*
X102640448Y-54790974D01*
X102620457Y-54802956D01*
X102599387Y-54812921D01*
X102577443Y-54820773D01*
X102554834Y-54826437D01*
X102531779Y-54829856D01*
X102508500Y-54831000D01*
X101933500Y-54831000D01*
X101910221Y-54829856D01*
X101887166Y-54826437D01*
X101864557Y-54820773D01*
X101842613Y-54812921D01*
X101821543Y-54802956D01*
X101801552Y-54790974D01*
X101782832Y-54777090D01*
X101765562Y-54761438D01*
X101749910Y-54744168D01*
X101736026Y-54725448D01*
X101724044Y-54705457D01*
X101714079Y-54684387D01*
X101706227Y-54662443D01*
X101700563Y-54639834D01*
X101697144Y-54616779D01*
X101696000Y-54593500D01*
X101696000Y-54118500D01*
X101697144Y-54095221D01*
X101700563Y-54072166D01*
X101706227Y-54049557D01*
X101714079Y-54027613D01*
X101724044Y-54006543D01*
X101736026Y-53986552D01*
X101749910Y-53967832D01*
X101765562Y-53950562D01*
X101782832Y-53934910D01*
X101801552Y-53921026D01*
X101821543Y-53909044D01*
X101842613Y-53899079D01*
X101864557Y-53891227D01*
X101887166Y-53885563D01*
X101910221Y-53882144D01*
X101933500Y-53881000D01*
X102508500Y-53881000D01*
X102531779Y-53882144D01*
X102531779Y-53882144D01*
G37*
D18*
X102221000Y-54356000D03*
D19*
X94488000Y-26162000D03*
X97028000Y-26162000D03*
X99568000Y-26162000D03*
D20*
X102108000Y-26162000D03*
D16*
X90932000Y-80772000D03*
X90932000Y-83312000D03*
D17*
X90932000Y-85852000D03*
D12*
X113157000Y-55171000D03*
X113157000Y-60071000D03*
X111427000Y-28558000D03*
X111427000Y-25558000D03*
X111427000Y-22558000D03*
X111427000Y-19558000D03*
X114427000Y-28558000D03*
X114427000Y-25558000D03*
X114427000Y-22558000D03*
D13*
G36*
X114951504Y-18809204D02*
G01*
X114975773Y-18812804D01*
X114999571Y-18818765D01*
X115022671Y-18827030D01*
X115044849Y-18837520D01*
X115065893Y-18850133D01*
X115085598Y-18864747D01*
X115103777Y-18881223D01*
X115120253Y-18899402D01*
X115134867Y-18919107D01*
X115147480Y-18940151D01*
X115157970Y-18962329D01*
X115166235Y-18985429D01*
X115172196Y-19009227D01*
X115175796Y-19033496D01*
X115177000Y-19058000D01*
X115177000Y-20058000D01*
X115175796Y-20082504D01*
X115172196Y-20106773D01*
X115166235Y-20130571D01*
X115157970Y-20153671D01*
X115147480Y-20175849D01*
X115134867Y-20196893D01*
X115120253Y-20216598D01*
X115103777Y-20234777D01*
X115085598Y-20251253D01*
X115065893Y-20265867D01*
X115044849Y-20278480D01*
X115022671Y-20288970D01*
X114999571Y-20297235D01*
X114975773Y-20303196D01*
X114951504Y-20306796D01*
X114927000Y-20308000D01*
X113927000Y-20308000D01*
X113902496Y-20306796D01*
X113878227Y-20303196D01*
X113854429Y-20297235D01*
X113831329Y-20288970D01*
X113809151Y-20278480D01*
X113788107Y-20265867D01*
X113768402Y-20251253D01*
X113750223Y-20234777D01*
X113733747Y-20216598D01*
X113719133Y-20196893D01*
X113706520Y-20175849D01*
X113696030Y-20153671D01*
X113687765Y-20130571D01*
X113681804Y-20106773D01*
X113678204Y-20082504D01*
X113677000Y-20058000D01*
X113677000Y-19058000D01*
X113678204Y-19033496D01*
X113681804Y-19009227D01*
X113687765Y-18985429D01*
X113696030Y-18962329D01*
X113706520Y-18940151D01*
X113719133Y-18919107D01*
X113733747Y-18899402D01*
X113750223Y-18881223D01*
X113768402Y-18864747D01*
X113788107Y-18850133D01*
X113809151Y-18837520D01*
X113831329Y-18827030D01*
X113854429Y-18818765D01*
X113878227Y-18812804D01*
X113902496Y-18809204D01*
X113927000Y-18808000D01*
X114927000Y-18808000D01*
X114951504Y-18809204D01*
X114951504Y-18809204D01*
G37*
D12*
X114427000Y-19558000D03*
X111427000Y-46592000D03*
X111427000Y-43592000D03*
X111427000Y-40592000D03*
X111427000Y-37592000D03*
X114427000Y-46592000D03*
X114427000Y-43592000D03*
X114427000Y-40592000D03*
D13*
G36*
X114951504Y-36843204D02*
G01*
X114975773Y-36846804D01*
X114999571Y-36852765D01*
X115022671Y-36861030D01*
X115044849Y-36871520D01*
X115065893Y-36884133D01*
X115085598Y-36898747D01*
X115103777Y-36915223D01*
X115120253Y-36933402D01*
X115134867Y-36953107D01*
X115147480Y-36974151D01*
X115157970Y-36996329D01*
X115166235Y-37019429D01*
X115172196Y-37043227D01*
X115175796Y-37067496D01*
X115177000Y-37092000D01*
X115177000Y-38092000D01*
X115175796Y-38116504D01*
X115172196Y-38140773D01*
X115166235Y-38164571D01*
X115157970Y-38187671D01*
X115147480Y-38209849D01*
X115134867Y-38230893D01*
X115120253Y-38250598D01*
X115103777Y-38268777D01*
X115085598Y-38285253D01*
X115065893Y-38299867D01*
X115044849Y-38312480D01*
X115022671Y-38322970D01*
X114999571Y-38331235D01*
X114975773Y-38337196D01*
X114951504Y-38340796D01*
X114927000Y-38342000D01*
X113927000Y-38342000D01*
X113902496Y-38340796D01*
X113878227Y-38337196D01*
X113854429Y-38331235D01*
X113831329Y-38322970D01*
X113809151Y-38312480D01*
X113788107Y-38299867D01*
X113768402Y-38285253D01*
X113750223Y-38268777D01*
X113733747Y-38250598D01*
X113719133Y-38230893D01*
X113706520Y-38209849D01*
X113696030Y-38187671D01*
X113687765Y-38164571D01*
X113681804Y-38140773D01*
X113678204Y-38116504D01*
X113677000Y-38092000D01*
X113677000Y-37092000D01*
X113678204Y-37067496D01*
X113681804Y-37043227D01*
X113687765Y-37019429D01*
X113696030Y-36996329D01*
X113706520Y-36974151D01*
X113719133Y-36953107D01*
X113733747Y-36933402D01*
X113750223Y-36915223D01*
X113768402Y-36898747D01*
X113788107Y-36884133D01*
X113809151Y-36871520D01*
X113831329Y-36861030D01*
X113854429Y-36852765D01*
X113878227Y-36846804D01*
X113902496Y-36843204D01*
X113927000Y-36842000D01*
X114927000Y-36842000D01*
X114951504Y-36843204D01*
X114951504Y-36843204D01*
G37*
D12*
X114427000Y-37592000D03*
D21*
X95776051Y-61195949D03*
D22*
X95776051Y-61195949D02*
X95776051Y-61195949D01*
D21*
X93980000Y-62992000D03*
D13*
G36*
X95182082Y-62992000D02*
G01*
X93980000Y-64194082D01*
X92777918Y-62992000D01*
X93980000Y-61789918D01*
X95182082Y-62992000D01*
X95182082Y-62992000D01*
G37*
D23*
X65278000Y-71247000D03*
D24*
X67818000Y-71247000D03*
X70358000Y-71247000D03*
X65278000Y-62357000D03*
X67818000Y-62357000D03*
X70358000Y-62357000D03*
X83058000Y-71247000D03*
X80518000Y-71247000D03*
X77978000Y-71247000D03*
X83058000Y-62357000D03*
X80518000Y-62357000D03*
X77978000Y-62357000D03*
X75438000Y-71247000D03*
X72898000Y-71247000D03*
X75438000Y-62357000D03*
X72898000Y-62357000D03*
D23*
X65659000Y-53467000D03*
D24*
X68199000Y-53467000D03*
X70739000Y-53467000D03*
X65659000Y-44577000D03*
X68199000Y-44577000D03*
X70739000Y-44577000D03*
X83439000Y-53467000D03*
X80899000Y-53467000D03*
X78359000Y-53467000D03*
X83439000Y-44577000D03*
X80899000Y-44577000D03*
X78359000Y-44577000D03*
X75819000Y-53467000D03*
X73279000Y-53467000D03*
X75819000Y-44577000D03*
X73279000Y-44577000D03*
D15*
X103378000Y-37592000D03*
D25*
X107188000Y-69850000D03*
X100584000Y-59182000D03*
X98806000Y-56642000D03*
X102616000Y-55626000D03*
X105156000Y-55626000D03*
X97282000Y-71628000D03*
X81280000Y-77978000D03*
X91694000Y-70612000D03*
X92202000Y-74422000D03*
X90170000Y-72136000D03*
X92964000Y-75946000D03*
X98044000Y-73406000D03*
X92964000Y-73406000D03*
X96774000Y-69850000D03*
X90170000Y-73406000D03*
X102616000Y-80010000D03*
X105156000Y-80010000D03*
X107442000Y-80010000D03*
X107442000Y-82042000D03*
X109728000Y-82042000D03*
X99314000Y-80010000D03*
X97536000Y-83312000D03*
X102616000Y-67818000D03*
X98806000Y-67818000D03*
X81534000Y-80518000D03*
X83754110Y-78805549D03*
X99060000Y-62992000D03*
X97536000Y-46990000D03*
X106934000Y-64008000D03*
X104394000Y-64008000D03*
X103886000Y-54610000D03*
X104648000Y-61976000D03*
X101854000Y-59690000D03*
D26*
X90932000Y-80772000D02*
X90932000Y-68834000D01*
X90932000Y-68834000D02*
X100584000Y-59182000D01*
D27*
X97395000Y-56642000D02*
X97395000Y-54864000D01*
X102221000Y-54356000D02*
X102221000Y-52578000D01*
X107555000Y-57150000D02*
X107555000Y-58928000D01*
X102475000Y-62230000D02*
X102475000Y-64008000D01*
X102221000Y-55231000D02*
X102616000Y-55626000D01*
X102221000Y-54356000D02*
X102221000Y-55231000D01*
X106031000Y-55626000D02*
X105156000Y-55626000D01*
X107555000Y-57150000D02*
X106031000Y-55626000D01*
D26*
X98249225Y-56642000D02*
X98806000Y-56642000D01*
X97395000Y-56642000D02*
X98249225Y-56642000D01*
X108054072Y-59427072D02*
X107555000Y-58928000D01*
X108054072Y-65053928D02*
X108054072Y-59427072D01*
X92336000Y-80772000D02*
X108054072Y-65053928D01*
X90932000Y-80772000D02*
X92336000Y-80772000D01*
X93218000Y-80772000D02*
X90932000Y-80772000D01*
X107188000Y-69850000D02*
X104140000Y-69850000D01*
X104140000Y-69850000D02*
X93218000Y-80772000D01*
D27*
X100584000Y-60339000D02*
X102475000Y-62230000D01*
X100584000Y-59182000D02*
X100584000Y-60339000D01*
D26*
X90932000Y-63105000D02*
X98411000Y-55626000D01*
X90932000Y-80772000D02*
X90932000Y-63105000D01*
X98411000Y-55626000D02*
X102059225Y-55626000D01*
X102059225Y-55626000D02*
X102616000Y-55626000D01*
D28*
X78128000Y-80578000D02*
X78128000Y-79248000D01*
X92038000Y-94488000D02*
X78128000Y-80578000D01*
X114427000Y-19558000D02*
X116205000Y-17780000D01*
X116205000Y-17780000D02*
X120904000Y-17780000D01*
X120904000Y-17780000D02*
X122682000Y-19558000D01*
X116078000Y-94488000D02*
X92038000Y-94488000D01*
X122682000Y-87884000D02*
X116078000Y-94488000D01*
X122682000Y-19558000D02*
X122682000Y-37592000D01*
X122682000Y-37592000D02*
X122682000Y-87884000D01*
X121412000Y-36322000D02*
X122682000Y-37592000D01*
X114427000Y-37592000D02*
X115697000Y-36322000D01*
X115697000Y-36322000D02*
X121412000Y-36322000D01*
D26*
X66148000Y-94234000D02*
X62992000Y-91078000D01*
X66548000Y-94234000D02*
X66148000Y-94234000D01*
X62992000Y-64643000D02*
X65278000Y-62357000D01*
X62992000Y-91078000D02*
X62992000Y-64643000D01*
X62992000Y-47244000D02*
X65659000Y-44577000D01*
X62992000Y-91078000D02*
X62992000Y-47244000D01*
X90532000Y-85852000D02*
X90932000Y-85852000D01*
X87122000Y-82442000D02*
X90532000Y-85852000D01*
X87122000Y-56134000D02*
X87122000Y-82442000D01*
X97536000Y-46990000D02*
X96266000Y-46990000D01*
X96266000Y-46990000D02*
X87122000Y-56134000D01*
D27*
X103886000Y-54610000D02*
X103886000Y-59436000D01*
X106934000Y-62484000D02*
X106934000Y-64008000D01*
X103886000Y-59436000D02*
X106934000Y-62484000D01*
X104394000Y-64008000D02*
X106934000Y-64008000D01*
X104648000Y-60960000D02*
X104648000Y-61976000D01*
X103378000Y-59690000D02*
X104648000Y-60960000D01*
X101854000Y-59690000D02*
X103378000Y-59690000D01*
D26*
X110677001Y-26307999D02*
X111427000Y-25558000D01*
X107724180Y-29260820D02*
X110677001Y-26307999D01*
X88595180Y-29260820D02*
X107724180Y-29260820D01*
X73279000Y-44577000D02*
X88595180Y-29260820D01*
X110677001Y-29307999D02*
X111427000Y-28558000D01*
X90728770Y-29667230D02*
X110317770Y-29667230D01*
X110317770Y-29667230D02*
X110677001Y-29307999D01*
X75819000Y-44577000D02*
X90728770Y-29667230D01*
X113677001Y-29307999D02*
X114427000Y-28558000D01*
X112886000Y-30099000D02*
X113677001Y-29307999D01*
X78359000Y-44577000D02*
X92837000Y-30099000D01*
X92837000Y-30099000D02*
X112886000Y-30099000D01*
X115697000Y-26828000D02*
X114427000Y-25558000D01*
X115697000Y-29591000D02*
X115697000Y-26828000D01*
X80899000Y-44577000D02*
X94970579Y-30505421D01*
X114782579Y-30505421D02*
X115697000Y-29591000D01*
X94970579Y-30505421D02*
X114782579Y-30505421D01*
X115176999Y-23307999D02*
X114427000Y-22558000D01*
X116103410Y-24234410D02*
X115176999Y-23307999D01*
X116103410Y-29759340D02*
X116103410Y-24234410D01*
X114950920Y-30911830D02*
X116103410Y-29759340D01*
X97104169Y-30911831D02*
X114950920Y-30911830D01*
X83439000Y-44577000D02*
X97104169Y-30911831D01*
X108712000Y-19558000D02*
X111427000Y-19558000D01*
X105156000Y-23114000D02*
X108712000Y-19558000D01*
X105156000Y-27178000D02*
X105156000Y-23114000D01*
X103886000Y-28448000D02*
X105156000Y-27178000D01*
X68199000Y-44577000D02*
X84328000Y-28448000D01*
X84328000Y-28448000D02*
X103886000Y-28448000D01*
X110677001Y-23307999D02*
X111427000Y-22558000D01*
X105130590Y-28854410D02*
X110677001Y-23307999D01*
X86461590Y-28854410D02*
X105130590Y-28854410D01*
X70739000Y-44577000D02*
X86461590Y-28854410D01*
X77444590Y-55270410D02*
X70358000Y-62357000D01*
X108839000Y-43180000D02*
X90744750Y-43180000D01*
X111427000Y-40592000D02*
X108839000Y-43180000D01*
X90744750Y-43180000D02*
X87655410Y-46269340D01*
X87655410Y-46269340D02*
X87655409Y-51857341D01*
X87655409Y-51857341D02*
X84242340Y-55270410D01*
X84242340Y-55270410D02*
X77444590Y-55270410D01*
X111379000Y-37592000D02*
X111427000Y-37592000D01*
X75311000Y-54864000D02*
X84074000Y-54864000D01*
X106299000Y-42672000D02*
X111379000Y-37592000D01*
X67818000Y-62357000D02*
X75311000Y-54864000D01*
X84074000Y-54864000D02*
X87249000Y-51689000D01*
X87249000Y-51689000D02*
X87249000Y-46101000D01*
X87249000Y-46101000D02*
X90678000Y-42672000D01*
X90678000Y-42672000D02*
X106299000Y-42672000D01*
X83058000Y-59436000D02*
X83058000Y-62357000D01*
X91744770Y-45288230D02*
X89687457Y-47345543D01*
X89687457Y-52806543D02*
X83058000Y-59436000D01*
X116459000Y-42624000D02*
X116459000Y-47056750D01*
X114427000Y-40592000D02*
X116459000Y-42624000D01*
X116459000Y-47056750D02*
X114315930Y-49199820D01*
X89687457Y-47345543D02*
X89687457Y-52806543D01*
X114315930Y-49199820D02*
X109143820Y-49199820D01*
X109143820Y-49199820D02*
X105232230Y-45288230D01*
X105232230Y-45288230D02*
X91744770Y-45288230D01*
X81279999Y-61595001D02*
X80518000Y-62357000D01*
X89281047Y-52577953D02*
X81279999Y-60579001D01*
X89281047Y-47116953D02*
X89281047Y-52577953D01*
X91516180Y-44881820D02*
X89281047Y-47116953D01*
X115951000Y-45116000D02*
X115951000Y-46990000D01*
X114427000Y-43592000D02*
X115951000Y-45116000D01*
X114147590Y-48793410D02*
X109372410Y-48793410D01*
X115951000Y-46990000D02*
X114147590Y-48793410D01*
X81279999Y-60579001D02*
X81279999Y-61595001D01*
X105460820Y-44881820D02*
X91516180Y-44881820D01*
X109372410Y-48793410D02*
X105460820Y-44881820D01*
X112632000Y-48387000D02*
X114427000Y-46592000D01*
X91287590Y-44475410D02*
X105689410Y-44475410D01*
X77978000Y-61279370D02*
X82716960Y-56540410D01*
X105689410Y-44475410D02*
X109601000Y-48387000D01*
X77978000Y-62357000D02*
X77978000Y-61279370D01*
X84696591Y-56540409D02*
X88874637Y-52362363D01*
X109601000Y-48387000D02*
X112632000Y-48387000D01*
X82716960Y-56540410D02*
X84696591Y-56540409D01*
X88874637Y-52362363D02*
X88874637Y-46888363D01*
X88874637Y-46888363D02*
X91287590Y-44475410D01*
X76199999Y-61595001D02*
X75438000Y-62357000D01*
X81661000Y-56134000D02*
X76199999Y-61595001D01*
X108904000Y-44069000D02*
X91059000Y-44069000D01*
X111427000Y-46592000D02*
X108904000Y-44069000D01*
X84528250Y-56134000D02*
X81661000Y-56134000D01*
X91059000Y-44069000D02*
X88468227Y-46659773D01*
X88468227Y-46659773D02*
X88468227Y-52194023D01*
X88468227Y-52194023D02*
X84528250Y-56134000D01*
X79578180Y-55676820D02*
X72898000Y-62357000D01*
X84410680Y-55676820D02*
X79578180Y-55676820D01*
X88061818Y-52025682D02*
X84410680Y-55676820D01*
X88061819Y-46437681D02*
X88061818Y-52025682D01*
X111427000Y-43592000D02*
X90907500Y-43592000D01*
X90907500Y-43592000D02*
X88061819Y-46437681D01*
D27*
X72136001Y-70485001D02*
X72898000Y-71247000D01*
X66548000Y-64897000D02*
X72136001Y-70485001D01*
X73279000Y-53467000D02*
X66548000Y-60198000D01*
X66548000Y-60198000D02*
X66548000Y-64897000D01*
D26*
G36*
X124079000Y-98603000D02*
G01*
X62397000Y-98603000D01*
X62397000Y-47244000D01*
X62559694Y-47244000D01*
X62568001Y-47285761D01*
X62568001Y-64601241D01*
X62559694Y-64643000D01*
X62568001Y-64684759D01*
X62568000Y-78686206D01*
X62568000Y-91036244D01*
X62559694Y-91078000D01*
X62568000Y-91119756D01*
X62592601Y-91243435D01*
X62686313Y-91383687D01*
X62721720Y-91407345D01*
X65158116Y-93843742D01*
X65080489Y-94234000D01*
X65161748Y-94642519D01*
X65393156Y-94988844D01*
X65739481Y-95220252D01*
X66044884Y-95281000D01*
X67051116Y-95281000D01*
X67356519Y-95220252D01*
X67702844Y-94988844D01*
X67934252Y-94642519D01*
X68015511Y-94234000D01*
X67934252Y-93825481D01*
X67754192Y-93556002D01*
X78376000Y-93556002D01*
X78376000Y-95165998D01*
X78992119Y-96653441D01*
X80130559Y-97791881D01*
X81618002Y-98408000D01*
X83227998Y-98408000D01*
X84715441Y-97791881D01*
X85853881Y-96653441D01*
X86470000Y-95165998D01*
X86470000Y-93556002D01*
X85853881Y-92068559D01*
X84715441Y-90930119D01*
X83227998Y-90314000D01*
X81618002Y-90314000D01*
X80130559Y-90930119D01*
X78992119Y-92068559D01*
X78376000Y-93556002D01*
X67754192Y-93556002D01*
X67702844Y-93479156D01*
X67356519Y-93247748D01*
X67051116Y-93187000D01*
X66044884Y-93187000D01*
X65757742Y-93244116D01*
X65174959Y-92661334D01*
X65500651Y-92924972D01*
X66021000Y-93079000D01*
X66421000Y-93079000D01*
X66421000Y-91821000D01*
X66675000Y-91821000D01*
X66675000Y-93079000D01*
X67075000Y-93079000D01*
X67595349Y-92924972D01*
X68017145Y-92583540D01*
X68276173Y-92106684D01*
X68290318Y-92035185D01*
X68167656Y-91821000D01*
X66675000Y-91821000D01*
X66421000Y-91821000D01*
X64928344Y-91821000D01*
X64805682Y-92035185D01*
X64819827Y-92106684D01*
X65057081Y-92543456D01*
X63866440Y-91352815D01*
X64805682Y-91352815D01*
X64928344Y-91567000D01*
X66421000Y-91567000D01*
X66421000Y-90309000D01*
X66675000Y-90309000D01*
X66675000Y-91567000D01*
X68167656Y-91567000D01*
X68290318Y-91352815D01*
X68276173Y-91281316D01*
X68017145Y-90804460D01*
X67595349Y-90463028D01*
X67075000Y-90309000D01*
X66675000Y-90309000D01*
X66421000Y-90309000D01*
X66021000Y-90309000D01*
X65500651Y-90463028D01*
X65078855Y-90804460D01*
X64819827Y-91281316D01*
X64805682Y-91352815D01*
X63866440Y-91352815D01*
X63416000Y-90902375D01*
X63416000Y-88404000D01*
X65095182Y-88404000D01*
X65095182Y-89904000D01*
X65118233Y-90019883D01*
X65183875Y-90118125D01*
X65282117Y-90183767D01*
X65398000Y-90206818D01*
X67698000Y-90206818D01*
X67813883Y-90183767D01*
X67912125Y-90118125D01*
X67977767Y-90019883D01*
X68000818Y-89904000D01*
X68000818Y-88404000D01*
X67977767Y-88288117D01*
X67912125Y-88189875D01*
X67813883Y-88124233D01*
X67698000Y-88101182D01*
X65398000Y-88101182D01*
X65282117Y-88124233D01*
X65183875Y-88189875D01*
X65118233Y-88288117D01*
X65095182Y-88404000D01*
X63416000Y-88404000D01*
X63416000Y-84147259D01*
X72339018Y-84147259D01*
X72377991Y-84302277D01*
X72717225Y-84899170D01*
X73259058Y-85320808D01*
X73921000Y-85503000D01*
X75001000Y-85503000D01*
X75001000Y-83875000D01*
X75255000Y-83875000D01*
X75255000Y-85503000D01*
X76335000Y-85503000D01*
X76996942Y-85320808D01*
X77538775Y-84899170D01*
X77878009Y-84302277D01*
X77916982Y-84147259D01*
X77799190Y-83875000D01*
X75255000Y-83875000D01*
X75001000Y-83875000D01*
X72456810Y-83875000D01*
X72339018Y-84147259D01*
X63416000Y-84147259D01*
X63416000Y-83348741D01*
X72339018Y-83348741D01*
X72456810Y-83621000D01*
X75001000Y-83621000D01*
X75001000Y-81993000D01*
X75255000Y-81993000D01*
X75255000Y-83621000D01*
X77799190Y-83621000D01*
X77916982Y-83348741D01*
X77878009Y-83193723D01*
X77538775Y-82596830D01*
X76996942Y-82175192D01*
X76335000Y-81993000D01*
X75255000Y-81993000D01*
X75001000Y-81993000D01*
X73921000Y-81993000D01*
X73259058Y-82175192D01*
X72717225Y-82596830D01*
X72377991Y-83193723D01*
X72339018Y-83348741D01*
X63416000Y-83348741D01*
X63416000Y-79375000D01*
X70373000Y-79375000D01*
X70373000Y-80705000D01*
X70555192Y-81366942D01*
X70976830Y-81908775D01*
X71573723Y-82248009D01*
X71728741Y-82286982D01*
X72001000Y-82169190D01*
X72001000Y-79375000D01*
X72255000Y-79375000D01*
X72255000Y-82169190D01*
X72527259Y-82286982D01*
X72682277Y-82248009D01*
X73279170Y-81908775D01*
X73700808Y-81366942D01*
X73883000Y-80705000D01*
X73883000Y-79375000D01*
X72255000Y-79375000D01*
X72001000Y-79375000D01*
X70373000Y-79375000D01*
X63416000Y-79375000D01*
X63416000Y-77791000D01*
X70373000Y-77791000D01*
X70373000Y-79121000D01*
X72001000Y-79121000D01*
X72001000Y-76326810D01*
X72255000Y-76326810D01*
X72255000Y-79121000D01*
X73883000Y-79121000D01*
X73883000Y-77791000D01*
X73879544Y-77778442D01*
X76711000Y-77778442D01*
X76711001Y-80717559D01*
X76793217Y-81130886D01*
X77106401Y-81599600D01*
X77575115Y-81912784D01*
X78128000Y-82022760D01*
X78680886Y-81912784D01*
X78682485Y-81911715D01*
X91610015Y-94839247D01*
X91640752Y-94885248D01*
X91686753Y-94915985D01*
X91686755Y-94915987D01*
X91823010Y-95007030D01*
X91859206Y-95014230D01*
X91983735Y-95039000D01*
X91983738Y-95039000D01*
X92038000Y-95049793D01*
X92092261Y-95039000D01*
X116023740Y-95039000D01*
X116078000Y-95049793D01*
X116132260Y-95039000D01*
X116132265Y-95039000D01*
X116292989Y-95007030D01*
X116475248Y-94885248D01*
X116505989Y-94839241D01*
X123033244Y-88311987D01*
X123079248Y-88281248D01*
X123201030Y-88098989D01*
X123233000Y-87938265D01*
X123233000Y-87938261D01*
X123243793Y-87884001D01*
X123233000Y-87829741D01*
X123233000Y-37646259D01*
X123243793Y-37591999D01*
X123233000Y-37537739D01*
X123233000Y-19612261D01*
X123243793Y-19558000D01*
X123233000Y-19503736D01*
X123233000Y-19503735D01*
X123201030Y-19343011D01*
X123201030Y-19343010D01*
X123109987Y-19206755D01*
X123109985Y-19206753D01*
X123079248Y-19160752D01*
X123033247Y-19130015D01*
X121331989Y-17428759D01*
X121301248Y-17382752D01*
X121118989Y-17260970D01*
X120958265Y-17229000D01*
X120958260Y-17229000D01*
X120904000Y-17218207D01*
X120849740Y-17229000D01*
X116259261Y-17229000D01*
X116205000Y-17218207D01*
X116150738Y-17229000D01*
X116150735Y-17229000D01*
X116026206Y-17253770D01*
X115990010Y-17260970D01*
X115853755Y-17352013D01*
X115853753Y-17352015D01*
X115807752Y-17382752D01*
X115777015Y-17428753D01*
X114700587Y-18505182D01*
X113927000Y-18505182D01*
X113715446Y-18547263D01*
X113536099Y-18667099D01*
X113416263Y-18846446D01*
X113374182Y-19058000D01*
X113374182Y-20058000D01*
X113416263Y-20269554D01*
X113536099Y-20448901D01*
X113715446Y-20568737D01*
X113927000Y-20610818D01*
X114927000Y-20610818D01*
X115138554Y-20568737D01*
X115317901Y-20448901D01*
X115437737Y-20269554D01*
X115479818Y-20058000D01*
X115479818Y-19284413D01*
X116433232Y-18331000D01*
X120675770Y-18331000D01*
X122131000Y-19786232D01*
X122131001Y-36261771D01*
X121839989Y-35970759D01*
X121809248Y-35924752D01*
X121626989Y-35802970D01*
X121466265Y-35771000D01*
X121466260Y-35771000D01*
X121412000Y-35760207D01*
X121357740Y-35771000D01*
X115751259Y-35771000D01*
X115696999Y-35760207D01*
X115642739Y-35771000D01*
X115642735Y-35771000D01*
X115482011Y-35802970D01*
X115299752Y-35924752D01*
X115269013Y-35970756D01*
X114700587Y-36539182D01*
X113927000Y-36539182D01*
X113715446Y-36581263D01*
X113536099Y-36701099D01*
X113416263Y-36880446D01*
X113374182Y-37092000D01*
X113374182Y-38092000D01*
X113416263Y-38303554D01*
X113536099Y-38482901D01*
X113715446Y-38602737D01*
X113927000Y-38644818D01*
X114927000Y-38644818D01*
X115138554Y-38602737D01*
X115317901Y-38482901D01*
X115437737Y-38303554D01*
X115479818Y-38092000D01*
X115479818Y-37318413D01*
X115925231Y-36873000D01*
X121183770Y-36873000D01*
X122131000Y-37820231D01*
X122131001Y-87655768D01*
X115849770Y-93937000D01*
X92266232Y-93937000D01*
X79461715Y-81132485D01*
X79462784Y-81130886D01*
X79545000Y-80717559D01*
X79545000Y-77778441D01*
X79462784Y-77365114D01*
X79149599Y-76896400D01*
X78680885Y-76583216D01*
X78128000Y-76473240D01*
X77575114Y-76583216D01*
X77106400Y-76896401D01*
X76793216Y-77365115D01*
X76711000Y-77778442D01*
X73879544Y-77778442D01*
X73700808Y-77129058D01*
X73279170Y-76587225D01*
X72682277Y-76247991D01*
X72527259Y-76209018D01*
X72255000Y-76326810D01*
X72001000Y-76326810D01*
X71728741Y-76209018D01*
X71573723Y-76247991D01*
X70976830Y-76587225D01*
X70555192Y-77129058D01*
X70373000Y-77791000D01*
X63416000Y-77791000D01*
X63416000Y-70485000D01*
X64213182Y-70485000D01*
X64213182Y-72009000D01*
X64236233Y-72124883D01*
X64301875Y-72223125D01*
X64400117Y-72288767D01*
X64516000Y-72311818D01*
X66040000Y-72311818D01*
X66155883Y-72288767D01*
X66254125Y-72223125D01*
X66319767Y-72124883D01*
X66342818Y-72009000D01*
X66342818Y-71036352D01*
X66759000Y-71036352D01*
X66759000Y-71457648D01*
X66920223Y-71846875D01*
X67218125Y-72144777D01*
X67607352Y-72306000D01*
X68028648Y-72306000D01*
X68417875Y-72144777D01*
X68715777Y-71846875D01*
X68877000Y-71457648D01*
X68877000Y-71036352D01*
X69299000Y-71036352D01*
X69299000Y-71457648D01*
X69460223Y-71846875D01*
X69758125Y-72144777D01*
X70147352Y-72306000D01*
X70568648Y-72306000D01*
X70957875Y-72144777D01*
X71255777Y-71846875D01*
X71417000Y-71457648D01*
X71417000Y-71036352D01*
X71255777Y-70647125D01*
X70957875Y-70349223D01*
X70568648Y-70188000D01*
X70147352Y-70188000D01*
X69758125Y-70349223D01*
X69460223Y-70647125D01*
X69299000Y-71036352D01*
X68877000Y-71036352D01*
X68715777Y-70647125D01*
X68417875Y-70349223D01*
X68028648Y-70188000D01*
X67607352Y-70188000D01*
X67218125Y-70349223D01*
X66920223Y-70647125D01*
X66759000Y-71036352D01*
X66342818Y-71036352D01*
X66342818Y-70485000D01*
X66319767Y-70369117D01*
X66254125Y-70270875D01*
X66155883Y-70205233D01*
X66040000Y-70182182D01*
X64516000Y-70182182D01*
X64400117Y-70205233D01*
X64301875Y-70270875D01*
X64236233Y-70369117D01*
X64213182Y-70485000D01*
X63416000Y-70485000D01*
X63416000Y-64818625D01*
X64891476Y-63343150D01*
X65067352Y-63416000D01*
X65488648Y-63416000D01*
X65877875Y-63254777D01*
X66174801Y-62957851D01*
X66174801Y-64860242D01*
X66167489Y-64897000D01*
X66196412Y-65042398D01*
X66196455Y-65042615D01*
X66278939Y-65166062D01*
X66310097Y-65186881D01*
X71898097Y-70774882D01*
X71898100Y-70774884D01*
X71932892Y-70809676D01*
X71839000Y-71036352D01*
X71839000Y-71457648D01*
X72000223Y-71846875D01*
X72298125Y-72144777D01*
X72687352Y-72306000D01*
X73108648Y-72306000D01*
X73497875Y-72144777D01*
X73795777Y-71846875D01*
X73957000Y-71457648D01*
X73957000Y-71036352D01*
X74379000Y-71036352D01*
X74379000Y-71457648D01*
X74540223Y-71846875D01*
X74838125Y-72144777D01*
X75227352Y-72306000D01*
X75648648Y-72306000D01*
X76037875Y-72144777D01*
X76335777Y-71846875D01*
X76497000Y-71457648D01*
X76497000Y-71036352D01*
X76919000Y-71036352D01*
X76919000Y-71457648D01*
X77080223Y-71846875D01*
X77378125Y-72144777D01*
X77767352Y-72306000D01*
X78188648Y-72306000D01*
X78577875Y-72144777D01*
X78875777Y-71846875D01*
X79037000Y-71457648D01*
X79037000Y-71036352D01*
X79459000Y-71036352D01*
X79459000Y-71457648D01*
X79620223Y-71846875D01*
X79918125Y-72144777D01*
X80307352Y-72306000D01*
X80728648Y-72306000D01*
X80918856Y-72227213D01*
X82257392Y-72227213D01*
X82326857Y-72469397D01*
X82850302Y-72656144D01*
X83405368Y-72628362D01*
X83789143Y-72469397D01*
X83858608Y-72227213D01*
X83058000Y-71426605D01*
X82257392Y-72227213D01*
X80918856Y-72227213D01*
X81117875Y-72144777D01*
X81415777Y-71846875D01*
X81577000Y-71457648D01*
X81577000Y-71039302D01*
X81648856Y-71039302D01*
X81676638Y-71594368D01*
X81835603Y-71978143D01*
X82077787Y-72047608D01*
X82878395Y-71247000D01*
X83237605Y-71247000D01*
X84038213Y-72047608D01*
X84280397Y-71978143D01*
X84467144Y-71454698D01*
X84439362Y-70899632D01*
X84280397Y-70515857D01*
X84038213Y-70446392D01*
X83237605Y-71247000D01*
X82878395Y-71247000D01*
X82077787Y-70446392D01*
X81835603Y-70515857D01*
X81648856Y-71039302D01*
X81577000Y-71039302D01*
X81577000Y-71036352D01*
X81415777Y-70647125D01*
X81117875Y-70349223D01*
X80918857Y-70266787D01*
X82257392Y-70266787D01*
X83058000Y-71067395D01*
X83858608Y-70266787D01*
X83789143Y-70024603D01*
X83265698Y-69837856D01*
X82710632Y-69865638D01*
X82326857Y-70024603D01*
X82257392Y-70266787D01*
X80918857Y-70266787D01*
X80728648Y-70188000D01*
X80307352Y-70188000D01*
X79918125Y-70349223D01*
X79620223Y-70647125D01*
X79459000Y-71036352D01*
X79037000Y-71036352D01*
X78875777Y-70647125D01*
X78577875Y-70349223D01*
X78188648Y-70188000D01*
X77767352Y-70188000D01*
X77378125Y-70349223D01*
X77080223Y-70647125D01*
X76919000Y-71036352D01*
X76497000Y-71036352D01*
X76335777Y-70647125D01*
X76037875Y-70349223D01*
X75648648Y-70188000D01*
X75227352Y-70188000D01*
X74838125Y-70349223D01*
X74540223Y-70647125D01*
X74379000Y-71036352D01*
X73957000Y-71036352D01*
X73795777Y-70647125D01*
X73497875Y-70349223D01*
X73108648Y-70188000D01*
X72687352Y-70188000D01*
X72460676Y-70281892D01*
X72425884Y-70247100D01*
X72425882Y-70247097D01*
X66921200Y-64742416D01*
X66921200Y-62957852D01*
X67218125Y-63254777D01*
X67607352Y-63416000D01*
X68028648Y-63416000D01*
X68417875Y-63254777D01*
X68715777Y-62956875D01*
X68877000Y-62567648D01*
X68877000Y-62146352D01*
X68804150Y-61970475D01*
X75486626Y-55288000D01*
X76827373Y-55288000D01*
X70744524Y-61370850D01*
X70568648Y-61298000D01*
X70147352Y-61298000D01*
X69758125Y-61459223D01*
X69460223Y-61757125D01*
X69299000Y-62146352D01*
X69299000Y-62567648D01*
X69460223Y-62956875D01*
X69758125Y-63254777D01*
X70147352Y-63416000D01*
X70568648Y-63416000D01*
X70957875Y-63254777D01*
X71255777Y-62956875D01*
X71417000Y-62567648D01*
X71417000Y-62146352D01*
X71344150Y-61970476D01*
X77620217Y-55694410D01*
X78960964Y-55694410D01*
X73284525Y-61370850D01*
X73108648Y-61298000D01*
X72687352Y-61298000D01*
X72298125Y-61459223D01*
X72000223Y-61757125D01*
X71839000Y-62146352D01*
X71839000Y-62567648D01*
X72000223Y-62956875D01*
X72298125Y-63254777D01*
X72687352Y-63416000D01*
X73108648Y-63416000D01*
X73497875Y-63254777D01*
X73795777Y-62956875D01*
X73957000Y-62567648D01*
X73957000Y-62146352D01*
X73884150Y-61970475D01*
X79753806Y-56100820D01*
X81094553Y-56100820D01*
X75929715Y-61265660D01*
X75929712Y-61265662D01*
X75824524Y-61370850D01*
X75648648Y-61298000D01*
X75227352Y-61298000D01*
X74838125Y-61459223D01*
X74540223Y-61757125D01*
X74379000Y-62146352D01*
X74379000Y-62567648D01*
X74540223Y-62956875D01*
X74838125Y-63254777D01*
X75227352Y-63416000D01*
X75648648Y-63416000D01*
X76037875Y-63254777D01*
X76335777Y-62956875D01*
X76497000Y-62567648D01*
X76497000Y-62146352D01*
X76424150Y-61970476D01*
X76529338Y-61865288D01*
X76529340Y-61865285D01*
X81836627Y-56558000D01*
X82099743Y-56558000D01*
X77707718Y-60950027D01*
X77672314Y-60973683D01*
X77584161Y-61105615D01*
X77578602Y-61113934D01*
X77545694Y-61279370D01*
X77554001Y-61321131D01*
X77554001Y-61386373D01*
X77378125Y-61459223D01*
X77080223Y-61757125D01*
X76919000Y-62146352D01*
X76919000Y-62567648D01*
X77080223Y-62956875D01*
X77378125Y-63254777D01*
X77767352Y-63416000D01*
X78188648Y-63416000D01*
X78577875Y-63254777D01*
X78875777Y-62956875D01*
X79037000Y-62567648D01*
X79037000Y-62146352D01*
X78875777Y-61757125D01*
X78577875Y-61459223D01*
X78450523Y-61406472D01*
X82892587Y-56964410D01*
X84294966Y-56964408D01*
X81009719Y-60249656D01*
X80974312Y-60273314D01*
X80880600Y-60413566D01*
X80866468Y-60484615D01*
X80847693Y-60579001D01*
X80855999Y-60620758D01*
X80856000Y-61350751D01*
X80728648Y-61298000D01*
X80307352Y-61298000D01*
X79918125Y-61459223D01*
X79620223Y-61757125D01*
X79459000Y-62146352D01*
X79459000Y-62567648D01*
X79620223Y-62956875D01*
X79918125Y-63254777D01*
X80307352Y-63416000D01*
X80728648Y-63416000D01*
X81117875Y-63254777D01*
X81415777Y-62956875D01*
X81577000Y-62567648D01*
X81577000Y-62146352D01*
X81504150Y-61970476D01*
X81550282Y-61924344D01*
X81585686Y-61900688D01*
X81679398Y-61760437D01*
X81703999Y-61636758D01*
X81712305Y-61595002D01*
X81703999Y-61553246D01*
X81703999Y-60754626D01*
X82634000Y-59824625D01*
X82634001Y-61386373D01*
X82458125Y-61459223D01*
X82160223Y-61757125D01*
X81999000Y-62146352D01*
X81999000Y-62567648D01*
X82160223Y-62956875D01*
X82458125Y-63254777D01*
X82847352Y-63416000D01*
X83268648Y-63416000D01*
X83657875Y-63254777D01*
X83955777Y-62956875D01*
X84117000Y-62567648D01*
X84117000Y-62146352D01*
X83955777Y-61757125D01*
X83657875Y-61459223D01*
X83482000Y-61386373D01*
X83482000Y-59611625D01*
X86698000Y-56395625D01*
X86698001Y-82400239D01*
X86689694Y-82442000D01*
X86720492Y-82596830D01*
X86722602Y-82607436D01*
X86816314Y-82747687D01*
X86851718Y-82771343D01*
X89479182Y-85398808D01*
X89479182Y-86602000D01*
X89502233Y-86717883D01*
X89567875Y-86816125D01*
X89666117Y-86881767D01*
X89782000Y-86904818D01*
X92082000Y-86904818D01*
X92197883Y-86881767D01*
X92296125Y-86816125D01*
X92361767Y-86717883D01*
X92384818Y-86602000D01*
X92384818Y-85340011D01*
X102328000Y-85340011D01*
X102328000Y-85855989D01*
X102525456Y-86332692D01*
X102890308Y-86697544D01*
X103367011Y-86895000D01*
X103882989Y-86895000D01*
X104359692Y-86697544D01*
X104724544Y-86332692D01*
X104922000Y-85855989D01*
X104922000Y-85340011D01*
X117328000Y-85340011D01*
X117328000Y-85855989D01*
X117525456Y-86332692D01*
X117890308Y-86697544D01*
X118367011Y-86895000D01*
X118882989Y-86895000D01*
X119359692Y-86697544D01*
X119724544Y-86332692D01*
X119922000Y-85855989D01*
X119922000Y-85340011D01*
X119724544Y-84863308D01*
X119359692Y-84498456D01*
X118882989Y-84301000D01*
X118367011Y-84301000D01*
X117890308Y-84498456D01*
X117525456Y-84863308D01*
X117328000Y-85340011D01*
X104922000Y-85340011D01*
X104724544Y-84863308D01*
X104359692Y-84498456D01*
X103882989Y-84301000D01*
X103367011Y-84301000D01*
X102890308Y-84498456D01*
X102525456Y-84863308D01*
X102328000Y-85340011D01*
X92384818Y-85340011D01*
X92384818Y-85102000D01*
X92361767Y-84986117D01*
X92296125Y-84887875D01*
X92197883Y-84822233D01*
X92082000Y-84799182D01*
X90078808Y-84799182D01*
X89558960Y-84279334D01*
X89884651Y-84542972D01*
X90405000Y-84697000D01*
X90805000Y-84697000D01*
X90805000Y-83439000D01*
X91059000Y-83439000D01*
X91059000Y-84697000D01*
X91459000Y-84697000D01*
X91979349Y-84542972D01*
X92401145Y-84201540D01*
X92660173Y-83724684D01*
X92674318Y-83653185D01*
X92551656Y-83439000D01*
X91059000Y-83439000D01*
X90805000Y-83439000D01*
X89312344Y-83439000D01*
X89189682Y-83653185D01*
X89203827Y-83724684D01*
X89441081Y-84161456D01*
X88250440Y-82970815D01*
X89189682Y-82970815D01*
X89312344Y-83185000D01*
X90805000Y-83185000D01*
X90805000Y-81927000D01*
X91059000Y-81927000D01*
X91059000Y-83185000D01*
X92551656Y-83185000D01*
X92674318Y-82970815D01*
X92660173Y-82899316D01*
X92401145Y-82422460D01*
X91979349Y-82081028D01*
X91459000Y-81927000D01*
X91059000Y-81927000D01*
X90805000Y-81927000D01*
X90405000Y-81927000D01*
X89884651Y-82081028D01*
X89462855Y-82422460D01*
X89203827Y-82899316D01*
X89189682Y-82970815D01*
X88250440Y-82970815D01*
X87546000Y-82266375D01*
X87546000Y-80772000D01*
X89464489Y-80772000D01*
X89545748Y-81180519D01*
X89777156Y-81526844D01*
X90123481Y-81758252D01*
X90428884Y-81819000D01*
X91435116Y-81819000D01*
X91740519Y-81758252D01*
X92086844Y-81526844D01*
X92306305Y-81198399D01*
X92336000Y-81204306D01*
X92377756Y-81196000D01*
X93176244Y-81196000D01*
X93218000Y-81204306D01*
X93259756Y-81196000D01*
X93259757Y-81196000D01*
X93383436Y-81171399D01*
X93523687Y-81077687D01*
X93547345Y-81042280D01*
X104315627Y-70274000D01*
X106635202Y-70274000D01*
X106796750Y-70435548D01*
X107050611Y-70540700D01*
X107325389Y-70540700D01*
X107579250Y-70435548D01*
X107773548Y-70241250D01*
X107878700Y-69987389D01*
X107878700Y-69712611D01*
X107773548Y-69458750D01*
X107579250Y-69264452D01*
X107325389Y-69159300D01*
X107050611Y-69159300D01*
X106796750Y-69264452D01*
X106635202Y-69426000D01*
X104281626Y-69426000D01*
X105805624Y-67902002D01*
X112285000Y-67902002D01*
X112285000Y-69511998D01*
X112901119Y-70999441D01*
X114039559Y-72137881D01*
X115527002Y-72754000D01*
X117136998Y-72754000D01*
X118624441Y-72137881D01*
X119762881Y-70999441D01*
X120379000Y-69511998D01*
X120379000Y-67902002D01*
X119762881Y-66414559D01*
X118624441Y-65276119D01*
X117136998Y-64660000D01*
X115527002Y-64660000D01*
X114039559Y-65276119D01*
X112901119Y-66414559D01*
X112285000Y-67902002D01*
X105805624Y-67902002D01*
X108324358Y-65383269D01*
X108359759Y-65359615D01*
X108453471Y-65219364D01*
X108478072Y-65095685D01*
X108478072Y-65095684D01*
X108486378Y-65053928D01*
X108478072Y-65012172D01*
X108478072Y-59862739D01*
X112110000Y-59862739D01*
X112110000Y-60279261D01*
X112269396Y-60664078D01*
X112563922Y-60958604D01*
X112948739Y-61118000D01*
X113365261Y-61118000D01*
X113750078Y-60958604D01*
X114044604Y-60664078D01*
X114204000Y-60279261D01*
X114204000Y-59862739D01*
X114044604Y-59477922D01*
X113750078Y-59183396D01*
X113365261Y-59024000D01*
X112948739Y-59024000D01*
X112563922Y-59183396D01*
X112269396Y-59477922D01*
X112110000Y-59862739D01*
X108478072Y-59862739D01*
X108478072Y-59468827D01*
X108486378Y-59427071D01*
X108468751Y-59338454D01*
X108453471Y-59261636D01*
X108382818Y-59155895D01*
X108382818Y-58690500D01*
X108341689Y-58483729D01*
X108224563Y-58308437D01*
X108049271Y-58191311D01*
X107928200Y-58167229D01*
X107928200Y-57910771D01*
X108049271Y-57886689D01*
X108224563Y-57769563D01*
X108341689Y-57594271D01*
X108382818Y-57387500D01*
X108382818Y-56912500D01*
X108341689Y-56705729D01*
X108224563Y-56530437D01*
X108049271Y-56413311D01*
X107842500Y-56372182D01*
X107304966Y-56372182D01*
X106320883Y-55388099D01*
X106300062Y-55356938D01*
X106176615Y-55274454D01*
X106067754Y-55252800D01*
X106067753Y-55252800D01*
X106031000Y-55245489D01*
X105994247Y-55252800D01*
X105749025Y-55252800D01*
X105741548Y-55234750D01*
X105547250Y-55040452D01*
X105359634Y-54962739D01*
X112110000Y-54962739D01*
X112110000Y-55379261D01*
X112269396Y-55764078D01*
X112563922Y-56058604D01*
X112948739Y-56218000D01*
X113365261Y-56218000D01*
X113750078Y-56058604D01*
X114044604Y-55764078D01*
X114204000Y-55379261D01*
X114204000Y-54962739D01*
X114044604Y-54577922D01*
X113750078Y-54283396D01*
X113365261Y-54124000D01*
X112948739Y-54124000D01*
X112563922Y-54283396D01*
X112269396Y-54577922D01*
X112110000Y-54962739D01*
X105359634Y-54962739D01*
X105293389Y-54935300D01*
X105018611Y-54935300D01*
X104764750Y-55040452D01*
X104570452Y-55234750D01*
X104465300Y-55488611D01*
X104465300Y-55763389D01*
X104570452Y-56017250D01*
X104764750Y-56211548D01*
X104821797Y-56235177D01*
X104741673Y-56315301D01*
X104645000Y-56548690D01*
X104645000Y-56864250D01*
X104803750Y-57023000D01*
X105678000Y-57023000D01*
X105678000Y-56198750D01*
X105619024Y-56139774D01*
X105741548Y-56017250D01*
X105749025Y-55999200D01*
X105876416Y-55999200D01*
X106003983Y-56126767D01*
X105932000Y-56198750D01*
X105932000Y-57023000D01*
X105952000Y-57023000D01*
X105952000Y-57277000D01*
X105932000Y-57277000D01*
X105932000Y-58801000D01*
X105952000Y-58801000D01*
X105952000Y-59055000D01*
X105932000Y-59055000D01*
X105932000Y-59879250D01*
X106090750Y-60038000D01*
X106456309Y-60038000D01*
X106689698Y-59941327D01*
X106868327Y-59762699D01*
X106941831Y-59585244D01*
X107060729Y-59664689D01*
X107267500Y-59705818D01*
X107630073Y-59705818D01*
X107630072Y-64878301D01*
X92248814Y-80259561D01*
X92086844Y-80017156D01*
X91740519Y-79785748D01*
X91435116Y-79725000D01*
X91356000Y-79725000D01*
X91356000Y-69009625D01*
X96071875Y-64293750D01*
X99565000Y-64293750D01*
X99565000Y-64609310D01*
X99661673Y-64842699D01*
X99840302Y-65021327D01*
X100073691Y-65118000D01*
X100439250Y-65118000D01*
X100598000Y-64959250D01*
X100598000Y-64135000D01*
X99723750Y-64135000D01*
X99565000Y-64293750D01*
X96071875Y-64293750D01*
X97849875Y-62515750D01*
X99565000Y-62515750D01*
X99565000Y-62831310D01*
X99661673Y-63064699D01*
X99715974Y-63119000D01*
X99661673Y-63173301D01*
X99565000Y-63406690D01*
X99565000Y-63722250D01*
X99723750Y-63881000D01*
X100598000Y-63881000D01*
X100598000Y-62357000D01*
X99723750Y-62357000D01*
X99565000Y-62515750D01*
X97849875Y-62515750D01*
X98736935Y-61628690D01*
X99565000Y-61628690D01*
X99565000Y-61944250D01*
X99723750Y-62103000D01*
X100598000Y-62103000D01*
X100598000Y-61278750D01*
X100439250Y-61120000D01*
X100073691Y-61120000D01*
X99840302Y-61216673D01*
X99661673Y-61395301D01*
X99565000Y-61628690D01*
X98736935Y-61628690D01*
X100210801Y-60154825D01*
X100210801Y-60302242D01*
X100203489Y-60339000D01*
X100218322Y-60413565D01*
X100232455Y-60484615D01*
X100314939Y-60608062D01*
X100346097Y-60628881D01*
X100923983Y-61206767D01*
X100852000Y-61278750D01*
X100852000Y-62103000D01*
X100872000Y-62103000D01*
X100872000Y-62357000D01*
X100852000Y-62357000D01*
X100852000Y-63881000D01*
X100872000Y-63881000D01*
X100872000Y-64135000D01*
X100852000Y-64135000D01*
X100852000Y-64959250D01*
X101010750Y-65118000D01*
X101376309Y-65118000D01*
X101609698Y-65021327D01*
X101788327Y-64842699D01*
X101861831Y-64665244D01*
X101980729Y-64744689D01*
X102187500Y-64785818D01*
X102762500Y-64785818D01*
X102969271Y-64744689D01*
X103144563Y-64627563D01*
X103261689Y-64452271D01*
X103302818Y-64245500D01*
X103302818Y-63770500D01*
X103261689Y-63563729D01*
X103144563Y-63388437D01*
X102969271Y-63271311D01*
X102848200Y-63247229D01*
X102848200Y-62990771D01*
X102969271Y-62966689D01*
X103144563Y-62849563D01*
X103261689Y-62674271D01*
X103302818Y-62467500D01*
X103302818Y-61992500D01*
X103261689Y-61785729D01*
X103144563Y-61610437D01*
X102969271Y-61493311D01*
X102762500Y-61452182D01*
X102224967Y-61452182D01*
X100957200Y-60184416D01*
X100957200Y-59775025D01*
X100975250Y-59767548D01*
X101163300Y-59579498D01*
X101163300Y-59827389D01*
X101268452Y-60081250D01*
X101462750Y-60275548D01*
X101716611Y-60380700D01*
X101991389Y-60380700D01*
X102245250Y-60275548D01*
X102439548Y-60081250D01*
X102447025Y-60063200D01*
X103223416Y-60063200D01*
X104274800Y-61114585D01*
X104274800Y-61382975D01*
X104256750Y-61390452D01*
X104062452Y-61584750D01*
X103957300Y-61838611D01*
X103957300Y-62113389D01*
X104062452Y-62367250D01*
X104256750Y-62561548D01*
X104510611Y-62666700D01*
X104785389Y-62666700D01*
X105039250Y-62561548D01*
X105233548Y-62367250D01*
X105338700Y-62113389D01*
X105338700Y-61838611D01*
X105233548Y-61584750D01*
X105039250Y-61390452D01*
X105021200Y-61382975D01*
X105021200Y-61098984D01*
X106560800Y-62638585D01*
X106560801Y-63414975D01*
X106542750Y-63422452D01*
X106348452Y-63616750D01*
X106340975Y-63634800D01*
X104987025Y-63634800D01*
X104979548Y-63616750D01*
X104785250Y-63422452D01*
X104531389Y-63317300D01*
X104256611Y-63317300D01*
X104002750Y-63422452D01*
X103808452Y-63616750D01*
X103703300Y-63870611D01*
X103703300Y-64145389D01*
X103808452Y-64399250D01*
X104002750Y-64593548D01*
X104256611Y-64698700D01*
X104531389Y-64698700D01*
X104785250Y-64593548D01*
X104979548Y-64399250D01*
X104987025Y-64381200D01*
X106340975Y-64381200D01*
X106348452Y-64399250D01*
X106542750Y-64593548D01*
X106796611Y-64698700D01*
X107071389Y-64698700D01*
X107325250Y-64593548D01*
X107519548Y-64399250D01*
X107624700Y-64145389D01*
X107624700Y-63870611D01*
X107519548Y-63616750D01*
X107325250Y-63422452D01*
X107307200Y-63414975D01*
X107307200Y-62520753D01*
X107314511Y-62484000D01*
X107307200Y-62447246D01*
X107285546Y-62338385D01*
X107203062Y-62214938D01*
X107171905Y-62194120D01*
X104259200Y-59281416D01*
X104259200Y-59213750D01*
X104645000Y-59213750D01*
X104645000Y-59529310D01*
X104741673Y-59762699D01*
X104920302Y-59941327D01*
X105153691Y-60038000D01*
X105519250Y-60038000D01*
X105678000Y-59879250D01*
X105678000Y-59055000D01*
X104803750Y-59055000D01*
X104645000Y-59213750D01*
X104259200Y-59213750D01*
X104259200Y-57435750D01*
X104645000Y-57435750D01*
X104645000Y-57751310D01*
X104741673Y-57984699D01*
X104795974Y-58039000D01*
X104741673Y-58093301D01*
X104645000Y-58326690D01*
X104645000Y-58642250D01*
X104803750Y-58801000D01*
X105678000Y-58801000D01*
X105678000Y-57277000D01*
X104803750Y-57277000D01*
X104645000Y-57435750D01*
X104259200Y-57435750D01*
X104259200Y-55203025D01*
X104277250Y-55195548D01*
X104471548Y-55001250D01*
X104576700Y-54747389D01*
X104576700Y-54472611D01*
X104471548Y-54218750D01*
X104277250Y-54024452D01*
X104023389Y-53919300D01*
X103748611Y-53919300D01*
X103494750Y-54024452D01*
X103300452Y-54218750D01*
X103195300Y-54472611D01*
X103195300Y-54747389D01*
X103300452Y-55001250D01*
X103494750Y-55195548D01*
X103512800Y-55203025D01*
X103512801Y-59336303D01*
X103414754Y-59316800D01*
X103414753Y-59316800D01*
X103378000Y-59309489D01*
X103341247Y-59316800D01*
X102447025Y-59316800D01*
X102439548Y-59298750D01*
X102245250Y-59104452D01*
X101991389Y-58999300D01*
X101716611Y-58999300D01*
X101462750Y-59104452D01*
X101274700Y-59292502D01*
X101274700Y-59044611D01*
X101169548Y-58790750D01*
X100975250Y-58596452D01*
X100721389Y-58491300D01*
X100446611Y-58491300D01*
X100192750Y-58596452D01*
X99998452Y-58790750D01*
X99893300Y-59044611D01*
X99893300Y-59273074D01*
X91356000Y-67810375D01*
X91356000Y-63280625D01*
X91644625Y-62992000D01*
X92475100Y-62992000D01*
X92498151Y-63107883D01*
X92563793Y-63206125D01*
X93765875Y-64408207D01*
X93864117Y-64473849D01*
X93980000Y-64496900D01*
X94095883Y-64473849D01*
X94194125Y-64408207D01*
X95396207Y-63206125D01*
X95461849Y-63107883D01*
X95484900Y-62992000D01*
X95461849Y-62876117D01*
X95396207Y-62777875D01*
X94194125Y-61575793D01*
X94095883Y-61510151D01*
X93980000Y-61487100D01*
X93864117Y-61510151D01*
X93765875Y-61575793D01*
X92563793Y-62777875D01*
X92498151Y-62876117D01*
X92475100Y-62992000D01*
X91644625Y-62992000D01*
X93440676Y-61195949D01*
X94606580Y-61195949D01*
X94695601Y-61643486D01*
X94949110Y-62022890D01*
X95328514Y-62276399D01*
X95663082Y-62342949D01*
X95889020Y-62342949D01*
X96223588Y-62276399D01*
X96602992Y-62022890D01*
X96856501Y-61643486D01*
X96945522Y-61195949D01*
X96856501Y-60748412D01*
X96602992Y-60369008D01*
X96223588Y-60115499D01*
X95889020Y-60048949D01*
X95663082Y-60048949D01*
X95328514Y-60115499D01*
X94949110Y-60369008D01*
X94695601Y-60748412D01*
X94606580Y-61195949D01*
X93440676Y-61195949D01*
X97216808Y-57419818D01*
X97682500Y-57419818D01*
X97889271Y-57378689D01*
X98064563Y-57261563D01*
X98181689Y-57086271D01*
X98185721Y-57066000D01*
X98253202Y-57066000D01*
X98414750Y-57227548D01*
X98668611Y-57332700D01*
X98943389Y-57332700D01*
X99197250Y-57227548D01*
X99391548Y-57033250D01*
X99496700Y-56779389D01*
X99496700Y-56504611D01*
X99391548Y-56250750D01*
X99197250Y-56056452D01*
X99181673Y-56050000D01*
X102063202Y-56050000D01*
X102224750Y-56211548D01*
X102478611Y-56316700D01*
X102753389Y-56316700D01*
X103007250Y-56211548D01*
X103201548Y-56017250D01*
X103306700Y-55763389D01*
X103306700Y-55488611D01*
X103201548Y-55234750D01*
X103007250Y-55040452D01*
X102875267Y-54985783D01*
X102890563Y-54975563D01*
X103007689Y-54800271D01*
X103048818Y-54593500D01*
X103048818Y-54118500D01*
X103007689Y-53911729D01*
X102890563Y-53736437D01*
X102715271Y-53619311D01*
X102594200Y-53595229D01*
X102594200Y-53338771D01*
X102715271Y-53314689D01*
X102890563Y-53197563D01*
X103007689Y-53022271D01*
X103048818Y-52815500D01*
X103048818Y-52340500D01*
X103007689Y-52133729D01*
X102890563Y-51958437D01*
X102715271Y-51841311D01*
X102508500Y-51800182D01*
X101933500Y-51800182D01*
X101726729Y-51841311D01*
X101607831Y-51920756D01*
X101534327Y-51743301D01*
X101355698Y-51564673D01*
X101122309Y-51468000D01*
X100756750Y-51468000D01*
X100598000Y-51626750D01*
X100598000Y-52451000D01*
X100618000Y-52451000D01*
X100618000Y-52705000D01*
X100598000Y-52705000D01*
X100598000Y-54229000D01*
X100618000Y-54229000D01*
X100618000Y-54483000D01*
X100598000Y-54483000D01*
X100598000Y-54503000D01*
X100344000Y-54503000D01*
X100344000Y-54483000D01*
X99469750Y-54483000D01*
X99311000Y-54641750D01*
X99311000Y-54957310D01*
X99407673Y-55190699D01*
X99418974Y-55202000D01*
X98452755Y-55202000D01*
X98410999Y-55193694D01*
X98369243Y-55202000D01*
X98245564Y-55226601D01*
X98190633Y-55263304D01*
X98222818Y-55101500D01*
X98222818Y-54626500D01*
X98181689Y-54419729D01*
X98064563Y-54244437D01*
X97889271Y-54127311D01*
X97682500Y-54086182D01*
X97107500Y-54086182D01*
X96900729Y-54127311D01*
X96781831Y-54206756D01*
X96708327Y-54029301D01*
X96529698Y-53850673D01*
X96296309Y-53754000D01*
X95930750Y-53754000D01*
X95772000Y-53912750D01*
X95772000Y-54737000D01*
X95792000Y-54737000D01*
X95792000Y-54991000D01*
X95772000Y-54991000D01*
X95772000Y-56515000D01*
X95792000Y-56515000D01*
X95792000Y-56769000D01*
X95772000Y-56769000D01*
X95772000Y-57593250D01*
X95808062Y-57629312D01*
X90661718Y-62775657D01*
X90626314Y-62799313D01*
X90574996Y-62876117D01*
X90532602Y-62939564D01*
X90499694Y-63105000D01*
X90508001Y-63146761D01*
X90508001Y-68792240D01*
X90499694Y-68834000D01*
X90508001Y-68875760D01*
X90508000Y-76209018D01*
X90508000Y-79725000D01*
X90428884Y-79725000D01*
X90123481Y-79785748D01*
X89777156Y-80017156D01*
X89545748Y-80363481D01*
X89464489Y-80772000D01*
X87546000Y-80772000D01*
X87546000Y-56927750D01*
X94485000Y-56927750D01*
X94485000Y-57243310D01*
X94581673Y-57476699D01*
X94760302Y-57655327D01*
X94993691Y-57752000D01*
X95359250Y-57752000D01*
X95518000Y-57593250D01*
X95518000Y-56769000D01*
X94643750Y-56769000D01*
X94485000Y-56927750D01*
X87546000Y-56927750D01*
X87546000Y-56309625D01*
X88705875Y-55149750D01*
X94485000Y-55149750D01*
X94485000Y-55465310D01*
X94581673Y-55698699D01*
X94635974Y-55753000D01*
X94581673Y-55807301D01*
X94485000Y-56040690D01*
X94485000Y-56356250D01*
X94643750Y-56515000D01*
X95518000Y-56515000D01*
X95518000Y-54991000D01*
X94643750Y-54991000D01*
X94485000Y-55149750D01*
X88705875Y-55149750D01*
X89592935Y-54262690D01*
X94485000Y-54262690D01*
X94485000Y-54578250D01*
X94643750Y-54737000D01*
X95518000Y-54737000D01*
X95518000Y-53912750D01*
X95359250Y-53754000D01*
X94993691Y-53754000D01*
X94760302Y-53850673D01*
X94581673Y-54029301D01*
X94485000Y-54262690D01*
X89592935Y-54262690D01*
X90991875Y-52863750D01*
X99311000Y-52863750D01*
X99311000Y-53179310D01*
X99407673Y-53412699D01*
X99461974Y-53467000D01*
X99407673Y-53521301D01*
X99311000Y-53754690D01*
X99311000Y-54070250D01*
X99469750Y-54229000D01*
X100344000Y-54229000D01*
X100344000Y-52705000D01*
X99469750Y-52705000D01*
X99311000Y-52863750D01*
X90991875Y-52863750D01*
X91878935Y-51976690D01*
X99311000Y-51976690D01*
X99311000Y-52292250D01*
X99469750Y-52451000D01*
X100344000Y-52451000D01*
X100344000Y-51626750D01*
X100185250Y-51468000D01*
X99819691Y-51468000D01*
X99586302Y-51564673D01*
X99407673Y-51743301D01*
X99311000Y-51976690D01*
X91878935Y-51976690D01*
X96441627Y-47414000D01*
X96983202Y-47414000D01*
X97144750Y-47575548D01*
X97398611Y-47680700D01*
X97673389Y-47680700D01*
X97927250Y-47575548D01*
X98121548Y-47381250D01*
X98226700Y-47127389D01*
X98226700Y-46852611D01*
X98121548Y-46598750D01*
X97927250Y-46404452D01*
X97673389Y-46299300D01*
X97398611Y-46299300D01*
X97144750Y-46404452D01*
X96983202Y-46566000D01*
X96307756Y-46566000D01*
X96266000Y-46557694D01*
X96224244Y-46566000D01*
X96224243Y-46566000D01*
X96100564Y-46590601D01*
X95960313Y-46684313D01*
X95936659Y-46719714D01*
X90111457Y-52544917D01*
X90111457Y-47521168D01*
X91920396Y-45712230D01*
X105056605Y-45712230D01*
X108814479Y-49470106D01*
X108838133Y-49505507D01*
X108978384Y-49599219D01*
X109102063Y-49623820D01*
X109102064Y-49623820D01*
X109143820Y-49632126D01*
X109185576Y-49623820D01*
X114274174Y-49623820D01*
X114315930Y-49632126D01*
X114357686Y-49623820D01*
X114357687Y-49623820D01*
X114481366Y-49599219D01*
X114621617Y-49505507D01*
X114645275Y-49470100D01*
X116729286Y-47386091D01*
X116764687Y-47362437D01*
X116858399Y-47222186D01*
X116883000Y-47098507D01*
X116883000Y-47098506D01*
X116891306Y-47056750D01*
X116883000Y-47014994D01*
X116883000Y-44074555D01*
X116950000Y-44074555D01*
X116950000Y-44789445D01*
X117223577Y-45449919D01*
X117729081Y-45955423D01*
X118389555Y-46229000D01*
X119104445Y-46229000D01*
X119764919Y-45955423D01*
X120270423Y-45449919D01*
X120544000Y-44789445D01*
X120544000Y-44074555D01*
X120270423Y-43414081D01*
X119764919Y-42908577D01*
X119104445Y-42635000D01*
X118389555Y-42635000D01*
X117729081Y-42908577D01*
X117223577Y-43414081D01*
X116950000Y-44074555D01*
X116883000Y-44074555D01*
X116883000Y-42665756D01*
X116891306Y-42624000D01*
X116875592Y-42545000D01*
X116858399Y-42458564D01*
X116764687Y-42318313D01*
X116729283Y-42294657D01*
X115403965Y-40969340D01*
X115474000Y-40800261D01*
X115474000Y-40383739D01*
X115314604Y-39998922D01*
X115020078Y-39704396D01*
X114635261Y-39545000D01*
X114218739Y-39545000D01*
X113833922Y-39704396D01*
X113539396Y-39998922D01*
X113380000Y-40383739D01*
X113380000Y-40800261D01*
X113539396Y-41185078D01*
X113833922Y-41479604D01*
X114218739Y-41639000D01*
X114635261Y-41639000D01*
X114804340Y-41568965D01*
X116035000Y-42799626D01*
X116035000Y-44600375D01*
X115403965Y-43969340D01*
X115474000Y-43800261D01*
X115474000Y-43383739D01*
X115314604Y-42998922D01*
X115020078Y-42704396D01*
X114635261Y-42545000D01*
X114218739Y-42545000D01*
X113833922Y-42704396D01*
X113539396Y-42998922D01*
X113380000Y-43383739D01*
X113380000Y-43800261D01*
X113539396Y-44185078D01*
X113833922Y-44479604D01*
X114218739Y-44639000D01*
X114635261Y-44639000D01*
X114804340Y-44568965D01*
X115527000Y-45291626D01*
X115527001Y-46814372D01*
X115426545Y-46914829D01*
X115474000Y-46800261D01*
X115474000Y-46383739D01*
X115314604Y-45998922D01*
X115020078Y-45704396D01*
X114635261Y-45545000D01*
X114218739Y-45545000D01*
X113833922Y-45704396D01*
X113539396Y-45998922D01*
X113380000Y-46383739D01*
X113380000Y-46800261D01*
X113450035Y-46969340D01*
X112456375Y-47963000D01*
X109776627Y-47963000D01*
X106306625Y-44493000D01*
X108728375Y-44493000D01*
X110450034Y-46214661D01*
X110380000Y-46383739D01*
X110380000Y-46800261D01*
X110539396Y-47185078D01*
X110833922Y-47479604D01*
X111218739Y-47639000D01*
X111635261Y-47639000D01*
X112020078Y-47479604D01*
X112314604Y-47185078D01*
X112474000Y-46800261D01*
X112474000Y-46383739D01*
X112314604Y-45998922D01*
X112020078Y-45704396D01*
X111635261Y-45545000D01*
X111218739Y-45545000D01*
X111049661Y-45615034D01*
X109450625Y-44016000D01*
X110469362Y-44016000D01*
X110539396Y-44185078D01*
X110833922Y-44479604D01*
X111218739Y-44639000D01*
X111635261Y-44639000D01*
X112020078Y-44479604D01*
X112314604Y-44185078D01*
X112474000Y-43800261D01*
X112474000Y-43383739D01*
X112314604Y-42998922D01*
X112020078Y-42704396D01*
X111635261Y-42545000D01*
X111218739Y-42545000D01*
X110833922Y-42704396D01*
X110539396Y-42998922D01*
X110469362Y-43168000D01*
X109450625Y-43168000D01*
X111049661Y-41568966D01*
X111218739Y-41639000D01*
X111635261Y-41639000D01*
X112020078Y-41479604D01*
X112314604Y-41185078D01*
X112474000Y-40800261D01*
X112474000Y-40383739D01*
X112314604Y-39998922D01*
X112020078Y-39704396D01*
X111635261Y-39545000D01*
X111218739Y-39545000D01*
X110833922Y-39704396D01*
X110539396Y-39998922D01*
X110380000Y-40383739D01*
X110380000Y-40800261D01*
X110450034Y-40969339D01*
X108663375Y-42756000D01*
X106814625Y-42756000D01*
X110196071Y-39374555D01*
X116950000Y-39374555D01*
X116950000Y-40089445D01*
X117223577Y-40749919D01*
X117729081Y-41255423D01*
X118389555Y-41529000D01*
X119104445Y-41529000D01*
X119764919Y-41255423D01*
X120270423Y-40749919D01*
X120544000Y-40089445D01*
X120544000Y-39374555D01*
X120270423Y-38714081D01*
X119764919Y-38208577D01*
X119104445Y-37935000D01*
X118389555Y-37935000D01*
X117729081Y-38208577D01*
X117223577Y-38714081D01*
X116950000Y-39374555D01*
X110196071Y-39374555D01*
X111015720Y-38554907D01*
X111218739Y-38639000D01*
X111635261Y-38639000D01*
X112020078Y-38479604D01*
X112314604Y-38185078D01*
X112474000Y-37800261D01*
X112474000Y-37383739D01*
X112314604Y-36998922D01*
X112020078Y-36704396D01*
X111635261Y-36545000D01*
X111218739Y-36545000D01*
X110833922Y-36704396D01*
X110539396Y-36998922D01*
X110380000Y-37383739D01*
X110380000Y-37800261D01*
X110435975Y-37935398D01*
X106123375Y-42248000D01*
X90719755Y-42248000D01*
X90677999Y-42239694D01*
X90636243Y-42248000D01*
X90512564Y-42272601D01*
X90512563Y-42272602D01*
X90512562Y-42272602D01*
X90491544Y-42286646D01*
X90372313Y-42366313D01*
X90348657Y-42401717D01*
X86978718Y-45771657D01*
X86943314Y-45795313D01*
X86849602Y-45935564D01*
X86816694Y-46101000D01*
X86825001Y-46142761D01*
X86825000Y-51513374D01*
X84839351Y-53499023D01*
X84820362Y-53119632D01*
X84661397Y-52735857D01*
X84419213Y-52666392D01*
X83618605Y-53467000D01*
X83632748Y-53481143D01*
X83453143Y-53660748D01*
X83439000Y-53646605D01*
X83424858Y-53660748D01*
X83245253Y-53481143D01*
X83259395Y-53467000D01*
X82458787Y-52666392D01*
X82216603Y-52735857D01*
X82029856Y-53259302D01*
X82057638Y-53814368D01*
X82216603Y-54198143D01*
X82458785Y-54267607D01*
X82343774Y-54382618D01*
X82401156Y-54440000D01*
X81317270Y-54440000D01*
X81498875Y-54364777D01*
X81796777Y-54066875D01*
X81958000Y-53677648D01*
X81958000Y-53256352D01*
X81796777Y-52867125D01*
X81498875Y-52569223D01*
X81299857Y-52486787D01*
X82638392Y-52486787D01*
X83439000Y-53287395D01*
X84239608Y-52486787D01*
X84170143Y-52244603D01*
X83646698Y-52057856D01*
X83091632Y-52085638D01*
X82707857Y-52244603D01*
X82638392Y-52486787D01*
X81299857Y-52486787D01*
X81109648Y-52408000D01*
X80688352Y-52408000D01*
X80299125Y-52569223D01*
X80001223Y-52867125D01*
X79840000Y-53256352D01*
X79840000Y-53677648D01*
X80001223Y-54066875D01*
X80299125Y-54364777D01*
X80480730Y-54440000D01*
X78777270Y-54440000D01*
X78958875Y-54364777D01*
X79256777Y-54066875D01*
X79418000Y-53677648D01*
X79418000Y-53256352D01*
X79256777Y-52867125D01*
X78958875Y-52569223D01*
X78569648Y-52408000D01*
X78148352Y-52408000D01*
X77759125Y-52569223D01*
X77461223Y-52867125D01*
X77300000Y-53256352D01*
X77300000Y-53677648D01*
X77461223Y-54066875D01*
X77759125Y-54364777D01*
X77940730Y-54440000D01*
X76237270Y-54440000D01*
X76418875Y-54364777D01*
X76716777Y-54066875D01*
X76878000Y-53677648D01*
X76878000Y-53256352D01*
X76716777Y-52867125D01*
X76418875Y-52569223D01*
X76029648Y-52408000D01*
X75608352Y-52408000D01*
X75219125Y-52569223D01*
X74921223Y-52867125D01*
X74760000Y-53256352D01*
X74760000Y-53677648D01*
X74921223Y-54066875D01*
X75219125Y-54364777D01*
X75400730Y-54440000D01*
X75352755Y-54440000D01*
X75310999Y-54431694D01*
X75269243Y-54440000D01*
X75145564Y-54464601D01*
X75005313Y-54558313D01*
X74981657Y-54593717D01*
X68204525Y-61370850D01*
X68028648Y-61298000D01*
X67607352Y-61298000D01*
X67218125Y-61459223D01*
X66921200Y-61756148D01*
X66921200Y-60352584D01*
X72841676Y-54432108D01*
X73068352Y-54526000D01*
X73489648Y-54526000D01*
X73878875Y-54364777D01*
X74176777Y-54066875D01*
X74338000Y-53677648D01*
X74338000Y-53256352D01*
X74176777Y-52867125D01*
X73878875Y-52569223D01*
X73489648Y-52408000D01*
X73068352Y-52408000D01*
X72679125Y-52569223D01*
X72381223Y-52867125D01*
X72220000Y-53256352D01*
X72220000Y-53677648D01*
X72313892Y-53904324D01*
X66310099Y-59908117D01*
X66278938Y-59928938D01*
X66196454Y-60052386D01*
X66190713Y-60081250D01*
X66167489Y-60198000D01*
X66174800Y-60234753D01*
X66174800Y-61756148D01*
X65877875Y-61459223D01*
X65488648Y-61298000D01*
X65067352Y-61298000D01*
X64678125Y-61459223D01*
X64380223Y-61757125D01*
X64219000Y-62146352D01*
X64219000Y-62567648D01*
X64291850Y-62743524D01*
X63416000Y-63619375D01*
X63416000Y-52705000D01*
X64594182Y-52705000D01*
X64594182Y-54229000D01*
X64617233Y-54344883D01*
X64682875Y-54443125D01*
X64781117Y-54508767D01*
X64897000Y-54531818D01*
X66421000Y-54531818D01*
X66536883Y-54508767D01*
X66635125Y-54443125D01*
X66700767Y-54344883D01*
X66723818Y-54229000D01*
X66723818Y-53256352D01*
X67140000Y-53256352D01*
X67140000Y-53677648D01*
X67301223Y-54066875D01*
X67599125Y-54364777D01*
X67988352Y-54526000D01*
X68409648Y-54526000D01*
X68798875Y-54364777D01*
X69096777Y-54066875D01*
X69258000Y-53677648D01*
X69258000Y-53256352D01*
X69680000Y-53256352D01*
X69680000Y-53677648D01*
X69841223Y-54066875D01*
X70139125Y-54364777D01*
X70528352Y-54526000D01*
X70949648Y-54526000D01*
X71338875Y-54364777D01*
X71636777Y-54066875D01*
X71798000Y-53677648D01*
X71798000Y-53256352D01*
X71636777Y-52867125D01*
X71338875Y-52569223D01*
X70949648Y-52408000D01*
X70528352Y-52408000D01*
X70139125Y-52569223D01*
X69841223Y-52867125D01*
X69680000Y-53256352D01*
X69258000Y-53256352D01*
X69096777Y-52867125D01*
X68798875Y-52569223D01*
X68409648Y-52408000D01*
X67988352Y-52408000D01*
X67599125Y-52569223D01*
X67301223Y-52867125D01*
X67140000Y-53256352D01*
X66723818Y-53256352D01*
X66723818Y-52705000D01*
X66700767Y-52589117D01*
X66635125Y-52490875D01*
X66536883Y-52425233D01*
X66421000Y-52402182D01*
X64897000Y-52402182D01*
X64781117Y-52425233D01*
X64682875Y-52490875D01*
X64617233Y-52589117D01*
X64594182Y-52705000D01*
X63416000Y-52705000D01*
X63416000Y-47419625D01*
X65272476Y-45563150D01*
X65448352Y-45636000D01*
X65869648Y-45636000D01*
X66258875Y-45474777D01*
X66556777Y-45176875D01*
X66718000Y-44787648D01*
X66718000Y-44366352D01*
X67140000Y-44366352D01*
X67140000Y-44787648D01*
X67301223Y-45176875D01*
X67599125Y-45474777D01*
X67988352Y-45636000D01*
X68409648Y-45636000D01*
X68798875Y-45474777D01*
X69096777Y-45176875D01*
X69258000Y-44787648D01*
X69258000Y-44366352D01*
X69185150Y-44190475D01*
X84503627Y-28872000D01*
X85844374Y-28872000D01*
X71125525Y-43590850D01*
X70949648Y-43518000D01*
X70528352Y-43518000D01*
X70139125Y-43679223D01*
X69841223Y-43977125D01*
X69680000Y-44366352D01*
X69680000Y-44787648D01*
X69841223Y-45176875D01*
X70139125Y-45474777D01*
X70528352Y-45636000D01*
X70949648Y-45636000D01*
X71338875Y-45474777D01*
X71636777Y-45176875D01*
X71798000Y-44787648D01*
X71798000Y-44366352D01*
X71725150Y-44190475D01*
X86637216Y-29278410D01*
X87977964Y-29278410D01*
X73665525Y-43590850D01*
X73489648Y-43518000D01*
X73068352Y-43518000D01*
X72679125Y-43679223D01*
X72381223Y-43977125D01*
X72220000Y-44366352D01*
X72220000Y-44787648D01*
X72381223Y-45176875D01*
X72679125Y-45474777D01*
X73068352Y-45636000D01*
X73489648Y-45636000D01*
X73878875Y-45474777D01*
X74176777Y-45176875D01*
X74338000Y-44787648D01*
X74338000Y-44366352D01*
X74265150Y-44190475D01*
X88770806Y-29684820D01*
X90111554Y-29684820D01*
X76205525Y-43590850D01*
X76029648Y-43518000D01*
X75608352Y-43518000D01*
X75219125Y-43679223D01*
X74921223Y-43977125D01*
X74760000Y-44366352D01*
X74760000Y-44787648D01*
X74921223Y-45176875D01*
X75219125Y-45474777D01*
X75608352Y-45636000D01*
X76029648Y-45636000D01*
X76418875Y-45474777D01*
X76716777Y-45176875D01*
X76878000Y-44787648D01*
X76878000Y-44366352D01*
X76805150Y-44190475D01*
X90904396Y-30091230D01*
X92245144Y-30091230D01*
X78745525Y-43590850D01*
X78569648Y-43518000D01*
X78148352Y-43518000D01*
X77759125Y-43679223D01*
X77461223Y-43977125D01*
X77300000Y-44366352D01*
X77300000Y-44787648D01*
X77461223Y-45176875D01*
X77759125Y-45474777D01*
X78148352Y-45636000D01*
X78569648Y-45636000D01*
X78958875Y-45474777D01*
X79256777Y-45176875D01*
X79418000Y-44787648D01*
X79418000Y-44366352D01*
X79345150Y-44190475D01*
X93012626Y-30523000D01*
X94353373Y-30523000D01*
X81285525Y-43590850D01*
X81109648Y-43518000D01*
X80688352Y-43518000D01*
X80299125Y-43679223D01*
X80001223Y-43977125D01*
X79840000Y-44366352D01*
X79840000Y-44787648D01*
X80001223Y-45176875D01*
X80299125Y-45474777D01*
X80688352Y-45636000D01*
X81109648Y-45636000D01*
X81498875Y-45474777D01*
X81796777Y-45176875D01*
X81958000Y-44787648D01*
X81958000Y-44366352D01*
X81885150Y-44190475D01*
X95146206Y-30929421D01*
X96486953Y-30929421D01*
X83825525Y-43590850D01*
X83649648Y-43518000D01*
X83228352Y-43518000D01*
X82839125Y-43679223D01*
X82541223Y-43977125D01*
X82380000Y-44366352D01*
X82380000Y-44787648D01*
X82541223Y-45176875D01*
X82839125Y-45474777D01*
X83228352Y-45636000D01*
X83649648Y-45636000D01*
X84038875Y-45474777D01*
X84336777Y-45176875D01*
X84498000Y-44787648D01*
X84498000Y-44366352D01*
X84425150Y-44190475D01*
X91828623Y-36787002D01*
X99331000Y-36787002D01*
X99331000Y-38396998D01*
X99947119Y-39884441D01*
X101085559Y-41022881D01*
X102573002Y-41639000D01*
X104182998Y-41639000D01*
X105670441Y-41022881D01*
X106808881Y-39884441D01*
X107425000Y-38396998D01*
X107425000Y-36787002D01*
X106808881Y-35299559D01*
X105670441Y-34161119D01*
X104182998Y-33545000D01*
X102573002Y-33545000D01*
X101085559Y-34161119D01*
X99947119Y-35299559D01*
X99331000Y-36787002D01*
X91828623Y-36787002D01*
X97279795Y-31335831D01*
X114909159Y-31335829D01*
X114950920Y-31344136D01*
X115116356Y-31311228D01*
X115256607Y-31217516D01*
X115280263Y-31182112D01*
X116373693Y-30088683D01*
X116409097Y-30065027D01*
X116502809Y-29924776D01*
X116527410Y-29801097D01*
X116527410Y-29801096D01*
X116535716Y-29759340D01*
X116527410Y-29717584D01*
X116527410Y-26040555D01*
X116950000Y-26040555D01*
X116950000Y-26755445D01*
X117223577Y-27415919D01*
X117729081Y-27921423D01*
X118389555Y-28195000D01*
X119104445Y-28195000D01*
X119764919Y-27921423D01*
X120270423Y-27415919D01*
X120544000Y-26755445D01*
X120544000Y-26040555D01*
X120270423Y-25380081D01*
X119764919Y-24874577D01*
X119104445Y-24601000D01*
X118389555Y-24601000D01*
X117729081Y-24874577D01*
X117223577Y-25380081D01*
X116950000Y-26040555D01*
X116527410Y-26040555D01*
X116527410Y-24276165D01*
X116535716Y-24234409D01*
X116526521Y-24188184D01*
X116502809Y-24068974D01*
X116409097Y-23928723D01*
X116373693Y-23905067D01*
X115506343Y-23037718D01*
X115506339Y-23037712D01*
X115403966Y-22935339D01*
X115474000Y-22766261D01*
X115474000Y-22349739D01*
X115314604Y-21964922D01*
X115020078Y-21670396D01*
X114635261Y-21511000D01*
X114218739Y-21511000D01*
X113833922Y-21670396D01*
X113539396Y-21964922D01*
X113380000Y-22349739D01*
X113380000Y-22766261D01*
X113539396Y-23151078D01*
X113833922Y-23445604D01*
X114218739Y-23605000D01*
X114635261Y-23605000D01*
X114804339Y-23534966D01*
X114906712Y-23637339D01*
X114906718Y-23637343D01*
X115679411Y-24410037D01*
X115679411Y-26210785D01*
X115403965Y-25935340D01*
X115474000Y-25766261D01*
X115474000Y-25349739D01*
X115314604Y-24964922D01*
X115020078Y-24670396D01*
X114635261Y-24511000D01*
X114218739Y-24511000D01*
X113833922Y-24670396D01*
X113539396Y-24964922D01*
X113380000Y-25349739D01*
X113380000Y-25766261D01*
X113539396Y-26151078D01*
X113833922Y-26445604D01*
X114218739Y-26605000D01*
X114635261Y-26605000D01*
X114804340Y-26534965D01*
X115273001Y-27003627D01*
X115273001Y-27923319D01*
X115020078Y-27670396D01*
X114635261Y-27511000D01*
X114218739Y-27511000D01*
X113833922Y-27670396D01*
X113539396Y-27964922D01*
X113380000Y-28349739D01*
X113380000Y-28766261D01*
X113450035Y-28935340D01*
X113406717Y-28978658D01*
X113406714Y-28978660D01*
X112710375Y-29675000D01*
X110909626Y-29675000D01*
X111006340Y-29578286D01*
X111006342Y-29578283D01*
X111049660Y-29534965D01*
X111218739Y-29605000D01*
X111635261Y-29605000D01*
X112020078Y-29445604D01*
X112314604Y-29151078D01*
X112474000Y-28766261D01*
X112474000Y-28349739D01*
X112314604Y-27964922D01*
X112020078Y-27670396D01*
X111635261Y-27511000D01*
X111218739Y-27511000D01*
X110833922Y-27670396D01*
X110539396Y-27964922D01*
X110380000Y-28349739D01*
X110380000Y-28766261D01*
X110450035Y-28935340D01*
X110406717Y-28978658D01*
X110406714Y-28978660D01*
X110142145Y-29243230D01*
X108341395Y-29243230D01*
X111006341Y-26578286D01*
X111006345Y-26578280D01*
X111049660Y-26534965D01*
X111218739Y-26605000D01*
X111635261Y-26605000D01*
X112020078Y-26445604D01*
X112314604Y-26151078D01*
X112474000Y-25766261D01*
X112474000Y-25349739D01*
X112314604Y-24964922D01*
X112020078Y-24670396D01*
X111635261Y-24511000D01*
X111218739Y-24511000D01*
X110833922Y-24670396D01*
X110539396Y-24964922D01*
X110380000Y-25349739D01*
X110380000Y-25766261D01*
X110450035Y-25935340D01*
X110406720Y-25978655D01*
X110406714Y-25978659D01*
X107548555Y-28836820D01*
X105747805Y-28836820D01*
X111006341Y-23578286D01*
X111006345Y-23578280D01*
X111049660Y-23534965D01*
X111218739Y-23605000D01*
X111635261Y-23605000D01*
X112020078Y-23445604D01*
X112314604Y-23151078D01*
X112474000Y-22766261D01*
X112474000Y-22349739D01*
X112314604Y-21964922D01*
X112020078Y-21670396D01*
X111635261Y-21511000D01*
X111218739Y-21511000D01*
X110833922Y-21670396D01*
X110539396Y-21964922D01*
X110380000Y-22349739D01*
X110380000Y-22766261D01*
X110450035Y-22935340D01*
X110406720Y-22978655D01*
X110406714Y-22978659D01*
X104954965Y-28430410D01*
X104503215Y-28430410D01*
X105426283Y-27507343D01*
X105461687Y-27483687D01*
X105555399Y-27343436D01*
X105580000Y-27219757D01*
X105580000Y-27219756D01*
X105588306Y-27178001D01*
X105580000Y-27136245D01*
X105580000Y-23289625D01*
X107529070Y-21340555D01*
X116950000Y-21340555D01*
X116950000Y-22055445D01*
X117223577Y-22715919D01*
X117729081Y-23221423D01*
X118389555Y-23495000D01*
X119104445Y-23495000D01*
X119764919Y-23221423D01*
X120270423Y-22715919D01*
X120544000Y-22055445D01*
X120544000Y-21340555D01*
X120270423Y-20680081D01*
X119764919Y-20174577D01*
X119104445Y-19901000D01*
X118389555Y-19901000D01*
X117729081Y-20174577D01*
X117223577Y-20680081D01*
X116950000Y-21340555D01*
X107529070Y-21340555D01*
X108887626Y-19982000D01*
X110469362Y-19982000D01*
X110539396Y-20151078D01*
X110833922Y-20445604D01*
X111218739Y-20605000D01*
X111635261Y-20605000D01*
X112020078Y-20445604D01*
X112314604Y-20151078D01*
X112474000Y-19766261D01*
X112474000Y-19349739D01*
X112314604Y-18964922D01*
X112020078Y-18670396D01*
X111635261Y-18511000D01*
X111218739Y-18511000D01*
X110833922Y-18670396D01*
X110539396Y-18964922D01*
X110469362Y-19134000D01*
X108753755Y-19134000D01*
X108711999Y-19125694D01*
X108670243Y-19134000D01*
X108546564Y-19158601D01*
X108546563Y-19158602D01*
X108546562Y-19158602D01*
X108525544Y-19172646D01*
X108406313Y-19252313D01*
X108382657Y-19287717D01*
X104885718Y-22784657D01*
X104850314Y-22808313D01*
X104756602Y-22948564D01*
X104723694Y-23114000D01*
X104732001Y-23155761D01*
X104732000Y-27002374D01*
X103710375Y-28024000D01*
X84369760Y-28024000D01*
X84328000Y-28015693D01*
X84231849Y-28034820D01*
X84162564Y-28048601D01*
X84022313Y-28142313D01*
X83998659Y-28177714D01*
X68585525Y-43590850D01*
X68409648Y-43518000D01*
X67988352Y-43518000D01*
X67599125Y-43679223D01*
X67301223Y-43977125D01*
X67140000Y-44366352D01*
X66718000Y-44366352D01*
X66556777Y-43977125D01*
X66258875Y-43679223D01*
X65869648Y-43518000D01*
X65448352Y-43518000D01*
X65059125Y-43679223D01*
X64761223Y-43977125D01*
X64600000Y-44366352D01*
X64600000Y-44787648D01*
X64672850Y-44963524D01*
X62721718Y-46914657D01*
X62686314Y-46938313D01*
X62607178Y-47056750D01*
X62592602Y-47078564D01*
X62559694Y-47244000D01*
X62397000Y-47244000D01*
X62397000Y-32535555D01*
X67797000Y-32535555D01*
X67797000Y-33250445D01*
X68070577Y-33910919D01*
X68576081Y-34416423D01*
X69236555Y-34690000D01*
X69951445Y-34690000D01*
X70611919Y-34416423D01*
X71117423Y-33910919D01*
X71391000Y-33250445D01*
X71391000Y-32535555D01*
X71331952Y-32393000D01*
X72861182Y-32393000D01*
X72861182Y-33393000D01*
X72903263Y-33604554D01*
X73023099Y-33783901D01*
X73202446Y-33903737D01*
X73414000Y-33945818D01*
X74414000Y-33945818D01*
X74625554Y-33903737D01*
X74804901Y-33783901D01*
X74924737Y-33604554D01*
X74966818Y-33393000D01*
X74966818Y-32684739D01*
X75867000Y-32684739D01*
X75867000Y-33101261D01*
X76026396Y-33486078D01*
X76320922Y-33780604D01*
X76705739Y-33940000D01*
X77122261Y-33940000D01*
X77507078Y-33780604D01*
X77801604Y-33486078D01*
X77961000Y-33101261D01*
X77961000Y-32684739D01*
X77801604Y-32299922D01*
X77507078Y-32005396D01*
X77122261Y-31846000D01*
X76705739Y-31846000D01*
X76320922Y-32005396D01*
X76026396Y-32299922D01*
X75867000Y-32684739D01*
X74966818Y-32684739D01*
X74966818Y-32393000D01*
X74924737Y-32181446D01*
X74804901Y-32002099D01*
X74625554Y-31882263D01*
X74414000Y-31840182D01*
X73414000Y-31840182D01*
X73202446Y-31882263D01*
X73023099Y-32002099D01*
X72903263Y-32181446D01*
X72861182Y-32393000D01*
X71331952Y-32393000D01*
X71117423Y-31875081D01*
X70611919Y-31369577D01*
X69951445Y-31096000D01*
X69236555Y-31096000D01*
X68576081Y-31369577D01*
X68070577Y-31875081D01*
X67797000Y-32535555D01*
X62397000Y-32535555D01*
X62397000Y-26162000D01*
X93318529Y-26162000D01*
X93407550Y-26609537D01*
X93661059Y-26988941D01*
X94040463Y-27242450D01*
X94375031Y-27309000D01*
X94600969Y-27309000D01*
X94935537Y-27242450D01*
X95314941Y-26988941D01*
X95568450Y-26609537D01*
X95657471Y-26162000D01*
X95858529Y-26162000D01*
X95947550Y-26609537D01*
X96201059Y-26988941D01*
X96580463Y-27242450D01*
X96915031Y-27309000D01*
X97140969Y-27309000D01*
X97475537Y-27242450D01*
X97854941Y-26988941D01*
X98108450Y-26609537D01*
X98197471Y-26162000D01*
X98398529Y-26162000D01*
X98487550Y-26609537D01*
X98741059Y-26988941D01*
X99120463Y-27242450D01*
X99455031Y-27309000D01*
X99680969Y-27309000D01*
X100015537Y-27242450D01*
X100394941Y-26988941D01*
X100623000Y-26647626D01*
X100623000Y-27138309D01*
X100719673Y-27371698D01*
X100898301Y-27550327D01*
X101131690Y-27647000D01*
X101822250Y-27647000D01*
X101981000Y-27488250D01*
X101981000Y-26289000D01*
X102235000Y-26289000D01*
X102235000Y-27488250D01*
X102393750Y-27647000D01*
X103084310Y-27647000D01*
X103317699Y-27550327D01*
X103496327Y-27371698D01*
X103593000Y-27138309D01*
X103593000Y-26447750D01*
X103434250Y-26289000D01*
X102235000Y-26289000D01*
X101981000Y-26289000D01*
X101961000Y-26289000D01*
X101961000Y-26035000D01*
X101981000Y-26035000D01*
X101981000Y-24835750D01*
X102235000Y-24835750D01*
X102235000Y-26035000D01*
X103434250Y-26035000D01*
X103593000Y-25876250D01*
X103593000Y-25185691D01*
X103496327Y-24952302D01*
X103317699Y-24773673D01*
X103084310Y-24677000D01*
X102393750Y-24677000D01*
X102235000Y-24835750D01*
X101981000Y-24835750D01*
X101822250Y-24677000D01*
X101131690Y-24677000D01*
X100898301Y-24773673D01*
X100719673Y-24952302D01*
X100623000Y-25185691D01*
X100623000Y-25676374D01*
X100394941Y-25335059D01*
X100015537Y-25081550D01*
X99680969Y-25015000D01*
X99455031Y-25015000D01*
X99120463Y-25081550D01*
X98741059Y-25335059D01*
X98487550Y-25714463D01*
X98398529Y-26162000D01*
X98197471Y-26162000D01*
X98108450Y-25714463D01*
X97854941Y-25335059D01*
X97475537Y-25081550D01*
X97140969Y-25015000D01*
X96915031Y-25015000D01*
X96580463Y-25081550D01*
X96201059Y-25335059D01*
X95947550Y-25714463D01*
X95858529Y-26162000D01*
X95657471Y-26162000D01*
X95568450Y-25714463D01*
X95314941Y-25335059D01*
X94935537Y-25081550D01*
X94600969Y-25015000D01*
X94375031Y-25015000D01*
X94040463Y-25081550D01*
X93661059Y-25335059D01*
X93407550Y-25714463D01*
X93318529Y-26162000D01*
X62397000Y-26162000D01*
X62397000Y-22653555D01*
X67797000Y-22653555D01*
X67797000Y-23368445D01*
X68070577Y-24028919D01*
X68576081Y-24534423D01*
X69236555Y-24808000D01*
X69951445Y-24808000D01*
X70611919Y-24534423D01*
X71117423Y-24028919D01*
X71124845Y-24011000D01*
X72861182Y-24011000D01*
X72861182Y-25011000D01*
X72903263Y-25222554D01*
X73023099Y-25401901D01*
X73202446Y-25521737D01*
X73414000Y-25563818D01*
X74414000Y-25563818D01*
X74625554Y-25521737D01*
X74804901Y-25401901D01*
X74924737Y-25222554D01*
X74966818Y-25011000D01*
X74966818Y-24302739D01*
X75867000Y-24302739D01*
X75867000Y-24719261D01*
X76026396Y-25104078D01*
X76320922Y-25398604D01*
X76705739Y-25558000D01*
X77122261Y-25558000D01*
X77507078Y-25398604D01*
X77801604Y-25104078D01*
X77961000Y-24719261D01*
X77961000Y-24302739D01*
X77801604Y-23917922D01*
X77507078Y-23623396D01*
X77122261Y-23464000D01*
X76705739Y-23464000D01*
X76320922Y-23623396D01*
X76026396Y-23917922D01*
X75867000Y-24302739D01*
X74966818Y-24302739D01*
X74966818Y-24011000D01*
X74924737Y-23799446D01*
X74804901Y-23620099D01*
X74625554Y-23500263D01*
X74414000Y-23458182D01*
X73414000Y-23458182D01*
X73202446Y-23500263D01*
X73023099Y-23620099D01*
X72903263Y-23799446D01*
X72861182Y-24011000D01*
X71124845Y-24011000D01*
X71391000Y-23368445D01*
X71391000Y-22653555D01*
X71117423Y-21993081D01*
X70611919Y-21487577D01*
X70165681Y-21302739D01*
X72867000Y-21302739D01*
X72867000Y-21719261D01*
X73026396Y-22104078D01*
X73320922Y-22398604D01*
X73705739Y-22558000D01*
X74122261Y-22558000D01*
X74507078Y-22398604D01*
X74801604Y-22104078D01*
X74961000Y-21719261D01*
X74961000Y-21302739D01*
X75867000Y-21302739D01*
X75867000Y-21719261D01*
X76026396Y-22104078D01*
X76320922Y-22398604D01*
X76705739Y-22558000D01*
X77122261Y-22558000D01*
X77507078Y-22398604D01*
X77801604Y-22104078D01*
X77961000Y-21719261D01*
X77961000Y-21302739D01*
X77801604Y-20917922D01*
X77507078Y-20623396D01*
X77122261Y-20464000D01*
X76705739Y-20464000D01*
X76320922Y-20623396D01*
X76026396Y-20917922D01*
X75867000Y-21302739D01*
X74961000Y-21302739D01*
X74801604Y-20917922D01*
X74507078Y-20623396D01*
X74122261Y-20464000D01*
X73705739Y-20464000D01*
X73320922Y-20623396D01*
X73026396Y-20917922D01*
X72867000Y-21302739D01*
X70165681Y-21302739D01*
X69951445Y-21214000D01*
X69236555Y-21214000D01*
X68576081Y-21487577D01*
X68070577Y-21993081D01*
X67797000Y-22653555D01*
X62397000Y-22653555D01*
X62397000Y-15397000D01*
X124079000Y-15397000D01*
X124079000Y-98603000D01*
X124079000Y-98603000D01*
G37*
X124079000Y-98603000D02*
X62397000Y-98603000D01*
X62397000Y-47244000D01*
X62559694Y-47244000D01*
X62568001Y-47285761D01*
X62568001Y-64601241D01*
X62559694Y-64643000D01*
X62568001Y-64684759D01*
X62568000Y-78686206D01*
X62568000Y-91036244D01*
X62559694Y-91078000D01*
X62568000Y-91119756D01*
X62592601Y-91243435D01*
X62686313Y-91383687D01*
X62721720Y-91407345D01*
X65158116Y-93843742D01*
X65080489Y-94234000D01*
X65161748Y-94642519D01*
X65393156Y-94988844D01*
X65739481Y-95220252D01*
X66044884Y-95281000D01*
X67051116Y-95281000D01*
X67356519Y-95220252D01*
X67702844Y-94988844D01*
X67934252Y-94642519D01*
X68015511Y-94234000D01*
X67934252Y-93825481D01*
X67754192Y-93556002D01*
X78376000Y-93556002D01*
X78376000Y-95165998D01*
X78992119Y-96653441D01*
X80130559Y-97791881D01*
X81618002Y-98408000D01*
X83227998Y-98408000D01*
X84715441Y-97791881D01*
X85853881Y-96653441D01*
X86470000Y-95165998D01*
X86470000Y-93556002D01*
X85853881Y-92068559D01*
X84715441Y-90930119D01*
X83227998Y-90314000D01*
X81618002Y-90314000D01*
X80130559Y-90930119D01*
X78992119Y-92068559D01*
X78376000Y-93556002D01*
X67754192Y-93556002D01*
X67702844Y-93479156D01*
X67356519Y-93247748D01*
X67051116Y-93187000D01*
X66044884Y-93187000D01*
X65757742Y-93244116D01*
X65174959Y-92661334D01*
X65500651Y-92924972D01*
X66021000Y-93079000D01*
X66421000Y-93079000D01*
X66421000Y-91821000D01*
X66675000Y-91821000D01*
X66675000Y-93079000D01*
X67075000Y-93079000D01*
X67595349Y-92924972D01*
X68017145Y-92583540D01*
X68276173Y-92106684D01*
X68290318Y-92035185D01*
X68167656Y-91821000D01*
X66675000Y-91821000D01*
X66421000Y-91821000D01*
X64928344Y-91821000D01*
X64805682Y-92035185D01*
X64819827Y-92106684D01*
X65057081Y-92543456D01*
X63866440Y-91352815D01*
X64805682Y-91352815D01*
X64928344Y-91567000D01*
X66421000Y-91567000D01*
X66421000Y-90309000D01*
X66675000Y-90309000D01*
X66675000Y-91567000D01*
X68167656Y-91567000D01*
X68290318Y-91352815D01*
X68276173Y-91281316D01*
X68017145Y-90804460D01*
X67595349Y-90463028D01*
X67075000Y-90309000D01*
X66675000Y-90309000D01*
X66421000Y-90309000D01*
X66021000Y-90309000D01*
X65500651Y-90463028D01*
X65078855Y-90804460D01*
X64819827Y-91281316D01*
X64805682Y-91352815D01*
X63866440Y-91352815D01*
X63416000Y-90902375D01*
X63416000Y-88404000D01*
X65095182Y-88404000D01*
X65095182Y-89904000D01*
X65118233Y-90019883D01*
X65183875Y-90118125D01*
X65282117Y-90183767D01*
X65398000Y-90206818D01*
X67698000Y-90206818D01*
X67813883Y-90183767D01*
X67912125Y-90118125D01*
X67977767Y-90019883D01*
X68000818Y-89904000D01*
X68000818Y-88404000D01*
X67977767Y-88288117D01*
X67912125Y-88189875D01*
X67813883Y-88124233D01*
X67698000Y-88101182D01*
X65398000Y-88101182D01*
X65282117Y-88124233D01*
X65183875Y-88189875D01*
X65118233Y-88288117D01*
X65095182Y-88404000D01*
X63416000Y-88404000D01*
X63416000Y-84147259D01*
X72339018Y-84147259D01*
X72377991Y-84302277D01*
X72717225Y-84899170D01*
X73259058Y-85320808D01*
X73921000Y-85503000D01*
X75001000Y-85503000D01*
X75001000Y-83875000D01*
X75255000Y-83875000D01*
X75255000Y-85503000D01*
X76335000Y-85503000D01*
X76996942Y-85320808D01*
X77538775Y-84899170D01*
X77878009Y-84302277D01*
X77916982Y-84147259D01*
X77799190Y-83875000D01*
X75255000Y-83875000D01*
X75001000Y-83875000D01*
X72456810Y-83875000D01*
X72339018Y-84147259D01*
X63416000Y-84147259D01*
X63416000Y-83348741D01*
X72339018Y-83348741D01*
X72456810Y-83621000D01*
X75001000Y-83621000D01*
X75001000Y-81993000D01*
X75255000Y-81993000D01*
X75255000Y-83621000D01*
X77799190Y-83621000D01*
X77916982Y-83348741D01*
X77878009Y-83193723D01*
X77538775Y-82596830D01*
X76996942Y-82175192D01*
X76335000Y-81993000D01*
X75255000Y-81993000D01*
X75001000Y-81993000D01*
X73921000Y-81993000D01*
X73259058Y-82175192D01*
X72717225Y-82596830D01*
X72377991Y-83193723D01*
X72339018Y-83348741D01*
X63416000Y-83348741D01*
X63416000Y-79375000D01*
X70373000Y-79375000D01*
X70373000Y-80705000D01*
X70555192Y-81366942D01*
X70976830Y-81908775D01*
X71573723Y-82248009D01*
X71728741Y-82286982D01*
X72001000Y-82169190D01*
X72001000Y-79375000D01*
X72255000Y-79375000D01*
X72255000Y-82169190D01*
X72527259Y-82286982D01*
X72682277Y-82248009D01*
X73279170Y-81908775D01*
X73700808Y-81366942D01*
X73883000Y-80705000D01*
X73883000Y-79375000D01*
X72255000Y-79375000D01*
X72001000Y-79375000D01*
X70373000Y-79375000D01*
X63416000Y-79375000D01*
X63416000Y-77791000D01*
X70373000Y-77791000D01*
X70373000Y-79121000D01*
X72001000Y-79121000D01*
X72001000Y-76326810D01*
X72255000Y-76326810D01*
X72255000Y-79121000D01*
X73883000Y-79121000D01*
X73883000Y-77791000D01*
X73879544Y-77778442D01*
X76711000Y-77778442D01*
X76711001Y-80717559D01*
X76793217Y-81130886D01*
X77106401Y-81599600D01*
X77575115Y-81912784D01*
X78128000Y-82022760D01*
X78680886Y-81912784D01*
X78682485Y-81911715D01*
X91610015Y-94839247D01*
X91640752Y-94885248D01*
X91686753Y-94915985D01*
X91686755Y-94915987D01*
X91823010Y-95007030D01*
X91859206Y-95014230D01*
X91983735Y-95039000D01*
X91983738Y-95039000D01*
X92038000Y-95049793D01*
X92092261Y-95039000D01*
X116023740Y-95039000D01*
X116078000Y-95049793D01*
X116132260Y-95039000D01*
X116132265Y-95039000D01*
X116292989Y-95007030D01*
X116475248Y-94885248D01*
X116505989Y-94839241D01*
X123033244Y-88311987D01*
X123079248Y-88281248D01*
X123201030Y-88098989D01*
X123233000Y-87938265D01*
X123233000Y-87938261D01*
X123243793Y-87884001D01*
X123233000Y-87829741D01*
X123233000Y-37646259D01*
X123243793Y-37591999D01*
X123233000Y-37537739D01*
X123233000Y-19612261D01*
X123243793Y-19558000D01*
X123233000Y-19503736D01*
X123233000Y-19503735D01*
X123201030Y-19343011D01*
X123201030Y-19343010D01*
X123109987Y-19206755D01*
X123109985Y-19206753D01*
X123079248Y-19160752D01*
X123033247Y-19130015D01*
X121331989Y-17428759D01*
X121301248Y-17382752D01*
X121118989Y-17260970D01*
X120958265Y-17229000D01*
X120958260Y-17229000D01*
X120904000Y-17218207D01*
X120849740Y-17229000D01*
X116259261Y-17229000D01*
X116205000Y-17218207D01*
X116150738Y-17229000D01*
X116150735Y-17229000D01*
X116026206Y-17253770D01*
X115990010Y-17260970D01*
X115853755Y-17352013D01*
X115853753Y-17352015D01*
X115807752Y-17382752D01*
X115777015Y-17428753D01*
X114700587Y-18505182D01*
X113927000Y-18505182D01*
X113715446Y-18547263D01*
X113536099Y-18667099D01*
X113416263Y-18846446D01*
X113374182Y-19058000D01*
X113374182Y-20058000D01*
X113416263Y-20269554D01*
X113536099Y-20448901D01*
X113715446Y-20568737D01*
X113927000Y-20610818D01*
X114927000Y-20610818D01*
X115138554Y-20568737D01*
X115317901Y-20448901D01*
X115437737Y-20269554D01*
X115479818Y-20058000D01*
X115479818Y-19284413D01*
X116433232Y-18331000D01*
X120675770Y-18331000D01*
X122131000Y-19786232D01*
X122131001Y-36261771D01*
X121839989Y-35970759D01*
X121809248Y-35924752D01*
X121626989Y-35802970D01*
X121466265Y-35771000D01*
X121466260Y-35771000D01*
X121412000Y-35760207D01*
X121357740Y-35771000D01*
X115751259Y-35771000D01*
X115696999Y-35760207D01*
X115642739Y-35771000D01*
X115642735Y-35771000D01*
X115482011Y-35802970D01*
X115299752Y-35924752D01*
X115269013Y-35970756D01*
X114700587Y-36539182D01*
X113927000Y-36539182D01*
X113715446Y-36581263D01*
X113536099Y-36701099D01*
X113416263Y-36880446D01*
X113374182Y-37092000D01*
X113374182Y-38092000D01*
X113416263Y-38303554D01*
X113536099Y-38482901D01*
X113715446Y-38602737D01*
X113927000Y-38644818D01*
X114927000Y-38644818D01*
X115138554Y-38602737D01*
X115317901Y-38482901D01*
X115437737Y-38303554D01*
X115479818Y-38092000D01*
X115479818Y-37318413D01*
X115925231Y-36873000D01*
X121183770Y-36873000D01*
X122131000Y-37820231D01*
X122131001Y-87655768D01*
X115849770Y-93937000D01*
X92266232Y-93937000D01*
X79461715Y-81132485D01*
X79462784Y-81130886D01*
X79545000Y-80717559D01*
X79545000Y-77778441D01*
X79462784Y-77365114D01*
X79149599Y-76896400D01*
X78680885Y-76583216D01*
X78128000Y-76473240D01*
X77575114Y-76583216D01*
X77106400Y-76896401D01*
X76793216Y-77365115D01*
X76711000Y-77778442D01*
X73879544Y-77778442D01*
X73700808Y-77129058D01*
X73279170Y-76587225D01*
X72682277Y-76247991D01*
X72527259Y-76209018D01*
X72255000Y-76326810D01*
X72001000Y-76326810D01*
X71728741Y-76209018D01*
X71573723Y-76247991D01*
X70976830Y-76587225D01*
X70555192Y-77129058D01*
X70373000Y-77791000D01*
X63416000Y-77791000D01*
X63416000Y-70485000D01*
X64213182Y-70485000D01*
X64213182Y-72009000D01*
X64236233Y-72124883D01*
X64301875Y-72223125D01*
X64400117Y-72288767D01*
X64516000Y-72311818D01*
X66040000Y-72311818D01*
X66155883Y-72288767D01*
X66254125Y-72223125D01*
X66319767Y-72124883D01*
X66342818Y-72009000D01*
X66342818Y-71036352D01*
X66759000Y-71036352D01*
X66759000Y-71457648D01*
X66920223Y-71846875D01*
X67218125Y-72144777D01*
X67607352Y-72306000D01*
X68028648Y-72306000D01*
X68417875Y-72144777D01*
X68715777Y-71846875D01*
X68877000Y-71457648D01*
X68877000Y-71036352D01*
X69299000Y-71036352D01*
X69299000Y-71457648D01*
X69460223Y-71846875D01*
X69758125Y-72144777D01*
X70147352Y-72306000D01*
X70568648Y-72306000D01*
X70957875Y-72144777D01*
X71255777Y-71846875D01*
X71417000Y-71457648D01*
X71417000Y-71036352D01*
X71255777Y-70647125D01*
X70957875Y-70349223D01*
X70568648Y-70188000D01*
X70147352Y-70188000D01*
X69758125Y-70349223D01*
X69460223Y-70647125D01*
X69299000Y-71036352D01*
X68877000Y-71036352D01*
X68715777Y-70647125D01*
X68417875Y-70349223D01*
X68028648Y-70188000D01*
X67607352Y-70188000D01*
X67218125Y-70349223D01*
X66920223Y-70647125D01*
X66759000Y-71036352D01*
X66342818Y-71036352D01*
X66342818Y-70485000D01*
X66319767Y-70369117D01*
X66254125Y-70270875D01*
X66155883Y-70205233D01*
X66040000Y-70182182D01*
X64516000Y-70182182D01*
X64400117Y-70205233D01*
X64301875Y-70270875D01*
X64236233Y-70369117D01*
X64213182Y-70485000D01*
X63416000Y-70485000D01*
X63416000Y-64818625D01*
X64891476Y-63343150D01*
X65067352Y-63416000D01*
X65488648Y-63416000D01*
X65877875Y-63254777D01*
X66174801Y-62957851D01*
X66174801Y-64860242D01*
X66167489Y-64897000D01*
X66196412Y-65042398D01*
X66196455Y-65042615D01*
X66278939Y-65166062D01*
X66310097Y-65186881D01*
X71898097Y-70774882D01*
X71898100Y-70774884D01*
X71932892Y-70809676D01*
X71839000Y-71036352D01*
X71839000Y-71457648D01*
X72000223Y-71846875D01*
X72298125Y-72144777D01*
X72687352Y-72306000D01*
X73108648Y-72306000D01*
X73497875Y-72144777D01*
X73795777Y-71846875D01*
X73957000Y-71457648D01*
X73957000Y-71036352D01*
X74379000Y-71036352D01*
X74379000Y-71457648D01*
X74540223Y-71846875D01*
X74838125Y-72144777D01*
X75227352Y-72306000D01*
X75648648Y-72306000D01*
X76037875Y-72144777D01*
X76335777Y-71846875D01*
X76497000Y-71457648D01*
X76497000Y-71036352D01*
X76919000Y-71036352D01*
X76919000Y-71457648D01*
X77080223Y-71846875D01*
X77378125Y-72144777D01*
X77767352Y-72306000D01*
X78188648Y-72306000D01*
X78577875Y-72144777D01*
X78875777Y-71846875D01*
X79037000Y-71457648D01*
X79037000Y-71036352D01*
X79459000Y-71036352D01*
X79459000Y-71457648D01*
X79620223Y-71846875D01*
X79918125Y-72144777D01*
X80307352Y-72306000D01*
X80728648Y-72306000D01*
X80918856Y-72227213D01*
X82257392Y-72227213D01*
X82326857Y-72469397D01*
X82850302Y-72656144D01*
X83405368Y-72628362D01*
X83789143Y-72469397D01*
X83858608Y-72227213D01*
X83058000Y-71426605D01*
X82257392Y-72227213D01*
X80918856Y-72227213D01*
X81117875Y-72144777D01*
X81415777Y-71846875D01*
X81577000Y-71457648D01*
X81577000Y-71039302D01*
X81648856Y-71039302D01*
X81676638Y-71594368D01*
X81835603Y-71978143D01*
X82077787Y-72047608D01*
X82878395Y-71247000D01*
X83237605Y-71247000D01*
X84038213Y-72047608D01*
X84280397Y-71978143D01*
X84467144Y-71454698D01*
X84439362Y-70899632D01*
X84280397Y-70515857D01*
X84038213Y-70446392D01*
X83237605Y-71247000D01*
X82878395Y-71247000D01*
X82077787Y-70446392D01*
X81835603Y-70515857D01*
X81648856Y-71039302D01*
X81577000Y-71039302D01*
X81577000Y-71036352D01*
X81415777Y-70647125D01*
X81117875Y-70349223D01*
X80918857Y-70266787D01*
X82257392Y-70266787D01*
X83058000Y-71067395D01*
X83858608Y-70266787D01*
X83789143Y-70024603D01*
X83265698Y-69837856D01*
X82710632Y-69865638D01*
X82326857Y-70024603D01*
X82257392Y-70266787D01*
X80918857Y-70266787D01*
X80728648Y-70188000D01*
X80307352Y-70188000D01*
X79918125Y-70349223D01*
X79620223Y-70647125D01*
X79459000Y-71036352D01*
X79037000Y-71036352D01*
X78875777Y-70647125D01*
X78577875Y-70349223D01*
X78188648Y-70188000D01*
X77767352Y-70188000D01*
X77378125Y-70349223D01*
X77080223Y-70647125D01*
X76919000Y-71036352D01*
X76497000Y-71036352D01*
X76335777Y-70647125D01*
X76037875Y-70349223D01*
X75648648Y-70188000D01*
X75227352Y-70188000D01*
X74838125Y-70349223D01*
X74540223Y-70647125D01*
X74379000Y-71036352D01*
X73957000Y-71036352D01*
X73795777Y-70647125D01*
X73497875Y-70349223D01*
X73108648Y-70188000D01*
X72687352Y-70188000D01*
X72460676Y-70281892D01*
X72425884Y-70247100D01*
X72425882Y-70247097D01*
X66921200Y-64742416D01*
X66921200Y-62957852D01*
X67218125Y-63254777D01*
X67607352Y-63416000D01*
X68028648Y-63416000D01*
X68417875Y-63254777D01*
X68715777Y-62956875D01*
X68877000Y-62567648D01*
X68877000Y-62146352D01*
X68804150Y-61970475D01*
X75486626Y-55288000D01*
X76827373Y-55288000D01*
X70744524Y-61370850D01*
X70568648Y-61298000D01*
X70147352Y-61298000D01*
X69758125Y-61459223D01*
X69460223Y-61757125D01*
X69299000Y-62146352D01*
X69299000Y-62567648D01*
X69460223Y-62956875D01*
X69758125Y-63254777D01*
X70147352Y-63416000D01*
X70568648Y-63416000D01*
X70957875Y-63254777D01*
X71255777Y-62956875D01*
X71417000Y-62567648D01*
X71417000Y-62146352D01*
X71344150Y-61970476D01*
X77620217Y-55694410D01*
X78960964Y-55694410D01*
X73284525Y-61370850D01*
X73108648Y-61298000D01*
X72687352Y-61298000D01*
X72298125Y-61459223D01*
X72000223Y-61757125D01*
X71839000Y-62146352D01*
X71839000Y-62567648D01*
X72000223Y-62956875D01*
X72298125Y-63254777D01*
X72687352Y-63416000D01*
X73108648Y-63416000D01*
X73497875Y-63254777D01*
X73795777Y-62956875D01*
X73957000Y-62567648D01*
X73957000Y-62146352D01*
X73884150Y-61970475D01*
X79753806Y-56100820D01*
X81094553Y-56100820D01*
X75929715Y-61265660D01*
X75929712Y-61265662D01*
X75824524Y-61370850D01*
X75648648Y-61298000D01*
X75227352Y-61298000D01*
X74838125Y-61459223D01*
X74540223Y-61757125D01*
X74379000Y-62146352D01*
X74379000Y-62567648D01*
X74540223Y-62956875D01*
X74838125Y-63254777D01*
X75227352Y-63416000D01*
X75648648Y-63416000D01*
X76037875Y-63254777D01*
X76335777Y-62956875D01*
X76497000Y-62567648D01*
X76497000Y-62146352D01*
X76424150Y-61970476D01*
X76529338Y-61865288D01*
X76529340Y-61865285D01*
X81836627Y-56558000D01*
X82099743Y-56558000D01*
X77707718Y-60950027D01*
X77672314Y-60973683D01*
X77584161Y-61105615D01*
X77578602Y-61113934D01*
X77545694Y-61279370D01*
X77554001Y-61321131D01*
X77554001Y-61386373D01*
X77378125Y-61459223D01*
X77080223Y-61757125D01*
X76919000Y-62146352D01*
X76919000Y-62567648D01*
X77080223Y-62956875D01*
X77378125Y-63254777D01*
X77767352Y-63416000D01*
X78188648Y-63416000D01*
X78577875Y-63254777D01*
X78875777Y-62956875D01*
X79037000Y-62567648D01*
X79037000Y-62146352D01*
X78875777Y-61757125D01*
X78577875Y-61459223D01*
X78450523Y-61406472D01*
X82892587Y-56964410D01*
X84294966Y-56964408D01*
X81009719Y-60249656D01*
X80974312Y-60273314D01*
X80880600Y-60413566D01*
X80866468Y-60484615D01*
X80847693Y-60579001D01*
X80855999Y-60620758D01*
X80856000Y-61350751D01*
X80728648Y-61298000D01*
X80307352Y-61298000D01*
X79918125Y-61459223D01*
X79620223Y-61757125D01*
X79459000Y-62146352D01*
X79459000Y-62567648D01*
X79620223Y-62956875D01*
X79918125Y-63254777D01*
X80307352Y-63416000D01*
X80728648Y-63416000D01*
X81117875Y-63254777D01*
X81415777Y-62956875D01*
X81577000Y-62567648D01*
X81577000Y-62146352D01*
X81504150Y-61970476D01*
X81550282Y-61924344D01*
X81585686Y-61900688D01*
X81679398Y-61760437D01*
X81703999Y-61636758D01*
X81712305Y-61595002D01*
X81703999Y-61553246D01*
X81703999Y-60754626D01*
X82634000Y-59824625D01*
X82634001Y-61386373D01*
X82458125Y-61459223D01*
X82160223Y-61757125D01*
X81999000Y-62146352D01*
X81999000Y-62567648D01*
X82160223Y-62956875D01*
X82458125Y-63254777D01*
X82847352Y-63416000D01*
X83268648Y-63416000D01*
X83657875Y-63254777D01*
X83955777Y-62956875D01*
X84117000Y-62567648D01*
X84117000Y-62146352D01*
X83955777Y-61757125D01*
X83657875Y-61459223D01*
X83482000Y-61386373D01*
X83482000Y-59611625D01*
X86698000Y-56395625D01*
X86698001Y-82400239D01*
X86689694Y-82442000D01*
X86720492Y-82596830D01*
X86722602Y-82607436D01*
X86816314Y-82747687D01*
X86851718Y-82771343D01*
X89479182Y-85398808D01*
X89479182Y-86602000D01*
X89502233Y-86717883D01*
X89567875Y-86816125D01*
X89666117Y-86881767D01*
X89782000Y-86904818D01*
X92082000Y-86904818D01*
X92197883Y-86881767D01*
X92296125Y-86816125D01*
X92361767Y-86717883D01*
X92384818Y-86602000D01*
X92384818Y-85340011D01*
X102328000Y-85340011D01*
X102328000Y-85855989D01*
X102525456Y-86332692D01*
X102890308Y-86697544D01*
X103367011Y-86895000D01*
X103882989Y-86895000D01*
X104359692Y-86697544D01*
X104724544Y-86332692D01*
X104922000Y-85855989D01*
X104922000Y-85340011D01*
X117328000Y-85340011D01*
X117328000Y-85855989D01*
X117525456Y-86332692D01*
X117890308Y-86697544D01*
X118367011Y-86895000D01*
X118882989Y-86895000D01*
X119359692Y-86697544D01*
X119724544Y-86332692D01*
X119922000Y-85855989D01*
X119922000Y-85340011D01*
X119724544Y-84863308D01*
X119359692Y-84498456D01*
X118882989Y-84301000D01*
X118367011Y-84301000D01*
X117890308Y-84498456D01*
X117525456Y-84863308D01*
X117328000Y-85340011D01*
X104922000Y-85340011D01*
X104724544Y-84863308D01*
X104359692Y-84498456D01*
X103882989Y-84301000D01*
X103367011Y-84301000D01*
X102890308Y-84498456D01*
X102525456Y-84863308D01*
X102328000Y-85340011D01*
X92384818Y-85340011D01*
X92384818Y-85102000D01*
X92361767Y-84986117D01*
X92296125Y-84887875D01*
X92197883Y-84822233D01*
X92082000Y-84799182D01*
X90078808Y-84799182D01*
X89558960Y-84279334D01*
X89884651Y-84542972D01*
X90405000Y-84697000D01*
X90805000Y-84697000D01*
X90805000Y-83439000D01*
X91059000Y-83439000D01*
X91059000Y-84697000D01*
X91459000Y-84697000D01*
X91979349Y-84542972D01*
X92401145Y-84201540D01*
X92660173Y-83724684D01*
X92674318Y-83653185D01*
X92551656Y-83439000D01*
X91059000Y-83439000D01*
X90805000Y-83439000D01*
X89312344Y-83439000D01*
X89189682Y-83653185D01*
X89203827Y-83724684D01*
X89441081Y-84161456D01*
X88250440Y-82970815D01*
X89189682Y-82970815D01*
X89312344Y-83185000D01*
X90805000Y-83185000D01*
X90805000Y-81927000D01*
X91059000Y-81927000D01*
X91059000Y-83185000D01*
X92551656Y-83185000D01*
X92674318Y-82970815D01*
X92660173Y-82899316D01*
X92401145Y-82422460D01*
X91979349Y-82081028D01*
X91459000Y-81927000D01*
X91059000Y-81927000D01*
X90805000Y-81927000D01*
X90405000Y-81927000D01*
X89884651Y-82081028D01*
X89462855Y-82422460D01*
X89203827Y-82899316D01*
X89189682Y-82970815D01*
X88250440Y-82970815D01*
X87546000Y-82266375D01*
X87546000Y-80772000D01*
X89464489Y-80772000D01*
X89545748Y-81180519D01*
X89777156Y-81526844D01*
X90123481Y-81758252D01*
X90428884Y-81819000D01*
X91435116Y-81819000D01*
X91740519Y-81758252D01*
X92086844Y-81526844D01*
X92306305Y-81198399D01*
X92336000Y-81204306D01*
X92377756Y-81196000D01*
X93176244Y-81196000D01*
X93218000Y-81204306D01*
X93259756Y-81196000D01*
X93259757Y-81196000D01*
X93383436Y-81171399D01*
X93523687Y-81077687D01*
X93547345Y-81042280D01*
X104315627Y-70274000D01*
X106635202Y-70274000D01*
X106796750Y-70435548D01*
X107050611Y-70540700D01*
X107325389Y-70540700D01*
X107579250Y-70435548D01*
X107773548Y-70241250D01*
X107878700Y-69987389D01*
X107878700Y-69712611D01*
X107773548Y-69458750D01*
X107579250Y-69264452D01*
X107325389Y-69159300D01*
X107050611Y-69159300D01*
X106796750Y-69264452D01*
X106635202Y-69426000D01*
X104281626Y-69426000D01*
X105805624Y-67902002D01*
X112285000Y-67902002D01*
X112285000Y-69511998D01*
X112901119Y-70999441D01*
X114039559Y-72137881D01*
X115527002Y-72754000D01*
X117136998Y-72754000D01*
X118624441Y-72137881D01*
X119762881Y-70999441D01*
X120379000Y-69511998D01*
X120379000Y-67902002D01*
X119762881Y-66414559D01*
X118624441Y-65276119D01*
X117136998Y-64660000D01*
X115527002Y-64660000D01*
X114039559Y-65276119D01*
X112901119Y-66414559D01*
X112285000Y-67902002D01*
X105805624Y-67902002D01*
X108324358Y-65383269D01*
X108359759Y-65359615D01*
X108453471Y-65219364D01*
X108478072Y-65095685D01*
X108478072Y-65095684D01*
X108486378Y-65053928D01*
X108478072Y-65012172D01*
X108478072Y-59862739D01*
X112110000Y-59862739D01*
X112110000Y-60279261D01*
X112269396Y-60664078D01*
X112563922Y-60958604D01*
X112948739Y-61118000D01*
X113365261Y-61118000D01*
X113750078Y-60958604D01*
X114044604Y-60664078D01*
X114204000Y-60279261D01*
X114204000Y-59862739D01*
X114044604Y-59477922D01*
X113750078Y-59183396D01*
X113365261Y-59024000D01*
X112948739Y-59024000D01*
X112563922Y-59183396D01*
X112269396Y-59477922D01*
X112110000Y-59862739D01*
X108478072Y-59862739D01*
X108478072Y-59468827D01*
X108486378Y-59427071D01*
X108468751Y-59338454D01*
X108453471Y-59261636D01*
X108382818Y-59155895D01*
X108382818Y-58690500D01*
X108341689Y-58483729D01*
X108224563Y-58308437D01*
X108049271Y-58191311D01*
X107928200Y-58167229D01*
X107928200Y-57910771D01*
X108049271Y-57886689D01*
X108224563Y-57769563D01*
X108341689Y-57594271D01*
X108382818Y-57387500D01*
X108382818Y-56912500D01*
X108341689Y-56705729D01*
X108224563Y-56530437D01*
X108049271Y-56413311D01*
X107842500Y-56372182D01*
X107304966Y-56372182D01*
X106320883Y-55388099D01*
X106300062Y-55356938D01*
X106176615Y-55274454D01*
X106067754Y-55252800D01*
X106067753Y-55252800D01*
X106031000Y-55245489D01*
X105994247Y-55252800D01*
X105749025Y-55252800D01*
X105741548Y-55234750D01*
X105547250Y-55040452D01*
X105359634Y-54962739D01*
X112110000Y-54962739D01*
X112110000Y-55379261D01*
X112269396Y-55764078D01*
X112563922Y-56058604D01*
X112948739Y-56218000D01*
X113365261Y-56218000D01*
X113750078Y-56058604D01*
X114044604Y-55764078D01*
X114204000Y-55379261D01*
X114204000Y-54962739D01*
X114044604Y-54577922D01*
X113750078Y-54283396D01*
X113365261Y-54124000D01*
X112948739Y-54124000D01*
X112563922Y-54283396D01*
X112269396Y-54577922D01*
X112110000Y-54962739D01*
X105359634Y-54962739D01*
X105293389Y-54935300D01*
X105018611Y-54935300D01*
X104764750Y-55040452D01*
X104570452Y-55234750D01*
X104465300Y-55488611D01*
X104465300Y-55763389D01*
X104570452Y-56017250D01*
X104764750Y-56211548D01*
X104821797Y-56235177D01*
X104741673Y-56315301D01*
X104645000Y-56548690D01*
X104645000Y-56864250D01*
X104803750Y-57023000D01*
X105678000Y-57023000D01*
X105678000Y-56198750D01*
X105619024Y-56139774D01*
X105741548Y-56017250D01*
X105749025Y-55999200D01*
X105876416Y-55999200D01*
X106003983Y-56126767D01*
X105932000Y-56198750D01*
X105932000Y-57023000D01*
X105952000Y-57023000D01*
X105952000Y-57277000D01*
X105932000Y-57277000D01*
X105932000Y-58801000D01*
X105952000Y-58801000D01*
X105952000Y-59055000D01*
X105932000Y-59055000D01*
X105932000Y-59879250D01*
X106090750Y-60038000D01*
X106456309Y-60038000D01*
X106689698Y-59941327D01*
X106868327Y-59762699D01*
X106941831Y-59585244D01*
X107060729Y-59664689D01*
X107267500Y-59705818D01*
X107630073Y-59705818D01*
X107630072Y-64878301D01*
X92248814Y-80259561D01*
X92086844Y-80017156D01*
X91740519Y-79785748D01*
X91435116Y-79725000D01*
X91356000Y-79725000D01*
X91356000Y-69009625D01*
X96071875Y-64293750D01*
X99565000Y-64293750D01*
X99565000Y-64609310D01*
X99661673Y-64842699D01*
X99840302Y-65021327D01*
X100073691Y-65118000D01*
X100439250Y-65118000D01*
X100598000Y-64959250D01*
X100598000Y-64135000D01*
X99723750Y-64135000D01*
X99565000Y-64293750D01*
X96071875Y-64293750D01*
X97849875Y-62515750D01*
X99565000Y-62515750D01*
X99565000Y-62831310D01*
X99661673Y-63064699D01*
X99715974Y-63119000D01*
X99661673Y-63173301D01*
X99565000Y-63406690D01*
X99565000Y-63722250D01*
X99723750Y-63881000D01*
X100598000Y-63881000D01*
X100598000Y-62357000D01*
X99723750Y-62357000D01*
X99565000Y-62515750D01*
X97849875Y-62515750D01*
X98736935Y-61628690D01*
X99565000Y-61628690D01*
X99565000Y-61944250D01*
X99723750Y-62103000D01*
X100598000Y-62103000D01*
X100598000Y-61278750D01*
X100439250Y-61120000D01*
X100073691Y-61120000D01*
X99840302Y-61216673D01*
X99661673Y-61395301D01*
X99565000Y-61628690D01*
X98736935Y-61628690D01*
X100210801Y-60154825D01*
X100210801Y-60302242D01*
X100203489Y-60339000D01*
X100218322Y-60413565D01*
X100232455Y-60484615D01*
X100314939Y-60608062D01*
X100346097Y-60628881D01*
X100923983Y-61206767D01*
X100852000Y-61278750D01*
X100852000Y-62103000D01*
X100872000Y-62103000D01*
X100872000Y-62357000D01*
X100852000Y-62357000D01*
X100852000Y-63881000D01*
X100872000Y-63881000D01*
X100872000Y-64135000D01*
X100852000Y-64135000D01*
X100852000Y-64959250D01*
X101010750Y-65118000D01*
X101376309Y-65118000D01*
X101609698Y-65021327D01*
X101788327Y-64842699D01*
X101861831Y-64665244D01*
X101980729Y-64744689D01*
X102187500Y-64785818D01*
X102762500Y-64785818D01*
X102969271Y-64744689D01*
X103144563Y-64627563D01*
X103261689Y-64452271D01*
X103302818Y-64245500D01*
X103302818Y-63770500D01*
X103261689Y-63563729D01*
X103144563Y-63388437D01*
X102969271Y-63271311D01*
X102848200Y-63247229D01*
X102848200Y-62990771D01*
X102969271Y-62966689D01*
X103144563Y-62849563D01*
X103261689Y-62674271D01*
X103302818Y-62467500D01*
X103302818Y-61992500D01*
X103261689Y-61785729D01*
X103144563Y-61610437D01*
X102969271Y-61493311D01*
X102762500Y-61452182D01*
X102224967Y-61452182D01*
X100957200Y-60184416D01*
X100957200Y-59775025D01*
X100975250Y-59767548D01*
X101163300Y-59579498D01*
X101163300Y-59827389D01*
X101268452Y-60081250D01*
X101462750Y-60275548D01*
X101716611Y-60380700D01*
X101991389Y-60380700D01*
X102245250Y-60275548D01*
X102439548Y-60081250D01*
X102447025Y-60063200D01*
X103223416Y-60063200D01*
X104274800Y-61114585D01*
X104274800Y-61382975D01*
X104256750Y-61390452D01*
X104062452Y-61584750D01*
X103957300Y-61838611D01*
X103957300Y-62113389D01*
X104062452Y-62367250D01*
X104256750Y-62561548D01*
X104510611Y-62666700D01*
X104785389Y-62666700D01*
X105039250Y-62561548D01*
X105233548Y-62367250D01*
X105338700Y-62113389D01*
X105338700Y-61838611D01*
X105233548Y-61584750D01*
X105039250Y-61390452D01*
X105021200Y-61382975D01*
X105021200Y-61098984D01*
X106560800Y-62638585D01*
X106560801Y-63414975D01*
X106542750Y-63422452D01*
X106348452Y-63616750D01*
X106340975Y-63634800D01*
X104987025Y-63634800D01*
X104979548Y-63616750D01*
X104785250Y-63422452D01*
X104531389Y-63317300D01*
X104256611Y-63317300D01*
X104002750Y-63422452D01*
X103808452Y-63616750D01*
X103703300Y-63870611D01*
X103703300Y-64145389D01*
X103808452Y-64399250D01*
X104002750Y-64593548D01*
X104256611Y-64698700D01*
X104531389Y-64698700D01*
X104785250Y-64593548D01*
X104979548Y-64399250D01*
X104987025Y-64381200D01*
X106340975Y-64381200D01*
X106348452Y-64399250D01*
X106542750Y-64593548D01*
X106796611Y-64698700D01*
X107071389Y-64698700D01*
X107325250Y-64593548D01*
X107519548Y-64399250D01*
X107624700Y-64145389D01*
X107624700Y-63870611D01*
X107519548Y-63616750D01*
X107325250Y-63422452D01*
X107307200Y-63414975D01*
X107307200Y-62520753D01*
X107314511Y-62484000D01*
X107307200Y-62447246D01*
X107285546Y-62338385D01*
X107203062Y-62214938D01*
X107171905Y-62194120D01*
X104259200Y-59281416D01*
X104259200Y-59213750D01*
X104645000Y-59213750D01*
X104645000Y-59529310D01*
X104741673Y-59762699D01*
X104920302Y-59941327D01*
X105153691Y-60038000D01*
X105519250Y-60038000D01*
X105678000Y-59879250D01*
X105678000Y-59055000D01*
X104803750Y-59055000D01*
X104645000Y-59213750D01*
X104259200Y-59213750D01*
X104259200Y-57435750D01*
X104645000Y-57435750D01*
X104645000Y-57751310D01*
X104741673Y-57984699D01*
X104795974Y-58039000D01*
X104741673Y-58093301D01*
X104645000Y-58326690D01*
X104645000Y-58642250D01*
X104803750Y-58801000D01*
X105678000Y-58801000D01*
X105678000Y-57277000D01*
X104803750Y-57277000D01*
X104645000Y-57435750D01*
X104259200Y-57435750D01*
X104259200Y-55203025D01*
X104277250Y-55195548D01*
X104471548Y-55001250D01*
X104576700Y-54747389D01*
X104576700Y-54472611D01*
X104471548Y-54218750D01*
X104277250Y-54024452D01*
X104023389Y-53919300D01*
X103748611Y-53919300D01*
X103494750Y-54024452D01*
X103300452Y-54218750D01*
X103195300Y-54472611D01*
X103195300Y-54747389D01*
X103300452Y-55001250D01*
X103494750Y-55195548D01*
X103512800Y-55203025D01*
X103512801Y-59336303D01*
X103414754Y-59316800D01*
X103414753Y-59316800D01*
X103378000Y-59309489D01*
X103341247Y-59316800D01*
X102447025Y-59316800D01*
X102439548Y-59298750D01*
X102245250Y-59104452D01*
X101991389Y-58999300D01*
X101716611Y-58999300D01*
X101462750Y-59104452D01*
X101274700Y-59292502D01*
X101274700Y-59044611D01*
X101169548Y-58790750D01*
X100975250Y-58596452D01*
X100721389Y-58491300D01*
X100446611Y-58491300D01*
X100192750Y-58596452D01*
X99998452Y-58790750D01*
X99893300Y-59044611D01*
X99893300Y-59273074D01*
X91356000Y-67810375D01*
X91356000Y-63280625D01*
X91644625Y-62992000D01*
X92475100Y-62992000D01*
X92498151Y-63107883D01*
X92563793Y-63206125D01*
X93765875Y-64408207D01*
X93864117Y-64473849D01*
X93980000Y-64496900D01*
X94095883Y-64473849D01*
X94194125Y-64408207D01*
X95396207Y-63206125D01*
X95461849Y-63107883D01*
X95484900Y-62992000D01*
X95461849Y-62876117D01*
X95396207Y-62777875D01*
X94194125Y-61575793D01*
X94095883Y-61510151D01*
X93980000Y-61487100D01*
X93864117Y-61510151D01*
X93765875Y-61575793D01*
X92563793Y-62777875D01*
X92498151Y-62876117D01*
X92475100Y-62992000D01*
X91644625Y-62992000D01*
X93440676Y-61195949D01*
X94606580Y-61195949D01*
X94695601Y-61643486D01*
X94949110Y-62022890D01*
X95328514Y-62276399D01*
X95663082Y-62342949D01*
X95889020Y-62342949D01*
X96223588Y-62276399D01*
X96602992Y-62022890D01*
X96856501Y-61643486D01*
X96945522Y-61195949D01*
X96856501Y-60748412D01*
X96602992Y-60369008D01*
X96223588Y-60115499D01*
X95889020Y-60048949D01*
X95663082Y-60048949D01*
X95328514Y-60115499D01*
X94949110Y-60369008D01*
X94695601Y-60748412D01*
X94606580Y-61195949D01*
X93440676Y-61195949D01*
X97216808Y-57419818D01*
X97682500Y-57419818D01*
X97889271Y-57378689D01*
X98064563Y-57261563D01*
X98181689Y-57086271D01*
X98185721Y-57066000D01*
X98253202Y-57066000D01*
X98414750Y-57227548D01*
X98668611Y-57332700D01*
X98943389Y-57332700D01*
X99197250Y-57227548D01*
X99391548Y-57033250D01*
X99496700Y-56779389D01*
X99496700Y-56504611D01*
X99391548Y-56250750D01*
X99197250Y-56056452D01*
X99181673Y-56050000D01*
X102063202Y-56050000D01*
X102224750Y-56211548D01*
X102478611Y-56316700D01*
X102753389Y-56316700D01*
X103007250Y-56211548D01*
X103201548Y-56017250D01*
X103306700Y-55763389D01*
X103306700Y-55488611D01*
X103201548Y-55234750D01*
X103007250Y-55040452D01*
X102875267Y-54985783D01*
X102890563Y-54975563D01*
X103007689Y-54800271D01*
X103048818Y-54593500D01*
X103048818Y-54118500D01*
X103007689Y-53911729D01*
X102890563Y-53736437D01*
X102715271Y-53619311D01*
X102594200Y-53595229D01*
X102594200Y-53338771D01*
X102715271Y-53314689D01*
X102890563Y-53197563D01*
X103007689Y-53022271D01*
X103048818Y-52815500D01*
X103048818Y-52340500D01*
X103007689Y-52133729D01*
X102890563Y-51958437D01*
X102715271Y-51841311D01*
X102508500Y-51800182D01*
X101933500Y-51800182D01*
X101726729Y-51841311D01*
X101607831Y-51920756D01*
X101534327Y-51743301D01*
X101355698Y-51564673D01*
X101122309Y-51468000D01*
X100756750Y-51468000D01*
X100598000Y-51626750D01*
X100598000Y-52451000D01*
X100618000Y-52451000D01*
X100618000Y-52705000D01*
X100598000Y-52705000D01*
X100598000Y-54229000D01*
X100618000Y-54229000D01*
X100618000Y-54483000D01*
X100598000Y-54483000D01*
X100598000Y-54503000D01*
X100344000Y-54503000D01*
X100344000Y-54483000D01*
X99469750Y-54483000D01*
X99311000Y-54641750D01*
X99311000Y-54957310D01*
X99407673Y-55190699D01*
X99418974Y-55202000D01*
X98452755Y-55202000D01*
X98410999Y-55193694D01*
X98369243Y-55202000D01*
X98245564Y-55226601D01*
X98190633Y-55263304D01*
X98222818Y-55101500D01*
X98222818Y-54626500D01*
X98181689Y-54419729D01*
X98064563Y-54244437D01*
X97889271Y-54127311D01*
X97682500Y-54086182D01*
X97107500Y-54086182D01*
X96900729Y-54127311D01*
X96781831Y-54206756D01*
X96708327Y-54029301D01*
X96529698Y-53850673D01*
X96296309Y-53754000D01*
X95930750Y-53754000D01*
X95772000Y-53912750D01*
X95772000Y-54737000D01*
X95792000Y-54737000D01*
X95792000Y-54991000D01*
X95772000Y-54991000D01*
X95772000Y-56515000D01*
X95792000Y-56515000D01*
X95792000Y-56769000D01*
X95772000Y-56769000D01*
X95772000Y-57593250D01*
X95808062Y-57629312D01*
X90661718Y-62775657D01*
X90626314Y-62799313D01*
X90574996Y-62876117D01*
X90532602Y-62939564D01*
X90499694Y-63105000D01*
X90508001Y-63146761D01*
X90508001Y-68792240D01*
X90499694Y-68834000D01*
X90508001Y-68875760D01*
X90508000Y-76209018D01*
X90508000Y-79725000D01*
X90428884Y-79725000D01*
X90123481Y-79785748D01*
X89777156Y-80017156D01*
X89545748Y-80363481D01*
X89464489Y-80772000D01*
X87546000Y-80772000D01*
X87546000Y-56927750D01*
X94485000Y-56927750D01*
X94485000Y-57243310D01*
X94581673Y-57476699D01*
X94760302Y-57655327D01*
X94993691Y-57752000D01*
X95359250Y-57752000D01*
X95518000Y-57593250D01*
X95518000Y-56769000D01*
X94643750Y-56769000D01*
X94485000Y-56927750D01*
X87546000Y-56927750D01*
X87546000Y-56309625D01*
X88705875Y-55149750D01*
X94485000Y-55149750D01*
X94485000Y-55465310D01*
X94581673Y-55698699D01*
X94635974Y-55753000D01*
X94581673Y-55807301D01*
X94485000Y-56040690D01*
X94485000Y-56356250D01*
X94643750Y-56515000D01*
X95518000Y-56515000D01*
X95518000Y-54991000D01*
X94643750Y-54991000D01*
X94485000Y-55149750D01*
X88705875Y-55149750D01*
X89592935Y-54262690D01*
X94485000Y-54262690D01*
X94485000Y-54578250D01*
X94643750Y-54737000D01*
X95518000Y-54737000D01*
X95518000Y-53912750D01*
X95359250Y-53754000D01*
X94993691Y-53754000D01*
X94760302Y-53850673D01*
X94581673Y-54029301D01*
X94485000Y-54262690D01*
X89592935Y-54262690D01*
X90991875Y-52863750D01*
X99311000Y-52863750D01*
X99311000Y-53179310D01*
X99407673Y-53412699D01*
X99461974Y-53467000D01*
X99407673Y-53521301D01*
X99311000Y-53754690D01*
X99311000Y-54070250D01*
X99469750Y-54229000D01*
X100344000Y-54229000D01*
X100344000Y-52705000D01*
X99469750Y-52705000D01*
X99311000Y-52863750D01*
X90991875Y-52863750D01*
X91878935Y-51976690D01*
X99311000Y-51976690D01*
X99311000Y-52292250D01*
X99469750Y-52451000D01*
X100344000Y-52451000D01*
X100344000Y-51626750D01*
X100185250Y-51468000D01*
X99819691Y-51468000D01*
X99586302Y-51564673D01*
X99407673Y-51743301D01*
X99311000Y-51976690D01*
X91878935Y-51976690D01*
X96441627Y-47414000D01*
X96983202Y-47414000D01*
X97144750Y-47575548D01*
X97398611Y-47680700D01*
X97673389Y-47680700D01*
X97927250Y-47575548D01*
X98121548Y-47381250D01*
X98226700Y-47127389D01*
X98226700Y-46852611D01*
X98121548Y-46598750D01*
X97927250Y-46404452D01*
X97673389Y-46299300D01*
X97398611Y-46299300D01*
X97144750Y-46404452D01*
X96983202Y-46566000D01*
X96307756Y-46566000D01*
X96266000Y-46557694D01*
X96224244Y-46566000D01*
X96224243Y-46566000D01*
X96100564Y-46590601D01*
X95960313Y-46684313D01*
X95936659Y-46719714D01*
X90111457Y-52544917D01*
X90111457Y-47521168D01*
X91920396Y-45712230D01*
X105056605Y-45712230D01*
X108814479Y-49470106D01*
X108838133Y-49505507D01*
X108978384Y-49599219D01*
X109102063Y-49623820D01*
X109102064Y-49623820D01*
X109143820Y-49632126D01*
X109185576Y-49623820D01*
X114274174Y-49623820D01*
X114315930Y-49632126D01*
X114357686Y-49623820D01*
X114357687Y-49623820D01*
X114481366Y-49599219D01*
X114621617Y-49505507D01*
X114645275Y-49470100D01*
X116729286Y-47386091D01*
X116764687Y-47362437D01*
X116858399Y-47222186D01*
X116883000Y-47098507D01*
X116883000Y-47098506D01*
X116891306Y-47056750D01*
X116883000Y-47014994D01*
X116883000Y-44074555D01*
X116950000Y-44074555D01*
X116950000Y-44789445D01*
X117223577Y-45449919D01*
X117729081Y-45955423D01*
X118389555Y-46229000D01*
X119104445Y-46229000D01*
X119764919Y-45955423D01*
X120270423Y-45449919D01*
X120544000Y-44789445D01*
X120544000Y-44074555D01*
X120270423Y-43414081D01*
X119764919Y-42908577D01*
X119104445Y-42635000D01*
X118389555Y-42635000D01*
X117729081Y-42908577D01*
X117223577Y-43414081D01*
X116950000Y-44074555D01*
X116883000Y-44074555D01*
X116883000Y-42665756D01*
X116891306Y-42624000D01*
X116875592Y-42545000D01*
X116858399Y-42458564D01*
X116764687Y-42318313D01*
X116729283Y-42294657D01*
X115403965Y-40969340D01*
X115474000Y-40800261D01*
X115474000Y-40383739D01*
X115314604Y-39998922D01*
X115020078Y-39704396D01*
X114635261Y-39545000D01*
X114218739Y-39545000D01*
X113833922Y-39704396D01*
X113539396Y-39998922D01*
X113380000Y-40383739D01*
X113380000Y-40800261D01*
X113539396Y-41185078D01*
X113833922Y-41479604D01*
X114218739Y-41639000D01*
X114635261Y-41639000D01*
X114804340Y-41568965D01*
X116035000Y-42799626D01*
X116035000Y-44600375D01*
X115403965Y-43969340D01*
X115474000Y-43800261D01*
X115474000Y-43383739D01*
X115314604Y-42998922D01*
X115020078Y-42704396D01*
X114635261Y-42545000D01*
X114218739Y-42545000D01*
X113833922Y-42704396D01*
X113539396Y-42998922D01*
X113380000Y-43383739D01*
X113380000Y-43800261D01*
X113539396Y-44185078D01*
X113833922Y-44479604D01*
X114218739Y-44639000D01*
X114635261Y-44639000D01*
X114804340Y-44568965D01*
X115527000Y-45291626D01*
X115527001Y-46814372D01*
X115426545Y-46914829D01*
X115474000Y-46800261D01*
X115474000Y-46383739D01*
X115314604Y-45998922D01*
X115020078Y-45704396D01*
X114635261Y-45545000D01*
X114218739Y-45545000D01*
X113833922Y-45704396D01*
X113539396Y-45998922D01*
X113380000Y-46383739D01*
X113380000Y-46800261D01*
X113450035Y-46969340D01*
X112456375Y-47963000D01*
X109776627Y-47963000D01*
X106306625Y-44493000D01*
X108728375Y-44493000D01*
X110450034Y-46214661D01*
X110380000Y-46383739D01*
X110380000Y-46800261D01*
X110539396Y-47185078D01*
X110833922Y-47479604D01*
X111218739Y-47639000D01*
X111635261Y-47639000D01*
X112020078Y-47479604D01*
X112314604Y-47185078D01*
X112474000Y-46800261D01*
X112474000Y-46383739D01*
X112314604Y-45998922D01*
X112020078Y-45704396D01*
X111635261Y-45545000D01*
X111218739Y-45545000D01*
X111049661Y-45615034D01*
X109450625Y-44016000D01*
X110469362Y-44016000D01*
X110539396Y-44185078D01*
X110833922Y-44479604D01*
X111218739Y-44639000D01*
X111635261Y-44639000D01*
X112020078Y-44479604D01*
X112314604Y-44185078D01*
X112474000Y-43800261D01*
X112474000Y-43383739D01*
X112314604Y-42998922D01*
X112020078Y-42704396D01*
X111635261Y-42545000D01*
X111218739Y-42545000D01*
X110833922Y-42704396D01*
X110539396Y-42998922D01*
X110469362Y-43168000D01*
X109450625Y-43168000D01*
X111049661Y-41568966D01*
X111218739Y-41639000D01*
X111635261Y-41639000D01*
X112020078Y-41479604D01*
X112314604Y-41185078D01*
X112474000Y-40800261D01*
X112474000Y-40383739D01*
X112314604Y-39998922D01*
X112020078Y-39704396D01*
X111635261Y-39545000D01*
X111218739Y-39545000D01*
X110833922Y-39704396D01*
X110539396Y-39998922D01*
X110380000Y-40383739D01*
X110380000Y-40800261D01*
X110450034Y-40969339D01*
X108663375Y-42756000D01*
X106814625Y-42756000D01*
X110196071Y-39374555D01*
X116950000Y-39374555D01*
X116950000Y-40089445D01*
X117223577Y-40749919D01*
X117729081Y-41255423D01*
X118389555Y-41529000D01*
X119104445Y-41529000D01*
X119764919Y-41255423D01*
X120270423Y-40749919D01*
X120544000Y-40089445D01*
X120544000Y-39374555D01*
X120270423Y-38714081D01*
X119764919Y-38208577D01*
X119104445Y-37935000D01*
X118389555Y-37935000D01*
X117729081Y-38208577D01*
X117223577Y-38714081D01*
X116950000Y-39374555D01*
X110196071Y-39374555D01*
X111015720Y-38554907D01*
X111218739Y-38639000D01*
X111635261Y-38639000D01*
X112020078Y-38479604D01*
X112314604Y-38185078D01*
X112474000Y-37800261D01*
X112474000Y-37383739D01*
X112314604Y-36998922D01*
X112020078Y-36704396D01*
X111635261Y-36545000D01*
X111218739Y-36545000D01*
X110833922Y-36704396D01*
X110539396Y-36998922D01*
X110380000Y-37383739D01*
X110380000Y-37800261D01*
X110435975Y-37935398D01*
X106123375Y-42248000D01*
X90719755Y-42248000D01*
X90677999Y-42239694D01*
X90636243Y-42248000D01*
X90512564Y-42272601D01*
X90512563Y-42272602D01*
X90512562Y-42272602D01*
X90491544Y-42286646D01*
X90372313Y-42366313D01*
X90348657Y-42401717D01*
X86978718Y-45771657D01*
X86943314Y-45795313D01*
X86849602Y-45935564D01*
X86816694Y-46101000D01*
X86825001Y-46142761D01*
X86825000Y-51513374D01*
X84839351Y-53499023D01*
X84820362Y-53119632D01*
X84661397Y-52735857D01*
X84419213Y-52666392D01*
X83618605Y-53467000D01*
X83632748Y-53481143D01*
X83453143Y-53660748D01*
X83439000Y-53646605D01*
X83424858Y-53660748D01*
X83245253Y-53481143D01*
X83259395Y-53467000D01*
X82458787Y-52666392D01*
X82216603Y-52735857D01*
X82029856Y-53259302D01*
X82057638Y-53814368D01*
X82216603Y-54198143D01*
X82458785Y-54267607D01*
X82343774Y-54382618D01*
X82401156Y-54440000D01*
X81317270Y-54440000D01*
X81498875Y-54364777D01*
X81796777Y-54066875D01*
X81958000Y-53677648D01*
X81958000Y-53256352D01*
X81796777Y-52867125D01*
X81498875Y-52569223D01*
X81299857Y-52486787D01*
X82638392Y-52486787D01*
X83439000Y-53287395D01*
X84239608Y-52486787D01*
X84170143Y-52244603D01*
X83646698Y-52057856D01*
X83091632Y-52085638D01*
X82707857Y-52244603D01*
X82638392Y-52486787D01*
X81299857Y-52486787D01*
X81109648Y-52408000D01*
X80688352Y-52408000D01*
X80299125Y-52569223D01*
X80001223Y-52867125D01*
X79840000Y-53256352D01*
X79840000Y-53677648D01*
X80001223Y-54066875D01*
X80299125Y-54364777D01*
X80480730Y-54440000D01*
X78777270Y-54440000D01*
X78958875Y-54364777D01*
X79256777Y-54066875D01*
X79418000Y-53677648D01*
X79418000Y-53256352D01*
X79256777Y-52867125D01*
X78958875Y-52569223D01*
X78569648Y-52408000D01*
X78148352Y-52408000D01*
X77759125Y-52569223D01*
X77461223Y-52867125D01*
X77300000Y-53256352D01*
X77300000Y-53677648D01*
X77461223Y-54066875D01*
X77759125Y-54364777D01*
X77940730Y-54440000D01*
X76237270Y-54440000D01*
X76418875Y-54364777D01*
X76716777Y-54066875D01*
X76878000Y-53677648D01*
X76878000Y-53256352D01*
X76716777Y-52867125D01*
X76418875Y-52569223D01*
X76029648Y-52408000D01*
X75608352Y-52408000D01*
X75219125Y-52569223D01*
X74921223Y-52867125D01*
X74760000Y-53256352D01*
X74760000Y-53677648D01*
X74921223Y-54066875D01*
X75219125Y-54364777D01*
X75400730Y-54440000D01*
X75352755Y-54440000D01*
X75310999Y-54431694D01*
X75269243Y-54440000D01*
X75145564Y-54464601D01*
X75005313Y-54558313D01*
X74981657Y-54593717D01*
X68204525Y-61370850D01*
X68028648Y-61298000D01*
X67607352Y-61298000D01*
X67218125Y-61459223D01*
X66921200Y-61756148D01*
X66921200Y-60352584D01*
X72841676Y-54432108D01*
X73068352Y-54526000D01*
X73489648Y-54526000D01*
X73878875Y-54364777D01*
X74176777Y-54066875D01*
X74338000Y-53677648D01*
X74338000Y-53256352D01*
X74176777Y-52867125D01*
X73878875Y-52569223D01*
X73489648Y-52408000D01*
X73068352Y-52408000D01*
X72679125Y-52569223D01*
X72381223Y-52867125D01*
X72220000Y-53256352D01*
X72220000Y-53677648D01*
X72313892Y-53904324D01*
X66310099Y-59908117D01*
X66278938Y-59928938D01*
X66196454Y-60052386D01*
X66190713Y-60081250D01*
X66167489Y-60198000D01*
X66174800Y-60234753D01*
X66174800Y-61756148D01*
X65877875Y-61459223D01*
X65488648Y-61298000D01*
X65067352Y-61298000D01*
X64678125Y-61459223D01*
X64380223Y-61757125D01*
X64219000Y-62146352D01*
X64219000Y-62567648D01*
X64291850Y-62743524D01*
X63416000Y-63619375D01*
X63416000Y-52705000D01*
X64594182Y-52705000D01*
X64594182Y-54229000D01*
X64617233Y-54344883D01*
X64682875Y-54443125D01*
X64781117Y-54508767D01*
X64897000Y-54531818D01*
X66421000Y-54531818D01*
X66536883Y-54508767D01*
X66635125Y-54443125D01*
X66700767Y-54344883D01*
X66723818Y-54229000D01*
X66723818Y-53256352D01*
X67140000Y-53256352D01*
X67140000Y-53677648D01*
X67301223Y-54066875D01*
X67599125Y-54364777D01*
X67988352Y-54526000D01*
X68409648Y-54526000D01*
X68798875Y-54364777D01*
X69096777Y-54066875D01*
X69258000Y-53677648D01*
X69258000Y-53256352D01*
X69680000Y-53256352D01*
X69680000Y-53677648D01*
X69841223Y-54066875D01*
X70139125Y-54364777D01*
X70528352Y-54526000D01*
X70949648Y-54526000D01*
X71338875Y-54364777D01*
X71636777Y-54066875D01*
X71798000Y-53677648D01*
X71798000Y-53256352D01*
X71636777Y-52867125D01*
X71338875Y-52569223D01*
X70949648Y-52408000D01*
X70528352Y-52408000D01*
X70139125Y-52569223D01*
X69841223Y-52867125D01*
X69680000Y-53256352D01*
X69258000Y-53256352D01*
X69096777Y-52867125D01*
X68798875Y-52569223D01*
X68409648Y-52408000D01*
X67988352Y-52408000D01*
X67599125Y-52569223D01*
X67301223Y-52867125D01*
X67140000Y-53256352D01*
X66723818Y-53256352D01*
X66723818Y-52705000D01*
X66700767Y-52589117D01*
X66635125Y-52490875D01*
X66536883Y-52425233D01*
X66421000Y-52402182D01*
X64897000Y-52402182D01*
X64781117Y-52425233D01*
X64682875Y-52490875D01*
X64617233Y-52589117D01*
X64594182Y-52705000D01*
X63416000Y-52705000D01*
X63416000Y-47419625D01*
X65272476Y-45563150D01*
X65448352Y-45636000D01*
X65869648Y-45636000D01*
X66258875Y-45474777D01*
X66556777Y-45176875D01*
X66718000Y-44787648D01*
X66718000Y-44366352D01*
X67140000Y-44366352D01*
X67140000Y-44787648D01*
X67301223Y-45176875D01*
X67599125Y-45474777D01*
X67988352Y-45636000D01*
X68409648Y-45636000D01*
X68798875Y-45474777D01*
X69096777Y-45176875D01*
X69258000Y-44787648D01*
X69258000Y-44366352D01*
X69185150Y-44190475D01*
X84503627Y-28872000D01*
X85844374Y-28872000D01*
X71125525Y-43590850D01*
X70949648Y-43518000D01*
X70528352Y-43518000D01*
X70139125Y-43679223D01*
X69841223Y-43977125D01*
X69680000Y-44366352D01*
X69680000Y-44787648D01*
X69841223Y-45176875D01*
X70139125Y-45474777D01*
X70528352Y-45636000D01*
X70949648Y-45636000D01*
X71338875Y-45474777D01*
X71636777Y-45176875D01*
X71798000Y-44787648D01*
X71798000Y-44366352D01*
X71725150Y-44190475D01*
X86637216Y-29278410D01*
X87977964Y-29278410D01*
X73665525Y-43590850D01*
X73489648Y-43518000D01*
X73068352Y-43518000D01*
X72679125Y-43679223D01*
X72381223Y-43977125D01*
X72220000Y-44366352D01*
X72220000Y-44787648D01*
X72381223Y-45176875D01*
X72679125Y-45474777D01*
X73068352Y-45636000D01*
X73489648Y-45636000D01*
X73878875Y-45474777D01*
X74176777Y-45176875D01*
X74338000Y-44787648D01*
X74338000Y-44366352D01*
X74265150Y-44190475D01*
X88770806Y-29684820D01*
X90111554Y-29684820D01*
X76205525Y-43590850D01*
X76029648Y-43518000D01*
X75608352Y-43518000D01*
X75219125Y-43679223D01*
X74921223Y-43977125D01*
X74760000Y-44366352D01*
X74760000Y-44787648D01*
X74921223Y-45176875D01*
X75219125Y-45474777D01*
X75608352Y-45636000D01*
X76029648Y-45636000D01*
X76418875Y-45474777D01*
X76716777Y-45176875D01*
X76878000Y-44787648D01*
X76878000Y-44366352D01*
X76805150Y-44190475D01*
X90904396Y-30091230D01*
X92245144Y-30091230D01*
X78745525Y-43590850D01*
X78569648Y-43518000D01*
X78148352Y-43518000D01*
X77759125Y-43679223D01*
X77461223Y-43977125D01*
X77300000Y-44366352D01*
X77300000Y-44787648D01*
X77461223Y-45176875D01*
X77759125Y-45474777D01*
X78148352Y-45636000D01*
X78569648Y-45636000D01*
X78958875Y-45474777D01*
X79256777Y-45176875D01*
X79418000Y-44787648D01*
X79418000Y-44366352D01*
X79345150Y-44190475D01*
X93012626Y-30523000D01*
X94353373Y-30523000D01*
X81285525Y-43590850D01*
X81109648Y-43518000D01*
X80688352Y-43518000D01*
X80299125Y-43679223D01*
X80001223Y-43977125D01*
X79840000Y-44366352D01*
X79840000Y-44787648D01*
X80001223Y-45176875D01*
X80299125Y-45474777D01*
X80688352Y-45636000D01*
X81109648Y-45636000D01*
X81498875Y-45474777D01*
X81796777Y-45176875D01*
X81958000Y-44787648D01*
X81958000Y-44366352D01*
X81885150Y-44190475D01*
X95146206Y-30929421D01*
X96486953Y-30929421D01*
X83825525Y-43590850D01*
X83649648Y-43518000D01*
X83228352Y-43518000D01*
X82839125Y-43679223D01*
X82541223Y-43977125D01*
X82380000Y-44366352D01*
X82380000Y-44787648D01*
X82541223Y-45176875D01*
X82839125Y-45474777D01*
X83228352Y-45636000D01*
X83649648Y-45636000D01*
X84038875Y-45474777D01*
X84336777Y-45176875D01*
X84498000Y-44787648D01*
X84498000Y-44366352D01*
X84425150Y-44190475D01*
X91828623Y-36787002D01*
X99331000Y-36787002D01*
X99331000Y-38396998D01*
X99947119Y-39884441D01*
X101085559Y-41022881D01*
X102573002Y-41639000D01*
X104182998Y-41639000D01*
X105670441Y-41022881D01*
X106808881Y-39884441D01*
X107425000Y-38396998D01*
X107425000Y-36787002D01*
X106808881Y-35299559D01*
X105670441Y-34161119D01*
X104182998Y-33545000D01*
X102573002Y-33545000D01*
X101085559Y-34161119D01*
X99947119Y-35299559D01*
X99331000Y-36787002D01*
X91828623Y-36787002D01*
X97279795Y-31335831D01*
X114909159Y-31335829D01*
X114950920Y-31344136D01*
X115116356Y-31311228D01*
X115256607Y-31217516D01*
X115280263Y-31182112D01*
X116373693Y-30088683D01*
X116409097Y-30065027D01*
X116502809Y-29924776D01*
X116527410Y-29801097D01*
X116527410Y-29801096D01*
X116535716Y-29759340D01*
X116527410Y-29717584D01*
X116527410Y-26040555D01*
X116950000Y-26040555D01*
X116950000Y-26755445D01*
X117223577Y-27415919D01*
X117729081Y-27921423D01*
X118389555Y-28195000D01*
X119104445Y-28195000D01*
X119764919Y-27921423D01*
X120270423Y-27415919D01*
X120544000Y-26755445D01*
X120544000Y-26040555D01*
X120270423Y-25380081D01*
X119764919Y-24874577D01*
X119104445Y-24601000D01*
X118389555Y-24601000D01*
X117729081Y-24874577D01*
X117223577Y-25380081D01*
X116950000Y-26040555D01*
X116527410Y-26040555D01*
X116527410Y-24276165D01*
X116535716Y-24234409D01*
X116526521Y-24188184D01*
X116502809Y-24068974D01*
X116409097Y-23928723D01*
X116373693Y-23905067D01*
X115506343Y-23037718D01*
X115506339Y-23037712D01*
X115403966Y-22935339D01*
X115474000Y-22766261D01*
X115474000Y-22349739D01*
X115314604Y-21964922D01*
X115020078Y-21670396D01*
X114635261Y-21511000D01*
X114218739Y-21511000D01*
X113833922Y-21670396D01*
X113539396Y-21964922D01*
X113380000Y-22349739D01*
X113380000Y-22766261D01*
X113539396Y-23151078D01*
X113833922Y-23445604D01*
X114218739Y-23605000D01*
X114635261Y-23605000D01*
X114804339Y-23534966D01*
X114906712Y-23637339D01*
X114906718Y-23637343D01*
X115679411Y-24410037D01*
X115679411Y-26210785D01*
X115403965Y-25935340D01*
X115474000Y-25766261D01*
X115474000Y-25349739D01*
X115314604Y-24964922D01*
X115020078Y-24670396D01*
X114635261Y-24511000D01*
X114218739Y-24511000D01*
X113833922Y-24670396D01*
X113539396Y-24964922D01*
X113380000Y-25349739D01*
X113380000Y-25766261D01*
X113539396Y-26151078D01*
X113833922Y-26445604D01*
X114218739Y-26605000D01*
X114635261Y-26605000D01*
X114804340Y-26534965D01*
X115273001Y-27003627D01*
X115273001Y-27923319D01*
X115020078Y-27670396D01*
X114635261Y-27511000D01*
X114218739Y-27511000D01*
X113833922Y-27670396D01*
X113539396Y-27964922D01*
X113380000Y-28349739D01*
X113380000Y-28766261D01*
X113450035Y-28935340D01*
X113406717Y-28978658D01*
X113406714Y-28978660D01*
X112710375Y-29675000D01*
X110909626Y-29675000D01*
X111006340Y-29578286D01*
X111006342Y-29578283D01*
X111049660Y-29534965D01*
X111218739Y-29605000D01*
X111635261Y-29605000D01*
X112020078Y-29445604D01*
X112314604Y-29151078D01*
X112474000Y-28766261D01*
X112474000Y-28349739D01*
X112314604Y-27964922D01*
X112020078Y-27670396D01*
X111635261Y-27511000D01*
X111218739Y-27511000D01*
X110833922Y-27670396D01*
X110539396Y-27964922D01*
X110380000Y-28349739D01*
X110380000Y-28766261D01*
X110450035Y-28935340D01*
X110406717Y-28978658D01*
X110406714Y-28978660D01*
X110142145Y-29243230D01*
X108341395Y-29243230D01*
X111006341Y-26578286D01*
X111006345Y-26578280D01*
X111049660Y-26534965D01*
X111218739Y-26605000D01*
X111635261Y-26605000D01*
X112020078Y-26445604D01*
X112314604Y-26151078D01*
X112474000Y-25766261D01*
X112474000Y-25349739D01*
X112314604Y-24964922D01*
X112020078Y-24670396D01*
X111635261Y-24511000D01*
X111218739Y-24511000D01*
X110833922Y-24670396D01*
X110539396Y-24964922D01*
X110380000Y-25349739D01*
X110380000Y-25766261D01*
X110450035Y-25935340D01*
X110406720Y-25978655D01*
X110406714Y-25978659D01*
X107548555Y-28836820D01*
X105747805Y-28836820D01*
X111006341Y-23578286D01*
X111006345Y-23578280D01*
X111049660Y-23534965D01*
X111218739Y-23605000D01*
X111635261Y-23605000D01*
X112020078Y-23445604D01*
X112314604Y-23151078D01*
X112474000Y-22766261D01*
X112474000Y-22349739D01*
X112314604Y-21964922D01*
X112020078Y-21670396D01*
X111635261Y-21511000D01*
X111218739Y-21511000D01*
X110833922Y-21670396D01*
X110539396Y-21964922D01*
X110380000Y-22349739D01*
X110380000Y-22766261D01*
X110450035Y-22935340D01*
X110406720Y-22978655D01*
X110406714Y-22978659D01*
X104954965Y-28430410D01*
X104503215Y-28430410D01*
X105426283Y-27507343D01*
X105461687Y-27483687D01*
X105555399Y-27343436D01*
X105580000Y-27219757D01*
X105580000Y-27219756D01*
X105588306Y-27178001D01*
X105580000Y-27136245D01*
X105580000Y-23289625D01*
X107529070Y-21340555D01*
X116950000Y-21340555D01*
X116950000Y-22055445D01*
X117223577Y-22715919D01*
X117729081Y-23221423D01*
X118389555Y-23495000D01*
X119104445Y-23495000D01*
X119764919Y-23221423D01*
X120270423Y-22715919D01*
X120544000Y-22055445D01*
X120544000Y-21340555D01*
X120270423Y-20680081D01*
X119764919Y-20174577D01*
X119104445Y-19901000D01*
X118389555Y-19901000D01*
X117729081Y-20174577D01*
X117223577Y-20680081D01*
X116950000Y-21340555D01*
X107529070Y-21340555D01*
X108887626Y-19982000D01*
X110469362Y-19982000D01*
X110539396Y-20151078D01*
X110833922Y-20445604D01*
X111218739Y-20605000D01*
X111635261Y-20605000D01*
X112020078Y-20445604D01*
X112314604Y-20151078D01*
X112474000Y-19766261D01*
X112474000Y-19349739D01*
X112314604Y-18964922D01*
X112020078Y-18670396D01*
X111635261Y-18511000D01*
X111218739Y-18511000D01*
X110833922Y-18670396D01*
X110539396Y-18964922D01*
X110469362Y-19134000D01*
X108753755Y-19134000D01*
X108711999Y-19125694D01*
X108670243Y-19134000D01*
X108546564Y-19158601D01*
X108546563Y-19158602D01*
X108546562Y-19158602D01*
X108525544Y-19172646D01*
X108406313Y-19252313D01*
X108382657Y-19287717D01*
X104885718Y-22784657D01*
X104850314Y-22808313D01*
X104756602Y-22948564D01*
X104723694Y-23114000D01*
X104732001Y-23155761D01*
X104732000Y-27002374D01*
X103710375Y-28024000D01*
X84369760Y-28024000D01*
X84328000Y-28015693D01*
X84231849Y-28034820D01*
X84162564Y-28048601D01*
X84022313Y-28142313D01*
X83998659Y-28177714D01*
X68585525Y-43590850D01*
X68409648Y-43518000D01*
X67988352Y-43518000D01*
X67599125Y-43679223D01*
X67301223Y-43977125D01*
X67140000Y-44366352D01*
X66718000Y-44366352D01*
X66556777Y-43977125D01*
X66258875Y-43679223D01*
X65869648Y-43518000D01*
X65448352Y-43518000D01*
X65059125Y-43679223D01*
X64761223Y-43977125D01*
X64600000Y-44366352D01*
X64600000Y-44787648D01*
X64672850Y-44963524D01*
X62721718Y-46914657D01*
X62686314Y-46938313D01*
X62607178Y-47056750D01*
X62592602Y-47078564D01*
X62559694Y-47244000D01*
X62397000Y-47244000D01*
X62397000Y-32535555D01*
X67797000Y-32535555D01*
X67797000Y-33250445D01*
X68070577Y-33910919D01*
X68576081Y-34416423D01*
X69236555Y-34690000D01*
X69951445Y-34690000D01*
X70611919Y-34416423D01*
X71117423Y-33910919D01*
X71391000Y-33250445D01*
X71391000Y-32535555D01*
X71331952Y-32393000D01*
X72861182Y-32393000D01*
X72861182Y-33393000D01*
X72903263Y-33604554D01*
X73023099Y-33783901D01*
X73202446Y-33903737D01*
X73414000Y-33945818D01*
X74414000Y-33945818D01*
X74625554Y-33903737D01*
X74804901Y-33783901D01*
X74924737Y-33604554D01*
X74966818Y-33393000D01*
X74966818Y-32684739D01*
X75867000Y-32684739D01*
X75867000Y-33101261D01*
X76026396Y-33486078D01*
X76320922Y-33780604D01*
X76705739Y-33940000D01*
X77122261Y-33940000D01*
X77507078Y-33780604D01*
X77801604Y-33486078D01*
X77961000Y-33101261D01*
X77961000Y-32684739D01*
X77801604Y-32299922D01*
X77507078Y-32005396D01*
X77122261Y-31846000D01*
X76705739Y-31846000D01*
X76320922Y-32005396D01*
X76026396Y-32299922D01*
X75867000Y-32684739D01*
X74966818Y-32684739D01*
X74966818Y-32393000D01*
X74924737Y-32181446D01*
X74804901Y-32002099D01*
X74625554Y-31882263D01*
X74414000Y-31840182D01*
X73414000Y-31840182D01*
X73202446Y-31882263D01*
X73023099Y-32002099D01*
X72903263Y-32181446D01*
X72861182Y-32393000D01*
X71331952Y-32393000D01*
X71117423Y-31875081D01*
X70611919Y-31369577D01*
X69951445Y-31096000D01*
X69236555Y-31096000D01*
X68576081Y-31369577D01*
X68070577Y-31875081D01*
X67797000Y-32535555D01*
X62397000Y-32535555D01*
X62397000Y-26162000D01*
X93318529Y-26162000D01*
X93407550Y-26609537D01*
X93661059Y-26988941D01*
X94040463Y-27242450D01*
X94375031Y-27309000D01*
X94600969Y-27309000D01*
X94935537Y-27242450D01*
X95314941Y-26988941D01*
X95568450Y-26609537D01*
X95657471Y-26162000D01*
X95858529Y-26162000D01*
X95947550Y-26609537D01*
X96201059Y-26988941D01*
X96580463Y-27242450D01*
X96915031Y-27309000D01*
X97140969Y-27309000D01*
X97475537Y-27242450D01*
X97854941Y-26988941D01*
X98108450Y-26609537D01*
X98197471Y-26162000D01*
X98398529Y-26162000D01*
X98487550Y-26609537D01*
X98741059Y-26988941D01*
X99120463Y-27242450D01*
X99455031Y-27309000D01*
X99680969Y-27309000D01*
X100015537Y-27242450D01*
X100394941Y-26988941D01*
X100623000Y-26647626D01*
X100623000Y-27138309D01*
X100719673Y-27371698D01*
X100898301Y-27550327D01*
X101131690Y-27647000D01*
X101822250Y-27647000D01*
X101981000Y-27488250D01*
X101981000Y-26289000D01*
X102235000Y-26289000D01*
X102235000Y-27488250D01*
X102393750Y-27647000D01*
X103084310Y-27647000D01*
X103317699Y-27550327D01*
X103496327Y-27371698D01*
X103593000Y-27138309D01*
X103593000Y-26447750D01*
X103434250Y-26289000D01*
X102235000Y-26289000D01*
X101981000Y-26289000D01*
X101961000Y-26289000D01*
X101961000Y-26035000D01*
X101981000Y-26035000D01*
X101981000Y-24835750D01*
X102235000Y-24835750D01*
X102235000Y-26035000D01*
X103434250Y-26035000D01*
X103593000Y-25876250D01*
X103593000Y-25185691D01*
X103496327Y-24952302D01*
X103317699Y-24773673D01*
X103084310Y-24677000D01*
X102393750Y-24677000D01*
X102235000Y-24835750D01*
X101981000Y-24835750D01*
X101822250Y-24677000D01*
X101131690Y-24677000D01*
X100898301Y-24773673D01*
X100719673Y-24952302D01*
X100623000Y-25185691D01*
X100623000Y-25676374D01*
X100394941Y-25335059D01*
X100015537Y-25081550D01*
X99680969Y-25015000D01*
X99455031Y-25015000D01*
X99120463Y-25081550D01*
X98741059Y-25335059D01*
X98487550Y-25714463D01*
X98398529Y-26162000D01*
X98197471Y-26162000D01*
X98108450Y-25714463D01*
X97854941Y-25335059D01*
X97475537Y-25081550D01*
X97140969Y-25015000D01*
X96915031Y-25015000D01*
X96580463Y-25081550D01*
X96201059Y-25335059D01*
X95947550Y-25714463D01*
X95858529Y-26162000D01*
X95657471Y-26162000D01*
X95568450Y-25714463D01*
X95314941Y-25335059D01*
X94935537Y-25081550D01*
X94600969Y-25015000D01*
X94375031Y-25015000D01*
X94040463Y-25081550D01*
X93661059Y-25335059D01*
X93407550Y-25714463D01*
X93318529Y-26162000D01*
X62397000Y-26162000D01*
X62397000Y-22653555D01*
X67797000Y-22653555D01*
X67797000Y-23368445D01*
X68070577Y-24028919D01*
X68576081Y-24534423D01*
X69236555Y-24808000D01*
X69951445Y-24808000D01*
X70611919Y-24534423D01*
X71117423Y-24028919D01*
X71124845Y-24011000D01*
X72861182Y-24011000D01*
X72861182Y-25011000D01*
X72903263Y-25222554D01*
X73023099Y-25401901D01*
X73202446Y-25521737D01*
X73414000Y-25563818D01*
X74414000Y-25563818D01*
X74625554Y-25521737D01*
X74804901Y-25401901D01*
X74924737Y-25222554D01*
X74966818Y-25011000D01*
X74966818Y-24302739D01*
X75867000Y-24302739D01*
X75867000Y-24719261D01*
X76026396Y-25104078D01*
X76320922Y-25398604D01*
X76705739Y-25558000D01*
X77122261Y-25558000D01*
X77507078Y-25398604D01*
X77801604Y-25104078D01*
X77961000Y-24719261D01*
X77961000Y-24302739D01*
X77801604Y-23917922D01*
X77507078Y-23623396D01*
X77122261Y-23464000D01*
X76705739Y-23464000D01*
X76320922Y-23623396D01*
X76026396Y-23917922D01*
X75867000Y-24302739D01*
X74966818Y-24302739D01*
X74966818Y-24011000D01*
X74924737Y-23799446D01*
X74804901Y-23620099D01*
X74625554Y-23500263D01*
X74414000Y-23458182D01*
X73414000Y-23458182D01*
X73202446Y-23500263D01*
X73023099Y-23620099D01*
X72903263Y-23799446D01*
X72861182Y-24011000D01*
X71124845Y-24011000D01*
X71391000Y-23368445D01*
X71391000Y-22653555D01*
X71117423Y-21993081D01*
X70611919Y-21487577D01*
X70165681Y-21302739D01*
X72867000Y-21302739D01*
X72867000Y-21719261D01*
X73026396Y-22104078D01*
X73320922Y-22398604D01*
X73705739Y-22558000D01*
X74122261Y-22558000D01*
X74507078Y-22398604D01*
X74801604Y-22104078D01*
X74961000Y-21719261D01*
X74961000Y-21302739D01*
X75867000Y-21302739D01*
X75867000Y-21719261D01*
X76026396Y-22104078D01*
X76320922Y-22398604D01*
X76705739Y-22558000D01*
X77122261Y-22558000D01*
X77507078Y-22398604D01*
X77801604Y-22104078D01*
X77961000Y-21719261D01*
X77961000Y-21302739D01*
X77801604Y-20917922D01*
X77507078Y-20623396D01*
X77122261Y-20464000D01*
X76705739Y-20464000D01*
X76320922Y-20623396D01*
X76026396Y-20917922D01*
X75867000Y-21302739D01*
X74961000Y-21302739D01*
X74801604Y-20917922D01*
X74507078Y-20623396D01*
X74122261Y-20464000D01*
X73705739Y-20464000D01*
X73320922Y-20623396D01*
X73026396Y-20917922D01*
X72867000Y-21302739D01*
X70165681Y-21302739D01*
X69951445Y-21214000D01*
X69236555Y-21214000D01*
X68576081Y-21487577D01*
X68070577Y-21993081D01*
X67797000Y-22653555D01*
X62397000Y-22653555D01*
X62397000Y-15397000D01*
X124079000Y-15397000D01*
X124079000Y-98603000D01*
M02*
