G04 #@! TF.GenerationSoftware,KiCad,Pcbnew,(5.1.0)-1*
G04 #@! TF.CreationDate,2019-03-25T06:45:32-06:00*
G04 #@! TF.ProjectId,ParkingSystem,5061726b-696e-4675-9379-7374656d2e6b,v01*
G04 #@! TF.SameCoordinates,Original*
G04 #@! TF.FileFunction,Soldermask,Top*
G04 #@! TF.FilePolarity,Negative*
%FSLAX46Y46*%
G04 Gerber Fmt 4.6, Leading zero omitted, Abs format (unit mm)*
G04 Created by KiCad (PCBNEW (5.1.0)-1) date 2019-03-25 06:45:32*
%MOMM*%
%LPD*%
G04 APERTURE LIST*
%ADD10C,0.100000*%
G04 APERTURE END LIST*
D10*
G36*
X83531710Y-90706070D02*
G01*
X84223447Y-90992597D01*
X84421403Y-91124867D01*
X84845996Y-91408571D01*
X85375429Y-91938004D01*
X85568956Y-92227638D01*
X85791403Y-92560553D01*
X86077930Y-93252290D01*
X86224000Y-93986633D01*
X86224000Y-94735367D01*
X86077930Y-95469710D01*
X85791403Y-96161447D01*
X85791402Y-96161448D01*
X85375429Y-96783996D01*
X84845996Y-97313429D01*
X84430022Y-97591374D01*
X84223447Y-97729403D01*
X83531710Y-98015930D01*
X82797367Y-98162000D01*
X82048633Y-98162000D01*
X81314290Y-98015930D01*
X80622553Y-97729403D01*
X80415978Y-97591374D01*
X80000004Y-97313429D01*
X79470571Y-96783996D01*
X79054598Y-96161448D01*
X79054597Y-96161447D01*
X78768070Y-95469710D01*
X78622000Y-94735367D01*
X78622000Y-93986633D01*
X78768070Y-93252290D01*
X79054597Y-92560553D01*
X79277044Y-92227638D01*
X79470571Y-91938004D01*
X80000004Y-91408571D01*
X80424597Y-91124867D01*
X80622553Y-90992597D01*
X81314290Y-90706070D01*
X82048633Y-90560000D01*
X82797367Y-90560000D01*
X83531710Y-90706070D01*
X83531710Y-90706070D01*
G37*
G36*
X67026571Y-93436863D02*
G01*
X67105023Y-93444590D01*
X67205682Y-93475125D01*
X67256013Y-93490392D01*
X67395165Y-93564771D01*
X67517133Y-93664867D01*
X67617229Y-93786835D01*
X67691608Y-93925987D01*
X67706875Y-93976318D01*
X67737410Y-94076977D01*
X67752875Y-94234000D01*
X67737410Y-94391023D01*
X67706875Y-94491682D01*
X67691608Y-94542013D01*
X67617229Y-94681165D01*
X67517133Y-94803133D01*
X67395165Y-94903229D01*
X67256013Y-94977608D01*
X67205682Y-94992875D01*
X67105023Y-95023410D01*
X67026571Y-95031137D01*
X66987346Y-95035000D01*
X66108654Y-95035000D01*
X66069429Y-95031137D01*
X65990977Y-95023410D01*
X65890318Y-94992875D01*
X65839987Y-94977608D01*
X65700835Y-94903229D01*
X65578867Y-94803133D01*
X65478771Y-94681165D01*
X65404392Y-94542013D01*
X65389125Y-94491682D01*
X65358590Y-94391023D01*
X65343125Y-94234000D01*
X65358590Y-94076977D01*
X65389125Y-93976318D01*
X65404392Y-93925987D01*
X65478771Y-93786835D01*
X65578867Y-93664867D01*
X65700835Y-93564771D01*
X65839987Y-93490392D01*
X65890318Y-93475125D01*
X65990977Y-93444590D01*
X66069429Y-93436863D01*
X66108654Y-93433000D01*
X66987346Y-93433000D01*
X67026571Y-93436863D01*
X67026571Y-93436863D01*
G37*
G36*
X75040499Y-93775445D02*
G01*
X75077995Y-93786820D01*
X75112554Y-93805292D01*
X75142847Y-93830153D01*
X75167708Y-93860446D01*
X75186180Y-93895005D01*
X75197555Y-93932501D01*
X75202000Y-93977638D01*
X75202000Y-94716362D01*
X75197555Y-94761499D01*
X75186180Y-94798995D01*
X75167708Y-94833554D01*
X75142847Y-94863847D01*
X75112554Y-94888708D01*
X75077995Y-94907180D01*
X75040499Y-94918555D01*
X74995362Y-94923000D01*
X74356638Y-94923000D01*
X74311501Y-94918555D01*
X74274005Y-94907180D01*
X74239446Y-94888708D01*
X74209153Y-94863847D01*
X74184292Y-94833554D01*
X74165820Y-94798995D01*
X74154445Y-94761499D01*
X74150000Y-94716362D01*
X74150000Y-93977638D01*
X74154445Y-93932501D01*
X74165820Y-93895005D01*
X74184292Y-93860446D01*
X74209153Y-93830153D01*
X74239446Y-93805292D01*
X74274005Y-93786820D01*
X74311501Y-93775445D01*
X74356638Y-93771000D01*
X74995362Y-93771000D01*
X75040499Y-93775445D01*
X75040499Y-93775445D01*
G37*
G36*
X75040499Y-92025445D02*
G01*
X75077995Y-92036820D01*
X75112554Y-92055292D01*
X75142847Y-92080153D01*
X75167708Y-92110446D01*
X75186180Y-92145005D01*
X75197555Y-92182501D01*
X75202000Y-92227638D01*
X75202000Y-92966362D01*
X75197555Y-93011499D01*
X75186180Y-93048995D01*
X75167708Y-93083554D01*
X75142847Y-93113847D01*
X75112554Y-93138708D01*
X75077995Y-93157180D01*
X75040499Y-93168555D01*
X74995362Y-93173000D01*
X74356638Y-93173000D01*
X74311501Y-93168555D01*
X74274005Y-93157180D01*
X74239446Y-93138708D01*
X74209153Y-93113847D01*
X74184292Y-93083554D01*
X74165820Y-93048995D01*
X74154445Y-93011499D01*
X74150000Y-92966362D01*
X74150000Y-92227638D01*
X74154445Y-92182501D01*
X74165820Y-92145005D01*
X74184292Y-92110446D01*
X74209153Y-92080153D01*
X74239446Y-92055292D01*
X74274005Y-92036820D01*
X74311501Y-92025445D01*
X74356638Y-92021000D01*
X74995362Y-92021000D01*
X75040499Y-92025445D01*
X75040499Y-92025445D01*
G37*
G36*
X67026571Y-90896863D02*
G01*
X67105023Y-90904590D01*
X67205682Y-90935125D01*
X67256013Y-90950392D01*
X67395165Y-91024771D01*
X67517133Y-91124867D01*
X67617229Y-91246835D01*
X67691608Y-91385987D01*
X67706875Y-91436318D01*
X67737410Y-91536977D01*
X67752875Y-91694000D01*
X67737410Y-91851023D01*
X67711025Y-91938004D01*
X67691608Y-92002013D01*
X67617229Y-92141165D01*
X67517133Y-92263133D01*
X67395165Y-92363229D01*
X67256013Y-92437608D01*
X67205682Y-92452875D01*
X67105023Y-92483410D01*
X67026571Y-92491137D01*
X66987346Y-92495000D01*
X66108654Y-92495000D01*
X66069429Y-92491137D01*
X65990977Y-92483410D01*
X65890318Y-92452875D01*
X65839987Y-92437608D01*
X65700835Y-92363229D01*
X65578867Y-92263133D01*
X65478771Y-92141165D01*
X65404392Y-92002013D01*
X65384975Y-91938004D01*
X65358590Y-91851023D01*
X65343125Y-91694000D01*
X65358590Y-91536977D01*
X65389125Y-91436318D01*
X65404392Y-91385987D01*
X65478771Y-91246835D01*
X65578867Y-91124867D01*
X65700835Y-91024771D01*
X65839987Y-90950392D01*
X65890318Y-90935125D01*
X65990977Y-90904590D01*
X66069429Y-90896863D01*
X66108654Y-90893000D01*
X66987346Y-90893000D01*
X67026571Y-90896863D01*
X67026571Y-90896863D01*
G37*
G36*
X75040499Y-89711445D02*
G01*
X75077995Y-89722820D01*
X75112554Y-89741292D01*
X75142847Y-89766153D01*
X75167708Y-89796446D01*
X75186180Y-89831005D01*
X75197555Y-89868501D01*
X75202000Y-89913638D01*
X75202000Y-90652362D01*
X75197555Y-90697499D01*
X75186180Y-90734995D01*
X75167708Y-90769554D01*
X75142847Y-90799847D01*
X75112554Y-90824708D01*
X75077995Y-90843180D01*
X75040499Y-90854555D01*
X74995362Y-90859000D01*
X74356638Y-90859000D01*
X74311501Y-90854555D01*
X74274005Y-90843180D01*
X74239446Y-90824708D01*
X74209153Y-90799847D01*
X74184292Y-90769554D01*
X74165820Y-90734995D01*
X74154445Y-90697499D01*
X74150000Y-90652362D01*
X74150000Y-89913638D01*
X74154445Y-89868501D01*
X74165820Y-89831005D01*
X74184292Y-89796446D01*
X74209153Y-89766153D01*
X74239446Y-89741292D01*
X74274005Y-89722820D01*
X74311501Y-89711445D01*
X74356638Y-89707000D01*
X74995362Y-89707000D01*
X75040499Y-89711445D01*
X75040499Y-89711445D01*
G37*
G36*
X67749000Y-89955000D02*
G01*
X65347000Y-89955000D01*
X65347000Y-88353000D01*
X67749000Y-88353000D01*
X67749000Y-89955000D01*
X67749000Y-89955000D01*
G37*
G36*
X75040499Y-87961445D02*
G01*
X75077995Y-87972820D01*
X75112554Y-87991292D01*
X75142847Y-88016153D01*
X75167708Y-88046446D01*
X75186180Y-88081005D01*
X75197555Y-88118501D01*
X75202000Y-88163638D01*
X75202000Y-88902362D01*
X75197555Y-88947499D01*
X75186180Y-88984995D01*
X75167708Y-89019554D01*
X75142847Y-89049847D01*
X75112554Y-89074708D01*
X75077995Y-89093180D01*
X75040499Y-89104555D01*
X74995362Y-89109000D01*
X74356638Y-89109000D01*
X74311501Y-89104555D01*
X74274005Y-89093180D01*
X74239446Y-89074708D01*
X74209153Y-89049847D01*
X74184292Y-89019554D01*
X74165820Y-88984995D01*
X74154445Y-88947499D01*
X74150000Y-88902362D01*
X74150000Y-88163638D01*
X74154445Y-88118501D01*
X74165820Y-88081005D01*
X74184292Y-88046446D01*
X74209153Y-88016153D01*
X74239446Y-87991292D01*
X74274005Y-87972820D01*
X74311501Y-87961445D01*
X74356638Y-87957000D01*
X74995362Y-87957000D01*
X75040499Y-87961445D01*
X75040499Y-87961445D01*
G37*
G36*
X92133000Y-86653000D02*
G01*
X89731000Y-86653000D01*
X89731000Y-85051000D01*
X92133000Y-85051000D01*
X92133000Y-86653000D01*
X92133000Y-86653000D01*
G37*
G36*
X118931564Y-84587389D02*
G01*
X119122833Y-84666615D01*
X119122835Y-84666616D01*
X119212251Y-84726362D01*
X119294973Y-84781635D01*
X119441365Y-84928027D01*
X119556385Y-85100167D01*
X119635611Y-85291436D01*
X119676000Y-85494484D01*
X119676000Y-85701516D01*
X119635611Y-85904564D01*
X119586139Y-86024000D01*
X119556384Y-86095835D01*
X119441365Y-86267973D01*
X119294973Y-86414365D01*
X119122835Y-86529384D01*
X119122834Y-86529385D01*
X119122833Y-86529385D01*
X118931564Y-86608611D01*
X118728516Y-86649000D01*
X118521484Y-86649000D01*
X118318436Y-86608611D01*
X118127167Y-86529385D01*
X118127166Y-86529385D01*
X118127165Y-86529384D01*
X117955027Y-86414365D01*
X117808635Y-86267973D01*
X117693616Y-86095835D01*
X117663861Y-86024000D01*
X117614389Y-85904564D01*
X117574000Y-85701516D01*
X117574000Y-85494484D01*
X117614389Y-85291436D01*
X117693615Y-85100167D01*
X117808635Y-84928027D01*
X117955027Y-84781635D01*
X118037749Y-84726362D01*
X118127165Y-84666616D01*
X118127167Y-84666615D01*
X118318436Y-84587389D01*
X118521484Y-84547000D01*
X118728516Y-84547000D01*
X118931564Y-84587389D01*
X118931564Y-84587389D01*
G37*
G36*
X103931564Y-84587389D02*
G01*
X104122833Y-84666615D01*
X104122835Y-84666616D01*
X104212251Y-84726362D01*
X104294973Y-84781635D01*
X104441365Y-84928027D01*
X104556385Y-85100167D01*
X104635611Y-85291436D01*
X104676000Y-85494484D01*
X104676000Y-85701516D01*
X104635611Y-85904564D01*
X104586139Y-86024000D01*
X104556384Y-86095835D01*
X104441365Y-86267973D01*
X104294973Y-86414365D01*
X104122835Y-86529384D01*
X104122834Y-86529385D01*
X104122833Y-86529385D01*
X103931564Y-86608611D01*
X103728516Y-86649000D01*
X103521484Y-86649000D01*
X103318436Y-86608611D01*
X103127167Y-86529385D01*
X103127166Y-86529385D01*
X103127165Y-86529384D01*
X102955027Y-86414365D01*
X102808635Y-86267973D01*
X102693616Y-86095835D01*
X102663861Y-86024000D01*
X102614389Y-85904564D01*
X102574000Y-85701516D01*
X102574000Y-85494484D01*
X102614389Y-85291436D01*
X102693615Y-85100167D01*
X102808635Y-84928027D01*
X102955027Y-84781635D01*
X103037749Y-84726362D01*
X103127165Y-84666616D01*
X103127167Y-84666615D01*
X103318436Y-84587389D01*
X103521484Y-84547000D01*
X103728516Y-84547000D01*
X103931564Y-84587389D01*
X103931564Y-84587389D01*
G37*
G36*
X94598499Y-85139445D02*
G01*
X94635995Y-85150820D01*
X94670554Y-85169292D01*
X94700847Y-85194153D01*
X94725708Y-85224446D01*
X94744180Y-85259005D01*
X94755555Y-85296501D01*
X94760000Y-85341638D01*
X94760000Y-86080362D01*
X94755555Y-86125499D01*
X94744180Y-86162995D01*
X94725708Y-86197554D01*
X94700847Y-86227847D01*
X94670554Y-86252708D01*
X94635995Y-86271180D01*
X94598499Y-86282555D01*
X94553362Y-86287000D01*
X93914638Y-86287000D01*
X93869501Y-86282555D01*
X93832005Y-86271180D01*
X93797446Y-86252708D01*
X93767153Y-86227847D01*
X93742292Y-86197554D01*
X93723820Y-86162995D01*
X93712445Y-86125499D01*
X93708000Y-86080362D01*
X93708000Y-85341638D01*
X93712445Y-85296501D01*
X93723820Y-85259005D01*
X93742292Y-85224446D01*
X93767153Y-85194153D01*
X93797446Y-85169292D01*
X93832005Y-85150820D01*
X93869501Y-85139445D01*
X93914638Y-85135000D01*
X94553362Y-85135000D01*
X94598499Y-85139445D01*
X94598499Y-85139445D01*
G37*
G36*
X76351537Y-82585472D02*
G01*
X76437556Y-82593944D01*
X76658290Y-82660903D01*
X76658293Y-82660904D01*
X76861719Y-82769638D01*
X77040028Y-82915972D01*
X77186362Y-83094281D01*
X77295096Y-83297707D01*
X77295097Y-83297710D01*
X77362056Y-83518444D01*
X77384665Y-83748000D01*
X77362056Y-83977556D01*
X77338379Y-84055608D01*
X77295096Y-84198293D01*
X77186362Y-84401719D01*
X77040028Y-84580028D01*
X76861719Y-84726362D01*
X76658293Y-84835096D01*
X76658290Y-84835097D01*
X76437556Y-84902056D01*
X76351537Y-84910528D01*
X76265520Y-84919000D01*
X73990480Y-84919000D01*
X73904463Y-84910528D01*
X73818444Y-84902056D01*
X73597710Y-84835097D01*
X73597707Y-84835096D01*
X73394281Y-84726362D01*
X73215972Y-84580028D01*
X73069638Y-84401719D01*
X72960904Y-84198293D01*
X72917621Y-84055608D01*
X72893944Y-83977556D01*
X72871335Y-83748000D01*
X72893944Y-83518444D01*
X72960903Y-83297710D01*
X72960904Y-83297707D01*
X73069638Y-83094281D01*
X73215972Y-82915972D01*
X73394281Y-82769638D01*
X73597707Y-82660904D01*
X73597710Y-82660903D01*
X73818444Y-82593944D01*
X73904463Y-82585472D01*
X73990480Y-82577000D01*
X76265520Y-82577000D01*
X76351537Y-82585472D01*
X76351537Y-82585472D01*
G37*
G36*
X94598499Y-83389445D02*
G01*
X94635995Y-83400820D01*
X94670554Y-83419292D01*
X94700847Y-83444153D01*
X94725708Y-83474446D01*
X94744180Y-83509005D01*
X94755555Y-83546501D01*
X94760000Y-83591638D01*
X94760000Y-84330362D01*
X94755555Y-84375499D01*
X94744180Y-84412995D01*
X94725708Y-84447554D01*
X94700847Y-84477847D01*
X94670554Y-84502708D01*
X94635995Y-84521180D01*
X94598499Y-84532555D01*
X94553362Y-84537000D01*
X93914638Y-84537000D01*
X93869501Y-84532555D01*
X93832005Y-84521180D01*
X93797446Y-84502708D01*
X93767153Y-84477847D01*
X93742292Y-84447554D01*
X93723820Y-84412995D01*
X93712445Y-84375499D01*
X93708000Y-84330362D01*
X93708000Y-83591638D01*
X93712445Y-83546501D01*
X93723820Y-83509005D01*
X93742292Y-83474446D01*
X93767153Y-83444153D01*
X93797446Y-83419292D01*
X93832005Y-83400820D01*
X93869501Y-83389445D01*
X93914638Y-83385000D01*
X94553362Y-83385000D01*
X94598499Y-83389445D01*
X94598499Y-83389445D01*
G37*
G36*
X91410571Y-82514863D02*
G01*
X91489023Y-82522590D01*
X91589682Y-82553125D01*
X91640013Y-82568392D01*
X91779165Y-82642771D01*
X91901133Y-82742867D01*
X92001229Y-82864835D01*
X92075608Y-83003987D01*
X92075608Y-83003988D01*
X92121410Y-83154977D01*
X92136875Y-83312000D01*
X92121410Y-83469023D01*
X92090875Y-83569682D01*
X92075608Y-83620013D01*
X92001229Y-83759165D01*
X91901133Y-83881133D01*
X91779165Y-83981229D01*
X91640013Y-84055608D01*
X91589682Y-84070875D01*
X91489023Y-84101410D01*
X91410571Y-84109137D01*
X91371346Y-84113000D01*
X90492654Y-84113000D01*
X90453429Y-84109137D01*
X90374977Y-84101410D01*
X90274318Y-84070875D01*
X90223987Y-84055608D01*
X90084835Y-83981229D01*
X89962867Y-83881133D01*
X89862771Y-83759165D01*
X89788392Y-83620013D01*
X89773125Y-83569682D01*
X89742590Y-83469023D01*
X89727125Y-83312000D01*
X89742590Y-83154977D01*
X89788392Y-83003988D01*
X89788392Y-83003987D01*
X89862771Y-82864835D01*
X89962867Y-82742867D01*
X90084835Y-82642771D01*
X90223987Y-82568392D01*
X90274318Y-82553125D01*
X90374977Y-82522590D01*
X90453429Y-82514863D01*
X90492654Y-82511000D01*
X91371346Y-82511000D01*
X91410571Y-82514863D01*
X91410571Y-82514863D01*
G37*
G36*
X72357555Y-76763944D02*
G01*
X72578289Y-76830903D01*
X72578292Y-76830904D01*
X72781718Y-76939638D01*
X72781720Y-76939639D01*
X72781719Y-76939639D01*
X72960028Y-77085972D01*
X73080121Y-77232306D01*
X73106362Y-77264281D01*
X73215096Y-77467707D01*
X73215096Y-77467708D01*
X73215097Y-77467710D01*
X73282056Y-77688444D01*
X73299000Y-77860482D01*
X73299000Y-80635518D01*
X73282056Y-80807556D01*
X73245210Y-80929021D01*
X73215096Y-81028293D01*
X73106362Y-81231719D01*
X72960028Y-81410028D01*
X72781719Y-81556362D01*
X72578293Y-81665096D01*
X72578290Y-81665097D01*
X72357556Y-81732056D01*
X72128000Y-81754665D01*
X71898445Y-81732056D01*
X71677711Y-81665097D01*
X71677708Y-81665096D01*
X71474282Y-81556362D01*
X71295973Y-81410028D01*
X71149639Y-81231719D01*
X71040905Y-81028293D01*
X71010791Y-80929021D01*
X70973945Y-80807556D01*
X70957001Y-80635518D01*
X70957000Y-77860483D01*
X70973944Y-77688445D01*
X71040903Y-77467711D01*
X71040904Y-77467708D01*
X71149638Y-77264282D01*
X71171890Y-77237168D01*
X71295972Y-77085972D01*
X71474280Y-76939639D01*
X71474279Y-76939639D01*
X71474281Y-76939638D01*
X71677707Y-76830904D01*
X71677710Y-76830903D01*
X71898444Y-76763944D01*
X72128000Y-76741335D01*
X72357555Y-76763944D01*
X72357555Y-76763944D01*
G37*
G36*
X78357555Y-76763944D02*
G01*
X78578289Y-76830903D01*
X78578292Y-76830904D01*
X78781718Y-76939638D01*
X78781720Y-76939639D01*
X78781719Y-76939639D01*
X78960028Y-77085972D01*
X79080121Y-77232306D01*
X79106362Y-77264281D01*
X79215096Y-77467707D01*
X79215096Y-77467708D01*
X79215097Y-77467710D01*
X79282056Y-77688444D01*
X79299000Y-77860482D01*
X79299000Y-80635518D01*
X79282056Y-80807556D01*
X79245210Y-80929021D01*
X79215096Y-81028293D01*
X79106362Y-81231719D01*
X78960028Y-81410028D01*
X78781719Y-81556362D01*
X78578293Y-81665096D01*
X78578290Y-81665097D01*
X78357556Y-81732056D01*
X78128000Y-81754665D01*
X77898445Y-81732056D01*
X77677711Y-81665097D01*
X77677708Y-81665096D01*
X77474282Y-81556362D01*
X77295973Y-81410028D01*
X77149639Y-81231719D01*
X77040905Y-81028293D01*
X77010791Y-80929021D01*
X76973945Y-80807556D01*
X76957001Y-80635518D01*
X76957000Y-77860483D01*
X76973944Y-77688445D01*
X77040903Y-77467711D01*
X77040904Y-77467708D01*
X77149638Y-77264282D01*
X77171890Y-77237168D01*
X77295972Y-77085972D01*
X77474280Y-76939639D01*
X77474279Y-76939639D01*
X77474281Y-76939638D01*
X77677707Y-76830904D01*
X77677710Y-76830903D01*
X77898444Y-76763944D01*
X78128000Y-76741335D01*
X78357555Y-76763944D01*
X78357555Y-76763944D01*
G37*
G36*
X91410571Y-79974863D02*
G01*
X91489023Y-79982590D01*
X91589682Y-80013125D01*
X91640013Y-80028392D01*
X91779165Y-80102771D01*
X91901133Y-80202867D01*
X92001229Y-80324835D01*
X92075608Y-80463987D01*
X92075608Y-80463988D01*
X92121410Y-80614977D01*
X92136875Y-80772000D01*
X92121410Y-80929023D01*
X92091298Y-81028290D01*
X92075608Y-81080013D01*
X92001229Y-81219165D01*
X91901133Y-81341133D01*
X91779165Y-81441229D01*
X91640013Y-81515608D01*
X91589682Y-81530875D01*
X91489023Y-81561410D01*
X91410571Y-81569137D01*
X91371346Y-81573000D01*
X90492654Y-81573000D01*
X90453429Y-81569137D01*
X90374977Y-81561410D01*
X90274318Y-81530875D01*
X90223987Y-81515608D01*
X90084835Y-81441229D01*
X89962867Y-81341133D01*
X89862771Y-81219165D01*
X89788392Y-81080013D01*
X89772702Y-81028290D01*
X89742590Y-80929023D01*
X89727125Y-80772000D01*
X89742590Y-80614977D01*
X89788392Y-80463988D01*
X89788392Y-80463987D01*
X89862771Y-80324835D01*
X89962867Y-80202867D01*
X90084835Y-80102771D01*
X90223987Y-80028392D01*
X90274318Y-80013125D01*
X90374977Y-79982590D01*
X90453429Y-79974863D01*
X90492654Y-79971000D01*
X91371346Y-79971000D01*
X91410571Y-79974863D01*
X91410571Y-79974863D01*
G37*
G36*
X96274000Y-81411000D02*
G01*
X95242000Y-81411000D01*
X95242000Y-80709000D01*
X96274000Y-80709000D01*
X96274000Y-81411000D01*
X96274000Y-81411000D01*
G37*
G36*
X97224000Y-79311000D02*
G01*
X96192000Y-79311000D01*
X96192000Y-78609000D01*
X97224000Y-78609000D01*
X97224000Y-79311000D01*
X97224000Y-79311000D01*
G37*
G36*
X95324000Y-79311000D02*
G01*
X94292000Y-79311000D01*
X94292000Y-78609000D01*
X95324000Y-78609000D01*
X95324000Y-79311000D01*
X95324000Y-79311000D01*
G37*
G36*
X95225000Y-76103000D02*
G01*
X93573000Y-76103000D01*
X93573000Y-74701000D01*
X95225000Y-74701000D01*
X95225000Y-76103000D01*
X95225000Y-76103000D01*
G37*
G36*
X87275000Y-76103000D02*
G01*
X85623000Y-76103000D01*
X85623000Y-74701000D01*
X87275000Y-74701000D01*
X87275000Y-76103000D01*
X87275000Y-76103000D01*
G37*
G36*
X99678499Y-74725445D02*
G01*
X99715995Y-74736820D01*
X99750554Y-74755292D01*
X99780847Y-74780153D01*
X99805708Y-74810446D01*
X99824180Y-74845005D01*
X99835555Y-74882501D01*
X99840000Y-74927638D01*
X99840000Y-75666362D01*
X99835555Y-75711499D01*
X99824180Y-75748995D01*
X99805708Y-75783554D01*
X99780847Y-75813847D01*
X99750554Y-75838708D01*
X99715995Y-75857180D01*
X99678499Y-75868555D01*
X99633362Y-75873000D01*
X98994638Y-75873000D01*
X98949501Y-75868555D01*
X98912005Y-75857180D01*
X98877446Y-75838708D01*
X98847153Y-75813847D01*
X98822292Y-75783554D01*
X98803820Y-75748995D01*
X98792445Y-75711499D01*
X98788000Y-75666362D01*
X98788000Y-74927638D01*
X98792445Y-74882501D01*
X98803820Y-74845005D01*
X98822292Y-74810446D01*
X98847153Y-74780153D01*
X98877446Y-74755292D01*
X98912005Y-74736820D01*
X98949501Y-74725445D01*
X98994638Y-74721000D01*
X99633362Y-74721000D01*
X99678499Y-74725445D01*
X99678499Y-74725445D01*
G37*
G36*
X96884499Y-74217445D02*
G01*
X96921995Y-74228820D01*
X96956554Y-74247292D01*
X96986847Y-74272153D01*
X97011708Y-74302446D01*
X97030180Y-74337005D01*
X97041555Y-74374501D01*
X97046000Y-74419638D01*
X97046000Y-75158362D01*
X97041555Y-75203499D01*
X97030180Y-75240995D01*
X97011708Y-75275554D01*
X96986847Y-75305847D01*
X96956554Y-75330708D01*
X96921995Y-75349180D01*
X96884499Y-75360555D01*
X96839362Y-75365000D01*
X96200638Y-75365000D01*
X96155501Y-75360555D01*
X96118005Y-75349180D01*
X96083446Y-75330708D01*
X96053153Y-75305847D01*
X96028292Y-75275554D01*
X96009820Y-75240995D01*
X95998445Y-75203499D01*
X95994000Y-75158362D01*
X95994000Y-74419638D01*
X95998445Y-74374501D01*
X96009820Y-74337005D01*
X96028292Y-74302446D01*
X96053153Y-74272153D01*
X96083446Y-74247292D01*
X96118005Y-74228820D01*
X96155501Y-74217445D01*
X96200638Y-74213000D01*
X96839362Y-74213000D01*
X96884499Y-74217445D01*
X96884499Y-74217445D01*
G37*
G36*
X99678499Y-72975445D02*
G01*
X99715995Y-72986820D01*
X99750554Y-73005292D01*
X99780847Y-73030153D01*
X99805708Y-73060446D01*
X99824180Y-73095005D01*
X99835555Y-73132501D01*
X99840000Y-73177638D01*
X99840000Y-73916362D01*
X99835555Y-73961499D01*
X99824180Y-73998995D01*
X99805708Y-74033554D01*
X99780847Y-74063847D01*
X99750554Y-74088708D01*
X99715995Y-74107180D01*
X99678499Y-74118555D01*
X99633362Y-74123000D01*
X98994638Y-74123000D01*
X98949501Y-74118555D01*
X98912005Y-74107180D01*
X98877446Y-74088708D01*
X98847153Y-74063847D01*
X98822292Y-74033554D01*
X98803820Y-73998995D01*
X98792445Y-73961499D01*
X98788000Y-73916362D01*
X98788000Y-73177638D01*
X98792445Y-73132501D01*
X98803820Y-73095005D01*
X98822292Y-73060446D01*
X98847153Y-73030153D01*
X98877446Y-73005292D01*
X98912005Y-72986820D01*
X98949501Y-72975445D01*
X98994638Y-72971000D01*
X99633362Y-72971000D01*
X99678499Y-72975445D01*
X99678499Y-72975445D01*
G37*
G36*
X96884499Y-72467445D02*
G01*
X96921995Y-72478820D01*
X96956554Y-72497292D01*
X96986847Y-72522153D01*
X97011708Y-72552446D01*
X97030180Y-72587005D01*
X97041555Y-72624501D01*
X97046000Y-72669638D01*
X97046000Y-73408362D01*
X97041555Y-73453499D01*
X97030180Y-73490995D01*
X97011708Y-73525554D01*
X96986847Y-73555847D01*
X96956554Y-73580708D01*
X96921995Y-73599180D01*
X96884499Y-73610555D01*
X96839362Y-73615000D01*
X96200638Y-73615000D01*
X96155501Y-73610555D01*
X96118005Y-73599180D01*
X96083446Y-73580708D01*
X96053153Y-73555847D01*
X96028292Y-73525554D01*
X96009820Y-73490995D01*
X95998445Y-73453499D01*
X95994000Y-73408362D01*
X95994000Y-72669638D01*
X95998445Y-72624501D01*
X96009820Y-72587005D01*
X96028292Y-72552446D01*
X96053153Y-72522153D01*
X96083446Y-72497292D01*
X96118005Y-72478820D01*
X96155501Y-72467445D01*
X96200638Y-72463000D01*
X96839362Y-72463000D01*
X96884499Y-72467445D01*
X96884499Y-72467445D01*
G37*
G36*
X117440710Y-65052070D02*
G01*
X118132447Y-65338597D01*
X118132448Y-65338598D01*
X118754996Y-65754571D01*
X119284429Y-66284004D01*
X119491993Y-66594646D01*
X119700403Y-66906553D01*
X119986930Y-67598290D01*
X120133000Y-68332633D01*
X120133000Y-69081367D01*
X119986930Y-69815710D01*
X119700403Y-70507447D01*
X119628205Y-70615499D01*
X119284429Y-71129996D01*
X118754996Y-71659429D01*
X118427134Y-71878499D01*
X118132447Y-72075403D01*
X117440710Y-72361930D01*
X116706367Y-72508000D01*
X115957633Y-72508000D01*
X115223290Y-72361930D01*
X114531553Y-72075403D01*
X114236866Y-71878499D01*
X113909004Y-71659429D01*
X113379571Y-71129996D01*
X113035795Y-70615499D01*
X112963597Y-70507447D01*
X112677070Y-69815710D01*
X112531000Y-69081367D01*
X112531000Y-68332633D01*
X112677070Y-67598290D01*
X112963597Y-66906553D01*
X113172007Y-66594646D01*
X113379571Y-66284004D01*
X113909004Y-65754571D01*
X114531552Y-65338598D01*
X114531553Y-65338597D01*
X115223290Y-65052070D01*
X115957633Y-64906000D01*
X116706367Y-64906000D01*
X117440710Y-65052070D01*
X117440710Y-65052070D01*
G37*
G36*
X80755142Y-70465242D02*
G01*
X80903101Y-70526529D01*
X81036255Y-70615499D01*
X81149501Y-70728745D01*
X81238471Y-70861899D01*
X81299758Y-71009858D01*
X81331000Y-71166925D01*
X81331000Y-71327075D01*
X81299758Y-71484142D01*
X81238471Y-71632101D01*
X81149501Y-71765255D01*
X81036255Y-71878501D01*
X80903101Y-71967471D01*
X80755142Y-72028758D01*
X80598075Y-72060000D01*
X80437925Y-72060000D01*
X80280858Y-72028758D01*
X80132899Y-71967471D01*
X79999745Y-71878501D01*
X79886499Y-71765255D01*
X79797529Y-71632101D01*
X79736242Y-71484142D01*
X79705000Y-71327075D01*
X79705000Y-71166925D01*
X79736242Y-71009858D01*
X79797529Y-70861899D01*
X79886499Y-70728745D01*
X79999745Y-70615499D01*
X80132899Y-70526529D01*
X80280858Y-70465242D01*
X80437925Y-70434000D01*
X80598075Y-70434000D01*
X80755142Y-70465242D01*
X80755142Y-70465242D01*
G37*
G36*
X66091000Y-72060000D02*
G01*
X64465000Y-72060000D01*
X64465000Y-70434000D01*
X66091000Y-70434000D01*
X66091000Y-72060000D01*
X66091000Y-72060000D01*
G37*
G36*
X68055142Y-70465242D02*
G01*
X68203101Y-70526529D01*
X68336255Y-70615499D01*
X68449501Y-70728745D01*
X68538471Y-70861899D01*
X68599758Y-71009858D01*
X68631000Y-71166925D01*
X68631000Y-71327075D01*
X68599758Y-71484142D01*
X68538471Y-71632101D01*
X68449501Y-71765255D01*
X68336255Y-71878501D01*
X68203101Y-71967471D01*
X68055142Y-72028758D01*
X67898075Y-72060000D01*
X67737925Y-72060000D01*
X67580858Y-72028758D01*
X67432899Y-71967471D01*
X67299745Y-71878501D01*
X67186499Y-71765255D01*
X67097529Y-71632101D01*
X67036242Y-71484142D01*
X67005000Y-71327075D01*
X67005000Y-71166925D01*
X67036242Y-71009858D01*
X67097529Y-70861899D01*
X67186499Y-70728745D01*
X67299745Y-70615499D01*
X67432899Y-70526529D01*
X67580858Y-70465242D01*
X67737925Y-70434000D01*
X67898075Y-70434000D01*
X68055142Y-70465242D01*
X68055142Y-70465242D01*
G37*
G36*
X70595142Y-70465242D02*
G01*
X70743101Y-70526529D01*
X70876255Y-70615499D01*
X70989501Y-70728745D01*
X71078471Y-70861899D01*
X71139758Y-71009858D01*
X71171000Y-71166925D01*
X71171000Y-71327075D01*
X71139758Y-71484142D01*
X71078471Y-71632101D01*
X70989501Y-71765255D01*
X70876255Y-71878501D01*
X70743101Y-71967471D01*
X70595142Y-72028758D01*
X70438075Y-72060000D01*
X70277925Y-72060000D01*
X70120858Y-72028758D01*
X69972899Y-71967471D01*
X69839745Y-71878501D01*
X69726499Y-71765255D01*
X69637529Y-71632101D01*
X69576242Y-71484142D01*
X69545000Y-71327075D01*
X69545000Y-71166925D01*
X69576242Y-71009858D01*
X69637529Y-70861899D01*
X69726499Y-70728745D01*
X69839745Y-70615499D01*
X69972899Y-70526529D01*
X70120858Y-70465242D01*
X70277925Y-70434000D01*
X70438075Y-70434000D01*
X70595142Y-70465242D01*
X70595142Y-70465242D01*
G37*
G36*
X75675142Y-70465242D02*
G01*
X75823101Y-70526529D01*
X75956255Y-70615499D01*
X76069501Y-70728745D01*
X76158471Y-70861899D01*
X76219758Y-71009858D01*
X76251000Y-71166925D01*
X76251000Y-71327075D01*
X76219758Y-71484142D01*
X76158471Y-71632101D01*
X76069501Y-71765255D01*
X75956255Y-71878501D01*
X75823101Y-71967471D01*
X75675142Y-72028758D01*
X75518075Y-72060000D01*
X75357925Y-72060000D01*
X75200858Y-72028758D01*
X75052899Y-71967471D01*
X74919745Y-71878501D01*
X74806499Y-71765255D01*
X74717529Y-71632101D01*
X74656242Y-71484142D01*
X74625000Y-71327075D01*
X74625000Y-71166925D01*
X74656242Y-71009858D01*
X74717529Y-70861899D01*
X74806499Y-70728745D01*
X74919745Y-70615499D01*
X75052899Y-70526529D01*
X75200858Y-70465242D01*
X75357925Y-70434000D01*
X75518075Y-70434000D01*
X75675142Y-70465242D01*
X75675142Y-70465242D01*
G37*
G36*
X78215142Y-70465242D02*
G01*
X78363101Y-70526529D01*
X78496255Y-70615499D01*
X78609501Y-70728745D01*
X78698471Y-70861899D01*
X78759758Y-71009858D01*
X78791000Y-71166925D01*
X78791000Y-71327075D01*
X78759758Y-71484142D01*
X78698471Y-71632101D01*
X78609501Y-71765255D01*
X78496255Y-71878501D01*
X78363101Y-71967471D01*
X78215142Y-72028758D01*
X78058075Y-72060000D01*
X77897925Y-72060000D01*
X77740858Y-72028758D01*
X77592899Y-71967471D01*
X77459745Y-71878501D01*
X77346499Y-71765255D01*
X77257529Y-71632101D01*
X77196242Y-71484142D01*
X77165000Y-71327075D01*
X77165000Y-71166925D01*
X77196242Y-71009858D01*
X77257529Y-70861899D01*
X77346499Y-70728745D01*
X77459745Y-70615499D01*
X77592899Y-70526529D01*
X77740858Y-70465242D01*
X77897925Y-70434000D01*
X78058075Y-70434000D01*
X78215142Y-70465242D01*
X78215142Y-70465242D01*
G37*
G36*
X83295142Y-70465242D02*
G01*
X83443101Y-70526529D01*
X83576255Y-70615499D01*
X83689501Y-70728745D01*
X83778471Y-70861899D01*
X83839758Y-71009858D01*
X83871000Y-71166925D01*
X83871000Y-71327075D01*
X83839758Y-71484142D01*
X83778471Y-71632101D01*
X83689501Y-71765255D01*
X83576255Y-71878501D01*
X83443101Y-71967471D01*
X83295142Y-72028758D01*
X83138075Y-72060000D01*
X82977925Y-72060000D01*
X82820858Y-72028758D01*
X82672899Y-71967471D01*
X82539745Y-71878501D01*
X82426499Y-71765255D01*
X82337529Y-71632101D01*
X82276242Y-71484142D01*
X82245000Y-71327075D01*
X82245000Y-71166925D01*
X82276242Y-71009858D01*
X82337529Y-70861899D01*
X82426499Y-70728745D01*
X82539745Y-70615499D01*
X82672899Y-70526529D01*
X82820858Y-70465242D01*
X82977925Y-70434000D01*
X83138075Y-70434000D01*
X83295142Y-70465242D01*
X83295142Y-70465242D01*
G37*
G36*
X73135142Y-70465242D02*
G01*
X73283101Y-70526529D01*
X73416255Y-70615499D01*
X73529501Y-70728745D01*
X73618471Y-70861899D01*
X73679758Y-71009858D01*
X73711000Y-71166925D01*
X73711000Y-71327075D01*
X73679758Y-71484142D01*
X73618471Y-71632101D01*
X73529501Y-71765255D01*
X73416255Y-71878501D01*
X73283101Y-71967471D01*
X73135142Y-72028758D01*
X72978075Y-72060000D01*
X72817925Y-72060000D01*
X72660858Y-72028758D01*
X72512899Y-71967471D01*
X72379745Y-71878501D01*
X72266499Y-71765255D01*
X72177529Y-71632101D01*
X72116242Y-71484142D01*
X72085000Y-71327075D01*
X72085000Y-71166925D01*
X72116242Y-71009858D01*
X72177529Y-70861899D01*
X72266499Y-70728745D01*
X72379745Y-70615499D01*
X72512899Y-70526529D01*
X72660858Y-70465242D01*
X72817925Y-70434000D01*
X72978075Y-70434000D01*
X73135142Y-70465242D01*
X73135142Y-70465242D01*
G37*
G36*
X87275000Y-71603000D02*
G01*
X85623000Y-71603000D01*
X85623000Y-70201000D01*
X87275000Y-70201000D01*
X87275000Y-71603000D01*
X87275000Y-71603000D01*
G37*
G36*
X95225000Y-71603000D02*
G01*
X93573000Y-71603000D01*
X93573000Y-70201000D01*
X95225000Y-70201000D01*
X95225000Y-71603000D01*
X95225000Y-71603000D01*
G37*
G36*
X103037000Y-71019000D02*
G01*
X102195000Y-71019000D01*
X102195000Y-68517000D01*
X103037000Y-68517000D01*
X103037000Y-71019000D01*
X103037000Y-71019000D01*
G37*
G36*
X101767000Y-71019000D02*
G01*
X100925000Y-71019000D01*
X100925000Y-68517000D01*
X101767000Y-68517000D01*
X101767000Y-71019000D01*
X101767000Y-71019000D01*
G37*
G36*
X100497000Y-71019000D02*
G01*
X99655000Y-71019000D01*
X99655000Y-68517000D01*
X100497000Y-68517000D01*
X100497000Y-71019000D01*
X100497000Y-71019000D01*
G37*
G36*
X99227000Y-71019000D02*
G01*
X98385000Y-71019000D01*
X98385000Y-68517000D01*
X99227000Y-68517000D01*
X99227000Y-71019000D01*
X99227000Y-71019000D01*
G37*
G36*
X104307000Y-71019000D02*
G01*
X103465000Y-71019000D01*
X103465000Y-68517000D01*
X104307000Y-68517000D01*
X104307000Y-71019000D01*
X104307000Y-71019000D01*
G37*
G36*
X107552499Y-67359445D02*
G01*
X107589995Y-67370820D01*
X107624554Y-67389292D01*
X107654847Y-67414153D01*
X107679708Y-67444446D01*
X107698180Y-67479005D01*
X107709555Y-67516501D01*
X107714000Y-67561638D01*
X107714000Y-68300362D01*
X107709555Y-68345499D01*
X107698180Y-68382995D01*
X107679708Y-68417554D01*
X107654847Y-68447847D01*
X107624554Y-68472708D01*
X107589995Y-68491180D01*
X107552499Y-68502555D01*
X107507362Y-68507000D01*
X106868638Y-68507000D01*
X106823501Y-68502555D01*
X106786005Y-68491180D01*
X106751446Y-68472708D01*
X106721153Y-68447847D01*
X106696292Y-68417554D01*
X106677820Y-68382995D01*
X106666445Y-68345499D01*
X106662000Y-68300362D01*
X106662000Y-67561638D01*
X106666445Y-67516501D01*
X106677820Y-67479005D01*
X106696292Y-67444446D01*
X106721153Y-67414153D01*
X106751446Y-67389292D01*
X106786005Y-67370820D01*
X106823501Y-67359445D01*
X106868638Y-67355000D01*
X107507362Y-67355000D01*
X107552499Y-67359445D01*
X107552499Y-67359445D01*
G37*
G36*
X100497000Y-67119000D02*
G01*
X99655000Y-67119000D01*
X99655000Y-64617000D01*
X100497000Y-64617000D01*
X100497000Y-67119000D01*
X100497000Y-67119000D01*
G37*
G36*
X103037000Y-67119000D02*
G01*
X102195000Y-67119000D01*
X102195000Y-64617000D01*
X103037000Y-64617000D01*
X103037000Y-67119000D01*
X103037000Y-67119000D01*
G37*
G36*
X104307000Y-67119000D02*
G01*
X103465000Y-67119000D01*
X103465000Y-64617000D01*
X104307000Y-64617000D01*
X104307000Y-67119000D01*
X104307000Y-67119000D01*
G37*
G36*
X101767000Y-67119000D02*
G01*
X100925000Y-67119000D01*
X100925000Y-64617000D01*
X101767000Y-64617000D01*
X101767000Y-67119000D01*
X101767000Y-67119000D01*
G37*
G36*
X99227000Y-67119000D02*
G01*
X98385000Y-67119000D01*
X98385000Y-64617000D01*
X99227000Y-64617000D01*
X99227000Y-67119000D01*
X99227000Y-67119000D01*
G37*
G36*
X107552499Y-65609445D02*
G01*
X107589995Y-65620820D01*
X107624554Y-65639292D01*
X107654847Y-65664153D01*
X107679708Y-65694446D01*
X107698180Y-65729005D01*
X107709555Y-65766501D01*
X107714000Y-65811638D01*
X107714000Y-66550362D01*
X107709555Y-66595499D01*
X107698180Y-66632995D01*
X107679708Y-66667554D01*
X107654847Y-66697847D01*
X107624554Y-66722708D01*
X107589995Y-66741180D01*
X107552499Y-66752555D01*
X107507362Y-66757000D01*
X106868638Y-66757000D01*
X106823501Y-66752555D01*
X106786005Y-66741180D01*
X106751446Y-66722708D01*
X106721153Y-66697847D01*
X106696292Y-66667554D01*
X106677820Y-66632995D01*
X106666445Y-66595499D01*
X106662000Y-66550362D01*
X106662000Y-65811638D01*
X106666445Y-65766501D01*
X106677820Y-65729005D01*
X106696292Y-65694446D01*
X106721153Y-65664153D01*
X106751446Y-65639292D01*
X106786005Y-65620820D01*
X106823501Y-65609445D01*
X106868638Y-65605000D01*
X107507362Y-65605000D01*
X107552499Y-65609445D01*
X107552499Y-65609445D01*
G37*
G36*
X90330499Y-65518445D02*
G01*
X90367995Y-65529820D01*
X90402554Y-65548292D01*
X90432847Y-65573153D01*
X90457708Y-65603446D01*
X90476180Y-65638005D01*
X90487555Y-65675501D01*
X90492000Y-65720638D01*
X90492000Y-66359362D01*
X90487555Y-66404499D01*
X90476180Y-66441995D01*
X90457708Y-66476554D01*
X90432847Y-66506847D01*
X90402554Y-66531708D01*
X90367995Y-66550180D01*
X90330499Y-66561555D01*
X90285362Y-66566000D01*
X89546638Y-66566000D01*
X89501501Y-66561555D01*
X89464005Y-66550180D01*
X89429446Y-66531708D01*
X89399153Y-66506847D01*
X89374292Y-66476554D01*
X89355820Y-66441995D01*
X89344445Y-66404499D01*
X89340000Y-66359362D01*
X89340000Y-65720638D01*
X89344445Y-65675501D01*
X89355820Y-65638005D01*
X89374292Y-65603446D01*
X89399153Y-65573153D01*
X89429446Y-65548292D01*
X89464005Y-65529820D01*
X89501501Y-65518445D01*
X89546638Y-65514000D01*
X90285362Y-65514000D01*
X90330499Y-65518445D01*
X90330499Y-65518445D01*
G37*
G36*
X88580499Y-65518445D02*
G01*
X88617995Y-65529820D01*
X88652554Y-65548292D01*
X88682847Y-65573153D01*
X88707708Y-65603446D01*
X88726180Y-65638005D01*
X88737555Y-65675501D01*
X88742000Y-65720638D01*
X88742000Y-66359362D01*
X88737555Y-66404499D01*
X88726180Y-66441995D01*
X88707708Y-66476554D01*
X88682847Y-66506847D01*
X88652554Y-66531708D01*
X88617995Y-66550180D01*
X88580499Y-66561555D01*
X88535362Y-66566000D01*
X87796638Y-66566000D01*
X87751501Y-66561555D01*
X87714005Y-66550180D01*
X87679446Y-66531708D01*
X87649153Y-66506847D01*
X87624292Y-66476554D01*
X87605820Y-66441995D01*
X87594445Y-66404499D01*
X87590000Y-66359362D01*
X87590000Y-65720638D01*
X87594445Y-65675501D01*
X87605820Y-65638005D01*
X87624292Y-65603446D01*
X87649153Y-65573153D01*
X87679446Y-65548292D01*
X87714005Y-65529820D01*
X87751501Y-65518445D01*
X87796638Y-65514000D01*
X88535362Y-65514000D01*
X88580499Y-65518445D01*
X88580499Y-65518445D01*
G37*
G36*
X88439499Y-63740445D02*
G01*
X88476995Y-63751820D01*
X88511554Y-63770292D01*
X88541847Y-63795153D01*
X88566708Y-63825446D01*
X88585180Y-63860005D01*
X88596555Y-63897501D01*
X88601000Y-63942638D01*
X88601000Y-64581362D01*
X88596555Y-64626499D01*
X88585180Y-64663995D01*
X88566708Y-64698554D01*
X88541847Y-64728847D01*
X88511554Y-64753708D01*
X88476995Y-64772180D01*
X88439499Y-64783555D01*
X88394362Y-64788000D01*
X87655638Y-64788000D01*
X87610501Y-64783555D01*
X87573005Y-64772180D01*
X87538446Y-64753708D01*
X87508153Y-64728847D01*
X87483292Y-64698554D01*
X87464820Y-64663995D01*
X87453445Y-64626499D01*
X87449000Y-64581362D01*
X87449000Y-63942638D01*
X87453445Y-63897501D01*
X87464820Y-63860005D01*
X87483292Y-63825446D01*
X87508153Y-63795153D01*
X87538446Y-63770292D01*
X87573005Y-63751820D01*
X87610501Y-63740445D01*
X87655638Y-63736000D01*
X88394362Y-63736000D01*
X88439499Y-63740445D01*
X88439499Y-63740445D01*
G37*
G36*
X90189499Y-63740445D02*
G01*
X90226995Y-63751820D01*
X90261554Y-63770292D01*
X90291847Y-63795153D01*
X90316708Y-63825446D01*
X90335180Y-63860005D01*
X90346555Y-63897501D01*
X90351000Y-63942638D01*
X90351000Y-64581362D01*
X90346555Y-64626499D01*
X90335180Y-64663995D01*
X90316708Y-64698554D01*
X90291847Y-64728847D01*
X90261554Y-64753708D01*
X90226995Y-64772180D01*
X90189499Y-64783555D01*
X90144362Y-64788000D01*
X89405638Y-64788000D01*
X89360501Y-64783555D01*
X89323005Y-64772180D01*
X89288446Y-64753708D01*
X89258153Y-64728847D01*
X89233292Y-64698554D01*
X89214820Y-64663995D01*
X89203445Y-64626499D01*
X89199000Y-64581362D01*
X89199000Y-63942638D01*
X89203445Y-63897501D01*
X89214820Y-63860005D01*
X89233292Y-63825446D01*
X89258153Y-63795153D01*
X89288446Y-63770292D01*
X89323005Y-63751820D01*
X89360501Y-63740445D01*
X89405638Y-63736000D01*
X90144362Y-63736000D01*
X90189499Y-63740445D01*
X90189499Y-63740445D01*
G37*
G36*
X95254206Y-62992000D02*
G01*
X93980000Y-64266206D01*
X92705794Y-62992000D01*
X93980000Y-61717794D01*
X95254206Y-62992000D01*
X95254206Y-62992000D01*
G37*
G36*
X65515142Y-61575242D02*
G01*
X65663101Y-61636529D01*
X65796255Y-61725499D01*
X65909501Y-61838745D01*
X65998471Y-61971899D01*
X66059758Y-62119858D01*
X66091000Y-62276925D01*
X66091000Y-62437075D01*
X66059758Y-62594142D01*
X65998471Y-62742101D01*
X65909501Y-62875255D01*
X65796255Y-62988501D01*
X65663101Y-63077471D01*
X65515142Y-63138758D01*
X65358075Y-63170000D01*
X65197925Y-63170000D01*
X65040858Y-63138758D01*
X64892899Y-63077471D01*
X64759745Y-62988501D01*
X64646499Y-62875255D01*
X64557529Y-62742101D01*
X64496242Y-62594142D01*
X64465000Y-62437075D01*
X64465000Y-62276925D01*
X64496242Y-62119858D01*
X64557529Y-61971899D01*
X64646499Y-61838745D01*
X64759745Y-61725499D01*
X64892899Y-61636529D01*
X65040858Y-61575242D01*
X65197925Y-61544000D01*
X65358075Y-61544000D01*
X65515142Y-61575242D01*
X65515142Y-61575242D01*
G37*
G36*
X70595142Y-61575242D02*
G01*
X70743101Y-61636529D01*
X70876255Y-61725499D01*
X70989501Y-61838745D01*
X71078471Y-61971899D01*
X71139758Y-62119858D01*
X71171000Y-62276925D01*
X71171000Y-62437075D01*
X71139758Y-62594142D01*
X71078471Y-62742101D01*
X70989501Y-62875255D01*
X70876255Y-62988501D01*
X70743101Y-63077471D01*
X70595142Y-63138758D01*
X70438075Y-63170000D01*
X70277925Y-63170000D01*
X70120858Y-63138758D01*
X69972899Y-63077471D01*
X69839745Y-62988501D01*
X69726499Y-62875255D01*
X69637529Y-62742101D01*
X69576242Y-62594142D01*
X69545000Y-62437075D01*
X69545000Y-62276925D01*
X69576242Y-62119858D01*
X69637529Y-61971899D01*
X69726499Y-61838745D01*
X69839745Y-61725499D01*
X69972899Y-61636529D01*
X70120858Y-61575242D01*
X70277925Y-61544000D01*
X70438075Y-61544000D01*
X70595142Y-61575242D01*
X70595142Y-61575242D01*
G37*
G36*
X83295142Y-61575242D02*
G01*
X83443101Y-61636529D01*
X83576255Y-61725499D01*
X83689501Y-61838745D01*
X83778471Y-61971899D01*
X83839758Y-62119858D01*
X83871000Y-62276925D01*
X83871000Y-62437075D01*
X83839758Y-62594142D01*
X83778471Y-62742101D01*
X83689501Y-62875255D01*
X83576255Y-62988501D01*
X83443101Y-63077471D01*
X83295142Y-63138758D01*
X83138075Y-63170000D01*
X82977925Y-63170000D01*
X82820858Y-63138758D01*
X82672899Y-63077471D01*
X82539745Y-62988501D01*
X82426499Y-62875255D01*
X82337529Y-62742101D01*
X82276242Y-62594142D01*
X82245000Y-62437075D01*
X82245000Y-62276925D01*
X82276242Y-62119858D01*
X82337529Y-61971899D01*
X82426499Y-61838745D01*
X82539745Y-61725499D01*
X82672899Y-61636529D01*
X82820858Y-61575242D01*
X82977925Y-61544000D01*
X83138075Y-61544000D01*
X83295142Y-61575242D01*
X83295142Y-61575242D01*
G37*
G36*
X80755142Y-61575242D02*
G01*
X80903101Y-61636529D01*
X81036255Y-61725499D01*
X81149501Y-61838745D01*
X81238471Y-61971899D01*
X81299758Y-62119858D01*
X81331000Y-62276925D01*
X81331000Y-62437075D01*
X81299758Y-62594142D01*
X81238471Y-62742101D01*
X81149501Y-62875255D01*
X81036255Y-62988501D01*
X80903101Y-63077471D01*
X80755142Y-63138758D01*
X80598075Y-63170000D01*
X80437925Y-63170000D01*
X80280858Y-63138758D01*
X80132899Y-63077471D01*
X79999745Y-62988501D01*
X79886499Y-62875255D01*
X79797529Y-62742101D01*
X79736242Y-62594142D01*
X79705000Y-62437075D01*
X79705000Y-62276925D01*
X79736242Y-62119858D01*
X79797529Y-61971899D01*
X79886499Y-61838745D01*
X79999745Y-61725499D01*
X80132899Y-61636529D01*
X80280858Y-61575242D01*
X80437925Y-61544000D01*
X80598075Y-61544000D01*
X80755142Y-61575242D01*
X80755142Y-61575242D01*
G37*
G36*
X75675142Y-61575242D02*
G01*
X75823101Y-61636529D01*
X75956255Y-61725499D01*
X76069501Y-61838745D01*
X76158471Y-61971899D01*
X76219758Y-62119858D01*
X76251000Y-62276925D01*
X76251000Y-62437075D01*
X76219758Y-62594142D01*
X76158471Y-62742101D01*
X76069501Y-62875255D01*
X75956255Y-62988501D01*
X75823101Y-63077471D01*
X75675142Y-63138758D01*
X75518075Y-63170000D01*
X75357925Y-63170000D01*
X75200858Y-63138758D01*
X75052899Y-63077471D01*
X74919745Y-62988501D01*
X74806499Y-62875255D01*
X74717529Y-62742101D01*
X74656242Y-62594142D01*
X74625000Y-62437075D01*
X74625000Y-62276925D01*
X74656242Y-62119858D01*
X74717529Y-61971899D01*
X74806499Y-61838745D01*
X74919745Y-61725499D01*
X75052899Y-61636529D01*
X75200858Y-61575242D01*
X75357925Y-61544000D01*
X75518075Y-61544000D01*
X75675142Y-61575242D01*
X75675142Y-61575242D01*
G37*
G36*
X78215142Y-61575242D02*
G01*
X78363101Y-61636529D01*
X78496255Y-61725499D01*
X78609501Y-61838745D01*
X78698471Y-61971899D01*
X78759758Y-62119858D01*
X78791000Y-62276925D01*
X78791000Y-62437075D01*
X78759758Y-62594142D01*
X78698471Y-62742101D01*
X78609501Y-62875255D01*
X78496255Y-62988501D01*
X78363101Y-63077471D01*
X78215142Y-63138758D01*
X78058075Y-63170000D01*
X77897925Y-63170000D01*
X77740858Y-63138758D01*
X77592899Y-63077471D01*
X77459745Y-62988501D01*
X77346499Y-62875255D01*
X77257529Y-62742101D01*
X77196242Y-62594142D01*
X77165000Y-62437075D01*
X77165000Y-62276925D01*
X77196242Y-62119858D01*
X77257529Y-61971899D01*
X77346499Y-61838745D01*
X77459745Y-61725499D01*
X77592899Y-61636529D01*
X77740858Y-61575242D01*
X77897925Y-61544000D01*
X78058075Y-61544000D01*
X78215142Y-61575242D01*
X78215142Y-61575242D01*
G37*
G36*
X73135142Y-61575242D02*
G01*
X73283101Y-61636529D01*
X73416255Y-61725499D01*
X73529501Y-61838745D01*
X73618471Y-61971899D01*
X73679758Y-62119858D01*
X73711000Y-62276925D01*
X73711000Y-62437075D01*
X73679758Y-62594142D01*
X73618471Y-62742101D01*
X73529501Y-62875255D01*
X73416255Y-62988501D01*
X73283101Y-63077471D01*
X73135142Y-63138758D01*
X72978075Y-63170000D01*
X72817925Y-63170000D01*
X72660858Y-63138758D01*
X72512899Y-63077471D01*
X72379745Y-62988501D01*
X72266499Y-62875255D01*
X72177529Y-62742101D01*
X72116242Y-62594142D01*
X72085000Y-62437075D01*
X72085000Y-62276925D01*
X72116242Y-62119858D01*
X72177529Y-61971899D01*
X72266499Y-61838745D01*
X72379745Y-61725499D01*
X72512899Y-61636529D01*
X72660858Y-61575242D01*
X72817925Y-61544000D01*
X72978075Y-61544000D01*
X73135142Y-61575242D01*
X73135142Y-61575242D01*
G37*
G36*
X68055142Y-61575242D02*
G01*
X68203101Y-61636529D01*
X68336255Y-61725499D01*
X68449501Y-61838745D01*
X68538471Y-61971899D01*
X68599758Y-62119858D01*
X68631000Y-62276925D01*
X68631000Y-62437075D01*
X68599758Y-62594142D01*
X68538471Y-62742101D01*
X68449501Y-62875255D01*
X68336255Y-62988501D01*
X68203101Y-63077471D01*
X68055142Y-63138758D01*
X67898075Y-63170000D01*
X67737925Y-63170000D01*
X67580858Y-63138758D01*
X67432899Y-63077471D01*
X67299745Y-62988501D01*
X67186499Y-62875255D01*
X67097529Y-62742101D01*
X67036242Y-62594142D01*
X67005000Y-62437075D01*
X67005000Y-62276925D01*
X67036242Y-62119858D01*
X67097529Y-61971899D01*
X67186499Y-61838745D01*
X67299745Y-61725499D01*
X67432899Y-61636529D01*
X67580858Y-61575242D01*
X67737925Y-61544000D01*
X67898075Y-61544000D01*
X68055142Y-61575242D01*
X68055142Y-61575242D01*
G37*
G36*
X108822499Y-61517445D02*
G01*
X108859995Y-61528820D01*
X108894554Y-61547292D01*
X108924847Y-61572153D01*
X108949708Y-61602446D01*
X108968180Y-61637005D01*
X108979555Y-61674501D01*
X108984000Y-61719638D01*
X108984000Y-62458362D01*
X108979555Y-62503499D01*
X108968180Y-62540995D01*
X108949708Y-62575554D01*
X108924847Y-62605847D01*
X108894554Y-62630708D01*
X108859995Y-62649180D01*
X108822499Y-62660555D01*
X108777362Y-62665000D01*
X108138638Y-62665000D01*
X108093501Y-62660555D01*
X108056005Y-62649180D01*
X108021446Y-62630708D01*
X107991153Y-62605847D01*
X107966292Y-62575554D01*
X107947820Y-62540995D01*
X107936445Y-62503499D01*
X107932000Y-62458362D01*
X107932000Y-61719638D01*
X107936445Y-61674501D01*
X107947820Y-61637005D01*
X107966292Y-61602446D01*
X107991153Y-61572153D01*
X108021446Y-61547292D01*
X108056005Y-61528820D01*
X108093501Y-61517445D01*
X108138638Y-61513000D01*
X108777362Y-61513000D01*
X108822499Y-61517445D01*
X108822499Y-61517445D01*
G37*
G36*
X95886494Y-60301468D02*
G01*
X95952678Y-60307986D01*
X96122517Y-60359506D01*
X96122519Y-60359507D01*
X96142150Y-60370000D01*
X96279042Y-60443171D01*
X96314780Y-60472501D01*
X96416237Y-60555763D01*
X96495215Y-60652000D01*
X96528829Y-60692958D01*
X96612494Y-60849483D01*
X96664014Y-61019322D01*
X96681410Y-61195949D01*
X96664014Y-61372576D01*
X96616618Y-61528820D01*
X96612493Y-61542417D01*
X96594947Y-61575243D01*
X96528829Y-61698940D01*
X96507032Y-61725499D01*
X96416237Y-61836135D01*
X96314780Y-61919397D01*
X96279042Y-61948727D01*
X96122517Y-62032392D01*
X95952678Y-62083912D01*
X95886494Y-62090430D01*
X95820311Y-62096949D01*
X95731791Y-62096949D01*
X95665608Y-62090430D01*
X95599424Y-62083912D01*
X95429585Y-62032392D01*
X95273060Y-61948727D01*
X95237322Y-61919397D01*
X95135865Y-61836135D01*
X95045070Y-61725499D01*
X95023273Y-61698940D01*
X94957155Y-61575243D01*
X94939609Y-61542417D01*
X94935484Y-61528820D01*
X94888088Y-61372576D01*
X94870692Y-61195949D01*
X94888088Y-61019322D01*
X94939608Y-60849483D01*
X95023273Y-60692958D01*
X95056887Y-60652000D01*
X95135865Y-60555763D01*
X95237322Y-60472501D01*
X95273060Y-60443171D01*
X95409952Y-60370000D01*
X95429583Y-60359507D01*
X95429585Y-60359506D01*
X95599424Y-60307986D01*
X95665608Y-60301468D01*
X95731791Y-60294949D01*
X95820311Y-60294949D01*
X95886494Y-60301468D01*
X95886494Y-60301468D01*
G37*
G36*
X107240591Y-57636602D02*
G01*
X103102602Y-61774591D01*
X102111238Y-60783227D01*
X102360140Y-60534325D01*
X102360141Y-60534326D01*
X102464792Y-60429675D01*
X102464791Y-60429674D01*
X102713693Y-60180772D01*
X102713694Y-60180773D01*
X102818346Y-60076121D01*
X102818345Y-60076120D01*
X103067247Y-59827218D01*
X103067248Y-59827219D01*
X103171899Y-59722568D01*
X103171898Y-59722567D01*
X103420800Y-59473665D01*
X103420801Y-59473666D01*
X103525452Y-59369015D01*
X103525451Y-59369014D01*
X103774353Y-59120112D01*
X103774354Y-59120113D01*
X103879006Y-59015461D01*
X103879005Y-59015460D01*
X104127907Y-58766558D01*
X104127908Y-58766559D01*
X104232559Y-58661908D01*
X104232558Y-58661907D01*
X104481460Y-58413005D01*
X104481461Y-58413006D01*
X104586113Y-58308354D01*
X104586112Y-58308353D01*
X104835014Y-58059451D01*
X104835015Y-58059452D01*
X104939666Y-57954801D01*
X104939665Y-57954800D01*
X105188567Y-57705898D01*
X105188568Y-57705899D01*
X105293219Y-57601248D01*
X105293218Y-57601247D01*
X105542120Y-57352345D01*
X105542121Y-57352346D01*
X105646773Y-57247694D01*
X105646772Y-57247693D01*
X105895674Y-56998791D01*
X105895675Y-56998792D01*
X106000326Y-56894141D01*
X106000325Y-56894140D01*
X106249227Y-56645238D01*
X107240591Y-57636602D01*
X107240591Y-57636602D01*
G37*
G36*
X97199675Y-56894140D02*
G01*
X97199675Y-56894141D01*
X97304326Y-56998792D01*
X97304326Y-56998791D01*
X97553228Y-57247693D01*
X97553228Y-57247694D01*
X97657880Y-57352346D01*
X97657880Y-57352345D01*
X97906782Y-57601247D01*
X97906782Y-57601248D01*
X98011433Y-57705899D01*
X98011433Y-57705898D01*
X98260335Y-57954800D01*
X98260335Y-57954801D01*
X98364986Y-58059452D01*
X98364986Y-58059451D01*
X98613888Y-58308353D01*
X98613888Y-58308354D01*
X98718540Y-58413006D01*
X98718540Y-58413005D01*
X98967442Y-58661907D01*
X98967442Y-58661908D01*
X99072093Y-58766559D01*
X99072093Y-58766558D01*
X99320995Y-59015460D01*
X99320995Y-59015461D01*
X99425647Y-59120113D01*
X99425647Y-59120112D01*
X99674549Y-59369014D01*
X99674549Y-59369015D01*
X99779200Y-59473666D01*
X99779200Y-59473665D01*
X100028102Y-59722567D01*
X100028102Y-59722568D01*
X100132753Y-59827219D01*
X100132753Y-59827218D01*
X100381655Y-60076120D01*
X100381655Y-60076121D01*
X100486307Y-60180773D01*
X100486307Y-60180772D01*
X100735209Y-60429674D01*
X100735209Y-60429675D01*
X100839860Y-60534326D01*
X100839860Y-60534325D01*
X101088762Y-60783227D01*
X100097398Y-61774591D01*
X99848496Y-61525689D01*
X99848497Y-61525689D01*
X99743846Y-61421038D01*
X99743845Y-61421038D01*
X99494943Y-61172136D01*
X99494944Y-61172136D01*
X99390292Y-61067484D01*
X99390291Y-61067484D01*
X99141389Y-60818582D01*
X99141390Y-60818582D01*
X99036739Y-60713931D01*
X99036738Y-60713931D01*
X98787836Y-60465029D01*
X98787837Y-60465029D01*
X98683186Y-60360378D01*
X98683185Y-60360378D01*
X98434283Y-60111476D01*
X98434284Y-60111476D01*
X98329632Y-60006824D01*
X98329631Y-60006824D01*
X98080729Y-59757922D01*
X98080730Y-59757922D01*
X97976079Y-59653271D01*
X97976078Y-59653271D01*
X97727176Y-59404369D01*
X97727177Y-59404369D01*
X97622525Y-59299717D01*
X97622524Y-59299717D01*
X97373622Y-59050815D01*
X97373623Y-59050815D01*
X97268972Y-58946164D01*
X97268971Y-58946164D01*
X97020069Y-58697262D01*
X97020070Y-58697262D01*
X96915419Y-58592611D01*
X96915418Y-58592611D01*
X96666516Y-58343709D01*
X96666517Y-58343709D01*
X96561865Y-58239057D01*
X96561864Y-58239057D01*
X96312962Y-57990155D01*
X96312963Y-57990155D01*
X96208312Y-57885504D01*
X96208311Y-57885504D01*
X95959409Y-57636602D01*
X96950773Y-56645238D01*
X97199675Y-56894140D01*
X97199675Y-56894140D01*
G37*
G36*
X108822499Y-59767445D02*
G01*
X108859995Y-59778820D01*
X108894554Y-59797292D01*
X108924847Y-59822153D01*
X108949708Y-59852446D01*
X108968180Y-59887005D01*
X108979555Y-59924501D01*
X108984000Y-59969638D01*
X108984000Y-60708362D01*
X108979555Y-60753499D01*
X108968180Y-60790995D01*
X108949708Y-60825554D01*
X108924847Y-60855847D01*
X108894554Y-60880708D01*
X108859995Y-60899180D01*
X108822499Y-60910555D01*
X108777362Y-60915000D01*
X108138638Y-60915000D01*
X108093501Y-60910555D01*
X108056005Y-60899180D01*
X108021446Y-60880708D01*
X107991153Y-60855847D01*
X107966292Y-60825554D01*
X107947820Y-60790995D01*
X107936445Y-60753499D01*
X107932000Y-60708362D01*
X107932000Y-59969638D01*
X107936445Y-59924501D01*
X107947820Y-59887005D01*
X107966292Y-59852446D01*
X107991153Y-59822153D01*
X108021446Y-59797292D01*
X108056005Y-59778820D01*
X108093501Y-59767445D01*
X108138638Y-59763000D01*
X108777362Y-59763000D01*
X108822499Y-59767445D01*
X108822499Y-59767445D01*
G37*
G36*
X113390642Y-59300781D02*
G01*
X113536414Y-59361162D01*
X113536416Y-59361163D01*
X113667608Y-59448822D01*
X113779178Y-59560392D01*
X113808987Y-59605005D01*
X113866838Y-59691586D01*
X113927219Y-59837358D01*
X113958000Y-59992107D01*
X113958000Y-60149893D01*
X113927219Y-60304642D01*
X113869838Y-60443171D01*
X113866837Y-60450416D01*
X113779178Y-60581608D01*
X113667608Y-60693178D01*
X113536416Y-60780837D01*
X113536415Y-60780838D01*
X113536414Y-60780838D01*
X113390642Y-60841219D01*
X113235893Y-60872000D01*
X113078107Y-60872000D01*
X112923358Y-60841219D01*
X112777586Y-60780838D01*
X112777585Y-60780838D01*
X112777584Y-60780837D01*
X112646392Y-60693178D01*
X112534822Y-60581608D01*
X112447163Y-60450416D01*
X112444162Y-60443171D01*
X112386781Y-60304642D01*
X112356000Y-60149893D01*
X112356000Y-59992107D01*
X112386781Y-59837358D01*
X112447162Y-59691586D01*
X112505013Y-59605005D01*
X112534822Y-59560392D01*
X112646392Y-59448822D01*
X112777584Y-59361163D01*
X112777586Y-59361162D01*
X112923358Y-59300781D01*
X113078107Y-59270000D01*
X113235893Y-59270000D01*
X113390642Y-59300781D01*
X113390642Y-59300781D01*
G37*
G36*
X68182499Y-59485445D02*
G01*
X68219995Y-59496820D01*
X68254554Y-59515292D01*
X68284847Y-59540153D01*
X68309708Y-59570446D01*
X68328180Y-59605005D01*
X68339555Y-59642501D01*
X68344000Y-59687638D01*
X68344000Y-60426362D01*
X68339555Y-60471499D01*
X68328180Y-60508995D01*
X68309708Y-60543554D01*
X68284847Y-60573847D01*
X68254554Y-60598708D01*
X68219995Y-60617180D01*
X68182499Y-60628555D01*
X68137362Y-60633000D01*
X67498638Y-60633000D01*
X67453501Y-60628555D01*
X67416005Y-60617180D01*
X67381446Y-60598708D01*
X67351153Y-60573847D01*
X67326292Y-60543554D01*
X67307820Y-60508995D01*
X67296445Y-60471499D01*
X67292000Y-60426362D01*
X67292000Y-59687638D01*
X67296445Y-59642501D01*
X67307820Y-59605005D01*
X67326292Y-59570446D01*
X67351153Y-59540153D01*
X67381446Y-59515292D01*
X67416005Y-59496820D01*
X67453501Y-59485445D01*
X67498638Y-59481000D01*
X68137362Y-59481000D01*
X68182499Y-59485445D01*
X68182499Y-59485445D01*
G37*
G36*
X80882499Y-59485445D02*
G01*
X80919995Y-59496820D01*
X80954554Y-59515292D01*
X80984847Y-59540153D01*
X81009708Y-59570446D01*
X81028180Y-59605005D01*
X81039555Y-59642501D01*
X81044000Y-59687638D01*
X81044000Y-60426362D01*
X81039555Y-60471499D01*
X81028180Y-60508995D01*
X81009708Y-60543554D01*
X80984847Y-60573847D01*
X80954554Y-60598708D01*
X80919995Y-60617180D01*
X80882499Y-60628555D01*
X80837362Y-60633000D01*
X80198638Y-60633000D01*
X80153501Y-60628555D01*
X80116005Y-60617180D01*
X80081446Y-60598708D01*
X80051153Y-60573847D01*
X80026292Y-60543554D01*
X80007820Y-60508995D01*
X79996445Y-60471499D01*
X79992000Y-60426362D01*
X79992000Y-59687638D01*
X79996445Y-59642501D01*
X80007820Y-59605005D01*
X80026292Y-59570446D01*
X80051153Y-59540153D01*
X80081446Y-59515292D01*
X80116005Y-59496820D01*
X80153501Y-59485445D01*
X80198638Y-59481000D01*
X80837362Y-59481000D01*
X80882499Y-59485445D01*
X80882499Y-59485445D01*
G37*
G36*
X70722499Y-59485445D02*
G01*
X70759995Y-59496820D01*
X70794554Y-59515292D01*
X70824847Y-59540153D01*
X70849708Y-59570446D01*
X70868180Y-59605005D01*
X70879555Y-59642501D01*
X70884000Y-59687638D01*
X70884000Y-60426362D01*
X70879555Y-60471499D01*
X70868180Y-60508995D01*
X70849708Y-60543554D01*
X70824847Y-60573847D01*
X70794554Y-60598708D01*
X70759995Y-60617180D01*
X70722499Y-60628555D01*
X70677362Y-60633000D01*
X70038638Y-60633000D01*
X69993501Y-60628555D01*
X69956005Y-60617180D01*
X69921446Y-60598708D01*
X69891153Y-60573847D01*
X69866292Y-60543554D01*
X69847820Y-60508995D01*
X69836445Y-60471499D01*
X69832000Y-60426362D01*
X69832000Y-59687638D01*
X69836445Y-59642501D01*
X69847820Y-59605005D01*
X69866292Y-59570446D01*
X69891153Y-59540153D01*
X69921446Y-59515292D01*
X69956005Y-59496820D01*
X69993501Y-59485445D01*
X70038638Y-59481000D01*
X70677362Y-59481000D01*
X70722499Y-59485445D01*
X70722499Y-59485445D01*
G37*
G36*
X75802499Y-59485445D02*
G01*
X75839995Y-59496820D01*
X75874554Y-59515292D01*
X75904847Y-59540153D01*
X75929708Y-59570446D01*
X75948180Y-59605005D01*
X75959555Y-59642501D01*
X75964000Y-59687638D01*
X75964000Y-60426362D01*
X75959555Y-60471499D01*
X75948180Y-60508995D01*
X75929708Y-60543554D01*
X75904847Y-60573847D01*
X75874554Y-60598708D01*
X75839995Y-60617180D01*
X75802499Y-60628555D01*
X75757362Y-60633000D01*
X75118638Y-60633000D01*
X75073501Y-60628555D01*
X75036005Y-60617180D01*
X75001446Y-60598708D01*
X74971153Y-60573847D01*
X74946292Y-60543554D01*
X74927820Y-60508995D01*
X74916445Y-60471499D01*
X74912000Y-60426362D01*
X74912000Y-59687638D01*
X74916445Y-59642501D01*
X74927820Y-59605005D01*
X74946292Y-59570446D01*
X74971153Y-59540153D01*
X75001446Y-59515292D01*
X75036005Y-59496820D01*
X75073501Y-59485445D01*
X75118638Y-59481000D01*
X75757362Y-59481000D01*
X75802499Y-59485445D01*
X75802499Y-59485445D01*
G37*
G36*
X83422499Y-59485445D02*
G01*
X83459995Y-59496820D01*
X83494554Y-59515292D01*
X83524847Y-59540153D01*
X83549708Y-59570446D01*
X83568180Y-59605005D01*
X83579555Y-59642501D01*
X83584000Y-59687638D01*
X83584000Y-60426362D01*
X83579555Y-60471499D01*
X83568180Y-60508995D01*
X83549708Y-60543554D01*
X83524847Y-60573847D01*
X83494554Y-60598708D01*
X83459995Y-60617180D01*
X83422499Y-60628555D01*
X83377362Y-60633000D01*
X82738638Y-60633000D01*
X82693501Y-60628555D01*
X82656005Y-60617180D01*
X82621446Y-60598708D01*
X82591153Y-60573847D01*
X82566292Y-60543554D01*
X82547820Y-60508995D01*
X82536445Y-60471499D01*
X82532000Y-60426362D01*
X82532000Y-59687638D01*
X82536445Y-59642501D01*
X82547820Y-59605005D01*
X82566292Y-59570446D01*
X82591153Y-59540153D01*
X82621446Y-59515292D01*
X82656005Y-59496820D01*
X82693501Y-59485445D01*
X82738638Y-59481000D01*
X83377362Y-59481000D01*
X83422499Y-59485445D01*
X83422499Y-59485445D01*
G37*
G36*
X73262499Y-59485445D02*
G01*
X73299995Y-59496820D01*
X73334554Y-59515292D01*
X73364847Y-59540153D01*
X73389708Y-59570446D01*
X73408180Y-59605005D01*
X73419555Y-59642501D01*
X73424000Y-59687638D01*
X73424000Y-60426362D01*
X73419555Y-60471499D01*
X73408180Y-60508995D01*
X73389708Y-60543554D01*
X73364847Y-60573847D01*
X73334554Y-60598708D01*
X73299995Y-60617180D01*
X73262499Y-60628555D01*
X73217362Y-60633000D01*
X72578638Y-60633000D01*
X72533501Y-60628555D01*
X72496005Y-60617180D01*
X72461446Y-60598708D01*
X72431153Y-60573847D01*
X72406292Y-60543554D01*
X72387820Y-60508995D01*
X72376445Y-60471499D01*
X72372000Y-60426362D01*
X72372000Y-59687638D01*
X72376445Y-59642501D01*
X72387820Y-59605005D01*
X72406292Y-59570446D01*
X72431153Y-59540153D01*
X72461446Y-59515292D01*
X72496005Y-59496820D01*
X72533501Y-59485445D01*
X72578638Y-59481000D01*
X73217362Y-59481000D01*
X73262499Y-59485445D01*
X73262499Y-59485445D01*
G37*
G36*
X78342499Y-59485445D02*
G01*
X78379995Y-59496820D01*
X78414554Y-59515292D01*
X78444847Y-59540153D01*
X78469708Y-59570446D01*
X78488180Y-59605005D01*
X78499555Y-59642501D01*
X78504000Y-59687638D01*
X78504000Y-60426362D01*
X78499555Y-60471499D01*
X78488180Y-60508995D01*
X78469708Y-60543554D01*
X78444847Y-60573847D01*
X78414554Y-60598708D01*
X78379995Y-60617180D01*
X78342499Y-60628555D01*
X78297362Y-60633000D01*
X77658638Y-60633000D01*
X77613501Y-60628555D01*
X77576005Y-60617180D01*
X77541446Y-60598708D01*
X77511153Y-60573847D01*
X77486292Y-60543554D01*
X77467820Y-60508995D01*
X77456445Y-60471499D01*
X77452000Y-60426362D01*
X77452000Y-59687638D01*
X77456445Y-59642501D01*
X77467820Y-59605005D01*
X77486292Y-59570446D01*
X77511153Y-59540153D01*
X77541446Y-59515292D01*
X77576005Y-59496820D01*
X77613501Y-59485445D01*
X77658638Y-59481000D01*
X78297362Y-59481000D01*
X78342499Y-59485445D01*
X78342499Y-59485445D01*
G37*
G36*
X118601499Y-59485445D02*
G01*
X118638995Y-59496820D01*
X118673554Y-59515292D01*
X118703847Y-59540153D01*
X118728708Y-59570446D01*
X118747180Y-59605005D01*
X118758555Y-59642501D01*
X118763000Y-59687638D01*
X118763000Y-60426362D01*
X118758555Y-60471499D01*
X118747180Y-60508995D01*
X118728708Y-60543554D01*
X118703847Y-60573847D01*
X118673554Y-60598708D01*
X118638995Y-60617180D01*
X118601499Y-60628555D01*
X118556362Y-60633000D01*
X117917638Y-60633000D01*
X117872501Y-60628555D01*
X117835005Y-60617180D01*
X117800446Y-60598708D01*
X117770153Y-60573847D01*
X117745292Y-60543554D01*
X117726820Y-60508995D01*
X117715445Y-60471499D01*
X117711000Y-60426362D01*
X117711000Y-59687638D01*
X117715445Y-59642501D01*
X117726820Y-59605005D01*
X117745292Y-59570446D01*
X117770153Y-59540153D01*
X117800446Y-59515292D01*
X117835005Y-59496820D01*
X117872501Y-59485445D01*
X117917638Y-59481000D01*
X118556362Y-59481000D01*
X118601499Y-59485445D01*
X118601499Y-59485445D01*
G37*
G36*
X70722499Y-57735445D02*
G01*
X70759995Y-57746820D01*
X70794554Y-57765292D01*
X70824847Y-57790153D01*
X70849708Y-57820446D01*
X70868180Y-57855005D01*
X70879555Y-57892501D01*
X70884000Y-57937638D01*
X70884000Y-58676362D01*
X70879555Y-58721499D01*
X70868180Y-58758995D01*
X70849708Y-58793554D01*
X70824847Y-58823847D01*
X70794554Y-58848708D01*
X70759995Y-58867180D01*
X70722499Y-58878555D01*
X70677362Y-58883000D01*
X70038638Y-58883000D01*
X69993501Y-58878555D01*
X69956005Y-58867180D01*
X69921446Y-58848708D01*
X69891153Y-58823847D01*
X69866292Y-58793554D01*
X69847820Y-58758995D01*
X69836445Y-58721499D01*
X69832000Y-58676362D01*
X69832000Y-57937638D01*
X69836445Y-57892501D01*
X69847820Y-57855005D01*
X69866292Y-57820446D01*
X69891153Y-57790153D01*
X69921446Y-57765292D01*
X69956005Y-57746820D01*
X69993501Y-57735445D01*
X70038638Y-57731000D01*
X70677362Y-57731000D01*
X70722499Y-57735445D01*
X70722499Y-57735445D01*
G37*
G36*
X78342499Y-57735445D02*
G01*
X78379995Y-57746820D01*
X78414554Y-57765292D01*
X78444847Y-57790153D01*
X78469708Y-57820446D01*
X78488180Y-57855005D01*
X78499555Y-57892501D01*
X78504000Y-57937638D01*
X78504000Y-58676362D01*
X78499555Y-58721499D01*
X78488180Y-58758995D01*
X78469708Y-58793554D01*
X78444847Y-58823847D01*
X78414554Y-58848708D01*
X78379995Y-58867180D01*
X78342499Y-58878555D01*
X78297362Y-58883000D01*
X77658638Y-58883000D01*
X77613501Y-58878555D01*
X77576005Y-58867180D01*
X77541446Y-58848708D01*
X77511153Y-58823847D01*
X77486292Y-58793554D01*
X77467820Y-58758995D01*
X77456445Y-58721499D01*
X77452000Y-58676362D01*
X77452000Y-57937638D01*
X77456445Y-57892501D01*
X77467820Y-57855005D01*
X77486292Y-57820446D01*
X77511153Y-57790153D01*
X77541446Y-57765292D01*
X77576005Y-57746820D01*
X77613501Y-57735445D01*
X77658638Y-57731000D01*
X78297362Y-57731000D01*
X78342499Y-57735445D01*
X78342499Y-57735445D01*
G37*
G36*
X80882499Y-57735445D02*
G01*
X80919995Y-57746820D01*
X80954554Y-57765292D01*
X80984847Y-57790153D01*
X81009708Y-57820446D01*
X81028180Y-57855005D01*
X81039555Y-57892501D01*
X81044000Y-57937638D01*
X81044000Y-58676362D01*
X81039555Y-58721499D01*
X81028180Y-58758995D01*
X81009708Y-58793554D01*
X80984847Y-58823847D01*
X80954554Y-58848708D01*
X80919995Y-58867180D01*
X80882499Y-58878555D01*
X80837362Y-58883000D01*
X80198638Y-58883000D01*
X80153501Y-58878555D01*
X80116005Y-58867180D01*
X80081446Y-58848708D01*
X80051153Y-58823847D01*
X80026292Y-58793554D01*
X80007820Y-58758995D01*
X79996445Y-58721499D01*
X79992000Y-58676362D01*
X79992000Y-57937638D01*
X79996445Y-57892501D01*
X80007820Y-57855005D01*
X80026292Y-57820446D01*
X80051153Y-57790153D01*
X80081446Y-57765292D01*
X80116005Y-57746820D01*
X80153501Y-57735445D01*
X80198638Y-57731000D01*
X80837362Y-57731000D01*
X80882499Y-57735445D01*
X80882499Y-57735445D01*
G37*
G36*
X75802499Y-57735445D02*
G01*
X75839995Y-57746820D01*
X75874554Y-57765292D01*
X75904847Y-57790153D01*
X75929708Y-57820446D01*
X75948180Y-57855005D01*
X75959555Y-57892501D01*
X75964000Y-57937638D01*
X75964000Y-58676362D01*
X75959555Y-58721499D01*
X75948180Y-58758995D01*
X75929708Y-58793554D01*
X75904847Y-58823847D01*
X75874554Y-58848708D01*
X75839995Y-58867180D01*
X75802499Y-58878555D01*
X75757362Y-58883000D01*
X75118638Y-58883000D01*
X75073501Y-58878555D01*
X75036005Y-58867180D01*
X75001446Y-58848708D01*
X74971153Y-58823847D01*
X74946292Y-58793554D01*
X74927820Y-58758995D01*
X74916445Y-58721499D01*
X74912000Y-58676362D01*
X74912000Y-57937638D01*
X74916445Y-57892501D01*
X74927820Y-57855005D01*
X74946292Y-57820446D01*
X74971153Y-57790153D01*
X75001446Y-57765292D01*
X75036005Y-57746820D01*
X75073501Y-57735445D01*
X75118638Y-57731000D01*
X75757362Y-57731000D01*
X75802499Y-57735445D01*
X75802499Y-57735445D01*
G37*
G36*
X68182499Y-57735445D02*
G01*
X68219995Y-57746820D01*
X68254554Y-57765292D01*
X68284847Y-57790153D01*
X68309708Y-57820446D01*
X68328180Y-57855005D01*
X68339555Y-57892501D01*
X68344000Y-57937638D01*
X68344000Y-58676362D01*
X68339555Y-58721499D01*
X68328180Y-58758995D01*
X68309708Y-58793554D01*
X68284847Y-58823847D01*
X68254554Y-58848708D01*
X68219995Y-58867180D01*
X68182499Y-58878555D01*
X68137362Y-58883000D01*
X67498638Y-58883000D01*
X67453501Y-58878555D01*
X67416005Y-58867180D01*
X67381446Y-58848708D01*
X67351153Y-58823847D01*
X67326292Y-58793554D01*
X67307820Y-58758995D01*
X67296445Y-58721499D01*
X67292000Y-58676362D01*
X67292000Y-57937638D01*
X67296445Y-57892501D01*
X67307820Y-57855005D01*
X67326292Y-57820446D01*
X67351153Y-57790153D01*
X67381446Y-57765292D01*
X67416005Y-57746820D01*
X67453501Y-57735445D01*
X67498638Y-57731000D01*
X68137362Y-57731000D01*
X68182499Y-57735445D01*
X68182499Y-57735445D01*
G37*
G36*
X118601499Y-57735445D02*
G01*
X118638995Y-57746820D01*
X118673554Y-57765292D01*
X118703847Y-57790153D01*
X118728708Y-57820446D01*
X118747180Y-57855005D01*
X118758555Y-57892501D01*
X118763000Y-57937638D01*
X118763000Y-58676362D01*
X118758555Y-58721499D01*
X118747180Y-58758995D01*
X118728708Y-58793554D01*
X118703847Y-58823847D01*
X118673554Y-58848708D01*
X118638995Y-58867180D01*
X118601499Y-58878555D01*
X118556362Y-58883000D01*
X117917638Y-58883000D01*
X117872501Y-58878555D01*
X117835005Y-58867180D01*
X117800446Y-58848708D01*
X117770153Y-58823847D01*
X117745292Y-58793554D01*
X117726820Y-58758995D01*
X117715445Y-58721499D01*
X117711000Y-58676362D01*
X117711000Y-57937638D01*
X117715445Y-57892501D01*
X117726820Y-57855005D01*
X117745292Y-57820446D01*
X117770153Y-57790153D01*
X117800446Y-57765292D01*
X117835005Y-57746820D01*
X117872501Y-57735445D01*
X117917638Y-57731000D01*
X118556362Y-57731000D01*
X118601499Y-57735445D01*
X118601499Y-57735445D01*
G37*
G36*
X83422499Y-57735445D02*
G01*
X83459995Y-57746820D01*
X83494554Y-57765292D01*
X83524847Y-57790153D01*
X83549708Y-57820446D01*
X83568180Y-57855005D01*
X83579555Y-57892501D01*
X83584000Y-57937638D01*
X83584000Y-58676362D01*
X83579555Y-58721499D01*
X83568180Y-58758995D01*
X83549708Y-58793554D01*
X83524847Y-58823847D01*
X83494554Y-58848708D01*
X83459995Y-58867180D01*
X83422499Y-58878555D01*
X83377362Y-58883000D01*
X82738638Y-58883000D01*
X82693501Y-58878555D01*
X82656005Y-58867180D01*
X82621446Y-58848708D01*
X82591153Y-58823847D01*
X82566292Y-58793554D01*
X82547820Y-58758995D01*
X82536445Y-58721499D01*
X82532000Y-58676362D01*
X82532000Y-57937638D01*
X82536445Y-57892501D01*
X82547820Y-57855005D01*
X82566292Y-57820446D01*
X82591153Y-57790153D01*
X82621446Y-57765292D01*
X82656005Y-57746820D01*
X82693501Y-57735445D01*
X82738638Y-57731000D01*
X83377362Y-57731000D01*
X83422499Y-57735445D01*
X83422499Y-57735445D01*
G37*
G36*
X73262499Y-57735445D02*
G01*
X73299995Y-57746820D01*
X73334554Y-57765292D01*
X73364847Y-57790153D01*
X73389708Y-57820446D01*
X73408180Y-57855005D01*
X73419555Y-57892501D01*
X73424000Y-57937638D01*
X73424000Y-58676362D01*
X73419555Y-58721499D01*
X73408180Y-58758995D01*
X73389708Y-58793554D01*
X73364847Y-58823847D01*
X73334554Y-58848708D01*
X73299995Y-58867180D01*
X73262499Y-58878555D01*
X73217362Y-58883000D01*
X72578638Y-58883000D01*
X72533501Y-58878555D01*
X72496005Y-58867180D01*
X72461446Y-58848708D01*
X72431153Y-58823847D01*
X72406292Y-58793554D01*
X72387820Y-58758995D01*
X72376445Y-58721499D01*
X72372000Y-58676362D01*
X72372000Y-57937638D01*
X72376445Y-57892501D01*
X72387820Y-57855005D01*
X72406292Y-57820446D01*
X72431153Y-57790153D01*
X72461446Y-57765292D01*
X72496005Y-57746820D01*
X72533501Y-57735445D01*
X72578638Y-57731000D01*
X73217362Y-57731000D01*
X73262499Y-57735445D01*
X73262499Y-57735445D01*
G37*
G36*
X113390642Y-54400781D02*
G01*
X113536414Y-54461162D01*
X113536416Y-54461163D01*
X113667608Y-54548822D01*
X113779178Y-54660392D01*
X113858432Y-54779005D01*
X113866838Y-54791586D01*
X113927219Y-54937358D01*
X113958000Y-55092107D01*
X113958000Y-55249893D01*
X113927219Y-55404642D01*
X113869495Y-55544000D01*
X113866837Y-55550416D01*
X113779178Y-55681608D01*
X113667608Y-55793178D01*
X113536416Y-55880837D01*
X113536415Y-55880838D01*
X113536414Y-55880838D01*
X113390642Y-55941219D01*
X113235893Y-55972000D01*
X113078107Y-55972000D01*
X112923358Y-55941219D01*
X112777586Y-55880838D01*
X112777585Y-55880838D01*
X112777584Y-55880837D01*
X112646392Y-55793178D01*
X112534822Y-55681608D01*
X112447163Y-55550416D01*
X112444505Y-55544000D01*
X112386781Y-55404642D01*
X112356000Y-55249893D01*
X112356000Y-55092107D01*
X112386781Y-54937358D01*
X112447162Y-54791586D01*
X112455568Y-54779005D01*
X112534822Y-54660392D01*
X112646392Y-54548822D01*
X112777584Y-54461163D01*
X112777586Y-54461162D01*
X112923358Y-54400781D01*
X113078107Y-54370000D01*
X113235893Y-54370000D01*
X113390642Y-54400781D01*
X113390642Y-54400781D01*
G37*
G36*
X118601499Y-54659445D02*
G01*
X118638995Y-54670820D01*
X118673554Y-54689292D01*
X118703847Y-54714153D01*
X118728708Y-54744446D01*
X118747180Y-54779005D01*
X118758555Y-54816501D01*
X118763000Y-54861638D01*
X118763000Y-55600362D01*
X118758555Y-55645499D01*
X118747180Y-55682995D01*
X118728708Y-55717554D01*
X118703847Y-55747847D01*
X118673554Y-55772708D01*
X118638995Y-55791180D01*
X118601499Y-55802555D01*
X118556362Y-55807000D01*
X117917638Y-55807000D01*
X117872501Y-55802555D01*
X117835005Y-55791180D01*
X117800446Y-55772708D01*
X117770153Y-55747847D01*
X117745292Y-55717554D01*
X117726820Y-55682995D01*
X117715445Y-55645499D01*
X117711000Y-55600362D01*
X117711000Y-54861638D01*
X117715445Y-54816501D01*
X117726820Y-54779005D01*
X117745292Y-54744446D01*
X117770153Y-54714153D01*
X117800446Y-54689292D01*
X117835005Y-54670820D01*
X117872501Y-54659445D01*
X117917638Y-54655000D01*
X118556362Y-54655000D01*
X118601499Y-54659445D01*
X118601499Y-54659445D01*
G37*
G36*
X101088762Y-51484773D02*
G01*
X96950773Y-55622762D01*
X95959409Y-54631398D01*
X96208311Y-54382496D01*
X96208312Y-54382497D01*
X96312963Y-54277846D01*
X96312962Y-54277845D01*
X96561864Y-54028943D01*
X96561865Y-54028944D01*
X96666517Y-53924292D01*
X96666516Y-53924291D01*
X96915418Y-53675389D01*
X96915419Y-53675390D01*
X97020070Y-53570739D01*
X97020069Y-53570738D01*
X97268971Y-53321836D01*
X97268972Y-53321837D01*
X97373623Y-53217186D01*
X97373622Y-53217185D01*
X97622524Y-52968283D01*
X97622525Y-52968284D01*
X97727177Y-52863632D01*
X97727176Y-52863631D01*
X97976078Y-52614729D01*
X97976079Y-52614730D01*
X98080730Y-52510079D01*
X98080729Y-52510078D01*
X98329631Y-52261176D01*
X98329632Y-52261177D01*
X98434284Y-52156525D01*
X98434283Y-52156524D01*
X98683185Y-51907622D01*
X98683186Y-51907623D01*
X98787837Y-51802972D01*
X98787836Y-51802971D01*
X99036738Y-51554069D01*
X99036739Y-51554070D01*
X99141390Y-51449419D01*
X99141389Y-51449418D01*
X99390291Y-51200516D01*
X99390292Y-51200517D01*
X99494944Y-51095865D01*
X99494943Y-51095864D01*
X99743845Y-50846962D01*
X99743846Y-50846963D01*
X99848497Y-50742312D01*
X99848496Y-50742311D01*
X100097398Y-50493409D01*
X101088762Y-51484773D01*
X101088762Y-51484773D01*
G37*
G36*
X103351504Y-50742311D02*
G01*
X103351504Y-50742312D01*
X103456155Y-50846963D01*
X103456155Y-50846962D01*
X103705057Y-51095864D01*
X103705057Y-51095865D01*
X103809709Y-51200517D01*
X103809709Y-51200516D01*
X104058611Y-51449418D01*
X104058611Y-51449419D01*
X104163262Y-51554070D01*
X104163262Y-51554069D01*
X104412164Y-51802971D01*
X104412164Y-51802972D01*
X104516815Y-51907623D01*
X104516815Y-51907622D01*
X104765717Y-52156524D01*
X104765717Y-52156525D01*
X104870369Y-52261177D01*
X104870369Y-52261176D01*
X105119271Y-52510078D01*
X105119271Y-52510079D01*
X105223922Y-52614730D01*
X105223922Y-52614729D01*
X105472824Y-52863631D01*
X105472824Y-52863632D01*
X105577476Y-52968284D01*
X105577476Y-52968283D01*
X105826378Y-53217185D01*
X105826378Y-53217186D01*
X105931029Y-53321837D01*
X105931029Y-53321836D01*
X106179931Y-53570738D01*
X106179931Y-53570739D01*
X106284582Y-53675390D01*
X106284582Y-53675389D01*
X106533484Y-53924291D01*
X106533484Y-53924292D01*
X106638136Y-54028944D01*
X106638136Y-54028943D01*
X106887038Y-54277845D01*
X106887038Y-54277846D01*
X106991689Y-54382497D01*
X106991689Y-54382496D01*
X107240591Y-54631398D01*
X106249227Y-55622762D01*
X106000325Y-55373860D01*
X106000326Y-55373860D01*
X105895675Y-55269209D01*
X105895674Y-55269209D01*
X105646772Y-55020307D01*
X105646773Y-55020307D01*
X105542121Y-54915655D01*
X105542120Y-54915655D01*
X105293218Y-54666753D01*
X105293219Y-54666753D01*
X105188568Y-54562102D01*
X105188567Y-54562102D01*
X104939665Y-54313200D01*
X104939666Y-54313200D01*
X104835015Y-54208549D01*
X104835014Y-54208549D01*
X104586112Y-53959647D01*
X104586113Y-53959647D01*
X104481461Y-53854995D01*
X104481460Y-53854995D01*
X104232558Y-53606093D01*
X104232559Y-53606093D01*
X104127908Y-53501442D01*
X104127907Y-53501442D01*
X103879005Y-53252540D01*
X103879006Y-53252540D01*
X103774354Y-53147888D01*
X103774353Y-53147888D01*
X103525451Y-52898986D01*
X103525452Y-52898986D01*
X103420801Y-52794335D01*
X103420800Y-52794335D01*
X103171898Y-52545433D01*
X103171899Y-52545433D01*
X103067248Y-52440782D01*
X103067247Y-52440782D01*
X102818345Y-52191880D01*
X102818346Y-52191880D01*
X102713694Y-52087228D01*
X102713693Y-52087228D01*
X102464791Y-51838326D01*
X102464792Y-51838326D01*
X102360141Y-51733675D01*
X102360140Y-51733675D01*
X102111238Y-51484773D01*
X103102602Y-50493409D01*
X103351504Y-50742311D01*
X103351504Y-50742311D01*
G37*
G36*
X83676142Y-52685242D02*
G01*
X83824101Y-52746529D01*
X83957255Y-52835499D01*
X84070501Y-52948745D01*
X84159471Y-53081899D01*
X84220758Y-53229858D01*
X84252000Y-53386925D01*
X84252000Y-53547075D01*
X84220758Y-53704142D01*
X84159471Y-53852101D01*
X84070501Y-53985255D01*
X83957255Y-54098501D01*
X83824101Y-54187471D01*
X83676142Y-54248758D01*
X83519075Y-54280000D01*
X83358925Y-54280000D01*
X83201858Y-54248758D01*
X83053899Y-54187471D01*
X82920745Y-54098501D01*
X82807499Y-53985255D01*
X82718529Y-53852101D01*
X82657242Y-53704142D01*
X82626000Y-53547075D01*
X82626000Y-53386925D01*
X82657242Y-53229858D01*
X82718529Y-53081899D01*
X82807499Y-52948745D01*
X82920745Y-52835499D01*
X83053899Y-52746529D01*
X83201858Y-52685242D01*
X83358925Y-52654000D01*
X83519075Y-52654000D01*
X83676142Y-52685242D01*
X83676142Y-52685242D01*
G37*
G36*
X81136142Y-52685242D02*
G01*
X81284101Y-52746529D01*
X81417255Y-52835499D01*
X81530501Y-52948745D01*
X81619471Y-53081899D01*
X81680758Y-53229858D01*
X81712000Y-53386925D01*
X81712000Y-53547075D01*
X81680758Y-53704142D01*
X81619471Y-53852101D01*
X81530501Y-53985255D01*
X81417255Y-54098501D01*
X81284101Y-54187471D01*
X81136142Y-54248758D01*
X80979075Y-54280000D01*
X80818925Y-54280000D01*
X80661858Y-54248758D01*
X80513899Y-54187471D01*
X80380745Y-54098501D01*
X80267499Y-53985255D01*
X80178529Y-53852101D01*
X80117242Y-53704142D01*
X80086000Y-53547075D01*
X80086000Y-53386925D01*
X80117242Y-53229858D01*
X80178529Y-53081899D01*
X80267499Y-52948745D01*
X80380745Y-52835499D01*
X80513899Y-52746529D01*
X80661858Y-52685242D01*
X80818925Y-52654000D01*
X80979075Y-52654000D01*
X81136142Y-52685242D01*
X81136142Y-52685242D01*
G37*
G36*
X78596142Y-52685242D02*
G01*
X78744101Y-52746529D01*
X78877255Y-52835499D01*
X78990501Y-52948745D01*
X79079471Y-53081899D01*
X79140758Y-53229858D01*
X79172000Y-53386925D01*
X79172000Y-53547075D01*
X79140758Y-53704142D01*
X79079471Y-53852101D01*
X78990501Y-53985255D01*
X78877255Y-54098501D01*
X78744101Y-54187471D01*
X78596142Y-54248758D01*
X78439075Y-54280000D01*
X78278925Y-54280000D01*
X78121858Y-54248758D01*
X77973899Y-54187471D01*
X77840745Y-54098501D01*
X77727499Y-53985255D01*
X77638529Y-53852101D01*
X77577242Y-53704142D01*
X77546000Y-53547075D01*
X77546000Y-53386925D01*
X77577242Y-53229858D01*
X77638529Y-53081899D01*
X77727499Y-52948745D01*
X77840745Y-52835499D01*
X77973899Y-52746529D01*
X78121858Y-52685242D01*
X78278925Y-52654000D01*
X78439075Y-52654000D01*
X78596142Y-52685242D01*
X78596142Y-52685242D01*
G37*
G36*
X66472000Y-54280000D02*
G01*
X64846000Y-54280000D01*
X64846000Y-52654000D01*
X66472000Y-52654000D01*
X66472000Y-54280000D01*
X66472000Y-54280000D01*
G37*
G36*
X76056142Y-52685242D02*
G01*
X76204101Y-52746529D01*
X76337255Y-52835499D01*
X76450501Y-52948745D01*
X76539471Y-53081899D01*
X76600758Y-53229858D01*
X76632000Y-53386925D01*
X76632000Y-53547075D01*
X76600758Y-53704142D01*
X76539471Y-53852101D01*
X76450501Y-53985255D01*
X76337255Y-54098501D01*
X76204101Y-54187471D01*
X76056142Y-54248758D01*
X75899075Y-54280000D01*
X75738925Y-54280000D01*
X75581858Y-54248758D01*
X75433899Y-54187471D01*
X75300745Y-54098501D01*
X75187499Y-53985255D01*
X75098529Y-53852101D01*
X75037242Y-53704142D01*
X75006000Y-53547075D01*
X75006000Y-53386925D01*
X75037242Y-53229858D01*
X75098529Y-53081899D01*
X75187499Y-52948745D01*
X75300745Y-52835499D01*
X75433899Y-52746529D01*
X75581858Y-52685242D01*
X75738925Y-52654000D01*
X75899075Y-52654000D01*
X76056142Y-52685242D01*
X76056142Y-52685242D01*
G37*
G36*
X73516142Y-52685242D02*
G01*
X73664101Y-52746529D01*
X73797255Y-52835499D01*
X73910501Y-52948745D01*
X73999471Y-53081899D01*
X74060758Y-53229858D01*
X74092000Y-53386925D01*
X74092000Y-53547075D01*
X74060758Y-53704142D01*
X73999471Y-53852101D01*
X73910501Y-53985255D01*
X73797255Y-54098501D01*
X73664101Y-54187471D01*
X73516142Y-54248758D01*
X73359075Y-54280000D01*
X73198925Y-54280000D01*
X73041858Y-54248758D01*
X72893899Y-54187471D01*
X72760745Y-54098501D01*
X72647499Y-53985255D01*
X72558529Y-53852101D01*
X72497242Y-53704142D01*
X72466000Y-53547075D01*
X72466000Y-53386925D01*
X72497242Y-53229858D01*
X72558529Y-53081899D01*
X72647499Y-52948745D01*
X72760745Y-52835499D01*
X72893899Y-52746529D01*
X73041858Y-52685242D01*
X73198925Y-52654000D01*
X73359075Y-52654000D01*
X73516142Y-52685242D01*
X73516142Y-52685242D01*
G37*
G36*
X68436142Y-52685242D02*
G01*
X68584101Y-52746529D01*
X68717255Y-52835499D01*
X68830501Y-52948745D01*
X68919471Y-53081899D01*
X68980758Y-53229858D01*
X69012000Y-53386925D01*
X69012000Y-53547075D01*
X68980758Y-53704142D01*
X68919471Y-53852101D01*
X68830501Y-53985255D01*
X68717255Y-54098501D01*
X68584101Y-54187471D01*
X68436142Y-54248758D01*
X68279075Y-54280000D01*
X68118925Y-54280000D01*
X67961858Y-54248758D01*
X67813899Y-54187471D01*
X67680745Y-54098501D01*
X67567499Y-53985255D01*
X67478529Y-53852101D01*
X67417242Y-53704142D01*
X67386000Y-53547075D01*
X67386000Y-53386925D01*
X67417242Y-53229858D01*
X67478529Y-53081899D01*
X67567499Y-52948745D01*
X67680745Y-52835499D01*
X67813899Y-52746529D01*
X67961858Y-52685242D01*
X68118925Y-52654000D01*
X68279075Y-52654000D01*
X68436142Y-52685242D01*
X68436142Y-52685242D01*
G37*
G36*
X70976142Y-52685242D02*
G01*
X71124101Y-52746529D01*
X71257255Y-52835499D01*
X71370501Y-52948745D01*
X71459471Y-53081899D01*
X71520758Y-53229858D01*
X71552000Y-53386925D01*
X71552000Y-53547075D01*
X71520758Y-53704142D01*
X71459471Y-53852101D01*
X71370501Y-53985255D01*
X71257255Y-54098501D01*
X71124101Y-54187471D01*
X70976142Y-54248758D01*
X70819075Y-54280000D01*
X70658925Y-54280000D01*
X70501858Y-54248758D01*
X70353899Y-54187471D01*
X70220745Y-54098501D01*
X70107499Y-53985255D01*
X70018529Y-53852101D01*
X69957242Y-53704142D01*
X69926000Y-53547075D01*
X69926000Y-53386925D01*
X69957242Y-53229858D01*
X70018529Y-53081899D01*
X70107499Y-52948745D01*
X70220745Y-52835499D01*
X70353899Y-52746529D01*
X70501858Y-52685242D01*
X70658925Y-52654000D01*
X70819075Y-52654000D01*
X70976142Y-52685242D01*
X70976142Y-52685242D01*
G37*
G36*
X118601499Y-52909445D02*
G01*
X118638995Y-52920820D01*
X118673554Y-52939292D01*
X118703847Y-52964153D01*
X118728708Y-52994446D01*
X118747180Y-53029005D01*
X118758555Y-53066501D01*
X118763000Y-53111638D01*
X118763000Y-53850362D01*
X118758555Y-53895499D01*
X118747180Y-53932995D01*
X118728708Y-53967554D01*
X118703847Y-53997847D01*
X118673554Y-54022708D01*
X118638995Y-54041180D01*
X118601499Y-54052555D01*
X118556362Y-54057000D01*
X117917638Y-54057000D01*
X117872501Y-54052555D01*
X117835005Y-54041180D01*
X117800446Y-54022708D01*
X117770153Y-53997847D01*
X117745292Y-53967554D01*
X117726820Y-53932995D01*
X117715445Y-53895499D01*
X117711000Y-53850362D01*
X117711000Y-53111638D01*
X117715445Y-53066501D01*
X117726820Y-53029005D01*
X117745292Y-52994446D01*
X117770153Y-52964153D01*
X117800446Y-52939292D01*
X117835005Y-52920820D01*
X117872501Y-52909445D01*
X117917638Y-52905000D01*
X118556362Y-52905000D01*
X118601499Y-52909445D01*
X118601499Y-52909445D01*
G37*
G36*
X114660642Y-45821781D02*
G01*
X114806414Y-45882162D01*
X114806416Y-45882163D01*
X114937608Y-45969822D01*
X115049178Y-46081392D01*
X115136837Y-46212584D01*
X115136838Y-46212586D01*
X115197219Y-46358358D01*
X115228000Y-46513107D01*
X115228000Y-46670893D01*
X115197219Y-46825642D01*
X115136838Y-46971414D01*
X115136837Y-46971416D01*
X115049178Y-47102608D01*
X114937608Y-47214178D01*
X114806416Y-47301837D01*
X114806415Y-47301838D01*
X114806414Y-47301838D01*
X114660642Y-47362219D01*
X114505893Y-47393000D01*
X114348107Y-47393000D01*
X114193358Y-47362219D01*
X114047586Y-47301838D01*
X114047585Y-47301838D01*
X114047584Y-47301837D01*
X113916392Y-47214178D01*
X113804822Y-47102608D01*
X113717163Y-46971416D01*
X113717162Y-46971414D01*
X113656781Y-46825642D01*
X113626000Y-46670893D01*
X113626000Y-46513107D01*
X113656781Y-46358358D01*
X113717162Y-46212586D01*
X113717163Y-46212584D01*
X113804822Y-46081392D01*
X113916392Y-45969822D01*
X114047584Y-45882163D01*
X114047586Y-45882162D01*
X114193358Y-45821781D01*
X114348107Y-45791000D01*
X114505893Y-45791000D01*
X114660642Y-45821781D01*
X114660642Y-45821781D01*
G37*
G36*
X111660642Y-45821781D02*
G01*
X111806414Y-45882162D01*
X111806416Y-45882163D01*
X111937608Y-45969822D01*
X112049178Y-46081392D01*
X112136837Y-46212584D01*
X112136838Y-46212586D01*
X112197219Y-46358358D01*
X112228000Y-46513107D01*
X112228000Y-46670893D01*
X112197219Y-46825642D01*
X112136838Y-46971414D01*
X112136837Y-46971416D01*
X112049178Y-47102608D01*
X111937608Y-47214178D01*
X111806416Y-47301837D01*
X111806415Y-47301838D01*
X111806414Y-47301838D01*
X111660642Y-47362219D01*
X111505893Y-47393000D01*
X111348107Y-47393000D01*
X111193358Y-47362219D01*
X111047586Y-47301838D01*
X111047585Y-47301838D01*
X111047584Y-47301837D01*
X110916392Y-47214178D01*
X110804822Y-47102608D01*
X110717163Y-46971416D01*
X110717162Y-46971414D01*
X110656781Y-46825642D01*
X110626000Y-46670893D01*
X110626000Y-46513107D01*
X110656781Y-46358358D01*
X110717162Y-46212586D01*
X110717163Y-46212584D01*
X110804822Y-46081392D01*
X110916392Y-45969822D01*
X111047584Y-45882163D01*
X111047586Y-45882162D01*
X111193358Y-45821781D01*
X111348107Y-45791000D01*
X111505893Y-45791000D01*
X111660642Y-45821781D01*
X111660642Y-45821781D01*
G37*
G36*
X119049585Y-42910802D02*
G01*
X119199410Y-42940604D01*
X119481674Y-43057521D01*
X119735705Y-43227259D01*
X119951741Y-43443295D01*
X120121479Y-43697326D01*
X120238396Y-43979590D01*
X120298000Y-44279240D01*
X120298000Y-44584760D01*
X120238396Y-44884410D01*
X120121479Y-45166674D01*
X119951741Y-45420705D01*
X119735705Y-45636741D01*
X119481674Y-45806479D01*
X119199410Y-45923396D01*
X119049585Y-45953198D01*
X118899761Y-45983000D01*
X118594239Y-45983000D01*
X118444415Y-45953198D01*
X118294590Y-45923396D01*
X118012326Y-45806479D01*
X117758295Y-45636741D01*
X117542259Y-45420705D01*
X117372521Y-45166674D01*
X117255604Y-44884410D01*
X117196000Y-44584760D01*
X117196000Y-44279240D01*
X117255604Y-43979590D01*
X117372521Y-43697326D01*
X117542259Y-43443295D01*
X117758295Y-43227259D01*
X118012326Y-43057521D01*
X118294590Y-42940604D01*
X118444415Y-42910802D01*
X118594239Y-42881000D01*
X118899761Y-42881000D01*
X119049585Y-42910802D01*
X119049585Y-42910802D01*
G37*
G36*
X78596142Y-43795242D02*
G01*
X78744101Y-43856529D01*
X78877255Y-43945499D01*
X78990501Y-44058745D01*
X79079471Y-44191899D01*
X79140758Y-44339858D01*
X79172000Y-44496925D01*
X79172000Y-44657075D01*
X79140758Y-44814142D01*
X79079471Y-44962101D01*
X78990501Y-45095255D01*
X78877255Y-45208501D01*
X78744101Y-45297471D01*
X78596142Y-45358758D01*
X78439075Y-45390000D01*
X78278925Y-45390000D01*
X78121858Y-45358758D01*
X77973899Y-45297471D01*
X77840745Y-45208501D01*
X77727499Y-45095255D01*
X77638529Y-44962101D01*
X77577242Y-44814142D01*
X77546000Y-44657075D01*
X77546000Y-44496925D01*
X77577242Y-44339858D01*
X77638529Y-44191899D01*
X77727499Y-44058745D01*
X77840745Y-43945499D01*
X77973899Y-43856529D01*
X78121858Y-43795242D01*
X78278925Y-43764000D01*
X78439075Y-43764000D01*
X78596142Y-43795242D01*
X78596142Y-43795242D01*
G37*
G36*
X65896142Y-43795242D02*
G01*
X66044101Y-43856529D01*
X66177255Y-43945499D01*
X66290501Y-44058745D01*
X66379471Y-44191899D01*
X66440758Y-44339858D01*
X66472000Y-44496925D01*
X66472000Y-44657075D01*
X66440758Y-44814142D01*
X66379471Y-44962101D01*
X66290501Y-45095255D01*
X66177255Y-45208501D01*
X66044101Y-45297471D01*
X65896142Y-45358758D01*
X65739075Y-45390000D01*
X65578925Y-45390000D01*
X65421858Y-45358758D01*
X65273899Y-45297471D01*
X65140745Y-45208501D01*
X65027499Y-45095255D01*
X64938529Y-44962101D01*
X64877242Y-44814142D01*
X64846000Y-44657075D01*
X64846000Y-44496925D01*
X64877242Y-44339858D01*
X64938529Y-44191899D01*
X65027499Y-44058745D01*
X65140745Y-43945499D01*
X65273899Y-43856529D01*
X65421858Y-43795242D01*
X65578925Y-43764000D01*
X65739075Y-43764000D01*
X65896142Y-43795242D01*
X65896142Y-43795242D01*
G37*
G36*
X68436142Y-43795242D02*
G01*
X68584101Y-43856529D01*
X68717255Y-43945499D01*
X68830501Y-44058745D01*
X68919471Y-44191899D01*
X68980758Y-44339858D01*
X69012000Y-44496925D01*
X69012000Y-44657075D01*
X68980758Y-44814142D01*
X68919471Y-44962101D01*
X68830501Y-45095255D01*
X68717255Y-45208501D01*
X68584101Y-45297471D01*
X68436142Y-45358758D01*
X68279075Y-45390000D01*
X68118925Y-45390000D01*
X67961858Y-45358758D01*
X67813899Y-45297471D01*
X67680745Y-45208501D01*
X67567499Y-45095255D01*
X67478529Y-44962101D01*
X67417242Y-44814142D01*
X67386000Y-44657075D01*
X67386000Y-44496925D01*
X67417242Y-44339858D01*
X67478529Y-44191899D01*
X67567499Y-44058745D01*
X67680745Y-43945499D01*
X67813899Y-43856529D01*
X67961858Y-43795242D01*
X68118925Y-43764000D01*
X68279075Y-43764000D01*
X68436142Y-43795242D01*
X68436142Y-43795242D01*
G37*
G36*
X70976142Y-43795242D02*
G01*
X71124101Y-43856529D01*
X71257255Y-43945499D01*
X71370501Y-44058745D01*
X71459471Y-44191899D01*
X71520758Y-44339858D01*
X71552000Y-44496925D01*
X71552000Y-44657075D01*
X71520758Y-44814142D01*
X71459471Y-44962101D01*
X71370501Y-45095255D01*
X71257255Y-45208501D01*
X71124101Y-45297471D01*
X70976142Y-45358758D01*
X70819075Y-45390000D01*
X70658925Y-45390000D01*
X70501858Y-45358758D01*
X70353899Y-45297471D01*
X70220745Y-45208501D01*
X70107499Y-45095255D01*
X70018529Y-44962101D01*
X69957242Y-44814142D01*
X69926000Y-44657075D01*
X69926000Y-44496925D01*
X69957242Y-44339858D01*
X70018529Y-44191899D01*
X70107499Y-44058745D01*
X70220745Y-43945499D01*
X70353899Y-43856529D01*
X70501858Y-43795242D01*
X70658925Y-43764000D01*
X70819075Y-43764000D01*
X70976142Y-43795242D01*
X70976142Y-43795242D01*
G37*
G36*
X81136142Y-43795242D02*
G01*
X81284101Y-43856529D01*
X81417255Y-43945499D01*
X81530501Y-44058745D01*
X81619471Y-44191899D01*
X81680758Y-44339858D01*
X81712000Y-44496925D01*
X81712000Y-44657075D01*
X81680758Y-44814142D01*
X81619471Y-44962101D01*
X81530501Y-45095255D01*
X81417255Y-45208501D01*
X81284101Y-45297471D01*
X81136142Y-45358758D01*
X80979075Y-45390000D01*
X80818925Y-45390000D01*
X80661858Y-45358758D01*
X80513899Y-45297471D01*
X80380745Y-45208501D01*
X80267499Y-45095255D01*
X80178529Y-44962101D01*
X80117242Y-44814142D01*
X80086000Y-44657075D01*
X80086000Y-44496925D01*
X80117242Y-44339858D01*
X80178529Y-44191899D01*
X80267499Y-44058745D01*
X80380745Y-43945499D01*
X80513899Y-43856529D01*
X80661858Y-43795242D01*
X80818925Y-43764000D01*
X80979075Y-43764000D01*
X81136142Y-43795242D01*
X81136142Y-43795242D01*
G37*
G36*
X76056142Y-43795242D02*
G01*
X76204101Y-43856529D01*
X76337255Y-43945499D01*
X76450501Y-44058745D01*
X76539471Y-44191899D01*
X76600758Y-44339858D01*
X76632000Y-44496925D01*
X76632000Y-44657075D01*
X76600758Y-44814142D01*
X76539471Y-44962101D01*
X76450501Y-45095255D01*
X76337255Y-45208501D01*
X76204101Y-45297471D01*
X76056142Y-45358758D01*
X75899075Y-45390000D01*
X75738925Y-45390000D01*
X75581858Y-45358758D01*
X75433899Y-45297471D01*
X75300745Y-45208501D01*
X75187499Y-45095255D01*
X75098529Y-44962101D01*
X75037242Y-44814142D01*
X75006000Y-44657075D01*
X75006000Y-44496925D01*
X75037242Y-44339858D01*
X75098529Y-44191899D01*
X75187499Y-44058745D01*
X75300745Y-43945499D01*
X75433899Y-43856529D01*
X75581858Y-43795242D01*
X75738925Y-43764000D01*
X75899075Y-43764000D01*
X76056142Y-43795242D01*
X76056142Y-43795242D01*
G37*
G36*
X73516142Y-43795242D02*
G01*
X73664101Y-43856529D01*
X73797255Y-43945499D01*
X73910501Y-44058745D01*
X73999471Y-44191899D01*
X74060758Y-44339858D01*
X74092000Y-44496925D01*
X74092000Y-44657075D01*
X74060758Y-44814142D01*
X73999471Y-44962101D01*
X73910501Y-45095255D01*
X73797255Y-45208501D01*
X73664101Y-45297471D01*
X73516142Y-45358758D01*
X73359075Y-45390000D01*
X73198925Y-45390000D01*
X73041858Y-45358758D01*
X72893899Y-45297471D01*
X72760745Y-45208501D01*
X72647499Y-45095255D01*
X72558529Y-44962101D01*
X72497242Y-44814142D01*
X72466000Y-44657075D01*
X72466000Y-44496925D01*
X72497242Y-44339858D01*
X72558529Y-44191899D01*
X72647499Y-44058745D01*
X72760745Y-43945499D01*
X72893899Y-43856529D01*
X73041858Y-43795242D01*
X73198925Y-43764000D01*
X73359075Y-43764000D01*
X73516142Y-43795242D01*
X73516142Y-43795242D01*
G37*
G36*
X83676142Y-43795242D02*
G01*
X83824101Y-43856529D01*
X83957255Y-43945499D01*
X84070501Y-44058745D01*
X84159471Y-44191899D01*
X84220758Y-44339858D01*
X84252000Y-44496925D01*
X84252000Y-44657075D01*
X84220758Y-44814142D01*
X84159471Y-44962101D01*
X84070501Y-45095255D01*
X83957255Y-45208501D01*
X83824101Y-45297471D01*
X83676142Y-45358758D01*
X83519075Y-45390000D01*
X83358925Y-45390000D01*
X83201858Y-45358758D01*
X83053899Y-45297471D01*
X82920745Y-45208501D01*
X82807499Y-45095255D01*
X82718529Y-44962101D01*
X82657242Y-44814142D01*
X82626000Y-44657075D01*
X82626000Y-44496925D01*
X82657242Y-44339858D01*
X82718529Y-44191899D01*
X82807499Y-44058745D01*
X82920745Y-43945499D01*
X83053899Y-43856529D01*
X83201858Y-43795242D01*
X83358925Y-43764000D01*
X83519075Y-43764000D01*
X83676142Y-43795242D01*
X83676142Y-43795242D01*
G37*
G36*
X114660642Y-42821781D02*
G01*
X114806414Y-42882162D01*
X114806416Y-42882163D01*
X114937608Y-42969822D01*
X115049178Y-43081392D01*
X115136837Y-43212584D01*
X115136838Y-43212586D01*
X115197219Y-43358358D01*
X115228000Y-43513107D01*
X115228000Y-43670893D01*
X115197219Y-43825642D01*
X115136838Y-43971414D01*
X115136837Y-43971416D01*
X115049178Y-44102608D01*
X114937608Y-44214178D01*
X114806416Y-44301837D01*
X114806415Y-44301838D01*
X114806414Y-44301838D01*
X114660642Y-44362219D01*
X114505893Y-44393000D01*
X114348107Y-44393000D01*
X114193358Y-44362219D01*
X114047586Y-44301838D01*
X114047585Y-44301838D01*
X114047584Y-44301837D01*
X113916392Y-44214178D01*
X113804822Y-44102608D01*
X113717163Y-43971416D01*
X113717162Y-43971414D01*
X113656781Y-43825642D01*
X113626000Y-43670893D01*
X113626000Y-43513107D01*
X113656781Y-43358358D01*
X113717162Y-43212586D01*
X113717163Y-43212584D01*
X113804822Y-43081392D01*
X113916392Y-42969822D01*
X114047584Y-42882163D01*
X114047586Y-42882162D01*
X114193358Y-42821781D01*
X114348107Y-42791000D01*
X114505893Y-42791000D01*
X114660642Y-42821781D01*
X114660642Y-42821781D01*
G37*
G36*
X111660642Y-42821781D02*
G01*
X111806414Y-42882162D01*
X111806416Y-42882163D01*
X111937608Y-42969822D01*
X112049178Y-43081392D01*
X112136837Y-43212584D01*
X112136838Y-43212586D01*
X112197219Y-43358358D01*
X112228000Y-43513107D01*
X112228000Y-43670893D01*
X112197219Y-43825642D01*
X112136838Y-43971414D01*
X112136837Y-43971416D01*
X112049178Y-44102608D01*
X111937608Y-44214178D01*
X111806416Y-44301837D01*
X111806415Y-44301838D01*
X111806414Y-44301838D01*
X111660642Y-44362219D01*
X111505893Y-44393000D01*
X111348107Y-44393000D01*
X111193358Y-44362219D01*
X111047586Y-44301838D01*
X111047585Y-44301838D01*
X111047584Y-44301837D01*
X110916392Y-44214178D01*
X110804822Y-44102608D01*
X110717163Y-43971416D01*
X110717162Y-43971414D01*
X110656781Y-43825642D01*
X110626000Y-43670893D01*
X110626000Y-43513107D01*
X110656781Y-43358358D01*
X110717162Y-43212586D01*
X110717163Y-43212584D01*
X110804822Y-43081392D01*
X110916392Y-42969822D01*
X111047584Y-42882163D01*
X111047586Y-42882162D01*
X111193358Y-42821781D01*
X111348107Y-42791000D01*
X111505893Y-42791000D01*
X111660642Y-42821781D01*
X111660642Y-42821781D01*
G37*
G36*
X78723499Y-42086445D02*
G01*
X78760995Y-42097820D01*
X78795554Y-42116292D01*
X78825847Y-42141153D01*
X78850708Y-42171446D01*
X78869180Y-42206005D01*
X78880555Y-42243501D01*
X78885000Y-42288638D01*
X78885000Y-43027362D01*
X78880555Y-43072499D01*
X78869180Y-43109995D01*
X78850708Y-43144554D01*
X78825847Y-43174847D01*
X78795554Y-43199708D01*
X78760995Y-43218180D01*
X78723499Y-43229555D01*
X78678362Y-43234000D01*
X78039638Y-43234000D01*
X77994501Y-43229555D01*
X77957005Y-43218180D01*
X77922446Y-43199708D01*
X77892153Y-43174847D01*
X77867292Y-43144554D01*
X77848820Y-43109995D01*
X77837445Y-43072499D01*
X77833000Y-43027362D01*
X77833000Y-42288638D01*
X77837445Y-42243501D01*
X77848820Y-42206005D01*
X77867292Y-42171446D01*
X77892153Y-42141153D01*
X77922446Y-42116292D01*
X77957005Y-42097820D01*
X77994501Y-42086445D01*
X78039638Y-42082000D01*
X78678362Y-42082000D01*
X78723499Y-42086445D01*
X78723499Y-42086445D01*
G37*
G36*
X71103499Y-42086445D02*
G01*
X71140995Y-42097820D01*
X71175554Y-42116292D01*
X71205847Y-42141153D01*
X71230708Y-42171446D01*
X71249180Y-42206005D01*
X71260555Y-42243501D01*
X71265000Y-42288638D01*
X71265000Y-43027362D01*
X71260555Y-43072499D01*
X71249180Y-43109995D01*
X71230708Y-43144554D01*
X71205847Y-43174847D01*
X71175554Y-43199708D01*
X71140995Y-43218180D01*
X71103499Y-43229555D01*
X71058362Y-43234000D01*
X70419638Y-43234000D01*
X70374501Y-43229555D01*
X70337005Y-43218180D01*
X70302446Y-43199708D01*
X70272153Y-43174847D01*
X70247292Y-43144554D01*
X70228820Y-43109995D01*
X70217445Y-43072499D01*
X70213000Y-43027362D01*
X70213000Y-42288638D01*
X70217445Y-42243501D01*
X70228820Y-42206005D01*
X70247292Y-42171446D01*
X70272153Y-42141153D01*
X70302446Y-42116292D01*
X70337005Y-42097820D01*
X70374501Y-42086445D01*
X70419638Y-42082000D01*
X71058362Y-42082000D01*
X71103499Y-42086445D01*
X71103499Y-42086445D01*
G37*
G36*
X76183499Y-42086445D02*
G01*
X76220995Y-42097820D01*
X76255554Y-42116292D01*
X76285847Y-42141153D01*
X76310708Y-42171446D01*
X76329180Y-42206005D01*
X76340555Y-42243501D01*
X76345000Y-42288638D01*
X76345000Y-43027362D01*
X76340555Y-43072499D01*
X76329180Y-43109995D01*
X76310708Y-43144554D01*
X76285847Y-43174847D01*
X76255554Y-43199708D01*
X76220995Y-43218180D01*
X76183499Y-43229555D01*
X76138362Y-43234000D01*
X75499638Y-43234000D01*
X75454501Y-43229555D01*
X75417005Y-43218180D01*
X75382446Y-43199708D01*
X75352153Y-43174847D01*
X75327292Y-43144554D01*
X75308820Y-43109995D01*
X75297445Y-43072499D01*
X75293000Y-43027362D01*
X75293000Y-42288638D01*
X75297445Y-42243501D01*
X75308820Y-42206005D01*
X75327292Y-42171446D01*
X75352153Y-42141153D01*
X75382446Y-42116292D01*
X75417005Y-42097820D01*
X75454501Y-42086445D01*
X75499638Y-42082000D01*
X76138362Y-42082000D01*
X76183499Y-42086445D01*
X76183499Y-42086445D01*
G37*
G36*
X73643499Y-42086445D02*
G01*
X73680995Y-42097820D01*
X73715554Y-42116292D01*
X73745847Y-42141153D01*
X73770708Y-42171446D01*
X73789180Y-42206005D01*
X73800555Y-42243501D01*
X73805000Y-42288638D01*
X73805000Y-43027362D01*
X73800555Y-43072499D01*
X73789180Y-43109995D01*
X73770708Y-43144554D01*
X73745847Y-43174847D01*
X73715554Y-43199708D01*
X73680995Y-43218180D01*
X73643499Y-43229555D01*
X73598362Y-43234000D01*
X72959638Y-43234000D01*
X72914501Y-43229555D01*
X72877005Y-43218180D01*
X72842446Y-43199708D01*
X72812153Y-43174847D01*
X72787292Y-43144554D01*
X72768820Y-43109995D01*
X72757445Y-43072499D01*
X72753000Y-43027362D01*
X72753000Y-42288638D01*
X72757445Y-42243501D01*
X72768820Y-42206005D01*
X72787292Y-42171446D01*
X72812153Y-42141153D01*
X72842446Y-42116292D01*
X72877005Y-42097820D01*
X72914501Y-42086445D01*
X72959638Y-42082000D01*
X73598362Y-42082000D01*
X73643499Y-42086445D01*
X73643499Y-42086445D01*
G37*
G36*
X81263499Y-42086445D02*
G01*
X81300995Y-42097820D01*
X81335554Y-42116292D01*
X81365847Y-42141153D01*
X81390708Y-42171446D01*
X81409180Y-42206005D01*
X81420555Y-42243501D01*
X81425000Y-42288638D01*
X81425000Y-43027362D01*
X81420555Y-43072499D01*
X81409180Y-43109995D01*
X81390708Y-43144554D01*
X81365847Y-43174847D01*
X81335554Y-43199708D01*
X81300995Y-43218180D01*
X81263499Y-43229555D01*
X81218362Y-43234000D01*
X80579638Y-43234000D01*
X80534501Y-43229555D01*
X80497005Y-43218180D01*
X80462446Y-43199708D01*
X80432153Y-43174847D01*
X80407292Y-43144554D01*
X80388820Y-43109995D01*
X80377445Y-43072499D01*
X80373000Y-43027362D01*
X80373000Y-42288638D01*
X80377445Y-42243501D01*
X80388820Y-42206005D01*
X80407292Y-42171446D01*
X80432153Y-42141153D01*
X80462446Y-42116292D01*
X80497005Y-42097820D01*
X80534501Y-42086445D01*
X80579638Y-42082000D01*
X81218362Y-42082000D01*
X81263499Y-42086445D01*
X81263499Y-42086445D01*
G37*
G36*
X68563499Y-42086445D02*
G01*
X68600995Y-42097820D01*
X68635554Y-42116292D01*
X68665847Y-42141153D01*
X68690708Y-42171446D01*
X68709180Y-42206005D01*
X68720555Y-42243501D01*
X68725000Y-42288638D01*
X68725000Y-43027362D01*
X68720555Y-43072499D01*
X68709180Y-43109995D01*
X68690708Y-43144554D01*
X68665847Y-43174847D01*
X68635554Y-43199708D01*
X68600995Y-43218180D01*
X68563499Y-43229555D01*
X68518362Y-43234000D01*
X67879638Y-43234000D01*
X67834501Y-43229555D01*
X67797005Y-43218180D01*
X67762446Y-43199708D01*
X67732153Y-43174847D01*
X67707292Y-43144554D01*
X67688820Y-43109995D01*
X67677445Y-43072499D01*
X67673000Y-43027362D01*
X67673000Y-42288638D01*
X67677445Y-42243501D01*
X67688820Y-42206005D01*
X67707292Y-42171446D01*
X67732153Y-42141153D01*
X67762446Y-42116292D01*
X67797005Y-42097820D01*
X67834501Y-42086445D01*
X67879638Y-42082000D01*
X68518362Y-42082000D01*
X68563499Y-42086445D01*
X68563499Y-42086445D01*
G37*
G36*
X83803499Y-42072445D02*
G01*
X83840995Y-42083820D01*
X83875554Y-42102292D01*
X83905847Y-42127153D01*
X83930708Y-42157446D01*
X83949180Y-42192005D01*
X83960555Y-42229501D01*
X83965000Y-42274638D01*
X83965000Y-43013362D01*
X83960555Y-43058499D01*
X83949180Y-43095995D01*
X83930708Y-43130554D01*
X83905847Y-43160847D01*
X83875554Y-43185708D01*
X83840995Y-43204180D01*
X83803499Y-43215555D01*
X83758362Y-43220000D01*
X83119638Y-43220000D01*
X83074501Y-43215555D01*
X83037005Y-43204180D01*
X83002446Y-43185708D01*
X82972153Y-43160847D01*
X82947292Y-43130554D01*
X82928820Y-43095995D01*
X82917445Y-43058499D01*
X82913000Y-43013362D01*
X82913000Y-42274638D01*
X82917445Y-42229501D01*
X82928820Y-42192005D01*
X82947292Y-42157446D01*
X82972153Y-42127153D01*
X83002446Y-42102292D01*
X83037005Y-42083820D01*
X83074501Y-42072445D01*
X83119638Y-42068000D01*
X83758362Y-42068000D01*
X83803499Y-42072445D01*
X83803499Y-42072445D01*
G37*
G36*
X71103499Y-40336445D02*
G01*
X71140995Y-40347820D01*
X71175554Y-40366292D01*
X71205847Y-40391153D01*
X71230708Y-40421446D01*
X71249180Y-40456005D01*
X71260555Y-40493501D01*
X71265000Y-40538638D01*
X71265000Y-41277362D01*
X71260555Y-41322499D01*
X71249180Y-41359995D01*
X71230708Y-41394554D01*
X71205847Y-41424847D01*
X71175554Y-41449708D01*
X71140995Y-41468180D01*
X71103499Y-41479555D01*
X71058362Y-41484000D01*
X70419638Y-41484000D01*
X70374501Y-41479555D01*
X70337005Y-41468180D01*
X70302446Y-41449708D01*
X70272153Y-41424847D01*
X70247292Y-41394554D01*
X70228820Y-41359995D01*
X70217445Y-41322499D01*
X70213000Y-41277362D01*
X70213000Y-40538638D01*
X70217445Y-40493501D01*
X70228820Y-40456005D01*
X70247292Y-40421446D01*
X70272153Y-40391153D01*
X70302446Y-40366292D01*
X70337005Y-40347820D01*
X70374501Y-40336445D01*
X70419638Y-40332000D01*
X71058362Y-40332000D01*
X71103499Y-40336445D01*
X71103499Y-40336445D01*
G37*
G36*
X78723499Y-40336445D02*
G01*
X78760995Y-40347820D01*
X78795554Y-40366292D01*
X78825847Y-40391153D01*
X78850708Y-40421446D01*
X78869180Y-40456005D01*
X78880555Y-40493501D01*
X78885000Y-40538638D01*
X78885000Y-41277362D01*
X78880555Y-41322499D01*
X78869180Y-41359995D01*
X78850708Y-41394554D01*
X78825847Y-41424847D01*
X78795554Y-41449708D01*
X78760995Y-41468180D01*
X78723499Y-41479555D01*
X78678362Y-41484000D01*
X78039638Y-41484000D01*
X77994501Y-41479555D01*
X77957005Y-41468180D01*
X77922446Y-41449708D01*
X77892153Y-41424847D01*
X77867292Y-41394554D01*
X77848820Y-41359995D01*
X77837445Y-41322499D01*
X77833000Y-41277362D01*
X77833000Y-40538638D01*
X77837445Y-40493501D01*
X77848820Y-40456005D01*
X77867292Y-40421446D01*
X77892153Y-40391153D01*
X77922446Y-40366292D01*
X77957005Y-40347820D01*
X77994501Y-40336445D01*
X78039638Y-40332000D01*
X78678362Y-40332000D01*
X78723499Y-40336445D01*
X78723499Y-40336445D01*
G37*
G36*
X76183499Y-40336445D02*
G01*
X76220995Y-40347820D01*
X76255554Y-40366292D01*
X76285847Y-40391153D01*
X76310708Y-40421446D01*
X76329180Y-40456005D01*
X76340555Y-40493501D01*
X76345000Y-40538638D01*
X76345000Y-41277362D01*
X76340555Y-41322499D01*
X76329180Y-41359995D01*
X76310708Y-41394554D01*
X76285847Y-41424847D01*
X76255554Y-41449708D01*
X76220995Y-41468180D01*
X76183499Y-41479555D01*
X76138362Y-41484000D01*
X75499638Y-41484000D01*
X75454501Y-41479555D01*
X75417005Y-41468180D01*
X75382446Y-41449708D01*
X75352153Y-41424847D01*
X75327292Y-41394554D01*
X75308820Y-41359995D01*
X75297445Y-41322499D01*
X75293000Y-41277362D01*
X75293000Y-40538638D01*
X75297445Y-40493501D01*
X75308820Y-40456005D01*
X75327292Y-40421446D01*
X75352153Y-40391153D01*
X75382446Y-40366292D01*
X75417005Y-40347820D01*
X75454501Y-40336445D01*
X75499638Y-40332000D01*
X76138362Y-40332000D01*
X76183499Y-40336445D01*
X76183499Y-40336445D01*
G37*
G36*
X81263499Y-40336445D02*
G01*
X81300995Y-40347820D01*
X81335554Y-40366292D01*
X81365847Y-40391153D01*
X81390708Y-40421446D01*
X81409180Y-40456005D01*
X81420555Y-40493501D01*
X81425000Y-40538638D01*
X81425000Y-41277362D01*
X81420555Y-41322499D01*
X81409180Y-41359995D01*
X81390708Y-41394554D01*
X81365847Y-41424847D01*
X81335554Y-41449708D01*
X81300995Y-41468180D01*
X81263499Y-41479555D01*
X81218362Y-41484000D01*
X80579638Y-41484000D01*
X80534501Y-41479555D01*
X80497005Y-41468180D01*
X80462446Y-41449708D01*
X80432153Y-41424847D01*
X80407292Y-41394554D01*
X80388820Y-41359995D01*
X80377445Y-41322499D01*
X80373000Y-41277362D01*
X80373000Y-40538638D01*
X80377445Y-40493501D01*
X80388820Y-40456005D01*
X80407292Y-40421446D01*
X80432153Y-40391153D01*
X80462446Y-40366292D01*
X80497005Y-40347820D01*
X80534501Y-40336445D01*
X80579638Y-40332000D01*
X81218362Y-40332000D01*
X81263499Y-40336445D01*
X81263499Y-40336445D01*
G37*
G36*
X68563499Y-40336445D02*
G01*
X68600995Y-40347820D01*
X68635554Y-40366292D01*
X68665847Y-40391153D01*
X68690708Y-40421446D01*
X68709180Y-40456005D01*
X68720555Y-40493501D01*
X68725000Y-40538638D01*
X68725000Y-41277362D01*
X68720555Y-41322499D01*
X68709180Y-41359995D01*
X68690708Y-41394554D01*
X68665847Y-41424847D01*
X68635554Y-41449708D01*
X68600995Y-41468180D01*
X68563499Y-41479555D01*
X68518362Y-41484000D01*
X67879638Y-41484000D01*
X67834501Y-41479555D01*
X67797005Y-41468180D01*
X67762446Y-41449708D01*
X67732153Y-41424847D01*
X67707292Y-41394554D01*
X67688820Y-41359995D01*
X67677445Y-41322499D01*
X67673000Y-41277362D01*
X67673000Y-40538638D01*
X67677445Y-40493501D01*
X67688820Y-40456005D01*
X67707292Y-40421446D01*
X67732153Y-40391153D01*
X67762446Y-40366292D01*
X67797005Y-40347820D01*
X67834501Y-40336445D01*
X67879638Y-40332000D01*
X68518362Y-40332000D01*
X68563499Y-40336445D01*
X68563499Y-40336445D01*
G37*
G36*
X73643499Y-40336445D02*
G01*
X73680995Y-40347820D01*
X73715554Y-40366292D01*
X73745847Y-40391153D01*
X73770708Y-40421446D01*
X73789180Y-40456005D01*
X73800555Y-40493501D01*
X73805000Y-40538638D01*
X73805000Y-41277362D01*
X73800555Y-41322499D01*
X73789180Y-41359995D01*
X73770708Y-41394554D01*
X73745847Y-41424847D01*
X73715554Y-41449708D01*
X73680995Y-41468180D01*
X73643499Y-41479555D01*
X73598362Y-41484000D01*
X72959638Y-41484000D01*
X72914501Y-41479555D01*
X72877005Y-41468180D01*
X72842446Y-41449708D01*
X72812153Y-41424847D01*
X72787292Y-41394554D01*
X72768820Y-41359995D01*
X72757445Y-41322499D01*
X72753000Y-41277362D01*
X72753000Y-40538638D01*
X72757445Y-40493501D01*
X72768820Y-40456005D01*
X72787292Y-40421446D01*
X72812153Y-40391153D01*
X72842446Y-40366292D01*
X72877005Y-40347820D01*
X72914501Y-40336445D01*
X72959638Y-40332000D01*
X73598362Y-40332000D01*
X73643499Y-40336445D01*
X73643499Y-40336445D01*
G37*
G36*
X83803499Y-40322445D02*
G01*
X83840995Y-40333820D01*
X83875554Y-40352292D01*
X83905847Y-40377153D01*
X83930708Y-40407446D01*
X83949180Y-40442005D01*
X83960555Y-40479501D01*
X83965000Y-40524638D01*
X83965000Y-41263362D01*
X83960555Y-41308499D01*
X83949180Y-41345995D01*
X83930708Y-41380554D01*
X83905847Y-41410847D01*
X83875554Y-41435708D01*
X83840995Y-41454180D01*
X83803499Y-41465555D01*
X83758362Y-41470000D01*
X83119638Y-41470000D01*
X83074501Y-41465555D01*
X83037005Y-41454180D01*
X83002446Y-41435708D01*
X82972153Y-41410847D01*
X82947292Y-41380554D01*
X82928820Y-41345995D01*
X82917445Y-41308499D01*
X82913000Y-41263362D01*
X82913000Y-40524638D01*
X82917445Y-40479501D01*
X82928820Y-40442005D01*
X82947292Y-40407446D01*
X82972153Y-40377153D01*
X83002446Y-40352292D01*
X83037005Y-40333820D01*
X83074501Y-40322445D01*
X83119638Y-40318000D01*
X83758362Y-40318000D01*
X83803499Y-40322445D01*
X83803499Y-40322445D01*
G37*
G36*
X111660642Y-39821781D02*
G01*
X111806414Y-39882162D01*
X111806416Y-39882163D01*
X111937608Y-39969822D01*
X112049178Y-40081392D01*
X112136837Y-40212584D01*
X112136838Y-40212586D01*
X112197219Y-40358358D01*
X112228000Y-40513107D01*
X112228000Y-40670893D01*
X112197219Y-40825642D01*
X112151200Y-40936741D01*
X112136837Y-40971416D01*
X112049178Y-41102608D01*
X111937608Y-41214178D01*
X111806416Y-41301837D01*
X111806415Y-41301838D01*
X111806414Y-41301838D01*
X111660642Y-41362219D01*
X111505893Y-41393000D01*
X111348107Y-41393000D01*
X111193358Y-41362219D01*
X111047586Y-41301838D01*
X111047585Y-41301838D01*
X111047584Y-41301837D01*
X110916392Y-41214178D01*
X110804822Y-41102608D01*
X110717163Y-40971416D01*
X110702800Y-40936741D01*
X110656781Y-40825642D01*
X110626000Y-40670893D01*
X110626000Y-40513107D01*
X110656781Y-40358358D01*
X110717162Y-40212586D01*
X110717163Y-40212584D01*
X110804822Y-40081392D01*
X110916392Y-39969822D01*
X111047584Y-39882163D01*
X111047586Y-39882162D01*
X111193358Y-39821781D01*
X111348107Y-39791000D01*
X111505893Y-39791000D01*
X111660642Y-39821781D01*
X111660642Y-39821781D01*
G37*
G36*
X114660642Y-39821781D02*
G01*
X114806414Y-39882162D01*
X114806416Y-39882163D01*
X114937608Y-39969822D01*
X115049178Y-40081392D01*
X115136837Y-40212584D01*
X115136838Y-40212586D01*
X115197219Y-40358358D01*
X115228000Y-40513107D01*
X115228000Y-40670893D01*
X115197219Y-40825642D01*
X115151200Y-40936741D01*
X115136837Y-40971416D01*
X115049178Y-41102608D01*
X114937608Y-41214178D01*
X114806416Y-41301837D01*
X114806415Y-41301838D01*
X114806414Y-41301838D01*
X114660642Y-41362219D01*
X114505893Y-41393000D01*
X114348107Y-41393000D01*
X114193358Y-41362219D01*
X114047586Y-41301838D01*
X114047585Y-41301838D01*
X114047584Y-41301837D01*
X113916392Y-41214178D01*
X113804822Y-41102608D01*
X113717163Y-40971416D01*
X113702800Y-40936741D01*
X113656781Y-40825642D01*
X113626000Y-40670893D01*
X113626000Y-40513107D01*
X113656781Y-40358358D01*
X113717162Y-40212586D01*
X113717163Y-40212584D01*
X113804822Y-40081392D01*
X113916392Y-39969822D01*
X114047584Y-39882163D01*
X114047586Y-39882162D01*
X114193358Y-39821781D01*
X114348107Y-39791000D01*
X114505893Y-39791000D01*
X114660642Y-39821781D01*
X114660642Y-39821781D01*
G37*
G36*
X104486710Y-33937070D02*
G01*
X105178447Y-34223597D01*
X105381092Y-34359000D01*
X105800996Y-34639571D01*
X106330429Y-35169004D01*
X106608374Y-35584978D01*
X106746403Y-35791553D01*
X107032930Y-36483290D01*
X107179000Y-37217633D01*
X107179000Y-37966367D01*
X107032930Y-38700710D01*
X106746403Y-39392447D01*
X106746402Y-39392448D01*
X106330429Y-40014996D01*
X105800996Y-40544429D01*
X105537180Y-40720705D01*
X105178447Y-40960403D01*
X104486710Y-41246930D01*
X103752367Y-41393000D01*
X103003633Y-41393000D01*
X102269290Y-41246930D01*
X101577553Y-40960403D01*
X101218820Y-40720705D01*
X100955004Y-40544429D01*
X100425571Y-40014996D01*
X100009598Y-39392448D01*
X100009597Y-39392447D01*
X99723070Y-38700710D01*
X99577000Y-37966367D01*
X99577000Y-37217633D01*
X99723070Y-36483290D01*
X100009597Y-35791553D01*
X100147626Y-35584978D01*
X100425571Y-35169004D01*
X100955004Y-34639571D01*
X101374908Y-34359000D01*
X101577553Y-34223597D01*
X102269290Y-33937070D01*
X103003633Y-33791000D01*
X103752367Y-33791000D01*
X104486710Y-33937070D01*
X104486710Y-33937070D01*
G37*
G36*
X119011332Y-38203193D02*
G01*
X119199410Y-38240604D01*
X119481674Y-38357521D01*
X119735705Y-38527259D01*
X119951741Y-38743295D01*
X120121479Y-38997326D01*
X120238396Y-39279590D01*
X120238396Y-39279591D01*
X120298000Y-39579239D01*
X120298000Y-39884761D01*
X120268198Y-40034585D01*
X120238396Y-40184410D01*
X120121479Y-40466674D01*
X119951741Y-40720705D01*
X119735705Y-40936741D01*
X119481674Y-41106479D01*
X119199410Y-41223396D01*
X119081101Y-41246929D01*
X118899761Y-41283000D01*
X118594239Y-41283000D01*
X118412899Y-41246929D01*
X118294590Y-41223396D01*
X118012326Y-41106479D01*
X117758295Y-40936741D01*
X117542259Y-40720705D01*
X117372521Y-40466674D01*
X117255604Y-40184410D01*
X117225802Y-40034585D01*
X117196000Y-39884761D01*
X117196000Y-39579239D01*
X117255604Y-39279591D01*
X117255604Y-39279590D01*
X117372521Y-38997326D01*
X117542259Y-38743295D01*
X117758295Y-38527259D01*
X118012326Y-38357521D01*
X118294590Y-38240604D01*
X118482668Y-38203193D01*
X118594239Y-38181000D01*
X118899761Y-38181000D01*
X119011332Y-38203193D01*
X119011332Y-38203193D01*
G37*
G36*
X111660642Y-36821781D02*
G01*
X111784208Y-36872964D01*
X111806416Y-36882163D01*
X111937608Y-36969822D01*
X112049178Y-37081392D01*
X112136837Y-37212584D01*
X112136838Y-37212586D01*
X112197219Y-37358358D01*
X112228000Y-37513107D01*
X112228000Y-37670893D01*
X112197219Y-37825642D01*
X112136838Y-37971414D01*
X112136837Y-37971416D01*
X112049178Y-38102608D01*
X111937608Y-38214178D01*
X111806416Y-38301837D01*
X111806415Y-38301838D01*
X111806414Y-38301838D01*
X111660642Y-38362219D01*
X111505893Y-38393000D01*
X111348107Y-38393000D01*
X111193358Y-38362219D01*
X111047586Y-38301838D01*
X111047585Y-38301838D01*
X111047584Y-38301837D01*
X110916392Y-38214178D01*
X110804822Y-38102608D01*
X110717163Y-37971416D01*
X110717162Y-37971414D01*
X110656781Y-37825642D01*
X110626000Y-37670893D01*
X110626000Y-37513107D01*
X110656781Y-37358358D01*
X110717162Y-37212586D01*
X110717163Y-37212584D01*
X110804822Y-37081392D01*
X110916392Y-36969822D01*
X111047584Y-36882163D01*
X111069792Y-36872964D01*
X111193358Y-36821781D01*
X111348107Y-36791000D01*
X111505893Y-36791000D01*
X111660642Y-36821781D01*
X111660642Y-36821781D01*
G37*
G36*
X115080048Y-36795122D02*
G01*
X115114387Y-36805539D01*
X115146036Y-36822456D01*
X115173778Y-36845222D01*
X115196544Y-36872964D01*
X115213461Y-36904613D01*
X115223878Y-36938952D01*
X115228000Y-36980807D01*
X115228000Y-38203193D01*
X115223878Y-38245048D01*
X115213461Y-38279387D01*
X115196544Y-38311036D01*
X115173778Y-38338778D01*
X115146036Y-38361544D01*
X115114387Y-38378461D01*
X115080048Y-38388878D01*
X115038193Y-38393000D01*
X113815807Y-38393000D01*
X113773952Y-38388878D01*
X113739613Y-38378461D01*
X113707964Y-38361544D01*
X113680222Y-38338778D01*
X113657456Y-38311036D01*
X113640539Y-38279387D01*
X113630122Y-38245048D01*
X113626000Y-38203193D01*
X113626000Y-36980807D01*
X113630122Y-36938952D01*
X113640539Y-36904613D01*
X113657456Y-36872964D01*
X113680222Y-36845222D01*
X113707964Y-36822456D01*
X113739613Y-36805539D01*
X113773952Y-36795122D01*
X113815807Y-36791000D01*
X115038193Y-36791000D01*
X115080048Y-36795122D01*
X115080048Y-36795122D01*
G37*
G36*
X69896585Y-31371802D02*
G01*
X70046410Y-31401604D01*
X70328674Y-31518521D01*
X70582705Y-31688259D01*
X70798741Y-31904295D01*
X70968479Y-32158326D01*
X71085396Y-32440590D01*
X71145000Y-32740240D01*
X71145000Y-33045760D01*
X71085396Y-33345410D01*
X70968479Y-33627674D01*
X70798741Y-33881705D01*
X70582705Y-34097741D01*
X70328674Y-34267479D01*
X70046410Y-34384396D01*
X69896585Y-34414198D01*
X69746761Y-34444000D01*
X69441239Y-34444000D01*
X69291415Y-34414198D01*
X69141590Y-34384396D01*
X68859326Y-34267479D01*
X68605295Y-34097741D01*
X68389259Y-33881705D01*
X68219521Y-33627674D01*
X68102604Y-33345410D01*
X68043000Y-33045760D01*
X68043000Y-32740240D01*
X68102604Y-32440590D01*
X68219521Y-32158326D01*
X68389259Y-31904295D01*
X68605295Y-31688259D01*
X68859326Y-31518521D01*
X69141590Y-31401604D01*
X69291415Y-31371802D01*
X69441239Y-31342000D01*
X69746761Y-31342000D01*
X69896585Y-31371802D01*
X69896585Y-31371802D01*
G37*
G36*
X84205000Y-34359000D02*
G01*
X83503000Y-34359000D01*
X83503000Y-33327000D01*
X84205000Y-33327000D01*
X84205000Y-34359000D01*
X84205000Y-34359000D01*
G37*
G36*
X87232499Y-33196445D02*
G01*
X87269995Y-33207820D01*
X87304554Y-33226292D01*
X87334847Y-33251153D01*
X87359708Y-33281446D01*
X87378180Y-33316005D01*
X87389555Y-33353501D01*
X87394000Y-33398638D01*
X87394000Y-34137362D01*
X87389555Y-34182499D01*
X87378180Y-34219995D01*
X87359708Y-34254554D01*
X87334847Y-34284847D01*
X87304554Y-34309708D01*
X87269995Y-34328180D01*
X87232499Y-34339555D01*
X87187362Y-34344000D01*
X86548638Y-34344000D01*
X86503501Y-34339555D01*
X86466005Y-34328180D01*
X86431446Y-34309708D01*
X86401153Y-34284847D01*
X86376292Y-34254554D01*
X86357820Y-34219995D01*
X86346445Y-34182499D01*
X86342000Y-34137362D01*
X86342000Y-33398638D01*
X86346445Y-33353501D01*
X86357820Y-33316005D01*
X86376292Y-33281446D01*
X86401153Y-33251153D01*
X86431446Y-33226292D01*
X86466005Y-33207820D01*
X86503501Y-33196445D01*
X86548638Y-33192000D01*
X87187362Y-33192000D01*
X87232499Y-33196445D01*
X87232499Y-33196445D01*
G37*
G36*
X74567048Y-32096122D02*
G01*
X74601387Y-32106539D01*
X74633036Y-32123456D01*
X74660778Y-32146222D01*
X74683544Y-32173964D01*
X74700461Y-32205613D01*
X74710878Y-32239952D01*
X74715000Y-32281807D01*
X74715000Y-33504193D01*
X74710878Y-33546048D01*
X74700461Y-33580387D01*
X74683544Y-33612036D01*
X74660778Y-33639778D01*
X74633036Y-33662544D01*
X74601387Y-33679461D01*
X74567048Y-33689878D01*
X74525193Y-33694000D01*
X73302807Y-33694000D01*
X73260952Y-33689878D01*
X73226613Y-33679461D01*
X73194964Y-33662544D01*
X73167222Y-33639778D01*
X73144456Y-33612036D01*
X73127539Y-33580387D01*
X73117122Y-33546048D01*
X73113000Y-33504193D01*
X73113000Y-32281807D01*
X73117122Y-32239952D01*
X73127539Y-32205613D01*
X73144456Y-32173964D01*
X73167222Y-32146222D01*
X73194964Y-32123456D01*
X73226613Y-32106539D01*
X73260952Y-32096122D01*
X73302807Y-32092000D01*
X74525193Y-32092000D01*
X74567048Y-32096122D01*
X74567048Y-32096122D01*
G37*
G36*
X77147642Y-32122781D02*
G01*
X77271208Y-32173964D01*
X77293416Y-32183163D01*
X77424608Y-32270822D01*
X77536178Y-32382392D01*
X77569088Y-32431646D01*
X77623838Y-32513586D01*
X77684219Y-32659358D01*
X77715000Y-32814107D01*
X77715000Y-32971893D01*
X77684219Y-33126642D01*
X77625239Y-33269031D01*
X77623837Y-33272416D01*
X77536178Y-33403608D01*
X77424608Y-33515178D01*
X77293416Y-33602837D01*
X77293415Y-33602838D01*
X77293414Y-33602838D01*
X77147642Y-33663219D01*
X76992893Y-33694000D01*
X76835107Y-33694000D01*
X76680358Y-33663219D01*
X76534586Y-33602838D01*
X76534585Y-33602838D01*
X76534584Y-33602837D01*
X76403392Y-33515178D01*
X76291822Y-33403608D01*
X76204163Y-33272416D01*
X76202761Y-33269031D01*
X76143781Y-33126642D01*
X76113000Y-32971893D01*
X76113000Y-32814107D01*
X76143781Y-32659358D01*
X76204162Y-32513586D01*
X76258912Y-32431646D01*
X76291822Y-32382392D01*
X76403392Y-32270822D01*
X76534584Y-32183163D01*
X76556792Y-32173964D01*
X76680358Y-32122781D01*
X76835107Y-32092000D01*
X76992893Y-32092000D01*
X77147642Y-32122781D01*
X77147642Y-32122781D01*
G37*
G36*
X82105000Y-33409000D02*
G01*
X81403000Y-33409000D01*
X81403000Y-32377000D01*
X82105000Y-32377000D01*
X82105000Y-33409000D01*
X82105000Y-33409000D01*
G37*
G36*
X87232499Y-31446445D02*
G01*
X87269995Y-31457820D01*
X87304554Y-31476292D01*
X87334847Y-31501153D01*
X87359708Y-31531446D01*
X87378180Y-31566005D01*
X87389555Y-31603501D01*
X87394000Y-31648638D01*
X87394000Y-32387362D01*
X87389555Y-32432499D01*
X87378180Y-32469995D01*
X87359708Y-32504554D01*
X87334847Y-32534847D01*
X87304554Y-32559708D01*
X87269995Y-32578180D01*
X87232499Y-32589555D01*
X87187362Y-32594000D01*
X86548638Y-32594000D01*
X86503501Y-32589555D01*
X86466005Y-32578180D01*
X86431446Y-32559708D01*
X86401153Y-32534847D01*
X86376292Y-32504554D01*
X86357820Y-32469995D01*
X86346445Y-32432499D01*
X86342000Y-32387362D01*
X86342000Y-31648638D01*
X86346445Y-31603501D01*
X86357820Y-31566005D01*
X86376292Y-31531446D01*
X86401153Y-31501153D01*
X86431446Y-31476292D01*
X86466005Y-31457820D01*
X86503501Y-31446445D01*
X86548638Y-31442000D01*
X87187362Y-31442000D01*
X87232499Y-31446445D01*
X87232499Y-31446445D01*
G37*
G36*
X84205000Y-32459000D02*
G01*
X83503000Y-32459000D01*
X83503000Y-31427000D01*
X84205000Y-31427000D01*
X84205000Y-32459000D01*
X84205000Y-32459000D01*
G37*
G36*
X84205000Y-30041000D02*
G01*
X83503000Y-30041000D01*
X83503000Y-29009000D01*
X84205000Y-29009000D01*
X84205000Y-30041000D01*
X84205000Y-30041000D01*
G37*
G36*
X87232499Y-28878445D02*
G01*
X87269995Y-28889820D01*
X87304554Y-28908292D01*
X87334847Y-28933153D01*
X87359708Y-28963446D01*
X87378180Y-28998005D01*
X87389555Y-29035501D01*
X87394000Y-29080638D01*
X87394000Y-29819362D01*
X87389555Y-29864499D01*
X87378180Y-29901995D01*
X87359708Y-29936554D01*
X87334847Y-29966847D01*
X87304554Y-29991708D01*
X87269995Y-30010180D01*
X87232499Y-30021555D01*
X87187362Y-30026000D01*
X86548638Y-30026000D01*
X86503501Y-30021555D01*
X86466005Y-30010180D01*
X86431446Y-29991708D01*
X86401153Y-29966847D01*
X86376292Y-29936554D01*
X86357820Y-29901995D01*
X86346445Y-29864499D01*
X86342000Y-29819362D01*
X86342000Y-29080638D01*
X86346445Y-29035501D01*
X86357820Y-28998005D01*
X86376292Y-28963446D01*
X86401153Y-28933153D01*
X86431446Y-28908292D01*
X86466005Y-28889820D01*
X86503501Y-28878445D01*
X86548638Y-28874000D01*
X87187362Y-28874000D01*
X87232499Y-28878445D01*
X87232499Y-28878445D01*
G37*
G36*
X111660642Y-27787781D02*
G01*
X111806414Y-27848162D01*
X111806416Y-27848163D01*
X111937608Y-27935822D01*
X112049178Y-28047392D01*
X112093447Y-28113646D01*
X112136838Y-28178586D01*
X112197219Y-28324358D01*
X112228000Y-28479107D01*
X112228000Y-28636893D01*
X112197219Y-28791642D01*
X112163105Y-28874000D01*
X112136837Y-28937416D01*
X112049178Y-29068608D01*
X111937608Y-29180178D01*
X111806416Y-29267837D01*
X111806415Y-29267838D01*
X111806414Y-29267838D01*
X111660642Y-29328219D01*
X111505893Y-29359000D01*
X111348107Y-29359000D01*
X111193358Y-29328219D01*
X111047586Y-29267838D01*
X111047585Y-29267838D01*
X111047584Y-29267837D01*
X110916392Y-29180178D01*
X110804822Y-29068608D01*
X110717163Y-28937416D01*
X110690895Y-28874000D01*
X110656781Y-28791642D01*
X110626000Y-28636893D01*
X110626000Y-28479107D01*
X110656781Y-28324358D01*
X110717162Y-28178586D01*
X110760553Y-28113646D01*
X110804822Y-28047392D01*
X110916392Y-27935822D01*
X111047584Y-27848163D01*
X111047586Y-27848162D01*
X111193358Y-27787781D01*
X111348107Y-27757000D01*
X111505893Y-27757000D01*
X111660642Y-27787781D01*
X111660642Y-27787781D01*
G37*
G36*
X114660642Y-27787781D02*
G01*
X114806414Y-27848162D01*
X114806416Y-27848163D01*
X114937608Y-27935822D01*
X115049178Y-28047392D01*
X115093447Y-28113646D01*
X115136838Y-28178586D01*
X115197219Y-28324358D01*
X115228000Y-28479107D01*
X115228000Y-28636893D01*
X115197219Y-28791642D01*
X115163105Y-28874000D01*
X115136837Y-28937416D01*
X115049178Y-29068608D01*
X114937608Y-29180178D01*
X114806416Y-29267837D01*
X114806415Y-29267838D01*
X114806414Y-29267838D01*
X114660642Y-29328219D01*
X114505893Y-29359000D01*
X114348107Y-29359000D01*
X114193358Y-29328219D01*
X114047586Y-29267838D01*
X114047585Y-29267838D01*
X114047584Y-29267837D01*
X113916392Y-29180178D01*
X113804822Y-29068608D01*
X113717163Y-28937416D01*
X113690895Y-28874000D01*
X113656781Y-28791642D01*
X113626000Y-28636893D01*
X113626000Y-28479107D01*
X113656781Y-28324358D01*
X113717162Y-28178586D01*
X113760553Y-28113646D01*
X113804822Y-28047392D01*
X113916392Y-27935822D01*
X114047584Y-27848163D01*
X114047586Y-27848162D01*
X114193358Y-27787781D01*
X114348107Y-27757000D01*
X114505893Y-27757000D01*
X114660642Y-27787781D01*
X114660642Y-27787781D01*
G37*
G36*
X82105000Y-29091000D02*
G01*
X81403000Y-29091000D01*
X81403000Y-28059000D01*
X82105000Y-28059000D01*
X82105000Y-29091000D01*
X82105000Y-29091000D01*
G37*
G36*
X87232499Y-27128445D02*
G01*
X87269995Y-27139820D01*
X87304554Y-27158292D01*
X87334847Y-27183153D01*
X87359708Y-27213446D01*
X87378180Y-27248005D01*
X87389555Y-27285501D01*
X87394000Y-27330638D01*
X87394000Y-28069362D01*
X87389555Y-28114499D01*
X87378180Y-28151995D01*
X87359708Y-28186554D01*
X87334847Y-28216847D01*
X87304554Y-28241708D01*
X87269995Y-28260180D01*
X87232499Y-28271555D01*
X87187362Y-28276000D01*
X86548638Y-28276000D01*
X86503501Y-28271555D01*
X86466005Y-28260180D01*
X86431446Y-28241708D01*
X86401153Y-28216847D01*
X86376292Y-28186554D01*
X86357820Y-28151995D01*
X86346445Y-28114499D01*
X86342000Y-28069362D01*
X86342000Y-27330638D01*
X86346445Y-27285501D01*
X86357820Y-27248005D01*
X86376292Y-27213446D01*
X86401153Y-27183153D01*
X86431446Y-27158292D01*
X86466005Y-27139820D01*
X86503501Y-27128445D01*
X86548638Y-27124000D01*
X87187362Y-27124000D01*
X87232499Y-27128445D01*
X87232499Y-27128445D01*
G37*
G36*
X84205000Y-28141000D02*
G01*
X83503000Y-28141000D01*
X83503000Y-27109000D01*
X84205000Y-27109000D01*
X84205000Y-28141000D01*
X84205000Y-28141000D01*
G37*
G36*
X119049585Y-24876802D02*
G01*
X119199410Y-24906604D01*
X119481674Y-25023521D01*
X119735705Y-25193259D01*
X119951741Y-25409295D01*
X120121479Y-25663326D01*
X120174629Y-25791643D01*
X120238396Y-25945591D01*
X120298000Y-26245239D01*
X120298000Y-26550761D01*
X120275278Y-26664991D01*
X120238396Y-26850410D01*
X120121479Y-27132674D01*
X119951741Y-27386705D01*
X119735705Y-27602741D01*
X119481674Y-27772479D01*
X119199410Y-27889396D01*
X119049585Y-27919198D01*
X118899761Y-27949000D01*
X118594239Y-27949000D01*
X118444415Y-27919198D01*
X118294590Y-27889396D01*
X118012326Y-27772479D01*
X117758295Y-27602741D01*
X117542259Y-27386705D01*
X117372521Y-27132674D01*
X117255604Y-26850410D01*
X117218722Y-26664991D01*
X117196000Y-26550761D01*
X117196000Y-26245239D01*
X117255604Y-25945591D01*
X117319371Y-25791643D01*
X117372521Y-25663326D01*
X117542259Y-25409295D01*
X117758295Y-25193259D01*
X118012326Y-25023521D01*
X118294590Y-24906604D01*
X118444415Y-24876802D01*
X118594239Y-24847000D01*
X118899761Y-24847000D01*
X119049585Y-24876802D01*
X119049585Y-24876802D01*
G37*
G36*
X97133198Y-25267002D02*
G01*
X97204627Y-25274037D01*
X97374466Y-25325557D01*
X97530991Y-25409222D01*
X97531545Y-25409677D01*
X97668186Y-25521814D01*
X97751448Y-25623271D01*
X97780778Y-25659009D01*
X97864443Y-25815534D01*
X97915963Y-25985373D01*
X97933359Y-26162000D01*
X97915963Y-26338627D01*
X97864443Y-26508466D01*
X97780778Y-26664991D01*
X97751448Y-26700729D01*
X97668186Y-26802186D01*
X97566729Y-26885448D01*
X97530991Y-26914778D01*
X97374466Y-26998443D01*
X97204627Y-27049963D01*
X97138443Y-27056481D01*
X97072260Y-27063000D01*
X96983740Y-27063000D01*
X96917557Y-27056481D01*
X96851373Y-27049963D01*
X96681534Y-26998443D01*
X96525009Y-26914778D01*
X96489271Y-26885448D01*
X96387814Y-26802186D01*
X96304552Y-26700729D01*
X96275222Y-26664991D01*
X96191557Y-26508466D01*
X96140037Y-26338627D01*
X96122641Y-26162000D01*
X96140037Y-25985373D01*
X96191557Y-25815534D01*
X96275222Y-25659009D01*
X96304552Y-25623271D01*
X96387814Y-25521814D01*
X96524455Y-25409677D01*
X96525009Y-25409222D01*
X96681534Y-25325557D01*
X96851373Y-25274037D01*
X96922802Y-25267002D01*
X96983740Y-25261000D01*
X97072260Y-25261000D01*
X97133198Y-25267002D01*
X97133198Y-25267002D01*
G37*
G36*
X94593198Y-25267002D02*
G01*
X94664627Y-25274037D01*
X94834466Y-25325557D01*
X94990991Y-25409222D01*
X94991545Y-25409677D01*
X95128186Y-25521814D01*
X95211448Y-25623271D01*
X95240778Y-25659009D01*
X95324443Y-25815534D01*
X95375963Y-25985373D01*
X95393359Y-26162000D01*
X95375963Y-26338627D01*
X95324443Y-26508466D01*
X95240778Y-26664991D01*
X95211448Y-26700729D01*
X95128186Y-26802186D01*
X95026729Y-26885448D01*
X94990991Y-26914778D01*
X94834466Y-26998443D01*
X94664627Y-27049963D01*
X94598443Y-27056481D01*
X94532260Y-27063000D01*
X94443740Y-27063000D01*
X94377557Y-27056481D01*
X94311373Y-27049963D01*
X94141534Y-26998443D01*
X93985009Y-26914778D01*
X93949271Y-26885448D01*
X93847814Y-26802186D01*
X93764552Y-26700729D01*
X93735222Y-26664991D01*
X93651557Y-26508466D01*
X93600037Y-26338627D01*
X93582641Y-26162000D01*
X93600037Y-25985373D01*
X93651557Y-25815534D01*
X93735222Y-25659009D01*
X93764552Y-25623271D01*
X93847814Y-25521814D01*
X93984455Y-25409677D01*
X93985009Y-25409222D01*
X94141534Y-25325557D01*
X94311373Y-25274037D01*
X94382802Y-25267002D01*
X94443740Y-25261000D01*
X94532260Y-25261000D01*
X94593198Y-25267002D01*
X94593198Y-25267002D01*
G37*
G36*
X99673198Y-25267002D02*
G01*
X99744627Y-25274037D01*
X99914466Y-25325557D01*
X100070991Y-25409222D01*
X100071545Y-25409677D01*
X100208186Y-25521814D01*
X100291448Y-25623271D01*
X100320778Y-25659009D01*
X100404443Y-25815534D01*
X100455963Y-25985373D01*
X100473359Y-26162000D01*
X100455963Y-26338627D01*
X100404443Y-26508466D01*
X100320778Y-26664991D01*
X100291448Y-26700729D01*
X100208186Y-26802186D01*
X100106729Y-26885448D01*
X100070991Y-26914778D01*
X99914466Y-26998443D01*
X99744627Y-27049963D01*
X99678443Y-27056481D01*
X99612260Y-27063000D01*
X99523740Y-27063000D01*
X99457557Y-27056481D01*
X99391373Y-27049963D01*
X99221534Y-26998443D01*
X99065009Y-26914778D01*
X99029271Y-26885448D01*
X98927814Y-26802186D01*
X98844552Y-26700729D01*
X98815222Y-26664991D01*
X98731557Y-26508466D01*
X98680037Y-26338627D01*
X98662641Y-26162000D01*
X98680037Y-25985373D01*
X98731557Y-25815534D01*
X98815222Y-25659009D01*
X98844552Y-25623271D01*
X98927814Y-25521814D01*
X99064455Y-25409677D01*
X99065009Y-25409222D01*
X99221534Y-25325557D01*
X99391373Y-25274037D01*
X99462802Y-25267002D01*
X99523740Y-25261000D01*
X99612260Y-25261000D01*
X99673198Y-25267002D01*
X99673198Y-25267002D01*
G37*
G36*
X103009000Y-27063000D02*
G01*
X101207000Y-27063000D01*
X101207000Y-25261000D01*
X103009000Y-25261000D01*
X103009000Y-27063000D01*
X103009000Y-27063000D01*
G37*
G36*
X114660642Y-24787781D02*
G01*
X114806414Y-24848162D01*
X114806416Y-24848163D01*
X114937608Y-24935822D01*
X115049178Y-25047392D01*
X115115851Y-25147176D01*
X115136838Y-25178586D01*
X115197219Y-25324358D01*
X115228000Y-25479107D01*
X115228000Y-25636893D01*
X115197219Y-25791642D01*
X115136838Y-25937414D01*
X115136837Y-25937416D01*
X115049178Y-26068608D01*
X114937608Y-26180178D01*
X114806416Y-26267837D01*
X114806415Y-26267838D01*
X114806414Y-26267838D01*
X114660642Y-26328219D01*
X114505893Y-26359000D01*
X114348107Y-26359000D01*
X114193358Y-26328219D01*
X114047586Y-26267838D01*
X114047585Y-26267838D01*
X114047584Y-26267837D01*
X113916392Y-26180178D01*
X113804822Y-26068608D01*
X113717163Y-25937416D01*
X113717162Y-25937414D01*
X113656781Y-25791642D01*
X113626000Y-25636893D01*
X113626000Y-25479107D01*
X113656781Y-25324358D01*
X113717162Y-25178586D01*
X113738149Y-25147176D01*
X113804822Y-25047392D01*
X113916392Y-24935822D01*
X114047584Y-24848163D01*
X114047586Y-24848162D01*
X114193358Y-24787781D01*
X114348107Y-24757000D01*
X114505893Y-24757000D01*
X114660642Y-24787781D01*
X114660642Y-24787781D01*
G37*
G36*
X111660642Y-24787781D02*
G01*
X111806414Y-24848162D01*
X111806416Y-24848163D01*
X111937608Y-24935822D01*
X112049178Y-25047392D01*
X112115851Y-25147176D01*
X112136838Y-25178586D01*
X112197219Y-25324358D01*
X112228000Y-25479107D01*
X112228000Y-25636893D01*
X112197219Y-25791642D01*
X112136838Y-25937414D01*
X112136837Y-25937416D01*
X112049178Y-26068608D01*
X111937608Y-26180178D01*
X111806416Y-26267837D01*
X111806415Y-26267838D01*
X111806414Y-26267838D01*
X111660642Y-26328219D01*
X111505893Y-26359000D01*
X111348107Y-26359000D01*
X111193358Y-26328219D01*
X111047586Y-26267838D01*
X111047585Y-26267838D01*
X111047584Y-26267837D01*
X110916392Y-26180178D01*
X110804822Y-26068608D01*
X110717163Y-25937416D01*
X110717162Y-25937414D01*
X110656781Y-25791642D01*
X110626000Y-25636893D01*
X110626000Y-25479107D01*
X110656781Y-25324358D01*
X110717162Y-25178586D01*
X110738149Y-25147176D01*
X110804822Y-25047392D01*
X110916392Y-24935822D01*
X111047584Y-24848163D01*
X111047586Y-24848162D01*
X111193358Y-24787781D01*
X111348107Y-24757000D01*
X111505893Y-24757000D01*
X111660642Y-24787781D01*
X111660642Y-24787781D01*
G37*
G36*
X84205000Y-25469000D02*
G01*
X83503000Y-25469000D01*
X83503000Y-24437000D01*
X84205000Y-24437000D01*
X84205000Y-25469000D01*
X84205000Y-25469000D01*
G37*
G36*
X87232499Y-24306445D02*
G01*
X87269995Y-24317820D01*
X87304554Y-24336292D01*
X87334847Y-24361153D01*
X87359708Y-24391446D01*
X87378180Y-24426005D01*
X87389555Y-24463501D01*
X87394000Y-24508638D01*
X87394000Y-25247362D01*
X87389555Y-25292499D01*
X87378180Y-25329995D01*
X87359708Y-25364554D01*
X87334847Y-25394847D01*
X87304554Y-25419708D01*
X87269995Y-25438180D01*
X87232499Y-25449555D01*
X87187362Y-25454000D01*
X86548638Y-25454000D01*
X86503501Y-25449555D01*
X86466005Y-25438180D01*
X86431446Y-25419708D01*
X86401153Y-25394847D01*
X86376292Y-25364554D01*
X86357820Y-25329995D01*
X86346445Y-25292499D01*
X86342000Y-25247362D01*
X86342000Y-24508638D01*
X86346445Y-24463501D01*
X86357820Y-24426005D01*
X86376292Y-24391446D01*
X86401153Y-24361153D01*
X86431446Y-24336292D01*
X86466005Y-24317820D01*
X86503501Y-24306445D01*
X86548638Y-24302000D01*
X87187362Y-24302000D01*
X87232499Y-24306445D01*
X87232499Y-24306445D01*
G37*
G36*
X77147642Y-23740781D02*
G01*
X77271208Y-23791964D01*
X77293416Y-23801163D01*
X77424608Y-23888822D01*
X77536178Y-24000392D01*
X77623837Y-24131584D01*
X77623838Y-24131586D01*
X77684219Y-24277358D01*
X77715000Y-24432107D01*
X77715000Y-24589893D01*
X77684219Y-24744642D01*
X77641339Y-24848162D01*
X77623837Y-24890416D01*
X77536178Y-25021608D01*
X77424608Y-25133178D01*
X77293416Y-25220837D01*
X77293415Y-25220838D01*
X77293414Y-25220838D01*
X77147642Y-25281219D01*
X76992893Y-25312000D01*
X76835107Y-25312000D01*
X76680358Y-25281219D01*
X76534586Y-25220838D01*
X76534585Y-25220838D01*
X76534584Y-25220837D01*
X76403392Y-25133178D01*
X76291822Y-25021608D01*
X76204163Y-24890416D01*
X76186661Y-24848162D01*
X76143781Y-24744642D01*
X76113000Y-24589893D01*
X76113000Y-24432107D01*
X76143781Y-24277358D01*
X76204162Y-24131586D01*
X76204163Y-24131584D01*
X76291822Y-24000392D01*
X76403392Y-23888822D01*
X76534584Y-23801163D01*
X76556792Y-23791964D01*
X76680358Y-23740781D01*
X76835107Y-23710000D01*
X76992893Y-23710000D01*
X77147642Y-23740781D01*
X77147642Y-23740781D01*
G37*
G36*
X74567048Y-23714122D02*
G01*
X74601387Y-23724539D01*
X74633036Y-23741456D01*
X74660778Y-23764222D01*
X74683544Y-23791964D01*
X74700461Y-23823613D01*
X74710878Y-23857952D01*
X74715000Y-23899807D01*
X74715000Y-25122193D01*
X74710878Y-25164048D01*
X74700461Y-25198387D01*
X74683544Y-25230036D01*
X74660778Y-25257778D01*
X74633036Y-25280544D01*
X74601387Y-25297461D01*
X74567048Y-25307878D01*
X74525193Y-25312000D01*
X73302807Y-25312000D01*
X73260952Y-25307878D01*
X73226613Y-25297461D01*
X73194964Y-25280544D01*
X73167222Y-25257778D01*
X73144456Y-25230036D01*
X73127539Y-25198387D01*
X73117122Y-25164048D01*
X73113000Y-25122193D01*
X73113000Y-23899807D01*
X73117122Y-23857952D01*
X73127539Y-23823613D01*
X73144456Y-23791964D01*
X73167222Y-23764222D01*
X73194964Y-23741456D01*
X73226613Y-23724539D01*
X73260952Y-23714122D01*
X73302807Y-23710000D01*
X74525193Y-23710000D01*
X74567048Y-23714122D01*
X74567048Y-23714122D01*
G37*
G36*
X69896585Y-21489802D02*
G01*
X70046410Y-21519604D01*
X70328674Y-21636521D01*
X70582705Y-21806259D01*
X70798741Y-22022295D01*
X70968479Y-22276326D01*
X71085396Y-22558590D01*
X71145000Y-22858240D01*
X71145000Y-23163760D01*
X71085396Y-23463410D01*
X70968479Y-23745674D01*
X70798741Y-23999705D01*
X70582705Y-24215741D01*
X70328674Y-24385479D01*
X70046410Y-24502396D01*
X69896585Y-24532198D01*
X69746761Y-24562000D01*
X69441239Y-24562000D01*
X69291415Y-24532198D01*
X69141590Y-24502396D01*
X68859326Y-24385479D01*
X68605295Y-24215741D01*
X68389259Y-23999705D01*
X68219521Y-23745674D01*
X68102604Y-23463410D01*
X68043000Y-23163760D01*
X68043000Y-22858240D01*
X68102604Y-22558590D01*
X68219521Y-22276326D01*
X68389259Y-22022295D01*
X68605295Y-21806259D01*
X68859326Y-21636521D01*
X69141590Y-21519604D01*
X69291415Y-21489802D01*
X69441239Y-21460000D01*
X69746761Y-21460000D01*
X69896585Y-21489802D01*
X69896585Y-21489802D01*
G37*
G36*
X82105000Y-24519000D02*
G01*
X81403000Y-24519000D01*
X81403000Y-23487000D01*
X82105000Y-23487000D01*
X82105000Y-24519000D01*
X82105000Y-24519000D01*
G37*
G36*
X87232499Y-22556445D02*
G01*
X87269995Y-22567820D01*
X87304554Y-22586292D01*
X87334847Y-22611153D01*
X87359708Y-22641446D01*
X87378180Y-22676005D01*
X87389555Y-22713501D01*
X87394000Y-22758638D01*
X87394000Y-23497362D01*
X87389555Y-23542499D01*
X87378180Y-23579995D01*
X87359708Y-23614554D01*
X87334847Y-23644847D01*
X87304554Y-23669708D01*
X87269995Y-23688180D01*
X87232499Y-23699555D01*
X87187362Y-23704000D01*
X86548638Y-23704000D01*
X86503501Y-23699555D01*
X86466005Y-23688180D01*
X86431446Y-23669708D01*
X86401153Y-23644847D01*
X86376292Y-23614554D01*
X86357820Y-23579995D01*
X86346445Y-23542499D01*
X86342000Y-23497362D01*
X86342000Y-22758638D01*
X86346445Y-22713501D01*
X86357820Y-22676005D01*
X86376292Y-22641446D01*
X86401153Y-22611153D01*
X86431446Y-22586292D01*
X86466005Y-22567820D01*
X86503501Y-22556445D01*
X86548638Y-22552000D01*
X87187362Y-22552000D01*
X87232499Y-22556445D01*
X87232499Y-22556445D01*
G37*
G36*
X84205000Y-23569000D02*
G01*
X83503000Y-23569000D01*
X83503000Y-22537000D01*
X84205000Y-22537000D01*
X84205000Y-23569000D01*
X84205000Y-23569000D01*
G37*
G36*
X114660642Y-21787781D02*
G01*
X114806414Y-21848162D01*
X114806416Y-21848163D01*
X114937608Y-21935822D01*
X115049178Y-22047392D01*
X115136837Y-22178584D01*
X115136838Y-22178586D01*
X115197219Y-22324358D01*
X115228000Y-22479107D01*
X115228000Y-22636893D01*
X115197219Y-22791642D01*
X115151200Y-22902741D01*
X115136837Y-22937416D01*
X115049178Y-23068608D01*
X114937608Y-23180178D01*
X114806416Y-23267837D01*
X114806415Y-23267838D01*
X114806414Y-23267838D01*
X114660642Y-23328219D01*
X114505893Y-23359000D01*
X114348107Y-23359000D01*
X114193358Y-23328219D01*
X114047586Y-23267838D01*
X114047585Y-23267838D01*
X114047584Y-23267837D01*
X113916392Y-23180178D01*
X113804822Y-23068608D01*
X113717163Y-22937416D01*
X113702800Y-22902741D01*
X113656781Y-22791642D01*
X113626000Y-22636893D01*
X113626000Y-22479107D01*
X113656781Y-22324358D01*
X113717162Y-22178586D01*
X113717163Y-22178584D01*
X113804822Y-22047392D01*
X113916392Y-21935822D01*
X114047584Y-21848163D01*
X114047586Y-21848162D01*
X114193358Y-21787781D01*
X114348107Y-21757000D01*
X114505893Y-21757000D01*
X114660642Y-21787781D01*
X114660642Y-21787781D01*
G37*
G36*
X111660642Y-21787781D02*
G01*
X111806414Y-21848162D01*
X111806416Y-21848163D01*
X111937608Y-21935822D01*
X112049178Y-22047392D01*
X112136837Y-22178584D01*
X112136838Y-22178586D01*
X112197219Y-22324358D01*
X112228000Y-22479107D01*
X112228000Y-22636893D01*
X112197219Y-22791642D01*
X112151200Y-22902741D01*
X112136837Y-22937416D01*
X112049178Y-23068608D01*
X111937608Y-23180178D01*
X111806416Y-23267837D01*
X111806415Y-23267838D01*
X111806414Y-23267838D01*
X111660642Y-23328219D01*
X111505893Y-23359000D01*
X111348107Y-23359000D01*
X111193358Y-23328219D01*
X111047586Y-23267838D01*
X111047585Y-23267838D01*
X111047584Y-23267837D01*
X110916392Y-23180178D01*
X110804822Y-23068608D01*
X110717163Y-22937416D01*
X110702800Y-22902741D01*
X110656781Y-22791642D01*
X110626000Y-22636893D01*
X110626000Y-22479107D01*
X110656781Y-22324358D01*
X110717162Y-22178586D01*
X110717163Y-22178584D01*
X110804822Y-22047392D01*
X110916392Y-21935822D01*
X111047584Y-21848163D01*
X111047586Y-21848162D01*
X111193358Y-21787781D01*
X111348107Y-21757000D01*
X111505893Y-21757000D01*
X111660642Y-21787781D01*
X111660642Y-21787781D01*
G37*
G36*
X119011332Y-20169193D02*
G01*
X119199410Y-20206604D01*
X119481674Y-20323521D01*
X119735705Y-20493259D01*
X119951741Y-20709295D01*
X120121479Y-20963326D01*
X120238396Y-21245590D01*
X120238396Y-21245591D01*
X120275497Y-21432107D01*
X120298000Y-21545240D01*
X120298000Y-21850760D01*
X120238396Y-22150410D01*
X120121479Y-22432674D01*
X119951741Y-22686705D01*
X119735705Y-22902741D01*
X119481674Y-23072479D01*
X119199410Y-23189396D01*
X119049585Y-23219198D01*
X118899761Y-23249000D01*
X118594239Y-23249000D01*
X118444415Y-23219198D01*
X118294590Y-23189396D01*
X118012326Y-23072479D01*
X117758295Y-22902741D01*
X117542259Y-22686705D01*
X117372521Y-22432674D01*
X117255604Y-22150410D01*
X117196000Y-21850760D01*
X117196000Y-21545240D01*
X117218504Y-21432107D01*
X117255604Y-21245591D01*
X117255604Y-21245590D01*
X117372521Y-20963326D01*
X117542259Y-20709295D01*
X117758295Y-20493259D01*
X118012326Y-20323521D01*
X118294590Y-20206604D01*
X118482668Y-20169193D01*
X118594239Y-20147000D01*
X118899761Y-20147000D01*
X119011332Y-20169193D01*
X119011332Y-20169193D01*
G37*
G36*
X77147642Y-20740781D02*
G01*
X77293414Y-20801162D01*
X77293416Y-20801163D01*
X77424608Y-20888822D01*
X77536178Y-21000392D01*
X77623837Y-21131584D01*
X77623838Y-21131586D01*
X77684219Y-21277358D01*
X77715000Y-21432107D01*
X77715000Y-21589893D01*
X77684219Y-21744642D01*
X77641339Y-21848162D01*
X77623837Y-21890416D01*
X77536178Y-22021608D01*
X77424608Y-22133178D01*
X77293416Y-22220837D01*
X77293415Y-22220838D01*
X77293414Y-22220838D01*
X77147642Y-22281219D01*
X76992893Y-22312000D01*
X76835107Y-22312000D01*
X76680358Y-22281219D01*
X76534586Y-22220838D01*
X76534585Y-22220838D01*
X76534584Y-22220837D01*
X76403392Y-22133178D01*
X76291822Y-22021608D01*
X76204163Y-21890416D01*
X76186661Y-21848162D01*
X76143781Y-21744642D01*
X76113000Y-21589893D01*
X76113000Y-21432107D01*
X76143781Y-21277358D01*
X76204162Y-21131586D01*
X76204163Y-21131584D01*
X76291822Y-21000392D01*
X76403392Y-20888822D01*
X76534584Y-20801163D01*
X76534586Y-20801162D01*
X76680358Y-20740781D01*
X76835107Y-20710000D01*
X76992893Y-20710000D01*
X77147642Y-20740781D01*
X77147642Y-20740781D01*
G37*
G36*
X74147642Y-20740781D02*
G01*
X74293414Y-20801162D01*
X74293416Y-20801163D01*
X74424608Y-20888822D01*
X74536178Y-21000392D01*
X74623837Y-21131584D01*
X74623838Y-21131586D01*
X74684219Y-21277358D01*
X74715000Y-21432107D01*
X74715000Y-21589893D01*
X74684219Y-21744642D01*
X74641339Y-21848162D01*
X74623837Y-21890416D01*
X74536178Y-22021608D01*
X74424608Y-22133178D01*
X74293416Y-22220837D01*
X74293415Y-22220838D01*
X74293414Y-22220838D01*
X74147642Y-22281219D01*
X73992893Y-22312000D01*
X73835107Y-22312000D01*
X73680358Y-22281219D01*
X73534586Y-22220838D01*
X73534585Y-22220838D01*
X73534584Y-22220837D01*
X73403392Y-22133178D01*
X73291822Y-22021608D01*
X73204163Y-21890416D01*
X73186661Y-21848162D01*
X73143781Y-21744642D01*
X73113000Y-21589893D01*
X73113000Y-21432107D01*
X73143781Y-21277358D01*
X73204162Y-21131586D01*
X73204163Y-21131584D01*
X73291822Y-21000392D01*
X73403392Y-20888822D01*
X73534584Y-20801163D01*
X73534586Y-20801162D01*
X73680358Y-20740781D01*
X73835107Y-20710000D01*
X73992893Y-20710000D01*
X74147642Y-20740781D01*
X74147642Y-20740781D01*
G37*
G36*
X84205000Y-21151000D02*
G01*
X83503000Y-21151000D01*
X83503000Y-20119000D01*
X84205000Y-20119000D01*
X84205000Y-21151000D01*
X84205000Y-21151000D01*
G37*
G36*
X87232499Y-19988445D02*
G01*
X87269995Y-19999820D01*
X87304554Y-20018292D01*
X87334847Y-20043153D01*
X87359708Y-20073446D01*
X87378180Y-20108005D01*
X87389555Y-20145501D01*
X87394000Y-20190638D01*
X87394000Y-20929362D01*
X87389555Y-20974499D01*
X87378180Y-21011995D01*
X87359708Y-21046554D01*
X87334847Y-21076847D01*
X87304554Y-21101708D01*
X87269995Y-21120180D01*
X87232499Y-21131555D01*
X87187362Y-21136000D01*
X86548638Y-21136000D01*
X86503501Y-21131555D01*
X86466005Y-21120180D01*
X86431446Y-21101708D01*
X86401153Y-21076847D01*
X86376292Y-21046554D01*
X86357820Y-21011995D01*
X86346445Y-20974499D01*
X86342000Y-20929362D01*
X86342000Y-20190638D01*
X86346445Y-20145501D01*
X86357820Y-20108005D01*
X86376292Y-20073446D01*
X86401153Y-20043153D01*
X86431446Y-20018292D01*
X86466005Y-19999820D01*
X86503501Y-19988445D01*
X86548638Y-19984000D01*
X87187362Y-19984000D01*
X87232499Y-19988445D01*
X87232499Y-19988445D01*
G37*
G36*
X115080048Y-18761122D02*
G01*
X115114387Y-18771539D01*
X115146036Y-18788456D01*
X115173778Y-18811222D01*
X115196544Y-18838964D01*
X115213461Y-18870613D01*
X115223878Y-18904952D01*
X115228000Y-18946807D01*
X115228000Y-20169193D01*
X115223878Y-20211048D01*
X115213461Y-20245387D01*
X115196544Y-20277036D01*
X115173778Y-20304778D01*
X115146036Y-20327544D01*
X115114387Y-20344461D01*
X115080048Y-20354878D01*
X115038193Y-20359000D01*
X113815807Y-20359000D01*
X113773952Y-20354878D01*
X113739613Y-20344461D01*
X113707964Y-20327544D01*
X113680222Y-20304778D01*
X113657456Y-20277036D01*
X113640539Y-20245387D01*
X113630122Y-20211048D01*
X113626000Y-20169193D01*
X113626000Y-18946807D01*
X113630122Y-18904952D01*
X113640539Y-18870613D01*
X113657456Y-18838964D01*
X113680222Y-18811222D01*
X113707964Y-18788456D01*
X113739613Y-18771539D01*
X113773952Y-18761122D01*
X113815807Y-18757000D01*
X115038193Y-18757000D01*
X115080048Y-18761122D01*
X115080048Y-18761122D01*
G37*
G36*
X111660642Y-18787781D02*
G01*
X111784208Y-18838964D01*
X111806416Y-18848163D01*
X111937608Y-18935822D01*
X112049178Y-19047392D01*
X112136837Y-19178584D01*
X112136838Y-19178586D01*
X112197219Y-19324358D01*
X112228000Y-19479107D01*
X112228000Y-19636893D01*
X112197219Y-19791642D01*
X112136838Y-19937414D01*
X112136837Y-19937416D01*
X112049178Y-20068608D01*
X111937608Y-20180178D01*
X111806416Y-20267837D01*
X111806415Y-20267838D01*
X111806414Y-20267838D01*
X111660642Y-20328219D01*
X111505893Y-20359000D01*
X111348107Y-20359000D01*
X111193358Y-20328219D01*
X111047586Y-20267838D01*
X111047585Y-20267838D01*
X111047584Y-20267837D01*
X110916392Y-20180178D01*
X110804822Y-20068608D01*
X110717163Y-19937416D01*
X110717162Y-19937414D01*
X110656781Y-19791642D01*
X110626000Y-19636893D01*
X110626000Y-19479107D01*
X110656781Y-19324358D01*
X110717162Y-19178586D01*
X110717163Y-19178584D01*
X110804822Y-19047392D01*
X110916392Y-18935822D01*
X111047584Y-18848163D01*
X111069792Y-18838964D01*
X111193358Y-18787781D01*
X111348107Y-18757000D01*
X111505893Y-18757000D01*
X111660642Y-18787781D01*
X111660642Y-18787781D01*
G37*
G36*
X82105000Y-20201000D02*
G01*
X81403000Y-20201000D01*
X81403000Y-19169000D01*
X82105000Y-19169000D01*
X82105000Y-20201000D01*
X82105000Y-20201000D01*
G37*
G36*
X87232499Y-18238445D02*
G01*
X87269995Y-18249820D01*
X87304554Y-18268292D01*
X87334847Y-18293153D01*
X87359708Y-18323446D01*
X87378180Y-18358005D01*
X87389555Y-18395501D01*
X87394000Y-18440638D01*
X87394000Y-19179362D01*
X87389555Y-19224499D01*
X87378180Y-19261995D01*
X87359708Y-19296554D01*
X87334847Y-19326847D01*
X87304554Y-19351708D01*
X87269995Y-19370180D01*
X87232499Y-19381555D01*
X87187362Y-19386000D01*
X86548638Y-19386000D01*
X86503501Y-19381555D01*
X86466005Y-19370180D01*
X86431446Y-19351708D01*
X86401153Y-19326847D01*
X86376292Y-19296554D01*
X86357820Y-19261995D01*
X86346445Y-19224499D01*
X86342000Y-19179362D01*
X86342000Y-18440638D01*
X86346445Y-18395501D01*
X86357820Y-18358005D01*
X86376292Y-18323446D01*
X86401153Y-18293153D01*
X86431446Y-18268292D01*
X86466005Y-18249820D01*
X86503501Y-18238445D01*
X86548638Y-18234000D01*
X87187362Y-18234000D01*
X87232499Y-18238445D01*
X87232499Y-18238445D01*
G37*
G36*
X84205000Y-19251000D02*
G01*
X83503000Y-19251000D01*
X83503000Y-18219000D01*
X84205000Y-18219000D01*
X84205000Y-19251000D01*
X84205000Y-19251000D01*
G37*
M02*
