M48
; DRILL file {KiCad (5.1.0)-1} date 2019-03-25 6:47:31 AM
; FORMAT={-:-/ absolute / inch / decimal}
; #@! TF.CreationDate,2019-03-25T06:47:31-06:00
; #@! TF.GenerationSoftware,Kicad,Pcbnew,(5.1.0)-1
; #@! TF.FileFunction,Plated,1,2,PTH
FMAT,2
INCH
T1C0.0150
T2C0.0300
T3C0.0315
T4C0.0394
T5C0.0402
T6C0.0433
T7C0.1693
%
G90
G05
T1
X3.2Y-3.07
X3.21Y-3.17
X3.2974Y-3.1026
X3.55Y-2.84
X3.55Y-2.89
X3.61Y-2.78
X3.63Y-2.93
X3.66Y-2.89
X3.66Y-2.99
X3.81Y-2.75
X3.83Y-2.82
X3.84Y-1.85
X3.84Y-3.28
X3.86Y-2.89
X3.89Y-2.23
X3.89Y-2.67
X3.9Y-2.48
X3.91Y-3.15
X3.96Y-2.33
X4.01Y-2.35
X4.04Y-2.19
X4.04Y-2.67
X4.04Y-3.15
X4.09Y-2.15
X4.11Y-2.52
X4.12Y-2.44
X4.14Y-2.19
X4.14Y-3.15
X4.21Y-2.52
X4.22Y-2.75
X4.23Y-3.15
X4.23Y-3.23
X4.32Y-3.23
T2
X2.57Y-2.455
X2.57Y-2.805
X2.67Y-2.455
X2.67Y-2.805
X2.77Y-2.455
X2.77Y-2.805
X2.87Y-2.455
X2.87Y-2.805
X2.97Y-2.455
X2.97Y-2.805
X3.07Y-2.455
X3.07Y-2.805
X3.17Y-2.455
X3.17Y-2.805
X3.27Y-2.455
X3.27Y-2.805
X2.585Y-1.755
X2.585Y-2.105
X2.685Y-1.755
X2.685Y-2.105
X2.785Y-1.755
X2.785Y-2.105
X2.885Y-1.755
X2.885Y-2.105
X2.985Y-1.755
X2.985Y-2.105
X3.085Y-1.755
X3.085Y-2.105
X3.185Y-1.755
X3.185Y-2.105
X3.285Y-1.755
X3.285Y-2.105
T3
X4.455Y-2.1721
X4.455Y-2.365
T4
X3.7Y-2.48
X3.7707Y-2.4093
X3.72Y-1.03
X3.82Y-1.03
X3.92Y-1.03
X4.02Y-1.03
X2.62Y-3.51
X2.62Y-3.61
X2.62Y-3.71
X3.58Y-3.18
X3.58Y-3.28
X3.58Y-3.38
T5
X2.91Y-0.8469
X2.91Y-0.965
X3.0281Y-0.8469
X3.0281Y-0.965
X4.3869Y-0.77
X4.3869Y-0.8881
X4.3869Y-1.0062
X4.3869Y-1.1243
X4.505Y-0.77
X4.505Y-0.8881
X4.505Y-1.0062
X4.505Y-1.1243
X4.3869Y-1.48
X4.3869Y-1.5981
X4.3869Y-1.7162
X4.3869Y-1.8343
X4.505Y-1.48
X4.505Y-1.5981
X4.505Y-1.7162
X4.505Y-1.8343
X2.91Y-1.295
X3.0281Y-1.295
T6
X4.0797Y-3.37
X4.6703Y-3.37
T7
X4.58Y-2.705
X3.245Y-3.715
X4.07Y-1.48
T4
G00X2.8397Y-3.0708
M15
G01X2.8397Y-3.1692
M16
G05
G00X2.9184Y-3.2972
M15
G01X2.9972Y-3.2972
M16
G05
G00X3.0759Y-3.0708
M15
G01X3.0759Y-3.1692
M16
G05
T0
M30
