G04 #@! TF.GenerationSoftware,KiCad,Pcbnew,(5.1.0)-1*
G04 #@! TF.CreationDate,2019-03-25T06:45:32-06:00*
G04 #@! TF.ProjectId,ParkingSystem,5061726b-696e-4675-9379-7374656d2e6b,v01*
G04 #@! TF.SameCoordinates,Original*
G04 #@! TF.FileFunction,Legend,Bot*
G04 #@! TF.FilePolarity,Positive*
%FSLAX46Y46*%
G04 Gerber Fmt 4.6, Leading zero omitted, Abs format (unit mm)*
G04 Created by KiCad (PCBNEW (5.1.0)-1) date 2019-03-25 06:45:32*
%MOMM*%
%LPD*%
G04 APERTURE LIST*
%ADD10C,0.120000*%
%ADD11C,0.150000*%
G04 APERTURE END LIST*
D10*
X96691267Y-57152000D02*
X96348733Y-57152000D01*
X96691267Y-56132000D02*
X96348733Y-56132000D01*
X101771267Y-64518000D02*
X101428733Y-64518000D01*
X101771267Y-63498000D02*
X101428733Y-63498000D01*
X106851267Y-57660000D02*
X106508733Y-57660000D01*
X106851267Y-56640000D02*
X106508733Y-56640000D01*
X101771267Y-62740000D02*
X101428733Y-62740000D01*
X101771267Y-61720000D02*
X101428733Y-61720000D01*
X106851267Y-59438000D02*
X106508733Y-59438000D01*
X106851267Y-58418000D02*
X106508733Y-58418000D01*
X96691267Y-55374000D02*
X96348733Y-55374000D01*
X96691267Y-54354000D02*
X96348733Y-54354000D01*
X101517267Y-53088000D02*
X101174733Y-53088000D01*
X101517267Y-52068000D02*
X101174733Y-52068000D01*
X101517267Y-54866000D02*
X101174733Y-54866000D01*
X101517267Y-53846000D02*
X101174733Y-53846000D01*
D11*
X98972666Y-58015142D02*
X99020285Y-58062761D01*
X99163142Y-58110380D01*
X99258380Y-58110380D01*
X99401238Y-58062761D01*
X99496476Y-57967523D01*
X99544095Y-57872285D01*
X99591714Y-57681809D01*
X99591714Y-57538952D01*
X99544095Y-57348476D01*
X99496476Y-57253238D01*
X99401238Y-57158000D01*
X99258380Y-57110380D01*
X99163142Y-57110380D01*
X99020285Y-57158000D01*
X98972666Y-57205619D01*
X98020285Y-58110380D02*
X98591714Y-58110380D01*
X98306000Y-58110380D02*
X98306000Y-57110380D01*
X98401238Y-57253238D01*
X98496476Y-57348476D01*
X98591714Y-57396095D01*
X101766666Y-65889142D02*
X101814285Y-65936761D01*
X101957142Y-65984380D01*
X102052380Y-65984380D01*
X102195238Y-65936761D01*
X102290476Y-65841523D01*
X102338095Y-65746285D01*
X102385714Y-65555809D01*
X102385714Y-65412952D01*
X102338095Y-65222476D01*
X102290476Y-65127238D01*
X102195238Y-65032000D01*
X102052380Y-64984380D01*
X101957142Y-64984380D01*
X101814285Y-65032000D01*
X101766666Y-65079619D01*
X101385714Y-65079619D02*
X101338095Y-65032000D01*
X101242857Y-64984380D01*
X101004761Y-64984380D01*
X100909523Y-65032000D01*
X100861904Y-65079619D01*
X100814285Y-65174857D01*
X100814285Y-65270095D01*
X100861904Y-65412952D01*
X101433333Y-65984380D01*
X100814285Y-65984380D01*
X104306666Y-57507142D02*
X104354285Y-57554761D01*
X104497142Y-57602380D01*
X104592380Y-57602380D01*
X104735238Y-57554761D01*
X104830476Y-57459523D01*
X104878095Y-57364285D01*
X104925714Y-57173809D01*
X104925714Y-57030952D01*
X104878095Y-56840476D01*
X104830476Y-56745238D01*
X104735238Y-56650000D01*
X104592380Y-56602380D01*
X104497142Y-56602380D01*
X104354285Y-56650000D01*
X104306666Y-56697619D01*
X103973333Y-56602380D02*
X103354285Y-56602380D01*
X103687619Y-56983333D01*
X103544761Y-56983333D01*
X103449523Y-57030952D01*
X103401904Y-57078571D01*
X103354285Y-57173809D01*
X103354285Y-57411904D01*
X103401904Y-57507142D01*
X103449523Y-57554761D01*
X103544761Y-57602380D01*
X103830476Y-57602380D01*
X103925714Y-57554761D01*
X103973333Y-57507142D01*
X101766666Y-61317142D02*
X101814285Y-61364761D01*
X101957142Y-61412380D01*
X102052380Y-61412380D01*
X102195238Y-61364761D01*
X102290476Y-61269523D01*
X102338095Y-61174285D01*
X102385714Y-60983809D01*
X102385714Y-60840952D01*
X102338095Y-60650476D01*
X102290476Y-60555238D01*
X102195238Y-60460000D01*
X102052380Y-60412380D01*
X101957142Y-60412380D01*
X101814285Y-60460000D01*
X101766666Y-60507619D01*
X101290476Y-61412380D02*
X101100000Y-61412380D01*
X101004761Y-61364761D01*
X100957142Y-61317142D01*
X100861904Y-61174285D01*
X100814285Y-60983809D01*
X100814285Y-60602857D01*
X100861904Y-60507619D01*
X100909523Y-60460000D01*
X101004761Y-60412380D01*
X101195238Y-60412380D01*
X101290476Y-60460000D01*
X101338095Y-60507619D01*
X101385714Y-60602857D01*
X101385714Y-60840952D01*
X101338095Y-60936190D01*
X101290476Y-60983809D01*
X101195238Y-61031428D01*
X101004761Y-61031428D01*
X100909523Y-60983809D01*
X100861904Y-60936190D01*
X100814285Y-60840952D01*
X104274857Y-59285142D02*
X104322476Y-59332761D01*
X104465333Y-59380380D01*
X104560571Y-59380380D01*
X104703428Y-59332761D01*
X104798666Y-59237523D01*
X104846285Y-59142285D01*
X104893904Y-58951809D01*
X104893904Y-58808952D01*
X104846285Y-58618476D01*
X104798666Y-58523238D01*
X104703428Y-58428000D01*
X104560571Y-58380380D01*
X104465333Y-58380380D01*
X104322476Y-58428000D01*
X104274857Y-58475619D01*
X103322476Y-59380380D02*
X103893904Y-59380380D01*
X103608190Y-59380380D02*
X103608190Y-58380380D01*
X103703428Y-58523238D01*
X103798666Y-58618476D01*
X103893904Y-58666095D01*
X102703428Y-58380380D02*
X102608190Y-58380380D01*
X102512952Y-58428000D01*
X102465333Y-58475619D01*
X102417714Y-58570857D01*
X102370095Y-58761333D01*
X102370095Y-58999428D01*
X102417714Y-59189904D01*
X102465333Y-59285142D01*
X102512952Y-59332761D01*
X102608190Y-59380380D01*
X102703428Y-59380380D01*
X102798666Y-59332761D01*
X102846285Y-59285142D01*
X102893904Y-59189904D01*
X102941523Y-58999428D01*
X102941523Y-58761333D01*
X102893904Y-58570857D01*
X102846285Y-58475619D01*
X102798666Y-58428000D01*
X102703428Y-58380380D01*
X96146857Y-53824142D02*
X96194476Y-53871761D01*
X96337333Y-53919380D01*
X96432571Y-53919380D01*
X96575428Y-53871761D01*
X96670666Y-53776523D01*
X96718285Y-53681285D01*
X96765904Y-53490809D01*
X96765904Y-53347952D01*
X96718285Y-53157476D01*
X96670666Y-53062238D01*
X96575428Y-52967000D01*
X96432571Y-52919380D01*
X96337333Y-52919380D01*
X96194476Y-52967000D01*
X96146857Y-53014619D01*
X95194476Y-53919380D02*
X95765904Y-53919380D01*
X95480190Y-53919380D02*
X95480190Y-52919380D01*
X95575428Y-53062238D01*
X95670666Y-53157476D01*
X95765904Y-53205095D01*
X94242095Y-53919380D02*
X94813523Y-53919380D01*
X94527809Y-53919380D02*
X94527809Y-52919380D01*
X94623047Y-53062238D01*
X94718285Y-53157476D01*
X94813523Y-53205095D01*
X98940857Y-52935142D02*
X98988476Y-52982761D01*
X99131333Y-53030380D01*
X99226571Y-53030380D01*
X99369428Y-52982761D01*
X99464666Y-52887523D01*
X99512285Y-52792285D01*
X99559904Y-52601809D01*
X99559904Y-52458952D01*
X99512285Y-52268476D01*
X99464666Y-52173238D01*
X99369428Y-52078000D01*
X99226571Y-52030380D01*
X99131333Y-52030380D01*
X98988476Y-52078000D01*
X98940857Y-52125619D01*
X97988476Y-53030380D02*
X98559904Y-53030380D01*
X98274190Y-53030380D02*
X98274190Y-52030380D01*
X98369428Y-52173238D01*
X98464666Y-52268476D01*
X98559904Y-52316095D01*
X97607523Y-52125619D02*
X97559904Y-52078000D01*
X97464666Y-52030380D01*
X97226571Y-52030380D01*
X97131333Y-52078000D01*
X97083714Y-52125619D01*
X97036095Y-52220857D01*
X97036095Y-52316095D01*
X97083714Y-52458952D01*
X97655142Y-53030380D01*
X97036095Y-53030380D01*
X101226857Y-56237142D02*
X101274476Y-56284761D01*
X101417333Y-56332380D01*
X101512571Y-56332380D01*
X101655428Y-56284761D01*
X101750666Y-56189523D01*
X101798285Y-56094285D01*
X101845904Y-55903809D01*
X101845904Y-55760952D01*
X101798285Y-55570476D01*
X101750666Y-55475238D01*
X101655428Y-55380000D01*
X101512571Y-55332380D01*
X101417333Y-55332380D01*
X101274476Y-55380000D01*
X101226857Y-55427619D01*
X100274476Y-56332380D02*
X100845904Y-56332380D01*
X100560190Y-56332380D02*
X100560190Y-55332380D01*
X100655428Y-55475238D01*
X100750666Y-55570476D01*
X100845904Y-55618095D01*
X99941142Y-55332380D02*
X99322095Y-55332380D01*
X99655428Y-55713333D01*
X99512571Y-55713333D01*
X99417333Y-55760952D01*
X99369714Y-55808571D01*
X99322095Y-55903809D01*
X99322095Y-56141904D01*
X99369714Y-56237142D01*
X99417333Y-56284761D01*
X99512571Y-56332380D01*
X99798285Y-56332380D01*
X99893523Y-56284761D01*
X99941142Y-56237142D01*
M02*
